<svg width="202" height="50" viewBox="0 0 202 50" fill="none"
    xmlns="http://www.w3.org/2000/svg">
    <path d="M147.5 46.9001H55.2637" stroke="white" stroke-width="1.2" stroke-miterlimit="10"/>
    <path d="M50.5 39.6236H50.2145L50.0694 39.8695L47.7642 43.776H0.5V28.9846L26.3629 1.17603H201.5V20.9947L182.991 39.6236H50.5Z" stroke="#00FFFF"/>
    <path d="M70.6468 14.0807H78.5858C79.2658 14.0807 79.5832 14.6077 79.5378 15.6617L78.8238 18.9597H75.7468L76.2058 16.8007H73.0098L71.6158 23.3967H76.1038L73.2138 26.1167H69.2528C68.6068 26.1167 68.3235 25.6407 68.4028 24.6887L70.6468 14.0807ZM83.025 14.0807H85.881L84.895 18.7047L81.648 20.5067L83.025 14.0807ZM87.632 20.6427L84.062 22.5977L83.399 25.7257H80.543L81.529 21.1017L88.312 17.4127L89.026 14.0807H92.018L89.094 27.8167L86.51 25.8787L87.632 20.6427ZM95.4371 14.0977H103.58C104.237 14.2904 104.464 14.7834 104.26 15.5767L102.05 25.9807H99.0581L100.214 20.5237L96.7291 22.1217L95.5561 27.6467L92.9211 25.9467L94.0261 20.7277L100.877 17.4127L101.047 16.5797H97.9021L97.4771 18.5517L94.1451 20.1837L95.4371 14.0977ZM107.849 14.0977H110.637L110.144 16.4097L112.932 19.4357L114.054 14.0977H116.842L114.326 25.9637H111.504L112.082 23.2437L109.328 20.3197L108.121 25.9637H105.333L107.849 14.0977ZM126.806 25.2667C126.546 25.7314 126.121 25.9637 125.531 25.9637H118.952C118.091 25.9637 117.757 25.499 117.949 24.5697L120.006 14.9477C120.403 14.3697 120.896 14.0807 121.485 14.0807H129.186L129.169 14.1487L125.735 16.6987H122.522L121.111 23.3457H124.324L124.97 20.3197H122.046L125.072 17.9227H128.37L126.806 25.2667ZM132.452 14.0807H139.099L141.02 16.8007H134.9L134.628 18.0757H136.872L138.623 20.7787H134.05L133.506 23.3287H137.008L138.929 25.9807H129.919L132.452 14.0807Z" fill="#00FFFF"/>
    <path d="M167.393 49.0494L170.59 44.2761H182.085L179.211 49.0494H167.393Z" fill="#FF0049"/>
    <path d="M151 49.0494L154.197 44.2761H165.692L162.819 49.0494H151Z" fill="#FF0049"/>
</svg>
