<svg width="216" height="63" viewBox="0 0 216 63" fill="none" xmlns="http://www.w3.org/2000/svg">
<path d="M154.5 53.2246H62.2637" stroke="white" stroke-width="1.2" stroke-miterlimit="10"/>
<path d="M57.5 45.9476H57.2145L57.0694 46.1935L54.7642 50.1H7.5V35.3085L33.3629 7.5H208.5V27.3187L189.991 45.9476H57.5Z" stroke="#00FFFF"/>
<path d="M77.6468 20.4047H85.5858C86.2658 20.4047 86.5832 20.9317 86.5378 21.9857L85.8238 25.2837H82.7468L83.2058 23.1247H80.0098L78.6158 29.7207H83.1038L80.2138 32.4407H76.2528C75.6068 32.4407 75.3235 31.9647 75.4028 31.0127L77.6468 20.4047ZM90.025 20.4047H92.881L91.895 25.0287L88.648 26.8307L90.025 20.4047ZM94.632 26.9667L91.062 28.9217L90.399 32.0497H87.543L88.529 27.4257L95.312 23.7367L96.026 20.4047H99.018L96.094 34.1407L93.51 32.2027L94.632 26.9667ZM102.437 20.4217H110.58C111.237 20.6144 111.464 21.1074 111.26 21.9007L109.05 32.3047H106.058L107.214 26.8477L103.729 28.4457L102.556 33.9707L99.9211 32.2707L101.026 27.0517L107.877 23.7367L108.047 22.9037H104.902L104.477 24.8757L101.145 26.5077L102.437 20.4217ZM114.849 20.4217H117.637L117.144 22.7337L119.932 25.7597L121.054 20.4217H123.842L121.326 32.2877H118.504L119.082 29.5677L116.328 26.6437L115.121 32.2877H112.333L114.849 20.4217ZM133.806 31.5907C133.546 32.0554 133.121 32.2877 132.531 32.2877H125.952C125.091 32.2877 124.757 31.823 124.949 30.8937L127.006 21.2717C127.403 20.6937 127.896 20.4047 128.485 20.4047H136.186L136.169 20.4727L132.735 23.0227H129.522L128.111 29.6697H131.324L131.97 26.6437H129.046L132.072 24.2467H135.37L133.806 31.5907ZM139.452 20.4047H146.099L148.02 23.1247H141.9L141.628 24.3997H143.872L145.623 27.1027H141.05L140.506 29.6527H144.008L145.929 32.3047H136.919L139.452 20.4047Z" fill="#00FFFF"/>
<path d="M174.393 55.3729L177.59 50.5996H189.085L186.211 55.3729H174.393Z" fill="#FF0049"/>
<path d="M158 55.3729L161.197 50.5996H172.692L169.819 55.3729H158Z" fill="#FF0049"/>
<g filter="url(#filter0_f_898_14902)">
<path d="M154.5 53.2246H62.2637" stroke="white" stroke-width="1.2" stroke-miterlimit="10"/>
<path d="M57.5 44.9476H56.6434L56.2081 45.6853L54.1932 49.1H8.5V35.7017L33.7985 8.5H207.5V26.9063L189.575 44.9476H57.5Z" stroke="#00FFFF" stroke-width="3"/>
<path d="M174.393 55.3729L177.59 50.5996H189.085L186.211 55.3729H174.393Z" fill="#FF0049"/>
<path d="M158 55.3729L161.197 50.5996H172.692L169.819 55.3729H158Z" fill="#FF0049"/>
</g>
<defs>
<filter id="filter0_f_898_14902" x="0" y="0" width="216" height="62.373" filterUnits="userSpaceOnUse" color-interpolation-filters="sRGB">
<feFlood flood-opacity="0" result="BackgroundImageFix"/>
<feBlend mode="normal" in="SourceGraphic" in2="BackgroundImageFix" result="shape"/>
<feGaussianBlur stdDeviation="3.5" result="effect1_foregroundBlur_898_14902"/>
</filter>
</defs>
</svg>
