<svg width="132" height="45" viewBox="0 0 132 45" fill="none"
    xmlns="http://www.w3.org/2000/svg">
    <path d="M113 44.0288H48" stroke="white" stroke-miterlimit="10"/>
    <path d="M0 44.0287V28.5407L26.1451 0.428711H132V20.9535L113.199 39.8763H45.5L43.0498 44.0287H0Z" fill="#00FFFF"/>
    <path d="M36.3928 13.8504H39.4358L37.4298 23.2514H40.8468L43.2778 25.7504H33.8598L36.3928 13.8504ZM47.8442 13.8334H55.5452L53.1652 25.0194C52.9045 25.4841 52.4795 25.7164 51.8902 25.7164H45.3112C44.4499 25.7164 44.1155 25.2517 44.3082 24.3224L46.3652 14.7004C46.7619 14.1224 47.2549 13.8334 47.8442 13.8334ZM48.8812 16.4514L47.4702 23.0984H50.6832L52.0942 16.4514H48.8812ZM65.5433 25.0194C65.2827 25.4841 64.8577 25.7164 64.2683 25.7164H57.6893C56.828 25.7164 56.4937 25.2517 56.6863 24.3224L58.7433 14.7004C59.14 14.1224 59.633 13.8334 60.2223 13.8334H67.9233L67.9063 13.9014L64.4723 16.4514H61.2593L59.8483 23.0984H63.0613L63.7073 20.0724H60.7833L63.8093 17.6754H67.1073L65.5433 25.0194ZM72.6005 13.8334H80.3015L77.9215 25.0194C77.6608 25.4841 77.2358 25.7164 76.6465 25.7164H70.0675C69.2061 25.7164 68.8718 25.2517 69.0645 24.3224L71.1215 14.7004C71.5181 14.1224 72.0111 13.8334 72.6005 13.8334ZM73.6375 16.4514L72.2265 23.0984H75.4395L76.8505 16.4514H73.6375ZM86.5936 14.1224L84.7576 22.8094H87.7666L89.6366 13.9864L92.4246 15.6694L90.4866 24.7644C90.0786 25.4217 89.6366 25.7504 89.1606 25.7504H81.1196L83.9756 12.3034L86.5936 14.1224ZM95.3167 13.8334H103.375L104.99 16.5874H100.978L99.1247 25.2914L95.7077 27.5014L98.0197 16.5874H94.7387L95.3167 13.8334Z" fill="#0D1238"/>
</svg>
