<svg width="162" height="75" viewBox="0 0 162 75" fill="none" xmlns="http://www.w3.org/2000/svg">
<g filter="url(#filter0_f_898_14902)">
<path d="M128 58.5996H63" stroke="white" stroke-miterlimit="10"/>
<path d="M15 58.6V43.112L41.1451 15H147V35.5248L128.199 54.4476H60.5L58.0498 58.6H15Z" fill="#00FFFF"/>
</g>
<path d="M128 58.5996H63" stroke="white" stroke-miterlimit="10"/>
<path d="M15 58.6V43.112L41.1451 15H147V35.5248L128.199 54.4476H60.5L58.0498 58.6H15Z" fill="#00FFFF"/>
<path d="M51.3928 28.4217H54.4358L52.4298 37.8227H55.8468L58.2778 40.3217H48.8598L51.3928 28.4217ZM62.8442 28.4047H70.5452L68.1652 39.5907C67.9045 40.0554 67.4795 40.2877 66.8902 40.2877H60.3112C59.4499 40.2877 59.1155 39.823 59.3082 38.8937L61.3652 29.2717C61.7619 28.6937 62.2549 28.4047 62.8442 28.4047ZM63.8812 31.0227L62.4702 37.6697H65.6832L67.0942 31.0227H63.8812ZM80.5433 39.5907C80.2827 40.0554 79.8577 40.2877 79.2683 40.2877H72.6893C71.828 40.2877 71.4937 39.823 71.6863 38.8937L73.7433 29.2717C74.14 28.6937 74.633 28.4047 75.2223 28.4047H82.9233L82.9063 28.4727L79.4723 31.0227H76.2593L74.8483 37.6697H78.0613L78.7073 34.6437H75.7833L78.8093 32.2467H82.1073L80.5433 39.5907ZM87.6005 28.4047H95.3015L92.9215 39.5907C92.6608 40.0554 92.2358 40.2877 91.6465 40.2877H85.0675C84.2061 40.2877 83.8718 39.823 84.0645 38.8937L86.1215 29.2717C86.5181 28.6937 87.0111 28.4047 87.6005 28.4047ZM88.6375 31.0227L87.2265 37.6697H90.4395L91.8505 31.0227H88.6375ZM101.594 28.6937L99.7576 37.3807H102.767L104.637 28.5577L107.425 30.2407L105.487 39.3357C105.079 39.993 104.637 40.3217 104.161 40.3217H96.1196L98.9756 26.8747L101.594 28.6937ZM110.317 28.4047H118.375L119.99 31.1587H115.978L114.125 39.8627L110.708 42.0727L113.02 31.1587H109.739L110.317 28.4047Z" fill="#0D1238"/>
<defs>
<filter id="filter0_f_898_14902" x="0" y="0" width="162" height="74.0996" filterUnits="userSpaceOnUse" color-interpolation-filters="sRGB">
<feFlood flood-opacity="0" result="BackgroundImageFix"/>
<feBlend mode="normal" in="SourceGraphic" in2="BackgroundImageFix" result="shape"/>
<feGaussianBlur stdDeviation="7.5" result="effect1_foregroundBlur_898_14902"/>
</filter>
</defs>
</svg>
