<svg width="54" height="33" viewBox="0 0 54 33" fill="none"
    xmlns="http://www.w3.org/2000/svg">
    <path d="M37.9546 32.6C37.5925 32.6387 37.3272 32.4991 37.0853 32.2573C36.4842 31.6561 35.8651 31.0743 35.2584 30.4787C34.5177 29.7519 33.7839 29.0194 33.0432 28.2926C31.6585 26.9327 30.2725 25.5757 28.8864 24.2187C28.295 23.6396 27.7021 23.0634 27.1093 22.4857C27.054 22.4318 27.0001 22.3752 26.9379 22.3296C26.7293 22.1734 26.569 22.1748 26.3741 22.3531C26.0646 22.6364 25.7605 22.9252 25.4607 23.2182C24.7034 23.9575 23.9502 24.6996 23.1971 25.443C22.5683 26.0635 21.9464 26.6895 21.3135 27.3059C20.5714 28.03 19.8183 28.7431 19.0748 29.4658C18.4972 30.0269 17.9278 30.5962 17.3557 31.1614C16.9619 31.5483 16.5694 31.9367 16.1742 32.3222C15.7707 32.7161 15.1267 32.7313 14.7246 32.3416C13.6397 31.2885 12.5619 30.2272 11.4798 29.1714C10.5332 28.2483 9.58106 27.3294 8.63307 26.4062C7.98495 25.7747 7.33821 25.1404 6.69286 24.5075C5.2377 23.0772 3.78254 21.6469 2.326 20.218C1.68756 19.592 1.05188 18.9619 0.399611 18.351C-0.103406 17.8798 -0.157301 17.1778 0.385792 16.661C0.977252 16.0985 1.56457 15.5306 2.1505 14.9626C2.53053 14.5936 2.90364 14.2177 3.28643 13.8515C3.45917 13.6857 3.64435 13.5447 3.86822 13.4342C4.2441 13.2476 4.5343 13.4024 4.8176 13.5862C5.01797 13.7161 5.18104 13.9027 5.35378 14.0726C6.14285 14.8451 6.92778 15.6204 7.71547 16.3929C8.41749 17.0811 9.12364 17.7637 9.82428 18.4533C10.3729 18.9936 10.9132 19.5423 11.4646 20.0812C12.3794 20.9753 13.3012 21.8611 14.2174 22.7538C14.4385 22.9694 14.643 23.2016 14.8669 23.4144C15.4155 23.9368 15.5109 23.8773 15.9738 23.4241C16.9425 22.4747 17.9057 21.5198 18.8758 20.5732C19.839 19.6335 20.8133 18.7062 21.7751 17.7637C22.6802 16.8765 23.5743 15.9769 24.4753 15.0842C24.9535 14.6102 25.4192 14.1238 25.9195 13.6733C26.1433 13.4715 26.4294 13.296 26.7583 13.354C27.0181 13.3996 27.2571 13.5295 27.4492 13.7189C28.6211 14.87 29.7888 16.0267 30.9607 17.1764C31.559 17.7637 32.1643 18.3414 32.7641 18.9259C33.292 19.4414 33.813 19.9637 34.3408 20.4778C34.7513 20.8786 35.1714 21.2683 35.5818 21.6704C36.1968 22.2729 36.7993 22.8865 37.4184 23.4849C37.7804 23.8359 37.8882 23.945 38.3719 23.478C38.944 22.9252 39.5064 22.3655 40.0758 21.81C41.039 20.8717 42.0063 19.9361 42.9681 18.995C43.7876 18.1921 44.5974 17.3782 45.4169 16.5753C46.1576 15.8512 46.908 15.1367 47.6528 14.4154C47.8753 14.2012 48.102 13.9897 48.3065 13.7589C48.4917 13.5503 48.7321 13.448 48.9809 13.3665C49.2628 13.2753 49.5018 13.4342 49.7174 13.5738C49.9261 13.7092 50.1016 13.9013 50.2826 14.0768C51.0814 14.8548 51.8774 15.637 52.672 16.4191C52.7894 16.5352 52.9 16.6596 53.0119 16.7812C53.4596 17.2732 53.4417 17.8176 52.9677 18.2875C52.2449 19.0019 51.5277 19.7205 50.8022 20.4322C49.6304 21.5847 48.4571 22.7359 47.2811 23.8829C46.4368 24.7065 45.5813 25.5177 44.7384 26.3441C43.3523 27.7039 41.9759 29.072 40.5899 30.4318C39.921 31.0882 39.2356 31.7266 38.5654 32.3803C38.3829 32.5585 38.1812 32.6276 37.9532 32.5986L37.9546 32.6Z" fill="#299AF6"/>
    <path d="M43.7517 8.11785C43.8111 8.49511 43.5499 8.72727 43.326 8.96496C43.0483 9.26207 42.7415 9.53293 42.4499 9.81899C41.6871 10.568 40.9256 11.3184 40.1628 12.0674C40.1158 12.1143 40.0716 12.1627 40.0233 12.2097C39.7123 12.5123 39.4581 12.5317 39.125 12.2373C38.7685 11.9236 38.4285 11.592 38.09 11.2589C37.5082 10.6882 36.9195 10.1258 36.2631 9.64072C35.4201 9.01886 34.5523 8.43983 33.5946 8.00177C32.7931 7.63556 31.9791 7.29975 31.132 7.05792C30.658 6.92249 30.1702 6.8299 29.6865 6.73179C29.2471 6.64196 28.8035 6.56872 28.3599 6.4941C28.241 6.47337 28.1181 6.46922 27.9964 6.46922C27.2115 6.46508 26.4266 6.45955 25.6417 6.46369C24.9908 6.46784 24.3523 6.57287 23.7194 6.71797C23.3021 6.8147 22.8737 6.87551 22.4633 6.99711C21.916 7.1588 21.3743 7.3495 20.8423 7.55679C20.3323 7.75579 19.8183 7.95893 19.3387 8.21873C18.71 8.55868 18.1019 8.94009 17.5049 9.33532C16.8237 9.78582 16.2046 10.3123 15.6297 10.8969C15.128 11.4068 14.596 11.8863 14.0681 12.37C13.7641 12.6491 13.5789 12.6478 13.2666 12.3589C12.9598 12.0743 12.6765 11.7647 12.3766 11.4718C11.5102 10.6219 10.6354 9.78029 9.77312 8.92489C9.32814 8.48267 9.33367 7.99209 9.71646 7.57752C10.0536 7.21408 10.4129 6.86998 10.7764 6.53141C11.3402 6.0049 11.8985 5.4701 12.4886 4.97537C12.9184 4.61469 13.3854 4.29961 13.8525 3.9873C14.4274 3.60175 15.0051 3.21896 15.6062 2.87624C16.217 2.528 16.8402 2.19081 17.4884 1.91857C18.2857 1.58277 19.0859 1.24005 19.933 1.03138C20.447 0.904248 20.9556 0.757764 21.4641 0.608518C21.9589 0.462034 22.4591 0.363918 22.9759 0.316933C23.432 0.275476 23.8811 0.163541 24.3344 0.0889172C24.4311 0.0723342 24.5334 0.0778619 24.6315 0.075098C25.3045 0.0488416 25.9775 0.010148 26.6505 0.000474579C27.0471 -0.00505308 27.4437 0.0391682 27.8403 0.0571331C28.0503 0.0668065 28.2604 0.0654246 28.4704 0.0709523C28.7454 0.0778619 29.0246 0.0474597 29.2844 0.175978C29.3037 0.185651 29.3272 0.185651 29.3493 0.188415C29.8178 0.240928 30.289 0.279622 30.7561 0.350099C31.0781 0.399848 31.3946 0.492437 31.7124 0.569824C32.0883 0.66103 32.4683 0.735654 32.8359 0.851735C33.5172 1.06731 34.1943 1.29948 34.8659 1.54407C35.3496 1.71958 35.8388 1.89508 36.2949 2.13001C37.0977 2.54182 37.8882 2.97989 38.6621 3.44145C39.2093 3.76896 39.7344 4.13517 40.243 4.51796C40.992 5.0804 41.7147 5.676 42.3739 6.34623C42.7208 6.7 43.0925 7.03028 43.4421 7.37991C43.6411 7.5789 43.7848 7.81244 43.7517 8.12061V8.11785Z" fill="#299AF6"/>
</svg>
