<svg width="45" height="50" viewBox="0 0 45 50" fill="none" xmlns="http://www.w3.org/2000/svg">
<path d="M12.5571 42.376C12.5571 42.124 12.4581 41.905 12.2601 41.719C12.0681 41.533 11.7951 41.44 11.4411 41.44C11.1411 41.44 10.9041 41.503 10.7301 41.629C10.5561 41.749 10.4691 41.914 10.4691 42.124C10.4691 42.232 10.4901 42.331 10.5321 42.421C10.5741 42.505 10.6461 42.583 10.7481 42.655C10.8561 42.721 10.9941 42.781 11.1621 42.835C11.3361 42.889 11.5551 42.94 11.8191 42.988C12.4791 43.108 12.9831 43.309 13.3311 43.591C13.6791 43.873 13.8531 44.29 13.8531 44.842V44.95C13.8531 45.244 13.7991 45.511 13.6911 45.751C13.5891 45.985 13.4391 46.186 13.2411 46.354C13.0431 46.522 12.8031 46.651 12.5211 46.741C12.2391 46.831 11.9211 46.876 11.5671 46.876C11.1531 46.876 10.7871 46.819 10.4691 46.705C10.1571 46.585 9.89614 46.423 9.68614 46.219C9.47614 46.009 9.31714 45.766 9.20914 45.49C9.10114 45.208 9.04714 44.902 9.04714 44.572V44.302H10.2351V44.518C10.2351 44.896 10.3431 45.199 10.5591 45.427C10.7811 45.649 11.1231 45.76 11.5851 45.76C11.9451 45.76 12.2121 45.682 12.3861 45.526C12.5601 45.37 12.6471 45.184 12.6471 44.968C12.6471 44.866 12.6291 44.77 12.5931 44.68C12.5571 44.584 12.4941 44.5 12.4041 44.428C12.3141 44.35 12.1911 44.281 12.0351 44.221C11.8791 44.161 11.6811 44.11 11.4411 44.068C11.1231 44.014 10.8321 43.945 10.5681 43.861C10.3041 43.771 10.0731 43.654 9.87514 43.51C9.68314 43.366 9.53314 43.186 9.42514 42.97C9.31714 42.754 9.26314 42.49 9.26314 42.178V42.124C9.26314 41.866 9.31414 41.629 9.41614 41.413C9.52414 41.191 9.67114 40.999 9.85714 40.837C10.0491 40.675 10.2771 40.549 10.5411 40.459C10.8111 40.369 11.1111 40.324 11.4411 40.324C11.8131 40.324 12.1431 40.378 12.4311 40.486C12.7191 40.588 12.9591 40.729 13.1511 40.909C13.3491 41.089 13.4961 41.296 13.5921 41.53C13.6941 41.764 13.7451 42.01 13.7451 42.268V42.592H12.5571V42.376ZM14.7199 40.45H19.2559V41.584H17.5819V46.75H16.3939V41.584H14.7199V40.45ZM23.5696 45.4H21.4276L21.1216 46.75H19.8796L21.3826 40.45H23.6146L25.1176 46.75H23.8756L23.5696 45.4ZM21.6796 44.266H23.3086L22.5796 41.044H22.4176L21.6796 44.266ZM27.1364 46.75H25.9484V40.45H27.1364V43.033H27.3974L29.0624 40.45H30.4034V40.504L28.4594 43.519V43.681L30.5114 46.696V46.75H29.1164L27.3974 44.167H27.1364V46.75ZM31.5041 40.45H35.4821V41.584H32.6921V43.024H35.3741V44.158H32.6921V45.616H35.5901V46.75H31.5041V40.45Z" fill="#00FFFF"/>
<path d="M2.40991 29.3501L5.52991 28.1801C5.52991 28.1801 2.75991 22.2701 5.14991 16.5801L8.03991 16.7201" stroke="#FF005C" stroke-width="0.38"/>
<path d="M11.99 3.50977L13.38 5.91977C13.38 5.91977 22.79 1.03977 31.36 6.61977L33 4.32977" stroke="#00FFFF" stroke-width="0.38"/>
<path d="M36.2501 16.0495L38.8101 14.9995C37.6701 11.7295 34.8301 9.24953 34.8301 9.24953L36.8601 7.26953" stroke="#FF005C" stroke-width="0.38"/>
<path d="M42.5804 25.4297H39.1904" stroke="#00FFFF" stroke-width="0.38"/>
<path d="M42.8204 23.8994H39.1904" stroke="#00FFFF" stroke-width="0.38"/>
<path d="M42.8204 22.3594H39.1904" stroke="#00FFFF" stroke-width="0.38"/>
<path d="M42.8204 20.8301H39.1904" stroke="#00FFFF" stroke-width="0.38"/>
<path d="M42.6504 19.2998H39.1904" stroke="#00FFFF" stroke-width="0.38"/>
<path d="M4.21973 10.8198L6.89973 12.5198C6.89973 12.5198 8.21973 10.0698 9.87973 8.5498" stroke="#FF005C" stroke-width="0.38"/>
<path d="M41.4799 29.7301L38.3299 28.8301L36.9199 31.4001" stroke="#FF005C" stroke-width="0.38"/>
<path d="M4.03961 20.3701H1.09961" stroke="#FF005C" stroke-width="0.38"/>
<path d="M4.09 21.79H1" stroke="#FF005C" stroke-width="0.38"/>
<path d="M4.09 23.1797H1" stroke="#FF005C" stroke-width="0.38"/>
<path d="M7.72004 37.23C3.61004 33.42 1.04004 27.96 1.04004 21.91C1.04004 10.36 10.4 1 21.95 1C33.5 1 42.86 10.36 42.86 21.91C42.86 27.93 40.32 33.35 36.25 37.16" stroke="#00FFFF" stroke-width="0.38"/>
<path d="M9.7696 25.4395C9.8996 25.5095 9.9996 25.5495 10.0996 25.6095C13.6796 27.6195 17.2596 29.6195 20.8296 31.6495C21.6096 32.0895 22.3096 32.0895 23.0896 31.6495C26.6496 29.6295 30.2196 27.6295 33.7896 25.6195C33.8996 25.5595 34.0096 25.5095 34.1096 25.4495C34.4796 26.1295 34.1896 27.1695 33.4196 27.6095C32.8296 27.9495 32.2596 28.2895 31.6696 28.6295C28.8196 30.2895 25.9496 31.9495 23.1096 33.6295C22.3096 34.0995 21.5896 34.0995 20.7996 33.6295C17.4096 31.6295 14.0096 29.6595 10.6096 27.6795C9.9196 27.2795 9.58961 26.6895 9.65961 25.8895C9.65961 25.8295 9.6596 25.7795 9.6796 25.7195C9.6996 25.6395 9.7296 25.5695 9.7696 25.4395Z" fill="#00FFFF"/>
<path d="M33.2804 20.0404C30.5404 18.4304 27.7904 16.8204 25.0404 15.2204V17.2404C27.4904 18.6704 29.9304 20.1004 32.3704 21.5304C32.4004 21.5504 32.4204 21.5704 32.4804 21.6204C32.4004 21.6804 32.3404 21.7404 32.2704 21.7804C29.1804 23.5804 26.0904 25.3804 23.0004 27.1904C22.2904 27.6104 21.6104 27.6104 20.9004 27.1904C17.8804 25.4204 14.8604 23.6604 11.8304 21.9004C11.7004 21.8204 11.5704 21.7404 11.3904 21.6204C11.6704 21.4504 11.9104 21.3004 12.1604 21.1604C14.4604 19.8104 16.7604 18.4704 19.0604 17.1204V15.1104C16.2204 16.7704 13.3804 18.4204 10.5504 20.0904C9.32043 20.8204 9.32043 22.4304 10.5504 23.1504C14.0404 25.2004 17.5404 27.2304 21.0404 29.2704C21.6404 29.6204 22.2604 29.6204 22.8704 29.2704C23.4004 28.9704 23.9204 28.6604 24.4404 28.3604C27.3804 26.6404 30.3304 24.9304 33.2704 23.2104C33.6804 22.9704 34.0004 22.6704 34.1704 22.2104C34.4704 21.3604 34.1404 20.5304 33.2804 20.0304V20.0404Z" fill="#00FFFF"/>
<path d="M22.0498 23.32L26.0098 20.75" stroke="#00FFFF" stroke-width="1.5" stroke-linecap="round" stroke-linejoin="round"/>
<path d="M22.0497 23.32L17.9297 20.75" stroke="#00FFFF" stroke-width="1.5" stroke-linecap="round" stroke-linejoin="round"/>
<path d="M22.0498 23.32V12" stroke="#00FFFF" stroke-width="1.5" stroke-linecap="round" stroke-linejoin="round"/>
</svg>
