<svg width="51" height="50" viewBox="0 0 51 50" fill="none" xmlns="http://www.w3.org/2000/svg">
<path d="M39.1 37.27C43.23 33.45 45.82 27.98 45.82 21.91C45.82 10.36 36.46 1 24.91 1C13.36 1 4 10.36 4 21.91C4 27.91 6.53 33.33 10.58 37.14" stroke="#9E9E9E" stroke-width="0.38"/>
<path d="M42.9396 11.3005L40.1296 13.0805C40.1296 13.0805 37.0796 7.31055 31.0996 5.79055L32.1896 2.31055" stroke="#9E9E9E" stroke-width="0.38"/>
<path d="M20.0399 1.57031L20.6299 4.29031C20.6299 4.29031 10.3899 7.00031 7.79992 16.9003L4.91992 15.7603" stroke="#9E9E9E" stroke-width="0.38"/>
<path d="M15.6097 14.15L13.4297 12.45C15.4197 9.61004 18.8197 8.00004 18.8197 8.00004L17.4097 5.54004" stroke="#9E9E9E" stroke-width="0.38"/>
<path d="M45.5004 19.0703H42.1104" stroke="#9E9E9E" stroke-width="0.38"/>
<path d="M45.7404 20.6104H42.1104" stroke="#9E9E9E" stroke-width="0.38"/>
<path d="M45.7404 22.1406H42.1104" stroke="#9E9E9E" stroke-width="0.38"/>
<path d="M45.7404 23.6699H42.1104" stroke="#9E9E9E" stroke-width="0.38"/>
<path d="M45.5704 25.21H42.1104" stroke="#9E9E9E" stroke-width="0.38"/>
<path d="M9.67004 25.04H6.29004" stroke="#9E9E9E" stroke-width="0.38"/>
<path d="M9.91004 26.5703H6.29004" stroke="#9E9E9E" stroke-width="0.38"/>
<path d="M9.91004 28.1104H6.29004" stroke="#9E9E9E" stroke-width="0.38"/>
<path d="M9.91004 29.6396H6.29004" stroke="#9E9E9E" stroke-width="0.38"/>
<path d="M9.74004 31.1699H6.29004" stroke="#9E9E9E" stroke-width="0.38"/>
<path d="M4.04004 23.2305H6.33004V31.5105" stroke="#9E9E9E" stroke-width="0.38"/>
<path d="M6.33008 23.2304H11.7701V19.6104H7.98008" stroke="#9E9E9E" stroke-width="0.38"/>
<path d="M24.5191 1.12012V6.68012C24.5191 6.68012 23.4191 6.82012 21.6191 7.28012" stroke="#9E9E9E" stroke-width="0.38"/>
<path d="M45.1194 26.9395H38.6094V30.9695L42.3194 33.5495" stroke="#9E9E9E" stroke-width="0.38"/>
<path d="M40.1296 13.0898L38.6396 14.0498V21.8198" stroke="#9E9E9E" stroke-width="0.38"/>
<path d="M24.5195 6.67969L27.3895 7.27969" stroke="#9E9E9E" stroke-width="0.38"/>
<path d="M36.7198 28.3399C36.7398 27.3399 36.7498 26.1699 36.7198 25.0099C36.7198 24.7799 36.6098 24.4899 36.4198 24.1699C36.2098 23.8099 35.8498 23.5999 35.2798 23.4799L35.0598 23.4399V19.8699C35.0598 19.3999 34.9398 19.0199 34.6898 18.6999C34.3198 18.2199 33.8098 17.9899 33.1198 17.9899H24.8998C24.8998 17.9899 25.3298 16.1399 24.7198 14.9599L25.3598 15.5599C27.0098 17.2599 29.1398 17.0299 30.4298 16.1099C31.9098 15.0399 32.4498 13.1399 31.7398 11.4899C31.0298 9.84989 29.2598 8.89989 27.5198 9.21989C26.6298 9.38989 25.8898 9.80989 25.3198 10.4799C24.5098 11.4299 24.2298 12.5499 24.4798 13.8999L24.6398 14.7599C24.6398 14.7599 23.8798 13.1299 21.8098 12.8899C20.8998 12.7899 20.0898 12.8499 19.3798 13.2499C17.6898 14.1999 17.0498 15.6499 17.3998 17.6599L17.4598 17.9799H17.1298C16.8998 17.9799 16.6798 17.9799 16.4498 17.9799C16.1898 17.9799 15.9298 17.9799 15.6598 17.9799C14.5098 17.9899 13.7598 18.7399 13.7598 19.8799C13.7598 24.3999 13.7598 28.9099 13.7598 33.4299C13.7598 34.5999 14.5198 35.3499 15.6898 35.3499H33.1198C34.3198 35.3499 35.0598 34.6099 35.0598 33.4199C35.0598 32.4099 35.0598 31.3999 35.0598 30.3899C35.0598 30.1599 35.1098 29.8799 35.5198 29.7899C36.2098 29.6399 36.7198 29.0199 36.7298 28.3299L36.7198 28.3399ZM25.5698 12.9699C25.5698 12.2699 25.8498 11.6099 26.3598 11.1099C26.8598 10.6099 27.5098 10.3399 28.1898 10.3399H28.1998C28.8998 10.3399 29.5598 10.6199 30.0598 11.1299C30.5598 11.6299 30.8298 12.2999 30.8298 12.9999C30.8298 14.4299 29.6498 15.5999 28.2098 15.6099H28.1898C27.4998 15.6099 26.8498 15.3399 26.3498 14.8399C25.8398 14.3299 25.5598 13.6699 25.5598 12.9599L25.5698 12.9699ZM18.8898 15.2599C19.3398 14.5499 20.0598 14.1099 20.8698 14.0399C21.7798 13.9599 22.6598 14.3399 23.2098 15.0499C23.7498 15.7499 23.8998 16.6799 23.6098 17.5299C23.5398 17.7299 23.3998 17.9899 22.9898 17.9899C22.9898 17.9899 22.9698 17.9899 22.9598 17.9899C22.5198 17.9799 22.0798 17.9899 21.6398 17.9899H20.8498H20.5998C20.1498 17.9899 19.6998 17.9899 19.2398 17.9899C18.8498 17.9899 18.7098 17.7599 18.6498 17.5799C18.3598 16.8199 18.4498 15.9699 18.8998 15.2699L18.8898 15.2599ZM33.8598 33.3899C33.8598 33.9399 33.6398 34.1599 33.0998 34.1599H27.4298H15.7598C15.1598 34.1599 14.9498 33.9599 14.9498 33.3699V19.9799C14.9498 19.3899 15.1598 19.1799 15.7498 19.1799H33.0498C33.1598 19.1799 33.3098 19.1599 33.4398 19.2399C33.5298 19.2899 33.8498 19.4899 33.8498 19.7599C33.8698 20.6499 33.8598 21.5499 33.8598 22.4699V23.4799H30.3798C29.4698 23.4799 28.5598 23.4799 27.6498 23.4799C26.5698 23.4799 25.9198 24.1399 25.9198 25.2199V28.0399C25.9198 28.6399 26.0698 29.0899 26.3798 29.3999C26.6898 29.7099 27.1498 29.8599 27.7498 29.8599H33.8598V33.3899ZM35.3898 28.5199C35.2598 28.6599 35.0698 28.6699 34.9498 28.6699C34.0598 28.6699 33.1698 28.6699 32.2798 28.6699H31.0498H27.7398C27.2798 28.6699 27.1198 28.5199 27.1198 28.0599V27.1699C27.1198 26.5399 27.1198 25.9099 27.1198 25.2699C27.1198 25.1399 27.1298 24.9599 27.2698 24.8199C27.4098 24.6799 27.5898 24.6699 27.7198 24.6699C30.1298 24.6699 32.5398 24.6699 34.9498 24.6699C35.0898 24.6699 35.2698 24.6899 35.3998 24.8199C35.4998 24.9199 35.5498 25.0599 35.5398 25.2499C35.5298 26.1899 35.5398 27.1299 35.5398 28.0599C35.5398 28.1899 35.5298 28.3799 35.3898 28.5199ZM30.3698 26.6699C30.3698 27.2099 29.9298 27.6499 29.3898 27.6499C28.8498 27.6499 28.4098 27.2099 28.4098 26.6699C28.4098 26.1299 28.8498 25.6899 29.3898 25.6899C29.9298 25.6899 30.3698 26.1299 30.3698 26.6699Z" fill="#9E9E9E"/>
<path d="M1.18766 40.7H5.72366V41.834H4.04966V47H2.86166V41.834H1.18766V40.7ZM6.6444 43.148C6.6444 42.332 6.8484 41.699 7.2564 41.249C7.6704 40.799 8.2404 40.574 8.9664 40.574C9.6924 40.574 10.2594 40.799 10.6674 41.249C11.0814 41.699 11.2884 42.332 11.2884 43.148V44.552C11.2884 45.392 11.0814 46.031 10.6674 46.469C10.2594 46.907 9.6924 47.126 8.9664 47.126C8.2404 47.126 7.6704 46.907 7.2564 46.469C6.8484 46.031 6.6444 45.392 6.6444 44.552V43.148ZM8.9664 46.046C9.1824 46.046 9.3624 46.013 9.5064 45.947C9.6504 45.875 9.7674 45.776 9.8574 45.65C9.9474 45.524 10.0104 45.374 10.0464 45.2C10.0824 45.026 10.1004 44.834 10.1004 44.624V43.076C10.1004 42.878 10.0794 42.692 10.0374 42.518C9.9954 42.344 9.9294 42.194 9.8394 42.068C9.7494 41.942 9.6324 41.843 9.4884 41.771C9.3444 41.693 9.1704 41.654 8.9664 41.654C8.7624 41.654 8.5884 41.693 8.4444 41.771C8.3004 41.843 8.1834 41.942 8.0934 42.068C8.0034 42.194 7.9374 42.344 7.8954 42.518C7.8534 42.692 7.8324 42.878 7.8324 43.076V44.624C7.8324 44.834 7.8504 45.026 7.8864 45.2C7.9224 45.374 7.9854 45.524 8.0754 45.65C8.1654 45.776 8.2824 45.875 8.4264 45.947C8.5704 46.013 8.7504 46.046 8.9664 46.046ZM22.4539 47H20.3839L20.0959 42.212V41.348H19.8799V42.212L19.5919 47H17.5219L17.3059 40.7H18.3859L18.5299 45.488V46.298H18.7459V45.488L19.0339 40.7H20.9419L21.2299 45.488V46.298H21.4459V45.488L21.5899 40.7H22.6699L22.4539 47ZM26.5696 45.65H24.4276L24.1216 47H22.8796L24.3826 40.7H26.6146L28.1176 47H26.8756L26.5696 45.65ZM24.6796 44.516H26.3086L25.5796 41.294H25.4176L24.6796 44.516ZM28.9934 40.7H30.1814V45.866H33.0434V47H28.9934V40.7ZM34.5041 40.7H35.6921V45.866H38.5541V47H34.5041V40.7ZM40.0149 40.7H43.9929V41.834H41.2029V43.274H43.8849V44.408H41.2029V45.866H44.1009V47H40.0149V40.7ZM45.2736 40.7H49.8096V41.834H48.1356V47H46.9476V41.834H45.2736V40.7Z" fill="#9E9E9E"/>
</svg>
