<svg width="45" height="48" viewBox="0 0 45 48" fill="none" xmlns="http://www.w3.org/2000/svg">
<path d="M8.2344 39.45V43.572C8.2344 44.292 8.0424 44.856 7.6584 45.264C7.2804 45.672 6.7164 45.876 5.9664 45.876C5.2164 45.876 4.6494 45.672 4.2654 45.264C3.8874 44.856 3.6984 44.292 3.6984 43.572V39.45H4.8864V43.572C4.8864 43.944 4.9734 44.235 5.1474 44.445C5.3214 44.655 5.5944 44.76 5.9664 44.76C6.3384 44.76 6.6114 44.655 6.7854 44.445C6.9594 44.235 7.0464 43.944 7.0464 43.572V39.45H8.2344ZM12.3321 45.156H12.4941V39.45H13.6821V45.75H11.3601L10.6221 40.044H10.4601V45.75H9.27214V39.45H11.5941L12.3321 45.156ZM18.0679 41.376C18.0679 41.124 17.9689 40.905 17.7709 40.719C17.5789 40.533 17.3059 40.44 16.9519 40.44C16.6519 40.44 16.4149 40.503 16.2409 40.629C16.0669 40.749 15.9799 40.914 15.9799 41.124C15.9799 41.232 16.0009 41.331 16.0429 41.421C16.0849 41.505 16.1569 41.583 16.2589 41.655C16.3669 41.721 16.5049 41.781 16.6729 41.835C16.8469 41.889 17.0659 41.94 17.3299 41.988C17.9899 42.108 18.4939 42.309 18.8419 42.591C19.1899 42.873 19.3639 43.29 19.3639 43.842V43.95C19.3639 44.244 19.3099 44.511 19.2019 44.751C19.0999 44.985 18.9499 45.186 18.7519 45.354C18.5539 45.522 18.3139 45.651 18.0319 45.741C17.7499 45.831 17.4319 45.876 17.0779 45.876C16.6639 45.876 16.2979 45.819 15.9799 45.705C15.6679 45.585 15.4069 45.423 15.1969 45.219C14.9869 45.009 14.8279 44.766 14.7199 44.49C14.6119 44.208 14.5579 43.902 14.5579 43.572V43.302H15.7459V43.518C15.7459 43.896 15.8539 44.199 16.0699 44.427C16.2919 44.649 16.6339 44.76 17.0959 44.76C17.4559 44.76 17.7229 44.682 17.8969 44.526C18.0709 44.37 18.1579 44.184 18.1579 43.968C18.1579 43.866 18.1399 43.77 18.1039 43.68C18.0679 43.584 18.0049 43.5 17.9149 43.428C17.8249 43.35 17.7019 43.281 17.5459 43.221C17.3899 43.161 17.1919 43.11 16.9519 43.068C16.6339 43.014 16.3429 42.945 16.0789 42.861C15.8149 42.771 15.5839 42.654 15.3859 42.51C15.1939 42.366 15.0439 42.186 14.9359 41.97C14.8279 41.754 14.7739 41.49 14.7739 41.178V41.124C14.7739 40.866 14.8249 40.629 14.9269 40.413C15.0349 40.191 15.1819 39.999 15.3679 39.837C15.5599 39.675 15.7879 39.549 16.0519 39.459C16.3219 39.369 16.6219 39.324 16.9519 39.324C17.3239 39.324 17.6539 39.378 17.9419 39.486C18.2299 39.588 18.4699 39.729 18.6619 39.909C18.8599 40.089 19.0069 40.296 19.1029 40.53C19.2049 40.764 19.2559 41.01 19.2559 41.268V41.592H18.0679V41.376ZM20.2306 39.45H24.7666V40.584H23.0926V45.75H21.9046V40.584H20.2306V39.45ZM29.0804 44.4H26.9384L26.6324 45.75H25.3904L26.8934 39.45H29.1254L30.6284 45.75H29.3864L29.0804 44.4ZM27.1904 43.266H28.8194L28.0904 40.044H27.9284L27.1904 43.266ZM32.6471 45.75H31.4591V39.45H32.6471V42.033H32.9081L34.5731 39.45H35.9141V39.504L33.9701 42.519V42.681L36.0221 45.696V45.75H34.6271L32.9081 43.167H32.6471V45.75ZM37.0149 39.45H40.9929V40.584H38.2029V42.024H40.8849V43.158H38.2029V44.616H41.1009V45.75H37.0149V39.45Z" fill="#00FFFF"/>
<path d="M3.40991 29.3501L6.52991 28.1801C6.52991 28.1801 3.75991 22.2701 6.14991 16.5801L9.03991 16.7201" stroke="#FF005C" stroke-width="0.38"/>
<path d="M12.98 3.50977L14.37 5.91977C14.37 5.91977 23.78 1.02977 32.35 6.60977L33.99 4.31977" stroke="#00FFFF" stroke-width="0.38"/>
<path d="M37.2401 16.0495L39.8001 14.9995C38.6601 11.7295 35.8201 9.24953 35.8201 9.24953L37.8501 7.26953" stroke="#FF005C" stroke-width="0.38"/>
<path d="M43.5699 25.4297H40.1799" stroke="#00FFFF" stroke-width="0.38"/>
<path d="M43.8099 23.8994H40.1799" stroke="#00FFFF" stroke-width="0.38"/>
<path d="M43.8099 22.3594H40.1799" stroke="#00FFFF" stroke-width="0.38"/>
<path d="M43.8099 20.8301H40.1799" stroke="#00FFFF" stroke-width="0.38"/>
<path d="M43.6399 19.2998H40.1799" stroke="#00FFFF" stroke-width="0.38"/>
<path d="M5.20996 10.8198L7.88996 12.5198C7.88996 12.5198 9.20996 10.0698 10.87 8.5498" stroke="#FF005C" stroke-width="0.38"/>
<path d="M42.4699 29.7301L39.3199 28.8301L37.9199 31.4001" stroke="#FF005C" stroke-width="0.38"/>
<path d="M5.0301 20.3701H2.1001" stroke="#FF005C" stroke-width="0.38"/>
<path d="M5.08 21.79H2" stroke="#FF005C" stroke-width="0.38"/>
<path d="M5.08 23.1797H2" stroke="#FF005C" stroke-width="0.38"/>
<path d="M8.71003 37.23C4.60003 33.41 2.03003 27.96 2.03003 21.91C2.03003 10.36 11.4 1 22.95 1C34.5 1 43.86 10.36 43.86 21.91C43.86 27.93 41.32 33.35 37.25 37.16" stroke="#00FFFF" stroke-width="0.38"/>
<path d="M10.7696 26.4199C10.8996 26.4899 10.9996 26.5299 11.0996 26.5899C14.6796 28.5999 18.2596 30.5999 21.8296 32.6299C22.6096 33.0699 23.3096 33.0699 24.0896 32.6299C27.6496 30.6099 31.2196 28.6099 34.7896 26.5999C34.8996 26.5399 35.0096 26.4899 35.1096 26.4299C35.4796 27.1099 35.1896 28.1499 34.4196 28.5899C33.8296 28.9299 33.2596 29.2699 32.6696 29.6099C29.8196 31.2699 26.9496 32.9299 24.1096 34.6099C23.3096 35.0799 22.5896 35.0799 21.7996 34.6099C18.4096 32.6099 15.0096 30.6399 11.6096 28.6599C10.9196 28.2599 10.5896 27.6699 10.6596 26.8699C10.6596 26.8099 10.6596 26.7599 10.6796 26.6999C10.6996 26.6199 10.7296 26.5499 10.7696 26.4199Z" fill="#00FFFF"/>
<path d="M34.2797 21.0196C31.4797 19.3796 28.6797 17.7296 25.8697 16.0996V18.1196C28.3697 19.5796 30.8697 21.0496 33.3697 22.5096C33.3997 22.5296 33.4197 22.5496 33.4797 22.5996C33.3997 22.6596 33.3397 22.7196 33.2697 22.7596C30.1797 24.5596 27.0897 26.3596 23.9997 28.1696C23.2897 28.5896 22.6097 28.5896 21.8997 28.1696C18.8797 26.3996 15.8597 24.6396 12.8297 22.8796C12.6997 22.7996 12.5697 22.7196 12.3897 22.5996C12.6697 22.4296 12.9097 22.2796 13.1597 22.1396C15.3997 20.8296 17.6497 19.5096 19.8897 18.1996V16.1896C17.0997 17.8096 14.3197 19.4396 11.5397 21.0796C10.3097 21.8096 10.3097 23.4196 11.5397 24.1396C15.0297 26.1896 18.5297 28.2196 22.0297 30.2596C22.6297 30.6096 23.2497 30.6096 23.8597 30.2596C24.3897 29.9596 24.9097 29.6496 25.4297 29.3496C28.3697 27.6296 31.3197 25.9196 34.2597 24.1996C34.6697 23.9596 34.9897 23.6596 35.1597 23.1996C35.4597 22.3496 35.1297 21.5196 34.2697 21.0196H34.2797Z" fill="#00FFFF"/>
<path d="M22.8799 10.8906L18.9199 13.4606" stroke="#00FFFF" stroke-width="1.5" stroke-linecap="round" stroke-linejoin="round"/>
<path d="M22.8799 10.8906L26.9999 13.4606" stroke="#00FFFF" stroke-width="1.5" stroke-linecap="round" stroke-linejoin="round"/>
<path d="M22.8799 10.8906V22.2006" stroke="#00FFFF" stroke-width="1.5" stroke-linecap="round" stroke-linejoin="round"/>
</svg>
