<svg width="342" height="155" viewBox="0 0 342 155" fill="none"
    xmlns="http://www.w3.org/2000/svg">
    <defs>
        <filter id="filter0_b_0_1" x="-3.5" y="-3.5" width="348.651" height="160.433" filterUnits="userSpaceOnUse" color-interpolation-filters="sRGB">
            <feFlood flood-opacity="0" result="BackgroundImageFix"/>
            <feGaussianBlur in="BackgroundImageFix" stdDeviation="2"/>
            <feComposite in2="SourceAlpha" operator="in" result="effect1_backgroundBlur_0_1"/>
            <feBlend mode="normal" in="SourceGraphic" in2="effect1_backgroundBlur_0_1" result="shape"/>
        </filter>
    </defs>
    <path d="M282 152H162.5" stroke="white" stroke-miterlimit="10"/>
    <path d="M288 154.598L291.197 150L325 150L322.126 154.598H288Z" fill="#00E417"/>
    <path d="M18.5 1L1 21H105.5L124 1H118.5H18.5Z" fill="#9E9E9E"/>
    <path d="M34.9071 8.552H37.2471V9.41H37.4031C37.5678 9.05467 37.8018 8.79467 38.1051 8.63C38.4085 8.45667 38.7551 8.37 39.1451 8.37C39.7951 8.37 40.3195 8.58233 40.7181 9.007C41.1168 9.43167 41.3291 10.0513 41.3551 10.866L40.2891 11.022C40.2891 10.424 40.1461 9.995 39.8601 9.735C39.5741 9.46633 39.2231 9.332 38.8071 9.332C38.5385 9.332 38.3045 9.384 38.1051 9.488C37.9145 9.592 37.7541 9.735 37.6241 9.917C37.4941 10.099 37.3988 10.3113 37.3381 10.554C37.2775 10.7967 37.2471 11.0567 37.2471 11.334V14.064H38.8851V15H34.7511V14.064H36.2331V9.488H34.9071V8.552ZM43.9721 12.088C43.9981 12.7293 44.1974 13.245 44.5701 13.635C44.9428 14.025 45.4628 14.22 46.1301 14.22C46.4334 14.22 46.6978 14.1853 46.9231 14.116C47.1484 14.0467 47.3391 13.9513 47.4951 13.83C47.6598 13.7087 47.7898 13.57 47.8851 13.414C47.9891 13.2493 48.0714 13.076 48.1321 12.894L49.0941 13.154C48.9121 13.752 48.5741 14.2417 48.0801 14.623C47.5948 14.9957 46.9361 15.182 46.1041 15.182C45.6448 15.182 45.2201 15.104 44.8301 14.948C44.4488 14.7833 44.1194 14.5537 43.8421 14.259C43.5648 13.9643 43.3481 13.6133 43.1921 13.206C43.0361 12.7987 42.9581 12.348 42.9581 11.854V11.542C42.9581 11.0913 43.0361 10.671 43.1921 10.281C43.3568 9.891 43.5821 9.55733 43.8681 9.28C44.1541 8.994 44.4878 8.773 44.8691 8.617C45.2591 8.45233 45.6794 8.37 46.1301 8.37C46.6588 8.37 47.1138 8.46967 47.4951 8.669C47.8851 8.85967 48.2014 9.098 48.4441 9.384C48.6954 9.67 48.8774 9.982 48.9901 10.32C49.1114 10.658 49.1721 10.97 49.1721 11.256V12.088H43.9721ZM46.1301 9.332C45.8441 9.332 45.5754 9.37967 45.3241 9.475C45.0814 9.56167 44.8648 9.68733 44.6741 9.852C44.4921 10.0167 44.3404 10.2117 44.2191 10.437C44.1064 10.6537 44.0328 10.892 43.9981 11.152H48.1581C48.1408 10.8747 48.0714 10.6233 47.9501 10.398C47.8374 10.1727 47.6858 9.982 47.4951 9.826C47.3131 9.67 47.1008 9.54867 46.8581 9.462C46.6241 9.37533 46.3814 9.332 46.1301 9.332ZM56.0921 14.012H55.9361C55.7281 14.402 55.4421 14.6967 55.0781 14.896C54.7227 15.0867 54.3327 15.182 53.9081 15.182C53.4747 15.182 53.0674 15.1083 52.6861 14.961C52.3047 14.8137 51.9667 14.6013 51.6721 14.324C51.3861 14.0467 51.1564 13.7043 50.9831 13.297C50.8184 12.881 50.7361 12.4087 50.7361 11.88V11.672C50.7361 11.152 50.8227 10.6883 50.9961 10.281C51.1694 9.865 51.3991 9.51833 51.6851 9.241C51.9711 8.955 52.3047 8.73833 52.6861 8.591C53.0674 8.44367 53.4661 8.37 53.8821 8.37C54.3501 8.37 54.7574 8.474 55.1041 8.682C55.4594 8.88133 55.7367 9.176 55.9361 9.566H56.0921V8.552H57.1061V16.586C57.1061 16.8807 57.0107 17.1233 56.8201 17.314C56.6381 17.5047 56.3997 17.6 56.1051 17.6H51.9061V16.664H55.7411C55.9751 16.664 56.0921 16.534 56.0921 16.274V14.012ZM53.9341 14.22C54.2374 14.22 54.5191 14.1637 54.7791 14.051C55.0391 13.9383 55.2644 13.778 55.4551 13.57C55.6544 13.362 55.8104 13.115 55.9231 12.829C56.0357 12.5343 56.0921 12.2093 56.0921 11.854V11.698C56.0921 11.3513 56.0357 11.035 55.9231 10.749C55.8104 10.4543 55.6544 10.203 55.4551 9.995C55.2644 9.787 55.0347 9.62667 54.7661 9.514C54.5061 9.39267 54.2287 9.332 53.9341 9.332C53.6307 9.332 53.3447 9.38833 53.0761 9.501C52.8161 9.61367 52.5864 9.774 52.3871 9.982C52.1964 10.19 52.0447 10.437 51.9321 10.723C51.8281 11.009 51.7761 11.3253 51.7761 11.672V11.88C51.7761 12.244 51.8281 12.569 51.9321 12.855C52.0447 13.141 52.1964 13.388 52.3871 13.596C52.5864 13.7953 52.8161 13.9513 53.0761 14.064C53.3361 14.168 53.6221 14.22 53.9341 14.22ZM63.753 8.552H64.767V15H63.753V13.83H63.597C63.389 14.246 63.116 14.5753 62.778 14.818C62.44 15.0607 62.011 15.182 61.491 15.182C61.1357 15.182 60.8064 15.1213 60.503 15C60.2084 14.8873 59.9527 14.714 59.736 14.48C59.528 14.246 59.3634 13.9557 59.242 13.609C59.1294 13.2623 59.073 12.8593 59.073 12.4V8.552H60.087V12.27C60.087 12.946 60.2257 13.44 60.503 13.752C60.7804 14.064 61.205 14.22 61.777 14.22C62.3924 14.22 62.8734 14.012 63.22 13.596C63.5754 13.1713 63.753 12.608 63.753 11.906V8.552ZM67.111 14.064H69.451V6.836H67.189V5.9H70.465V14.064H72.805V15H67.111V14.064ZM79.7509 13.908H79.5949C79.3869 14.3413 79.0966 14.662 78.7239 14.87C78.3599 15.078 77.9743 15.182 77.5669 15.182C77.1423 15.182 76.7479 15.1127 76.3839 14.974C76.0199 14.8267 75.6993 14.6143 75.4219 14.337C75.1533 14.051 74.9409 13.7043 74.7849 13.297C74.6289 12.8897 74.5509 12.4173 74.5509 11.88V11.672C74.5509 11.1433 74.6289 10.6753 74.7849 10.268C74.9409 9.86067 75.1533 9.51833 75.4219 9.241C75.6993 8.955 76.0199 8.73833 76.3839 8.591C76.7479 8.44367 77.1336 8.37 77.5409 8.37C77.9829 8.37 78.3816 8.46967 78.7369 8.669C79.1009 8.85967 79.3869 9.15867 79.5949 9.566H79.7509V8.552H80.7649V13.674C80.7649 13.934 80.8819 14.064 81.1159 14.064H81.4409V15H80.7519C80.4573 15 80.2146 14.9047 80.0239 14.714C79.8419 14.5233 79.7509 14.2807 79.7509 13.986V13.908ZM77.6709 14.22C77.9743 14.22 78.2516 14.1637 78.5029 14.051C78.7629 13.9383 78.9839 13.778 79.1659 13.57C79.3479 13.362 79.4909 13.115 79.5949 12.829C79.6989 12.5343 79.7509 12.2093 79.7509 11.854V11.698C79.7509 11.3513 79.6989 11.035 79.5949 10.749C79.4909 10.4543 79.3436 10.203 79.1529 9.995C78.9709 9.787 78.7499 9.62667 78.4899 9.514C78.2386 9.39267 77.9656 9.332 77.6709 9.332C77.3676 9.332 77.0903 9.38833 76.8389 9.501C76.5876 9.61367 76.3666 9.774 76.1759 9.982C75.9939 10.1813 75.8509 10.4283 75.7469 10.723C75.6429 11.009 75.5909 11.3253 75.5909 11.672V11.88C75.5909 12.6167 75.7816 13.193 76.1629 13.609C76.5529 14.0163 77.0556 14.22 77.6709 14.22ZM82.6669 8.552H85.0069V9.41H85.1629C85.3276 9.05467 85.5616 8.79467 85.8649 8.63C86.1682 8.45667 86.5149 8.37 86.9049 8.37C87.5549 8.37 88.0792 8.58233 88.4779 9.007C88.8766 9.43167 89.0889 10.0513 89.1149 10.866L88.0489 11.022C88.0489 10.424 87.9059 9.995 87.6199 9.735C87.3339 9.46633 86.9829 9.332 86.5669 9.332C86.2982 9.332 86.0642 9.384 85.8649 9.488C85.6742 9.592 85.5139 9.735 85.3839 9.917C85.2539 10.099 85.1586 10.3113 85.0979 10.554C85.0372 10.7967 85.0069 11.0567 85.0069 11.334V14.064H86.6449V15H82.5109V14.064H83.9929V9.488H82.6669V8.552Z" fill="#0D1238"/>
    <g filter="url(#filter0_b_0_1)">
        <path d="M1.00001 21L1 152.433H154.762L163.566 143.756H327.871L340.652 130.452V1H124.5L106 21H13.5H1.00001Z" stroke="#00E417"/>
    </g>
</svg>
