<svg width="342" height="155" viewBox="0 0 342 155" fill="none"
    xmlns="http://www.w3.org/2000/svg">
    <defs>
        <filter id="filter0_b_0_1" x="-3.5" y="-3.5" width="348.651" height="160.433" filterUnits="userSpaceOnUse" color-interpolation-filters="sRGB">
            <feFlood flood-opacity="0" result="BackgroundImageFix"/>
            <feGaussianBlur in="BackgroundImageFix" stdDeviation="2"/>
            <feComposite in2="SourceAlpha" operator="in" result="effect1_backgroundBlur_0_1"/>
            <feBlend mode="normal" in="SourceGraphic" in2="effect1_backgroundBlur_0_1" result="shape"/>
        </filter>
    </defs>
    <path d="M282 152H162.5" stroke="white" stroke-miterlimit="10"/>
    <path d="M288 154.598L291.197 150L325 150L322.126 154.598H288Z" fill="#FF0049"/>
    <path d="M18.5 1L1 21H105.5L124 1H118.5H18.5Z" fill="#AD00FF"/>
    <path d="M47.9521 12.088C47.9781 12.7293 48.1774 13.245 48.5501 13.635C48.9227 14.025 49.4427 14.22 50.1101 14.22C50.4134 14.22 50.6777 14.1853 50.9031 14.116C51.1284 14.0467 51.3191 13.9513 51.4751 13.83C51.6397 13.7087 51.7697 13.57 51.8651 13.414C51.9691 13.2493 52.0514 13.076 52.1121 12.894L53.0741 13.154C52.8921 13.752 52.5541 14.2417 52.0601 14.623C51.5747 14.9957 50.9161 15.182 50.0841 15.182C49.6247 15.182 49.2001 15.104 48.8101 14.948C48.4287 14.7833 48.0994 14.5537 47.8221 14.259C47.5447 13.9643 47.3281 13.6133 47.1721 13.206C47.0161 12.7987 46.9381 12.348 46.9381 11.854V11.542C46.9381 11.0913 47.0161 10.671 47.1721 10.281C47.3367 9.891 47.5621 9.55733 47.8481 9.28C48.1341 8.994 48.4677 8.773 48.8491 8.617C49.2391 8.45233 49.6594 8.37 50.1101 8.37C50.6387 8.37 51.0937 8.46967 51.4751 8.669C51.8651 8.85967 52.1814 9.098 52.4241 9.384C52.6754 9.67 52.8574 9.982 52.9701 10.32C53.0914 10.658 53.1521 10.97 53.1521 11.256V12.088H47.9521ZM50.1101 9.332C49.8241 9.332 49.5554 9.37967 49.3041 9.475C49.0614 9.56167 48.8447 9.68733 48.6541 9.852C48.4721 10.0167 48.3204 10.2117 48.1991 10.437C48.0864 10.6537 48.0127 10.892 47.9781 11.152H52.1381C52.1207 10.8747 52.0514 10.6233 51.9301 10.398C51.8174 10.1727 51.6657 9.982 51.4751 9.826C51.2931 9.67 51.0807 9.54867 50.8381 9.462C50.6041 9.37533 50.3614 9.332 50.1101 9.332ZM55.951 17.6H54.937V8.552H55.951V9.566H56.107C56.3324 9.176 56.6444 8.88133 57.043 8.682C57.4417 8.474 57.875 8.37 58.343 8.37C58.7417 8.37 59.1187 8.44367 59.474 8.591C59.8294 8.73833 60.1414 8.95067 60.41 9.228C60.6874 9.50533 60.904 9.84767 61.06 10.255C61.2247 10.6623 61.307 11.126 61.307 11.646V11.906C61.307 12.4347 61.229 12.9027 61.073 13.31C60.917 13.7173 60.7004 14.0597 60.423 14.337C60.1544 14.6143 59.838 14.8267 59.474 14.974C59.11 15.1127 58.7244 15.182 58.317 15.182C58.109 15.182 57.8967 15.156 57.68 15.104C57.4634 15.0607 57.2554 14.9913 57.056 14.896C56.8654 14.792 56.6877 14.6707 56.523 14.532C56.3584 14.3847 56.2197 14.2113 56.107 14.012H55.951V17.6ZM58.109 14.22C58.421 14.22 58.707 14.168 58.967 14.064C59.227 13.9513 59.4524 13.7953 59.643 13.596C59.8424 13.3967 59.994 13.154 60.098 12.868C60.2107 12.582 60.267 12.2613 60.267 11.906V11.646C60.267 11.2993 60.2107 10.9873 60.098 10.71C59.994 10.424 59.8424 10.1813 59.643 9.982C59.4524 9.774 59.2227 9.61367 58.954 9.501C58.694 9.38833 58.4124 9.332 58.109 9.332C57.8057 9.332 57.524 9.39267 57.264 9.514C57.004 9.62667 56.7744 9.787 56.575 9.995C56.3844 10.203 56.2327 10.4543 56.12 10.749C56.0074 11.035 55.951 11.3513 55.951 11.698V11.854C55.951 12.2093 56.0074 12.5343 56.12 12.829C56.2327 13.115 56.3844 13.362 56.575 13.57C56.7744 13.778 57.004 13.9383 57.264 14.051C57.524 14.1637 57.8057 14.22 58.109 14.22ZM65.133 6.628C65.133 6.37667 65.2197 6.16433 65.393 5.991C65.575 5.809 65.7917 5.718 66.043 5.718C66.2943 5.718 66.5067 5.809 66.68 5.991C66.862 6.16433 66.953 6.37667 66.953 6.628C66.953 6.87933 66.862 7.096 66.68 7.278C66.5067 7.45133 66.2943 7.538 66.043 7.538C65.7917 7.538 65.575 7.45133 65.393 7.278C65.2197 7.096 65.133 6.87933 65.133 6.628ZM63.287 14.064H65.549V9.488H63.521V8.552H66.563V14.064H68.669V15H63.287V14.064ZM77.123 12.712C77.0536 13.0673 76.9323 13.3967 76.759 13.7C76.5943 14.0033 76.382 14.2677 76.122 14.493C75.862 14.7097 75.5586 14.8787 75.212 15C74.8653 15.1213 74.4796 15.182 74.055 15.182C73.6043 15.182 73.1753 15.1083 72.768 14.961C72.3693 14.8137 72.0183 14.6013 71.715 14.324C71.4116 14.038 71.169 13.6913 70.987 13.284C70.8136 12.8767 70.727 12.4087 70.727 11.88V11.724C70.727 11.204 70.8136 10.736 70.987 10.32C71.169 9.904 71.4116 9.553 71.715 9.267C72.0183 8.981 72.3693 8.76 72.768 8.604C73.1753 8.448 73.6043 8.37 74.055 8.37C74.4623 8.37 74.8393 8.43067 75.186 8.552C75.5326 8.67333 75.836 8.84667 76.096 9.072C76.3646 9.28867 76.5813 9.54867 76.746 9.852C76.9193 10.1553 77.0363 10.4847 77.097 10.84L76.083 11.074C76.057 10.8487 75.992 10.632 75.888 10.424C75.7926 10.2073 75.6583 10.021 75.485 9.865C75.3203 9.70033 75.1166 9.57033 74.874 9.475C74.6313 9.37967 74.3496 9.332 74.029 9.332C73.717 9.332 73.4223 9.39267 73.145 9.514C72.8763 9.62667 72.638 9.79133 72.43 10.008C72.222 10.216 72.0573 10.4673 71.936 10.762C71.8233 11.0567 71.767 11.3773 71.767 11.724V11.88C71.767 12.244 71.8233 12.5733 71.936 12.868C72.0573 13.154 72.222 13.3967 72.43 13.596C72.638 13.7953 72.8806 13.9513 73.158 14.064C73.4353 14.168 73.7343 14.22 74.055 14.22C74.3756 14.22 74.653 14.1723 74.887 14.077C75.1296 13.973 75.3333 13.843 75.498 13.687C75.6713 13.5223 75.8056 13.336 75.901 13.128C76.005 12.92 76.0743 12.7033 76.109 12.478L77.123 12.712Z" fill="#0D1238"/>
    <g filter="url(#filter0_b_0_1)">
        <path d="M1.00001 21L1 152.433H154.762L163.566 143.756H327.871L340.652 130.452V1H124.5L106 21H13.5H1.00001Z" stroke="#FF0049"/>
    </g>
</svg>
