<svg width="123" height="20" viewBox="0 0 123 20" fill="none" xmlns="http://www.w3.org/2000/svg">
<path d="M17.5 0L0 20H104.5L123 0H117.5H17.5Z" fill="#FF0049"/>
<path d="M34.1663 7H38.8463V8.26H37.1663V12.74H38.8463V14H34.1663V12.74H35.8463V8.26H34.1663V7ZM43.5793 13.34H43.7593V7H45.0793V14H42.4993L41.6793 7.66H41.4993V14H40.1793V7H42.7593L43.5793 13.34ZM52.2754 12.74H52.9354V8.26H52.2754V7H55.3454C55.6788 7 55.9721 7.04667 56.2254 7.14C56.4854 7.23333 56.7021 7.36 56.8754 7.52C57.0554 7.68 57.1888 7.87333 57.2754 8.1C57.3688 8.32 57.4154 8.56 57.4154 8.82V8.94C57.4154 9.34 57.3021 9.66 57.0754 9.9C56.8554 10.14 56.5754 10.3067 56.2354 10.4V10.58C56.5754 10.6733 56.8554 10.8433 57.0754 11.09C57.3021 11.33 57.4154 11.65 57.4154 12.05V12.17C57.4154 12.43 57.3688 12.6733 57.2754 12.9C57.1888 13.12 57.0554 13.3133 56.8754 13.48C56.7021 13.64 56.4854 13.7667 56.2254 13.86C55.9721 13.9533 55.6788 14 55.3454 14H52.2754V12.74ZM54.2554 12.74H55.2154C55.4954 12.74 55.7221 12.68 55.8954 12.56C56.0688 12.44 56.1554 12.24 56.1554 11.96V11.9C56.1554 11.62 56.0688 11.42 55.8954 11.3C55.7221 11.18 55.4954 11.12 55.2154 11.12H54.2554V12.74ZM54.2554 9.86H55.2154C55.4954 9.86 55.7221 9.80333 55.8954 9.69C56.0688 9.57 56.1554 9.37 56.1554 9.09V9.03C56.1554 8.75 56.0688 8.55333 55.8954 8.44C55.7221 8.32 55.4954 8.26 55.2154 8.26H54.2554V9.86ZM62.1885 12.5H59.8085L59.4685 14H58.0885L59.7585 7H62.2385L63.9085 14H62.5285L62.1885 12.5ZM60.0885 11.24H61.8985L61.0885 7.66H60.9085L60.0885 11.24ZM64.6015 7H69.6415V8.26H67.7815V14H66.4615V8.26H64.6015V7ZM70.7246 7H75.7646V8.26H73.9046V14H72.5846V8.26H70.7246V7ZM77.1276 7H78.4476V12.74H81.6276V14H77.1276V7ZM83.2507 7H87.6707V8.26H84.5707V9.86H87.5507V11.12H84.5707V12.74H87.7907V14H83.2507V7Z" fill="#0D1238"/>
</svg>
