<svg width="96" height="18" viewBox="0 0 96 18" fill="none"
    xmlns="http://www.w3.org/2000/svg">
    <path d="M22.648 6.7H26.86V7.834H25.348V11.866H26.86V13H22.648V11.866H24.16V7.834H22.648V6.7ZM31.1197 12.406H31.2817V6.7H32.4697V13H30.1477L29.4097 7.294H29.2477V13H28.0597V6.7H30.3817L31.1197 12.406ZM41.3042 12.046C41.5322 12.046 41.7182 12.013 41.8622 11.947C42.0122 11.875 42.1262 11.782 42.2042 11.668C42.2882 11.548 42.3452 11.413 42.3752 11.263C42.4052 11.107 42.4202 10.948 42.4202 10.786V10.624H43.6082V10.786C43.6082 11.536 43.4102 12.115 43.0142 12.523C42.6242 12.925 42.0542 13.126 41.3042 13.126C40.5842 13.126 40.0142 12.907 39.5942 12.469C39.1742 12.031 38.9642 11.392 38.9642 10.552V9.148C38.9642 8.746 39.0182 8.386 39.1262 8.068C39.2342 7.744 39.3902 7.474 39.5942 7.258C39.7982 7.036 40.0442 6.868 40.3322 6.754C40.6202 6.634 40.9442 6.574 41.3042 6.574C41.6762 6.574 42.0062 6.628 42.2942 6.736C42.5822 6.844 42.8222 7 43.0142 7.204C43.2122 7.408 43.3592 7.654 43.4552 7.942C43.5572 8.23 43.6082 8.554 43.6082 8.914V9.076H42.4202V8.914C42.4202 8.764 42.4022 8.614 42.3662 8.464C42.3302 8.314 42.2702 8.179 42.1862 8.059C42.1022 7.939 41.9882 7.843 41.8442 7.771C41.7002 7.693 41.5202 7.654 41.3042 7.654C41.1062 7.654 40.9352 7.693 40.7912 7.771C40.6472 7.843 40.5272 7.945 40.4312 8.077C40.3352 8.203 40.2632 8.353 40.2152 8.527C40.1732 8.695 40.1522 8.872 40.1522 9.058V10.642C40.1522 10.846 40.1732 11.035 40.2152 11.209C40.2572 11.377 40.3232 11.524 40.4132 11.65C40.5032 11.776 40.6202 11.875 40.7642 11.947C40.9142 12.013 41.0942 12.046 41.3042 12.046ZM44.592 6.7H45.78V9.274H47.814V6.7H49.002V13H47.814V10.408H45.78V13H44.592V6.7ZM54.4407 13H53.2527V11.11C53.2527 10.966 53.2137 10.849 53.1357 10.759C53.0637 10.669 52.9407 10.624 52.7667 10.624H51.3987V13H50.2107V6.7H52.6227C52.9467 6.7 53.2317 6.745 53.4777 6.835C53.7237 6.925 53.9277 7.051 54.0897 7.213C54.2577 7.369 54.3837 7.552 54.4677 7.762C54.5577 7.972 54.6027 8.197 54.6027 8.437V8.653C54.6027 8.911 54.5337 9.154 54.3957 9.382C54.2577 9.604 54.0447 9.775 53.7567 9.895V10.057C53.9667 10.081 54.1317 10.162 54.2517 10.3C54.3777 10.438 54.4407 10.612 54.4407 10.822V13ZM51.3987 9.49H52.5327C52.8207 9.49 53.0397 9.424 53.1897 9.292C53.3397 9.154 53.4147 8.962 53.4147 8.716V8.608C53.4147 8.398 53.3397 8.218 53.1897 8.068C53.0397 7.912 52.8207 7.834 52.5327 7.834H51.3987V9.49ZM55.4965 9.148C55.4965 8.332 55.7005 7.699 56.1085 7.249C56.5225 6.799 57.0925 6.574 57.8185 6.574C58.5445 6.574 59.1115 6.799 59.5195 7.249C59.9335 7.699 60.1405 8.332 60.1405 9.148V10.552C60.1405 11.392 59.9335 12.031 59.5195 12.469C59.1115 12.907 58.5445 13.126 57.8185 13.126C57.0925 13.126 56.5225 12.907 56.1085 12.469C55.7005 12.031 55.4965 11.392 55.4965 10.552V9.148ZM57.8185 12.046C58.0345 12.046 58.2145 12.013 58.3585 11.947C58.5025 11.875 58.6195 11.776 58.7095 11.65C58.7995 11.524 58.8625 11.374 58.8985 11.2C58.9345 11.026 58.9525 10.834 58.9525 10.624V9.076C58.9525 8.878 58.9315 8.692 58.8895 8.518C58.8475 8.344 58.7815 8.194 58.6915 8.068C58.6015 7.942 58.4845 7.843 58.3405 7.771C58.1965 7.693 58.0225 7.654 57.8185 7.654C57.6145 7.654 57.4405 7.693 57.2965 7.771C57.1525 7.843 57.0355 7.942 56.9455 8.068C56.8555 8.194 56.7895 8.344 56.7475 8.518C56.7055 8.692 56.6845 8.878 56.6845 9.076V10.624C56.6845 10.834 56.7025 11.026 56.7385 11.2C56.7745 11.374 56.8375 11.524 56.9275 11.65C57.0175 11.776 57.1345 11.875 57.2785 11.947C57.4225 12.013 57.6025 12.046 57.8185 12.046ZM64.1842 12.406H64.3462V6.7H65.5342V13H63.2122L62.4742 7.294H62.3122V13H61.1242V6.7H63.4462L64.1842 12.406ZM66.7339 6.7H70.9459V7.834H69.4339V11.866H70.9459V13H66.7339V11.866H68.2459V7.834H66.7339V6.7ZM74.3687 12.046C74.5967 12.046 74.7827 12.013 74.9267 11.947C75.0767 11.875 75.1907 11.782 75.2687 11.668C75.3527 11.548 75.4097 11.413 75.4397 11.263C75.4697 11.107 75.4847 10.948 75.4847 10.786V10.624H76.6727V10.786C76.6727 11.536 76.4747 12.115 76.0787 12.523C75.6887 12.925 75.1187 13.126 74.3687 13.126C73.6487 13.126 73.0787 12.907 72.6587 12.469C72.2387 12.031 72.0287 11.392 72.0287 10.552V9.148C72.0287 8.746 72.0827 8.386 72.1907 8.068C72.2987 7.744 72.4547 7.474 72.6587 7.258C72.8627 7.036 73.1087 6.868 73.3967 6.754C73.6847 6.634 74.0087 6.574 74.3687 6.574C74.7407 6.574 75.0707 6.628 75.3587 6.736C75.6467 6.844 75.8867 7 76.0787 7.204C76.2767 7.408 76.4237 7.654 76.5197 7.942C76.6217 8.23 76.6727 8.554 76.6727 8.914V9.076H75.4847V8.914C75.4847 8.764 75.4667 8.614 75.4307 8.464C75.3947 8.314 75.3347 8.179 75.2507 8.059C75.1667 7.939 75.0527 7.843 74.9087 7.771C74.7647 7.693 74.5847 7.654 74.3687 7.654C74.1707 7.654 73.9997 7.693 73.8557 7.771C73.7117 7.843 73.5917 7.945 73.4957 8.077C73.3997 8.203 73.3277 8.353 73.2797 8.527C73.2377 8.695 73.2167 8.872 73.2167 9.058V10.642C73.2167 10.846 73.2377 11.035 73.2797 11.209C73.3217 11.377 73.3877 11.524 73.4777 11.65C73.5677 11.776 73.6847 11.875 73.8287 11.947C73.9787 12.013 74.1587 12.046 74.3687 12.046ZM77.8454 6.7H79.0334V11.866H81.8954V13H77.8454V6.7ZM83.3562 6.7H87.3342V7.834H84.5442V9.274H87.2262V10.408H84.5442V11.866H87.4422V13H83.3562V6.7ZM91.9629 8.626C91.9629 8.374 91.8639 8.155 91.6659 7.969C91.4739 7.783 91.2009 7.69 90.8469 7.69C90.5469 7.69 90.3099 7.753 90.1359 7.879C89.9619 7.999 89.8749 8.164 89.8749 8.374C89.8749 8.482 89.8959 8.581 89.9379 8.671C89.9799 8.755 90.0519 8.833 90.1539 8.905C90.2619 8.971 90.3999 9.031 90.5679 9.085C90.7419 9.139 90.9609 9.19 91.2249 9.238C91.8849 9.358 92.3889 9.559 92.7369 9.841C93.0849 10.123 93.2589 10.54 93.2589 11.092V11.2C93.2589 11.494 93.2049 11.761 93.0969 12.001C92.9949 12.235 92.8449 12.436 92.6469 12.604C92.4489 12.772 92.2089 12.901 91.9269 12.991C91.6449 13.081 91.3269 13.126 90.9729 13.126C90.5589 13.126 90.1929 13.069 89.8749 12.955C89.5629 12.835 89.3019 12.673 89.0919 12.469C88.8819 12.259 88.7229 12.016 88.6149 11.74C88.5069 11.458 88.4529 11.152 88.4529 10.822V10.552H89.6409V10.768C89.6409 11.146 89.7489 11.449 89.9649 11.677C90.1869 11.899 90.5289 12.01 90.9909 12.01C91.3509 12.01 91.6179 11.932 91.7919 11.776C91.9659 11.62 92.0529 11.434 92.0529 11.218C92.0529 11.116 92.0349 11.02 91.9989 10.93C91.9629 10.834 91.8999 10.75 91.8099 10.678C91.7199 10.6 91.5969 10.531 91.4409 10.471C91.2849 10.411 91.0869 10.36 90.8469 10.318C90.5289 10.264 90.2379 10.195 89.9739 10.111C89.7099 10.021 89.4789 9.904 89.2809 9.76C89.0889 9.616 88.9389 9.436 88.8309 9.22C88.7229 9.004 88.6689 8.74 88.6689 8.428V8.374C88.6689 8.116 88.7199 7.879 88.8219 7.663C88.9299 7.441 89.0769 7.249 89.2629 7.087C89.4549 6.925 89.6829 6.799 89.9469 6.709C90.2169 6.619 90.5169 6.574 90.8469 6.574C91.2189 6.574 91.5489 6.628 91.8369 6.736C92.1249 6.838 92.3649 6.979 92.5569 7.159C92.7549 7.339 92.9019 7.546 92.9979 7.78C93.0999 8.014 93.1509 8.26 93.1509 8.518V8.842H91.9629V8.626Z" fill="#00FFFF"/>
    <circle cx="8.99885" cy="9.00007" r="5.31818" fill="#00FFFF"/>
    <circle cx="9" cy="9" r="8.5" stroke="#00FFFF"/>
</svg>
