<svg width="342" height="155" viewBox="0 0 342 155" fill="none"
    xmlns="http://www.w3.org/2000/svg">
    <defs>
        <filter id="filter0_b_0_1" x="-3.5" y="-3.5" width="348.651" height="160.433" filterUnits="userSpaceOnUse" color-interpolation-filters="sRGB">
            <feFlood flood-opacity="0" result="BackgroundImageFix"/>
            <feGaussianBlur in="BackgroundImageFix" stdDeviation="2"/>
            <feComposite in2="SourceAlpha" operator="in" result="effect1_backgroundBlur_0_1"/>
            <feBlend mode="normal" in="SourceGraphic" in2="effect1_backgroundBlur_0_1" result="shape"/>
        </filter>
    </defs>
    <path d="M282 152H162.5" stroke="white" stroke-miterlimit="10"/>
    <path d="M288 154.598L291.197 150L325 150L322.126 154.598H288Z" fill="#2589FF"/>
    <path d="M18.5 1L1 21H105.5L124 1H118.5H18.5Z" fill="#FF0049"/>
    <path d="M27.3112 14.064H29.6512V6.836H27.3892V5.9H30.6652V14.064H33.0052V15H27.3112V14.064ZM36.0121 12.088C36.0381 12.7293 36.2375 13.245 36.6101 13.635C36.9828 14.025 37.5028 14.22 38.1701 14.22C38.4735 14.22 38.7378 14.1853 38.9631 14.116C39.1885 14.0467 39.3791 13.9513 39.5351 13.83C39.6998 13.7087 39.8298 13.57 39.9251 13.414C40.0291 13.2493 40.1115 13.076 40.1721 12.894L41.1341 13.154C40.9521 13.752 40.6141 14.2417 40.1201 14.623C39.6348 14.9957 38.9761 15.182 38.1441 15.182C37.6848 15.182 37.2601 15.104 36.8701 14.948C36.4888 14.7833 36.1595 14.5537 35.8821 14.259C35.6048 13.9643 35.3881 13.6133 35.2321 13.206C35.0761 12.7987 34.9981 12.348 34.9981 11.854V11.542C34.9981 11.0913 35.0761 10.671 35.2321 10.281C35.3968 9.891 35.6221 9.55733 35.9081 9.28C36.1941 8.994 36.5278 8.773 36.9091 8.617C37.2991 8.45233 37.7195 8.37 38.1701 8.37C38.6988 8.37 39.1538 8.46967 39.5351 8.669C39.9251 8.85967 40.2415 9.098 40.4841 9.384C40.7355 9.67 40.9175 9.982 41.0301 10.32C41.1515 10.658 41.2121 10.97 41.2121 11.256V12.088H36.0121ZM38.1701 9.332C37.8841 9.332 37.6155 9.37967 37.3641 9.475C37.1215 9.56167 36.9048 9.68733 36.7141 9.852C36.5321 10.0167 36.3805 10.2117 36.2591 10.437C36.1465 10.6537 36.0728 10.892 36.0381 11.152H40.1981C40.1808 10.8747 40.1115 10.6233 39.9901 10.398C39.8775 10.1727 39.7258 9.982 39.5351 9.826C39.3531 9.67 39.1408 9.54867 38.8981 9.462C38.6641 9.37533 38.4215 9.332 38.1701 9.332ZM48.1321 14.012H47.9761C47.7681 14.402 47.4821 14.6967 47.1181 14.896C46.7628 15.0867 46.3728 15.182 45.9481 15.182C45.5148 15.182 45.1074 15.1083 44.7261 14.961C44.3448 14.8137 44.0068 14.6013 43.7121 14.324C43.4261 14.0467 43.1964 13.7043 43.0231 13.297C42.8584 12.881 42.7761 12.4087 42.7761 11.88V11.672C42.7761 11.152 42.8628 10.6883 43.0361 10.281C43.2094 9.865 43.4391 9.51833 43.7251 9.241C44.0111 8.955 44.3448 8.73833 44.7261 8.591C45.1074 8.44367 45.5061 8.37 45.9221 8.37C46.3901 8.37 46.7974 8.474 47.1441 8.682C47.4994 8.88133 47.7768 9.176 47.9761 9.566H48.1321V8.552H49.1461V16.586C49.1461 16.8807 49.0508 17.1233 48.8601 17.314C48.6781 17.5047 48.4398 17.6 48.1451 17.6H43.9461V16.664H47.7811C48.0151 16.664 48.1321 16.534 48.1321 16.274V14.012ZM45.9741 14.22C46.2774 14.22 46.5591 14.1637 46.8191 14.051C47.0791 13.9383 47.3044 13.778 47.4951 13.57C47.6944 13.362 47.8504 13.115 47.9631 12.829C48.0758 12.5343 48.1321 12.2093 48.1321 11.854V11.698C48.1321 11.3513 48.0758 11.035 47.9631 10.749C47.8504 10.4543 47.6944 10.203 47.4951 9.995C47.3044 9.787 47.0748 9.62667 46.8061 9.514C46.5461 9.39267 46.2688 9.332 45.9741 9.332C45.6708 9.332 45.3848 9.38833 45.1161 9.501C44.8561 9.61367 44.6264 9.774 44.4271 9.982C44.2364 10.19 44.0848 10.437 43.9721 10.723C43.8681 11.009 43.8161 11.3253 43.8161 11.672V11.88C43.8161 12.244 43.8681 12.569 43.9721 12.855C44.0848 13.141 44.2364 13.388 44.4271 13.596C44.6264 13.7953 44.8561 13.9513 45.1161 14.064C45.3761 14.168 45.6621 14.22 45.9741 14.22ZM51.9321 12.088C51.9581 12.7293 52.1574 13.245 52.5301 13.635C52.9027 14.025 53.4227 14.22 54.0901 14.22C54.3934 14.22 54.6577 14.1853 54.8831 14.116C55.1084 14.0467 55.2991 13.9513 55.4551 13.83C55.6197 13.7087 55.7497 13.57 55.8451 13.414C55.9491 13.2493 56.0314 13.076 56.0921 12.894L57.0541 13.154C56.8721 13.752 56.5341 14.2417 56.0401 14.623C55.5547 14.9957 54.8961 15.182 54.0641 15.182C53.6047 15.182 53.1801 15.104 52.7901 14.948C52.4087 14.7833 52.0794 14.5537 51.8021 14.259C51.5247 13.9643 51.3081 13.6133 51.1521 13.206C50.9961 12.7987 50.9181 12.348 50.9181 11.854V11.542C50.9181 11.0913 50.9961 10.671 51.1521 10.281C51.3167 9.891 51.5421 9.55733 51.8281 9.28C52.1141 8.994 52.4477 8.773 52.8291 8.617C53.2191 8.45233 53.6394 8.37 54.0901 8.37C54.6187 8.37 55.0737 8.46967 55.4551 8.669C55.8451 8.85967 56.1614 9.098 56.4041 9.384C56.6554 9.67 56.8374 9.982 56.9501 10.32C57.0714 10.658 57.1321 10.97 57.1321 11.256V12.088H51.9321ZM54.0901 9.332C53.8041 9.332 53.5354 9.37967 53.2841 9.475C53.0414 9.56167 52.8247 9.68733 52.6341 9.852C52.4521 10.0167 52.3004 10.2117 52.1791 10.437C52.0664 10.6537 51.9927 10.892 51.9581 11.152H56.1181C56.1007 10.8747 56.0314 10.6233 55.9101 10.398C55.7974 10.1727 55.6457 9.982 55.4551 9.826C55.2731 9.67 55.0607 9.54867 54.8181 9.462C54.5841 9.37533 54.3414 9.332 54.0901 9.332ZM60.165 15H59.151V8.552H60.165V9.644H60.321C60.7197 8.79467 61.413 8.37 62.401 8.37C63.1464 8.37 63.74 8.604 64.182 9.072C64.624 9.53133 64.845 10.2247 64.845 11.152V15H63.831V11.36C63.831 10.684 63.6794 10.177 63.376 9.839C63.0727 9.501 62.661 9.332 62.141 9.332C61.5257 9.332 61.0404 9.54433 60.685 9.969C60.3384 10.385 60.165 10.944 60.165 11.646V15ZM72.103 14.012H71.947C71.843 14.2113 71.7086 14.3847 71.544 14.532C71.388 14.6793 71.2146 14.8007 71.024 14.896C70.842 14.9913 70.647 15.0607 70.439 15.104C70.231 15.156 70.0316 15.182 69.841 15.182C69.4076 15.182 69.0046 15.1083 68.632 14.961C68.2593 14.8137 67.93 14.6013 67.644 14.324C67.3666 14.0467 67.1456 13.7043 66.981 13.297C66.825 12.881 66.747 12.4087 66.747 11.88V11.672C66.747 11.152 66.8293 10.6883 66.994 10.281C67.1586 9.865 67.3796 9.51833 67.657 9.241C67.9343 8.955 68.2593 8.73833 68.632 8.591C69.0046 8.44367 69.399 8.37 69.815 8.37C70.257 8.37 70.6686 8.46967 71.05 8.669C71.44 8.85967 71.739 9.15867 71.947 9.566H72.103V5.9H73.117V15H72.103V14.012ZM69.945 14.22C70.2483 14.22 70.53 14.1637 70.79 14.051C71.05 13.9383 71.2753 13.778 71.466 13.57C71.6653 13.362 71.8213 13.115 71.934 12.829C72.0466 12.5343 72.103 12.2093 72.103 11.854V11.698C72.103 11.3513 72.0466 11.035 71.934 10.749C71.8213 10.4543 71.6653 10.203 71.466 9.995C71.2753 9.787 71.0456 9.62667 70.777 9.514C70.517 9.39267 70.2396 9.332 69.945 9.332C69.6416 9.332 69.3556 9.38833 69.087 9.501C68.827 9.61367 68.5973 9.774 68.398 9.982C68.2073 10.19 68.0556 10.437 67.943 10.723C67.839 11.009 67.787 11.3253 67.787 11.672V11.88C67.787 12.244 67.839 12.569 67.943 12.855C68.0556 13.141 68.2073 13.388 68.398 13.596C68.5973 13.7953 68.827 13.9513 69.087 14.064C69.347 14.168 69.633 14.22 69.945 14.22ZM79.7509 13.908H79.5949C79.3869 14.3413 79.0966 14.662 78.7239 14.87C78.3599 15.078 77.9743 15.182 77.5669 15.182C77.1423 15.182 76.7479 15.1127 76.3839 14.974C76.0199 14.8267 75.6993 14.6143 75.4219 14.337C75.1533 14.051 74.9409 13.7043 74.7849 13.297C74.6289 12.8897 74.5509 12.4173 74.5509 11.88V11.672C74.5509 11.1433 74.6289 10.6753 74.7849 10.268C74.9409 9.86067 75.1533 9.51833 75.4219 9.241C75.6993 8.955 76.0199 8.73833 76.3839 8.591C76.7479 8.44367 77.1336 8.37 77.5409 8.37C77.9829 8.37 78.3816 8.46967 78.7369 8.669C79.1009 8.85967 79.3869 9.15867 79.5949 9.566H79.7509V8.552H80.7649V13.674C80.7649 13.934 80.8819 14.064 81.1159 14.064H81.4409V15H80.7519C80.4573 15 80.2146 14.9047 80.0239 14.714C79.8419 14.5233 79.7509 14.2807 79.7509 13.986V13.908ZM77.6709 14.22C77.9743 14.22 78.2516 14.1637 78.5029 14.051C78.7629 13.9383 78.9839 13.778 79.1659 13.57C79.3479 13.362 79.4909 13.115 79.5949 12.829C79.6989 12.5343 79.7509 12.2093 79.7509 11.854V11.698C79.7509 11.3513 79.6989 11.035 79.5949 10.749C79.4909 10.4543 79.3436 10.203 79.1529 9.995C78.9709 9.787 78.7499 9.62667 78.4899 9.514C78.2386 9.39267 77.9656 9.332 77.6709 9.332C77.3676 9.332 77.0903 9.38833 76.8389 9.501C76.5876 9.61367 76.3666 9.774 76.1759 9.982C75.9939 10.1813 75.8509 10.4283 75.7469 10.723C75.6429 11.009 75.5909 11.3253 75.5909 11.672V11.88C75.5909 12.6167 75.7816 13.193 76.1629 13.609C76.5529 14.0163 77.0556 14.22 77.6709 14.22ZM82.6669 8.552H85.0069V9.41H85.1629C85.3276 9.05467 85.5616 8.79467 85.8649 8.63C86.1682 8.45667 86.5149 8.37 86.9049 8.37C87.5549 8.37 88.0792 8.58233 88.4779 9.007C88.8766 9.43167 89.0889 10.0513 89.1149 10.866L88.0489 11.022C88.0489 10.424 87.9059 9.995 87.6199 9.735C87.3339 9.46633 86.9829 9.332 86.5669 9.332C86.2982 9.332 86.0642 9.384 85.8649 9.488C85.6742 9.592 85.5139 9.735 85.3839 9.917C85.2539 10.099 85.1586 10.3113 85.0979 10.554C85.0372 10.7967 85.0069 11.0567 85.0069 11.334V14.064H86.6449V15H82.5109V14.064H83.9929V9.488H82.6669V8.552ZM95.6709 13.83H95.5149C95.3069 14.246 95.0339 14.5753 94.6959 14.818C94.3579 15.0607 93.9289 15.182 93.4089 15.182C93.0535 15.182 92.7242 15.1213 92.4209 15C92.1262 14.8873 91.8705 14.714 91.6539 14.48C91.4459 14.246 91.2812 13.9557 91.1599 13.609C91.0472 13.2623 90.9909 12.8593 90.9909 12.4V8.552H92.0049V12.27C92.0049 12.946 92.1435 13.44 92.4209 13.752C92.6982 14.064 93.1229 14.22 93.6949 14.22C94.3102 14.22 94.7912 14.012 95.1379 13.596C95.4932 13.1713 95.6709 12.608 95.6709 11.906V8.552H96.6849V16.586C96.6849 16.8807 96.5895 17.1233 96.3989 17.314C96.2169 17.5047 95.9785 17.6 95.6839 17.6H92.0049V16.664H95.3199C95.5539 16.664 95.6709 16.534 95.6709 16.274V13.83Z" fill="#0D1238"/>
    <g filter="url(#filter0_b_0_1)">
        <path d="M1.00001 21L1 152.433H154.762L163.566 143.756H327.871L340.652 130.452V1H124.5L106 21H13.5H1.00001Z" stroke="#2589FF"/>
    </g>
</svg>
