<svg width="96" height="18" viewBox="0 0 96 18" fill="none"
    xmlns="http://www.w3.org/2000/svg">
    <path d="M27.022 6.7V10.822C27.022 11.542 26.83 12.106 26.446 12.514C26.068 12.922 25.504 13.126 24.754 13.126C24.004 13.126 23.437 12.922 23.053 12.514C22.675 12.106 22.486 11.542 22.486 10.822V6.7H23.674V10.822C23.674 11.194 23.761 11.485 23.935 11.695C24.109 11.905 24.382 12.01 24.754 12.01C25.126 12.01 25.399 11.905 25.573 11.695C25.747 11.485 25.834 11.194 25.834 10.822V6.7H27.022ZM31.1197 12.406H31.2817V6.7H32.4697V13H30.1477L29.4097 7.294H29.2477V13H28.0597V6.7H30.3817L31.1197 12.406ZM34.9025 13H33.7145V6.7H34.9025V9.283H35.1635L36.8285 6.7H38.1695V6.754L36.2255 9.769V9.931L38.2775 12.946V13H36.8825L35.1635 10.417H34.9025V13ZM42.1412 12.406H42.3032V6.7H43.4912V13H41.1692L40.4312 7.294H40.2692V13H39.0812V6.7H41.4032L42.1412 12.406ZM44.475 9.148C44.475 8.332 44.679 7.699 45.087 7.249C45.501 6.799 46.071 6.574 46.797 6.574C47.523 6.574 48.09 6.799 48.498 7.249C48.912 7.699 49.119 8.332 49.119 9.148V10.552C49.119 11.392 48.912 12.031 48.498 12.469C48.09 12.907 47.523 13.126 46.797 13.126C46.071 13.126 45.501 12.907 45.087 12.469C44.679 12.031 44.475 11.392 44.475 10.552V9.148ZM46.797 12.046C47.013 12.046 47.193 12.013 47.337 11.947C47.481 11.875 47.598 11.776 47.688 11.65C47.778 11.524 47.841 11.374 47.877 11.2C47.913 11.026 47.931 10.834 47.931 10.624V9.076C47.931 8.878 47.91 8.692 47.868 8.518C47.826 8.344 47.76 8.194 47.67 8.068C47.58 7.942 47.463 7.843 47.319 7.771C47.175 7.693 47.001 7.654 46.797 7.654C46.593 7.654 46.419 7.693 46.275 7.771C46.131 7.843 46.014 7.942 45.924 8.068C45.834 8.194 45.768 8.344 45.726 8.518C45.684 8.692 45.663 8.878 45.663 9.076V10.624C45.663 10.834 45.681 11.026 45.717 11.2C45.753 11.374 45.816 11.524 45.906 11.65C45.996 11.776 46.113 11.875 46.257 11.947C46.401 12.013 46.581 12.046 46.797 12.046ZM54.7737 13H52.7037L52.4157 8.212V7.348H52.1997V8.212L51.9117 13H49.8417L49.6257 6.7H50.7057L50.8497 11.488V12.298H51.0657V11.488L51.3537 6.7H53.2617L53.5497 11.488V12.298H53.7657V11.488L53.9097 6.7H54.9897L54.7737 13ZM58.6735 12.406H58.8355V6.7H60.0235V13H57.7015L56.9635 7.294H56.8015V13H55.6135V6.7H57.9355L58.6735 12.406Z" fill="#9E9E9E"/>
    <circle cx="9" cy="9" r="8.5" stroke="#9E9E9E"/>
</svg>
