<svg width="156" height="46" viewBox="0 0 156 46" fill="none" xmlns="http://www.w3.org/2000/svg">
<mask id="path-1-inside-1_1749_34468" fill="white">
<path fill-rule="evenodd" clip-rule="evenodd" d="M56.6829 6.72656L58.4752 8.32345L85.9102 8.32323L155.918 8.32323L124.419 42.7168H88.3028L86.6772 45.0554L18.0211 44.4678L0 26.9467V6.72656H56.6829Z"/>
</mask>
<path fill-rule="evenodd" clip-rule="evenodd" d="M56.6829 6.72656L58.4752 8.32345L85.9102 8.32323L155.918 8.32323L124.419 42.7168H88.3028L86.6772 45.0554L18.0211 44.4678L0 26.9467V6.72656H56.6829Z" fill="#00E3FF" fill-opacity="0.03"/>
<path d="M58.4752 8.32345L57.6769 9.21941L58.0182 9.52345L58.4752 9.52345L58.4752 8.32345ZM56.6829 6.72656L57.4812 5.83059L57.1399 5.52656H56.6829V6.72656ZM85.9102 8.32323V7.12323H85.9102L85.9102 8.32323ZM155.918 8.32323L156.803 9.13371L158.644 7.12323L155.918 7.12323V8.32323ZM124.419 42.7168V43.9168H124.947L125.304 43.5273L124.419 42.7168ZM88.3028 42.7168V41.5168H87.6756L87.3175 42.0319L88.3028 42.7168ZM86.6772 45.0554L86.6669 46.2553L87.3007 46.2608L87.6625 45.7403L86.6772 45.0554ZM18.0211 44.4678L17.1846 45.3282L17.5296 45.6637L18.0108 45.6678L18.0211 44.4678ZM0 26.9467H-1.2V27.4536L-0.83651 27.8071L0 26.9467ZM0 6.72656V5.52656H-1.2V6.72656H0ZM59.2735 7.42748L57.4812 5.83059L55.8846 7.62253L57.6769 9.21941L59.2735 7.42748ZM85.9102 7.12323L58.4752 7.12345L58.4752 9.52345L85.9102 9.52323L85.9102 7.12323ZM155.918 7.12323L85.9102 7.12323V9.52323L155.918 9.52323V7.12323ZM125.304 43.5273L156.803 9.13371L155.033 7.51276L123.534 41.9063L125.304 43.5273ZM88.3028 43.9168H124.419V41.5168H88.3028V43.9168ZM87.6625 45.7403L89.2882 43.4017L87.3175 42.0319L85.6918 44.3704L87.6625 45.7403ZM18.0108 45.6678L86.6669 46.2553L86.6874 43.8554L18.0314 43.2679L18.0108 45.6678ZM-0.83651 27.8071L17.1846 45.3282L18.8576 43.6075L0.83651 26.0863L-0.83651 27.8071ZM-1.2 6.72656V26.9467H1.2V6.72656H-1.2ZM56.6829 5.52656H0V7.92656H56.6829V5.52656Z" fill="white" mask="url(#path-1-inside-1_1749_34468)"/>
<path d="M53.7986 19.8207C54.2519 19.832 54.3539 20.3137 54.1046 21.2657L53.3906 24.5637H50.3136L50.7726 22.4047H47.5766L46.1826 29.0007H50.6706L47.7806 31.7207H43.8196C43.1736 31.7207 42.8903 31.2447 42.9696 30.2927L45.1966 19.8207H53.7986ZM56.1613 19.8377H64.3043C64.9617 20.0304 65.1883 20.5234 64.9843 21.3167L62.7743 31.7207H59.7823L60.9383 26.2637L57.4533 27.8617L56.2803 33.3867L53.6453 31.6867L54.7503 26.4677L61.6013 23.1527L61.7713 22.3197H58.6263L58.2013 24.2917L54.8693 25.9237L56.1613 19.8377ZM67.0435 19.8377H69.8315L69.3385 22.1497L72.1265 25.1757L73.2485 19.8377H76.0365L73.5205 31.7037H70.6985L71.2765 28.9837L68.5225 26.0597L67.3155 31.7037H64.5275L67.0435 19.8377ZM86.4426 19.8207C86.8959 19.832 86.9979 20.3137 86.7486 21.2657L86.0346 24.5637H82.9576L83.4166 22.4047H80.2206L78.8266 29.0007H83.3146L80.4246 31.7207H76.4636C75.8176 31.7207 75.5343 31.2447 75.6136 30.2927L77.8406 19.8207H86.4426ZM88.6863 19.8207H95.3333L97.2543 22.5407H91.1343L90.8623 23.8157H93.1063L94.8573 26.5187H90.2843L89.7403 29.0687H93.2423L95.1633 31.7207H86.1533L88.6863 19.8207ZM99.37 19.8377H102.413L100.407 29.2387H103.824L106.255 31.7377H96.837L99.37 19.8377Z" fill="#00FFFF"/>
<path d="M53.7986 19.8207C54.2519 19.832 54.3539 20.3137 54.1046 21.2657L53.3906 24.5637H50.3136L50.7726 22.4047H47.5766L46.1826 29.0007H50.6706L47.7806 31.7207H43.8196C43.1736 31.7207 42.8903 31.2447 42.9696 30.2927L45.1966 19.8207H53.7986ZM56.1613 19.8377H64.3043C64.9617 20.0304 65.1883 20.5234 64.9843 21.3167L62.7743 31.7207H59.7823L60.9383 26.2637L57.4533 27.8617L56.2803 33.3867L53.6453 31.6867L54.7503 26.4677L61.6013 23.1527L61.7713 22.3197H58.6263L58.2013 24.2917L54.8693 25.9237L56.1613 19.8377ZM67.0435 19.8377H69.8315L69.3385 22.1497L72.1265 25.1757L73.2485 19.8377H76.0365L73.5205 31.7037H70.6985L71.2765 28.9837L68.5225 26.0597L67.3155 31.7037H64.5275L67.0435 19.8377ZM86.4426 19.8207C86.8959 19.832 86.9979 20.3137 86.7486 21.2657L86.0346 24.5637H82.9576L83.4166 22.4047H80.2206L78.8266 29.0007H83.3146L80.4246 31.7207H76.4636C75.8176 31.7207 75.5343 31.2447 75.6136 30.2927L77.8406 19.8207H86.4426ZM88.6863 19.8207H95.3333L97.2543 22.5407H91.1343L90.8623 23.8157H93.1063L94.8573 26.5187H90.2843L89.7403 29.0687H93.2423L95.1633 31.7207H86.1533L88.6863 19.8207ZM99.37 19.8377H102.413L100.407 29.2387H103.824L106.255 31.7377H96.837L99.37 19.8377Z" fill="white"/>
<g filter="url(#filter0_d_1749_34468)">
<path d="M109 5.00033L106.5 3L61.5 3.00033L63.7972 5.00033H109Z" fill="#00FFFF"/>
</g>
<g filter="url(#filter1_d_1749_34468)">
<path d="M133.5 5.00033L131 3L116 3.00033L118.297 5.00033H133.5Z" fill="#00FFFF"/>
</g>
<defs>
<filter id="filter0_d_1749_34468" x="58.5" y="0" width="53.5" height="8" filterUnits="userSpaceOnUse" color-interpolation-filters="sRGB">
<feFlood flood-opacity="0" result="BackgroundImageFix"/>
<feColorMatrix in="SourceAlpha" type="matrix" values="0 0 0 0 0 0 0 0 0 0 0 0 0 0 0 0 0 0 127 0" result="hardAlpha"/>
<feOffset/>
<feGaussianBlur stdDeviation="1.5"/>
<feComposite in2="hardAlpha" operator="out"/>
<feColorMatrix type="matrix" values="0 0 0 0 0 0 0 0 0 0.890196 0 0 0 0 1 0 0 0 0.75 0"/>
<feBlend mode="normal" in2="BackgroundImageFix" result="effect1_dropShadow_1749_34468"/>
<feBlend mode="normal" in="SourceGraphic" in2="effect1_dropShadow_1749_34468" result="shape"/>
</filter>
<filter id="filter1_d_1749_34468" x="113" y="0" width="23.5" height="8" filterUnits="userSpaceOnUse" color-interpolation-filters="sRGB">
<feFlood flood-opacity="0" result="BackgroundImageFix"/>
<feColorMatrix in="SourceAlpha" type="matrix" values="0 0 0 0 0 0 0 0 0 0 0 0 0 0 0 0 0 0 127 0" result="hardAlpha"/>
<feOffset/>
<feGaussianBlur stdDeviation="1.5"/>
<feComposite in2="hardAlpha" operator="out"/>
<feColorMatrix type="matrix" values="0 0 0 0 0 0 0 0 0 0.890196 0 0 0 0 1 0 0 0 0.75 0"/>
<feBlend mode="normal" in2="BackgroundImageFix" result="effect1_dropShadow_1749_34468"/>
<feBlend mode="normal" in="SourceGraphic" in2="effect1_dropShadow_1749_34468" result="shape"/>
</filter>
</defs>
</svg>
