<svg width="132" height="45" viewBox="0 0 132 45" fill="none" xmlns="http://www.w3.org/2000/svg">
<path d="M113 43.5996H48" stroke="white" stroke-miterlimit="10"/>
<path d="M0 43.6V28.112L26.1451 0H132V20.5248L113.199 39.4476H45.5L43.0498 43.6H0Z" fill="#00FFFF"/>
<path d="M61.4122 13.4047H70.1502L67.9402 23.8087C67.5549 24.738 67.0052 25.2027 66.2912 25.2027H62.1262L57.9272 19.6437H59.1342L60.1882 14.6457C60.3015 14.1244 60.7095 13.7107 61.4122 13.4047ZM63.2312 16.1757L62.5002 19.6437H63.5712L60.4262 22.2957H65.0332L66.3252 16.1757H63.2312ZM82.8107 12.3847L81.6037 18.0627L78.9857 19.4057L81.1277 21.0547L80.2267 25.2367H76.7247L77.4727 21.7177L75.3307 20.1027L74.3107 24.9647L70.7747 26.4607L73.2567 14.8157L76.7757 13.3367L75.6367 18.7427L78.5267 17.3997L79.2577 14.0167L82.8107 12.3847Z" fill="#0D1238"/>
</svg>
