<svg width="160" height="49" viewBox="0 0 160 49" fill="none" xmlns="http://www.w3.org/2000/svg">
<mask id="path-1-inside-1_1749_34483" fill="white">
<path fill-rule="evenodd" clip-rule="evenodd" d="M109.847 0.726562L108.262 2.32336L99.9845 2.32323L93.6515 2.32323L35.386 2.32323L3.99991 36.7168H81.8704L84.3282 38.8124L144.1 38.4184L160 20.9467V0.726562H109.847Z"/>
</mask>
<path fill-rule="evenodd" clip-rule="evenodd" d="M109.847 0.726562L108.262 2.32336L99.9845 2.32323L93.6515 2.32323L35.386 2.32323L3.99991 36.7168H81.8704L84.3282 38.8124L144.1 38.4184L160 20.9467V0.726562H109.847Z" fill="#00E3FF" fill-opacity="0.03"/>
<path fill-rule="evenodd" clip-rule="evenodd" d="M109.847 0.726562L108.262 2.32336L99.9845 2.32323L93.6515 2.32323L35.386 2.32323L3.99991 36.7168H81.8704L84.3282 38.8124L144.1 38.4184L160 20.9467V0.726562H109.847Z" fill="#00FFFF"/>
<path d="M108.262 2.32336L109.113 3.16893L108.761 3.52337L108.262 3.52336L108.262 2.32336ZM109.847 0.726562L108.996 -0.119012L109.348 -0.473438H109.847V0.726562ZM99.9845 2.32323V1.12323H99.9845L99.9845 2.32323ZM93.6515 2.32323V3.52323V2.32323ZM35.386 2.32323L34.4996 1.51435L34.8565 1.12323L35.386 1.12323V2.32323ZM3.99991 36.7168V37.9168H1.28029L3.11351 35.9079L3.99991 36.7168ZM81.8704 36.7168V35.5168H82.3125L82.6489 35.8037L81.8704 36.7168ZM84.3282 38.8124L84.3361 40.0123L83.8895 40.0153L83.5496 39.7255L84.3282 38.8124ZM144.1 38.4184L144.988 39.2261L144.634 39.6149L144.108 39.6184L144.1 38.4184ZM160 20.9467H161.2V21.411L160.888 21.7543L160 20.9467ZM160 0.726562V-0.473438H161.2V0.726562H160ZM107.41 1.47779L108.996 -0.119012L110.699 1.57214L109.113 3.16893L107.41 1.47779ZM99.9845 1.12323L108.262 1.12336L108.262 3.52336L99.9845 3.52323L99.9845 1.12323ZM93.6515 1.12323L99.9845 1.12323V3.52323L93.6515 3.52323V1.12323ZM35.386 1.12323L93.6515 1.12323V3.52323L35.386 3.52323V1.12323ZM3.11351 35.9079L34.4996 1.51435L36.2724 3.13212L4.88631 37.5257L3.11351 35.9079ZM81.8704 37.9168H3.99991V35.5168H81.8704V37.9168ZM83.5496 39.7255L81.0918 37.63L82.6489 35.8037L85.1067 37.8992L83.5496 39.7255ZM144.108 39.6184L84.3361 40.0123L84.3203 37.6124L144.092 37.2184L144.108 39.6184ZM160.888 21.7543L144.988 39.2261L143.213 37.6107L159.113 20.139L160.888 21.7543ZM161.2 0.726562V20.9467H158.8V0.726562H161.2ZM109.847 -0.473438H160V1.92656H109.847V-0.473438Z" fill="white" fill-opacity="0.15" mask="url(#path-1-inside-1_1749_34483)"/>
<g filter="url(#filter0_d_1749_34483)">
<path d="M74.209 13.8207H77.218L76.555 16.8807L78.765 18.2577L78.051 21.5897L73.172 18.6827L74.209 13.8207ZM80.21 13.8207H83.338L80.822 25.6187H72.815L75.297 22.8477H78.289L80.21 13.8207ZM84.9891 13.8207H91.6361L93.5571 16.5407H87.4371L87.1651 17.8157H89.4091L91.1601 20.5187H86.5871L86.0431 23.0687H89.5451L91.4661 25.7207H82.4561L84.9891 13.8207ZM96.8458 13.8377H102.541L104.139 16.6597H98.0018L97.6278 18.3937H103.034C103.532 18.813 103.714 19.3344 103.578 19.9577L102.592 24.6667C102.49 25.0974 101.985 25.4147 101.079 25.6187H95.8088L93.8878 22.9497H99.8718L100.28 21.0627H95.4518C94.5791 21.0627 94.2165 20.6944 94.3638 19.9577L95.4348 14.9767C95.5595 14.376 96.0298 13.9964 96.8458 13.8377Z" fill="#00FFFF"/>
<path d="M74.209 13.8207H77.218L76.555 16.8807L78.765 18.2577L78.051 21.5897L73.172 18.6827L74.209 13.8207ZM80.21 13.8207H83.338L80.822 25.6187H72.815L75.297 22.8477H78.289L80.21 13.8207ZM84.9891 13.8207H91.6361L93.5571 16.5407H87.4371L87.1651 17.8157H89.4091L91.1601 20.5187H86.5871L86.0431 23.0687H89.5451L91.4661 25.7207H82.4561L84.9891 13.8207ZM96.8458 13.8377H102.541L104.139 16.6597H98.0018L97.6278 18.3937H103.034C103.532 18.813 103.714 19.3344 103.578 19.9577L102.592 24.6667C102.49 25.0974 101.985 25.4147 101.079 25.6187H95.8088L93.8878 22.9497H99.8718L100.28 21.0627H95.4518C94.5791 21.0627 94.2165 20.6944 94.3638 19.9577L95.4348 14.9767C95.5595 14.376 96.0298 13.9964 96.8458 13.8377Z" fill="#1C2B47"/>
</g>
<g filter="url(#filter1_d_1749_34483)">
<path d="M80.0002 42.7269L77.5002 40.7266L32.5002 40.7269L34.7974 42.7269H80.0002Z" fill="#FF0049"/>
</g>
<g filter="url(#filter2_d_1749_34483)">
<path d="M24.2756 42.7269L21.7756 40.7266L6.77563 40.7269L9.0728 42.7269H24.2756Z" fill="#FF0049"/>
</g>
<defs>
<filter id="filter0_d_1749_34483" x="64.8149" y="5.82031" width="47.324" height="27.9004" filterUnits="userSpaceOnUse" color-interpolation-filters="sRGB">
<feFlood flood-opacity="0" result="BackgroundImageFix"/>
<feColorMatrix in="SourceAlpha" type="matrix" values="0 0 0 0 0 0 0 0 0 0 0 0 0 0 0 0 0 0 127 0" result="hardAlpha"/>
<feOffset/>
<feGaussianBlur stdDeviation="4"/>
<feComposite in2="hardAlpha" operator="out"/>
<feColorMatrix type="matrix" values="0 0 0 0 1 0 0 0 0 1 0 0 0 0 1 0 0 0 0.2 0"/>
<feBlend mode="normal" in2="BackgroundImageFix" result="effect1_dropShadow_1749_34483"/>
<feBlend mode="normal" in="SourceGraphic" in2="effect1_dropShadow_1749_34483" result="shape"/>
</filter>
<filter id="filter1_d_1749_34483" x="26.5002" y="34.7266" width="59.5" height="14" filterUnits="userSpaceOnUse" color-interpolation-filters="sRGB">
<feFlood flood-opacity="0" result="BackgroundImageFix"/>
<feColorMatrix in="SourceAlpha" type="matrix" values="0 0 0 0 0 0 0 0 0 0 0 0 0 0 0 0 0 0 127 0" result="hardAlpha"/>
<feOffset/>
<feGaussianBlur stdDeviation="3"/>
<feComposite in2="hardAlpha" operator="out"/>
<feColorMatrix type="matrix" values="0 0 0 0 1 0 0 0 0 0 0 0 0 0 0 0 0 0 0.75 0"/>
<feBlend mode="normal" in2="BackgroundImageFix" result="effect1_dropShadow_1749_34483"/>
<feBlend mode="normal" in="SourceGraphic" in2="effect1_dropShadow_1749_34483" result="shape"/>
</filter>
<filter id="filter2_d_1749_34483" x="0.775635" y="34.7266" width="29.5" height="14" filterUnits="userSpaceOnUse" color-interpolation-filters="sRGB">
<feFlood flood-opacity="0" result="BackgroundImageFix"/>
<feColorMatrix in="SourceAlpha" type="matrix" values="0 0 0 0 0 0 0 0 0 0 0 0 0 0 0 0 0 0 127 0" result="hardAlpha"/>
<feOffset/>
<feGaussianBlur stdDeviation="3"/>
<feComposite in2="hardAlpha" operator="out"/>
<feColorMatrix type="matrix" values="0 0 0 0 1 0 0 0 0 0 0 0 0 0 0 0 0 0 0.75 0"/>
<feBlend mode="normal" in2="BackgroundImageFix" result="effect1_dropShadow_1749_34483"/>
<feBlend mode="normal" in="SourceGraphic" in2="effect1_dropShadow_1749_34483" result="shape"/>
</filter>
</defs>
</svg>
