<svg width="216" height="81" viewBox="0 0 216 81" fill="none"
    xmlns="http://www.w3.org/2000/svg">
    <defs>
        <filter id="filter0_f_0_1" x="0" y="0.87793" width="216" height="80.1221" filterUnits="userSpaceOnUse" color-interpolation-filters="sRGB">
            <feFlood flood-opacity="0" result="BackgroundImageFix"/>
            <feBlend mode="normal" in="SourceGraphic" in2="BackgroundImageFix" result="shape"/>
            <feGaussianBlur stdDeviation="4" result="effect1_foregroundBlur_0_1"/>
        </filter>
    </defs>
    <path d="M190.15 46.9217C187.031 49.3514 183.264 50.6651 179.394 50.6725H178.957C176.687 50.6115 174.232 50.6115 171.715 50.6115H170.973C170.341 52.8192 169.76 54.8257 169.105 57.1066H188.575C187.143 62.0771 185.792 66.767 184.418 71.5606H162.477C162.816 70.3714 163.132 69.2797 163.54 67.8465H181.01C181.676 65.5168 182.292 63.3822 182.953 61.083H163.529L167.599 46.9217H190.15ZM194.26 45.519H166.621L166.334 46.5131L165.443 49.6174L162.264 60.6744L161.741 62.504H181.148L179.998 66.4621H162.546L162.258 67.4562L161.293 70.8349L161.195 71.1703L160.672 73H185.39L185.677 72.0059L187.402 66.0474L189.845 57.5579L190.362 55.7283H170.893V55.6673L171.933 52.0386C174.583 52.0386 176.79 52.0386 178.911 52.0935H179.377C183.524 52.0934 187.562 50.6873 190.903 48.0805L194.242 45.5373L194.26 45.519Z" fill="#FF005C"/>
    <path d="M111.969 11.7738C112.012 12.0565 112.012 12.3445 111.969 12.6272C110.21 18.6366 109.123 22.4414 106.916 28.4271C106.397 29.9517 105.585 31.3525 104.528 32.5452C103.471 33.7378 102.19 34.6977 100.764 35.367C102.713 28.7708 104.668 22.1688 106.645 15.4956H96.2278C95.1872 19.0515 94.1696 22.4532 93.152 25.8847C92.9105 26.7144 92.6748 27.6033 92.4448 28.3678C91.5939 31.2185 88.7136 34.7447 85.8562 35.6337C87.8742 28.8064 89.8117 22.2577 91.8009 15.5489H81.3086C80.1243 19.5552 78.94 23.5733 77.8591 27.4374C76.922 30.8214 75.2892 33.429 71.1786 35.3788C73.4782 27.5559 75.8124 19.7212 78.1638 11.7738H111.958M113.28 10.4107H77.1922L76.9048 11.3767L76.83 11.6256L69.931 34.9817L69.0686 37.8857L71.7477 36.6174C75.7722 34.721 77.9626 32.0837 79.1469 27.8107C80.1186 24.3082 81.1879 20.6575 82.2975 16.912H90.0129L86.8566 27.5796L84.5914 35.2307L83.867 37.6664L86.2357 36.9315C89.6852 35.8707 92.784 31.8644 93.7096 28.7649C93.8304 28.3678 93.9511 27.9352 94.0718 27.4966C94.1926 27.0581 94.3018 26.6729 94.4168 26.2758L96.9809 17.6113L97.2109 16.8528H104.88L103.995 19.8456L99.5221 34.964L98.7172 37.6842L101.276 36.6293C102.877 35.8891 104.314 34.8197 105.501 33.4868C106.687 32.1539 107.597 30.5855 108.175 28.8775C110.256 23.2296 111.319 19.5908 112.929 14.091L113.245 13.0183C113.342 12.6579 113.368 12.2809 113.32 11.9101C113.32 11.8627 113.32 11.8153 113.32 11.7679V10.4048L113.28 10.4107Z" fill="#00FFFF"/>
    <path d="M79.5101 46.9269C78.1764 51.5615 76.8713 56.0993 75.4863 60.897C72.9102 60.897 70.7558 60.9937 68.573 60.9937C66.9316 60.9937 65.2788 60.9393 63.4436 60.752C61.7338 60.5828 60.7763 58.7822 59.7732 57.2413H72.0781C72.7449 54.915 73.332 52.8848 73.9475 50.7397H56.7582C55.1396 56.3712 53.5495 61.8759 51.891 67.6585H70.9895C68.0202 69.8035 65.7461 71.5921 62.4006 71.5921C62.1897 71.5921 61.9788 71.5921 61.7566 71.5921C59.7846 71.4652 57.767 71.4229 55.738 71.4229C52.6775 71.4229 49.5599 71.5135 46.4082 71.5135C48.7677 63.314 51.1044 55.199 53.4754 46.9692H79.5101M81.2826 45.5795H52.5008L52.2215 46.5644L48.175 60.6251L45.1543 71.1087L44.6414 72.9214H46.4082C48.004 72.9214 49.6055 72.9214 51.1557 72.8731C52.706 72.8247 54.2277 72.8308 55.7152 72.8308C58.0463 72.8308 59.9328 72.8852 61.654 73C61.899 73 62.1384 73 62.3778 73C65.9456 73 68.3963 71.2235 71.2346 69.1691L71.7076 68.8246L75.2242 66.2868H53.6635L55.5442 59.6946L57.7271 52.1113H72.1636L71.7019 53.7065L71.1206 55.8516H57.2541L58.6732 58.0269L58.9582 58.468C59.9442 60.0088 61.1695 61.9242 63.3011 62.1357C65.0109 62.3049 66.6181 62.3834 68.573 62.3834C69.6274 62.3834 70.6704 62.3834 71.7646 62.3411C72.9444 62.3411 74.1584 62.2868 75.4863 62.2868H76.4609L76.7402 61.3079L78.6894 54.5343L80.7639 47.3318L81.2826 45.519V45.5795Z" fill="#FF005C"/>
    <path d="M37.8323 11.752C36.8399 13.5886 34.9304 15.3101 29.2019 15.3101H28.8536C25.9516 15.2755 21.4652 15.2582 18.302 15.2582C17.652 17.377 17.0658 19.2884 16.4041 21.4244H36.1376L31.9645 34.9887H9.80503C10.1184 33.9639 10.4493 32.893 10.8555 31.5343H28.459C29.1554 29.2659 29.7765 27.2566 30.4439 25.0861H10.7975C12.1847 20.5665 13.5312 16.2025 14.9067 11.729H37.8323M40.0611 10.4048H13.9142L13.6298 11.3432L11.9525 16.7955L9.52064 24.7234L8.99248 26.4506H28.6389L27.4781 30.2504H9.86887L9.57868 31.1889L8.81836 33.6703L8.52816 34.6318L8 36.359H32.957L33.2414 35.4205L37.4145 21.8619L37.9426 20.1347H18.2092L19.2945 16.617C22.2255 16.617 26.1606 16.617 28.8362 16.6688H29.2019C34.3964 16.6688 37.4203 15.3561 39.0106 12.4141L40.0611 10.4624V10.4048Z" fill="#00FFFF"/>
    <path d="M127.548 46.9391C124.432 49.3671 120.667 50.6799 116.799 50.6873H116.362C114.091 50.6264 111.637 50.6264 109.119 50.6264H108.378C107.745 52.8327 107.165 54.8378 106.509 57.1172H125.973C124.548 62.0844 123.197 66.7712 121.817 71.5616H99.8642C100.203 70.3731 100.519 69.2822 100.928 67.8499H118.391L120.34 61.0909H100.928C102.307 56.3127 103.635 51.6929 105.003 46.9391H127.548ZM131.664 45.5373H104.026L103.739 46.5308L102.848 49.633L99.663 60.6826L99.1456 62.511H118.552L117.977 64.5588L117.402 66.4665H99.9504L99.663 67.4599L98.6915 70.8364L98.5995 71.1716L98.0764 73H122.794L123.099 71.97L126.548 59.9025L127.232 57.5317L127.755 55.7033H108.291V55.6423L109.332 52.016C111.982 52.016 114.189 52.016 116.305 52.0708H116.776C120.913 52.0663 124.941 50.6614 128.273 48.0605L131.618 45.519L131.664 45.5373Z" fill="#FF005C"/>
    <path d="M20.0975 46.8805C21.7805 46.8805 22.4079 47.7059 22.7035 49.1577C23.8678 54.8627 25.2974 60.4894 26.6969 66.4595C27.463 65.5981 28.0241 65.0077 28.5368 64.3992C32.6147 59.5798 36.6846 54.7603 40.7464 49.9409C42.7551 47.5312 43.2498 46.9709 45.3792 46.9709C46.0669 46.9709 46.9235 47.0311 48.0636 47.1155C47.6293 47.6818 47.2553 48.2179 46.8149 48.73C40.7826 55.7965 34.7019 62.857 28.7178 69.9416C28.3362 70.4885 27.8214 70.9294 27.2219 71.2224C26.6224 71.5154 25.958 71.651 25.2914 71.6164H25.2009C23.548 71.6164 22.9388 71.1645 22.6673 69.9838C21.0386 62.8871 19.2831 55.8266 17.582 48.7481C17.4553 48.23 17.389 47.6878 17.2804 47.0613C18.0344 47.0311 18.5894 47.0613 19.1565 46.9829C19.4742 46.9373 19.7946 46.9132 20.1156 46.9107M20.1156 45.5251C19.732 45.5253 19.3489 45.5535 18.9695 45.6094C18.6329 45.6462 18.2945 45.6623 17.956 45.6576H17.2261L15.6335 45.7178L15.911 47.2842C15.9472 47.483 15.9774 47.6757 16.0076 47.8866C16.0739 48.2962 16.1342 48.6878 16.2308 49.0915L17.6966 55.1158C18.9031 60.0858 20.1518 65.2246 21.3161 70.291C21.859 72.6586 23.6687 72.9779 25.1828 72.9959H25.2914C26.1596 73.0298 27.0228 72.8503 27.8053 72.4732C28.5879 72.0961 29.2657 71.533 29.7795 70.8332C33.9479 65.9053 38.2248 60.9112 42.357 56.0857C44.2029 53.929 46.0468 51.7743 47.8887 49.6216C48.2145 49.2421 48.4919 48.8505 48.7875 48.471L49.1796 47.9529L50.7481 45.9106L48.1783 45.7239C47.0381 45.6456 46.1333 45.5793 45.3973 45.5793C42.6224 45.5793 41.7779 46.5914 39.7088 49.0372C35.6389 53.8567 31.5671 58.6882 27.4932 63.5317L27.451 63.5799C27.264 62.7847 27.077 62.0016 26.89 61.2184C25.8765 57.0014 24.9174 52.9952 24.0849 48.9047C23.916 48.0673 23.3972 45.519 20.1156 45.519V45.5251Z" fill="#FF005C"/>
    <path d="M163.155 11.7296C160.482 13.1926 158.469 15.2662 155.549 15.2662C155.102 15.2647 154.656 15.2164 154.218 15.1222C152.216 21.867 150.304 28.4045 148.324 35.0169H144.074L150.986 11.7296H163.155ZM168.306 10.4048H150.035L149.756 11.3379L144.991 27.4196L142.855 34.631L142.351 36.359H149.275L149.554 35.4201L155.147 16.5967H155.566C158.044 16.5967 159.923 15.3583 161.718 14.166C162.372 13.734 163.049 13.2905 163.753 12.9046L168.3 10.4106L168.306 10.4048Z" fill="#00FFFF"/>
    <path d="M99.0026 46.9186C96.2173 48.5373 94.1043 50.7158 90.9108 50.7158C90.4254 50.7149 89.941 50.668 89.4641 50.5759C87.3211 57.6895 85.2622 64.5719 83.1372 71.5821H78.587L86.0125 46.9186H99.0026ZM104.183 45.519H84.974L84.6739 46.5109L78.8752 65.7646L77.2484 71.1744L76.7021 73H84.1457L84.4398 72.0081L86.1266 66.4036L90.4306 52.1215H90.8928C93.6781 52.1215 95.6951 50.7402 97.7 49.4075C98.3363 48.9755 98.9966 48.5312 99.6749 48.1357L104.165 45.5251L104.183 45.519Z" fill="#FF005C"/>
    <path d="M205.868 11.4761C203.499 19.4 201.188 27.1535 198.849 34.9892H194.544L195.199 32.7849C196.578 28.1587 198.234 23.5207 199.223 18.918C199.924 15.7202 201.924 13.4571 205.845 11.4761M208 8.87793L205.258 10.2652C200.987 12.4225 198.723 15.0031 197.929 18.6241C197.239 21.7866 196.205 25.0549 195.205 28.2174C194.774 29.5812 194.331 30.992 193.911 32.3851L193.256 34.5954L192.733 36.3588H199.803L200.091 35.4007L204.206 21.6103L207.109 11.8876L208 8.89556V8.87793Z" fill="#00FFFF"/>
    <path d="M43.6882 11.8233C45.9093 11.9201 49.9832 11.9486 54.4254 11.9486C60.9995 11.9486 68.3932 11.8859 71.8079 11.8859L64.4439 35.0317H37.322L41.5562 21.7127H58.5646C57.7785 22.7854 56.7343 23.6602 55.5206 24.2632C54.3069 24.8662 52.9594 25.1794 51.5926 25.1763H51.3016C50.298 25.1308 49.5556 25.1308 48.8668 25.1308C47.7562 25.1308 46.7763 25.1308 45.0601 25.1308L43.0706 31.3971H60.952C62.6148 26.1619 64.2658 20.9722 65.9939 15.5489H49.9595C48.6513 15.5727 47.3641 15.2317 46.254 14.5673C45.144 13.9029 44.2588 12.9437 43.706 11.8062M41.6394 10.4105L42.4292 12.3189C43.0811 13.7001 44.1407 14.8678 45.4768 15.6778C46.813 16.4877 48.3673 16.9044 49.9476 16.8762H64.147L62.7039 21.4336L59.9365 30.1211H44.9175L45.5114 28.1842L46.0518 26.4752H47.3761H48.843C49.6032 26.4752 50.3396 26.4752 51.2185 26.5151H51.557C53.1491 26.5233 54.7192 26.1593 56.1317 25.4546C57.5441 24.7498 58.7563 23.7256 59.6633 22.4704L61.0826 20.431H40.5467L40.2557 21.3596L39.7627 22.8977L36.0154 34.65L35.481 36.359H65.4535L65.7504 35.4304L68.0309 28.264L73.1144 12.2847L73.6489 10.5757H71.8079H65.7683C62.4188 10.5757 58.2439 10.6156 54.4254 10.6156C49.1578 10.6156 45.6658 10.5757 43.7357 10.4959L41.6097 10.4048L41.6394 10.4105Z" fill="#00FFFF"/>
    <path d="M170.86 11.8113C172.986 11.9081 176.527 11.9365 180.347 11.9365C185.996 11.9365 192.273 11.8739 195.551 11.8739L188.482 35.0095H162.445L166.51 21.6964H182.832C182.079 22.7691 181.078 23.6442 179.914 24.247C178.749 24.8498 177.456 25.1625 176.145 25.1585H175.86C174.902 25.13 174.189 25.1186 173.528 25.1186C172.462 25.1186 171.521 25.1186 169.874 25.1186L167.964 31.3822H185.13C186.726 26.1493 188.311 20.9618 189.97 15.541H176.857C175.602 15.5647 174.366 15.2239 173.3 14.5598C172.235 13.8957 171.385 12.9369 170.854 11.7999M168.87 10.4048L169.64 12.2953C170.266 13.6759 171.283 14.8431 172.565 15.6527C173.848 16.4622 175.34 16.8787 176.857 16.8506H188.191L186.806 21.406L184.149 30.0897H169.737L170.307 28.2561L170.877 26.4568H172.148H173.556C174.286 26.4568 174.993 26.4568 175.837 26.4966H176.162C177.69 26.5049 179.198 26.141 180.554 25.4366C181.91 24.7322 183.073 23.7084 183.944 22.4537L185.301 20.4152H165.541L165.256 21.3434L164.879 22.5733L161.191 34.6507L160.672 36.359H189.446L189.731 35.4308L191.92 28.2675L196.8 12.2953L197.313 10.587H195.546C194.126 10.587 192.125 10.587 189.896 10.587C186.92 10.587 183.545 10.6269 180.341 10.6269C175.837 10.6269 172.753 10.587 170.911 10.5073L168.87 10.4162V10.4048Z" fill="#00FFFF"/>
    <path d="M144.967 11.3741C143.32 16.7571 139.368 29.4011 137.656 34.9825H110.587C110.815 34.2243 111.038 33.5011 111.261 32.7721C112.692 28.1064 114.304 23.1783 115.435 18.8334C116.256 15.6957 118.367 13.5844 122.207 11.584L116.162 31.2791H134.191C134.895 28.9871 137.897 19.4457 138.594 17.1595C139.048 15.7211 139.877 14.4279 140.996 13.4117C142.116 12.3954 143.486 11.6924 144.967 11.3741ZM124.447 8.87793L121.574 10.4001C117.235 12.6921 115.013 15.1183 114.134 18.4951C113.29 21.7436 112.152 25.3828 111.056 28.9054C110.686 30.0718 110.323 31.2383 109.971 32.4047L109.578 33.6936L109.297 34.6092L108.763 36.3588H138.665L138.958 35.4082C139.82 32.5971 141.268 27.9314 142.675 23.4174C144.041 19.02 145.454 14.4709 146.269 11.7998L146.931 9.6536L144.715 10.0968C142.994 10.4607 141.402 11.2738 140.102 12.4525C138.801 13.6312 137.84 15.1331 137.316 16.8038C136.97 17.9702 136.026 20.9562 135.117 23.8665C134.396 26.1585 133.663 28.5322 133.206 29.9727H117.986L123.497 12.0098L124.447 8.91292V8.87793Z" fill="#00FFFF"/>
    <path d="M161.767 48.0157C160.113 53.3941 156.161 66.0466 154.449 71.6233H127.375C127.61 70.8708 127.833 70.1416 128.055 69.4183C129.48 64.7516 131.099 59.8166 132.23 55.4707C133.046 52.3324 135.162 50.2207 138.997 48.2257C136.951 54.8991 134.969 61.3508 132.958 67.9249H150.983C151.687 65.6266 154.683 56.0832 155.387 53.7966C155.841 52.3583 156.669 51.0655 157.789 50.0499C158.909 49.0344 160.279 48.3325 161.761 48.0157M141.237 45.519L138.364 47.0357C134.031 49.334 131.802 51.7549 130.923 55.1382C130.078 58.3816 128.941 62.0216 127.844 65.5449C127.481 66.7116 127.117 67.8783 126.765 69.0449L126.355 70.3866L126.085 71.25L125.557 73H155.463L155.75 72.0491C156.612 69.2374 158.067 64.5708 159.468 60.0616C160.834 55.6574 162.248 51.1074 163.069 48.4415L163.725 46.289L161.515 46.7324C159.793 47.0952 158.2 47.908 156.899 49.0872C155.598 50.2663 154.637 51.7691 154.114 53.4407C153.763 54.6074 152.819 57.5941 151.91 60.5108C151.194 62.8033 150.455 65.1774 150.004 66.6183H134.775L140.287 48.6515L141.237 45.554V45.519Z" fill="#FF005C"/>
    <g filter="url(#filter0_f_0_1)">
        <path d="M190.15 46.9217C187.031 49.3514 183.264 50.6651 179.394 50.6725H178.957C176.687 50.6115 174.232 50.6115 171.715 50.6115H170.973C170.341 52.8192 169.76 54.8257 169.105 57.1066H188.575C187.143 62.0771 185.792 66.767 184.418 71.5606H162.477C162.816 70.3714 163.132 69.2797 163.54 67.8465H181.01C181.676 65.5168 182.292 63.3822 182.953 61.083H163.529L167.599 46.9217H190.15ZM194.26 45.519H166.621L166.334 46.5131L165.443 49.6174L162.264 60.6744L161.741 62.504H181.148L179.998 66.4621H162.546L162.258 67.4562L161.293 70.8349L161.195 71.1703L160.672 73H185.39L185.677 72.0059L187.402 66.0474L189.845 57.5579L190.362 55.7283H170.893V55.6673L171.933 52.0386C174.583 52.0386 176.79 52.0386 178.911 52.0935H179.377C183.524 52.0934 187.562 50.6873 190.903 48.0805L194.242 45.5373L194.26 45.519Z" fill="#FF005C"/>
        <path d="M111.969 11.7738C112.012 12.0565 112.012 12.3445 111.969 12.6272C110.21 18.6366 109.123 22.4414 106.916 28.4271C106.397 29.9517 105.585 31.3525 104.528 32.5452C103.471 33.7378 102.19 34.6977 100.764 35.367C102.713 28.7708 104.668 22.1688 106.645 15.4956H96.2278C95.1872 19.0515 94.1696 22.4532 93.152 25.8847C92.9105 26.7144 92.6748 27.6033 92.4448 28.3678C91.5939 31.2185 88.7136 34.7447 85.8562 35.6337C87.8742 28.8064 89.8117 22.2577 91.8009 15.5489H81.3086C80.1243 19.5552 78.94 23.5733 77.8591 27.4374C76.922 30.8214 75.2892 33.429 71.1786 35.3788C73.4782 27.5559 75.8124 19.7212 78.1638 11.7738H111.958M113.28 10.4107H77.1922L76.9048 11.3767L76.83 11.6256L69.931 34.9817L69.0686 37.8857L71.7477 36.6174C75.7722 34.721 77.9626 32.0837 79.1469 27.8107C80.1186 24.3082 81.1879 20.6575 82.2975 16.912H90.0129L86.8566 27.5796L84.5914 35.2307L83.867 37.6664L86.2357 36.9315C89.6852 35.8707 92.784 31.8644 93.7096 28.7649C93.8304 28.3678 93.9511 27.9352 94.0718 27.4966C94.1926 27.0581 94.3018 26.6729 94.4168 26.2758L96.9809 17.6113L97.2109 16.8528H104.88L103.995 19.8456L99.5221 34.964L98.7172 37.6842L101.276 36.6293C102.877 35.8891 104.314 34.8197 105.501 33.4868C106.687 32.1539 107.597 30.5855 108.175 28.8775C110.256 23.2296 111.319 19.5908 112.929 14.091L113.245 13.0183C113.342 12.6579 113.368 12.2809 113.32 11.9101C113.32 11.8627 113.32 11.8153 113.32 11.7679V10.4048L113.28 10.4107Z" fill="#00FFFF"/>
        <path d="M79.5101 46.9269C78.1764 51.5615 76.8713 56.0993 75.4863 60.897C72.9102 60.897 70.7558 60.9937 68.573 60.9937C66.9316 60.9937 65.2788 60.9393 63.4436 60.752C61.7338 60.5828 60.7763 58.7822 59.7732 57.2413H72.0781C72.7449 54.915 73.332 52.8848 73.9475 50.7397H56.7582C55.1396 56.3712 53.5495 61.8759 51.891 67.6585H70.9895C68.0202 69.8035 65.7461 71.5921 62.4006 71.5921C62.1897 71.5921 61.9788 71.5921 61.7566 71.5921C59.7846 71.4652 57.767 71.4229 55.738 71.4229C52.6775 71.4229 49.5599 71.5135 46.4082 71.5135C48.7677 63.314 51.1044 55.199 53.4754 46.9692H79.5101M81.2826 45.5795H52.5008L52.2215 46.5644L48.175 60.6251L45.1543 71.1087L44.6414 72.9214H46.4082C48.004 72.9214 49.6055 72.9214 51.1557 72.8731C52.706 72.8247 54.2277 72.8308 55.7152 72.8308C58.0463 72.8308 59.9328 72.8852 61.654 73C61.899 73 62.1384 73 62.3778 73C65.9456 73 68.3963 71.2235 71.2346 69.1691L71.7076 68.8246L75.2242 66.2868H53.6635L55.5442 59.6946L57.7271 52.1113H72.1636L71.7019 53.7065L71.1206 55.8516H57.2541L58.6732 58.0269L58.9582 58.468C59.9442 60.0088 61.1695 61.9242 63.3011 62.1357C65.0109 62.3049 66.6181 62.3834 68.573 62.3834C69.6274 62.3834 70.6704 62.3834 71.7646 62.3411C72.9444 62.3411 74.1584 62.2868 75.4863 62.2868H76.4609L76.7402 61.3079L78.6894 54.5343L80.7639 47.3318L81.2826 45.519V45.5795Z" fill="#FF005C"/>
        <path d="M37.8323 11.752C36.8399 13.5886 34.9304 15.3101 29.2019 15.3101H28.8536C25.9516 15.2755 21.4652 15.2582 18.302 15.2582C17.652 17.377 17.0658 19.2884 16.4041 21.4244H36.1376L31.9645 34.9887H9.80503C10.1184 33.9639 10.4493 32.893 10.8555 31.5343H28.459C29.1554 29.2659 29.7765 27.2566 30.4439 25.0861H10.7975C12.1847 20.5665 13.5312 16.2025 14.9067 11.729H37.8323M40.0611 10.4048H13.9142L13.6298 11.3432L11.9525 16.7955L9.52064 24.7234L8.99248 26.4506H28.6389L27.4781 30.2504H9.86887L9.57868 31.1889L8.81836 33.6703L8.52816 34.6318L8 36.359H32.957L33.2414 35.4205L37.4145 21.8619L37.9426 20.1347H18.2092L19.2945 16.617C22.2255 16.617 26.1606 16.617 28.8362 16.6688H29.2019C34.3964 16.6688 37.4203 15.3561 39.0106 12.4141L40.0611 10.4624V10.4048Z" fill="#00FFFF"/>
        <path d="M127.548 46.9391C124.432 49.3671 120.667 50.6799 116.799 50.6873H116.362C114.091 50.6264 111.637 50.6264 109.119 50.6264H108.378C107.745 52.8327 107.165 54.8378 106.509 57.1172H125.973C124.548 62.0844 123.197 66.7712 121.817 71.5616H99.8642C100.203 70.3731 100.519 69.2822 100.928 67.8499H118.391L120.34 61.0909H100.928C102.307 56.3127 103.635 51.6929 105.003 46.9391H127.548ZM131.664 45.5373H104.026L103.739 46.5308L102.848 49.633L99.663 60.6826L99.1456 62.511H118.552L117.977 64.5588L117.402 66.4665H99.9504L99.663 67.4599L98.6915 70.8364L98.5995 71.1716L98.0764 73H122.794L123.099 71.97L126.548 59.9025L127.232 57.5317L127.755 55.7033H108.291V55.6423L109.332 52.016C111.982 52.016 114.189 52.016 116.305 52.0708H116.776C120.913 52.0663 124.941 50.6614 128.273 48.0605L131.618 45.519L131.664 45.5373Z" fill="#FF005C"/>
        <path d="M20.0975 46.8805C21.7805 46.8805 22.4079 47.7059 22.7035 49.1577C23.8678 54.8627 25.2974 60.4894 26.6969 66.4595C27.463 65.5981 28.0241 65.0077 28.5368 64.3992C32.6147 59.5798 36.6846 54.7603 40.7464 49.9409C42.7551 47.5312 43.2498 46.9709 45.3792 46.9709C46.0669 46.9709 46.9235 47.0311 48.0636 47.1155C47.6293 47.6818 47.2553 48.2179 46.8149 48.73C40.7826 55.7965 34.7019 62.857 28.7178 69.9416C28.3362 70.4885 27.8214 70.9294 27.2219 71.2224C26.6224 71.5154 25.958 71.651 25.2914 71.6164H25.2009C23.548 71.6164 22.9388 71.1645 22.6673 69.9838C21.0386 62.8871 19.2831 55.8266 17.582 48.7481C17.4553 48.23 17.389 47.6878 17.2804 47.0613C18.0344 47.0311 18.5894 47.0613 19.1565 46.9829C19.4742 46.9373 19.7946 46.9132 20.1156 46.9107M20.1156 45.5251C19.732 45.5253 19.3489 45.5535 18.9695 45.6094C18.6329 45.6462 18.2945 45.6623 17.956 45.6576H17.2261L15.6335 45.7178L15.911 47.2842C15.9472 47.483 15.9774 47.6757 16.0076 47.8866C16.0739 48.2962 16.1342 48.6878 16.2308 49.0915L17.6966 55.1158C18.9031 60.0858 20.1518 65.2246 21.3161 70.291C21.859 72.6586 23.6687 72.9779 25.1828 72.9959H25.2914C26.1596 73.0298 27.0228 72.8503 27.8053 72.4732C28.5879 72.0961 29.2657 71.533 29.7795 70.8332C33.9479 65.9053 38.2248 60.9112 42.357 56.0857C44.2029 53.929 46.0468 51.7743 47.8887 49.6216C48.2145 49.2421 48.4919 48.8505 48.7875 48.471L49.1796 47.9529L50.7481 45.9106L48.1783 45.7239C47.0381 45.6456 46.1333 45.5793 45.3973 45.5793C42.6224 45.5793 41.7779 46.5914 39.7088 49.0372C35.6389 53.8567 31.5671 58.6882 27.4932 63.5317L27.451 63.5799C27.264 62.7847 27.077 62.0016 26.89 61.2184C25.8765 57.0014 24.9174 52.9952 24.0849 48.9047C23.916 48.0673 23.3972 45.519 20.1156 45.519V45.5251Z" fill="#FF005C"/>
        <path d="M163.155 11.7296C160.482 13.1926 158.469 15.2662 155.549 15.2662C155.102 15.2647 154.656 15.2164 154.218 15.1222C152.216 21.867 150.304 28.4045 148.324 35.0169H144.074L150.986 11.7296H163.155ZM168.306 10.4048H150.035L149.756 11.3379L144.991 27.4196L142.855 34.631L142.351 36.359H149.275L149.554 35.4201L155.147 16.5967H155.566C158.044 16.5967 159.923 15.3583 161.718 14.166C162.372 13.734 163.049 13.2905 163.753 12.9046L168.3 10.4106L168.306 10.4048Z" fill="#00FFFF"/>
        <path d="M99.0026 46.9186C96.2173 48.5373 94.1043 50.7158 90.9108 50.7158C90.4254 50.7149 89.941 50.668 89.4641 50.5759C87.3211 57.6895 85.2622 64.5719 83.1372 71.5821H78.587L86.0125 46.9186H99.0026ZM104.183 45.519H84.974L84.6739 46.5109L78.8752 65.7646L77.2484 71.1744L76.7021 73H84.1457L84.4398 72.0081L86.1266 66.4036L90.4306 52.1215H90.8928C93.6781 52.1215 95.6951 50.7402 97.7 49.4075C98.3363 48.9755 98.9966 48.5312 99.6749 48.1357L104.165 45.5251L104.183 45.519Z" fill="#FF005C"/>
        <path d="M205.868 11.4761C203.499 19.4 201.188 27.1535 198.849 34.9892H194.544L195.199 32.7849C196.578 28.1587 198.234 23.5207 199.223 18.918C199.924 15.7202 201.924 13.4571 205.845 11.4761M208 8.87793L205.258 10.2652C200.987 12.4225 198.723 15.0031 197.929 18.6241C197.239 21.7866 196.205 25.0549 195.205 28.2174C194.774 29.5812 194.331 30.992 193.911 32.3851L193.256 34.5954L192.733 36.3588H199.803L200.091 35.4007L204.206 21.6103L207.109 11.8876L208 8.89556V8.87793Z" fill="#00FFFF"/>
        <path d="M43.6882 11.8233C45.9093 11.9201 49.9832 11.9486 54.4254 11.9486C60.9995 11.9486 68.3932 11.8859 71.8079 11.8859L64.4439 35.0317H37.322L41.5562 21.7127H58.5646C57.7785 22.7854 56.7343 23.6602 55.5206 24.2632C54.3069 24.8662 52.9594 25.1794 51.5926 25.1763H51.3016C50.298 25.1308 49.5556 25.1308 48.8668 25.1308C47.7562 25.1308 46.7763 25.1308 45.0601 25.1308L43.0706 31.3971H60.952C62.6148 26.1619 64.2658 20.9722 65.9939 15.5489H49.9595C48.6513 15.5727 47.3641 15.2317 46.254 14.5673C45.144 13.9029 44.2588 12.9437 43.706 11.8062M41.6394 10.4105L42.4292 12.3189C43.0811 13.7001 44.1407 14.8678 45.4768 15.6778C46.813 16.4877 48.3673 16.9044 49.9476 16.8762H64.147L62.7039 21.4336L59.9365 30.1211H44.9175L45.5114 28.1842L46.0518 26.4752H47.3761H48.843C49.6032 26.4752 50.3396 26.4752 51.2185 26.5151H51.557C53.1491 26.5233 54.7192 26.1593 56.1317 25.4546C57.5441 24.7498 58.7563 23.7256 59.6633 22.4704L61.0826 20.431H40.5467L40.2557 21.3596L39.7627 22.8977L36.0154 34.65L35.481 36.359H65.4535L65.7504 35.4304L68.0309 28.264L73.1144 12.2847L73.6489 10.5757H71.8079H65.7683C62.4188 10.5757 58.2439 10.6156 54.4254 10.6156C49.1578 10.6156 45.6658 10.5757 43.7357 10.4959L41.6097 10.4048L41.6394 10.4105Z" fill="#00FFFF"/>
        <path d="M170.86 11.8113C172.986 11.9081 176.527 11.9365 180.347 11.9365C185.996 11.9365 192.273 11.8739 195.551 11.8739L188.482 35.0095H162.445L166.51 21.6964H182.832C182.079 22.7691 181.078 23.6442 179.914 24.247C178.749 24.8498 177.456 25.1625 176.145 25.1585H175.86C174.902 25.13 174.189 25.1186 173.528 25.1186C172.462 25.1186 171.521 25.1186 169.874 25.1186L167.964 31.3822H185.13C186.726 26.1493 188.311 20.9618 189.97 15.541H176.857C175.602 15.5647 174.366 15.2239 173.3 14.5598C172.235 13.8957 171.385 12.9369 170.854 11.7999M168.87 10.4048L169.64 12.2953C170.266 13.6759 171.283 14.8431 172.565 15.6527C173.848 16.4622 175.34 16.8787 176.857 16.8506H188.191L186.806 21.406L184.149 30.0897H169.737L170.307 28.2561L170.877 26.4568H172.148H173.556C174.286 26.4568 174.993 26.4568 175.837 26.4966H176.162C177.69 26.5049 179.198 26.141 180.554 25.4366C181.91 24.7322 183.073 23.7084 183.944 22.4537L185.301 20.4152H165.541L165.256 21.3434L164.879 22.5733L161.191 34.6507L160.672 36.359H189.446L189.731 35.4308L191.92 28.2675L196.8 12.2953L197.313 10.587H195.546C194.126 10.587 192.125 10.587 189.896 10.587C186.92 10.587 183.545 10.6269 180.341 10.6269C175.837 10.6269 172.753 10.587 170.911 10.5073L168.87 10.4162V10.4048Z" fill="#00FFFF"/>
        <path d="M144.967 11.3741C143.32 16.7571 139.368 29.4011 137.656 34.9825H110.587C110.815 34.2243 111.038 33.5011 111.261 32.7721C112.692 28.1064 114.304 23.1783 115.435 18.8334C116.256 15.6957 118.367 13.5844 122.207 11.584L116.162 31.2791H134.191C134.895 28.9871 137.897 19.4457 138.594 17.1595C139.048 15.7211 139.877 14.4279 140.996 13.4117C142.116 12.3954 143.486 11.6924 144.967 11.3741ZM124.447 8.87793L121.574 10.4001C117.235 12.6921 115.013 15.1183 114.134 18.4951C113.29 21.7436 112.152 25.3828 111.056 28.9054C110.686 30.0718 110.323 31.2383 109.971 32.4047L109.578 33.6936L109.297 34.6092L108.763 36.3588H138.665L138.958 35.4082C139.82 32.5971 141.268 27.9314 142.675 23.4174C144.041 19.02 145.454 14.4709 146.269 11.7998L146.931 9.6536L144.715 10.0968C142.994 10.4607 141.402 11.2738 140.102 12.4525C138.801 13.6312 137.84 15.1331 137.316 16.8038C136.97 17.9702 136.026 20.9562 135.117 23.8665C134.396 26.1585 133.663 28.5322 133.206 29.9727H117.986L123.497 12.0098L124.447 8.91292V8.87793Z" fill="#00FFFF"/>
        <path d="M161.767 48.0157C160.113 53.3941 156.161 66.0466 154.449 71.6233H127.375C127.61 70.8708 127.833 70.1416 128.055 69.4183C129.48 64.7516 131.099 59.8166 132.23 55.4707C133.046 52.3324 135.162 50.2207 138.997 48.2257C136.951 54.8991 134.969 61.3508 132.958 67.9249H150.983C151.687 65.6266 154.683 56.0832 155.387 53.7966C155.841 52.3583 156.669 51.0655 157.789 50.0499C158.909 49.0344 160.279 48.3325 161.761 48.0157M141.237 45.519L138.364 47.0357C134.031 49.334 131.802 51.7549 130.923 55.1382C130.078 58.3816 128.941 62.0216 127.844 65.5449C127.481 66.7116 127.117 67.8783 126.765 69.0449L126.355 70.3866L126.085 71.25L125.557 73H155.463L155.75 72.0491C156.612 69.2374 158.067 64.5708 159.468 60.0616C160.834 55.6574 162.248 51.1074 163.069 48.4415L163.725 46.289L161.515 46.7324C159.793 47.0952 158.2 47.908 156.899 49.0872C155.598 50.2663 154.637 51.7691 154.114 53.4407C153.763 54.6074 152.819 57.5941 151.91 60.5108C151.194 62.8033 150.455 65.1774 150.004 66.6183H134.775L140.287 48.6515L141.237 45.554V45.519Z" fill="#FF005C"/>
    </g>
</svg>
