<svg width="20" height="20" viewBox="0 0 20 20" fill="none"
    xmlns="http://www.w3.org/2000/svg">
    <path d="M20 9.60716V10.3905C19.9847 10.5885 19.9721 10.7864 19.9526 10.9843C19.8704 11.79 19.7017 12.5761 19.4299 13.3386C18.8639 14.9179 17.9606 16.2769 16.7199 17.4046C15.6591 18.3691 14.445 19.0745 13.0802 19.5163C12.432 19.7254 11.7699 19.8704 11.0924 19.9373C10.8666 19.9596 10.6394 19.9791 10.4136 20H9.60922C9.58413 19.9958 9.56043 19.9888 9.53534 19.9875C8.81465 19.9526 8.10511 19.8453 7.40672 19.6585C5.80642 19.2292 4.40268 18.4444 3.18852 17.3223C2.37722 16.571 1.7095 15.7068 1.18675 14.7311C0.48279 13.4167 0.0924753 12.0158 0.014412 10.5257C-0.0315895 9.66013 0.0325324 8.80289 0.206781 7.9568C0.470244 6.68278 0.966505 5.50216 1.69835 4.42468C2.68111 2.97504 3.95242 1.85295 5.51648 1.06262C6.69718 0.466035 7.94898 0.128713 9.26491 0.0283534C10.0623 -0.0329778 10.8568 0.00605113 11.6444 0.137077C13.1486 0.387977 14.5258 0.952502 15.7692 1.83623C17.2887 2.91649 18.4234 4.31178 19.172 6.01929C19.5762 6.94204 19.8341 7.90662 19.9345 8.91022C19.9582 9.14439 19.9763 9.37717 19.9972 9.61134L20 9.60716ZM12.3177 16.8763C12.4557 16.7927 12.5951 16.7118 12.7318 16.6268C13.6072 16.0818 14.4059 15.4476 15.05 14.6335C16.1275 13.2689 16.4648 11.7314 16.115 10.0379C15.9491 9.23499 15.641 8.48508 15.2423 7.77141C14.7489 6.88768 14.1522 6.08202 13.4204 5.37949C13.3577 5.31956 13.2893 5.26659 13.2238 5.20944C13.2155 5.24568 13.2238 5.2638 13.2308 5.28471C13.4566 5.88687 13.518 6.49879 13.3242 7.12186C13.2461 7.37136 13.1221 7.59717 12.9227 7.77141C12.9116 7.76583 12.906 7.76444 12.9046 7.76305C12.8935 7.72959 12.8809 7.69475 12.8725 7.6599C12.6119 6.7009 12.2355 5.79348 11.6946 4.95575C11.1538 4.11802 10.4874 3.40157 9.63571 2.87189C9.40431 2.72832 9.15478 2.61262 8.8955 2.47463C8.8955 2.53875 8.89132 2.56663 8.8955 2.5945C8.96381 3.05449 8.93593 3.51168 8.86065 3.96748C8.72404 4.80103 8.41318 5.57325 8.02565 6.31758C7.56703 7.19713 7.00107 8.00558 6.3919 8.78477C6.31802 8.87955 6.23856 8.97015 6.17026 9.05379C6.11589 8.65095 6.07825 8.24673 6.00437 7.84947C5.93189 7.4536 5.78412 7.08004 5.57084 6.71902C5.54296 6.89883 5.52345 7.06053 5.49138 7.22082C5.37987 7.77559 5.14568 8.28436 4.9087 8.79174C4.6313 9.38414 4.33577 9.96957 4.08903 10.5745C3.7963 11.291 3.70011 12.0479 3.76842 12.8187C3.85206 13.7428 4.28001 14.5025 4.91009 15.1618C5.52345 15.803 6.24971 16.2978 7.00944 16.7453C7.08471 16.7899 7.15999 16.8317 7.2506 16.8833C7.17253 16.6923 7.10144 16.5264 7.03592 16.3578C6.76409 15.6594 6.65118 14.943 6.81707 14.2C6.93137 13.6913 7.17253 13.2382 7.46387 12.8117C7.86116 12.2319 8.18039 11.6158 8.40203 10.9481C8.46755 10.7515 8.51634 10.5508 8.57628 10.3362C8.79235 10.6498 8.90386 10.9857 8.96799 11.3412C9.0335 11.698 9.02375 12.0548 8.97077 12.4131C9.89917 11.2561 10.2491 9.93054 10.1417 8.47254C12.2717 9.872 13.8804 13.6453 12.315 16.8735L12.3177 16.8763Z" fill="#FF005C"/>
</svg>
