<svg width="52" height="20" viewBox="0 0 52 20" fill="none"
    xmlns="http://www.w3.org/2000/svg">
    <rect width="52" height="20" rx="10" fill="#FF0049"/>
    <path d="M9.5524 9.814H12.2524V13H11.1724V12.298H11.0104C10.9384 12.532 10.8004 12.73 10.5964 12.892C10.3924 13.048 10.0864 13.126 9.6784 13.126C9.3904 13.126 9.1204 13.072 8.8684 12.964C8.6164 12.856 8.3974 12.697 8.2114 12.487C8.0254 12.271 7.8784 12.007 7.7704 11.695C7.6624 11.377 7.6084 11.008 7.6084 10.588V9.112C7.6084 8.704 7.6654 8.344 7.7794 8.032C7.8994 7.714 8.0614 7.447 8.2654 7.231C8.4754 7.015 8.7244 6.853 9.0124 6.745C9.3004 6.631 9.6184 6.574 9.9664 6.574C10.3264 6.574 10.6474 6.634 10.9294 6.754C11.2114 6.868 11.4514 7.03 11.6494 7.24C11.8474 7.444 11.9974 7.687 12.0994 7.969C12.2014 8.245 12.2524 8.542 12.2524 8.86V8.968H11.0644V8.86C11.0644 8.482 10.9654 8.197 10.7674 8.005C10.5754 7.807 10.3024 7.708 9.9484 7.708C9.6124 7.708 9.3364 7.822 9.1204 8.05C8.9044 8.272 8.7964 8.656 8.7964 9.202V10.534C8.7964 11.506 9.1924 11.992 9.9844 11.992C10.3384 11.992 10.6054 11.899 10.7854 11.713C10.9714 11.521 11.0644 11.266 11.0644 10.948H9.5524V9.814ZM14.4241 11.137C14.4301 11.269 14.4601 11.392 14.5141 11.506C14.5741 11.614 14.6521 11.71 14.7481 11.794C14.8501 11.872 14.9641 11.935 15.0901 11.983C15.2221 12.025 15.3601 12.046 15.5041 12.046C15.7861 12.046 16.0021 11.998 16.1521 11.902C16.3021 11.8 16.4101 11.68 16.4761 11.542L17.4481 12.082C17.3941 12.196 17.3191 12.316 17.2231 12.442C17.1271 12.562 17.0011 12.673 16.8451 12.775C16.6951 12.877 16.5091 12.961 16.2871 13.027C16.0711 13.093 15.8161 13.126 15.5221 13.126C15.1861 13.126 14.8801 13.072 14.6041 12.964C14.3281 12.856 14.0881 12.7 13.8841 12.496C13.6861 12.292 13.5301 12.043 13.4161 11.749C13.3081 11.455 13.2541 11.122 13.2541 10.75V10.696C13.2541 10.354 13.3111 10.042 13.4251 9.76C13.5451 9.478 13.7071 9.238 13.9111 9.04C14.1151 8.842 14.3521 8.689 14.6221 8.581C14.8981 8.467 15.1921 8.41 15.5041 8.41C15.8881 8.41 16.2181 8.479 16.4941 8.617C16.7701 8.749 16.9981 8.92 17.1781 9.13C17.3581 9.334 17.4901 9.562 17.5741 9.814C17.6581 10.06 17.7001 10.3 17.7001 10.534V11.137H14.4241ZM15.4951 9.436C15.2071 9.436 14.9731 9.511 14.7931 9.661C14.6131 9.805 14.4961 9.973 14.4421 10.165H16.5481C16.5121 9.955 16.3981 9.781 16.2061 9.643C16.0201 9.505 15.7831 9.436 15.4951 9.436ZM20.0699 13H18.9359V8.536H20.0699V9.202H20.2319C20.3339 8.95 20.4989 8.755 20.7269 8.617C20.9549 8.479 21.2219 8.41 21.5279 8.41C21.7439 8.41 21.9449 8.446 22.1309 8.518C22.3229 8.584 22.4909 8.689 22.6349 8.833C22.7789 8.977 22.8899 9.16 22.9679 9.382C23.0519 9.604 23.0939 9.868 23.0939 10.174V13H21.9599V10.462C21.9599 10.144 21.8819 9.895 21.7259 9.715C21.5759 9.529 21.3569 9.436 21.0689 9.436C20.7329 9.436 20.4809 9.55 20.3129 9.778C20.1509 10 20.0699 10.3 20.0699 10.678V13ZM25.4456 11.137C25.4516 11.269 25.4816 11.392 25.5356 11.506C25.5956 11.614 25.6736 11.71 25.7696 11.794C25.8716 11.872 25.9856 11.935 26.1116 11.983C26.2436 12.025 26.3816 12.046 26.5256 12.046C26.8076 12.046 27.0236 11.998 27.1736 11.902C27.3236 11.8 27.4316 11.68 27.4976 11.542L28.4696 12.082C28.4156 12.196 28.3406 12.316 28.2446 12.442C28.1486 12.562 28.0226 12.673 27.8666 12.775C27.7166 12.877 27.5306 12.961 27.3086 13.027C27.0926 13.093 26.8376 13.126 26.5436 13.126C26.2076 13.126 25.9016 13.072 25.6256 12.964C25.3496 12.856 25.1096 12.7 24.9056 12.496C24.7076 12.292 24.5516 12.043 24.4376 11.749C24.3296 11.455 24.2756 11.122 24.2756 10.75V10.696C24.2756 10.354 24.3326 10.042 24.4466 9.76C24.5666 9.478 24.7286 9.238 24.9326 9.04C25.1366 8.842 25.3736 8.689 25.6436 8.581C25.9196 8.467 26.2136 8.41 26.5256 8.41C26.9096 8.41 27.2396 8.479 27.5156 8.617C27.7916 8.749 28.0196 8.92 28.1996 9.13C28.3796 9.334 28.5116 9.562 28.5956 9.814C28.6796 10.06 28.7216 10.3 28.7216 10.534V11.137H25.4456ZM26.5166 9.436C26.2286 9.436 25.9946 9.511 25.8146 9.661C25.6346 9.805 25.5176 9.973 25.4636 10.165H27.5696C27.5336 9.955 27.4196 9.781 27.2276 9.643C27.0416 9.505 26.8046 9.436 26.5166 9.436ZM31.3794 9.796C31.3794 9.94 31.4544 10.045 31.6044 10.111C31.7544 10.171 32.0274 10.222 32.4234 10.264C32.8794 10.312 33.2514 10.45 33.5394 10.678C33.8274 10.9 33.9714 11.212 33.9714 11.614V11.668C33.9714 12.112 33.8094 12.466 33.4854 12.73C33.1614 12.994 32.7054 13.126 32.1174 13.126C31.7694 13.126 31.4724 13.081 31.2264 12.991C30.9804 12.901 30.7764 12.79 30.6144 12.658C30.4524 12.52 30.3264 12.37 30.2364 12.208C30.1524 12.04 30.0954 11.878 30.0654 11.722L31.1094 11.38C31.1574 11.572 31.2564 11.74 31.4064 11.884C31.5624 12.028 31.7994 12.1 32.1174 12.1C32.3994 12.1 32.5914 12.058 32.6934 11.974C32.8014 11.884 32.8554 11.788 32.8554 11.686C32.8554 11.626 32.8404 11.572 32.8104 11.524C32.7864 11.47 32.7384 11.422 32.6664 11.38C32.5944 11.332 32.4954 11.293 32.3694 11.263C32.2494 11.233 32.0964 11.209 31.9104 11.191C31.4064 11.149 31.0044 11.02 30.7044 10.804C30.4104 10.582 30.2634 10.258 30.2634 9.832V9.778C30.2634 9.556 30.3114 9.361 30.4074 9.193C30.5034 9.025 30.6294 8.884 30.7854 8.77C30.9414 8.65 31.1214 8.56 31.3254 8.5C31.5294 8.44 31.7394 8.41 31.9554 8.41C32.2374 8.41 32.4804 8.446 32.6844 8.518C32.8944 8.584 33.0714 8.674 33.2154 8.788C33.3594 8.896 33.4764 9.019 33.5664 9.157C33.6564 9.289 33.7254 9.418 33.7734 9.544L32.7474 9.958C32.6934 9.796 32.6004 9.67 32.4684 9.58C32.3364 9.484 32.1654 9.436 31.9554 9.436C31.7634 9.436 31.6194 9.472 31.5234 9.544C31.4274 9.61 31.3794 9.694 31.3794 9.796ZM35.5491 11.92H37.0611V9.616H35.6571V8.536H38.1951V11.92H39.4911V13H35.5491V11.92ZM38.4741 7.213C38.4741 7.333 38.4501 7.447 38.4021 7.555C38.3601 7.657 38.3001 7.747 38.2221 7.825C38.1441 7.897 38.0511 7.957 37.9431 8.005C37.8411 8.047 37.7331 8.068 37.6191 8.068C37.4991 8.068 37.3881 8.047 37.2861 8.005C37.1841 7.957 37.0941 7.897 37.0161 7.825C36.9381 7.747 36.8751 7.657 36.8271 7.555C36.7851 7.447 36.7641 7.333 36.7641 7.213C36.7641 7.093 36.7851 6.982 36.8271 6.88C36.8751 6.772 36.9381 6.682 37.0161 6.61C37.0941 6.532 37.1841 6.472 37.2861 6.43C37.3881 6.382 37.4991 6.358 37.6191 6.358C37.7331 6.358 37.8411 6.382 37.9431 6.43C38.0511 6.472 38.1441 6.532 38.2221 6.61C38.3001 6.682 38.3601 6.772 38.4021 6.88C38.4501 6.982 38.4741 7.093 38.4741 7.213ZM42.4009 9.796C42.4009 9.94 42.4759 10.045 42.6259 10.111C42.7759 10.171 43.0489 10.222 43.4449 10.264C43.9009 10.312 44.2729 10.45 44.5609 10.678C44.8489 10.9 44.9929 11.212 44.9929 11.614V11.668C44.9929 12.112 44.8309 12.466 44.5069 12.73C44.1829 12.994 43.7269 13.126 43.1389 13.126C42.7909 13.126 42.4939 13.081 42.2479 12.991C42.0019 12.901 41.7979 12.79 41.6359 12.658C41.4739 12.52 41.3479 12.37 41.2579 12.208C41.1739 12.04 41.1169 11.878 41.0869 11.722L42.1309 11.38C42.1789 11.572 42.2779 11.74 42.4279 11.884C42.5839 12.028 42.8209 12.1 43.1389 12.1C43.4209 12.1 43.6129 12.058 43.7149 11.974C43.8229 11.884 43.8769 11.788 43.8769 11.686C43.8769 11.626 43.8619 11.572 43.8319 11.524C43.8079 11.47 43.7599 11.422 43.6879 11.38C43.6159 11.332 43.5169 11.293 43.3909 11.263C43.2709 11.233 43.1179 11.209 42.9319 11.191C42.4279 11.149 42.0259 11.02 41.7259 10.804C41.4319 10.582 41.2849 10.258 41.2849 9.832V9.778C41.2849 9.556 41.3329 9.361 41.4289 9.193C41.5249 9.025 41.6509 8.884 41.8069 8.77C41.9629 8.65 42.1429 8.56 42.3469 8.5C42.5509 8.44 42.7609 8.41 42.9769 8.41C43.2589 8.41 43.5019 8.446 43.7059 8.518C43.9159 8.584 44.0929 8.674 44.2369 8.788C44.3809 8.896 44.4979 9.019 44.5879 9.157C44.6779 9.289 44.7469 9.418 44.7949 9.544L43.7689 9.958C43.7149 9.796 43.6219 9.67 43.4899 9.58C43.3579 9.484 43.1869 9.436 42.9769 9.436C42.7849 9.436 42.6409 9.472 42.5449 9.544C42.4489 9.61 42.4009 9.694 42.4009 9.796Z" fill="#0D1238"/>
</svg>
