<svg width="45" height="50" viewBox="0 0 45 50" fill="none"
    xmlns="http://www.w3.org/2000/svg">
    <defs>
        <clipPath id="clip0_564_9679">
            <rect width="42.2" height="36.56" fill="white"/>
        </clipPath>
    </defs>
    <path d="M3.6984 40.575H8.2344V41.709H6.5604V46.875H5.3724V41.709H3.6984V40.575ZM9.15514 43.023C9.15514 42.207 9.35914 41.574 9.76714 41.124C10.1811 40.674 10.7511 40.449 11.4771 40.449C12.2031 40.449 12.7701 40.674 13.1781 41.124C13.5921 41.574 13.7991 42.207 13.7991 43.023V44.427C13.7991 45.267 13.5921 45.906 13.1781 46.344C12.7701 46.782 12.2031 47.001 11.4771 47.001C10.7511 47.001 10.1811 46.782 9.76714 46.344C9.35914 45.906 9.15514 45.267 9.15514 44.427V43.023ZM11.4771 45.921C11.6931 45.921 11.8731 45.888 12.0171 45.822C12.1611 45.75 12.2781 45.651 12.3681 45.525C12.4581 45.399 12.5211 45.249 12.5571 45.075C12.5931 44.901 12.6111 44.709 12.6111 44.499V42.951C12.6111 42.753 12.5901 42.567 12.5481 42.393C12.5061 42.219 12.4401 42.069 12.3501 41.943C12.2601 41.817 12.1431 41.718 11.9991 41.646C11.8551 41.568 11.6811 41.529 11.4771 41.529C11.2731 41.529 11.0991 41.568 10.9551 41.646C10.8111 41.718 10.6941 41.817 10.6041 41.943C10.5141 42.069 10.4481 42.219 10.4061 42.393C10.3641 42.567 10.3431 42.753 10.3431 42.951V44.499C10.3431 44.709 10.3611 44.901 10.3971 45.075C10.4331 45.249 10.4961 45.399 10.5861 45.525C10.6761 45.651 10.7931 45.75 10.9371 45.822C11.0811 45.888 11.2611 45.921 11.4771 45.921ZM22.0846 43.689H24.7846V46.875H23.7046V46.173H23.5426C23.4706 46.407 23.3326 46.605 23.1286 46.767C22.9246 46.923 22.6186 47.001 22.2106 47.001C21.9226 47.001 21.6526 46.947 21.4006 46.839C21.1486 46.731 20.9296 46.572 20.7436 46.362C20.5576 46.146 20.4106 45.882 20.3026 45.57C20.1946 45.252 20.1406 44.883 20.1406 44.463V42.987C20.1406 42.579 20.1976 42.219 20.3116 41.907C20.4316 41.589 20.5936 41.322 20.7976 41.106C21.0076 40.89 21.2566 40.728 21.5446 40.62C21.8326 40.506 22.1506 40.449 22.4986 40.449C22.8586 40.449 23.1796 40.509 23.4616 40.629C23.7436 40.743 23.9836 40.905 24.1816 41.115C24.3796 41.319 24.5296 41.562 24.6316 41.844C24.7336 42.12 24.7846 42.417 24.7846 42.735V42.843H23.5966V42.735C23.5966 42.357 23.4976 42.072 23.2996 41.88C23.1076 41.682 22.8346 41.583 22.4806 41.583C22.1446 41.583 21.8686 41.697 21.6526 41.925C21.4366 42.147 21.3286 42.531 21.3286 43.077V44.409C21.3286 45.381 21.7246 45.867 22.5166 45.867C22.8706 45.867 23.1376 45.774 23.3176 45.588C23.5036 45.396 23.5966 45.141 23.5966 44.823H22.0846V43.689ZM29.0804 45.525H26.9384L26.6324 46.875H25.3904L26.8934 40.575H29.1254L30.6284 46.875H29.3864L29.0804 45.525ZM27.1904 44.391H28.8194L28.0904 41.169H27.9284L27.1904 44.391ZM30.9641 40.575H33.0521L33.4121 45.309V46.227H33.6281V45.309L33.9881 40.575H36.0761V46.875H34.9961V42.663L35.1041 41.223H34.8881L34.4201 46.875H32.6381L32.1521 41.223H31.9361L32.0441 42.663V46.875H30.9641V40.575ZM37.0149 40.575H40.9929V41.709H38.2029V43.149H40.8849V44.283H38.2029V45.741H41.1009V46.875H37.0149V40.575Z" fill="#00FFFF"/>
    <g clip-path="url(#clip0_564_9679)">
        <path d="M1.56055 28.54L4.68055 27.37C4.68055 27.37 1.91055 21.46 4.30055 15.77L7.19055 15.91" stroke="#FF005C" stroke-width="0.38"/>
        <path d="M11.1406 2.69995L12.5306 5.10995C12.5306 5.10995 21.9406 0.229951 30.5106 5.80995L32.1506 3.51995" stroke="#00FFFF" stroke-width="0.38"/>
        <path d="M35.4005 15.24L37.9605 14.19C36.8205 10.92 33.9805 8.43996 33.9805 8.43996L36.0105 6.45996" stroke="#FF005C" stroke-width="0.38"/>
        <path d="M41.7308 24.6199H38.3408" stroke="#00FFFF" stroke-width="0.38"/>
        <path d="M41.9708 23.0901H38.3408" stroke="#00FFFF" stroke-width="0.38"/>
        <path d="M41.9708 21.55H38.3408" stroke="#00FFFF" stroke-width="0.38"/>
        <path d="M41.9708 20.02H38.3408" stroke="#00FFFF" stroke-width="0.38"/>
        <path d="M41.8008 18.49H38.3408" stroke="#00FFFF" stroke-width="0.38"/>
        <path d="M3.37012 10.01L6.05012 11.71C6.05012 11.71 7.37012 9.25999 9.03012 7.73999" stroke="#FF005C" stroke-width="0.38"/>
        <path d="M40.6303 28.92L37.4803 28.02L36.0703 30.59" stroke="#FF005C" stroke-width="0.38"/>
        <path d="M3.19 19.5601H0.25" stroke="#FF005C" stroke-width="0.38"/>
        <path d="M3.24039 20.98H0.150391" stroke="#FF005C" stroke-width="0.38"/>
        <path d="M3.24039 22.3699H0.150391" stroke="#FF005C" stroke-width="0.38"/>
        <path d="M6.87043 36.4199C2.76043 32.6099 0.19043 27.1499 0.19043 21.0999C0.19043 9.54994 9.55043 0.189941 21.1004 0.189941C32.6504 0.189941 42.0104 9.54994 42.0104 21.0999C42.0104 27.1199 39.4704 32.5399 35.4004 36.3499" stroke="#00FFFF" stroke-width="0.38"/>
        <path d="M21.2003 16.3899V8.13989M21.2003 16.3899L26.0803 11.8899M21.2003 16.3899L16.3203 11.8899" stroke="#00FFFF" stroke-width="1.5" stroke-linecap="round" stroke-linejoin="round"/>
        <path d="M8.33008 31.57C8.38008 31.46 8.40008 31.33 8.48008 31.23C8.58008 31.1 8.69008 30.97 8.84008 30.89C10.0601 30.21 11.2601 29.51 12.4101 28.77C12.4301 28.77 12.4401 28.75 12.4701 28.74C12.9501 29.32 13.5901 29.76 14.3801 30.09C14.2101 30.2 14.0601 30.3 13.9101 30.4C12.8201 31.12 11.6801 31.8 10.5101 32.44C9.76008 32.85 8.70008 32.61 8.41008 31.97C8.38008 31.9 8.36008 31.82 8.33008 31.74V31.58V31.57Z" fill="#00FFFF"/>
        <path d="M16.1305 28.4299C16.6405 29.1199 16.9405 29.7499 16.9205 30.0799C15.1305 30.1599 12.2805 27.9299 12.3805 26.5199C13.2005 26.5999 13.9305 26.8499 14.6105 27.2299C14.9605 27.0199 15.3105 26.8199 15.6505 26.5999C18.7605 24.6599 21.5605 22.4799 24.1405 20.0999C25.7105 18.6499 27.2005 17.1499 28.5905 15.5899C28.8205 15.3299 29.0405 15.0699 29.2605 14.7999C30.2605 13.5899 31.4705 12.4999 32.6805 11.4199C32.9905 11.1499 33.3505 10.9099 33.6905 10.6499C33.6305 10.8399 33.5805 11.0299 33.5005 11.2199C33.2105 11.9799 32.9305 12.7399 32.6305 13.4899C32.4605 13.8999 32.2005 14.2799 31.8805 14.6299C30.7405 15.9099 29.6405 17.2099 28.4705 18.4699C26.1905 20.9299 23.6805 23.2399 20.8605 25.3299C19.3905 26.4199 17.8505 27.4299 16.2105 28.3499C16.1805 28.3699 16.1505 28.3899 16.1105 28.4099L16.1305 28.4299Z" fill="#00FFFF"/>
        <path d="M20.5404 22.38C20.0204 22.79 19.5204 23.2 18.9804 23.63C18.9404 23.58 18.9104 23.54 18.8704 23.52C16.2104 21.3 13.8504 18.88 11.6504 16.37C11.0904 15.73 10.5404 15.09 10.0004 14.45C9.63035 14.01 9.40035 13.52 9.21035 13.01C8.92035 12.22 8.64035 11.43 8.36035 10.64C8.36035 10.64 8.36035 10.63 8.36035 10.65C9.79035 11.68 11.0004 12.9 12.2004 14.12C12.6004 14.53 12.9304 14.98 13.3004 15.4C14.5704 16.85 15.9304 18.25 17.3804 19.6C18.3604 20.5 19.3804 21.37 20.3804 22.26C20.4304 22.3 20.4804 22.34 20.5204 22.38H20.5404Z" fill="#00FFFF"/>
        <path d="M25.1405 30.0899C25.2305 29.4799 25.5205 28.9399 25.9505 28.4299C24.4005 27.5599 22.9405 26.6199 21.5605 25.6099C22.0805 25.1999 22.5905 24.7899 23.1105 24.3799C24.5005 25.3799 25.9305 26.3499 27.4505 27.2299C28.1205 26.8499 28.8505 26.5999 29.6705 26.5199C29.5705 27.9899 27.4805 29.9099 25.1205 30.0899H25.1405Z" fill="#00FFFF"/>
        <path d="M27.7002 30.08C28.4902 29.76 29.1202 29.31 29.6102 28.73C29.7402 28.81 29.8502 28.89 29.9602 28.95C31.0302 29.58 32.1002 30.22 33.1802 30.85C33.4602 31.01 33.6602 31.22 33.7202 31.49C33.8302 32.02 33.3802 32.51 32.6802 32.61C32.2802 32.67 31.9102 32.61 31.5802 32.43C30.2602 31.71 28.9802 30.93 27.7602 30.11C27.7502 30.1 27.7302 30.09 27.7002 30.07V30.08Z" fill="#00FFFF"/>
    </g>
</svg>
