<svg width="45" height="50" viewBox="0 0 45 50" fill="none"
    xmlns="http://www.w3.org/2000/svg">
    <defs>
        <clipPath id="clip0_828_17645">
            <rect width="42.2" height="36.6" fill="white" transform="translate(1)"/>
        </clipPath>
    </defs>
    <path d="M5.67703 46.75H3.60703L3.31903 41.962V41.098H3.10303V41.962L2.81503 46.75H0.745031L0.529031 40.45H1.60903L1.75303 45.238V46.048H1.96903V45.238L2.25703 40.45H4.16503L4.45303 45.238V46.048H4.66903V45.238L4.81303 40.45H5.89303L5.67703 46.75ZM6.61577 40.45H10.8278V41.584H9.31577V45.616H10.8278V46.75H6.61577V45.616H8.12777V41.584H6.61577V40.45ZM11.9645 40.45H16.5005V41.584H14.8265V46.75H13.6385V41.584H11.9645V40.45ZM17.5383 40.45H18.7263V43.024H20.7603V40.45H21.9483V46.75H20.7603V44.158H18.7263V46.75H17.5383V40.45ZM22.914 40.45H25.2C25.98 40.45 26.559 40.633 26.937 40.999C27.315 41.359 27.504 41.92 27.504 42.682V44.518C27.504 45.28 27.315 45.844 26.937 46.21C26.559 46.57 25.98 46.75 25.2 46.75H22.914V45.607H23.508V41.584H22.914V40.45ZM25.2 45.616C25.614 45.616 25.902 45.52 26.064 45.328C26.232 45.13 26.316 44.824 26.316 44.41V42.682C26.316 42.322 26.232 42.049 26.064 41.863C25.902 41.677 25.614 41.584 25.2 41.584H24.696V45.616H25.2ZM32.8977 46.75H31.7097V44.86C31.7097 44.716 31.6707 44.599 31.5927 44.509C31.5207 44.419 31.3977 44.374 31.2237 44.374H29.8557V46.75H28.6677V40.45H31.0797C31.4037 40.45 31.6887 40.495 31.9347 40.585C32.1807 40.675 32.3847 40.801 32.5467 40.963C32.7147 41.119 32.8407 41.302 32.9247 41.512C33.0147 41.722 33.0597 41.947 33.0597 42.187V42.403C33.0597 42.661 32.9907 42.904 32.8527 43.132C32.7147 43.354 32.5017 43.525 32.2137 43.645V43.807C32.4237 43.831 32.5887 43.912 32.7087 44.05C32.8347 44.188 32.8977 44.362 32.8977 44.572V46.75ZM29.8557 43.24H30.9897C31.2777 43.24 31.4967 43.174 31.6467 43.042C31.7967 42.904 31.8717 42.712 31.8717 42.466V42.358C31.8717 42.148 31.7967 41.968 31.6467 41.818C31.4967 41.662 31.2777 41.584 30.9897 41.584H29.8557V43.24ZM37.3465 45.4H35.2045L34.8985 46.75H33.6565L35.1595 40.45H37.3915L38.8945 46.75H37.6525L37.3465 45.4ZM35.4565 44.266H37.0855L36.3565 41.044H36.1945L35.4565 44.266ZM44.2522 46.75H42.1822L41.8942 41.962V41.098H41.6782V41.962L41.3902 46.75H39.3202L39.1042 40.45H40.1842L40.3282 45.238V46.048H40.5442V45.238L40.8322 40.45H42.7402L43.0282 45.238V46.048H43.2442V45.238L43.3882 40.45H44.4682L44.2522 46.75Z" fill="#00FFFF"/>
    <g clip-path="url(#clip0_828_17645)">
        <path d="M7.91043 36.4599C3.78043 32.6399 1.19043 27.1699 1.19043 21.0999C1.19043 9.54994 10.5504 0.189941 22.1004 0.189941C33.6504 0.189941 43.0104 9.54994 43.0104 21.0999C43.0104 27.0999 40.4804 32.5199 36.4304 36.3299" stroke="#00FFFF" stroke-width="0.38"/>
        <path d="M4.07031 10.49L6.88031 12.27C6.88031 12.27 9.93031 6.5 15.9103 4.98L14.8203 1.5" stroke="#00FFFF" stroke-width="0.38"/>
        <path d="M26.9709 0.76001L26.3809 3.48001C26.3809 3.48001 36.6309 6.19001 39.2209 16.09L42.1009 14.95" stroke="#00FFFF" stroke-width="0.38"/>
        <path d="M31.4004 13.34L33.5804 11.64C31.5904 8.79998 28.1904 7.18998 28.1904 7.18998L29.6004 4.72998" stroke="#00FFFF" stroke-width="0.38"/>
        <path d="M1.52051 18.26H4.90051" stroke="#FF005C" stroke-width="0.38"/>
        <path d="M1.27051 19.8H4.90051" stroke="#FF005C" stroke-width="0.38"/>
        <path d="M1.27051 21.3301H4.90051" stroke="#FF005C" stroke-width="0.38"/>
        <path d="M1.27051 22.8601H4.90051" stroke="#FF005C" stroke-width="0.38"/>
        <path d="M1.44043 24.3999H4.90043" stroke="#FF005C" stroke-width="0.38"/>
        <path d="M42.9704 22.4199H40.6904V30.6999" stroke="#00FFFF" stroke-width="0.38"/>
        <path d="M33.9502 21.6399L28.5902 15.9599M33.9502 21.6399L28.5902 26.8499M33.9502 21.6399H20.8802M18.8002 34.1499H15.5502C14.1102 34.1499 12.9502 32.7999 12.9502 31.1199V12.1799C12.9502 10.4999 14.1102 9.1499 15.5502 9.1499H18.8002" stroke="#00FFFF" stroke-width="1.5" stroke-linecap="round" stroke-linejoin="round"/>
        <path d="M38.7595 33.6801L33.0695 29.3201L28.1095 34.4101H23.2695" stroke="#FF005C" stroke-width="0.38"/>
        <path d="M34.9205 30.71L31.2305 34.6" stroke="#FF005C" stroke-width="0.38"/>
        <path d="M36.8505 32.27L34.4805 34.63" stroke="#FF005C" stroke-width="0.38"/>
        <path d="M22.4902 0.310059V5.87006C22.4902 5.87006 23.5902 6.01006 25.3902 6.47006" stroke="#FF005C" stroke-width="0.38"/>
        <path d="M1.90039 26.1299H8.40039V30.1599L4.70039 32.7399" stroke="#00FFFF" stroke-width="0.38"/>
        <path d="M6.88965 12.28L8.36965 13.24V21.01" stroke="#00FFFF" stroke-width="0.38"/>
        <path d="M22.4899 5.87012L19.6299 6.47012" stroke="#FF005C" stroke-width="0.38"/>
    </g>
</svg>
