<svg width="20" height="20" viewBox="0 0 20 20" fill="none"
    xmlns="http://www.w3.org/2000/svg">
    <path d="M9.18678 20.0001C8.73353 19.9394 8.27744 19.8942 7.82701 19.8137C6.36384 19.5483 5.04514 18.9497 3.86242 18.0588C2.37233 16.9364 1.28735 15.5048 0.621625 13.7654C0.121625 12.4553 -0.0724261 11.0999 0.0238913 9.69935C0.125874 8.2028 0.555053 6.80932 1.31001 5.51608C2.01114 4.31319 2.93749 3.30938 4.0763 2.50181C4.31426 2.3338 4.56355 2.17991 4.85109 1.99072C4.66554 2.3578 4.47998 2.65993 4.35251 2.98466C3.4984 5.16171 3.81709 7.17075 5.29868 8.97367C6.0154 9.84618 6.95591 10.418 8.04089 10.7469C8.61738 10.922 9.21086 10.9813 9.80718 10.994C11.6301 11.0307 13.2689 12.1969 13.8936 13.8727C14.4842 15.454 14.2604 16.9463 13.2264 18.2791C12.4517 19.2773 11.4021 19.842 10.1301 19.9676C10.0678 19.9733 10.0069 19.9888 9.94458 20.0001H9.1882H9.18678Z" fill="#00FFFF"/>
    <path d="M15.1879 17.9514C15.3805 17.5377 15.6029 17.1396 15.7587 16.716C16.6411 14.3159 15.8182 11.656 13.7219 10.1185C12.8125 9.45072 11.787 9.08082 10.6539 9.02717C9.98956 8.9947 9.32809 8.95517 8.69777 8.70104C7.44565 8.19842 6.5533 7.33297 6.09012 6.07502C5.51647 4.51353 5.74593 3.03675 6.76576 1.72092C7.54905 0.710041 8.60571 0.125541 9.89466 0.0253004C11.4357 -0.0947057 12.9032 0.21731 14.3026 0.852637C16.4315 1.81833 18.0037 3.36288 19.0391 5.44393C19.5207 6.41245 19.8097 7.44168 19.9329 8.52032C20.1255 10.2032 19.9046 11.8283 19.2389 13.3799C18.3989 15.3367 17.0505 16.8657 15.2049 17.95C15.1992 17.9528 15.1921 17.9514 15.1893 17.9528L15.1879 17.9514Z" fill="#00FFFF"/>
</svg>
