<svg width="36" height="32" viewBox="0 0 36 32" fill="none" xmlns="http://www.w3.org/2000/svg">
<path d="M21.2642 21.263H10.911L14.5106 10.7051H24.8517L21.2642 21.263Z" fill="#00FFFF"/>
<path d="M7.9741 6.09093C8.3235 5.06959 8.97349 4.18311 9.83533 3.55251C10.6972 2.92191 11.7289 2.57793 12.7895 2.56753H28.6323C29.4071 2.56865 30.1716 2.74833 30.8687 3.09316C31.5657 3.43799 32.1774 3.93904 32.6578 4.55886C33.1383 5.17868 33.4751 5.90122 33.6432 6.67249C33.8112 7.44375 33.8062 8.24378 33.6284 9.01276H35.4582C35.6344 7.99735 35.5899 6.95488 35.3278 5.95892C35.0658 4.96296 34.5926 4.03779 33.9416 3.24869C33.2907 2.45959 32.4778 1.8258 31.5605 1.39204C30.6431 0.958277 29.6435 0.73512 28.6323 0.738315H12.8257C11.385 0.736776 9.9797 1.19368 8.80576 2.04533C7.63182 2.89698 6.7477 4.10094 6.27666 5.48937L1.77926 18.4442H3.6934L7.9741 6.09093Z" fill="#00FFFF"/>
<path d="M31.8793 14.0176L27.7405 26.4075C27.3941 27.4308 26.7449 28.3193 25.8824 28.9504C25.0199 29.5814 23.9866 29.924 22.925 29.9309H7.08221C6.30358 29.9311 5.53509 29.7509 4.83472 29.404C4.13436 29.057 3.52043 28.5524 3.03927 27.9281C2.55812 27.3039 2.22232 26.5763 2.05721 25.8003C1.89211 25.0244 1.90202 24.2203 2.08619 23.4488H0.256318C0.0965927 24.3699 0.12089 25.3145 0.327754 26.2258C0.534617 27.1371 0.919788 27.9965 1.46018 28.7523C2.09864 29.6759 2.9466 30.4284 3.93179 30.9457C4.91699 31.463 6.01022 31.7298 7.11832 31.7233H22.8889C24.3296 31.7248 25.7349 31.2679 26.9088 30.4162C28.0827 29.5646 28.9669 28.3606 29.4379 26.9722L33.7934 14.0176H31.8793Z" fill="#00FFFF"/>
</svg>
