<svg width="65" height="68" viewBox="0 0 65 68" fill="none" xmlns="http://www.w3.org/2000/svg">
<path d="M55.0781 55.7574C55.0781 55.7574 54.9893 55.7447 54.9512 55.7066C54.9132 55.6813 54.8878 55.6432 54.8624 55.5925C54.8497 55.5417 54.8371 55.4909 54.8624 55.4402C54.8624 55.3894 54.9005 55.3514 54.9259 55.3133C59.3286 50.8599 62.4752 45.1884 64.0231 38.9333C64.0358 38.8698 64.0738 38.8191 64.1373 38.781C64.188 38.7429 64.2641 38.7429 64.3149 38.7556C64.3403 38.7556 64.3783 38.781 64.4037 38.7937C64.4291 38.8191 64.4545 38.8444 64.4672 38.8698C64.4798 38.8952 64.4925 38.9333 64.4925 38.9713C64.4925 39.0094 64.4925 39.0348 64.4925 39.0728C62.9192 45.4168 59.7219 51.1644 55.2558 55.6813C55.2304 55.7066 55.205 55.732 55.1796 55.7447C55.1543 55.7574 55.1162 55.7701 55.0908 55.7701L55.0781 55.7574Z" fill="#FF0049"/>
<path d="M22.9018 4.68901C29.9943 2.27831 40.1065 2.50669 46.4378 6.54144L48.9119 4.53676C43.6211 0.578137 38.4952 0.235564 33.8641 0.0325584C29.233 -0.170448 24.6781 0.578137 20.453 2.21487L22.8891 4.67632L22.9018 4.68901Z" fill="#FF0049"/>
<path d="M40.5257 64.3353C40.4623 64.3353 40.3988 64.3353 40.3481 64.2845C40.2973 64.2464 40.2593 64.183 40.2593 64.1069C40.2593 64.0434 40.2593 63.9673 40.31 63.9166C40.3481 63.8658 40.4115 63.8277 40.475 63.8151C43.6216 62.965 46.6286 61.6201 49.4072 59.8184L49.2677 56.2531C49.2677 56.2531 49.2677 56.1643 49.293 56.1262C49.3057 56.0881 49.3438 56.0501 49.3692 56.0247C54.622 52.1041 58.5679 46.4961 60.6106 40.0253C60.6106 39.9872 60.636 39.9618 60.6487 39.9365C60.6741 39.9111 60.6995 39.8857 60.7248 39.873C60.7502 39.8603 60.7883 39.8477 60.8136 39.8477C60.839 39.8477 60.8771 39.8477 60.9025 39.8477C60.9405 39.8477 60.9659 39.873 60.9913 39.8984C61.0166 39.9238 61.0293 39.9492 61.0547 39.9872C61.0674 40.0126 61.0801 40.0507 61.0801 40.0887C61.0801 40.1268 61.0801 40.1522 61.0674 40.1902C58.9993 46.7245 55.0407 52.396 49.7498 56.38L49.8894 59.9453C49.8894 59.9453 49.8894 60.0341 49.864 60.0721C49.8513 60.1102 49.8132 60.1483 49.7752 60.1736C46.9331 62.0388 43.8373 63.4471 40.6019 64.3226C40.5765 64.3226 40.5638 64.3226 40.5384 64.3226L40.5257 64.3353Z" fill="#FF0049"/>
<path d="M6.76228 15.7783C6.76228 15.7783 6.85109 15.7783 6.90184 15.7783C6.9526 15.791 6.99066 15.8291 7.01604 15.8671C7.04141 15.9052 7.06679 15.9559 7.06679 16.0067C7.06679 16.0574 7.06679 16.1082 7.04141 16.1463C4.08514 21.6655 2.67678 27.9967 2.9686 34.4422C2.9686 34.5056 2.94323 34.5691 2.90516 34.6198C2.8671 34.6706 2.80366 34.6959 2.74022 34.6959C2.71484 34.6959 2.67678 34.6959 2.6514 34.6833C2.62603 34.6833 2.60065 34.6579 2.57528 34.6325C2.5499 34.6071 2.53721 34.5817 2.52453 34.5437C2.51184 34.5183 2.49915 34.4802 2.49915 34.4422C2.20733 27.9206 3.64106 21.4879 6.6354 15.8925C6.6354 15.8671 6.67346 15.8291 6.68615 15.8164C6.71153 15.791 6.7369 15.7783 6.76228 15.7656V15.7783Z" fill="#FF0049"/>
<path d="M16.0761 5.27239C16.0761 5.27239 16.2029 5.23432 16.2664 5.2597C16.3298 5.28508 16.3806 5.32314 16.4186 5.38658C16.4567 5.45002 16.4567 5.51346 16.444 5.5769C16.4313 5.64034 16.3806 5.69109 16.3298 5.72915C13.7034 7.65771 11.3942 10.005 9.46567 12.6948L10.8867 15.9683C10.8867 15.9683 10.9121 16.0444 10.9121 16.0951C10.9121 16.1332 10.8994 16.1713 10.874 16.2093C7.39754 21.7666 5.76081 28.4278 6.20488 35.2031C6.20488 35.2412 6.20488 35.2665 6.20488 35.3046C6.20488 35.3427 6.17951 35.368 6.15413 35.3934C6.12875 35.4188 6.10338 35.4442 6.078 35.4569C6.05263 35.4695 6.01456 35.4822 5.98919 35.4822C5.95112 35.4822 5.92575 35.4822 5.88768 35.4695C5.86231 35.4695 5.82425 35.4315 5.79887 35.4188C5.77349 35.3934 5.76081 35.368 5.74812 35.33C5.74812 35.2919 5.72274 35.2665 5.72274 35.2285C5.27867 28.3897 6.9154 21.6651 10.3919 16.0444L8.97084 12.7709C8.97084 12.7709 8.94546 12.6821 8.94546 12.644C8.94546 12.5933 8.95815 12.5552 8.98353 12.5172C10.9628 9.73852 13.3355 7.31514 16.0253 5.32314C16.038 5.31045 16.0634 5.29776 16.0761 5.29776V5.27239Z" fill="#FF0049"/>
<path d="M64.5809 24.8756C64.5809 24.8756 64.6316 24.8122 64.6443 24.7868C64.657 24.7487 64.657 24.7107 64.6443 24.6726C63.6927 20.308 62.8934 17.91 60.2416 14.3193C60.2289 14.2939 60.2035 14.2812 60.1782 14.2558C60.1528 14.2432 60.1274 14.2305 60.102 14.2305C60.0767 14.2305 60.0513 14.2305 60.0132 14.2305C59.9878 14.2305 59.9625 14.2558 59.9371 14.2685C59.9117 14.2812 59.899 14.3066 59.8863 14.332C59.8737 14.3573 59.861 14.3827 59.861 14.4081C59.861 14.4335 59.861 14.4589 59.861 14.4969C59.861 14.5223 59.8863 14.5477 59.899 14.573C62.5254 18.113 63.2994 20.4602 64.2256 24.7614C64.2383 24.8122 64.2763 24.8629 64.3144 24.901C64.3652 24.9264 64.4159 24.939 64.4793 24.9263C64.5174 24.9263 64.5428 24.901 64.5682 24.8756H64.5809Z" fill="#00FFFF"/>
<path d="M24.9567 10.7797C24.9567 10.7797 24.8806 10.7289 24.8552 10.6782L23.8148 8.17866C23.8148 8.17866 23.8021 8.11522 23.8021 8.08985C23.8021 8.06447 23.8021 8.02641 23.8275 8.00103C23.8529 7.97566 23.8656 7.93759 23.8783 7.9249C23.9036 7.89953 23.929 7.88684 23.9544 7.87415C29.8289 5.90753 36.0205 5.90753 41.6159 7.89953C42.5548 8.22941 43.4683 8.61005 44.3565 9.04144C44.3819 9.04144 44.4072 9.06681 44.4199 9.09219C44.4326 9.11757 44.4453 9.14294 44.458 9.16832C44.4707 9.19369 44.458 9.21907 44.458 9.25713C44.458 9.28251 44.458 9.32057 44.4326 9.34595C44.4072 9.3967 44.3692 9.44745 44.3057 9.46014C44.255 9.48551 44.1915 9.48551 44.1535 9.46014C43.278 9.02875 42.3772 8.6608 41.451 8.33092C36.0079 6.40236 30.0065 6.3643 24.2843 8.21673L25.1597 10.3229C29.4229 9.01606 33.8382 8.82574 38.0252 9.77733C38.0506 9.77733 38.076 9.80271 38.1014 9.8154C38.1267 9.82809 38.1394 9.85346 38.1521 9.87884C38.1521 9.90421 38.1775 9.94228 38.1775 9.96765C38.1775 9.99303 38.1775 9.84077 38.1648 10.0565C38.1521 10.2722 37.6827 10.158 37.6827 10.158C33.5718 9.26982 29.2325 9.48551 25.0709 10.7924C25.0202 10.8051 24.9821 10.7924 24.9313 10.7924L24.9567 10.7797Z" fill="#00FFFF"/>
<path d="M36.8324 61.67C36.8324 61.67 36.9086 61.7335 36.9212 61.7842L37.5556 64.4106C37.5556 64.4106 37.5556 64.474 37.5556 64.4994C37.5556 64.5248 37.5429 64.5629 37.5176 64.5882C37.4922 64.6136 37.4795 64.639 37.4541 64.6517C37.4288 64.6644 37.3907 64.677 37.3653 64.6897C31.2498 65.7301 25.1469 64.7785 19.9068 61.9491C19.0313 61.4797 18.1939 60.9595 17.3819 60.4012C17.3565 60.3885 17.3438 60.3632 17.3312 60.3378C17.3185 60.3124 17.3058 60.287 17.3058 60.2617C17.3058 60.2363 17.3058 60.1982 17.3058 60.1728C17.3058 60.1475 17.3185 60.1221 17.3438 60.0967C17.3819 60.046 17.4327 60.0079 17.4834 59.9952C17.5342 59.9825 17.5976 59.9952 17.6357 60.0206C18.435 60.5789 19.2724 61.0864 20.1352 61.5431C25.223 64.2837 31.1356 65.248 37.0862 64.2837L36.5533 62.076C32.1379 62.7104 27.7479 62.2156 23.7512 60.6423C23.7259 60.6423 23.7005 60.6169 23.6751 60.5915C23.6497 60.5662 23.637 60.5408 23.637 60.5154C23.637 60.49 23.637 60.452 23.637 60.4266C23.637 60.4012 23.6117 60.5535 23.6624 60.3378C23.7132 60.1221 24.1572 60.3124 24.1572 60.3124C28.0905 61.8223 32.3917 62.279 36.7182 61.6193C36.769 61.6193 36.8071 61.6193 36.8451 61.6446L36.8324 61.67Z" fill="#00FFFF"/>
<path d="M64.3277 27.3753L59.2018 27.959C59.113 27.9717 59.0115 27.959 58.9353 27.9082C58.8592 27.8575 58.8085 27.7813 58.7831 27.6925C58.7831 27.6418 58.7831 27.6037 58.7958 27.5656C58.8085 27.5276 58.8338 27.4768 58.8719 27.4514C58.91 27.4261 58.9353 27.388 58.9861 27.3753C59.0242 27.3626 59.0749 27.3499 59.1256 27.3499L64.2516 26.779C64.3404 26.7663 64.4419 26.779 64.518 26.8297C64.5941 26.8805 64.6449 26.9566 64.6703 27.0454C64.6703 27.0454 64.6703 27.1343 64.6449 27.1723C64.6322 27.2104 64.6068 27.2484 64.5687 27.2865C64.5434 27.3246 64.5053 27.3499 64.4546 27.3626C64.4165 27.3753 64.3657 27.388 64.315 27.388L64.3277 27.3753Z" fill="#00FFFF"/>
<path d="M64.5174 29.2535L59.3661 29.6595C59.2773 29.6595 59.1758 29.6595 59.0997 29.5961C59.0235 29.5327 58.9728 29.4565 58.9601 29.3677C58.9601 29.3677 58.9601 29.2789 58.9855 29.2408C58.9981 29.2028 59.0235 29.1647 59.0616 29.1267C59.0996 29.0886 59.1377 29.0632 59.1758 29.0505C59.2138 29.0378 59.2646 29.0252 59.3153 29.0252L64.4666 28.6191C64.5681 28.6191 64.6569 28.6191 64.7331 28.6826C64.8092 28.746 64.8599 28.8221 64.8726 28.911C64.8726 28.911 64.8726 28.9998 64.8473 29.0378C64.8346 29.0759 64.8092 29.114 64.7711 29.152C64.7331 29.1901 64.695 29.2155 64.6569 29.2282C64.6189 29.2408 64.5681 29.2535 64.5174 29.2535Z" fill="#00FFFF"/>
<path d="M64.6189 31.1442L59.455 31.3725C59.3662 31.3725 59.2647 31.3599 59.1885 31.3091C59.1124 31.2583 59.0616 31.1695 59.0616 31.0807C59.0616 31.0807 59.0616 30.9919 59.0997 30.9538C59.1124 30.9158 59.1505 30.8777 59.1758 30.8396C59.2139 30.8143 59.252 30.7889 59.29 30.7635C59.3408 30.7508 59.3788 30.7381 59.4296 30.7381L64.5936 30.5098C64.6824 30.5098 64.7839 30.5225 64.86 30.5859C64.9361 30.6366 64.9869 30.7255 64.9996 30.8143C64.9996 30.8143 64.9869 30.9031 64.9615 30.9412C64.9488 30.9792 64.9108 31.0173 64.8854 31.0553C64.8473 31.0807 64.8093 31.1061 64.7712 31.1315C64.7204 31.1442 64.6824 31.1568 64.6316 31.1568L64.6189 31.1442Z" fill="#00FFFF"/>
<path d="M64.6326 33.0338L59.4686 33.0972C59.4686 33.0972 59.3798 33.0972 59.3291 33.0846C59.2783 33.0719 59.2403 33.0465 59.2022 33.0211C59.1641 32.9957 59.1388 32.9577 59.1134 32.9196C59.088 32.8816 59.0753 32.8308 59.0753 32.7927C59.0753 32.7039 59.1261 32.6151 59.2022 32.5517C59.2783 32.4882 59.3671 32.4629 59.4686 32.4629L64.6326 32.3994C64.7214 32.3994 64.8229 32.4248 64.8864 32.4755C64.9625 32.539 65.0006 32.6151 65.0006 32.7039C65.0006 32.7927 64.9498 32.8816 64.8737 32.945C64.7975 33.0084 64.7087 33.0338 64.6072 33.0338H64.6326Z" fill="#00FFFF"/>
<path d="M64.5434 34.9246L59.3921 34.8231C59.3921 34.8231 59.3033 34.8231 59.2526 34.7977C59.2145 34.785 59.1637 34.7597 59.1384 34.7216C59.1003 34.6962 59.0749 34.6582 59.0622 34.6074C59.0496 34.5693 59.0369 34.5186 59.0369 34.4805C59.0369 34.3917 59.1003 34.3029 59.1764 34.2522C59.2526 34.1887 59.3414 34.1633 59.4429 34.176L64.5942 34.2775C64.5942 34.2775 64.683 34.2775 64.7337 34.3029C64.7718 34.3156 64.8225 34.341 64.8479 34.379C64.886 34.4044 64.9114 34.4425 64.924 34.4932C64.9367 34.5313 64.9494 34.582 64.9494 34.6201C64.9367 34.7089 64.886 34.7977 64.8099 34.8485C64.7337 34.9119 64.6449 34.9373 64.5434 34.9246Z" fill="#00FFFF"/>
<path d="M64.3784 36.8022L59.2398 36.5231C59.2398 36.5231 59.151 36.5231 59.1002 36.4977C59.0622 36.485 59.0241 36.4596 58.986 36.4216C58.948 36.3835 58.9353 36.3454 58.9099 36.3074C58.8972 36.2693 58.8845 36.2185 58.8845 36.1805C58.8972 36.0917 58.9606 36.0029 59.0368 35.9521C59.1129 35.9014 59.2144 35.876 59.3032 35.876L64.4418 36.1551C64.4418 36.1551 64.5306 36.1551 64.5814 36.1805C64.6194 36.1932 64.6702 36.2185 64.6956 36.2566C64.7336 36.2947 64.759 36.3327 64.7717 36.3708C64.7844 36.4089 64.7971 36.4596 64.7971 36.4977C64.7844 36.5865 64.7336 36.6753 64.6575 36.7261C64.5814 36.7768 64.4799 36.8022 64.3911 36.8022H64.3784Z" fill="#00FFFF"/>
<path d="M45.2012 24.1026L43.2812 22.1826L40.7781 24.6857L42.6981 26.6057L45.2012 24.1026Z" fill="#FF0049"/>
<path d="M43.5334 27.3316L40.0524 23.8506L37.5493 26.3537L41.0303 29.8347L43.5334 27.3316Z" fill="#FF0049"/>
<path d="M38.1908 25.4586L37.7848 29.4806L42.1875 29.2776L42.695 28.1992L39.7133 27.5901L39.1043 24.7734L38.1908 25.4586Z" fill="#0D1238"/>
<path d="M32.9631 32.3613L0 62.5838L4.64376 67.4306L35.0185 34.4168L36.706 30.6865L32.9631 32.3613Z" fill="#00FFFF"/>
<path d="M32.7853 37.411L32.8234 34.6577L29.8798 34.6958L31.9733 32.5135L35.0945 32.1836L34.5489 35.6981L32.7853 37.411Z" fill="#0D1238"/>
<path d="M32.2146 33.0965C30.819 33.0965 29.4614 32.5509 28.3702 31.4471C26.0229 29.0871 26.8984 25.8263 27.7866 24.418C27.5455 23.4156 27.1141 20.2437 30.1846 17.1732C33.2931 14.0647 36.6427 14.7244 37.6704 15.0289C38.5966 14.4834 41.794 12.7959 44.9533 13.5698C49.4955 14.6864 50.9927 14.5341 51.9316 14.2042L52.3503 15.3842C51.0561 15.841 49.2545 15.9171 44.6614 14.7879C41.5148 14.0139 38.1399 16.2089 38.1018 16.2343L37.8354 16.4119L37.5309 16.285C37.3913 16.2343 34.1305 15.0036 31.0854 18.0486C28.0276 21.1064 29.03 24.1896 29.068 24.3165L29.1695 24.6337L28.9792 24.9001C28.3702 25.7248 27.2917 28.5796 29.271 30.5716C31.3392 32.6397 34.0797 31.8784 35.7545 30.3051C36.7696 29.3409 37.3405 28.2497 37.3532 27.2347C37.3532 26.3719 36.998 25.5599 36.2494 24.8113C34.7268 23.2761 33.1155 24.7605 32.9378 24.9255L32.0624 24.0373C32.9632 23.1492 35.1836 21.9819 37.1375 23.9231C38.1145 24.9001 38.622 26.042 38.5966 27.2347C38.5713 28.6177 37.8861 29.9879 36.6046 31.206C35.2724 32.4621 33.7245 33.0965 32.2273 33.0965H32.2146Z" fill="#FF0049"/>
<path d="M39.6113 40.5192C38.3679 40.5192 37.0356 40.1386 35.9191 39.0094C33.6353 36.7256 33.7368 33.3379 36.1602 30.7749C37.3782 29.4935 38.7485 28.8083 40.1315 28.783C41.3368 28.7703 42.4787 29.2778 43.4557 30.2421C45.4096 32.196 44.2423 34.4164 43.3415 35.3172L42.4534 34.4417C42.631 34.2641 44.1028 32.6654 42.5675 31.1302C41.8316 30.3943 41.045 30.0264 40.1949 30.0264H40.1568C39.1418 30.0391 38.038 30.61 37.0864 31.625C35.5004 33.2998 34.7391 36.0404 36.8199 38.1085C38.9008 40.1767 41.6667 39.0221 42.4914 38.4004L42.7579 38.1974L43.0751 38.3115C43.2019 38.3496 46.2851 39.352 49.3429 36.2942C52.388 33.2491 51.1572 29.9756 51.1065 29.836L50.9923 29.5315L51.1699 29.2651C51.1699 29.2651 53.3903 25.8394 52.6163 22.7055C51.4871 18.1124 51.5633 16.3108 52.02 15.0166L53.2 15.4353C52.8701 16.3742 52.7178 17.8714 53.8344 22.4136C54.6083 25.5729 52.9335 28.7576 52.3753 29.6965C52.6798 30.7242 53.3269 34.0738 50.231 37.1823C47.1606 40.2528 43.9886 39.8214 42.9862 39.5803C42.2504 40.0371 41.0069 40.5065 39.6493 40.5065L39.6113 40.5192Z" fill="#FF0049"/>
<path d="M58.2347 10.2243C58.532 9.92698 58.532 9.44497 58.2347 9.14767C57.9374 8.85038 57.4554 8.85038 57.1581 9.14768L52.9145 13.3913C52.6172 13.6886 52.6172 14.1706 52.9145 14.4679C53.2118 14.7652 53.6938 14.7652 53.9911 14.4679L58.2347 10.2243Z" fill="#FF0049"/>
<path d="M54.3336 14.1091L53.2928 13.0684L46.1962 20.165L47.237 21.2057L54.3336 14.1091Z" fill="#FF0049"/>
<path d="M54.5074 15.1439L52.2743 12.9109L53.6192 12.4668L54.9514 13.7863L54.5074 15.1439Z" fill="#FF0049"/>
<path d="M37.391 15.8538C38.1828 15.8538 38.8247 15.2119 38.8247 14.4201C38.8247 13.6282 38.1828 12.9863 37.391 12.9863C36.5992 12.9863 35.9573 13.6282 35.9573 14.4201C35.9573 15.2119 36.5992 15.8538 37.391 15.8538Z" fill="#FF0049"/>
<path d="M53.0353 31.4983C53.8271 31.4983 54.469 30.8564 54.469 30.0646C54.469 29.2728 53.8271 28.6309 53.0353 28.6309C52.2435 28.6309 51.6016 29.2728 51.6016 30.0646C51.6016 30.8564 52.2435 31.4983 53.0353 31.4983Z" fill="#FF0049"/>
<path d="M42.9866 39.1487C43.7784 39.1487 44.4203 38.5068 44.4203 37.715C44.4203 36.9232 43.7784 36.2812 42.9866 36.2812C42.1948 36.2812 41.5529 36.9232 41.5529 37.715C41.5529 38.5068 42.1948 39.1487 42.9866 39.1487Z" fill="#FF0049"/>
<path d="M29.5119 25.9534C30.3037 25.9534 30.9456 25.3115 30.9456 24.5197C30.9456 23.7278 30.3037 23.0859 29.5119 23.0859C28.72 23.0859 28.0781 23.7278 28.0781 24.5197C28.0781 25.3115 28.72 25.9534 29.5119 25.9534Z" fill="#FF0049"/>
<path d="M38.8214 31.4096L35.9684 28.5566L34.5598 29.9652L37.4128 32.8182L38.8214 31.4096Z" fill="#00FFFF"/>
<path d="M45.6642 24.6466L42.746 21.7157L45.8418 19.8125L47.5674 21.5507L45.6642 24.6466Z" fill="#00FFFF"/>
<path d="M55.8773 12.9485C56.6902 12.9485 57.3491 12.2895 57.3491 11.4767C57.3491 10.6638 56.6902 10.0049 55.8773 10.0049C55.0645 10.0049 54.4055 10.6638 54.4055 11.4767C54.4055 12.2895 55.0645 12.9485 55.8773 12.9485Z" fill="#00FFFF"/>
<path d="M45.8412 19.813L47.5667 21.5513L48.3788 20.6504L46.6151 19.0645L45.8412 19.813Z" fill="#0D1238"/>
<path d="M42.238 22.6676L44.636 24.9895L45.2958 24.2663L43.0374 22.0078L42.238 22.6676Z" fill="#0D1238"/>
<path d="M50.5359 14.3443L53.01 16.8312L53.5937 15.943L51.3225 13.6846L50.5359 14.3443Z" fill="#0D1238"/>
<path d="M36.2869 28.859L38.558 31.1555L39.3446 30.4577L37.0735 28.1992L36.2869 28.859Z" fill="#0D1238"/>
<path d="M34.1941 31.0543L36.4652 33.3508L37.2519 32.653L34.9807 30.3818L34.1941 31.0543Z" fill="#0D1238"/>
<path d="M40.056 23.8599L43.5071 27.3491L44.3065 26.4355L40.83 23.0732L40.056 23.8599Z" fill="#0D1238"/>
<path d="M5.97576 47.7774C5.97576 47.7774 6.06458 47.8662 6.12802 47.8789C6.19145 47.8789 6.25489 47.8789 6.31833 47.8282C6.36909 47.7901 6.41984 47.7267 6.43252 47.6632C6.44521 47.5998 6.43252 47.5364 6.39446 47.4729C4.93536 44.5674 3.93301 41.4208 3.4255 38.16L6.17877 35.8889C6.17877 35.8889 6.24221 35.8254 6.25489 35.7874C6.26758 35.7493 6.28027 35.7113 6.28027 35.6605C5.69663 29.1262 7.25724 22.4524 10.721 16.616C10.7464 16.5906 10.7591 16.5526 10.7591 16.5272C10.7591 16.4891 10.7591 16.4637 10.7591 16.4257C10.7591 16.3876 10.7337 16.3622 10.721 16.3369C10.7083 16.3115 10.683 16.2861 10.6449 16.2734C10.6195 16.2607 10.5815 16.248 10.5561 16.248C10.518 16.248 10.4926 16.248 10.4546 16.248C10.4292 16.248 10.3911 16.2734 10.3658 16.2988C10.3404 16.3242 10.315 16.3495 10.3023 16.3749C6.80047 22.2748 5.21449 28.9994 5.77276 35.5971L3.01949 37.8682C3.01949 37.8682 2.95605 37.9316 2.94336 37.9697C2.93067 38.0078 2.91798 38.0585 2.93067 38.0966C3.43819 41.4589 4.45322 44.707 5.95039 47.7013C5.95039 47.7267 5.97576 47.7394 5.98845 47.7521L5.97576 47.7774Z" fill="#FF0049"/>
<path d="M12.9288 35.394C12.9288 35.394 12.8527 35.4574 12.802 35.4574L10.1121 35.7873C10.1121 35.7873 10.0487 35.7873 10.0233 35.7873C9.99793 35.7873 9.95987 35.762 9.93449 35.7366C9.90912 35.7112 9.88374 35.6858 9.87105 35.6604C9.85836 35.6351 9.84568 35.597 9.84568 35.5716C9.51579 29.38 11.1779 23.4293 14.5909 18.5572C15.1619 17.7452 15.7709 16.9712 16.4307 16.2226C16.4434 16.1972 16.4687 16.1846 16.4941 16.1719C16.5195 16.1719 16.5449 16.1592 16.5703 16.1592C16.5956 16.1592 16.621 16.1592 16.6591 16.1719C16.6844 16.1719 16.7098 16.1972 16.7352 16.2226C16.7859 16.2607 16.8113 16.3114 16.8113 16.3749C16.8113 16.4256 16.8113 16.4891 16.7733 16.5271C16.1262 17.263 15.5298 18.0243 14.9716 18.8236C11.6474 23.5562 10.0106 29.3165 10.2771 35.3306L12.5355 35.0514C12.4086 30.598 13.411 26.2841 15.4537 22.5031C15.4664 22.4777 15.4918 22.4524 15.5045 22.4397C15.5298 22.427 15.5552 22.4143 15.5806 22.4016C15.606 22.4016 15.644 22.4016 15.6694 22.4016C15.6948 22.4016 15.7329 22.427 15.7582 22.4397L19.222 24.9392C19.222 24.9392 19.3108 25.028 19.3108 25.0788C19.3108 25.1295 19.3108 25.1929 19.2855 25.231C19.2601 25.2818 19.2093 25.3071 19.1459 25.3071C19.0951 25.3071 19.0317 25.3071 18.9809 25.2691L15.7075 22.9218C13.7409 26.6521 12.802 30.8771 12.9415 35.2418C12.9415 35.2925 12.9288 35.3306 12.9035 35.3686L12.9288 35.394Z" fill="#FF005C"/>
<path d="M53.3658 38.6159C53.3658 38.6159 53.4546 38.5778 53.5054 38.5905L56.1444 39.2122C56.1444 39.2122 56.2079 39.2376 56.2333 39.2503C56.2586 39.2756 56.284 39.301 56.2967 39.3264C56.3094 39.3518 56.3221 39.3898 56.3221 39.4152C56.3221 39.4533 56.3221 39.4786 56.3221 39.504C54.4696 45.4292 50.8536 50.4283 45.9561 53.8032C45.144 54.3615 44.294 54.8817 43.4185 55.3512C43.3931 55.3639 43.3677 55.3765 43.3424 55.3765C43.317 55.3765 43.2916 55.3765 43.2662 55.3765C43.2409 55.3765 43.2155 55.3512 43.1901 55.3385C43.1647 55.3131 43.1521 55.3004 43.1394 55.275C43.114 55.2243 43.1013 55.1609 43.114 55.1101C43.1267 55.0593 43.1647 55.0086 43.2028 54.9832C44.0656 54.5265 44.8903 54.0063 45.6896 53.448C50.4476 50.1618 53.9875 45.3277 55.8399 39.5928L53.6195 39.0599C52.1858 43.2723 49.7497 46.9645 46.527 49.8066C46.5016 49.8193 46.4763 49.8446 46.4509 49.8446C46.4255 49.8446 46.3875 49.8446 46.3621 49.8446C46.3367 49.8446 46.2986 49.8319 46.2733 49.8066C46.2479 49.7939 46.2225 49.7685 46.2098 49.7431L43.8245 46.1905C43.8245 46.1905 43.7738 46.0763 43.7864 46.0256C43.7864 45.9621 43.8245 45.9241 43.8626 45.886C43.9133 45.8606 43.9641 45.8479 44.0148 45.8606C44.0656 45.8733 44.1163 45.9114 44.1544 45.9621L46.4001 49.299C49.5341 46.4823 51.894 42.8536 53.2643 38.7047C53.277 38.6539 53.315 38.6159 53.3531 38.6032L53.3658 38.6159Z" fill="#FF005C"/>
<path d="M20.1742 57.6988L33.2935 41.9658C33.2935 41.9658 37.9245 44.9348 42.8094 43.7421" stroke="#00FFFF" stroke-width="0.3" stroke-linecap="round" stroke-linejoin="round"/>
<path d="M22.661 54.6027L25.427 56.0999L32.8874 46.5459L34.6764 46.8377L36.0467 56.747" stroke="#00FFFF" stroke-width="0.3" stroke-linecap="round" stroke-linejoin="round"/>
<path d="M26.1365 50.5176L28.5472 52.0528" stroke="#00FFFF" stroke-width="0.3" stroke-linecap="round" stroke-linejoin="round"/>
<path d="M26.9109 49.6045L29.3089 51.127" stroke="#00FFFF" stroke-width="0.3" stroke-linecap="round" stroke-linejoin="round"/>
<path d="M27.6718 48.6777L30.0698 50.213" stroke="#00FFFF" stroke-width="0.3" stroke-linecap="round" stroke-linejoin="round"/>
<path d="M9.83313 38.8195L21.2142 37.5761L25.693 34.0361C25.693 34.0361 22.7748 30.1536 23.333 25.7129" stroke="#00FFFF" stroke-width="0.3" stroke-linecap="round" stroke-linejoin="round"/>
<path d="M6.43311 47.6626L13.6779 42.5874C13.6779 42.5874 12.8405 40.8492 12.9801 38.4258" stroke="#00FFFF" stroke-width="0.3" stroke-linecap="round" stroke-linejoin="round"/>
<path d="M15.7198 38.0578V33.3506" stroke="#00FFFF" stroke-width="0.3" stroke-linecap="round" stroke-linejoin="round"/>
<path d="M17.0531 38.0578V33.3506H19.5145" stroke="#00FFFF" stroke-width="0.3" stroke-linecap="round" stroke-linejoin="round"/>
</svg>
