<svg width="142" height="51" viewBox="0 0 142 51" fill="none" xmlns="http://www.w3.org/2000/svg">
<path d="M59.51 49.6895H0" stroke="white" stroke-width="1.2" stroke-miterlimit="10"/>
<path d="M141.5 35.0703V37.7954L129.29 50.2203H67V47.7052L79.4692 35.0703H141.5Z" stroke="#FF0049"/>
<path d="M77.17 32.12L77.75 31.54H78.57H142V0H20.15L0 20.08V44.97H48.05L50.5 45H64.09L77.17 32.12Z" fill="#FF0049"/>
<path d="M43.603 11.1H51.542C52.222 11.1 52.5393 11.627 52.494 12.681L51.78 15.979H48.703L49.162 13.82H45.966L44.572 20.416H49.06L46.17 23.136H42.209C41.563 23.136 41.2797 22.66 41.359 21.708L43.603 11.1ZM55.9641 11.117H59.0071L57.0011 20.518H60.4181L62.8491 23.017H53.4311L55.9641 11.117ZM68.7585 11.117H76.9015C77.5588 11.3097 77.7855 11.8027 77.5815 12.596L75.3715 23H72.3795L73.5355 17.543L70.0505 19.141L68.8775 24.666L66.2425 22.966L67.3475 17.747L74.1985 14.432L74.3685 13.599H71.2235L70.7985 15.571L67.4665 17.203L68.7585 11.117ZM81.2046 11.1H93.0536C93.7903 11.2927 94.0736 11.7857 93.9036 12.579L92.2036 20.586L88.4126 22.643L90.3506 13.565H88.9396L87.4606 20.45L83.4826 22.779L85.4546 13.565H84.0436L82.1566 22.371L78.3486 24.564L81.2046 11.1ZM97.4963 11.1H104.143L106.064 13.82H99.9443L99.6723 15.095H101.916L103.667 17.798H99.0943L98.5503 20.348H102.052L103.973 23H94.9633L97.4963 11.1Z" fill="#0D1238"/>
</svg>
