<svg width="61" height="66" viewBox="0 0 61 66" fill="none"
    xmlns="http://www.w3.org/2000/svg">
    <path d="M25.3998 21.2931L22.3126 21.2931L18.4441 18.0223L10.2031 24.99L22.4638 25.0539L22.4638 65.0913L28.1342 60.297L25.3998 57.9852L25.3998 21.2931Z" fill="#FF0049"/>
    <path d="M25.5824 21.1828L25.5825 57.4875L28.1341 59.4875L28.1341 10.1772L18.0478 18.0832L22.0022 21.1723L25.5824 21.1723L25.5824 21.1828Z" fill="#FF0049"/>
    <path d="M33.7378 4.8191L36.3695 7.00445L36.3695 41.9174L42.6529 47.1602L51.6688 39.6375L39.4168 39.5745L39.4168 0.0911901L33.7504 4.8191L33.7378 4.8191Z" fill="#FF0049"/>
    <path d="M35.7981 7.60035L33.7378 5.69454L33.7378 55.0049L41.5826 47.7481L35.7981 42.3972L35.7981 7.60035Z" fill="#FF0049"/>
    <path d="M19.1691 45.6091L19.1691 65.0079C19.1691 65.0079 19.1691 65.0287 19.1691 65.0392C19.1691 65.0392 19.1691 65.06 19.1466 65.0704C19.1466 65.0704 19.1241 65.0809 19.1128 65.0913C19.1128 65.0913 19.0903 65.0913 19.079 65.0913C19.0677 65.0913 19.0565 65.0913 19.0452 65.0913C19.034 65.0913 19.0227 65.0913 19.0114 65.0704C19.0114 65.0704 19.0002 65.0496 18.9889 65.0392C18.9889 65.0392 18.9889 65.0183 18.9889 65.0079L18.9889 45.6509L16.9503 43.7736C16.9503 43.7736 16.9277 43.7423 16.9277 43.711L16.9277 28.192C16.9277 28.192 16.9277 28.1503 16.9503 28.1294C16.9615 28.119 16.9953 28.1086 17.0178 28.1086C17.0404 28.1086 17.0629 28.1086 17.0854 28.1294C17.1079 28.1503 17.1079 28.1711 17.1079 28.192L17.1079 43.6797L19.1353 45.557C19.1353 45.557 19.1579 45.5987 19.1579 45.6196L19.1691 45.6091Z" fill="white"/>
    <path d="M31.4963 5.79108L31.4963 25.0027C31.4963 25.0027 31.4963 25.0455 31.4792 25.0562L30.5077 26.2749L30.5077 55.7605C30.5077 55.7605 30.5077 55.7819 30.5077 55.7926C30.5077 55.8033 30.5077 55.814 30.4906 55.8247L29.3742 57.2252C29.3742 57.2252 29.3401 57.2466 29.3231 57.2466C29.306 57.2466 29.289 57.2466 29.2719 57.2252C29.2549 57.2145 29.2549 57.1824 29.2549 57.1611C29.2549 57.1397 29.2549 57.1183 29.2719 57.0969L30.3628 55.7178L30.3628 26.2429C30.3628 26.2429 30.3628 26.2215 30.3628 26.2108C30.3628 26.2108 30.3713 26.1894 30.3798 26.1787L31.3514 24.9599L31.3514 5.78039C31.3514 5.78039 31.3514 5.75901 31.3514 5.74832C31.3514 5.73763 31.3514 5.72694 31.3684 5.71625C31.3684 5.71625 31.3855 5.69486 31.394 5.69486C31.4025 5.69486 31.411 5.69486 31.4196 5.69486C31.4281 5.69486 31.4366 5.69486 31.4451 5.69486C31.4536 5.69486 31.4622 5.70555 31.4707 5.71625C31.4707 5.71625 31.4792 5.73763 31.4877 5.74832C31.4963 5.75901 31.4877 5.7697 31.4877 5.78039L31.4963 5.79108Z" fill="white"/>
    <path d="M48.3067 39.2262C48.3067 39.2262 48.3067 39.2708 48.2826 39.2931C48.2584 39.3043 48.2342 39.3154 48.21 39.3154L42.4805 39.3154C42.4805 39.3154 42.4322 39.3154 42.408 39.2931L40.4861 37.5201C40.4861 37.5201 40.4619 37.4755 40.4619 37.4532L40.4619 23.715C40.4619 23.715 40.4619 23.6704 40.4861 23.6481C40.5103 23.6369 40.5344 23.6258 40.5586 23.6258C40.5828 23.6258 40.607 23.6258 40.6311 23.6481C40.6553 23.6704 40.6553 23.6927 40.6553 23.715L40.6553 37.4197L42.5168 39.137L48.21 39.137C48.21 39.137 48.2584 39.137 48.2826 39.1593C48.2947 39.1816 48.3067 39.2039 48.3067 39.2262Z" fill="white"/>
    <path d="M41.5826 11.7988L41.5826 25.783C41.5826 25.783 41.5826 25.804 41.5826 25.8145C41.5826 25.825 41.5826 25.8355 41.566 25.846C41.566 25.846 41.5494 25.8669 41.5411 25.8669C41.5328 25.8669 41.5245 25.8669 41.5162 25.8669C41.5079 25.8669 41.4996 25.8669 41.4913 25.8669C41.483 25.8669 41.4747 25.8565 41.4664 25.846C41.4664 25.846 41.4581 25.825 41.4498 25.8145C41.4415 25.804 41.4498 25.7935 41.4498 25.783L41.4498 11.8303L40.4785 10.6028C40.4785 10.6028 40.4619 10.5609 40.4619 10.5399L40.4619 0.175007C40.4619 0.175007 40.4619 0.133043 40.4785 0.112061C40.4868 0.10157 40.5117 0.0910835 40.5283 0.0910835C40.5449 0.0910835 40.5615 0.0910797 40.5781 0.112061C40.5947 0.133043 40.5947 0.154026 40.5947 0.175007L40.5947 10.4979L41.566 11.7254C41.566 11.7254 41.5826 11.7673 41.5826 11.7883L41.5826 11.7988Z" fill="white"/>
    <path d="M55.7666 30.3437C55.7666 30.3437 55.8785 30.3561 55.9157 30.3934L60.7007 35.1908C60.7007 35.1908 60.738 35.2405 60.7504 35.2654C60.7504 35.2902 60.7629 35.3275 60.7629 35.3524C60.3279 41.6909 57.9789 47.7561 54.0266 52.7275C50.0743 57.6989 44.6928 61.328 38.6152 63.1426C38.5779 63.1426 38.5531 63.1426 38.5158 63.1426C38.4785 63.1426 38.4537 63.1177 38.4288 63.1053C38.4039 63.0804 38.3791 63.0556 38.3667 63.0307C38.3542 63.0059 38.3418 62.9686 38.3418 62.9313L38.3418 59.1654C38.3418 59.1654 38.3667 59.0536 38.4039 59.0163C38.4412 58.979 38.5034 58.9542 38.5531 58.9542C38.6028 58.9542 38.6649 58.979 38.7022 59.0163C38.7395 59.0536 38.7644 59.1157 38.7644 59.1654L38.7644 62.6454C50.8076 58.9293 59.4454 48.0295 60.3279 35.4145L55.6174 30.6917C55.6174 30.6917 55.5677 30.6295 55.5553 30.5798C55.5553 30.5425 55.5553 30.4928 55.5553 30.4555C55.5677 30.4183 55.5926 30.381 55.6299 30.3561C55.6672 30.3313 55.7045 30.3188 55.7417 30.3188L55.7666 30.3437Z" fill="#00FFFF"/>
    <path d="M53.2559 21.6815L53.2559 12.5839L55.5303 14.8707L55.5303 28.7285C55.1077 26.2801 54.3371 23.9062 53.2559 21.6815Z" fill="#00FFFF"/>
    <path d="M53.2438 12.3725C53.2438 12.3725 53.3059 12.3725 53.3308 12.3849C53.3556 12.3849 53.3805 12.4098 53.4053 12.4347L55.6798 14.7215C55.6798 14.7215 55.7419 14.8209 55.7419 14.8706L55.7419 28.7285C55.7419 28.7285 55.7419 28.7906 55.7419 28.8155C55.7419 28.8403 55.7171 28.8652 55.7046 28.89C55.6922 28.9149 55.6673 28.9273 55.6425 28.9397C55.6176 28.9522 55.5928 28.9646 55.5679 28.9646C55.5431 28.9646 55.5058 28.9646 55.4809 28.9646C55.4561 28.9646 55.4312 28.9397 55.4063 28.9273C55.3815 28.9149 55.3691 28.89 55.3566 28.8652C55.3442 28.8403 55.3318 28.8155 55.3318 28.7906C54.9092 26.367 54.1511 24.018 53.0698 21.8058C53.0574 21.7809 53.0449 21.7436 53.0449 21.7063L53.0449 12.6087C53.0449 12.6087 53.0698 12.4968 53.1071 12.4595C53.1444 12.4222 53.2065 12.3974 53.2562 12.3974L53.2438 12.3725ZM53.4551 21.6318C54.2505 23.2599 54.8719 24.9502 55.3069 26.7026L55.3069 14.9576L53.4551 13.0934L53.4551 21.6318Z" fill="#00FFFF"/>
    <path d="M55.6666 28.5662C55.6666 28.5662 55.7288 28.6408 55.7412 28.6905C56.0022 30.1944 56.1265 31.7107 56.1265 33.2394C56.1389 36.7939 55.4305 40.3112 54.0509 43.5799C52.6713 46.8486 50.6331 49.8066 48.0728 52.2674C48.0479 52.2923 48.0231 52.3047 47.9982 52.3172C47.9734 52.3172 47.9485 52.3296 47.9112 52.3296C47.8739 52.3296 47.8491 52.3296 47.8242 52.3172C47.7994 52.3172 47.7745 52.2923 47.7496 52.2674C47.7248 52.2426 47.7124 52.2177 47.6999 52.1929C47.6999 52.168 47.6875 52.1432 47.6875 52.1059C47.6875 52.081 47.6875 52.0437 47.7124 52.0189C47.7124 51.994 47.7372 51.9692 47.7621 51.9567C50.2851 49.5332 52.2861 46.6373 53.6408 43.4183C55.0079 40.1993 55.7039 36.7318 55.6915 33.2394C55.6915 31.7355 55.5672 30.2441 55.3062 28.7651C55.3062 28.7154 55.3062 28.6532 55.3435 28.6035C55.3808 28.5538 55.4305 28.529 55.4802 28.5165L55.5175 28.5165C55.5175 28.5165 55.6169 28.5414 55.6542 28.5662L55.6666 28.5662Z" fill="#00FFFF"/>
    <path d="M46.7062 5.74747C46.7062 5.74747 46.7559 5.77233 46.7808 5.79718L55.6796 14.7209C55.6796 14.7209 55.7418 14.8203 55.7418 14.87C55.7418 14.9197 55.7169 14.9819 55.6796 15.0192C55.6548 15.044 55.6423 15.0564 55.605 15.0689C55.5802 15.0689 55.5553 15.0813 55.5181 15.0813C55.4808 15.0813 55.4683 15.0813 55.4311 15.0689C55.4062 15.0689 55.3813 15.044 55.3565 15.0192L46.4576 6.09547C46.4576 6.09547 46.3955 5.99604 46.3955 5.94633C46.3955 5.89661 46.4204 5.83447 46.4576 5.79718C46.4825 5.77233 46.4949 5.7599 46.5322 5.74747C46.5571 5.74747 46.5819 5.73504 46.6192 5.73504C46.6441 5.73504 46.6689 5.73504 46.7062 5.74747Z" fill="#00FFFF"/>
    <path d="M57.0339 18.7356C57.0339 18.7356 57.1085 18.7356 57.1458 18.7604C57.1831 18.7853 57.2079 18.8102 57.2204 18.8474C59.2462 22.7251 60.4269 26.9881 60.6879 31.363C60.6879 31.3878 60.6879 31.4251 60.6879 31.45C60.6879 31.4748 60.6631 31.4997 60.6507 31.5245C60.6382 31.5494 60.6134 31.5618 60.5885 31.5743C60.5636 31.5743 60.5388 31.5991 60.5139 31.5991C60.4891 31.5991 60.4518 31.5991 60.4269 31.5991C60.4021 31.5991 60.3772 31.5743 60.3524 31.5618C60.3275 31.5494 60.3151 31.5245 60.3027 31.4997C60.3027 31.4748 60.2778 31.45 60.2778 31.4251C60.0292 27.1124 58.8609 22.9116 56.8599 19.0836C56.8351 19.0339 56.8351 18.9717 56.8475 18.922C56.8599 18.8723 56.8972 18.8226 56.9469 18.7977C56.9718 18.7853 57.0091 18.7729 57.0464 18.7729L57.0339 18.7356Z" fill="#FF0049"/>
    <path d="M8.41455 11.1044C8.41455 11.1044 8.42698 11.1914 8.46426 11.2287C8.48912 11.266 8.52641 11.2908 8.57612 11.3033C8.62584 11.3157 8.67555 11.3281 8.71284 11.3033C8.76255 11.3033 8.79984 11.266 8.83712 11.2411C13.0752 7.06515 18.4568 4.06987 24.3976 2.59087C24.4598 2.57844 24.5095 2.54116 24.5468 2.47901C24.5841 2.4293 24.5841 2.36716 24.5716 2.30502C24.5716 2.28016 24.5468 2.24288 24.5344 2.23045C24.5095 2.20559 24.4971 2.19316 24.4598 2.1683C24.4349 2.15587 24.3976 2.14345 24.3728 2.14345C24.3355 2.14345 24.3106 2.14345 24.2734 2.14345C18.2455 3.63487 12.7894 6.67986 8.50155 10.918C8.47669 10.9428 8.46426 10.9677 8.43941 10.9926C8.42698 11.0174 8.41455 11.0547 8.41455 11.0796L8.41455 11.1044Z" fill="#00FFFF"/>
    <path d="M1.25586 44.637C2.971 48.5768 5.51885 52.1563 8.75026 55.1391C10.975 57.2022 13.4855 58.9422 16.2198 60.3342L16.2198 57.0282C11.149 54.0702 7.05998 49.7824 4.56185 44.6246L1.25586 44.6246L1.25586 44.637Z" fill="#00FFFF"/>
    <path d="M0.260742 24.938C0.260742 24.938 0.260742 25.0623 0.310456 25.112C0.347742 25.1617 0.409885 25.1865 0.472027 25.199C0.53417 25.199 0.596313 25.199 0.646027 25.1493C0.695741 25.112 0.733026 25.0623 0.733026 25.0001C1.54088 22.0173 2.82102 19.1463 4.52373 16.5239L7.91672 16.6606C7.91672 16.6606 8.00372 16.6606 8.02857 16.6357C8.06586 16.6233 8.09072 16.5984 8.11557 16.5611C11.8317 11.5649 17.1635 7.82389 23.3281 5.87261C23.3654 5.87261 23.3902 5.84775 23.4151 5.83532C23.44 5.81046 23.4648 5.79804 23.4772 5.76075C23.4897 5.73589 23.5021 5.69861 23.5021 5.67375C23.5021 5.64889 23.5021 5.6116 23.5021 5.58675C23.5021 5.56189 23.4772 5.52461 23.4524 5.51218C23.4275 5.48732 23.4027 5.47489 23.3778 5.46246C23.353 5.46246 23.3157 5.43761 23.2784 5.43761C23.2411 5.43761 23.2162 5.43761 23.179 5.45004C16.9647 7.41375 11.5831 11.1796 7.80486 16.2007L4.41187 16.0764C4.41187 16.0764 4.32487 16.0764 4.28759 16.1013C4.2503 16.1137 4.21301 16.151 4.20059 16.1759C2.42331 18.8853 1.09345 21.8184 0.260742 24.9007C0.260742 24.9255 0.260742 24.938 0.260742 24.9628L0.260742 24.938Z" fill="#00FFFF"/>
    <path d="M1.42946 37.6523L3.02031 39.1313L1.60346 40.5605L0.0996093 39.0194L0.0996089 30.1952L1.45432 31.4007L1.42946 37.6523Z" fill="#00FFFF"/>
    <path d="M1.78963 31.264L0.223632 29.872L1.62806 28.4427L3.14434 29.9838L3.14434 38.8081L1.75234 37.528L1.78963 31.2764L1.78963 31.264Z" fill="#00FFFF"/>
    <path d="M44.9043 8.383L50.6214 13.6403L50.6214 19.345" stroke="#FF005C" stroke-width="0.3"/>
</svg>
