<svg width="72" height="73" viewBox="0 0 72 73" fill="none" xmlns="http://www.w3.org/2000/svg">
<g filter="url(#filter0_f_898_14902)">
<path d="M40.8856 47.7982L43.9728 47.7982L47.8413 51.069L56.0823 44.1013L43.8216 44.0374L43.8216 4L38.1512 8.79426L40.8856 11.1062L40.8856 47.7982Z" fill="#00FFFF"/>
<path d="M40.7027 47.9083L40.7027 11.6036L38.1511 9.60352L38.1511 58.9139L48.2373 51.0079L44.283 47.9188L40.7027 47.9188L40.7027 47.9083Z" fill="#00FFFF"/>
<path d="M32.5479 64.2717L29.9161 62.0864L29.9161 27.1734L23.6327 21.9307L14.6168 29.4533L26.8688 29.5163L26.8688 68.9996L32.5353 64.2717L32.5479 64.2717Z" fill="#00FFFF"/>
<path d="M30.4876 61.4905L32.5478 63.3963L32.5479 14.0859L24.703 21.3427L30.4876 26.6936L30.4876 61.4905Z" fill="#00FFFF"/>
<path d="M47.1165 23.4822L47.1165 4.08344C47.1165 4.08344 47.1165 4.06258 47.1165 4.05215C47.1165 4.05215 47.1165 4.03129 47.1391 4.02086C47.1391 4.02086 47.1616 4.01043 47.1728 4C47.1728 4 47.1954 4 47.2066 4C47.2179 4 47.2292 4 47.2404 4C47.2517 4 47.263 4 47.2742 4.02086C47.2742 4.02086 47.2855 4.04172 47.2967 4.05215C47.2967 4.05215 47.2967 4.07301 47.2967 4.08344L47.2967 23.4405L49.3354 25.3178C49.3354 25.3178 49.3579 25.349 49.3579 25.3803L49.3579 40.8993C49.3579 40.8993 49.3579 40.941 49.3354 40.9619C49.3241 40.9723 49.2903 40.9828 49.2678 40.9828C49.2453 40.9828 49.2227 40.9828 49.2002 40.9619C49.1777 40.941 49.1777 40.9202 49.1777 40.8993L49.1777 25.4116L47.1503 23.5343C47.1503 23.5343 47.1278 23.4926 47.1278 23.4717L47.1165 23.4822Z" fill="white"/>
<path d="M34.7891 63.3002L34.7891 44.0886C34.7891 44.0886 34.7891 44.0458 34.8062 44.0352L35.7777 42.8164L35.7777 13.3308C35.7777 13.3308 35.7777 13.3094 35.7777 13.2987C35.7777 13.288 35.7777 13.2773 35.7948 13.2666L36.9112 11.8661C36.9112 11.8661 36.9453 11.8447 36.9623 11.8447C36.9794 11.8447 36.9964 11.8447 37.0135 11.8661C37.0305 11.8768 37.0305 11.9089 37.0305 11.9303C37.0305 11.9516 37.0305 11.973 37.0135 11.9944L35.9226 13.3735L35.9226 42.8485C35.9226 42.8485 35.9226 42.8698 35.9226 42.8805C35.9226 42.8805 35.9141 42.9019 35.9056 42.9126L34.934 44.1314L34.934 63.3109C34.934 63.3109 34.934 63.3323 34.934 63.343C34.934 63.3537 34.934 63.3644 34.917 63.3751C34.917 63.3751 34.8999 63.3964 34.8914 63.3964C34.8829 63.3964 34.8744 63.3964 34.8658 63.3964C34.8573 63.3964 34.8488 63.3964 34.8403 63.3964C34.8317 63.3964 34.8232 63.3858 34.8147 63.3751C34.8147 63.3751 34.8062 63.3537 34.7977 63.343C34.7891 63.3323 34.7977 63.3216 34.7977 63.3109L34.7891 63.3002Z" fill="white"/>
<path d="M17.9787 29.8656C17.9787 29.8656 17.9787 29.821 18.0028 29.7987C18.027 29.7875 18.0512 29.7764 18.0754 29.7764L23.8049 29.7764C23.8049 29.7764 23.8532 29.7764 23.8774 29.7987L25.7993 31.5717C25.7993 31.5717 25.8235 31.6163 25.8235 31.6386L25.8235 45.3768C25.8235 45.3768 25.8235 45.4214 25.7993 45.4437C25.7751 45.4549 25.751 45.466 25.7268 45.466C25.7026 45.466 25.6784 45.466 25.6543 45.4437C25.6301 45.4214 25.6301 45.3991 25.6301 45.3768L25.6301 31.6721L23.7686 29.9548L18.0754 29.9548C18.0754 29.9548 18.027 29.9548 18.0028 29.9325C17.9907 29.9102 17.9787 29.8879 17.9787 29.8656Z" fill="white"/>
<path d="M24.7028 57.2928L24.7028 43.3085C24.7028 43.3085 24.7028 43.2876 24.7028 43.2771C24.7028 43.2666 24.7028 43.2561 24.7194 43.2456C24.7194 43.2456 24.736 43.2246 24.7443 43.2246C24.7526 43.2246 24.7609 43.2246 24.7692 43.2246C24.7775 43.2246 24.7858 43.2246 24.7941 43.2246C24.8024 43.2246 24.8107 43.2351 24.819 43.2456C24.819 43.2456 24.8273 43.2666 24.8356 43.2771C24.8439 43.2876 24.8356 43.298 24.8356 43.3085L24.8356 57.2613L25.8069 58.4887C25.8069 58.4887 25.8235 58.5307 25.8235 58.5516L25.8235 68.9165C25.8235 68.9165 25.8235 68.9585 25.8069 68.9795C25.7986 68.99 25.7737 69.0005 25.7571 69.0005C25.7405 69.0005 25.7239 69.0005 25.7073 68.9795C25.6907 68.9585 25.6907 68.9375 25.6907 68.9165L25.6907 58.5936L24.7194 57.3662C24.7194 57.3662 24.7028 57.3242 24.7028 57.3032L24.7028 57.2928Z" fill="white"/>
<path d="M13.0419 56.719C13.0419 56.719 12.9797 56.719 12.9549 56.7066C12.93 56.7066 12.9052 56.6818 12.8803 56.6569L10.6059 54.37C10.6059 54.37 10.5437 54.2706 10.5437 54.2209L10.5437 40.3631C10.5437 40.3631 10.5437 40.301 10.5437 40.2761C10.5437 40.2512 10.5686 40.2264 10.581 40.2015C10.5934 40.1767 10.6183 40.1642 10.6432 40.1518C10.668 40.1394 10.6929 40.127 10.7177 40.127C10.7426 40.127 10.7799 40.127 10.8047 40.127C10.8296 40.127 10.8544 40.1518 10.8793 40.1642C10.9042 40.1767 10.9166 40.2015 10.929 40.2264C10.9414 40.2512 10.9539 40.2761 10.9539 40.301C11.3764 42.7245 12.1346 45.0735 13.2159 47.2858C13.2283 47.3106 13.2407 47.3479 13.2407 47.3852L13.2407 56.4829C13.2407 56.4829 13.2159 56.5948 13.1786 56.632C13.1413 56.6693 13.0791 56.6942 13.0294 56.6942L13.0419 56.719ZM12.8306 47.4598C12.0352 45.8317 11.4137 44.1414 10.9787 42.3889L10.9787 54.1339L12.8306 55.9982L12.8306 47.4598Z" fill="#FF0049"/>
<path d="M10.519 38.7481C10.519 38.7481 10.4072 38.7357 10.3699 38.6984L5.58492 33.901C5.58492 33.901 5.54764 33.8513 5.53521 33.8264C5.53521 33.8016 5.52278 33.7643 5.52278 33.7394C5.95778 27.4009 8.30677 21.3357 12.259 16.3643C16.2113 11.3929 21.5929 7.76378 27.6704 5.94922C27.7077 5.94922 27.7326 5.94922 27.7698 5.94922C27.8071 5.94922 27.832 5.97408 27.8568 5.9865C27.8817 6.01136 27.9066 6.03622 27.919 6.06108C27.9314 6.08593 27.9438 6.12322 27.9438 6.1605L27.9438 9.92635C27.9438 9.92635 27.919 10.0382 27.8817 10.0755C27.8444 10.1128 27.7823 10.1376 27.7326 10.1376C27.6828 10.1376 27.6207 10.1128 27.5834 10.0755C27.5461 10.0382 27.5213 9.97606 27.5213 9.92635L27.5213 6.44636C15.478 10.1625 6.8402 21.0623 5.95778 33.6773L10.6682 38.4001C10.6682 38.4001 10.7179 38.4623 10.7303 38.512C10.7303 38.5493 10.7303 38.599 10.7303 38.6363C10.7179 38.6735 10.693 38.7108 10.6558 38.7357C10.6185 38.7605 10.5812 38.773 10.5439 38.773L10.519 38.7481Z" fill="#FF0049" stroke="#FF0049" stroke-width="2"/>
<path d="M13.0293 47.4103L13.0293 56.5079L10.7549 54.2211L10.7549 40.3633C11.1774 42.8117 11.948 45.1856 13.0293 47.4103Z" fill="#FF0049" stroke="#FF0049" stroke-width="2"/>
<path d="M10.6188 40.5251C10.6188 40.5251 10.5566 40.4505 10.5442 40.4008C10.2832 38.8969 10.1589 37.3807 10.1589 35.8519C10.1465 32.2974 10.8549 28.7801 12.2345 25.5114C13.6141 22.2427 15.6523 19.2847 18.2126 16.8239C18.2375 16.799 18.2623 16.7866 18.2872 16.7741C18.312 16.7741 18.3369 16.7617 18.3742 16.7617C18.4115 16.7617 18.4363 16.7617 18.4612 16.7741C18.486 16.7741 18.5109 16.799 18.5358 16.8239C18.5606 16.8487 18.573 16.8736 18.5855 16.8984C18.5855 16.9233 18.5979 16.9481 18.5979 16.9854C18.5979 17.0103 18.5979 17.0476 18.573 17.0724C18.573 17.0973 18.5482 17.1221 18.5233 17.1346C16.0003 19.5581 13.9993 22.454 12.6446 25.673C11.2775 28.892 10.5815 32.3595 10.5939 35.8519C10.5939 37.3558 10.7182 38.8472 10.9792 40.3262C10.9792 40.3759 10.9792 40.4381 10.9419 40.4878C10.9046 40.5375 10.8549 40.5624 10.8052 40.5748L10.7679 40.5748C10.7679 40.5748 10.6685 40.5499 10.6312 40.5251L10.6188 40.5251Z" fill="#FF0049" stroke="#FF0049" stroke-width="2"/>
<path d="M19.5794 63.3446C19.5794 63.3446 19.5297 63.3197 19.5049 63.2949L10.606 54.3712C10.606 54.3712 10.5439 54.2717 10.5439 54.222C10.5439 54.1723 10.5687 54.1102 10.606 54.0729C10.6309 54.048 10.6433 54.0356 10.6806 54.0232C10.7055 54.0232 10.7303 54.0107 10.7676 54.0107C10.8049 54.0107 10.8173 54.0107 10.8546 54.0232C10.8795 54.0232 10.9043 54.048 10.9292 54.0729L19.828 62.9966C19.828 62.9966 19.8901 63.096 19.8901 63.1457C19.8901 63.1954 19.8653 63.2576 19.828 63.2949C19.8031 63.3197 19.7907 63.3321 19.7534 63.3446C19.7286 63.3446 19.7037 63.357 19.6664 63.357C19.6416 63.357 19.6167 63.357 19.5794 63.3446Z" fill="#FF0049" stroke="#FF0049" stroke-width="2"/>
<path d="M57.8708 57.9866C57.8708 57.9866 57.8584 57.8996 57.8211 57.8624C57.7963 57.8251 57.759 57.8002 57.7093 57.7878C57.6596 57.7754 57.6099 57.7629 57.5726 57.7878C57.5229 57.7878 57.4856 57.8251 57.4483 57.8499C53.2102 62.0259 47.8286 65.0212 41.8878 66.5002C41.8256 66.5126 41.7759 66.5499 41.7386 66.612C41.7013 66.6618 41.7013 66.7239 41.7138 66.786C41.7138 66.8109 41.7386 66.8482 41.751 66.8606C41.7759 66.8855 41.7883 66.8979 41.8256 66.9228C41.8505 66.9352 41.8878 66.9476 41.9126 66.9476C41.9499 66.9476 41.9748 66.9476 42.012 66.9476C48.0399 65.4562 53.496 62.4112 57.7838 58.1731C57.8087 58.1482 57.8211 58.1234 57.846 58.0985C57.8584 58.0736 57.8708 58.0364 57.8708 58.0115L57.8708 57.9866Z" fill="#FF0049" stroke="#FF0049" stroke-width="2"/>
<path d="M65.0298 24.455C63.3146 20.5152 60.7668 16.9358 57.5354 13.9529C55.3107 11.8898 52.8001 10.1498 50.0658 8.75781L50.0658 12.0638C55.1367 15.0218 59.2257 19.3096 61.7238 24.4675L65.0298 24.4675L65.0298 24.455Z" fill="#FF0049" stroke="#FF0049" stroke-width="2"/>
<path d="M66.0247 44.1536C66.0247 44.1536 66.0247 44.0293 65.9749 43.9796C65.9377 43.9299 65.8755 43.905 65.8134 43.8926C65.7512 43.8926 65.6891 43.8926 65.6394 43.9423C65.5897 43.9796 65.5524 44.0293 65.5524 44.0914C64.7445 47.0743 63.4644 49.9453 61.7617 52.5677L58.3687 52.431C58.3687 52.431 58.2817 52.431 58.2568 52.4558C58.2195 52.4683 58.1947 52.4931 58.1698 52.5304C54.4537 57.5267 49.1219 61.2677 42.9573 63.2189C42.92 63.2189 42.8952 63.2438 42.8703 63.2562C42.8454 63.2811 42.8206 63.2935 42.8082 63.3308C42.7957 63.3557 42.7833 63.3929 42.7833 63.4178C42.7833 63.4427 42.7833 63.4799 42.7833 63.5048C42.7833 63.5297 42.8082 63.5669 42.833 63.5794C42.8579 63.6042 42.8827 63.6167 42.9076 63.6291C42.9324 63.6291 42.9697 63.6539 43.007 63.6539C43.0443 63.6539 43.0692 63.6539 43.1064 63.6415C49.3207 61.6778 54.7023 57.912 58.4805 52.8908L61.8735 53.0151C61.8735 53.0151 61.9605 53.0151 61.9978 52.9903C62.0351 52.9778 62.0724 52.9406 62.0848 52.9157C63.8621 50.2063 65.1919 47.2731 66.0247 44.1909C66.0247 44.166 66.0247 44.1536 66.0247 44.1287L66.0247 44.1536Z" fill="#FF0049" stroke="#FF0049" stroke-width="2"/>
<path d="M64.8562 31.4395L63.2653 29.9605L64.6822 28.5312L66.186 30.0724L66.186 38.8966L64.8313 37.6911L64.8562 31.4395Z" fill="#FF0049" stroke="#FF0049" stroke-width="2"/>
<path d="M64.4958 37.8273L66.0618 39.2193L64.6573 40.6486L63.1411 39.1075L63.1411 30.2832L64.5331 31.5633L64.4958 37.8149L64.4958 37.8273Z" fill="#FF0049" stroke="#FF0049" stroke-width="2"/>
<path d="M9.25169 50.3557C9.25169 50.3557 9.17712 50.3557 9.13984 50.3309C9.10255 50.306 9.0777 50.2811 9.06527 50.2439C7.03942 46.3662 5.85871 42.1032 5.59771 37.7283C5.59771 37.7035 5.59771 37.6662 5.59771 37.6413C5.59771 37.6165 5.62256 37.5916 5.63499 37.5668C5.64742 37.5419 5.67228 37.5295 5.69714 37.517C5.722 37.517 5.74685 37.4922 5.77171 37.4922C5.79656 37.4922 5.83385 37.4922 5.85871 37.4922C5.88356 37.4922 5.90842 37.517 5.93328 37.5295C5.95814 37.5419 5.97057 37.5668 5.98299 37.5916C5.98299 37.6165 6.00785 37.6413 6.00785 37.6662C6.25642 41.9789 7.4247 46.1797 9.4257 50.0077C9.45055 50.0574 9.45055 50.1196 9.43812 50.1693C9.4257 50.219 9.38841 50.2687 9.33869 50.2936C9.31384 50.306 9.27655 50.3184 9.23927 50.3184L9.25169 50.3557Z" fill="#00FFFF" stroke="#00FFFF" stroke-width="2"/>
<path d="M21.3813 60.7081L15.6642 55.4508L15.6642 49.7461" stroke="#00FFFF" stroke-width="2"/>
</g>
<path d="M40.8856 47.7982L43.9728 47.7982L47.8413 51.069L56.0823 44.1013L43.8216 44.0374L43.8216 4L38.1512 8.79426L40.8856 11.1062L40.8856 47.7982Z" fill="#00FFFF"/>
<path d="M40.7027 47.9083L40.7027 11.6036L38.1511 9.60352L38.1511 58.9139L48.2373 51.0079L44.283 47.9188L40.7027 47.9188L40.7027 47.9083Z" fill="#00FFFF"/>
<path d="M32.5479 64.2717L29.9161 62.0864L29.9161 27.1734L23.6327 21.9307L14.6168 29.4533L26.8688 29.5163L26.8688 68.9996L32.5353 64.2717L32.5479 64.2717Z" fill="#00FFFF"/>
<path d="M30.4876 61.4905L32.5478 63.3963L32.5479 14.0859L24.703 21.3427L30.4876 26.6936L30.4876 61.4905Z" fill="#00FFFF"/>
<path d="M47.1165 23.4822L47.1165 4.08344C47.1165 4.08344 47.1165 4.06258 47.1165 4.05215C47.1165 4.05215 47.1165 4.03129 47.1391 4.02086C47.1391 4.02086 47.1616 4.01043 47.1728 4C47.1728 4 47.1954 4 47.2066 4C47.2179 4 47.2292 4 47.2404 4C47.2517 4 47.263 4 47.2742 4.02086C47.2742 4.02086 47.2855 4.04172 47.2967 4.05215C47.2967 4.05215 47.2967 4.07301 47.2967 4.08344L47.2967 23.4405L49.3354 25.3178C49.3354 25.3178 49.3579 25.349 49.3579 25.3803L49.3579 40.8993C49.3579 40.8993 49.3579 40.941 49.3354 40.9619C49.3241 40.9723 49.2903 40.9828 49.2678 40.9828C49.2453 40.9828 49.2227 40.9828 49.2002 40.9619C49.1777 40.941 49.1777 40.9202 49.1777 40.8993L49.1777 25.4116L47.1503 23.5343C47.1503 23.5343 47.1278 23.4926 47.1278 23.4717L47.1165 23.4822Z" fill="white"/>
<path d="M34.7891 63.3002L34.7891 44.0886C34.7891 44.0886 34.7891 44.0458 34.8062 44.0352L35.7777 42.8164L35.7777 13.3308C35.7777 13.3308 35.7777 13.3094 35.7777 13.2987C35.7777 13.288 35.7777 13.2773 35.7948 13.2666L36.9112 11.8661C36.9112 11.8661 36.9453 11.8447 36.9623 11.8447C36.9794 11.8447 36.9964 11.8447 37.0135 11.8661C37.0305 11.8768 37.0305 11.9089 37.0305 11.9303C37.0305 11.9516 37.0305 11.973 37.0135 11.9944L35.9226 13.3735L35.9226 42.8485C35.9226 42.8485 35.9226 42.8698 35.9226 42.8805C35.9226 42.8805 35.9141 42.9019 35.9056 42.9126L34.934 44.1314L34.934 63.3109C34.934 63.3109 34.934 63.3323 34.934 63.343C34.934 63.3537 34.934 63.3644 34.917 63.3751C34.917 63.3751 34.8999 63.3964 34.8914 63.3964C34.8829 63.3964 34.8744 63.3964 34.8658 63.3964C34.8573 63.3964 34.8488 63.3964 34.8403 63.3964C34.8317 63.3964 34.8232 63.3858 34.8147 63.3751C34.8147 63.3751 34.8062 63.3537 34.7977 63.343C34.7891 63.3323 34.7977 63.3216 34.7977 63.3109L34.7891 63.3002Z" fill="white"/>
<path d="M17.9787 29.8656C17.9787 29.8656 17.9787 29.821 18.0028 29.7987C18.027 29.7875 18.0512 29.7764 18.0754 29.7764L23.8049 29.7764C23.8049 29.7764 23.8532 29.7764 23.8774 29.7987L25.7993 31.5717C25.7993 31.5717 25.8235 31.6163 25.8235 31.6386L25.8235 45.3768C25.8235 45.3768 25.8235 45.4214 25.7993 45.4437C25.7751 45.4549 25.751 45.466 25.7268 45.466C25.7026 45.466 25.6784 45.466 25.6543 45.4437C25.6301 45.4214 25.6301 45.3991 25.6301 45.3768L25.6301 31.6721L23.7686 29.9548L18.0754 29.9548C18.0754 29.9548 18.027 29.9548 18.0028 29.9325C17.9907 29.9102 17.9787 29.8879 17.9787 29.8656Z" fill="white"/>
<path d="M24.7028 57.2928L24.7028 43.3085C24.7028 43.3085 24.7028 43.2876 24.7028 43.2771C24.7028 43.2666 24.7028 43.2561 24.7194 43.2456C24.7194 43.2456 24.736 43.2246 24.7443 43.2246C24.7526 43.2246 24.7609 43.2246 24.7692 43.2246C24.7775 43.2246 24.7858 43.2246 24.7941 43.2246C24.8024 43.2246 24.8107 43.2351 24.819 43.2456C24.819 43.2456 24.8273 43.2666 24.8356 43.2771C24.8439 43.2876 24.8356 43.298 24.8356 43.3085L24.8356 57.2613L25.8069 58.4887C25.8069 58.4887 25.8235 58.5307 25.8235 58.5516L25.8235 68.9165C25.8235 68.9165 25.8235 68.9585 25.8069 68.9795C25.7986 68.99 25.7737 69.0005 25.7571 69.0005C25.7405 69.0005 25.7239 69.0005 25.7073 68.9795C25.6907 68.9585 25.6907 68.9375 25.6907 68.9165L25.6907 58.5936L24.7194 57.3662C24.7194 57.3662 24.7028 57.3242 24.7028 57.3032L24.7028 57.2928Z" fill="white"/>
<path d="M10.519 38.7481C10.519 38.7481 10.4072 38.7357 10.3699 38.6984L5.58492 33.901C5.58492 33.901 5.54764 33.8513 5.53521 33.8264C5.53521 33.8016 5.52278 33.7643 5.52278 33.7394C5.95778 27.4009 8.30677 21.3357 12.259 16.3643C16.2113 11.3929 21.5929 7.76378 27.6704 5.94922C27.7077 5.94922 27.7326 5.94922 27.7698 5.94922C27.8071 5.94922 27.832 5.97408 27.8568 5.9865C27.8817 6.01136 27.9066 6.03622 27.919 6.06108C27.9314 6.08593 27.9438 6.12322 27.9438 6.1605L27.9438 9.92635C27.9438 9.92635 27.919 10.0382 27.8817 10.0755C27.8444 10.1128 27.7823 10.1376 27.7326 10.1376C27.6828 10.1376 27.6207 10.1128 27.5834 10.0755C27.5461 10.0382 27.5213 9.97606 27.5213 9.92635L27.5213 6.44636C15.478 10.1625 6.8402 21.0623 5.95778 33.6773L10.6682 38.4001C10.6682 38.4001 10.7179 38.4623 10.7303 38.512C10.7303 38.5493 10.7303 38.599 10.7303 38.6363C10.7179 38.6735 10.693 38.7108 10.6558 38.7357C10.6185 38.7605 10.5812 38.773 10.5439 38.773L10.519 38.7481Z" fill="#FF0049"/>
<path d="M13.0295 47.4103L13.0295 56.5079L10.7551 54.2211L10.7551 40.3633C11.1777 42.8117 11.9483 45.1856 13.0295 47.4103Z" fill="#FF0049"/>
<path d="M13.0419 56.719C13.0419 56.719 12.9797 56.719 12.9549 56.7066C12.93 56.7066 12.9052 56.6818 12.8803 56.6569L10.6059 54.37C10.6059 54.37 10.5437 54.2706 10.5437 54.2209L10.5437 40.3631C10.5437 40.3631 10.5437 40.301 10.5437 40.2761C10.5437 40.2512 10.5686 40.2264 10.581 40.2015C10.5934 40.1767 10.6183 40.1642 10.6432 40.1518C10.668 40.1394 10.6929 40.127 10.7177 40.127C10.7426 40.127 10.7799 40.127 10.8047 40.127C10.8296 40.127 10.8544 40.1518 10.8793 40.1642C10.9042 40.1767 10.9166 40.2015 10.929 40.2264C10.9414 40.2512 10.9539 40.2761 10.9539 40.301C11.3764 42.7245 12.1346 45.0735 13.2159 47.2858C13.2283 47.3106 13.2407 47.3479 13.2407 47.3852L13.2407 56.4829C13.2407 56.4829 13.2159 56.5948 13.1786 56.632C13.1413 56.6693 13.0791 56.6942 13.0294 56.6942L13.0419 56.719ZM12.8306 47.4598C12.0352 45.8317 11.4137 44.1414 10.9787 42.3889L10.9787 54.1339L12.8306 55.9982L12.8306 47.4598Z" fill="#FF0049"/>
<path d="M10.619 40.5251C10.619 40.5251 10.5569 40.4505 10.5445 40.4008C10.2835 38.8969 10.1592 37.3807 10.1592 35.8519C10.1467 32.2974 10.8552 28.7801 12.2347 25.5114C13.6143 22.2427 15.6526 19.2847 18.2129 16.8239C18.2377 16.799 18.2626 16.7866 18.2874 16.7741C18.3123 16.7741 18.3371 16.7617 18.3744 16.7617C18.4117 16.7617 18.4366 16.7617 18.4614 16.7741C18.4863 16.7741 18.5111 16.799 18.536 16.8239C18.5609 16.8487 18.5733 16.8736 18.5857 16.8984C18.5857 16.9233 18.5981 16.9481 18.5981 16.9854C18.5981 17.0103 18.5981 17.0476 18.5733 17.0724C18.5733 17.0973 18.5484 17.1221 18.5236 17.1346C16.0006 19.5581 13.9996 22.454 12.6449 25.673C11.2777 28.892 10.5817 32.3595 10.5942 35.8519C10.5942 37.3558 10.7185 38.8472 10.9795 40.3262C10.9795 40.3759 10.9795 40.4381 10.9422 40.4878C10.9049 40.5375 10.8552 40.5624 10.8055 40.5748L10.7682 40.5748C10.7682 40.5748 10.6687 40.5499 10.6315 40.5251L10.619 40.5251Z" fill="#FF0049"/>
<path d="M19.5797 63.3446C19.5797 63.3446 19.53 63.3197 19.5051 63.2949L10.6063 54.3712C10.6063 54.3712 10.5441 54.2717 10.5441 54.222C10.5441 54.1723 10.569 54.1102 10.6063 54.0729C10.6311 54.048 10.6436 54.0356 10.6808 54.0232C10.7057 54.0232 10.7306 54.0107 10.7678 54.0107C10.8051 54.0107 10.8176 54.0107 10.8548 54.0232C10.8797 54.0232 10.9046 54.048 10.9294 54.0729L19.8282 62.9966C19.8282 62.9966 19.8904 63.096 19.8904 63.1457C19.8904 63.1954 19.8655 63.2576 19.8282 63.2949C19.8034 63.3197 19.791 63.3321 19.7537 63.3446C19.7288 63.3446 19.704 63.357 19.6667 63.357C19.6418 63.357 19.617 63.357 19.5797 63.3446Z" fill="#FF0049"/>
<path d="M9.25169 50.3557C9.25169 50.3557 9.17712 50.3557 9.13984 50.3309C9.10255 50.306 9.0777 50.2811 9.06527 50.2439C7.03942 46.3662 5.85871 42.1032 5.59771 37.7283C5.59771 37.7035 5.59771 37.6662 5.59771 37.6413C5.59771 37.6165 5.62256 37.5916 5.63499 37.5668C5.64742 37.5419 5.67228 37.5295 5.69714 37.517C5.722 37.517 5.74685 37.4922 5.77171 37.4922C5.79656 37.4922 5.83385 37.4922 5.85871 37.4922C5.88356 37.4922 5.90842 37.517 5.93328 37.5295C5.95814 37.5419 5.97057 37.5668 5.98299 37.5916C5.98299 37.6165 6.00785 37.6413 6.00785 37.6662C6.25642 41.9789 7.4247 46.1797 9.4257 50.0077C9.45055 50.0574 9.45055 50.1196 9.43812 50.1693C9.4257 50.219 9.38841 50.2687 9.33869 50.2936C9.31384 50.306 9.27655 50.3184 9.23927 50.3184L9.25169 50.3557Z" fill="#00FFFF"/>
<path d="M57.8711 57.9866C57.8711 57.9866 57.8587 57.8996 57.8214 57.8624C57.7965 57.8251 57.7592 57.8002 57.7095 57.7878C57.6598 57.7754 57.6101 57.7629 57.5728 57.7878C57.5231 57.7878 57.4858 57.8251 57.4485 57.8499C53.2104 62.0259 47.8288 65.0212 41.888 66.5002C41.8259 66.5126 41.7761 66.5499 41.7389 66.612C41.7016 66.6618 41.7016 66.7239 41.714 66.786C41.714 66.8109 41.7389 66.8482 41.7513 66.8606C41.7761 66.8855 41.7886 66.8979 41.8259 66.9228C41.8507 66.9352 41.888 66.9476 41.9129 66.9476C41.9501 66.9476 41.975 66.9476 42.0123 66.9476C48.0401 65.4562 53.4963 62.4112 57.7841 58.1731C57.809 58.1482 57.8214 58.1234 57.8462 58.0985C57.8587 58.0736 57.8711 58.0364 57.8711 58.0115L57.8711 57.9866Z" fill="#FF0049"/>
<path d="M65.0298 24.4541C63.3146 20.5142 60.7668 16.9348 57.5354 13.952C55.3107 11.8888 52.8001 10.1488 50.0658 8.75684L50.0658 12.0628C55.1367 15.0208 59.2257 19.3087 61.7238 24.4665L65.0298 24.4665L65.0298 24.4541Z" fill="#FF0049"/>
<path d="M66.0249 44.1536C66.0249 44.1536 66.0249 44.0293 65.9752 43.9796C65.9379 43.9299 65.8758 43.905 65.8136 43.8926C65.7515 43.8926 65.6893 43.8926 65.6396 43.9423C65.5899 43.9796 65.5526 44.0293 65.5526 44.0914C64.7448 47.0743 63.4646 49.9453 61.7619 52.5677L58.3689 52.431C58.3689 52.431 58.2819 52.431 58.2571 52.4558C58.2198 52.4683 58.1949 52.4931 58.1701 52.5304C54.4539 57.5267 49.1221 61.2677 42.9575 63.2189C42.9203 63.2189 42.8954 63.2438 42.8705 63.2562C42.8457 63.2811 42.8208 63.2935 42.8084 63.3308C42.796 63.3557 42.7835 63.3929 42.7835 63.4178C42.7835 63.4427 42.7835 63.4799 42.7835 63.5048C42.7835 63.5297 42.8084 63.5669 42.8333 63.5794C42.8581 63.6042 42.883 63.6167 42.9078 63.6291C42.9327 63.6291 42.97 63.6539 43.0073 63.6539C43.0445 63.6539 43.0694 63.6539 43.1067 63.6415C49.321 61.6778 54.7025 57.912 58.4808 52.8908L61.8738 53.0151C61.8738 53.0151 61.9608 53.0151 61.9981 52.9903C62.0353 52.9778 62.0726 52.9406 62.0851 52.9157C63.8623 50.2063 65.1922 47.2731 66.0249 44.1909C66.0249 44.166 66.0249 44.1536 66.0249 44.1287L66.0249 44.1536Z" fill="#FF0049"/>
<path d="M64.8562 31.4385L63.2653 29.9596L64.6822 28.5303L66.186 30.0714L66.186 38.8957L64.8313 37.6901L64.8562 31.4385Z" fill="#FF0049"/>
<path d="M64.496 37.8273L66.062 39.2193L64.6576 40.6486L63.1413 39.1075L63.1413 30.2832L64.5333 31.5633L64.496 37.8149L64.496 37.8273Z" fill="#FF0049"/>
<path d="M21.3811 60.7081L15.664 55.4508L15.664 49.7461" stroke="#00FFFF" stroke-width="0.3"/>
<defs>
<filter id="filter0_f_898_14902" x="0.522705" y="0" width="70.9893" height="73" filterUnits="userSpaceOnUse" color-interpolation-filters="sRGB">
<feFlood flood-opacity="0" result="BackgroundImageFix"/>
<feBlend mode="normal" in="SourceGraphic" in2="BackgroundImageFix" result="shape"/>
<feGaussianBlur stdDeviation="2" result="effect1_foregroundBlur_898_14902"/>
</filter>
</defs>
</svg>
