<svg width="72" height="73" viewBox="0 0 72 73" fill="none" xmlns="http://www.w3.org/2000/svg">
<g filter="url(#filter0_f_898_14902)">
<path d="M31.009 25.2018L27.9218 25.2018L24.0534 21.931L15.8124 28.8987L28.073 28.9626L28.073 69L33.7434 64.2057L31.009 61.8938L31.009 25.2018Z" fill="#FF0049"/>
<path d="M31.192 25.0917L31.1919 61.3964L33.7436 63.3965L33.7436 14.0861L23.6574 21.9921L27.6117 25.0812L31.192 25.0812L31.192 25.0917Z" fill="#FF0049"/>
<path d="M39.3468 8.72828L41.9785 10.9136L41.9785 45.8266L48.262 51.0693L57.2778 43.5467L45.0258 43.4837L45.0258 4.00037L39.3594 8.72828L39.3468 8.72828Z" fill="#FF0049"/>
<path d="M41.4071 11.5095L39.3468 9.60372L39.3468 58.9141L47.1916 51.6573L41.4071 46.3064L41.4071 11.5095Z" fill="#FF0049"/>
<path d="M24.7781 49.5178L24.7781 68.9166C24.7781 68.9166 24.7781 68.9374 24.7781 68.9479C24.7781 68.9479 24.7781 68.9687 24.7556 68.9791C24.7556 68.9791 24.7331 68.9896 24.7218 69C24.7218 69 24.6993 69 24.688 69C24.6768 69 24.6655 69 24.6542 69C24.643 69 24.6317 69 24.6204 68.9791C24.6204 68.9791 24.6092 68.9583 24.5979 68.9479C24.5979 68.9479 24.5979 68.927 24.5979 68.9166L24.5979 49.5595L22.5593 47.6822C22.5593 47.6822 22.5367 47.651 22.5367 47.6197L22.5367 32.1007C22.5367 32.1007 22.5367 32.059 22.5593 32.0381C22.5705 32.0277 22.6043 32.0172 22.6269 32.0172C22.6494 32.0172 22.6719 32.0172 22.6944 32.0381C22.717 32.059 22.717 32.0798 22.717 32.1007L22.717 47.5884L24.7443 49.4657C24.7443 49.4657 24.7669 49.5074 24.7669 49.5283L24.7781 49.5178Z" fill="white"/>
<path d="M37.1055 9.69977L37.1055 28.9114C37.1055 28.9114 37.1055 28.9542 37.0885 28.9648L36.1169 30.1836L36.1169 59.6692C36.1169 59.6692 36.1169 59.6906 36.1169 59.7013C36.1169 59.712 36.1169 59.7227 36.0999 59.7334L34.9834 61.1339C34.9834 61.1339 34.9494 61.1553 34.9323 61.1553C34.9153 61.1553 34.8982 61.1553 34.8812 61.1339C34.8641 61.1232 34.8641 61.0911 34.8641 61.0697C34.8641 61.0484 34.8641 61.027 34.8812 61.0056L35.972 59.6265L35.972 30.1515C35.972 30.1515 35.972 30.1302 35.972 30.1195C35.972 30.1195 35.9806 30.0981 35.9891 30.0874L36.9606 28.8686L36.9606 9.68908C36.9606 9.68908 36.9606 9.6677 36.9606 9.65701C36.9606 9.64632 36.9606 9.63563 36.9777 9.62494C36.9777 9.62494 36.9947 9.60355 37.0033 9.60355C37.0118 9.60355 37.0203 9.60355 37.0288 9.60355C37.0373 9.60355 37.0459 9.60355 37.0544 9.60355C37.0629 9.60355 37.0714 9.61425 37.08 9.62494C37.08 9.62494 37.0885 9.64632 37.097 9.65701C37.1055 9.6677 37.097 9.67839 37.097 9.68908L37.1055 9.69977Z" fill="white"/>
<path d="M53.9159 43.1344C53.9159 43.1344 53.9159 43.179 53.8917 43.2013C53.8675 43.2125 53.8434 43.2236 53.8192 43.2236L48.0897 43.2236C48.0897 43.2236 48.0413 43.2236 48.0171 43.2013L46.0952 41.4283C46.0952 41.4283 46.071 41.3837 46.071 41.3614L46.071 27.6232C46.071 27.6232 46.071 27.5786 46.0952 27.5563C46.1194 27.5451 46.1436 27.534 46.1677 27.534C46.1919 27.534 46.2161 27.534 46.2403 27.5563C46.2644 27.5786 46.2644 27.6009 46.2644 27.6232L46.2644 41.3279L48.1259 43.0452L53.8192 43.0452C53.8192 43.0452 53.8675 43.0452 53.8917 43.0675C53.9038 43.0898 53.9159 43.1121 53.9159 43.1344Z" fill="white"/>
<path d="M47.1917 15.7072L47.1917 29.6915C47.1917 29.6915 47.1917 29.7124 47.1917 29.7229C47.1917 29.7334 47.1917 29.7439 47.1751 29.7544C47.1751 29.7544 47.1585 29.7754 47.1502 29.7754C47.1419 29.7754 47.1336 29.7754 47.1253 29.7754C47.117 29.7754 47.1087 29.7754 47.1004 29.7754C47.0921 29.7754 47.0838 29.7649 47.0755 29.7544C47.0755 29.7544 47.0672 29.7334 47.0589 29.7229C47.0506 29.7124 47.0589 29.702 47.0589 29.6915L47.0589 15.7387L46.0877 14.5113C46.0877 14.5113 46.071 14.4693 46.071 14.4484L46.071 4.08345C46.071 4.08345 46.071 4.04149 46.0877 4.02051C46.096 4.01002 46.1209 3.99953 46.1375 3.99953C46.1541 3.99953 46.1707 3.99953 46.1873 4.02051C46.2039 4.04149 46.2039 4.06247 46.2039 4.08345L46.2039 14.4064L47.1751 15.6338C47.1751 15.6338 47.1917 15.6758 47.1917 15.6968L47.1917 15.7072Z" fill="white"/>
<path d="M58.853 16.281C58.853 16.281 58.9152 16.281 58.94 16.2934C58.9649 16.2934 58.9897 16.3182 59.0146 16.3431L61.289 18.63C61.289 18.63 61.3512 18.7294 61.3512 18.7791L61.3512 32.6369C61.3512 32.6369 61.3512 32.699 61.3512 32.7239C61.3512 32.7488 61.3263 32.7736 61.3139 32.7985C61.3015 32.8233 61.2766 32.8358 61.2517 32.8482C61.2269 32.8606 61.202 32.873 61.1772 32.873C61.1523 32.873 61.115 32.873 61.0902 32.873C61.0653 32.873 61.0405 32.8482 61.0156 32.8358C60.9907 32.8233 60.9783 32.7985 60.9659 32.7736C60.9535 32.7488 60.941 32.7239 60.941 32.699C60.5185 30.2755 59.7603 27.9265 58.679 25.7142C58.6666 25.6894 58.6542 25.6521 58.6542 25.6148L58.6542 16.5171C58.6542 16.5171 58.679 16.4052 58.7163 16.368C58.7536 16.3307 58.8158 16.3058 58.8655 16.3058L58.853 16.281ZM59.0643 25.5402C59.8597 27.1683 60.4812 28.8586 60.9162 30.6111L60.9162 18.8661L59.0643 17.0018L59.0643 25.5402Z" fill="#00FFFF"/>
<path d="M61.3759 34.2519C61.3759 34.2519 61.4877 34.2643 61.525 34.3016L66.31 39.099C66.31 39.099 66.3473 39.1487 66.3597 39.1736C66.3597 39.1984 66.3721 39.2357 66.3721 39.2606C65.9371 45.5991 63.5881 51.6643 59.6359 56.6357C55.6836 61.6071 50.302 65.2362 44.2245 67.0508C44.1872 67.0508 44.1623 67.0508 44.125 67.0508C44.0878 67.0508 44.0629 67.0259 44.038 67.0135C44.0132 66.9886 43.9883 66.9638 43.9759 66.9389C43.9635 66.9141 43.951 66.8768 43.951 66.8395L43.9511 63.0737C43.9511 63.0737 43.9759 62.9618 44.0132 62.9245C44.0505 62.8872 44.1126 62.8624 44.1623 62.8624C44.212 62.8624 44.2742 62.8872 44.3115 62.9245C44.3488 62.9618 44.3736 63.0239 44.3736 63.0737L44.3736 66.5536C56.4169 62.8375 65.0547 51.9377 65.9371 39.3227L61.2267 34.5999C61.2267 34.5999 61.177 34.5377 61.1646 34.488C61.1646 34.4507 61.1646 34.401 61.1646 34.3637C61.177 34.3265 61.2019 34.2892 61.2391 34.2643C61.2764 34.2395 61.3137 34.227 61.351 34.227L61.3759 34.2519Z" fill="#00FFFF" stroke="#00FFFF" stroke-width="2"/>
<path d="M58.8654 25.5897L58.8654 16.4921L61.1398 18.7789L61.1398 32.6367C60.7172 30.1883 59.9466 27.8144 58.8654 25.5897Z" fill="#00FFFF" stroke="#00FFFF" stroke-width="2"/>
<path d="M61.2759 32.4749C61.2759 32.4749 61.338 32.5495 61.3504 32.5992C61.6114 34.1031 61.7357 35.6193 61.7357 37.1481C61.7482 40.7026 61.0397 44.2199 59.6602 47.4886C58.2806 50.7573 56.2423 53.7153 53.682 56.1761C53.6572 56.201 53.6323 56.2134 53.6075 56.2259C53.5826 56.2259 53.5578 56.2383 53.5205 56.2383C53.4832 56.2383 53.4583 56.2383 53.4335 56.2259C53.4086 56.2259 53.3838 56.201 53.3589 56.1761C53.334 56.1513 53.3216 56.1264 53.3092 56.1016C53.3092 56.0767 53.2968 56.0519 53.2968 56.0146C53.2968 55.9897 53.2968 55.9524 53.3216 55.9276C53.3216 55.9027 53.3465 55.8779 53.3713 55.8654C55.8943 53.4419 57.8953 50.546 59.25 47.327C60.6172 44.108 61.3132 40.6405 61.3007 37.1481C61.3007 35.6442 61.1764 34.1528 60.9154 32.6738C60.9154 32.6241 60.9154 32.5619 60.9527 32.5122C60.99 32.4625 61.0397 32.4376 61.0894 32.4252L61.1267 32.4252C61.1267 32.4252 61.2262 32.4501 61.2634 32.4749L61.2759 32.4749Z" fill="#00FFFF" stroke="#00FFFF" stroke-width="2"/>
<path d="M52.3154 9.65543C52.3154 9.65543 52.3651 9.68029 52.3899 9.70514L61.2888 18.6288C61.2888 18.6288 61.3509 18.7283 61.3509 18.778C61.3509 18.8277 61.326 18.8898 61.2888 18.9271C61.2639 18.952 61.2515 18.9644 61.2142 18.9768C61.1893 18.9768 61.1645 18.9893 61.1272 18.9893C61.0899 18.9893 61.0775 18.9893 61.0402 18.9768C61.0153 18.9768 60.9905 18.952 60.9656 18.9271L52.0668 10.0034C52.0668 10.0034 52.0046 9.904 52.0046 9.85428C52.0046 9.80457 52.0295 9.74243 52.0668 9.70514C52.0916 9.68029 52.1041 9.66786 52.1414 9.65543C52.1662 9.65543 52.1911 9.643 52.2284 9.643C52.2532 9.643 52.2781 9.643 52.3154 9.65543Z" fill="#00FFFF" stroke="#00FFFF" stroke-width="2"/>
<path d="M14.0238 15.0134C14.0238 15.0134 14.0362 15.1004 14.0735 15.1376C14.0984 15.1749 14.1357 15.1998 14.1854 15.2122C14.2351 15.2246 14.2848 15.2371 14.3221 15.2122C14.3718 15.2122 14.4091 15.1749 14.4464 15.1501C18.6845 10.9741 24.0661 7.9788 30.0069 6.49981C30.069 6.48738 30.1188 6.4501 30.156 6.38795C30.1933 6.33824 30.1933 6.2761 30.1809 6.21395C30.1809 6.1891 30.156 6.15181 30.1436 6.13939C30.1188 6.11453 30.1063 6.1021 30.069 6.07724C30.0442 6.06481 30.0069 6.05239 29.982 6.05239C29.9448 6.05239 29.9199 6.05239 29.8826 6.05239C23.8548 7.54381 18.3986 10.5888 14.1108 14.8269C14.0859 14.8518 14.0735 14.8766 14.0487 14.9015C14.0362 14.9264 14.0238 14.9636 14.0238 14.9885L14.0238 15.0134Z" fill="#00FFFF" stroke="#00FFFF" stroke-width="2"/>
<path d="M6.86487 48.545C8.58001 52.4848 11.1279 56.0642 14.3593 59.0471C16.584 61.1102 19.0945 62.8502 21.8288 64.2422L21.8288 60.9362C16.758 57.9782 12.669 53.6904 10.1709 48.5325L6.86487 48.5325L6.86487 48.545Z" fill="#00FFFF" stroke="#00FFFF" stroke-width="2"/>
<path d="M5.87 28.8464C5.87 28.8464 5.87 28.9707 5.91971 29.0204C5.95699 29.0701 6.01914 29.095 6.08128 29.1074C6.14342 29.1074 6.20557 29.1074 6.25528 29.0577C6.30499 29.0204 6.34228 28.9707 6.34228 28.9086C7.15013 25.9257 8.43027 23.0547 10.133 20.4323L13.526 20.569C13.526 20.569 13.613 20.569 13.6378 20.5442C13.6751 20.5317 13.7 20.5069 13.7248 20.4696C17.441 15.4733 22.7728 11.7323 28.9374 9.78106C28.9746 9.78106 28.9995 9.7562 29.0244 9.74377C29.0492 9.71891 29.0741 9.70649 29.0865 9.6692C29.0989 9.64435 29.1113 9.60706 29.1113 9.5822C29.1113 9.55735 29.1113 9.52006 29.1113 9.4952C29.1113 9.47034 29.0865 9.43306 29.0616 9.42063C29.0368 9.39577 29.0119 9.38334 28.9871 9.37092C28.9622 9.37092 28.9249 9.34606 28.8876 9.34606C28.8504 9.34606 28.8255 9.34606 28.7882 9.35849C22.5739 11.3222 17.1924 15.088 13.4141 20.1092L10.0211 19.9849C10.0211 19.9849 9.93413 19.9849 9.89684 20.0097C9.85955 20.0222 9.82227 20.0594 9.80984 20.0843C8.03256 22.7937 6.70271 25.7269 5.87 28.8091C5.87 28.834 5.87 28.8464 5.87 28.8713L5.87 28.8464Z" fill="#00FFFF" stroke="#00FFFF" stroke-width="2"/>
<path d="M7.03859 41.5605L8.62945 43.0395L7.21259 44.4688L5.70874 42.9276L5.70874 34.1034L7.06345 35.3089L7.03859 41.5605Z" fill="#00FFFF" stroke="#00FFFF" stroke-width="2"/>
<path d="M7.39888 35.1727L5.83289 33.7807L7.23731 32.3514L8.75359 33.8925L8.75359 42.7168L7.3616 41.4367L7.39888 35.1851L7.39888 35.1727Z" fill="#00FFFF" stroke="#00FFFF" stroke-width="2"/>
<path d="M62.6431 22.6443C62.6431 22.6443 62.7177 22.6443 62.7549 22.6691C62.7922 22.694 62.8171 22.7189 62.8295 22.7561C64.8554 26.6338 66.0361 30.8968 66.2971 35.2717C66.2971 35.2965 66.2971 35.3338 66.2971 35.3587C66.2971 35.3835 66.2722 35.4084 66.2598 35.4332C66.2474 35.4581 66.2225 35.4705 66.1976 35.483C66.1728 35.483 66.1479 35.5078 66.1231 35.5078C66.0982 35.5078 66.0609 35.5078 66.0361 35.5078C66.0112 35.5078 65.9864 35.483 65.9615 35.4705C65.9366 35.4581 65.9242 35.4332 65.9118 35.4084C65.9118 35.3835 65.8869 35.3587 65.8869 35.3338C65.6384 31.0211 64.4701 26.8203 62.4691 22.9923C62.4442 22.9426 62.4442 22.8804 62.4567 22.8307C62.4691 22.781 62.5064 22.7313 62.5561 22.7064C62.5809 22.694 62.6182 22.6816 62.6555 22.6816L62.6431 22.6443Z" fill="#FF0049" stroke="#FF0049" stroke-width="2"/>
<path d="M50.5136 12.2919L56.2307 17.5492L56.2307 23.2539" stroke="#FF0049" stroke-width="2"/>
</g>
<path d="M31.009 25.2018L27.9218 25.2018L24.0534 21.931L15.8124 28.8987L28.073 28.9626L28.073 69L33.7434 64.2057L31.009 61.8938L31.009 25.2018Z" fill="#FF0049"/>
<path d="M31.192 25.0917L31.1919 61.3964L33.7436 63.3965L33.7436 14.0861L23.6574 21.9921L27.6117 25.0812L31.192 25.0812L31.192 25.0917Z" fill="#FF0049"/>
<path d="M39.3468 8.72828L41.9785 10.9136L41.9785 45.8266L48.262 51.0693L57.2778 43.5467L45.0258 43.4837L45.0258 4.00037L39.3594 8.72828L39.3468 8.72828Z" fill="#FF0049"/>
<path d="M41.4071 11.5095L39.3468 9.60372L39.3468 58.9141L47.1916 51.6573L41.4071 46.3064L41.4071 11.5095Z" fill="#FF0049"/>
<path d="M24.7781 49.5178L24.7781 68.9166C24.7781 68.9166 24.7781 68.9374 24.7781 68.9479C24.7781 68.9479 24.7781 68.9687 24.7556 68.9791C24.7556 68.9791 24.7331 68.9896 24.7218 69C24.7218 69 24.6993 69 24.688 69C24.6768 69 24.6655 69 24.6542 69C24.643 69 24.6317 69 24.6204 68.9791C24.6204 68.9791 24.6092 68.9583 24.5979 68.9479C24.5979 68.9479 24.5979 68.927 24.5979 68.9166L24.5979 49.5595L22.5593 47.6822C22.5593 47.6822 22.5367 47.651 22.5367 47.6197L22.5367 32.1007C22.5367 32.1007 22.5367 32.059 22.5593 32.0381C22.5705 32.0277 22.6043 32.0172 22.6269 32.0172C22.6494 32.0172 22.6719 32.0172 22.6944 32.0381C22.717 32.059 22.717 32.0798 22.717 32.1007L22.717 47.5884L24.7443 49.4657C24.7443 49.4657 24.7669 49.5074 24.7669 49.5283L24.7781 49.5178Z" fill="white"/>
<path d="M37.1055 9.69977L37.1055 28.9114C37.1055 28.9114 37.1055 28.9542 37.0885 28.9648L36.1169 30.1836L36.1169 59.6692C36.1169 59.6692 36.1169 59.6906 36.1169 59.7013C36.1169 59.712 36.1169 59.7227 36.0999 59.7334L34.9834 61.1339C34.9834 61.1339 34.9494 61.1553 34.9323 61.1553C34.9153 61.1553 34.8982 61.1553 34.8812 61.1339C34.8641 61.1232 34.8641 61.0911 34.8641 61.0697C34.8641 61.0484 34.8641 61.027 34.8812 61.0056L35.972 59.6265L35.972 30.1515C35.972 30.1515 35.972 30.1302 35.972 30.1195C35.972 30.1195 35.9806 30.0981 35.9891 30.0874L36.9606 28.8686L36.9606 9.68908C36.9606 9.68908 36.9606 9.6677 36.9606 9.65701C36.9606 9.64632 36.9606 9.63563 36.9777 9.62494C36.9777 9.62494 36.9947 9.60355 37.0033 9.60355C37.0118 9.60355 37.0203 9.60355 37.0288 9.60355C37.0373 9.60355 37.0459 9.60355 37.0544 9.60355C37.0629 9.60355 37.0714 9.61425 37.08 9.62494C37.08 9.62494 37.0885 9.64632 37.097 9.65701C37.1055 9.6677 37.097 9.67839 37.097 9.68908L37.1055 9.69977Z" fill="white"/>
<path d="M53.9159 43.1344C53.9159 43.1344 53.9159 43.179 53.8917 43.2013C53.8675 43.2125 53.8434 43.2236 53.8192 43.2236L48.0897 43.2236C48.0897 43.2236 48.0413 43.2236 48.0171 43.2013L46.0952 41.4283C46.0952 41.4283 46.071 41.3837 46.071 41.3614L46.071 27.6232C46.071 27.6232 46.071 27.5786 46.0952 27.5563C46.1194 27.5451 46.1436 27.534 46.1677 27.534C46.1919 27.534 46.2161 27.534 46.2403 27.5563C46.2644 27.5786 46.2644 27.6009 46.2644 27.6232L46.2644 41.3279L48.1259 43.0452L53.8192 43.0452C53.8192 43.0452 53.8675 43.0452 53.8917 43.0675C53.9038 43.0898 53.9159 43.1121 53.9159 43.1344Z" fill="white"/>
<path d="M47.1917 15.7072L47.1917 29.6915C47.1917 29.6915 47.1917 29.7124 47.1917 29.7229C47.1917 29.7334 47.1917 29.7439 47.1751 29.7544C47.1751 29.7544 47.1585 29.7754 47.1502 29.7754C47.1419 29.7754 47.1336 29.7754 47.1253 29.7754C47.117 29.7754 47.1087 29.7754 47.1004 29.7754C47.0921 29.7754 47.0838 29.7649 47.0755 29.7544C47.0755 29.7544 47.0672 29.7334 47.0589 29.7229C47.0506 29.7124 47.0589 29.702 47.0589 29.6915L47.0589 15.7387L46.0877 14.5113C46.0877 14.5113 46.071 14.4693 46.071 14.4484L46.071 4.08345C46.071 4.08345 46.071 4.04149 46.0877 4.02051C46.096 4.01002 46.1209 3.99953 46.1375 3.99953C46.1541 3.99953 46.1707 3.99953 46.1873 4.02051C46.2039 4.04149 46.2039 4.06247 46.2039 4.08345L46.2039 14.4064L47.1751 15.6338C47.1751 15.6338 47.1917 15.6758 47.1917 15.6968L47.1917 15.7072Z" fill="white"/>
<path d="M61.3759 34.2519C61.3759 34.2519 61.4877 34.2643 61.525 34.3016L66.31 39.099C66.31 39.099 66.3473 39.1487 66.3597 39.1736C66.3597 39.1984 66.3721 39.2357 66.3721 39.2606C65.9371 45.5991 63.5881 51.6643 59.6359 56.6357C55.6836 61.6071 50.302 65.2362 44.2245 67.0508C44.1872 67.0508 44.1623 67.0508 44.125 67.0508C44.0878 67.0508 44.0629 67.0259 44.038 67.0135C44.0132 66.9886 43.9883 66.9638 43.9759 66.9389C43.9635 66.9141 43.951 66.8768 43.951 66.8395L43.9511 63.0737C43.9511 63.0737 43.9759 62.9618 44.0132 62.9245C44.0505 62.8872 44.1126 62.8624 44.1623 62.8624C44.212 62.8624 44.2742 62.8872 44.3115 62.9245C44.3488 62.9618 44.3736 63.0239 44.3736 63.0737L44.3736 66.5536C56.4169 62.8375 65.0547 51.9377 65.9371 39.3227L61.2267 34.5999C61.2267 34.5999 61.177 34.5377 61.1646 34.488C61.1646 34.4507 61.1646 34.401 61.1646 34.3637C61.177 34.3265 61.2019 34.2892 61.2391 34.2643C61.2764 34.2395 61.3137 34.227 61.351 34.227L61.3759 34.2519Z" fill="#00FFFF"/>
<path d="M58.8654 25.5897L58.8654 16.4921L61.1398 18.7789L61.1398 32.6367C60.7172 30.1883 59.9466 27.8144 58.8654 25.5897Z" fill="#00FFFF"/>
<path d="M58.853 16.281C58.853 16.281 58.9152 16.281 58.94 16.2934C58.9649 16.2934 58.9897 16.3182 59.0146 16.3431L61.289 18.63C61.289 18.63 61.3512 18.7294 61.3512 18.7791L61.3512 32.6369C61.3512 32.6369 61.3512 32.699 61.3512 32.7239C61.3512 32.7488 61.3263 32.7736 61.3139 32.7985C61.3015 32.8233 61.2766 32.8358 61.2517 32.8482C61.2269 32.8606 61.202 32.873 61.1772 32.873C61.1523 32.873 61.115 32.873 61.0902 32.873C61.0653 32.873 61.0405 32.8482 61.0156 32.8358C60.9907 32.8233 60.9783 32.7985 60.9659 32.7736C60.9535 32.7488 60.941 32.7239 60.941 32.699C60.5185 30.2755 59.7603 27.9265 58.679 25.7142C58.6666 25.6894 58.6542 25.6521 58.6542 25.6148L58.6542 16.5171C58.6542 16.5171 58.679 16.4052 58.7163 16.368C58.7536 16.3307 58.8158 16.3058 58.8655 16.3058L58.853 16.281ZM59.0643 25.5402C59.8597 27.1683 60.4812 28.8586 60.9162 30.6111L60.9162 18.8661L59.0643 17.0018L59.0643 25.5402Z" fill="#00FFFF"/>
<path d="M61.2759 32.4749C61.2759 32.4749 61.338 32.5495 61.3504 32.5992C61.6114 34.1031 61.7357 35.6193 61.7357 37.1481C61.7482 40.7026 61.0397 44.2199 59.6602 47.4886C58.2806 50.7573 56.2423 53.7153 53.682 56.1761C53.6572 56.201 53.6323 56.2134 53.6075 56.2259C53.5826 56.2259 53.5578 56.2383 53.5205 56.2383C53.4832 56.2383 53.4583 56.2383 53.4335 56.2259C53.4086 56.2259 53.3838 56.201 53.3589 56.1761C53.334 56.1513 53.3216 56.1264 53.3092 56.1016C53.3092 56.0767 53.2968 56.0519 53.2968 56.0146C53.2968 55.9897 53.2968 55.9524 53.3216 55.9276C53.3216 55.9027 53.3465 55.8779 53.3713 55.8654C55.8943 53.4419 57.8953 50.546 59.25 47.327C60.6172 44.108 61.3132 40.6405 61.3007 37.1481C61.3007 35.6442 61.1764 34.1528 60.9154 32.6738C60.9154 32.6241 60.9154 32.5619 60.9527 32.5122C60.99 32.4625 61.0397 32.4376 61.0894 32.4252L61.1267 32.4252C61.1267 32.4252 61.2262 32.4501 61.2634 32.4749L61.2759 32.4749Z" fill="#00FFFF"/>
<path d="M52.3154 9.65543C52.3154 9.65543 52.3651 9.68029 52.3899 9.70514L61.2888 18.6288C61.2888 18.6288 61.3509 18.7283 61.3509 18.778C61.3509 18.8277 61.326 18.8898 61.2888 18.9271C61.2639 18.952 61.2515 18.9644 61.2142 18.9768C61.1893 18.9768 61.1645 18.9893 61.1272 18.9893C61.0899 18.9893 61.0775 18.9893 61.0402 18.9768C61.0153 18.9768 60.9905 18.952 60.9656 18.9271L52.0668 10.0034C52.0668 10.0034 52.0046 9.904 52.0046 9.85428C52.0046 9.80457 52.0295 9.74243 52.0668 9.70514C52.0916 9.68029 52.1041 9.66786 52.1414 9.65543C52.1662 9.65543 52.1911 9.643 52.2284 9.643C52.2532 9.643 52.2781 9.643 52.3154 9.65543Z" fill="#00FFFF"/>
<path d="M62.6431 22.6443C62.6431 22.6443 62.7177 22.6443 62.7549 22.6691C62.7922 22.694 62.8171 22.7189 62.8295 22.7561C64.8554 26.6338 66.0361 30.8968 66.2971 35.2717C66.2971 35.2965 66.2971 35.3338 66.2971 35.3587C66.2971 35.3835 66.2722 35.4084 66.2598 35.4332C66.2474 35.4581 66.2225 35.4705 66.1976 35.483C66.1728 35.483 66.1479 35.5078 66.1231 35.5078C66.0982 35.5078 66.0609 35.5078 66.0361 35.5078C66.0112 35.5078 65.9864 35.483 65.9615 35.4705C65.9366 35.4581 65.9242 35.4332 65.9118 35.4084C65.9118 35.3835 65.8869 35.3587 65.8869 35.3338C65.6384 31.0211 64.4701 26.8203 62.4691 22.9923C62.4442 22.9426 62.4442 22.8804 62.4567 22.8307C62.4691 22.781 62.5064 22.7313 62.5561 22.7064C62.5809 22.694 62.6182 22.6816 62.6555 22.6816L62.6431 22.6443Z" fill="#FF0049"/>
<path d="M14.0238 15.0134C14.0238 15.0134 14.0362 15.1004 14.0735 15.1376C14.0984 15.1749 14.1357 15.1998 14.1854 15.2122C14.2351 15.2246 14.2848 15.2371 14.3221 15.2122C14.3718 15.2122 14.4091 15.1749 14.4464 15.1501C18.6845 10.9741 24.0661 7.9788 30.0069 6.49981C30.069 6.48738 30.1188 6.4501 30.156 6.38795C30.1933 6.33824 30.1933 6.2761 30.1809 6.21395C30.1809 6.1891 30.156 6.15181 30.1436 6.13939C30.1188 6.11453 30.1063 6.1021 30.069 6.07724C30.0442 6.06481 30.0069 6.05239 29.982 6.05239C29.9448 6.05239 29.9199 6.05239 29.8826 6.05239C23.8548 7.54381 18.3986 10.5888 14.1108 14.8269C14.0859 14.8518 14.0735 14.8766 14.0487 14.9015C14.0362 14.9264 14.0238 14.9636 14.0238 14.9885L14.0238 15.0134Z" fill="#00FFFF"/>
<path d="M6.86487 48.5459C8.58001 52.4858 11.1279 56.0652 14.3593 59.048C16.584 61.1112 19.0945 62.8512 21.8288 64.2432L21.8288 60.9372C16.758 57.9792 12.669 53.6913 10.1709 48.5335L6.86487 48.5335L6.86487 48.5459Z" fill="#00FFFF"/>
<path d="M5.87 28.8464C5.87 28.8464 5.87 28.9707 5.91971 29.0204C5.95699 29.0701 6.01914 29.095 6.08128 29.1074C6.14342 29.1074 6.20557 29.1074 6.25528 29.0577C6.30499 29.0204 6.34228 28.9707 6.34228 28.9086C7.15013 25.9257 8.43027 23.0547 10.133 20.4323L13.526 20.569C13.526 20.569 13.613 20.569 13.6378 20.5442C13.6751 20.5317 13.7 20.5069 13.7248 20.4696C17.441 15.4733 22.7728 11.7323 28.9374 9.78106C28.9746 9.78106 28.9995 9.7562 29.0244 9.74377C29.0492 9.71891 29.0741 9.70649 29.0865 9.6692C29.0989 9.64435 29.1113 9.60706 29.1113 9.5822C29.1113 9.55735 29.1113 9.52006 29.1113 9.4952C29.1113 9.47034 29.0865 9.43306 29.0616 9.42063C29.0368 9.39577 29.0119 9.38334 28.9871 9.37092C28.9622 9.37092 28.9249 9.34606 28.8876 9.34606C28.8504 9.34606 28.8255 9.34606 28.7882 9.35849C22.5739 11.3222 17.1924 15.088 13.4141 20.1092L10.0211 19.9849C10.0211 19.9849 9.93413 19.9849 9.89684 20.0097C9.85955 20.0222 9.82227 20.0594 9.80984 20.0843C8.03256 22.7937 6.70271 25.7269 5.87 28.8091C5.87 28.834 5.87 28.8464 5.87 28.8713L5.87 28.8464Z" fill="#00FFFF"/>
<path d="M7.03859 41.5615L8.62945 43.0404L7.21259 44.4697L5.70874 42.9286L5.70874 34.1043L7.06345 35.3099L7.03859 41.5615Z" fill="#00FFFF"/>
<path d="M7.39888 35.1727L5.83289 33.7807L7.23731 32.3514L8.75359 33.8925L8.75359 42.7168L7.3616 41.4367L7.39888 35.1851L7.39888 35.1727Z" fill="#00FFFF"/>
<path d="M50.5136 12.2919L56.2307 17.5492L56.2307 23.2539" stroke="#FF0049" stroke-width="0.3"/>
<defs>
<filter id="filter0_f_898_14902" x="0.382812" y="0" width="70.9893" height="73" filterUnits="userSpaceOnUse" color-interpolation-filters="sRGB">
<feFlood flood-opacity="0" result="BackgroundImageFix"/>
<feBlend mode="normal" in="SourceGraphic" in2="BackgroundImageFix" result="shape"/>
<feGaussianBlur stdDeviation="2" result="effect1_foregroundBlur_898_14902"/>
</filter>
</defs>
</svg>
