<svg width="341" height="101" viewBox="0 0 341 101" fill="none" xmlns="http://www.w3.org/2000/svg">
<path d="M22.13 20.5H11.21L1 30.72V67.34V79.84L12 91.09L158.6 91.4L169.67 100.38L328.96 100.5L340.01 89V1H181.24L161.61 20.49H147.7" stroke="white"/>
<g clip-path="url(#clip0_898_14902)">
<path d="M45.8991 26.8545C46.7862 28.0031 47.8096 28.8787 49.0378 29.5156C50.266 30.1524 51.5965 30.5049 53.0067 30.5618C54.3827 30.6187 55.736 30.3685 57.0324 29.8226C60.4895 28.3784 62.8435 24.762 62.7526 21.0547C62.7071 19.0646 62.1043 17.2678 60.9785 15.7099C59.4547 13.6288 57.3736 12.3437 54.7807 11.9116L54.4282 11.8547V10.1717H55.0309C55.1105 10.1717 55.1446 10.1603 55.1446 10.1603C55.1446 10.1603 55.1446 10.1262 55.1446 10.0579V9.12544C55.1446 9.05721 55.1446 9.02309 55.1333 9.01172C55.1333 9.01172 55.0878 9.01172 55.0195 9.01172H52.2902C52.1083 9.01172 51.9263 9.01172 51.733 9.01172C51.6648 9.01172 51.6534 9.02309 51.6534 9.09132C51.6534 9.43249 51.6534 9.77365 51.6534 10.1148L51.8126 10.183H52.2448L52.3244 10.7971C52.3244 11.0246 52.3244 11.2406 52.3244 11.4681C52.3244 11.7524 52.0514 11.9116 51.8808 11.9571C51.7558 11.9798 51.6307 12.0139 51.5056 12.0367C51.3122 12.0708 51.1303 12.1049 50.9483 12.1618C48.3214 12.8896 46.3313 14.4817 45.0576 16.8812C44.3639 18.189 44 19.6332 44 21.1798C44 21.3959 44.0796 21.5892 44.2274 21.7143C44.3753 21.8508 44.5913 21.9076 44.796 21.8735C45.1031 21.828 45.3419 21.5437 45.3646 21.2026V20.9979C45.3988 20.543 45.4329 20.0881 45.5239 19.6219C46.0015 17.2792 47.4685 15.2891 49.5723 14.1519C51.6648 13.0147 54.1439 12.8782 56.3614 13.7652C60.0119 15.2322 62.0816 19.2125 61.1605 23.0335C60.3303 26.4565 57.419 28.9242 53.8937 29.163C51.9377 29.2995 50.1409 28.765 48.5375 27.5709C47.7983 27.0137 47.2183 26.3314 46.8089 25.7969L46.5815 25.5012L47.332 24.7507H44.671V27.4117L45.6035 26.4565L45.8991 26.8431V26.8545Z" fill="white"/>
<path d="M44.2615 13.1401C44.307 13.0605 44.3411 12.9696 44.3979 12.9127C44.7846 12.526 45.1712 12.1394 45.5579 11.7527C45.6944 11.6163 45.8649 11.6163 46.0014 11.7527C46.2288 11.9688 46.4563 12.1963 46.6724 12.4237C46.8088 12.5602 46.8088 12.7307 46.6724 12.8672C46.2857 13.2652 45.8991 13.6519 45.501 14.0385C45.3646 14.175 45.194 14.1636 45.0575 14.0385C44.8301 13.8225 44.614 13.6064 44.3979 13.3789C44.3411 13.3221 44.3183 13.2425 44.2728 13.1629L44.2615 13.1401Z" fill="white"/>
<path d="M61.172 11.6162C61.263 11.6617 61.3426 11.6958 61.3994 11.7527C61.7861 12.128 62.1727 12.5146 62.548 12.9013C62.6958 13.0491 62.6958 13.2197 62.548 13.3675C62.3319 13.5836 62.1159 13.7996 61.8998 14.0157C61.752 14.1636 61.5814 14.1522 61.4335 14.0157C61.0469 13.6404 60.6716 13.2538 60.2963 12.8785C60.1371 12.7193 60.1485 12.5601 60.2963 12.4009C60.5124 12.1848 60.7171 11.9687 60.9332 11.764C60.99 11.7072 61.081 11.6731 61.1606 11.6276L61.172 11.6162Z" fill="white"/>
</g>
<g clip-path="url(#clip1_898_14902)">
<path d="M50.2182 24.356L53.6842 20.89V15.9893" stroke="white" stroke-width="1.64917" stroke-linecap="round" stroke-linejoin="round"/>
</g>
<path d="M22.1299 20.12L40.2499 1H130.07L148 20.5" stroke="white"/>
<path d="M21.5 20L40.2499 39.7501H129.07L148 20.5" stroke="white"/>
<path d="M35 14.5L29.5 20.4L35 26" stroke="white"/>
<path d="M135 14.5L140.5 20.4L135 26" stroke="white"/>
<defs>
<clipPath id="clip0_898_14902">
<rect width="18.7526" height="21.5728" fill="white" transform="translate(44 9)"/>
</clipPath>
<clipPath id="clip1_898_14902">
<rect width="5.11517" height="10.016" fill="white" transform="matrix(-1 0 0 1 54.5088 15.1641)"/>
</clipPath>
</defs>
</svg>
