<svg width="61" height="60" viewBox="0 0 61 60" fill="none"
    xmlns="http://www.w3.org/2000/svg">
    <path d="M32.9656 28.2511L40.818 20.3987H50.7999L43.0685 12.6672H34.9378L29.9771 17.6279L25.1858 12.8366L21.3745 16.6479L32.9777 28.2511H32.9656Z" fill="#FF0049"/>
    <path d="M21.3622 30.8282L28.1257 24.0768L20.6967 16.6479L24.6774 12.6672H17.1274V26.5935L21.3622 30.8282Z" fill="#FF0049"/>
    <path d="M16.6558 26.7875V12.8855L8.98486 20.5564V30.5262L25.5366 47.078V35.6805L16.6437 26.7875H16.6558Z" fill="#FF0049"/>
    <path d="M36.9585 44.864V51.4218H40.0559V47.8525L36.9585 44.864Z" fill="white"/>
    <path d="M34.018 37.4346H29.9526V40.4836H30.969L34.018 37.4346Z" fill="white"/>
    <path d="M40.0918 40.1445V33.9134L36.946 30.7676V37.4343H34.6834L31.1626 40.9551H29.9526V44.4397H37.1154L40.5153 47.6702V51.4331H43.9394V44.7664L40.0797 40.9068V40.1566L40.0918 40.1445Z" fill="white"/>
    <path d="M50.945 37.4346H47.7871V40.1569H50.945V37.4346Z" fill="white"/>
    <path d="M47.3151 37.4345H43.9515V30.4412H37.2969L40.5758 33.7201V40.7134L44.2902 44.44H50.9448V40.6408H47.3151V37.4466V37.4345Z" fill="white"/>
    <path d="M29.9647 14.9905C29.9647 14.9905 29.9043 14.9905 29.8922 14.9663C29.868 14.9542 29.8559 14.9301 29.8438 14.9059C29.8438 14.8817 29.8317 14.8575 29.8438 14.8212C29.8438 14.797 29.868 14.7728 29.8801 14.7486L33.897 10.7316C33.897 10.7316 33.9212 10.7074 33.9454 10.6953C33.9575 10.6953 33.9817 10.6953 33.9938 10.6953H40.4911C40.4911 10.6953 40.5637 10.7074 40.5879 10.7316C40.6121 10.7558 40.6242 10.7921 40.6242 10.8284C40.6242 10.8647 40.6121 10.901 40.5879 10.9252C40.5637 10.9494 40.5274 10.9615 40.4911 10.9615H34.0543L30.0736 14.9422C30.0736 14.9422 30.0494 14.9663 30.0252 14.9784C30.0131 14.9784 29.9889 14.9784 29.9647 14.9784V14.9905Z" fill="white"/>
    <path d="M23.2131 48.4688C23.2131 48.4688 23.1768 48.4688 23.1647 48.4688C23.1526 48.4688 23.1285 48.4567 23.1164 48.4325L17.8048 43.1209C17.8048 43.1209 17.7806 43.0967 17.7685 43.0725C17.7685 43.0604 17.7685 43.0362 17.7685 43.0241V41.0399L7.32682 30.5982C7.32682 30.5982 7.29053 30.5377 7.29053 30.5014V26.4361C7.29053 26.4361 7.30263 26.3635 7.32682 26.3393C7.35102 26.3151 7.38732 26.303 7.42362 26.303C7.45992 26.303 7.49621 26.3151 7.52041 26.3393C7.54461 26.3635 7.55671 26.3998 7.55671 26.4361V30.4409L17.9984 40.8826C17.9984 40.8826 18.0347 40.9431 18.0347 40.9794V42.9636L23.2978 48.2268C23.2978 48.2268 23.3341 48.2752 23.3341 48.2994C23.3341 48.3236 23.3341 48.3599 23.3341 48.3841C23.3341 48.4083 23.3099 48.4325 23.2857 48.4446C23.2615 48.4567 23.2373 48.4688 23.2131 48.4688Z" fill="white"/>
    <path d="M50.945 20.8708H41.0115L32.9655 28.9169L28.4524 24.4038L21.689 31.1673L25.9963 35.4746V47.5497L29.9528 51.5062L36.5589 44.9H29.4809V36.9629H36.4743V29.9695H44.4235V37.0476L50.945 30.5261V20.8708Z" fill="#FF0049"/>
    <path d="M13.8363 55.1727C13.8363 55.1727 13.7516 55.1727 13.7274 55.1364C9.74674 52.5229 6.43154 49.0141 4.04799 44.8762C1.66444 40.7383 0.29722 36.1042 0.0431355 31.3371C-0.210949 26.57 0.660197 21.8029 2.58398 17.4351C4.50776 13.0673 7.42368 9.21969 11.114 6.19488C11.1503 6.15858 11.2107 6.14648 11.2591 6.14648C11.3075 6.14648 11.3559 6.17068 11.3922 6.21908L13.6669 8.79622C13.6669 8.79622 13.7274 8.89301 13.7153 8.94141C13.7153 9.00191 13.6911 9.05031 13.6427 9.0866C13.6064 9.1229 13.5459 9.1471 13.4975 9.135C13.437 9.135 13.3886 9.1108 13.3523 9.0624L11.2107 6.63045C7.61727 9.61897 4.77394 13.406 2.91066 17.6892C1.04737 21.9965 0.200426 26.6668 0.45451 31.3371C0.708594 36.0074 2.03951 40.5568 4.36257 44.61C6.68563 48.6633 9.91613 52.1236 13.8121 54.7008L15.6754 52.8133C15.6754 52.8133 15.7117 52.777 15.748 52.7649C15.7722 52.7649 15.7964 52.7528 15.8327 52.7528C15.8569 52.7528 15.8932 52.7528 15.9174 52.7649C15.9416 52.7649 15.9658 52.7891 15.99 52.8133C16.0142 52.8375 16.0263 52.8617 16.0383 52.8859C16.0383 52.9101 16.0504 52.9343 16.0504 52.9706C16.0504 52.9948 16.0504 53.0311 16.0383 53.0553C16.0383 53.0795 16.0142 53.1037 15.99 53.1279L13.9936 55.1243C13.9936 55.1243 13.9089 55.1848 13.8605 55.1848L13.8363 55.1727Z" fill="#FF0049"/>
    <path d="M60.4784 27.8645L60.0792 28.167C60.1276 29.2196 60.1397 30.2723 60.0792 31.337C59.8251 36.0073 58.4942 40.5566 56.1711 44.6099C53.8481 48.6631 50.6175 52.1235 46.7216 54.7006L46.3828 54.9426L46.5522 55.112C46.5522 55.112 46.6369 55.1725 46.6853 55.1725C46.7216 55.1725 46.77 55.1725 46.7942 55.1362C50.7748 52.5228 54.09 49.014 56.4736 44.8761C58.8571 40.7381 60.2244 36.1041 60.4784 31.337C60.5389 30.1755 60.5389 29.0139 60.4663 27.8645H60.4784Z" fill="#FF0049"/>
    <path d="M6.31047 48.1551C6.31047 48.1551 6.24997 48.1551 6.21368 48.1309C6.16528 48.1067 6.12898 48.0583 6.11688 48.0099C6.10478 47.9615 6.10478 47.901 6.11688 47.8526L8.47624 43.2428C6.18948 39.5284 4.88276 35.2936 4.67707 30.9379C4.47138 26.5821 5.36673 22.2385 7.27841 18.3305L4.06001 14.7612C4.06001 14.7612 4.02371 14.7128 4.01161 14.6886C4.01161 14.6644 3.99951 14.6281 3.99951 14.6039C3.99951 14.5797 3.99951 14.5434 4.02371 14.5192C4.02371 14.495 4.04791 14.4708 4.07211 14.4466C4.09631 14.4224 4.1205 14.4103 4.1447 14.3982C4.1689 14.3982 4.2052 14.3861 4.2294 14.3982C4.2536 14.3982 4.28989 14.3982 4.31409 14.4224C4.33829 14.4345 4.36249 14.4587 4.37459 14.4829L7.68978 18.1611C7.68978 18.1611 7.73818 18.2337 7.73818 18.27C7.73818 18.3063 7.73818 18.3547 7.71398 18.391C5.7902 22.2748 4.88276 26.5821 5.08844 30.9137C5.29413 35.2452 6.60085 39.4437 8.88761 43.1218C8.91181 43.1581 8.91181 43.1823 8.92391 43.2186C8.93601 43.2549 8.92391 43.2912 8.89971 43.3275L6.49196 48.0341C6.49196 48.0341 6.44356 48.0946 6.41936 48.1188C6.38306 48.143 6.34677 48.1551 6.31047 48.1551Z" fill="#FF0049"/>
    <path d="M55.6152 32.5353C55.6152 32.5353 55.5305 32.5232 55.5063 32.499C55.47 32.4748 55.4458 32.4385 55.4337 32.4022C55.4216 32.3659 55.4095 32.3175 55.4337 32.2812C55.4337 32.2449 55.4579 32.2086 55.4942 32.1723L60.0799 27.5746C59.2087 15.2939 50.7997 4.69491 39.0876 1.06513V4.45292C39.0876 4.45292 39.0634 4.56182 39.0271 4.59811C38.9908 4.63441 38.9304 4.65861 38.882 4.65861C38.8336 4.65861 38.7731 4.63441 38.7368 4.59811C38.7005 4.56182 38.6763 4.50132 38.6763 4.45292V0.798949C38.6763 0.798949 38.6763 0.738453 38.7005 0.702155C38.7126 0.677956 38.7368 0.653758 38.761 0.629559C38.7852 0.605361 38.8215 0.593262 38.8457 0.593262C38.882 0.593262 38.9062 0.593262 38.9425 0.593262C44.859 2.35975 50.0859 5.90483 53.9455 10.7324C57.7931 15.5721 60.0919 21.4645 60.5033 27.6472C60.5033 27.6714 60.5033 27.7077 60.4912 27.7319C60.4912 27.7561 60.467 27.7803 60.4428 27.8045L55.7846 32.4748C55.7846 32.4748 55.6878 32.5353 55.6394 32.5232L55.6152 32.5353Z" fill="#00FFFF"/>
    <path d="M55.3852 34.3138H55.3489C55.3489 34.3138 55.2521 34.2775 55.2158 34.2291C55.1795 34.1807 55.1674 34.1323 55.1795 34.0718C55.4215 32.632 55.5546 31.168 55.5546 29.716C55.5546 26.3162 54.8892 22.9405 53.5582 19.8068C52.2273 16.6731 50.2793 13.8418 47.8353 11.4946C47.8111 11.4704 47.799 11.4583 47.7869 11.4341C47.7869 11.4099 47.7627 11.3857 47.7627 11.3494C47.7627 11.3252 47.7627 11.2889 47.7748 11.2647C47.7748 11.2405 47.799 11.2163 47.8232 11.1921C47.8474 11.1679 47.8595 11.1558 47.8958 11.1437C47.92 11.1437 47.9442 11.1316 47.9805 11.1316C48.0168 11.1316 48.041 11.1316 48.0652 11.1437C48.0894 11.1437 48.1136 11.1679 48.1378 11.1921C50.6302 13.5877 52.6145 16.4553 53.9575 19.6495C55.3005 22.8316 55.9902 26.2557 55.9781 29.716C55.9781 31.2043 55.8571 32.6804 55.603 34.1444C55.603 34.1928 55.5667 34.2412 55.5304 34.2654C55.4941 34.2896 55.4457 34.3138 55.3973 34.3138H55.3852Z" fill="#00FFFF"/>
    <path d="M16.595 3.77497C16.595 3.77497 16.6555 3.77497 16.6797 3.75077C20.5877 1.53661 24.9919 0.362978 29.4565 0.375077C29.5049 0.375077 29.5533 0.350878 29.5896 0.314581C29.6259 0.278283 29.638 0.229886 29.638 0.181489C29.638 0.133092 29.6138 0.0846948 29.5896 0.048397C29.5533 0.0241985 29.5049 0 29.4565 0C24.9314 0 20.4788 1.17363 16.5103 3.42409C16.474 3.44829 16.4498 3.47249 16.4256 3.50878C16.4135 3.54508 16.4014 3.59348 16.4256 3.62978C16.4256 3.66607 16.4619 3.70237 16.4861 3.72657C16.5224 3.75077 16.5587 3.76287 16.595 3.76287V3.77497Z" fill="#00FFFF"/>
    <path d="M23.0319 4.77944C23.0319 4.77944 23.0682 4.77944 23.0803 4.77944C23.1287 4.76734 23.165 4.73104 23.1892 4.69475C23.2134 4.64635 23.2255 4.59795 23.2134 4.54956L22.3786 1.17386C22.3786 1.17386 22.3302 1.08917 22.2939 1.05287C22.2576 1.02867 22.1971 1.01657 22.1608 1.02867C22.1124 1.04077 22.0761 1.07707 22.0519 1.11337C22.0277 1.16176 22.0156 1.21016 22.0277 1.25856L22.8625 4.63425C22.8625 4.63425 22.8988 4.70685 22.923 4.73104C22.9593 4.75524 22.9956 4.76734 23.0319 4.76734V4.77944Z" fill="#00FFFF"/>
    <path d="M23.261 4.76727L23.1642 4.4043C21.4582 4.88827 19.7885 5.57792 18.0826 6.54586C18.0463 6.57006 18.0221 6.59426 17.9979 6.63056C17.9858 6.66686 17.9737 6.71525 17.9979 6.75155C17.9979 6.78785 18.0342 6.82415 18.0584 6.84835C18.0947 6.87254 18.1309 6.88464 18.1672 6.88464C18.1914 6.88464 18.2277 6.88464 18.2519 6.86045C19.9216 5.9046 21.5671 5.23915 23.2489 4.75518L23.261 4.76727Z" fill="#00FFFF"/>
    <path d="M39.9585 55.4993C33.2071 57.8344 25.6693 57.544 18.7848 54.6765L16.6069 56.8544C20.7086 58.7419 25.1006 59.8066 29.5168 59.976C33.9331 60.1454 38.2767 59.4194 42.2936 57.8344L39.9585 55.4993Z" fill="#00FFFF"/>
</svg>
