<svg width="73" height="70" viewBox="0 0 73 70" fill="none" xmlns="http://www.w3.org/2000/svg">
<g filter="url(#filter0_f_898_14902)">
<path d="M38.1519 33.2508L46.0043 25.3984H55.9862L48.2548 17.667H40.1241L35.1634 22.6277L30.3721 17.8364L26.5608 21.6476L38.164 33.2508H38.1519Z" fill="#FF0049"/>
<path d="M26.5485 35.828L33.3119 29.0766L25.883 21.6476L29.8637 17.667H22.3137V31.5932L26.5485 35.828Z" fill="#FF0049"/>
<path d="M21.8421 31.7868V17.8848L14.1711 25.5557V35.5255L30.7229 52.0773V40.6798L21.83 31.7868H21.8421Z" fill="#FF0049"/>
<path d="M42.1447 49.8643V56.4221H45.2421V52.8528L42.1447 49.8643Z" fill="white"/>
<path d="M39.2044 42.4346H35.139V45.4836H36.1554L39.2044 42.4346Z" fill="white"/>
<path d="M45.2782 45.1445V38.9134L42.1324 35.7676V42.4343H39.8698L36.349 45.9551H35.139V49.4397H42.3018L45.7017 52.6702V56.4331H49.1258V49.7664L45.2661 45.9068V45.1566L45.2782 45.1445Z" fill="white"/>
<path d="M56.1314 42.4346H52.9735V45.1569H56.1314V42.4346Z" fill="white"/>
<path d="M52.5011 42.4348H49.1375V35.4414H42.4829L45.7618 38.7203V45.7137L49.4763 49.4402H56.1309V45.6411H52.5011V42.4469V42.4348Z" fill="white"/>
<path d="M35.1513 19.9905C35.1513 19.9905 35.0908 19.9905 35.0787 19.9663C35.0545 19.9542 35.0424 19.9301 35.0303 19.9059C35.0303 19.8817 35.0182 19.8575 35.0303 19.8212C35.0303 19.797 35.0545 19.7728 35.0666 19.7486L39.0835 15.7316C39.0835 15.7316 39.1077 15.7074 39.1319 15.6953C39.144 15.6953 39.1682 15.6953 39.1803 15.6953H45.6776C45.6776 15.6953 45.7502 15.7074 45.7744 15.7316C45.7986 15.7558 45.8107 15.7921 45.8107 15.8284C45.8107 15.8647 45.7986 15.901 45.7744 15.9252C45.7502 15.9494 45.7139 15.9615 45.6776 15.9615H39.2408L35.2602 19.9422C35.2602 19.9422 35.236 19.9663 35.2118 19.9784C35.1997 19.9784 35.1755 19.9784 35.1513 19.9784V19.9905Z" fill="white"/>
<path d="M28.3997 53.4686C28.3997 53.4686 28.3634 53.4686 28.3513 53.4686C28.3392 53.4686 28.315 53.4565 28.3029 53.4323L22.9913 48.1207C22.9913 48.1207 22.9671 48.0965 22.955 48.0723C22.955 48.0602 22.955 48.036 22.955 48.0239V46.0396L12.5133 35.598C12.5133 35.598 12.4771 35.5375 12.4771 35.5012V31.4358C12.4771 31.4358 12.4891 31.3632 12.5133 31.339C12.5375 31.3148 12.5738 31.3027 12.6101 31.3027C12.6464 31.3027 12.6827 31.3148 12.7069 31.339C12.7311 31.3632 12.7432 31.3995 12.7432 31.4358V35.4407L23.1849 45.8823C23.1849 45.8823 23.2212 45.9428 23.2212 45.9791V47.9634L28.4844 53.2266C28.4844 53.2266 28.5207 53.275 28.5207 53.2992C28.5207 53.3234 28.5207 53.3597 28.5207 53.3839C28.5207 53.4081 28.4965 53.4323 28.4723 53.4444C28.4481 53.4565 28.4239 53.4686 28.3997 53.4686Z" fill="white"/>
<path d="M56.1312 25.8711H46.1978L38.1517 33.9171L33.6387 29.4041L26.8752 36.1676L31.1826 40.4749V52.5499L35.139 56.5064L41.7452 49.9002H34.6672V41.9631H41.6605V34.9697H49.6097V42.0478L56.1312 35.5263V25.8711Z" fill="#FF0049"/>
<path d="M19.0223 60.1727C19.0223 60.1727 18.9376 60.1727 18.9134 60.1364C14.9328 57.5229 11.6176 54.0141 9.23402 49.8762C6.85047 45.7383 5.48325 41.1042 5.22917 36.3371C4.97509 31.57 5.84623 26.8029 7.77001 22.4351C9.6938 18.0673 12.6097 14.2197 16.3 11.1949C16.3363 11.1586 16.3968 11.1465 16.4452 11.1465C16.4936 11.1465 16.542 11.1707 16.5783 11.2191L18.8529 13.7962C18.8529 13.7962 18.9134 13.893 18.9013 13.9414C18.9013 14.0019 18.8771 14.0503 18.8287 14.0866C18.7924 14.1229 18.7319 14.1471 18.6835 14.135C18.623 14.135 18.5746 14.1108 18.5384 14.0624L16.3968 11.6305C12.8033 14.619 9.95998 18.406 8.09669 22.6892C6.23341 26.9965 5.38646 31.6668 5.64055 36.3371C5.89463 41.0074 7.22555 45.5568 9.5486 49.61C11.8717 53.6633 15.1022 57.1236 18.9981 59.7008L20.8614 57.8133C20.8614 57.8133 20.8977 57.777 20.934 57.7649C20.9582 57.7649 20.9824 57.7528 21.0187 57.7528C21.0429 57.7528 21.0792 57.7528 21.1034 57.7649C21.1276 57.7649 21.1518 57.7891 21.176 57.8133C21.2002 57.8375 21.2123 57.8617 21.2244 57.8859C21.2244 57.9101 21.2365 57.9343 21.2365 57.9706C21.2365 57.9948 21.2365 58.0311 21.2244 58.0553C21.2244 58.0795 21.2002 58.1037 21.176 58.1279L19.1796 60.1243C19.1796 60.1243 19.0949 60.1848 19.0465 60.1848L19.0223 60.1727Z" fill="#FF0049" stroke="#FF0049" stroke-width="2"/>
<path d="M65.6645 32.8652L65.2652 33.1677C65.3136 34.2204 65.3257 35.273 65.2652 36.3377C65.0111 41.008 63.6802 45.5574 61.3571 49.6106C59.0341 53.6639 55.8036 57.1242 51.9076 59.7014L51.5688 59.9434L51.7382 60.1128C51.7382 60.1128 51.8229 60.1732 51.8713 60.1732C51.9076 60.1732 51.956 60.1733 51.9802 60.137C55.9609 57.5235 59.2761 54.0147 61.6596 49.8768C64.0432 45.7388 65.4104 41.1048 65.6645 36.3377C65.725 35.1762 65.725 34.0147 65.6524 32.8652H65.6645Z" fill="#FF0049" stroke="#FF0049" stroke-width="2"/>
<path d="M11.4965 53.1549C11.4965 53.1549 11.436 53.1549 11.3997 53.1307C11.3513 53.1065 11.315 53.0581 11.3029 53.0097C11.2908 52.9613 11.2908 52.9008 11.3029 52.8524L13.6623 48.2426C11.3755 44.5281 10.0688 40.2934 9.86311 35.9376C9.65742 31.5819 10.5528 27.2383 12.4644 23.3302L9.24604 19.7609C9.24604 19.7609 9.20975 19.7125 9.19765 19.6883C9.19765 19.6641 9.18555 19.6278 9.18555 19.6036C9.18555 19.5794 9.18555 19.5431 9.20975 19.5189C9.20975 19.4948 9.23394 19.4706 9.25814 19.4464C9.28234 19.4222 9.30654 19.4101 9.33074 19.398C9.35494 19.398 9.39123 19.3859 9.41543 19.398C9.43963 19.398 9.47593 19.398 9.50013 19.4222C9.52433 19.4343 9.54852 19.4585 9.56062 19.4827L12.8758 23.1608C12.8758 23.1608 12.9242 23.2334 12.9242 23.2697C12.9242 23.306 12.9242 23.3544 12.9 23.3907C10.9762 27.2746 10.0688 31.5819 10.2745 35.9134C10.4802 40.245 11.7869 44.4434 14.0736 48.1216C14.0978 48.1579 14.0978 48.1821 14.1099 48.2184C14.122 48.2547 14.1099 48.291 14.0857 48.3273L11.678 53.0339C11.678 53.0339 11.6296 53.0944 11.6054 53.1186C11.5691 53.1428 11.5328 53.1549 11.4965 53.1549Z" fill="#FF0049" stroke="#FF0049" stroke-width="2"/>
<path d="M60.8011 37.5358C60.8011 37.5358 60.7164 37.5237 60.6922 37.4995C60.6559 37.4753 60.6318 37.439 60.6196 37.4027C60.6076 37.3664 60.5955 37.318 60.6196 37.2817C60.6196 37.2454 60.6438 37.2091 60.6801 37.1728L65.2658 32.5751C64.3946 20.2943 55.9856 9.6954 44.2736 6.06562V9.45341C44.2736 9.45341 44.2494 9.56231 44.2131 9.5986C44.1768 9.6349 44.1163 9.6591 44.0679 9.6591C44.0195 9.6591 43.959 9.6349 43.9227 9.5986C43.8864 9.56231 43.8622 9.50181 43.8622 9.45341V5.79944C43.8622 5.79944 43.8622 5.73894 43.8864 5.70264C43.8985 5.67844 43.9227 5.65425 43.9469 5.63005C43.9711 5.60585 44.0074 5.59375 44.0316 5.59375C44.0679 5.59375 44.0921 5.59375 44.1284 5.59375C50.0449 7.36024 55.2718 10.9053 59.1314 15.7329C62.979 20.5726 65.2779 26.465 65.6892 32.6477C65.6892 32.6719 65.6892 32.7082 65.6771 32.7324C65.6771 32.7566 65.6529 32.7808 65.6287 32.805L60.9705 37.4753C60.9705 37.4753 60.8737 37.5358 60.8253 37.5237L60.8011 37.5358Z" fill="#00FFFF" stroke="#00FFFF" stroke-width="2"/>
<path d="M60.5714 39.314H60.5351C60.5351 39.314 60.4383 39.2777 60.402 39.2293C60.3657 39.1809 60.3536 39.1325 60.3657 39.072C60.6077 37.6322 60.7408 36.1682 60.7408 34.7163C60.7408 31.3164 60.0753 27.9407 58.7444 24.807C57.4135 21.6733 55.4655 18.8421 53.0214 16.4948C52.9973 16.4706 52.9852 16.4585 52.9731 16.4343C52.9731 16.4101 52.9489 16.3859 52.9489 16.3496C52.9489 16.3254 52.9489 16.2891 52.961 16.2649C52.961 16.2407 52.9851 16.2165 53.0093 16.1923C53.0335 16.1681 53.0456 16.156 53.0819 16.1439C53.1061 16.1439 53.1303 16.1318 53.1666 16.1318C53.2029 16.1318 53.2271 16.1318 53.2513 16.1439C53.2755 16.1439 53.2997 16.1681 53.3239 16.1923C55.8164 18.588 57.8007 21.4555 59.1437 24.6497C60.4867 27.8318 61.1763 31.2559 61.1642 34.7163C61.1642 36.2045 61.0433 37.6806 60.7892 39.1446C60.7892 39.193 60.7529 39.2414 60.7166 39.2656C60.6803 39.2898 60.6319 39.314 60.5835 39.314H60.5714Z" fill="#00FFFF" stroke="#00FFFF" stroke-width="2"/>
<path d="M21.781 8.77497C21.781 8.77497 21.8415 8.77497 21.8657 8.75077C25.7738 6.53661 30.1779 5.36298 34.6425 5.37508C34.6909 5.37508 34.7393 5.35088 34.7756 5.31458C34.8119 5.27828 34.824 5.22989 34.824 5.18149C34.824 5.13309 34.7998 5.08469 34.7756 5.0484C34.7393 5.0242 34.6909 5 34.6425 5C30.1174 5 25.6649 6.17363 21.6963 8.42409C21.66 8.44829 21.6358 8.47249 21.6116 8.50878C21.5995 8.54508 21.5874 8.59348 21.6116 8.62978C21.6116 8.66607 21.6479 8.70237 21.6721 8.72657C21.7084 8.75077 21.7447 8.76287 21.781 8.76287V8.77497Z" fill="#00FFFF" stroke="#00FFFF" stroke-width="2"/>
<path d="M28.2177 9.77895C28.2177 9.77895 28.254 9.77895 28.2661 9.77895C28.3145 9.76685 28.3508 9.73056 28.375 9.69426C28.3992 9.64586 28.4113 9.59746 28.3992 9.54907L27.5644 6.17338C27.5644 6.17338 27.516 6.08868 27.4797 6.05238C27.4434 6.02818 27.3829 6.01608 27.3466 6.02818C27.2982 6.04028 27.2619 6.07658 27.2377 6.11288C27.2135 6.16128 27.2014 6.20967 27.2135 6.25807L28.0483 9.63376C28.0483 9.63376 28.0846 9.70636 28.1088 9.73056C28.1451 9.75475 28.1814 9.76685 28.2177 9.76685V9.77895Z" fill="#00FFFF" stroke="#00FFFF" stroke-width="2"/>
<path d="M23.3665 11.8975H23.3535H23.3665Z" fill="#00FFFF" stroke="#00FFFF" stroke-width="2"/>
<path d="M28.4473 9.76727L28.3505 9.4043C26.6445 9.88827 24.9748 10.5779 23.2688 11.5459C23.2325 11.5701 23.2083 11.5943 23.1841 11.6306C23.172 11.6669 23.1599 11.7153 23.1841 11.7516C23.1841 11.7878 23.2204 11.8241 23.2446 11.8483C23.2809 11.8725 23.3172 11.8846 23.3535 11.8846C23.3777 11.8846 23.414 11.8846 23.4382 11.8604C25.1079 10.9046 26.7534 10.2391 28.4352 9.75518L28.4473 9.76727Z" fill="#00FFFF" stroke="#00FFFF" stroke-width="2"/>
<path d="M45.1445 60.4995C38.3931 62.8347 30.8553 62.5443 23.9708 59.6768L21.793 61.8546C25.8946 63.7421 30.2866 64.8068 34.7029 64.9762C39.1191 65.1456 43.4627 64.4197 47.4797 62.8347L45.1445 60.4995Z" fill="#00FFFF" stroke="#00FFFF" stroke-width="2"/>
</g>
<path d="M38.1519 33.2508L46.0043 25.3984H55.9862L48.2548 17.667H40.1241L35.1634 22.6277L30.3721 17.8364L26.5608 21.6476L38.164 33.2508H38.1519Z" fill="#FF0049"/>
<path d="M26.5485 35.828L33.3119 29.0766L25.883 21.6476L29.8637 17.667H22.3137V31.5932L26.5485 35.828Z" fill="#FF0049"/>
<path d="M21.8421 31.7868V17.8848L14.1711 25.5557V35.5255L30.7229 52.0773V40.6798L21.83 31.7868H21.8421Z" fill="#FF0049"/>
<path d="M42.1447 49.8643V56.4221H45.2421V52.8528L42.1447 49.8643Z" fill="white"/>
<path d="M39.2044 42.4346H35.139V45.4836H36.1554L39.2044 42.4346Z" fill="white"/>
<path d="M45.2782 45.1445V38.9134L42.1324 35.7676V42.4343H39.8698L36.349 45.9551H35.139V49.4397H42.3018L45.7017 52.6702V56.4331H49.1258V49.7664L45.2661 45.9068V45.1566L45.2782 45.1445Z" fill="white"/>
<path d="M56.1314 42.4346H52.9735V45.1569H56.1314V42.4346Z" fill="white"/>
<path d="M52.5011 42.4348H49.1375V35.4414H42.4829L45.7618 38.7203V45.7137L49.4763 49.4402H56.1309V45.6411H52.5011V42.4469V42.4348Z" fill="white"/>
<path d="M35.1513 19.9905C35.1513 19.9905 35.0908 19.9905 35.0787 19.9663C35.0545 19.9542 35.0424 19.9301 35.0303 19.9059C35.0303 19.8817 35.0182 19.8575 35.0303 19.8212C35.0303 19.797 35.0545 19.7728 35.0666 19.7486L39.0835 15.7316C39.0835 15.7316 39.1077 15.7074 39.1319 15.6953C39.144 15.6953 39.1682 15.6953 39.1803 15.6953H45.6776C45.6776 15.6953 45.7502 15.7074 45.7744 15.7316C45.7986 15.7558 45.8107 15.7921 45.8107 15.8284C45.8107 15.8647 45.7986 15.901 45.7744 15.9252C45.7502 15.9494 45.7139 15.9615 45.6776 15.9615H39.2408L35.2602 19.9422C35.2602 19.9422 35.236 19.9663 35.2118 19.9784C35.1997 19.9784 35.1755 19.9784 35.1513 19.9784V19.9905Z" fill="white"/>
<path d="M28.3997 53.4686C28.3997 53.4686 28.3634 53.4686 28.3513 53.4686C28.3392 53.4686 28.315 53.4565 28.3029 53.4323L22.9913 48.1207C22.9913 48.1207 22.9671 48.0965 22.955 48.0723C22.955 48.0602 22.955 48.036 22.955 48.0239V46.0396L12.5133 35.598C12.5133 35.598 12.4771 35.5375 12.4771 35.5012V31.4358C12.4771 31.4358 12.4891 31.3632 12.5133 31.339C12.5375 31.3148 12.5738 31.3027 12.6101 31.3027C12.6464 31.3027 12.6827 31.3148 12.7069 31.339C12.7311 31.3632 12.7432 31.3995 12.7432 31.4358V35.4407L23.1849 45.8823C23.1849 45.8823 23.2212 45.9428 23.2212 45.9791V47.9634L28.4844 53.2266C28.4844 53.2266 28.5207 53.275 28.5207 53.2992C28.5207 53.3234 28.5207 53.3597 28.5207 53.3839C28.5207 53.4081 28.4965 53.4323 28.4723 53.4444C28.4481 53.4565 28.4239 53.4686 28.3997 53.4686Z" fill="white"/>
<path d="M56.1312 25.8711H46.1978L38.1517 33.9171L33.6387 29.4041L26.8752 36.1676L31.1826 40.4749V52.5499L35.139 56.5064L41.7452 49.9002H34.6672V41.9631H41.6605V34.9697H49.6097V42.0478L56.1312 35.5263V25.8711Z" fill="#FF0049"/>
<path d="M19.0223 60.1727C19.0223 60.1727 18.9376 60.1727 18.9134 60.1364C14.9328 57.5229 11.6176 54.0141 9.23402 49.8762C6.85047 45.7383 5.48325 41.1042 5.22917 36.3371C4.97509 31.57 5.84623 26.8029 7.77001 22.4351C9.6938 18.0673 12.6097 14.2197 16.3 11.1949C16.3363 11.1586 16.3968 11.1465 16.4452 11.1465C16.4936 11.1465 16.542 11.1707 16.5783 11.2191L18.8529 13.7962C18.8529 13.7962 18.9134 13.893 18.9013 13.9414C18.9013 14.0019 18.8771 14.0503 18.8287 14.0866C18.7924 14.1229 18.7319 14.1471 18.6835 14.135C18.623 14.135 18.5746 14.1108 18.5384 14.0624L16.3968 11.6305C12.8033 14.619 9.95998 18.406 8.09669 22.6892C6.23341 26.9965 5.38646 31.6668 5.64055 36.3371C5.89463 41.0074 7.22555 45.5568 9.5486 49.61C11.8717 53.6633 15.1022 57.1236 18.9981 59.7008L20.8614 57.8133C20.8614 57.8133 20.8977 57.777 20.934 57.7649C20.9582 57.7649 20.9824 57.7528 21.0187 57.7528C21.0429 57.7528 21.0792 57.7528 21.1034 57.7649C21.1276 57.7649 21.1518 57.7891 21.176 57.8133C21.2002 57.8375 21.2123 57.8617 21.2244 57.8859C21.2244 57.9101 21.2365 57.9343 21.2365 57.9706C21.2365 57.9948 21.2365 58.0311 21.2244 58.0553C21.2244 58.0795 21.2002 58.1037 21.176 58.1279L19.1796 60.1243C19.1796 60.1243 19.0949 60.1848 19.0465 60.1848L19.0223 60.1727Z" fill="#FF0049"/>
<path d="M65.6645 32.8643L65.2652 33.1667C65.3136 34.2194 65.3257 35.272 65.2652 36.3367C65.0111 41.0071 63.6802 45.5564 61.3571 49.6096C59.0341 53.6629 55.8036 57.1233 51.9076 59.7004L51.5688 59.9424L51.7382 60.1118C51.7382 60.1118 51.8229 60.1723 51.8713 60.1723C51.9076 60.1723 51.956 60.1723 51.9802 60.136C55.9609 57.5225 59.2761 54.0138 61.6596 49.8758C64.0432 45.7379 65.4104 41.1038 65.6645 36.3367C65.725 35.1752 65.725 34.0137 65.6524 32.8643H65.6645Z" fill="#FF0049"/>
<path d="M11.4965 53.1549C11.4965 53.1549 11.436 53.1549 11.3997 53.1307C11.3513 53.1065 11.315 53.0581 11.3029 53.0097C11.2908 52.9613 11.2908 52.9008 11.3029 52.8524L13.6623 48.2426C11.3755 44.5281 10.0688 40.2934 9.86311 35.9376C9.65742 31.5819 10.5528 27.2383 12.4644 23.3302L9.24604 19.7609C9.24604 19.7609 9.20975 19.7125 9.19765 19.6883C9.19765 19.6641 9.18555 19.6278 9.18555 19.6036C9.18555 19.5794 9.18555 19.5431 9.20975 19.5189C9.20975 19.4948 9.23394 19.4706 9.25814 19.4464C9.28234 19.4222 9.30654 19.4101 9.33074 19.398C9.35494 19.398 9.39123 19.3859 9.41543 19.398C9.43963 19.398 9.47593 19.398 9.50013 19.4222C9.52433 19.4343 9.54852 19.4585 9.56062 19.4827L12.8758 23.1608C12.8758 23.1608 12.9242 23.2334 12.9242 23.2697C12.9242 23.306 12.9242 23.3544 12.9 23.3907C10.9762 27.2746 10.0688 31.5819 10.2745 35.9134C10.4802 40.245 11.7869 44.4434 14.0736 48.1216C14.0978 48.1579 14.0978 48.1821 14.1099 48.2184C14.122 48.2547 14.1099 48.291 14.0857 48.3273L11.678 53.0339C11.678 53.0339 11.6296 53.0944 11.6054 53.1186C11.5691 53.1428 11.5328 53.1549 11.4965 53.1549Z" fill="#FF0049"/>
<path d="M60.801 37.5358C60.801 37.5358 60.7163 37.5237 60.6921 37.4995C60.6558 37.4753 60.6316 37.439 60.6195 37.4027C60.6074 37.3664 60.5953 37.318 60.6195 37.2817C60.6195 37.2454 60.6437 37.2091 60.68 37.1728L65.2656 32.5751C64.3945 20.2943 55.9855 9.6954 44.2734 6.06562V9.45341C44.2734 9.45341 44.2492 9.56231 44.2129 9.5986C44.1766 9.6349 44.1161 9.6591 44.0677 9.6591C44.0194 9.6591 43.9589 9.6349 43.9226 9.5986C43.8863 9.56231 43.8621 9.50181 43.8621 9.45341V5.79944C43.8621 5.79944 43.8621 5.73894 43.8863 5.70264C43.8984 5.67844 43.9226 5.65425 43.9468 5.63005C43.971 5.60585 44.0073 5.59375 44.0315 5.59375C44.0677 5.59375 44.0919 5.59375 44.1282 5.59375C50.0448 7.36024 55.2717 10.9053 59.1313 15.7329C62.9789 20.5726 65.2777 26.465 65.6891 32.6477C65.6891 32.6719 65.6891 32.7082 65.677 32.7324C65.677 32.7566 65.6528 32.7808 65.6286 32.805L60.9704 37.4753C60.9704 37.4753 60.8736 37.5358 60.8252 37.5237L60.801 37.5358Z" fill="#00FFFF"/>
<path d="M60.5713 39.314H60.535C60.535 39.314 60.4382 39.2777 60.4019 39.2293C60.3656 39.1809 60.3535 39.1325 60.3656 39.072C60.6076 37.6322 60.7406 36.1682 60.7406 34.7163C60.7406 31.3164 60.0752 27.9407 58.7443 24.807C57.4134 21.6733 55.4654 18.8421 53.0213 16.4948C52.9971 16.4706 52.985 16.4585 52.9729 16.4343C52.9729 16.4101 52.9487 16.3859 52.9487 16.3496C52.9487 16.3254 52.9487 16.2891 52.9608 16.2649C52.9608 16.2407 52.985 16.2165 53.0092 16.1923C53.0334 16.1681 53.0455 16.156 53.0818 16.1439C53.106 16.1439 53.1302 16.1318 53.1665 16.1318C53.2028 16.1318 53.227 16.1318 53.2512 16.1439C53.2754 16.1439 53.2996 16.1681 53.3238 16.1923C55.8163 18.588 57.8005 21.4555 59.1435 24.6497C60.4866 27.8318 61.1762 31.2559 61.1641 34.7163C61.1641 36.2045 61.0431 37.6806 60.789 39.1446C60.789 39.193 60.7528 39.2414 60.7165 39.2656C60.6802 39.2898 60.6318 39.314 60.5834 39.314H60.5713Z" fill="#00FFFF"/>
<path d="M21.7808 8.77497C21.7808 8.77497 21.8413 8.77497 21.8655 8.75077C25.7735 6.53661 30.1777 5.36298 34.6423 5.37508C34.6907 5.37508 34.7391 5.35088 34.7754 5.31458C34.8117 5.27828 34.8238 5.22989 34.8238 5.18149C34.8238 5.13309 34.7996 5.08469 34.7754 5.0484C34.7391 5.0242 34.6907 5 34.6423 5C30.1172 5 25.6646 6.17363 21.6961 8.42409C21.6598 8.44829 21.6356 8.47249 21.6114 8.50878C21.5993 8.54508 21.5872 8.59348 21.6114 8.62978C21.6114 8.66607 21.6477 8.70237 21.6719 8.72657C21.7082 8.75077 21.7445 8.76287 21.7808 8.76287V8.77497Z" fill="#00FFFF"/>
<path d="M28.2175 9.77895C28.2175 9.77895 28.2538 9.77895 28.2659 9.77895C28.3143 9.76685 28.3506 9.73056 28.3748 9.69426C28.399 9.64586 28.4111 9.59746 28.399 9.54907L27.5641 6.17338C27.5641 6.17338 27.5157 6.08868 27.4794 6.05238C27.4431 6.02818 27.3826 6.01608 27.3463 6.02818C27.2979 6.04028 27.2616 6.07658 27.2374 6.11288C27.2132 6.16128 27.2011 6.20967 27.2132 6.25807L28.0481 9.63376C28.0481 9.63376 28.0844 9.70636 28.1086 9.73056C28.1449 9.75475 28.1812 9.76685 28.2175 9.76685V9.77895Z" fill="#00FFFF"/>
<path d="M28.4471 9.76727L28.3503 9.4043C26.6443 9.88827 24.9746 10.5779 23.2686 11.5459C23.2323 11.5701 23.2081 11.5943 23.1839 11.6306C23.1718 11.6669 23.1597 11.7153 23.1839 11.7516C23.1839 11.7878 23.2202 11.8241 23.2444 11.8483C23.2807 11.8725 23.317 11.8846 23.3533 11.8846C23.3775 11.8846 23.4138 11.8846 23.438 11.8604C25.1077 10.9046 26.7532 10.2391 28.435 9.75518L28.4471 9.76727Z" fill="#00FFFF"/>
<path d="M45.1445 60.4995C38.3931 62.8347 30.8553 62.5443 23.9708 59.6768L21.793 61.8546C25.8946 63.7421 30.2866 64.8068 34.7029 64.9762C39.1191 65.1456 43.4627 64.4197 47.4797 62.8347L45.1445 60.4995Z" fill="#00FFFF"/>
<defs>
<filter id="filter0_f_898_14902" x="0.186035" y="0" width="72.4545" height="70" filterUnits="userSpaceOnUse" color-interpolation-filters="sRGB">
<feFlood flood-opacity="0" result="BackgroundImageFix"/>
<feBlend mode="normal" in="SourceGraphic" in2="BackgroundImageFix" result="shape"/>
<feGaussianBlur stdDeviation="2" result="effect1_foregroundBlur_898_14902"/>
</filter>
</defs>
</svg>
