<svg width="73" height="70" viewBox="0 0 73 70" fill="none" xmlns="http://www.w3.org/2000/svg">
<g filter="url(#filter0_f_898_14902)">
<path d="M37.9658 33.2508L45.8183 25.3984H55.8001L48.0687 17.667H39.938L34.9773 22.6277L30.186 17.8364L26.3748 21.6476L37.9779 33.2508H37.9658Z" fill="#00FFFF"/>
<path d="M26.3624 35.828L33.1259 29.0766L25.697 21.6476L29.6776 17.667H22.1277V31.5932L26.3624 35.828Z" fill="#00FFFF"/>
<path d="M21.656 31.7868V17.8848L13.9851 25.5557V35.5255L30.5369 52.0773V40.6798L21.6439 31.7868H21.656Z" fill="#00FFFF"/>
<path d="M41.9587 49.8643V56.4221H45.0562V52.8528L41.9587 49.8643Z" fill="white"/>
<path d="M39.0182 42.4346H34.9529V45.4836H35.9692L39.0182 42.4346Z" fill="white"/>
<path d="M45.0921 45.1445V38.9134L41.9463 35.7676V42.4343H39.6837L36.1628 45.9551H34.9529V49.4397H42.1156L45.5155 52.6702V56.4331H48.9396V49.7664L45.08 45.9068V45.1566L45.0921 45.1445Z" fill="white"/>
<path d="M55.9455 42.4346H52.7876V45.1569H55.9455V42.4346Z" fill="white"/>
<path d="M52.3151 42.4348H48.9515V35.4414H42.2969L45.5758 38.7203V45.7137L49.2902 49.4402H55.9448V45.6411H52.3151V42.4469V42.4348Z" fill="white"/>
<path d="M34.9652 19.9905C34.9652 19.9905 34.9047 19.9905 34.8926 19.9663C34.8684 19.9542 34.8563 19.9301 34.8442 19.9059C34.8442 19.8817 34.8321 19.8575 34.8442 19.8212C34.8442 19.797 34.8684 19.7728 34.8805 19.7486L38.8975 15.7316C38.8975 15.7316 38.9217 15.7074 38.9459 15.6953C38.958 15.6953 38.9822 15.6953 38.9943 15.6953H45.4916C45.4916 15.6953 45.5642 15.7074 45.5884 15.7316C45.6126 15.7558 45.6247 15.7921 45.6247 15.8284C45.6247 15.8647 45.6126 15.901 45.5884 15.9252C45.5642 15.9494 45.5279 15.9615 45.4916 15.9615H39.0548L35.0741 19.9422C35.0741 19.9422 35.0499 19.9663 35.0257 19.9784C35.0136 19.9784 34.9894 19.9784 34.9652 19.9784V19.9905Z" fill="white"/>
<path d="M28.2136 53.4686C28.2136 53.4686 28.1773 53.4686 28.1652 53.4686C28.1531 53.4686 28.1289 53.4565 28.1168 53.4323L22.8053 48.1207C22.8053 48.1207 22.7811 48.0965 22.769 48.0723C22.769 48.0602 22.769 48.036 22.769 48.0239V46.0396L12.3273 35.598C12.3273 35.598 12.291 35.5375 12.291 35.5012V31.4358C12.291 31.4358 12.3031 31.3632 12.3273 31.339C12.3515 31.3148 12.3878 31.3027 12.4241 31.3027C12.4604 31.3027 12.4967 31.3148 12.5209 31.339C12.5451 31.3632 12.5572 31.3995 12.5572 31.4358V35.4407L22.9989 45.8823C22.9989 45.8823 23.0352 45.9428 23.0352 45.9791V47.9634L28.2983 53.2266C28.2983 53.2266 28.3346 53.275 28.3346 53.2992C28.3346 53.3234 28.3346 53.3597 28.3346 53.3839C28.3346 53.4081 28.3104 53.4323 28.2862 53.4444C28.262 53.4565 28.2378 53.4686 28.2136 53.4686Z" fill="white"/>
<path d="M55.9452 25.8711H46.0117L37.9657 33.9171L33.4527 29.4041L26.6892 36.1676L30.9965 40.4749V52.5499L34.953 56.5064L41.5592 49.9002H34.4811V41.9631H41.4745V34.9697H49.4237V42.0478L55.9452 35.5263V25.8711Z" fill="#00FFFF"/>
<path d="M18.8363 60.1727C18.8363 60.1727 18.7516 60.1727 18.7274 60.1364C14.7467 57.5229 11.4315 54.0141 9.04799 49.8762C6.66444 45.7383 5.29722 41.1042 5.04314 36.3371C4.78905 31.57 5.6602 26.8029 7.58398 22.4351C9.50776 18.0673 12.4237 14.2197 16.114 11.1949C16.1503 11.1586 16.2107 11.1465 16.2591 11.1465C16.3075 11.1465 16.3559 11.1707 16.3922 11.2191L18.6669 13.7962C18.6669 13.7962 18.7274 13.893 18.7153 13.9414C18.7153 14.0019 18.6911 14.0503 18.6427 14.0866C18.6064 14.1229 18.5459 14.1471 18.4975 14.135C18.437 14.135 18.3886 14.1108 18.3523 14.0624L16.2107 11.6305C12.6173 14.619 9.77394 18.406 7.91066 22.6892C6.04737 26.9965 5.20043 31.6668 5.45451 36.3371C5.70859 41.0074 7.03951 45.5568 9.36257 49.61C11.6856 53.6633 14.9161 57.1236 18.8121 59.7008L20.6754 57.8133C20.6754 57.8133 20.7117 57.777 20.748 57.7649C20.7722 57.7649 20.7964 57.7528 20.8327 57.7528C20.8569 57.7528 20.8932 57.7528 20.9174 57.7649C20.9416 57.7649 20.9658 57.7891 20.99 57.8133C21.0142 57.8375 21.0263 57.8617 21.0383 57.8859C21.0383 57.9101 21.0504 57.9343 21.0504 57.9706C21.0504 57.9948 21.0504 58.0311 21.0383 58.0553C21.0383 58.0795 21.0142 58.1037 20.99 58.1279L18.9936 60.1243C18.9936 60.1243 18.9089 60.1848 18.8605 60.1848L18.8363 60.1727Z" fill="#00FFFF" stroke="#00FFFF" stroke-width="2"/>
<path d="M65.4784 32.8652L65.0792 33.1677C65.1276 34.2204 65.1397 35.273 65.0792 36.3377C64.8251 41.008 63.4942 45.5574 61.1711 49.6106C58.8481 53.6639 55.6175 57.1242 51.7216 59.7014L51.3828 59.9434L51.5522 60.1128C51.5522 60.1128 51.6369 60.1732 51.6853 60.1732C51.7216 60.1732 51.77 60.1733 51.7942 60.137C55.7748 57.5235 59.09 54.0147 61.4736 49.8768C63.8571 45.7388 65.2244 41.1048 65.4784 36.3377C65.5389 35.1762 65.5389 34.0147 65.4663 32.8652H65.4784Z" fill="#00FFFF" stroke="#00FFFF" stroke-width="2"/>
<path d="M11.3105 53.1549C11.3105 53.1549 11.25 53.1549 11.2137 53.1307C11.1653 53.1065 11.129 53.0581 11.1169 53.0097C11.1048 52.9613 11.1048 52.9008 11.1169 52.8524L13.4762 48.2426C11.1895 44.5281 9.88276 40.2934 9.67707 35.9376C9.47138 31.5819 10.3667 27.2383 12.2784 23.3302L9.06001 19.7609C9.06001 19.7609 9.02371 19.7125 9.01161 19.6883C9.01161 19.6641 8.99951 19.6278 8.99951 19.6036C8.99951 19.5794 8.99951 19.5431 9.02371 19.5189C9.02371 19.4948 9.04791 19.4706 9.07211 19.4464C9.09631 19.4222 9.1205 19.4101 9.1447 19.398C9.1689 19.398 9.2052 19.3859 9.2294 19.398C9.2536 19.398 9.28989 19.398 9.31409 19.4222C9.33829 19.4343 9.36249 19.4585 9.37459 19.4827L12.6898 23.1608C12.6898 23.1608 12.7382 23.2334 12.7382 23.2697C12.7382 23.306 12.7382 23.3544 12.714 23.3907C10.7902 27.2746 9.88276 31.5819 10.0884 35.9134C10.2941 40.245 11.6009 44.4434 13.8876 48.1216C13.9118 48.1579 13.9118 48.1821 13.9239 48.2184C13.936 48.2547 13.9239 48.291 13.8997 48.3273L11.492 53.0339C11.492 53.0339 11.4436 53.0944 11.4194 53.1186C11.3831 53.1428 11.3468 53.1549 11.3105 53.1549Z" fill="#00FFFF" stroke="#00FFFF" stroke-width="2"/>
<path d="M60.6152 37.5358C60.6152 37.5358 60.5305 37.5237 60.5063 37.4995C60.47 37.4753 60.4458 37.439 60.4337 37.4027C60.4216 37.3664 60.4095 37.318 60.4337 37.2817C60.4337 37.2454 60.4579 37.2091 60.4942 37.1728L65.0799 32.5751C64.2087 20.2943 55.7997 9.6954 44.0876 6.06562V9.45341C44.0876 9.45341 44.0634 9.56231 44.0271 9.5986C43.9908 9.6349 43.9304 9.6591 43.882 9.6591C43.8336 9.6591 43.7731 9.6349 43.7368 9.5986C43.7005 9.56231 43.6763 9.50181 43.6763 9.45341V5.79944C43.6763 5.79944 43.6763 5.73894 43.7005 5.70264C43.7126 5.67844 43.7368 5.65425 43.761 5.63005C43.7852 5.60585 43.8215 5.59375 43.8457 5.59375C43.882 5.59375 43.9062 5.59375 43.9425 5.59375C49.859 7.36024 55.0859 10.9053 58.9455 15.7329C62.7931 20.5726 65.0919 26.465 65.5033 32.6477C65.5033 32.6719 65.5033 32.7082 65.4912 32.7324C65.4912 32.7566 65.467 32.7808 65.4428 32.805L60.7846 37.4753C60.7846 37.4753 60.6878 37.5358 60.6394 37.5237L60.6152 37.5358Z" fill="#FF0049" stroke="#FF005C" stroke-width="2"/>
<path d="M60.3852 39.314H60.3489C60.3489 39.314 60.2521 39.2777 60.2158 39.2293C60.1795 39.1809 60.1674 39.1325 60.1795 39.072C60.4215 37.6322 60.5546 36.1682 60.5546 34.7163C60.5546 31.3164 59.8892 27.9407 58.5582 24.807C57.2273 21.6733 55.2793 18.8421 52.8353 16.4948C52.8111 16.4706 52.799 16.4585 52.7869 16.4343C52.7869 16.4101 52.7627 16.3859 52.7627 16.3496C52.7627 16.3254 52.7627 16.2891 52.7748 16.2649C52.7748 16.2407 52.799 16.2165 52.8232 16.1923C52.8474 16.1681 52.8595 16.156 52.8958 16.1439C52.92 16.1439 52.9442 16.1318 52.9805 16.1318C53.0168 16.1318 53.041 16.1318 53.0652 16.1439C53.0894 16.1439 53.1136 16.1681 53.1378 16.1923C55.6302 18.588 57.6145 21.4555 58.9575 24.6497C60.3005 27.8318 60.9902 31.2559 60.9781 34.7163C60.9781 36.2045 60.8571 37.6806 60.603 39.1446C60.603 39.193 60.5667 39.2414 60.5304 39.2656C60.4941 39.2898 60.4457 39.314 60.3973 39.314H60.3852Z" fill="#FF0049" stroke="#FF005C" stroke-width="2"/>
<path d="M21.595 8.77497C21.595 8.77497 21.6555 8.77497 21.6797 8.75077C25.5877 6.53661 29.9919 5.36298 34.4565 5.37508C34.5049 5.37508 34.5533 5.35088 34.5896 5.31458C34.6259 5.27828 34.638 5.22989 34.638 5.18149C34.638 5.13309 34.6138 5.08469 34.5896 5.0484C34.5533 5.0242 34.5049 5 34.4565 5C29.9314 5 25.4788 6.17363 21.5103 8.42409C21.474 8.44829 21.4498 8.47249 21.4256 8.50878C21.4135 8.54508 21.4014 8.59348 21.4256 8.62978C21.4256 8.66607 21.4619 8.70237 21.4861 8.72657C21.5224 8.75077 21.5587 8.76287 21.595 8.76287V8.77497Z" fill="#FF0049" stroke="#FF005C" stroke-width="2"/>
<path d="M28.0317 9.77895C28.0317 9.77895 28.068 9.77895 28.0801 9.77895C28.1285 9.76685 28.1648 9.73056 28.189 9.69426C28.2132 9.64586 28.2253 9.59746 28.2132 9.54907L27.3783 6.17338C27.3783 6.17338 27.3299 6.08868 27.2936 6.05238C27.2573 6.02818 27.1968 6.01608 27.1605 6.02818C27.1121 6.04028 27.0758 6.07658 27.0517 6.11288C27.0275 6.16128 27.0154 6.20967 27.0275 6.25807L27.8623 9.63376C27.8623 9.63376 27.8986 9.70636 27.9228 9.73056C27.9591 9.75475 27.9954 9.76685 28.0317 9.76685V9.77895Z" fill="#FF0049" stroke="#FF005C" stroke-width="2"/>
<path d="M23.1805 11.8975H23.1675H23.1805Z" fill="#FF0049" stroke="#FF005C" stroke-width="2"/>
<path d="M28.2613 9.76727L28.1645 9.4043C26.4585 9.88827 24.7888 10.5779 23.0828 11.5459C23.0465 11.5701 23.0223 11.5943 22.9981 11.6306C22.986 11.6669 22.9739 11.7153 22.9981 11.7516C22.9981 11.7878 23.0344 11.8241 23.0586 11.8483C23.0949 11.8725 23.1312 11.8846 23.1675 11.8846C23.1917 11.8846 23.228 11.8846 23.2522 11.8604C24.9219 10.9046 26.5674 10.2391 28.2492 9.75518L28.2613 9.76727Z" fill="#FF0049" stroke="#FF005C" stroke-width="2"/>
<path d="M44.9585 60.4995C38.2071 62.8347 30.6693 62.5443 23.7848 59.6768L21.6069 61.8546C25.7086 63.7421 30.1006 64.8068 34.5168 64.9762C38.9331 65.1456 43.2767 64.4197 47.2936 62.8347L44.9585 60.4995Z" fill="#FF0049" stroke="#FF005C" stroke-width="2"/>
</g>
<path d="M37.9658 33.2508L45.8183 25.3984H55.8001L48.0687 17.667H39.938L34.9773 22.6277L30.186 17.8364L26.3748 21.6476L37.9779 33.2508H37.9658Z" fill="#00FFFF"/>
<path d="M26.3624 35.828L33.1259 29.0766L25.697 21.6476L29.6776 17.667H22.1277V31.5932L26.3624 35.828Z" fill="#00FFFF"/>
<path d="M21.656 31.7868V17.8848L13.9851 25.5557V35.5255L30.5369 52.0773V40.6798L21.6439 31.7868H21.656Z" fill="#00FFFF"/>
<path d="M41.9587 49.8643V56.4221H45.0562V52.8528L41.9587 49.8643Z" fill="white"/>
<path d="M39.0182 42.4346H34.9529V45.4836H35.9692L39.0182 42.4346Z" fill="white"/>
<path d="M45.0921 45.1445V38.9134L41.9463 35.7676V42.4343H39.6837L36.1628 45.9551H34.9529V49.4397H42.1156L45.5155 52.6702V56.4331H48.9396V49.7664L45.08 45.9068V45.1566L45.0921 45.1445Z" fill="white"/>
<path d="M55.9455 42.4346H52.7876V45.1569H55.9455V42.4346Z" fill="white"/>
<path d="M52.3151 42.4348H48.9515V35.4414H42.2969L45.5758 38.7203V45.7137L49.2902 49.4402H55.9448V45.6411H52.3151V42.4469V42.4348Z" fill="white"/>
<path d="M34.9652 19.9905C34.9652 19.9905 34.9047 19.9905 34.8926 19.9663C34.8684 19.9542 34.8563 19.9301 34.8442 19.9059C34.8442 19.8817 34.8321 19.8575 34.8442 19.8212C34.8442 19.797 34.8684 19.7728 34.8805 19.7486L38.8975 15.7316C38.8975 15.7316 38.9217 15.7074 38.9459 15.6953C38.958 15.6953 38.9822 15.6953 38.9943 15.6953H45.4916C45.4916 15.6953 45.5642 15.7074 45.5884 15.7316C45.6126 15.7558 45.6247 15.7921 45.6247 15.8284C45.6247 15.8647 45.6126 15.901 45.5884 15.9252C45.5642 15.9494 45.5279 15.9615 45.4916 15.9615H39.0548L35.0741 19.9422C35.0741 19.9422 35.0499 19.9663 35.0257 19.9784C35.0136 19.9784 34.9894 19.9784 34.9652 19.9784V19.9905Z" fill="white"/>
<path d="M28.2136 53.4686C28.2136 53.4686 28.1773 53.4686 28.1652 53.4686C28.1531 53.4686 28.1289 53.4565 28.1168 53.4323L22.8053 48.1207C22.8053 48.1207 22.7811 48.0965 22.769 48.0723C22.769 48.0602 22.769 48.036 22.769 48.0239V46.0396L12.3273 35.598C12.3273 35.598 12.291 35.5375 12.291 35.5012V31.4358C12.291 31.4358 12.3031 31.3632 12.3273 31.339C12.3515 31.3148 12.3878 31.3027 12.4241 31.3027C12.4604 31.3027 12.4967 31.3148 12.5209 31.339C12.5451 31.3632 12.5572 31.3995 12.5572 31.4358V35.4407L22.9989 45.8823C22.9989 45.8823 23.0352 45.9428 23.0352 45.9791V47.9634L28.2983 53.2266C28.2983 53.2266 28.3346 53.275 28.3346 53.2992C28.3346 53.3234 28.3346 53.3597 28.3346 53.3839C28.3346 53.4081 28.3104 53.4323 28.2862 53.4444C28.262 53.4565 28.2378 53.4686 28.2136 53.4686Z" fill="white"/>
<path d="M55.9452 25.8711H46.0117L37.9657 33.9171L33.4527 29.4041L26.6892 36.1676L30.9965 40.4749V52.5499L34.953 56.5064L41.5592 49.9002H34.4811V41.9631H41.4745V34.9697H49.4237V42.0478L55.9452 35.5263V25.8711Z" fill="#00FFFF"/>
<path d="M18.8363 60.1727C18.8363 60.1727 18.7516 60.1727 18.7274 60.1364C14.7467 57.5229 11.4315 54.0141 9.04799 49.8762C6.66444 45.7383 5.29722 41.1042 5.04314 36.3371C4.78905 31.57 5.6602 26.8029 7.58398 22.4351C9.50776 18.0673 12.4237 14.2197 16.114 11.1949C16.1503 11.1586 16.2107 11.1465 16.2591 11.1465C16.3075 11.1465 16.3559 11.1707 16.3922 11.2191L18.6669 13.7962C18.6669 13.7962 18.7274 13.893 18.7153 13.9414C18.7153 14.0019 18.6911 14.0503 18.6427 14.0866C18.6064 14.1229 18.5459 14.1471 18.4975 14.135C18.437 14.135 18.3886 14.1108 18.3523 14.0624L16.2107 11.6305C12.6173 14.619 9.77394 18.406 7.91066 22.6892C6.04737 26.9965 5.20043 31.6668 5.45451 36.3371C5.70859 41.0074 7.03951 45.5568 9.36257 49.61C11.6856 53.6633 14.9161 57.1236 18.8121 59.7008L20.6754 57.8133C20.6754 57.8133 20.7117 57.777 20.748 57.7649C20.7722 57.7649 20.7964 57.7528 20.8327 57.7528C20.8569 57.7528 20.8932 57.7528 20.9174 57.7649C20.9416 57.7649 20.9658 57.7891 20.99 57.8133C21.0142 57.8375 21.0263 57.8617 21.0383 57.8859C21.0383 57.9101 21.0504 57.9343 21.0504 57.9706C21.0504 57.9948 21.0504 58.0311 21.0383 58.0553C21.0383 58.0795 21.0142 58.1037 20.99 58.1279L18.9936 60.1243C18.9936 60.1243 18.9089 60.1848 18.8605 60.1848L18.8363 60.1727Z" fill="#00FFFF"/>
<path d="M65.4784 32.8643L65.0792 33.1667C65.1276 34.2194 65.1397 35.272 65.0792 36.3367C64.8251 41.0071 63.4942 45.5564 61.1711 49.6096C58.8481 53.6629 55.6175 57.1233 51.7216 59.7004L51.3828 59.9424L51.5522 60.1118C51.5522 60.1118 51.6369 60.1723 51.6853 60.1723C51.7216 60.1723 51.77 60.1723 51.7942 60.136C55.7748 57.5225 59.09 54.0138 61.4736 49.8758C63.8571 45.7379 65.2244 41.1038 65.4784 36.3367C65.5389 35.1752 65.5389 34.0137 65.4663 32.8643H65.4784Z" fill="#00FFFF"/>
<path d="M11.3105 53.1549C11.3105 53.1549 11.25 53.1549 11.2137 53.1307C11.1653 53.1065 11.129 53.0581 11.1169 53.0097C11.1048 52.9613 11.1048 52.9008 11.1169 52.8524L13.4762 48.2426C11.1895 44.5281 9.88276 40.2934 9.67707 35.9376C9.47138 31.5819 10.3667 27.2383 12.2784 23.3302L9.06001 19.7609C9.06001 19.7609 9.02371 19.7125 9.01161 19.6883C9.01161 19.6641 8.99951 19.6278 8.99951 19.6036C8.99951 19.5794 8.99951 19.5431 9.02371 19.5189C9.02371 19.4948 9.04791 19.4706 9.07211 19.4464C9.09631 19.4222 9.1205 19.4101 9.1447 19.398C9.1689 19.398 9.2052 19.3859 9.2294 19.398C9.2536 19.398 9.28989 19.398 9.31409 19.4222C9.33829 19.4343 9.36249 19.4585 9.37459 19.4827L12.6898 23.1608C12.6898 23.1608 12.7382 23.2334 12.7382 23.2697C12.7382 23.306 12.7382 23.3544 12.714 23.3907C10.7902 27.2746 9.88276 31.5819 10.0884 35.9134C10.2941 40.245 11.6009 44.4434 13.8876 48.1216C13.9118 48.1579 13.9118 48.1821 13.9239 48.2184C13.936 48.2547 13.9239 48.291 13.8997 48.3273L11.492 53.0339C11.492 53.0339 11.4436 53.0944 11.4194 53.1186C11.3831 53.1428 11.3468 53.1549 11.3105 53.1549Z" fill="#00FFFF"/>
<path d="M60.615 37.5358C60.615 37.5358 60.5303 37.5237 60.5061 37.4995C60.4698 37.4753 60.4456 37.439 60.4335 37.4027C60.4214 37.3664 60.4093 37.318 60.4335 37.2817C60.4335 37.2454 60.4577 37.2091 60.494 37.1728L65.0796 32.5751C64.2085 20.2943 55.7995 9.6954 44.0874 6.06562V9.45341C44.0874 9.45341 44.0632 9.56231 44.0269 9.5986C43.9906 9.6349 43.9301 9.6591 43.8817 9.6591C43.8333 9.6591 43.7728 9.6349 43.7365 9.5986C43.7002 9.56231 43.676 9.50181 43.676 9.45341V5.79944C43.676 5.79944 43.676 5.73894 43.7002 5.70264C43.7123 5.67844 43.7365 5.65425 43.7607 5.63005C43.7849 5.60585 43.8212 5.59375 43.8454 5.59375C43.8817 5.59375 43.9059 5.59375 43.9422 5.59375C49.8587 7.36024 55.0856 10.9053 58.9453 15.7329C62.7928 20.5726 65.0917 26.465 65.5031 32.6477C65.5031 32.6719 65.5031 32.7082 65.491 32.7324C65.491 32.7566 65.4668 32.7808 65.4426 32.805L60.7844 37.4753C60.7844 37.4753 60.6876 37.5358 60.6392 37.5237L60.615 37.5358Z" fill="#FF0049"/>
<path d="M60.3852 39.314H60.3489C60.3489 39.314 60.2521 39.2777 60.2158 39.2293C60.1795 39.1809 60.1674 39.1325 60.1795 39.072C60.4215 37.6322 60.5546 36.1682 60.5546 34.7163C60.5546 31.3164 59.8892 27.9407 58.5582 24.807C57.2273 21.6733 55.2793 18.8421 52.8353 16.4948C52.8111 16.4706 52.799 16.4585 52.7869 16.4343C52.7869 16.4101 52.7627 16.3859 52.7627 16.3496C52.7627 16.3254 52.7627 16.2891 52.7748 16.2649C52.7748 16.2407 52.799 16.2165 52.8232 16.1923C52.8474 16.1681 52.8595 16.156 52.8958 16.1439C52.92 16.1439 52.9442 16.1318 52.9805 16.1318C53.0168 16.1318 53.041 16.1318 53.0652 16.1439C53.0894 16.1439 53.1136 16.1681 53.1378 16.1923C55.6302 18.588 57.6145 21.4555 58.9575 24.6497C60.3005 27.8318 60.9902 31.2559 60.9781 34.7163C60.9781 36.2045 60.8571 37.6806 60.603 39.1446C60.603 39.193 60.5667 39.2414 60.5304 39.2656C60.4941 39.2898 60.4457 39.314 60.3973 39.314H60.3852Z" fill="#FF0049"/>
<path d="M21.5947 8.77497C21.5947 8.77497 21.6552 8.77497 21.6794 8.75077C25.5875 6.53661 29.9916 5.36298 34.4562 5.37508C34.5046 5.37508 34.553 5.35088 34.5893 5.31458C34.6256 5.27828 34.6377 5.22989 34.6377 5.18149C34.6377 5.13309 34.6135 5.08469 34.5893 5.0484C34.553 5.0242 34.5046 5 34.4562 5C29.9311 5 25.4786 6.17363 21.51 8.42409C21.4737 8.44829 21.4495 8.47249 21.4253 8.50878C21.4132 8.54508 21.4011 8.59348 21.4253 8.62978C21.4253 8.66607 21.4616 8.70237 21.4858 8.72657C21.5221 8.75077 21.5584 8.76287 21.5947 8.76287V8.77497Z" fill="#FF0049"/>
<path d="M28.0314 9.77895C28.0314 9.77895 28.0677 9.77895 28.0798 9.77895C28.1282 9.76685 28.1645 9.73056 28.1887 9.69426C28.2129 9.64586 28.225 9.59746 28.2129 9.54907L27.3781 6.17338C27.3781 6.17338 27.3297 6.08868 27.2934 6.05238C27.2571 6.02818 27.1966 6.01608 27.1603 6.02818C27.1119 6.04028 27.0756 6.07658 27.0514 6.11288C27.0272 6.16128 27.0151 6.20967 27.0272 6.25807L27.8621 9.63376C27.8621 9.63376 27.8984 9.70636 27.9226 9.73056C27.9589 9.75475 27.9951 9.76685 28.0314 9.76685V9.77895Z" fill="#FF0049"/>
<path d="M28.261 9.76727L28.1642 9.4043C26.4582 9.88827 24.7885 10.5779 23.0826 11.5459C23.0463 11.5701 23.0221 11.5943 22.9979 11.6306C22.9858 11.6669 22.9737 11.7153 22.9979 11.7516C22.9979 11.7878 23.0342 11.8241 23.0584 11.8483C23.0947 11.8725 23.1309 11.8846 23.1672 11.8846C23.1914 11.8846 23.2277 11.8846 23.2519 11.8604C24.9216 10.9046 26.5671 10.2391 28.2489 9.75518L28.261 9.76727Z" fill="#FF0049"/>
<path d="M44.9585 60.4995C38.2071 62.8347 30.6693 62.5443 23.7848 59.6768L21.6069 61.8546C25.7086 63.7421 30.1006 64.8068 34.5168 64.9762C38.9331 65.1456 43.2767 64.4197 47.2936 62.8347L44.9585 60.4995Z" fill="#FF0049"/>
<defs>
<filter id="filter0_f_898_14902" x="0" y="0" width="72.4546" height="70" filterUnits="userSpaceOnUse" color-interpolation-filters="sRGB">
<feFlood flood-opacity="0" result="BackgroundImageFix"/>
<feBlend mode="normal" in="SourceGraphic" in2="BackgroundImageFix" result="shape"/>
<feGaussianBlur stdDeviation="2" result="effect1_foregroundBlur_898_14902"/>
</filter>
</defs>
</svg>
