<svg width="43" height="42" viewBox="0 0 43 42" fill="none"
    xmlns="http://www.w3.org/2000/svg">
    <defs>
        <clipPath id="clip0_850_15007">
            <rect width="42.8694" height="42" fill="white"/>
        </clipPath>
    </defs>
    <g clip-path="url(#clip0_850_15007)">
        <path d="M36.3236 6.62115C36.3236 6.62115 36.2651 6.62951 36.24 6.65459C36.215 6.67131 36.1982 6.69639 36.1815 6.72983C36.1732 6.76327 36.1648 6.79671 36.1815 6.83015C36.1815 6.86359 36.2066 6.88867 36.2233 6.91375C39.1242 9.84806 41.1975 13.5849 42.2174 17.7063C42.2257 17.7481 42.2508 17.7816 42.2926 17.8067C42.326 17.8317 42.3762 17.8317 42.4096 17.8234C42.4264 17.8234 42.4514 17.8067 42.4682 17.7983C42.4849 17.7816 42.5016 17.7649 42.51 17.7481C42.5183 17.7314 42.5267 17.7063 42.5267 17.6813C42.5267 17.6562 42.5267 17.6395 42.5267 17.6144C41.49 13.4344 39.3834 9.64743 36.4407 6.67131C36.424 6.65459 36.4072 6.63787 36.3905 6.62951C36.3738 6.62115 36.3487 6.61279 36.332 6.61279L36.3236 6.62115Z" fill="#00FFFF"/>
        <path d="M3.82048 13.3842C1.92279 17.9403 1.81411 23.1485 3.49444 28.014L1.89771 29.4268C0.769123 26.5175 0.225731 23.4411 0.29261 20.3898C0.359489 17.3384 1.045 14.3706 2.30734 11.6704L3.82048 13.3842Z" fill="#00FFFF"/>
        <path d="M26.7351 0.969727C26.6933 0.969727 26.6515 0.969727 26.6181 1.00317C26.5846 1.02825 26.5596 1.07005 26.5596 1.1202C26.5596 1.162 26.5596 1.21216 26.593 1.2456C26.6181 1.27904 26.6599 1.30412 26.7017 1.31248C28.7749 1.87259 30.7562 2.75874 32.587 3.94584L32.4951 6.29497C32.4951 6.29497 32.4951 6.35348 32.5118 6.37856C32.5202 6.40364 32.5452 6.42872 32.562 6.44544C36.0229 9.02864 38.6229 12.7237 39.9688 16.9872C39.9688 17.0123 39.9855 17.029 39.9939 17.0458C40.0106 17.0625 40.0273 17.0792 40.044 17.0876C40.0608 17.0959 40.0858 17.1043 40.1026 17.1043C40.1193 17.1043 40.1444 17.1043 40.1611 17.1043C40.1862 17.1043 40.2029 17.0876 40.2196 17.0708C40.2363 17.0541 40.2447 17.0374 40.2614 17.0123C40.2698 16.9956 40.2781 16.9705 40.2781 16.9454C40.2781 16.9204 40.2781 16.9036 40.2698 16.8786C38.9071 12.5732 36.2988 8.83637 32.8128 6.21137L32.9047 3.86224C32.9047 3.86224 32.9047 3.80372 32.888 3.77864C32.8796 3.75356 32.8546 3.72848 32.8295 3.71177C30.9569 2.48286 28.9171 1.55492 26.7853 0.978086C26.7686 0.978086 26.7602 0.978086 26.7435 0.978086L26.7351 0.969727Z" fill="#00FFFF"/>
        <path d="M19.6373 0.927946L18.609 2.03145L17.6226 1.05334L18.6926 0H23.951L23.115 0.944666L19.6456 0.927946H19.6373Z" fill="#FF005C"/>
        <path d="M23.2072 1.17028L24.1769 0.0834961L25.1634 1.0616L24.0933 2.11495H18.835L19.7295 1.15356L23.2072 1.17864V1.17028Z" fill="#FF005C"/>
        <path d="M19.8546 38.6395C19.8546 38.6395 19.863 38.7147 19.8881 38.7398L23.115 41.9584C23.115 41.9584 23.1484 41.9834 23.1651 41.9918C23.1818 41.9918 23.2069 42.0002 23.2236 42.0002C27.4872 41.7076 31.5668 40.1275 34.9107 37.4691C38.2547 34.8107 40.6958 31.1908 41.9163 27.1029C41.9163 27.0778 41.9163 27.0611 41.9163 27.036C41.9163 27.0109 41.8996 26.9942 41.8912 26.9775C41.8745 26.9607 41.8578 26.944 41.8411 26.9357C41.8244 26.9273 41.7993 26.9189 41.7742 26.9189H39.2412C39.2412 26.9189 39.1659 26.9357 39.1408 26.9607C39.1158 26.9858 39.099 27.0276 39.099 27.0611C39.099 27.0945 39.1158 27.1363 39.1408 27.1614C39.1659 27.1865 39.2077 27.2032 39.2412 27.2032H41.5819C39.0823 35.3039 31.7507 41.114 23.2654 41.7076L20.0887 38.5392C20.0887 38.5392 20.0469 38.5057 20.0134 38.4974C19.9884 38.4974 19.9549 38.4974 19.9298 38.4974C19.9048 38.5057 19.8797 38.5224 19.863 38.5475C19.8463 38.5726 19.8379 38.5977 19.8379 38.6228L19.8546 38.6395Z" fill="#00FFFF"/>
        <path d="M19.9798 38.7314C19.9798 38.7314 20.0299 38.7732 20.0634 38.7815C20.5232 38.8651 21.3592 38.8902 21.8022 38.8902C24.1932 38.8986 26.559 38.4221 28.7577 37.4941C30.9563 36.5662 32.9459 35.1952 34.6012 33.473C34.6179 33.4563 34.6263 33.4396 34.6346 33.4229C34.6346 33.4061 34.643 33.3894 34.643 33.3643C34.643 33.3393 34.643 33.3225 34.6346 33.3058C34.6346 33.2891 34.6179 33.2724 34.6012 33.2557C34.5845 33.2389 34.5678 33.2306 34.551 33.2222C34.5343 33.2222 34.5176 33.2139 34.4925 33.2139C34.4758 33.2139 34.4507 33.2139 34.434 33.2306C34.4173 33.2306 34.4006 33.2473 34.3922 33.264C32.762 34.9611 30.8142 36.307 28.649 37.2182C26.4838 38.1378 24.1514 38.606 21.8022 38.5976C20.7907 38.5976 20.7823 38.5642 20.1052 38.4973C20.0717 38.4973 20.0299 38.4973 19.9965 38.5224C19.9631 38.5475 19.9463 38.5809 19.938 38.6143V38.6394C19.938 38.6394 19.9547 38.7063 19.9714 38.7314H19.9798Z" fill="#00FFFF"/>
        <path d="M8.72784 14.7132C8.72784 14.7132 8.6944 14.6547 8.66096 14.638L7.05586 13.8522C7.05586 13.8522 7.01406 13.8354 6.99734 13.8354C6.98062 13.8354 6.95554 13.8354 6.93882 13.8438C6.9221 13.8522 6.89702 13.8605 6.88866 13.8772C6.87194 13.894 6.86358 13.9107 6.85522 13.9274C5.30865 17.7144 5.05785 21.7773 6.12792 25.5476C6.30347 26.1746 6.52083 26.7933 6.76327 27.3952C6.76327 27.4119 6.77999 27.4286 6.79671 27.437C6.81343 27.4537 6.82179 27.462 6.84686 27.462C6.87194 27.462 6.8803 27.4704 6.90538 27.4704C6.9221 27.4704 6.94718 27.4704 6.9639 27.462C6.99734 27.4453 7.03078 27.4202 7.0475 27.3868C7.06422 27.3534 7.06422 27.3199 7.0475 27.2865C6.80507 26.6929 6.59607 26.0827 6.42051 25.464C5.38389 21.8024 5.6096 17.8565 7.07258 14.1698L8.41852 14.8303C7.3819 17.5723 7.07258 20.4732 7.51565 23.2654C7.51565 23.2821 7.52401 23.2988 7.53237 23.3155C7.54073 23.3323 7.55745 23.3406 7.57417 23.3573C7.59089 23.3657 7.60761 23.3741 7.63269 23.3741C7.64941 23.3741 7.67449 23.3741 7.69121 23.3741L10.3915 22.5715C10.3915 22.5715 10.4583 22.5381 10.4834 22.5046C10.5001 22.4712 10.5085 22.4378 10.5001 22.4043C10.4918 22.3709 10.4667 22.3374 10.4332 22.3207C10.3998 22.304 10.358 22.304 10.3246 22.3207L7.78317 23.0731C7.36518 20.3311 7.69121 17.4887 8.7362 14.8052C8.74456 14.7718 8.74456 14.7467 8.7362 14.7132H8.72784Z" fill="#FF005C"/>
        <path d="M42.4179 25.3221L39.0405 24.9376C38.982 24.9292 38.9151 24.9376 38.865 24.971C38.8148 25.0045 38.7814 25.0546 38.7646 25.1131C38.7646 25.1466 38.7647 25.1717 38.773 25.1967C38.7814 25.2218 38.7981 25.2553 38.8232 25.272C38.8482 25.2887 38.865 25.3138 38.8984 25.3221C38.9235 25.3305 38.9569 25.3389 38.9904 25.3389L42.3678 25.7151C42.4263 25.7234 42.4932 25.7151 42.5433 25.6816C42.5935 25.6482 42.6269 25.598 42.6436 25.5395C42.6436 25.5395 42.6436 25.481 42.6269 25.4559C42.6186 25.4308 42.6018 25.4057 42.5768 25.3807C42.56 25.3556 42.535 25.3389 42.5015 25.3305C42.4764 25.3221 42.443 25.3138 42.4096 25.3138L42.4179 25.3221Z" fill="#FF005C"/>
        <path d="M42.5435 24.0849L39.1494 23.8174C39.0908 23.8174 39.024 23.8174 38.9738 23.8592C38.9236 23.901 38.8902 23.9511 38.8818 24.0097C38.8818 24.0097 38.8818 24.0682 38.8986 24.0933C38.9069 24.1183 38.9236 24.1434 38.9487 24.1685C38.9738 24.1936 38.9989 24.2103 39.024 24.2187C39.049 24.227 39.0825 24.2354 39.1159 24.2354L42.51 24.5029C42.5769 24.5029 42.6354 24.5029 42.6856 24.4611C42.7357 24.4193 42.7692 24.3691 42.7775 24.3106C42.7775 24.3106 42.7775 24.2521 42.7608 24.227C42.7525 24.2019 42.7357 24.1769 42.7107 24.1518C42.6856 24.1267 42.6605 24.11 42.6354 24.1016C42.6103 24.0933 42.5769 24.0849 42.5435 24.0849Z" fill="#FF005C"/>
        <path d="M42.6104 22.8394L39.2079 22.689C39.1494 22.689 39.0825 22.6973 39.0323 22.7308C38.9822 22.7642 38.9487 22.8227 38.9487 22.8812C38.9487 22.8812 38.9487 22.9398 38.9738 22.9648C38.9822 22.9899 39.0072 23.015 39.024 23.0401C39.049 23.0568 39.0741 23.0735 39.0992 23.0902C39.1326 23.0986 39.1577 23.107 39.1912 23.107L42.5936 23.2574C42.6522 23.2574 42.719 23.2491 42.7692 23.2073C42.8194 23.1738 42.8528 23.1153 42.8612 23.0568C42.8612 23.0568 42.8528 22.9983 42.8361 22.9732C42.8277 22.9481 42.8026 22.923 42.7859 22.898C42.7608 22.8812 42.7358 22.8645 42.7107 22.8478C42.6772 22.8394 42.6522 22.8311 42.6187 22.8311L42.6104 22.8394Z" fill="#FF005C"/>
        <path d="M42.6187 21.5936L39.2162 21.5518C39.2162 21.5518 39.1577 21.5518 39.1242 21.5601C39.0908 21.5685 39.0657 21.5852 39.0406 21.6019C39.0156 21.6186 38.9988 21.6437 38.9821 21.6688C38.9654 21.6939 38.957 21.7273 38.957 21.7524C38.957 21.8109 38.9905 21.8694 39.0406 21.9112C39.0908 21.953 39.1493 21.9698 39.2162 21.9698L42.6187 22.0116C42.6772 22.0116 42.7441 21.9948 42.7859 21.9614C42.836 21.9196 42.8611 21.8694 42.8611 21.8109C42.8611 21.7524 42.8277 21.6939 42.7775 21.6521C42.7273 21.6103 42.6688 21.5936 42.6019 21.5936H42.6187Z" fill="#FF005C"/>
        <path d="M42.5598 20.3483L39.1657 20.4152C39.1657 20.4152 39.1072 20.4152 39.0738 20.4319C39.0487 20.4402 39.0152 20.457 38.9985 20.482C38.9734 20.4988 38.9567 20.5238 38.9484 20.5573C38.94 20.5824 38.9316 20.6158 38.9316 20.6409C38.9316 20.6994 38.9734 20.7579 39.0236 20.7914C39.0738 20.8332 39.1323 20.8499 39.1992 20.8415L42.5933 20.7746C42.5933 20.7746 42.6518 20.7746 42.6852 20.7579C42.7103 20.7496 42.7437 20.7328 42.7605 20.7078C42.7855 20.691 42.8023 20.666 42.8106 20.6325C42.819 20.6074 42.8273 20.574 42.8273 20.5489C42.819 20.4904 42.7855 20.4319 42.7354 20.3984C42.6852 20.3566 42.6267 20.3399 42.5598 20.3483Z" fill="#FF005C"/>
        <path d="M42.4514 19.1108L39.0656 19.2948C39.0656 19.2948 39.0071 19.2948 38.9737 19.3115C38.9486 19.3198 38.9235 19.3366 38.8984 19.3616C38.8733 19.3867 38.865 19.4118 38.8483 19.4369C38.8399 19.462 38.8315 19.4954 38.8315 19.5205C38.8399 19.579 38.8817 19.6375 38.9319 19.671C38.982 19.7044 39.0489 19.7211 39.1074 19.7211L42.4932 19.5372C42.4932 19.5372 42.5517 19.5372 42.5851 19.5205C42.6102 19.5121 42.6436 19.4954 42.6604 19.4703C42.6854 19.4452 42.7022 19.4202 42.7105 19.3951C42.7189 19.37 42.7272 19.3366 42.7272 19.3115C42.7189 19.253 42.6854 19.1944 42.6353 19.161C42.5851 19.1276 42.5182 19.1108 42.4597 19.1108H42.4514Z" fill="#FF005C"/>
        <path d="M12.5065 15.6831V5.30012L10.1824 2.97607C4.14659 6.69622 0.125488 13.3674 0.125488 20.9749C0.125488 28.6492 4.21347 35.3622 10.3329 39.0656L13.4093 36.3821H18.4002" stroke="#00FFFF" stroke-width="0.3"/>
        <path d="M11.5201 4.34717L8.66943 7.01397L10.2578 8.47695V13.9359" stroke="#00FFFF" stroke-width="0.3"/>
        <path d="M4.66504 8.00049L6.51257 9.56378L4.83224 11.8962" stroke="#00FFFF" stroke-width="0.3"/>
        <path d="M5.66797 35.1699L12.5314 30.1122V26.6428H16.0927V22.396" stroke="#00FFFF" stroke-width="0.3"/>
        <path d="M4.35554 33.5232L8.43516 30.4802L5.23333 29.4771L2.82568 31.241" stroke="#00FFFF" stroke-width="0.3"/>
        <path d="M37.5361 11.5366L33.0469 15.541" stroke="#00FFFF" stroke-width="0.3"/>
        <path d="M26.5845 1.2373V5.1748C26.5845 5.1748 28.8333 6.97218 28.7162 10.8344L30.3631 9.02871V2.65012" stroke="#00FFFF" stroke-width="0.3"/>
        <path d="M36.1062 9.413L33.105 12.4142V6.6626L36.1062 9.413Z" fill="#00FFFF"/>
        <path d="M34.4429 33.2307L34.5014 25.8322L36.0647 25.7402V32.0269L38.1547 33.9329" stroke="#00FFFF" stroke-width="0.3"/>
        <path d="M29.6109 40.3615L27.3203 37.8452" stroke="#00FFFF" stroke-width="0.3"/>
        <path d="M31.199 39.6341L28.9502 37.168" stroke="#00FFFF" stroke-width="0.3"/>
        <path d="M13.4092 29.2678H19.5955V19.8378H15.867V15.4155H24.2352V29.2594H29.5354V33.6818H13.4092V29.2594V29.2678ZM24.8538 10.0066C24.8538 10.4999 24.7619 10.9597 24.578 11.386C24.3941 11.8124 24.1433 12.1886 23.8256 12.4895C23.5079 12.7988 23.1317 13.0413 22.7054 13.2252C22.279 13.4091 21.8276 13.5011 21.3594 13.5011C20.8662 13.5011 20.4148 13.4091 19.9968 13.2252C19.5788 13.0413 19.2109 12.7988 18.8933 12.4895C18.5756 12.1802 18.3248 11.8124 18.1409 11.386C17.957 10.9597 17.865 10.4999 17.865 10.0066C17.865 9.5134 17.957 9.05361 18.1409 8.62725C18.3248 8.2009 18.5756 7.83307 18.8933 7.52375C19.2109 7.21444 19.5788 6.972 19.9968 6.78808C20.4148 6.60417 20.8662 6.51221 21.3594 6.51221C21.8276 6.51221 22.2706 6.60417 22.7054 6.78808C23.1317 6.972 23.5079 7.21444 23.8256 7.52375C24.1433 7.83307 24.3941 8.2009 24.578 8.62725C24.7619 9.05361 24.8538 9.5134 24.8538 10.0066Z" fill="#00FFFF"/>
        <path d="M26.5508 15.541V26.9188H29.6105" stroke="#00FFFF" stroke-width="0.3"/>
        <path d="M26.5508 23.2572H34.0663V18.4336H28.9501V21.0252H31.1989" stroke="#00FFFF" stroke-width="0.3"/>
        <path d="M12.5315 19.9634H10.2827V15.7417" stroke="#00FFFF" stroke-width="0.3"/>
        <path d="M14.8223 10.0153C14.8223 10.0153 14.63 6.16973 17.6479 4.38908C18.5591 3.85404 19.763 3.50293 21.3513 3.50293" stroke="#00FFFF" stroke-width="0.3"/>
        <path d="M16.36 5.45915L12.8823 1.98145" stroke="#00FFFF" stroke-width="0.3"/>
        <path d="M17.6476 4.38889L14.6548 1.3877" stroke="#00FFFF" stroke-width="0.3"/>
    </g>
</svg>
