<svg width="56" height="55" viewBox="0 0 56 55" fill="none" xmlns="http://www.w3.org/2000/svg">
<g filter="url(#filter0_f_898_14902)">
<path d="M26.6375 6.92795L25.6093 8.03145L24.6228 7.05334L25.6929 6H30.9512L30.1152 6.94467L26.6459 6.92795H26.6375Z" fill="#FF005C" stroke="#FF0049"/>
<path d="M30.2072 7.17077L31.1769 6.08398L32.1634 7.06209L31.0933 8.11543H25.835L26.7295 7.15405L30.2072 7.17913V7.17077Z" fill="#FF005C" stroke="#FF0049"/>
<path d="M15.7278 20.7137C15.7278 20.7137 15.6944 20.6552 15.661 20.6385L14.0559 19.8527C14.0559 19.8527 14.0141 19.8359 13.9973 19.8359C13.9806 19.8359 13.9555 19.8359 13.9388 19.8443C13.9221 19.8527 13.897 19.861 13.8887 19.8777C13.8719 19.8945 13.8636 19.9112 13.8552 19.9279C12.3086 23.7149 12.0579 27.7778 13.1279 31.5481C13.3035 32.1751 13.5208 32.7937 13.7633 33.3957C13.7633 33.4124 13.78 33.4291 13.7967 33.4374C13.8134 33.4542 13.8218 33.4625 13.8469 33.4625C13.8719 33.4625 13.8803 33.4709 13.9054 33.4709C13.9221 33.4709 13.9472 33.4709 13.9639 33.4625C13.9973 33.4458 14.0308 33.4207 14.0475 33.3873C14.0642 33.3539 14.0642 33.3204 14.0475 33.287C13.8051 32.6934 13.5961 32.0831 13.4205 31.4645C12.3839 27.8029 12.6096 23.857 14.0726 20.1703L15.4185 20.8308C14.3819 23.5728 14.0726 26.4737 14.5157 29.2659C14.5157 29.2826 14.524 29.2993 14.5324 29.316C14.5407 29.3328 14.5575 29.3411 14.5742 29.3578C14.5909 29.3662 14.6076 29.3746 14.6327 29.3746C14.6494 29.3746 14.6745 29.3746 14.6912 29.3746L17.3915 28.572C17.3915 28.572 17.4583 28.5386 17.4834 28.5051C17.5001 28.4717 17.5085 28.4382 17.5001 28.4048C17.4918 28.3714 17.4667 28.3379 17.4332 28.3212C17.3998 28.3045 17.358 28.3045 17.3246 28.3212L14.7832 29.0736C14.3652 26.3316 14.6912 23.4892 15.7362 20.8057C15.7446 20.7722 15.7446 20.7472 15.7362 20.7137H15.7278Z" fill="#FF005C" stroke="#FF0049"/>
<path d="M49.4182 31.3231L46.0408 30.9386C45.9823 30.9302 45.9154 30.9386 45.8652 30.972C45.8151 31.0054 45.7816 31.0556 45.7649 31.1141C45.7649 31.1476 45.7649 31.1726 45.7733 31.1977C45.7816 31.2228 45.7983 31.2562 45.8234 31.273C45.8485 31.2897 45.8652 31.3148 45.8987 31.3231C45.9237 31.3315 45.9572 31.3398 45.9906 31.3398L49.368 31.716C49.4265 31.7244 49.4934 31.716 49.5436 31.6826C49.5937 31.6492 49.6272 31.599 49.6439 31.5405C49.6439 31.5405 49.6439 31.482 49.6272 31.4569C49.6188 31.4318 49.6021 31.4067 49.577 31.3816C49.5603 31.3566 49.5352 31.3398 49.5018 31.3315C49.4767 31.3231 49.4432 31.3148 49.4098 31.3148L49.4182 31.3231Z" fill="#FF005C" stroke="#FF0049"/>
<path d="M49.5435 30.0859L46.1494 29.8184C46.0908 29.8184 46.024 29.8184 45.9738 29.8602C45.9236 29.902 45.8902 29.9521 45.8818 30.0106C45.8818 30.0106 45.8818 30.0692 45.8986 30.0942C45.9069 30.1193 45.9236 30.1444 45.9487 30.1695C45.9738 30.1946 45.9989 30.2113 46.024 30.2196C46.049 30.228 46.0825 30.2364 46.1159 30.2364L49.51 30.5039C49.5769 30.5039 49.6354 30.5039 49.6856 30.4621C49.7357 30.4203 49.7692 30.3701 49.7775 30.3116C49.7775 30.3116 49.7775 30.2531 49.7608 30.228C49.7525 30.2029 49.7357 30.1778 49.7107 30.1528C49.6856 30.1277 49.6605 30.111 49.6354 30.1026C49.6103 30.0942 49.5769 30.0859 49.5435 30.0859Z" fill="#FF005C" stroke="#FF0049"/>
<path d="M49.6104 28.8399L46.2079 28.6895C46.1494 28.6895 46.0825 28.6978 46.0323 28.7313C45.9822 28.7647 45.9487 28.8232 45.9487 28.8817C45.9487 28.8817 45.9487 28.9402 45.9738 28.9653C45.9822 28.9904 46.0072 29.0155 46.024 29.0406C46.049 29.0573 46.0741 29.074 46.0992 29.0907C46.1326 29.0991 46.1577 29.1074 46.1912 29.1074L49.5936 29.2579C49.6522 29.2579 49.719 29.2496 49.7692 29.2078C49.8194 29.1743 49.8528 29.1158 49.8612 29.0573C49.8612 29.0573 49.8528 28.9988 49.8361 28.9737C49.8277 28.9486 49.8026 28.9235 49.7859 28.8984C49.7608 28.8817 49.7358 28.865 49.7107 28.8483C49.6772 28.8399 49.6522 28.8316 49.6187 28.8316L49.6104 28.8399Z" fill="#FF005C" stroke="#FF0049"/>
<path d="M49.6189 27.5945L46.2164 27.5527C46.2164 27.5527 46.1579 27.5527 46.1245 27.5611C46.091 27.5695 46.066 27.5862 46.0409 27.6029C46.0158 27.6196 45.9991 27.6447 45.9824 27.6698C45.9656 27.6949 45.9573 27.7283 45.9573 27.7534C45.9573 27.8119 45.9907 27.8704 46.0409 27.9122C46.091 27.954 46.1496 27.9707 46.2164 27.9707L49.6189 28.0125C49.6774 28.0125 49.7443 27.9958 49.7861 27.9624C49.8363 27.9206 49.8613 27.8704 49.8613 27.8119C49.8613 27.7534 49.8279 27.6949 49.7777 27.6531C49.7276 27.6113 49.6691 27.5945 49.6022 27.5945H49.6189Z" fill="#FF005C" stroke="#FF0049"/>
<path d="M49.5603 26.3488L46.1662 26.4156C46.1662 26.4156 46.1077 26.4156 46.0742 26.4324C46.0492 26.4407 46.0157 26.4574 45.999 26.4825C45.9739 26.4992 45.9572 26.5243 45.9488 26.5578C45.9405 26.5828 45.9321 26.6163 45.9321 26.6414C45.9321 26.6999 45.9739 26.7584 46.0241 26.7918C46.0742 26.8336 46.1328 26.8504 46.1996 26.842L49.5938 26.7751C49.5938 26.7751 49.6523 26.7751 49.6857 26.7584C49.7108 26.75 49.7442 26.7333 49.761 26.7082C49.786 26.6915 49.8027 26.6664 49.8111 26.633C49.8195 26.6079 49.8278 26.5745 49.8278 26.5494C49.8195 26.4909 49.786 26.4324 49.7359 26.3989C49.6857 26.3571 49.6272 26.3404 49.5603 26.3488Z" fill="#FF005C" stroke="#FF0049"/>
<path d="M49.4516 25.1113L46.0659 25.2952C46.0659 25.2952 46.0073 25.2952 45.9739 25.312C45.9488 25.3203 45.9237 25.337 45.8987 25.3621C45.8736 25.3872 45.8652 25.4123 45.8485 25.4374C45.8401 25.4624 45.8318 25.4959 45.8318 25.521C45.8401 25.5795 45.8819 25.638 45.9321 25.6714C45.9823 25.7049 46.0491 25.7216 46.1077 25.7216L49.4934 25.5377C49.4934 25.5377 49.5519 25.5377 49.5854 25.521C49.6104 25.5126 49.6439 25.4959 49.6606 25.4708C49.6857 25.4457 49.7024 25.4206 49.7108 25.3956C49.7191 25.3705 49.7275 25.337 49.7275 25.312C49.7191 25.2534 49.6857 25.1949 49.6355 25.1615C49.5854 25.128 49.5185 25.1113 49.46 25.1113H49.4516Z" fill="#FF005C" stroke="#FF0049"/>
</g>
<g filter="url(#filter1_f_898_14902)">
<path d="M43.3236 12.6216C43.3236 12.6216 43.2651 12.63 43.24 12.6551C43.215 12.6718 43.1982 12.6969 43.1815 12.7303C43.1732 12.7638 43.1648 12.7972 43.1815 12.8306C43.1815 12.8641 43.2066 12.8892 43.2233 12.9142C46.1242 15.8486 48.1975 19.5854 49.2174 23.7068C49.2257 23.7486 49.2508 23.7821 49.2926 23.8071C49.326 23.8322 49.3762 23.8322 49.4096 23.8239C49.4264 23.8239 49.4514 23.8072 49.4682 23.7988C49.4849 23.7821 49.5016 23.7654 49.51 23.7486C49.5183 23.7319 49.5267 23.7068 49.5267 23.6818C49.5267 23.6567 49.5267 23.64 49.5267 23.6149C48.49 19.4349 46.3834 15.6479 43.4407 12.6718C43.424 12.6551 43.4072 12.6384 43.3905 12.63C43.3738 12.6216 43.3487 12.6133 43.332 12.6133L43.3236 12.6216Z" fill="#00FFFF"/>
<path d="M10.8205 19.3837C8.92279 23.9398 8.81411 29.148 10.4944 34.0135L8.89771 35.4263C7.76912 32.5171 7.22573 29.4406 7.29261 26.3893C7.35949 23.3379 8.045 20.3702 9.30734 17.6699L10.8205 19.3837Z" fill="#00FFFF"/>
<path d="M33.7349 6.96973C33.6931 6.96973 33.6513 6.96973 33.6178 7.00317C33.5844 7.02825 33.5593 7.07005 33.5593 7.1202C33.5593 7.162 33.5593 7.21216 33.5928 7.2456C33.6178 7.27904 33.6596 7.30412 33.7014 7.31248C35.7747 7.87259 37.756 8.75874 39.5868 9.94584L39.4948 12.295C39.4948 12.295 39.4948 12.3535 39.5116 12.3786C39.5199 12.4036 39.545 12.4287 39.5617 12.4454C43.0227 15.0286 45.6226 18.7237 46.9686 22.9872C46.9686 23.0123 46.9853 23.029 46.9936 23.0458C47.0104 23.0625 47.0271 23.0792 47.0438 23.0876C47.0605 23.0959 47.0856 23.1043 47.1023 23.1043C47.119 23.1043 47.1441 23.1043 47.1608 23.1043C47.1859 23.1043 47.2026 23.0876 47.2194 23.0708C47.2361 23.0541 47.2444 23.0374 47.2612 23.0123C47.2695 22.9956 47.2779 22.9705 47.2779 22.9454C47.2779 22.9204 47.2779 22.9036 47.2695 22.8786C45.9069 18.5732 43.2986 14.8364 39.8125 12.2114L39.9045 9.86224C39.9045 9.86224 39.9045 9.80372 39.8877 9.77864C39.8794 9.75356 39.8543 9.72848 39.8292 9.71177C37.9566 8.48286 35.9168 7.55492 33.785 6.97809C33.7683 6.97809 33.76 6.97809 33.7432 6.97809L33.7349 6.96973Z" fill="#00FFFF" stroke="#00FFFF"/>
<path d="M26.8549 44.6395C26.8549 44.6395 26.8632 44.7147 26.8883 44.7398L30.1152 47.9584C30.1152 47.9584 30.1486 47.9834 30.1654 47.9918C30.1821 47.9918 30.2072 48.0002 30.2239 48.0002C34.4874 47.7076 38.567 46.1275 41.911 43.4691C45.2549 40.8107 47.696 37.1908 48.9166 33.1029C48.9166 33.0778 48.9166 33.0611 48.9166 33.036C48.9166 33.0109 48.8998 32.9942 48.8915 32.9775C48.8748 32.9607 48.858 32.944 48.8413 32.9357C48.8246 32.9273 48.7995 32.9189 48.7744 32.9189H46.2414C46.2414 32.9189 46.1662 32.9357 46.1411 32.9607C46.116 32.9858 46.0993 33.0276 46.0993 33.0611C46.0993 33.0945 46.116 33.1363 46.1411 33.1614C46.1662 33.1865 46.208 33.2032 46.2414 33.2032H48.5822C46.0826 41.3039 38.751 47.114 30.2657 47.7076L27.0889 44.5392C27.0889 44.5392 27.0471 44.5057 27.0137 44.4974C26.9886 44.4974 26.9552 44.4974 26.9301 44.4974C26.905 44.5057 26.8799 44.5224 26.8632 44.5475C26.8465 44.5726 26.8381 44.5977 26.8381 44.6228L26.8549 44.6395Z" fill="#00FFFF" stroke="#00FFFF"/>
<path d="M26.9803 44.7314C26.9803 44.7314 27.0304 44.7732 27.0639 44.7815C27.5237 44.8651 28.3597 44.8902 28.8027 44.8902C31.1937 44.8986 33.5595 44.4221 35.7581 43.4941C37.9568 42.5662 39.9464 41.1952 41.6017 39.473C41.6184 39.4563 41.6268 39.4396 41.6351 39.4229C41.6351 39.4061 41.6435 39.3894 41.6435 39.3643C41.6435 39.3393 41.6435 39.3225 41.6351 39.3058C41.6351 39.2891 41.6184 39.2724 41.6017 39.2557C41.585 39.2389 41.5683 39.2306 41.5515 39.2222C41.5348 39.2222 41.5181 39.2139 41.493 39.2139C41.4763 39.2139 41.4512 39.2139 41.4345 39.2306C41.4178 39.2306 41.4011 39.2473 41.3927 39.264C39.7625 40.9611 37.8147 42.307 35.6495 43.2182C33.4843 44.1378 31.1519 44.606 28.8027 44.5976C27.7912 44.5976 27.7828 44.5642 27.1057 44.4973C27.0722 44.4973 27.0304 44.4973 26.997 44.5224C26.9636 44.5475 26.9468 44.5809 26.9385 44.6143V44.6394C26.9385 44.6394 26.9552 44.7063 26.9719 44.7314H26.9803Z" fill="#00FFFF"/>
<path d="M19.5065 21.6836V11.3006L17.1824 8.97656C11.1466 12.6967 7.12549 19.3679 7.12549 26.9754C7.12549 34.6497 11.2135 41.3627 17.3329 45.0661L20.4093 42.3826H25.4002" stroke="#00FFFF" stroke-width="2"/>
<path d="M18.5199 10.3477L15.6692 13.0145L17.2576 14.4774V19.9364" stroke="#00FFFF" stroke-width="2"/>
<path d="M11.6648 14L13.5123 15.5633L11.832 17.8957" stroke="#00FFFF" stroke-width="2"/>
<path d="M12.668 41.1704L19.5314 36.1126V32.6433H23.0927V28.3965" stroke="#00FFFF" stroke-width="2"/>
<path d="M11.3555 39.5227L15.4352 36.4797L12.2333 35.4766L9.82568 37.2405" stroke="#00FFFF" stroke-width="2"/>
<path d="M44.5359 17.5371L40.0466 21.5415" stroke="#00FFFF" stroke-width="2"/>
<path d="M33.5845 7.2373V11.1748C33.5845 11.1748 35.8333 12.9722 35.7162 16.8344L37.3631 15.0287V8.65012" stroke="#00FFFF" stroke-width="2"/>
<path d="M43.1064 15.4125L40.1052 18.4137V12.6621L43.1064 15.4125Z" fill="#00FFFF"/>
<path d="M41.4429 39.2307L41.5014 31.8322L43.0647 31.7402V38.0269L45.1547 39.9329" stroke="#00FFFF" stroke-width="2"/>
<path d="M36.6107 46.362L34.3201 43.8457" stroke="#00FFFF" stroke-width="2"/>
<path d="M38.1992 45.6341L35.9504 43.168" stroke="#00FFFF" stroke-width="2"/>
<path d="M20.4094 35.2673H26.5957V25.8374H22.8672V21.415H31.2355V35.2589H36.5356V39.6813H20.4094V35.2589V35.2673ZM31.8541 16.0061C31.8541 16.4994 31.7621 16.9592 31.5782 17.3855C31.3943 17.8119 31.1435 18.1881 30.8258 18.489C30.5081 18.7983 30.132 19.0408 29.7056 19.2247C29.2792 19.4086 28.8278 19.5006 28.3597 19.5006C27.8664 19.5006 27.415 19.4086 26.997 19.2247C26.579 19.0408 26.2112 18.7983 25.8935 18.489C25.5758 18.1797 25.325 17.8119 25.1411 17.3855C24.9572 16.9592 24.8652 16.4994 24.8652 16.0061C24.8652 15.5129 24.9572 15.0531 25.1411 14.6268C25.325 14.2004 25.5758 13.8326 25.8935 13.5233C26.2112 13.2139 26.579 12.9715 26.997 12.7876C27.415 12.6037 27.8664 12.5117 28.3597 12.5117C28.8278 12.5117 29.2709 12.6037 29.7056 12.7876C30.132 12.9715 30.5081 13.2139 30.8258 13.5233C31.1435 13.8326 31.3943 14.2004 31.5782 14.6268C31.7621 15.0531 31.8541 15.5129 31.8541 16.0061Z" fill="#00FFFF"/>
<path d="M33.551 21.541V32.9188H36.6107" stroke="#00FFFF" stroke-width="2"/>
<path d="M33.551 29.2572H41.0666V24.4336H35.9503V27.0252H38.1991" stroke="#00FFFF" stroke-width="2"/>
<path d="M19.5315 25.9639H17.2827V21.7422" stroke="#00FFFF" stroke-width="2"/>
<path d="M21.822 16.0153C21.822 16.0153 21.6298 12.1697 24.6477 10.3891C25.5589 9.85404 26.7627 9.50293 28.3511 9.50293" stroke="#00FFFF" stroke-width="2"/>
<path d="M23.3603 11.4592L19.8826 7.98145" stroke="#00FFFF" stroke-width="2"/>
<path d="M24.6476 10.3889L21.6548 7.3877" stroke="#00FFFF" stroke-width="2"/>
</g>
<g clip-path="url(#clip0_898_14902)">
<path d="M43.3236 12.6207C43.3236 12.6207 43.2651 12.629 43.24 12.6541C43.215 12.6708 43.1982 12.6959 43.1815 12.7293C43.1732 12.7628 43.1648 12.7962 43.1815 12.8297C43.1815 12.8631 43.2066 12.8882 43.2233 12.9133C46.1242 15.8476 48.1975 19.5844 49.2174 23.7059C49.2257 23.7477 49.2508 23.7811 49.2926 23.8062C49.326 23.8313 49.3762 23.8313 49.4096 23.8229C49.4264 23.8229 49.4514 23.8062 49.4682 23.7978C49.4849 23.7811 49.5016 23.7644 49.51 23.7477C49.5183 23.7309 49.5267 23.7059 49.5267 23.6808C49.5267 23.6557 49.5267 23.639 49.5267 23.6139C48.49 19.434 46.3834 15.6469 43.4407 12.6708C43.424 12.6541 43.4072 12.6374 43.3905 12.629C43.3738 12.6207 43.3487 12.6123 43.332 12.6123L43.3236 12.6207Z" fill="#00FFFF"/>
<path d="M10.8205 19.3837C8.92279 23.9398 8.81411 29.148 10.4944 34.0135L8.89771 35.4263C7.76912 32.5171 7.22573 29.4406 7.29261 26.3893C7.35949 23.3379 8.045 20.3702 9.30734 17.6699L10.8205 19.3837Z" fill="#00FFFF"/>
<path d="M33.7349 6.96973C33.6931 6.96973 33.6513 6.96973 33.6178 7.00317C33.5844 7.02825 33.5593 7.07005 33.5593 7.1202C33.5593 7.162 33.5593 7.21216 33.5928 7.2456C33.6178 7.27904 33.6596 7.30412 33.7014 7.31248C35.7747 7.87259 37.756 8.75874 39.5868 9.94584L39.4948 12.295C39.4948 12.295 39.4948 12.3535 39.5116 12.3786C39.5199 12.4036 39.545 12.4287 39.5617 12.4454C43.0227 15.0286 45.6226 18.7237 46.9686 22.9872C46.9686 23.0123 46.9853 23.029 46.9936 23.0458C47.0104 23.0625 47.0271 23.0792 47.0438 23.0876C47.0605 23.0959 47.0856 23.1043 47.1023 23.1043C47.119 23.1043 47.1441 23.1043 47.1608 23.1043C47.1859 23.1043 47.2026 23.0876 47.2194 23.0708C47.2361 23.0541 47.2444 23.0374 47.2612 23.0123C47.2695 22.9956 47.2779 22.9705 47.2779 22.9454C47.2779 22.9204 47.2779 22.9036 47.2695 22.8786C45.9069 18.5732 43.2986 14.8364 39.8125 12.2114L39.9045 9.86224C39.9045 9.86224 39.9045 9.80372 39.8877 9.77864C39.8794 9.75356 39.8543 9.72848 39.8292 9.71177C37.9566 8.48286 35.9168 7.55492 33.785 6.97809C33.7683 6.97809 33.76 6.97809 33.7432 6.97809L33.7349 6.96973Z" fill="#00FFFF"/>
<path d="M26.6375 6.92795L25.6093 8.03145L24.6228 7.05334L25.6929 6H30.9512L30.1152 6.94467L26.6459 6.92795H26.6375Z" fill="#FF005C"/>
<path d="M30.2072 7.17077L31.1769 6.08398L32.1634 7.06209L31.0933 8.11543H25.835L26.7295 7.15405L30.2072 7.17913V7.17077Z" fill="#FF005C"/>
<path d="M26.8549 44.6395C26.8549 44.6395 26.8632 44.7147 26.8883 44.7398L30.1152 47.9584C30.1152 47.9584 30.1486 47.9834 30.1654 47.9918C30.1821 47.9918 30.2072 48.0002 30.2239 48.0002C34.4874 47.7076 38.567 46.1275 41.911 43.4691C45.2549 40.8107 47.696 37.1908 48.9166 33.1029C48.9166 33.0778 48.9166 33.0611 48.9166 33.036C48.9166 33.0109 48.8998 32.9942 48.8915 32.9775C48.8748 32.9607 48.858 32.944 48.8413 32.9357C48.8246 32.9273 48.7995 32.9189 48.7744 32.9189H46.2414C46.2414 32.9189 46.1662 32.9357 46.1411 32.9607C46.116 32.9858 46.0993 33.0276 46.0993 33.0611C46.0993 33.0945 46.116 33.1363 46.1411 33.1614C46.1662 33.1865 46.208 33.2032 46.2414 33.2032H48.5822C46.0826 41.3039 38.751 47.114 30.2657 47.7076L27.0889 44.5392C27.0889 44.5392 27.0471 44.5057 27.0137 44.4974C26.9886 44.4974 26.9552 44.4974 26.9301 44.4974C26.905 44.5057 26.8799 44.5224 26.8632 44.5475C26.8465 44.5726 26.8381 44.5977 26.8381 44.6228L26.8549 44.6395Z" fill="#00FFFF"/>
<path d="M26.9803 44.7314C26.9803 44.7314 27.0304 44.7732 27.0639 44.7815C27.5237 44.8651 28.3597 44.8902 28.8027 44.8902C31.1937 44.8986 33.5595 44.4221 35.7581 43.4941C37.9568 42.5662 39.9464 41.1952 41.6017 39.473C41.6184 39.4563 41.6268 39.4396 41.6351 39.4229C41.6351 39.4061 41.6435 39.3894 41.6435 39.3643C41.6435 39.3393 41.6435 39.3225 41.6351 39.3058C41.6351 39.2891 41.6184 39.2724 41.6017 39.2557C41.585 39.2389 41.5683 39.2306 41.5515 39.2222C41.5348 39.2222 41.5181 39.2139 41.493 39.2139C41.4763 39.2139 41.4512 39.2139 41.4345 39.2306C41.4178 39.2306 41.4011 39.2473 41.3927 39.264C39.7625 40.9611 37.8147 42.307 35.6495 43.2182C33.4843 44.1378 31.1519 44.606 28.8027 44.5976C27.7912 44.5976 27.7828 44.5642 27.1057 44.4973C27.0722 44.4973 27.0304 44.4973 26.997 44.5224C26.9636 44.5475 26.9468 44.5809 26.9385 44.6143V44.6394C26.9385 44.6394 26.9552 44.7063 26.9719 44.7314H26.9803Z" fill="#00FFFF"/>
<path d="M15.7278 20.7137C15.7278 20.7137 15.6944 20.6552 15.661 20.6385L14.0559 19.8527C14.0559 19.8527 14.0141 19.8359 13.9973 19.8359C13.9806 19.8359 13.9555 19.8359 13.9388 19.8443C13.9221 19.8527 13.897 19.861 13.8887 19.8777C13.8719 19.8945 13.8636 19.9112 13.8552 19.9279C12.3086 23.7149 12.0579 27.7778 13.1279 31.5481C13.3035 32.1751 13.5208 32.7937 13.7633 33.3957C13.7633 33.4124 13.78 33.4291 13.7967 33.4374C13.8134 33.4542 13.8218 33.4625 13.8469 33.4625C13.8719 33.4625 13.8803 33.4709 13.9054 33.4709C13.9221 33.4709 13.9472 33.4709 13.9639 33.4625C13.9973 33.4458 14.0308 33.4207 14.0475 33.3873C14.0642 33.3539 14.0642 33.3204 14.0475 33.287C13.8051 32.6934 13.5961 32.0831 13.4205 31.4645C12.3839 27.8029 12.6096 23.857 14.0726 20.1703L15.4185 20.8308C14.3819 23.5728 14.0726 26.4737 14.5157 29.2659C14.5157 29.2826 14.524 29.2993 14.5324 29.316C14.5407 29.3328 14.5575 29.3411 14.5742 29.3578C14.5909 29.3662 14.6076 29.3746 14.6327 29.3746C14.6494 29.3746 14.6745 29.3746 14.6912 29.3746L17.3915 28.572C17.3915 28.572 17.4583 28.5386 17.4834 28.5051C17.5001 28.4717 17.5085 28.4382 17.5001 28.4048C17.4918 28.3714 17.4667 28.3379 17.4332 28.3212C17.3998 28.3045 17.358 28.3045 17.3246 28.3212L14.7832 29.0736C14.3652 26.3316 14.6912 23.4892 15.7362 20.8057C15.7446 20.7722 15.7446 20.7472 15.7362 20.7137H15.7278Z" fill="#FF005C"/>
<path d="M49.4182 31.3221L46.0408 30.9376C45.9823 30.9292 45.9154 30.9376 45.8652 30.971C45.8151 31.0045 45.7816 31.0546 45.7649 31.1131C45.7649 31.1466 45.7649 31.1717 45.7733 31.1967C45.7816 31.2218 45.7983 31.2553 45.8234 31.272C45.8485 31.2887 45.8652 31.3138 45.8987 31.3221C45.9237 31.3305 45.9572 31.3389 45.9906 31.3389L49.368 31.7151C49.4265 31.7234 49.4934 31.7151 49.5436 31.6816C49.5937 31.6482 49.6272 31.598 49.6439 31.5395C49.6439 31.5395 49.6439 31.481 49.6272 31.4559C49.6188 31.4308 49.6021 31.4057 49.577 31.3807C49.5603 31.3556 49.5352 31.3389 49.5018 31.3305C49.4767 31.3221 49.4432 31.3138 49.4098 31.3138L49.4182 31.3221Z" fill="#FF005C"/>
<path d="M49.5435 30.0849L46.1494 29.8174C46.0908 29.8174 46.024 29.8174 45.9738 29.8592C45.9236 29.901 45.8902 29.9511 45.8818 30.0097C45.8818 30.0097 45.8818 30.0682 45.8986 30.0933C45.9069 30.1183 45.9236 30.1434 45.9487 30.1685C45.9738 30.1936 45.9989 30.2103 46.024 30.2187C46.049 30.227 46.0825 30.2354 46.1159 30.2354L49.51 30.5029C49.5769 30.5029 49.6354 30.5029 49.6856 30.4611C49.7357 30.4193 49.7692 30.3691 49.7775 30.3106C49.7775 30.3106 49.7775 30.2521 49.7608 30.227C49.7525 30.2019 49.7357 30.1769 49.7107 30.1518C49.6856 30.1267 49.6605 30.11 49.6354 30.1016C49.6103 30.0933 49.5769 30.0849 49.5435 30.0849Z" fill="#FF005C"/>
<path d="M49.6104 28.839L46.2079 28.6885C46.1494 28.6885 46.0825 28.6968 46.0323 28.7303C45.9822 28.7637 45.9487 28.8222 45.9487 28.8808C45.9487 28.8808 45.9487 28.9393 45.9738 28.9644C45.9822 28.9894 46.0072 29.0145 46.024 29.0396C46.049 29.0563 46.0741 29.073 46.0992 29.0898C46.1326 29.0981 46.1577 29.1065 46.1912 29.1065L49.5936 29.2569C49.6522 29.2569 49.719 29.2486 49.7692 29.2068C49.8194 29.1733 49.8528 29.1148 49.8612 29.0563C49.8612 29.0563 49.8528 28.9978 49.8361 28.9727C49.8277 28.9476 49.8026 28.9226 49.7859 28.8975C49.7608 28.8808 49.7358 28.864 49.7107 28.8473C49.6772 28.839 49.6522 28.8306 49.6187 28.8306L49.6104 28.839Z" fill="#FF005C"/>
<path d="M49.6189 27.5936L46.2164 27.5518C46.2164 27.5518 46.1579 27.5518 46.1245 27.5601C46.091 27.5685 46.066 27.5852 46.0409 27.6019C46.0158 27.6186 45.9991 27.6437 45.9824 27.6688C45.9656 27.6939 45.9573 27.7273 45.9573 27.7524C45.9573 27.8109 45.9907 27.8694 46.0409 27.9112C46.091 27.953 46.1496 27.9698 46.2164 27.9698L49.6189 28.0116C49.6774 28.0116 49.7443 27.9948 49.7861 27.9614C49.8363 27.9196 49.8613 27.8694 49.8613 27.8109C49.8613 27.7524 49.8279 27.6939 49.7777 27.6521C49.7276 27.6103 49.6691 27.5936 49.6022 27.5936H49.6189Z" fill="#FF005C"/>
<path d="M49.5603 26.3478L46.1662 26.4147C46.1662 26.4147 46.1077 26.4147 46.0742 26.4314C46.0492 26.4398 46.0157 26.4565 45.999 26.4816C45.9739 26.4983 45.9572 26.5234 45.9488 26.5568C45.9405 26.5819 45.9321 26.6153 45.9321 26.6404C45.9321 26.6989 45.9739 26.7574 46.0241 26.7909C46.0742 26.8327 46.1328 26.8494 46.1996 26.841L49.5938 26.7741C49.5938 26.7741 49.6523 26.7741 49.6857 26.7574C49.7108 26.7491 49.7442 26.7323 49.761 26.7073C49.786 26.6905 49.8027 26.6655 49.8111 26.632C49.8195 26.6069 49.8278 26.5735 49.8278 26.5484C49.8195 26.4899 49.786 26.4314 49.7359 26.398C49.6857 26.3562 49.6272 26.3394 49.5603 26.3478Z" fill="#FF005C"/>
<path d="M49.4516 25.1104L46.0659 25.2943C46.0659 25.2943 46.0073 25.2943 45.9739 25.311C45.9488 25.3193 45.9237 25.3361 45.8987 25.3611C45.8736 25.3862 45.8652 25.4113 45.8485 25.4364C45.8401 25.4615 45.8318 25.4949 45.8318 25.52C45.8401 25.5785 45.8819 25.637 45.9321 25.6705C45.9823 25.7039 46.0491 25.7206 46.1077 25.7206L49.4934 25.5367C49.4934 25.5367 49.5519 25.5367 49.5854 25.52C49.6104 25.5116 49.6439 25.4949 49.6606 25.4698C49.6857 25.4447 49.7024 25.4197 49.7108 25.3946C49.7191 25.3695 49.7275 25.3361 49.7275 25.311C49.7191 25.2525 49.6857 25.1939 49.6355 25.1605C49.5854 25.1271 49.5185 25.1104 49.46 25.1104H49.4516Z" fill="#FF005C"/>
<path d="M19.5065 21.6836V11.3006L17.1824 8.97656C11.1466 12.6967 7.12549 19.3679 7.12549 26.9754C7.12549 34.6497 11.2135 41.3627 17.3329 45.0661L20.4093 42.3826H25.4002" stroke="#00FFFF" stroke-width="0.3"/>
<path d="M18.5199 10.3467L15.6692 13.0135L17.2576 14.4765V19.9355" stroke="#00FFFF" stroke-width="0.3"/>
<path d="M11.6648 14L13.5123 15.5633L11.832 17.8957" stroke="#00FFFF" stroke-width="0.3"/>
<path d="M12.668 41.1704L19.5314 36.1126V32.6433H23.0927V28.3965" stroke="#00FFFF" stroke-width="0.3"/>
<path d="M11.3555 39.5227L15.4352 36.4797L12.2333 35.4766L9.82568 37.2405" stroke="#00FFFF" stroke-width="0.3"/>
<path d="M44.5359 17.5371L40.0466 21.5415" stroke="#00FFFF" stroke-width="0.3"/>
<path d="M33.5845 7.2373V11.1748C33.5845 11.1748 35.8333 12.9722 35.7162 16.8344L37.3631 15.0287V8.65012" stroke="#00FFFF" stroke-width="0.3"/>
<path d="M43.1064 15.4135L40.1052 18.4147V12.6631L43.1064 15.4135Z" fill="#00FFFF"/>
<path d="M41.4429 39.2307L41.5014 31.8322L43.0647 31.7402V38.0269L45.1547 39.9329" stroke="#00FFFF" stroke-width="0.3"/>
<path d="M36.6107 46.361L34.3201 43.8447" stroke="#00FFFF" stroke-width="0.3"/>
<path d="M38.1992 45.6341L35.9504 43.168" stroke="#00FFFF" stroke-width="0.3"/>
<path d="M20.4094 35.2683H26.5957V25.8383H22.8672V21.416H31.2355V35.2599H36.5356V39.6823H20.4094V35.2599V35.2683ZM31.8541 16.0071C31.8541 16.5004 31.7621 16.9601 31.5782 17.3865C31.3943 17.8129 31.1435 18.189 30.8258 18.49C30.5081 18.7993 30.132 19.0418 29.7056 19.2257C29.2792 19.4096 28.8278 19.5015 28.3597 19.5015C27.8664 19.5015 27.415 19.4096 26.997 19.2257C26.579 19.0418 26.2112 18.7993 25.8935 18.49C25.5758 18.1807 25.325 17.8129 25.1411 17.3865C24.9572 16.9601 24.8652 16.5004 24.8652 16.0071C24.8652 15.5139 24.9572 15.0541 25.1411 14.6277C25.325 14.2014 25.5758 13.8336 25.8935 13.5242C26.2112 13.2149 26.579 12.9725 26.997 12.7886C27.415 12.6047 27.8664 12.5127 28.3597 12.5127C28.8278 12.5127 29.2709 12.6047 29.7056 12.7886C30.132 12.9725 30.5081 13.2149 30.8258 13.5242C31.1435 13.8336 31.3943 14.2014 31.5782 14.6277C31.7621 15.0541 31.8541 15.5139 31.8541 16.0071Z" fill="#00FFFF"/>
<path d="M33.551 21.541V32.9188H36.6107" stroke="#00FFFF" stroke-width="0.3"/>
<path d="M33.551 29.2572H41.0666V24.4336H35.9503V27.0252H38.1991" stroke="#00FFFF" stroke-width="0.3"/>
<path d="M19.5315 25.9629H17.2827V21.7412" stroke="#00FFFF" stroke-width="0.3"/>
<path d="M21.822 16.0153C21.822 16.0153 21.6298 12.1697 24.6477 10.3891C25.5589 9.85404 26.7627 9.50293 28.3511 9.50293" stroke="#00FFFF" stroke-width="0.3"/>
<path d="M23.3603 11.4592L19.8826 7.98145" stroke="#00FFFF" stroke-width="0.3"/>
<path d="M24.6476 10.3889L21.6548 7.3877" stroke="#00FFFF" stroke-width="0.3"/>
</g>
<defs>
<filter id="filter0_f_898_14902" x="7.97607" y="1.35742" width="46.8081" height="36.6133" filterUnits="userSpaceOnUse" color-interpolation-filters="sRGB">
<feFlood flood-opacity="0" result="BackgroundImageFix"/>
<feBlend mode="normal" in="SourceGraphic" in2="BackgroundImageFix" result="shape"/>
<feGaussianBlur stdDeviation="2" result="effect1_foregroundBlur_898_14902"/>
</filter>
<filter id="filter1_f_898_14902" x="0.125488" y="0.46875" width="55.4011" height="54.0312" filterUnits="userSpaceOnUse" color-interpolation-filters="sRGB">
<feFlood flood-opacity="0" result="BackgroundImageFix"/>
<feBlend mode="normal" in="SourceGraphic" in2="BackgroundImageFix" result="shape"/>
<feGaussianBlur stdDeviation="3" result="effect1_foregroundBlur_898_14902"/>
</filter>
<clipPath id="clip0_898_14902">
<rect width="42.8694" height="42" fill="white" transform="translate(7 6)"/>
</clipPath>
</defs>
</svg>
