<?xml version="1.0" encoding="UTF-8" standalone="no"?>
<svg
   width="233"
   height="55.726559"
   viewBox="0 0 233 55.726559"
   fill="none"
   version="1.1"
   id="svg188"
   xmlns="http://www.w3.org/2000/svg"
   xmlns:svg="http://www.w3.org/2000/svg">
  <g
     filter="url(#filter0_d_1945_37561)"
     id="g9">
    <mask
       id="path-1-inside-1_1945_37561"
       fill="#ffffff">
      <path
         fill-rule="evenodd"
         clip-rule="evenodd"
         d="m 64.6829,9.72656 1.7923,1.59684 27.412,-2e-4 H 189.527 L 225,45.7168 H 96.3029 L 94.9058,47.7266 25.9502,47.3989 8,29.9467 V 9.72656 Z"
         id="path2" />
    </mask>
    <path
       fill-rule="evenodd"
       clip-rule="evenodd"
       d="m 64.6829,9.72656 1.7923,1.59684 27.412,-2e-4 H 189.527 L 225,45.7168 H 96.3029 L 94.9058,47.7266 25.9502,47.3989 8,29.9467 V 9.72656 Z"
       fill="#00e3ff"
       fill-opacity="0.03"
       shape-rendering="crispEdges"
       id="path5" />
    <path
       d="m 66.4752,11.3234 -0.7983,0.896 0.3413,0.3041 0.457,-10e-5 z M 64.6829,9.72656 65.4812,8.83059 65.1399,8.52656 h -0.457 z m 29.2263,1.59664 v -1.2 0 z m 95.6178,0 0.836,-0.8615 -0.35,-0.3385 h -0.486 z M 225,45.7168 v 1.2 h 2.961 l -2.126,-2.0615 z m -128.6972,0 v -1.2 h -0.6272 l -0.3581,0.5151 z m -1.397,2.0098 -0.0057,1.2 0.6309,0.003 0.3601,-0.5181 z m -68.9556,-0.3277 -0.8365,0.8604 0.3469,0.3373 0.4839,0.0023 z M 8,29.9467 H 6.8 v 0.5069 l 0.36349,0.3535 z M 8,9.72656 v -1.2 H 6.8 v 1.2 z m 59.2735,0.70094 -1.7923,-1.59691 -1.5966,1.79191 1.7923,1.5969 z m 26.6357,-0.3043 -27.434,2e-4 v 2.4 l 27.434,-2e-4 z m 95.6178,0 H 93.9092 v 2.4 h 95.6178 z m 36.308,34.7321 -35.472,-34.3936 -1.671,1.7231 35.473,34.3935 z M 96.3028,46.9168 H 225 v -2.4 H 96.3028 Z m -0.4117,1.4947 1.3971,-2.0098 -1.9707,-1.3698 -1.3971,2.0097 z m -69.9466,0.1874 68.9556,0.3277 0.0114,-2.4 -68.9556,-0.3277 z M 7.16349,30.8071 25.1137,48.2593 26.7867,46.5385 8.83651,29.0863 Z M 6.8,9.72656 V 29.9467 H 9.2 V 9.72656 Z m 57.8829,-1.2 H 8 v 2.40004 h 56.6829 z"
       fill="#ffffff"
       mask="url(#path-1-inside-1_1945_37561)"
       id="path7" />
  </g>
  <g
     filter="url(#filter3_d_1945_37561)"
     id="g32">
    <path
       d="m 58.434,34.7037 h -2.992 l 2.482,-11.713 3.434,-2.074 z m 4.4952,-11.866 h 2.788 l -0.493,2.312 2.788,3.026 1.122,-5.338 h 2.788 l -2.516,11.866 h -2.822 l 0.578,-2.72 -2.754,-2.924 -1.207,5.644 h -2.788 z m 9.8281,5.44 h 4.981 l -0.306,1.411 h -4.981 z m 14.8778,5.729 c -0.2607,0.4647 -0.6857,0.697 -1.275,0.697 h -6.579 c -0.8613,0 -1.1957,-0.4647 -1.003,-1.394 l 2.057,-9.622 c 0.3967,-0.578 0.8897,-0.867 1.479,-0.867 h 7.701 l -0.017,0.068 -3.434,2.55 h -3.213 l -1.411,6.647 h 3.213 l 0.646,-3.026 h -2.924 l 3.026,-2.397 h 3.298 z m 4.2351,-11.169 h 8.1428 c 0.658,0.1927 0.884,0.6857 0.68,1.479 l -2.2098,10.404 h -2.992 l 1.156,-5.457 -3.485,1.598 -1.173,5.525 -2.635,-1.7 1.105,-5.219 6.851,-3.315 0.17,-0.833 h -3.145 l -0.425,1.972 -3.332,1.632 z m 10.9158,-0.017 h 11.849 c 0.737,0.1927 1.02,0.6857 0.85,1.479 l -1.7,8.007 -3.791,2.057 1.938,-9.078 h -1.411 l -1.479,6.885 -3.978,2.329 1.972,-9.214 h -1.411 l -1.887,8.806 -3.8077,2.193 z m 14.762,0 h 6.647 l 1.921,2.72 h -6.12 l -0.272,1.275 h 2.244 l 1.751,2.703 h -4.573 l -0.544,2.55 h 3.502 l 1.921,2.652 h -9.01 z"
       fill="#00ffff"
       id="path28" />
    <path
       d="m 58.434,34.7037 h -2.992 l 2.482,-11.713 3.434,-2.074 z m 4.4952,-11.866 h 2.788 l -0.493,2.312 2.788,3.026 1.122,-5.338 h 2.788 l -2.516,11.866 h -2.822 l 0.578,-2.72 -2.754,-2.924 -1.207,5.644 h -2.788 z m 9.8281,5.44 h 4.981 l -0.306,1.411 h -4.981 z m 14.8778,5.729 c -0.2607,0.4647 -0.6857,0.697 -1.275,0.697 h -6.579 c -0.8613,0 -1.1957,-0.4647 -1.003,-1.394 l 2.057,-9.622 c 0.3967,-0.578 0.8897,-0.867 1.479,-0.867 h 7.701 l -0.017,0.068 -3.434,2.55 h -3.213 l -1.411,6.647 h 3.213 l 0.646,-3.026 h -2.924 l 3.026,-2.397 h 3.298 z m 4.2351,-11.169 h 8.1428 c 0.658,0.1927 0.884,0.6857 0.68,1.479 l -2.2098,10.404 h -2.992 l 1.156,-5.457 -3.485,1.598 -1.173,5.525 -2.635,-1.7 1.105,-5.219 6.851,-3.315 0.17,-0.833 h -3.145 l -0.425,1.972 -3.332,1.632 z m 10.9158,-0.017 h 11.849 c 0.737,0.1927 1.02,0.6857 0.85,1.479 l -1.7,8.007 -3.791,2.057 1.938,-9.078 h -1.411 l -1.479,6.885 -3.978,2.329 1.972,-9.214 h -1.411 l -1.887,8.806 -3.8077,2.193 z m 14.762,0 h 6.647 l 1.921,2.72 h -6.12 l -0.272,1.275 h 2.244 l 1.751,2.703 h -4.573 l -0.544,2.55 h 3.502 l 1.921,2.652 h -9.01 z"
       fill="#ffffff"
       id="path30" />
  </g>
  <g
     filter="url(#filter4_d_1945_37561)"
     id="g36">
    <path
       d="M 117,8.00033 114.5,6 l -45,3.3e-4 2.2972,2 z"
       fill="#ff0049"
       id="path34" />
  </g>
  <g
     filter="url(#filter6_d_1945_37561)"
     id="g44">
    <path
       d="M 141.5,8.00033 139,6 l -15,3.3e-4 2.297,2 z"
       fill="#ff0049"
       id="path42" />
  </g>
  <defs
     id="defs186">
    <filter
       id="filter0_d_1945_37561"
       x="0"
       y="1.72656"
       width="233"
       height="54"
       filterUnits="userSpaceOnUse"
       color-interpolation-filters="sRGB">
      <feFlood
         flood-opacity="0"
         result="BackgroundImageFix"
         id="feFlood50" />
      <feColorMatrix
         in="SourceAlpha"
         type="matrix"
         values="0 0 0 0 0 0 0 0 0 0 0 0 0 0 0 0 0 0 127 0"
         result="hardAlpha"
         id="feColorMatrix52" />
      <feOffset
         id="feOffset54" />
      <feGaussianBlur
         stdDeviation="4"
         id="feGaussianBlur56" />
      <feComposite
         in2="hardAlpha"
         operator="out"
         id="feComposite58" />
      <feColorMatrix
         type="matrix"
         values="0 0 0 0 1 0 0 0 0 1 0 0 0 0 1 0 0 0 0.25 0"
         id="feColorMatrix60" />
      <feBlend
         mode="normal"
         in2="BackgroundImageFix"
         result="effect1_dropShadow_1945_37561"
         id="feBlend62" />
      <feBlend
         mode="normal"
         in="SourceGraphic"
         in2="effect1_dropShadow_1945_37561"
         result="shape"
         id="feBlend64" />
    </filter>
    <filter
       id="filter3_d_1945_37561"
       x="47.442001"
       y="12.917"
       width="86.674004"
       height="31.4697"
       filterUnits="userSpaceOnUse"
       color-interpolation-filters="sRGB">
      <feFlood
         flood-opacity="0"
         result="BackgroundImageFix"
         id="feFlood101" />
      <feColorMatrix
         in="SourceAlpha"
         type="matrix"
         values="0 0 0 0 0 0 0 0 0 0 0 0 0 0 0 0 0 0 127 0"
         result="hardAlpha"
         id="feColorMatrix103" />
      <feOffset
         id="feOffset105" />
      <feGaussianBlur
         stdDeviation="4"
         id="feGaussianBlur107" />
      <feComposite
         in2="hardAlpha"
         operator="out"
         id="feComposite109" />
      <feColorMatrix
         type="matrix"
         values="0 0 0 0 1 0 0 0 0 1 0 0 0 0 1 0 0 0 0.2 0"
         id="feColorMatrix111" />
      <feBlend
         mode="normal"
         in2="BackgroundImageFix"
         result="effect1_dropShadow_1945_37561"
         id="feBlend113" />
      <feBlend
         mode="normal"
         in="SourceGraphic"
         in2="effect1_dropShadow_1945_37561"
         result="shape"
         id="feBlend115" />
    </filter>
    <filter
       id="filter4_d_1945_37561"
       x="63.5"
       y="0"
       width="59.5"
       height="14"
       filterUnits="userSpaceOnUse"
       color-interpolation-filters="sRGB">
      <feFlood
         flood-opacity="0"
         result="BackgroundImageFix"
         id="feFlood118" />
      <feColorMatrix
         in="SourceAlpha"
         type="matrix"
         values="0 0 0 0 0 0 0 0 0 0 0 0 0 0 0 0 0 0 127 0"
         result="hardAlpha"
         id="feColorMatrix120" />
      <feOffset
         id="feOffset122" />
      <feGaussianBlur
         stdDeviation="3"
         id="feGaussianBlur124" />
      <feComposite
         in2="hardAlpha"
         operator="out"
         id="feComposite126" />
      <feColorMatrix
         type="matrix"
         values="0 0 0 0 1 0 0 0 0 0 0 0 0 0 0 0 0 0 0.75 0"
         id="feColorMatrix128" />
      <feBlend
         mode="normal"
         in2="BackgroundImageFix"
         result="effect1_dropShadow_1945_37561"
         id="feBlend130" />
      <feBlend
         mode="normal"
         in="SourceGraphic"
         in2="effect1_dropShadow_1945_37561"
         result="shape"
         id="feBlend132" />
    </filter>
    <filter
       id="filter6_d_1945_37561"
       x="118"
       y="0"
       width="29.5"
       height="14"
       filterUnits="userSpaceOnUse"
       color-interpolation-filters="sRGB">
      <feFlood
         flood-opacity="0"
         result="BackgroundImageFix"
         id="feFlood152" />
      <feColorMatrix
         in="SourceAlpha"
         type="matrix"
         values="0 0 0 0 0 0 0 0 0 0 0 0 0 0 0 0 0 0 127 0"
         result="hardAlpha"
         id="feColorMatrix154" />
      <feOffset
         id="feOffset156" />
      <feGaussianBlur
         stdDeviation="3"
         id="feGaussianBlur158" />
      <feComposite
         in2="hardAlpha"
         operator="out"
         id="feComposite160" />
      <feColorMatrix
         type="matrix"
         values="0 0 0 0 1 0 0 0 0 0 0 0 0 0 0 0 0 0 0.75 0"
         id="feColorMatrix162" />
      <feBlend
         mode="normal"
         in2="BackgroundImageFix"
         result="effect1_dropShadow_1945_37561"
         id="feBlend164" />
      <feBlend
         mode="normal"
         in="SourceGraphic"
         in2="effect1_dropShadow_1945_37561"
         result="shape"
         id="feBlend166" />
    </filter>
  </defs>
</svg>
