<svg width="202" height="47" viewBox="0 0 202 47" fill="none"
    xmlns="http://www.w3.org/2000/svg">
    <path d="M147.5 44.5278H55.2637" stroke="white" stroke-width="1.2" stroke-miterlimit="10"/>
    <path d="M0 42V27.0803L26.1451 0H202V19.7716L183.199 38H50.5L48.0498 42H0Z" fill="#00FFFF"/>
    <path d="M31.2894 13.117H36.9844L38.5824 15.939H32.4454L32.0714 17.673H37.4774C37.976 18.0923 38.1574 18.6137 38.0214 19.237L37.0354 23.946C36.9334 24.3767 36.429 24.694 35.5224 24.898H30.2524L28.3314 22.229H34.3154L34.7234 20.342H29.8954C29.0227 20.342 28.66 19.9737 28.8074 19.237L29.8784 14.256C30.003 13.6553 30.4734 13.2757 31.2894 13.117ZM42.4431 13.1H49.0901L51.0111 15.82H44.8911L44.6191 17.095H46.8631L48.6141 19.798H44.0411L43.4971 22.348H46.9991L48.9201 25H39.9101L42.4431 13.1ZM52.8718 13.117H55.6598L55.1668 15.429L57.9548 18.455L59.0768 13.117H61.8648L59.3488 24.983H56.5268L57.1048 22.263L54.3508 19.339L53.1438 24.983H50.3558L52.8718 13.117ZM65.1479 13.117H68.1569L73.8349 16.313L72.3219 23.487C72.2086 23.997 71.7439 24.4673 70.9279 24.898H66.6099L67.2049 22.076H69.6019L70.4859 17.979L67.7149 16.313L65.5389 26.564H65.4199L62.7339 24.507L65.1479 13.117ZM80.8331 13.1H88.8911L90.5061 15.854H86.4941L84.6411 24.558L81.2241 26.768L83.5361 15.854H80.2551L80.8331 13.1ZM93.9775 13.1H101.679L99.2985 24.286C99.0379 24.7507 98.6129 24.983 98.0235 24.983H91.4445C90.5832 24.983 90.2489 24.5183 90.4415 23.589L92.4985 13.967C92.8952 13.389 93.3882 13.1 93.9775 13.1ZM95.0145 15.718L93.6035 22.365H96.8165L98.2275 15.718H95.0145ZM112.918 25.17L108.209 21.43L110.181 12.148L112.425 14.358L111.235 19.985L113.53 21.77L115.077 14.494L118.273 12.522L116.301 21.804L119.463 19.951L120.67 14.273L123.917 12.114L121.962 21.362L115.519 25.17H112.918ZM127.006 13.117H135.149C135.806 13.3097 136.033 13.8027 135.829 14.596L133.619 25H130.627L131.783 19.543L128.298 21.141L127.125 26.666L124.49 24.966L125.595 19.747L132.446 16.432L132.616 15.599H129.471L129.046 17.571L125.714 19.203L127.006 13.117ZM139.333 13.117H142.376L140.37 22.518H143.787L146.218 25.017H136.8L139.333 13.117ZM149.951 13.117H152.994L150.988 22.518H154.405L156.836 25.017H147.418L149.951 13.117ZM160.416 13.1H167.063L168.984 15.82H162.864L162.592 17.095H164.836L166.587 19.798H162.014L161.47 22.348H164.972L166.893 25H157.883L160.416 13.1ZM171.593 13.1H179.651L181.266 15.854H177.254L175.401 24.558L171.984 26.768L174.296 15.854H171.015L171.593 13.1Z" fill="#0D1238"/>
    <path d="M167.393 46.5981L170.59 42H182.085L179.211 46.5981H167.393Z" fill="#FF0049"/>
    <path d="M151 46.5981L154.197 42H165.692L162.819 46.5981H151Z" fill="#FF0049"/>
</svg>
