<svg width="232" height="77" viewBox="0 0 232 77" fill="none" xmlns="http://www.w3.org/2000/svg">
<g filter="url(#filter0_f_898_14902)">
<path d="M162.5 59.5273H70.2637" stroke="white" stroke-width="1.2" stroke-miterlimit="10"/>
<path d="M15 57V42.0803L41.1451 15H217V34.7716L198.199 53H65.5L63.0498 57H15Z" fill="#00FFFF"/>
<path d="M182.393 61.5981L185.59 57H197.085L194.211 61.5981H182.393Z" fill="#FF0049"/>
<path d="M166 61.5981L169.197 57H180.692L177.819 61.5981H166Z" fill="#FF0049"/>
</g>
<path d="M162.5 59.5273H70.2637" stroke="white" stroke-width="1.2" stroke-miterlimit="10"/>
<path d="M15 57V42.0803L41.1451 15H217V34.7716L198.199 53H65.5L63.0498 57H15Z" fill="#00FFFF"/>
<path d="M46.2894 28.117H51.9844L53.5824 30.939H47.4454L47.0714 32.673H52.4774C52.976 33.0923 53.1574 33.6137 53.0214 34.237L52.0354 38.946C51.9334 39.3767 51.429 39.694 50.5224 39.898H45.2524L43.3314 37.229H49.3154L49.7234 35.342H44.8954C44.0227 35.342 43.66 34.9737 43.8074 34.237L44.8784 29.256C45.003 28.6553 45.4734 28.2757 46.2894 28.117ZM57.4431 28.1H64.0901L66.0111 30.82H59.8911L59.6191 32.095H61.8631L63.6141 34.798H59.0411L58.4971 37.348H61.9991L63.9201 40H54.9101L57.4431 28.1ZM67.8718 28.117H70.6598L70.1668 30.429L72.9548 33.455L74.0768 28.117H76.8648L74.3488 39.983H71.5268L72.1048 37.263L69.3508 34.339L68.1438 39.983H65.3558L67.8718 28.117ZM80.1479 28.117H83.1569L88.8349 31.313L87.3219 38.487C87.2086 38.997 86.7439 39.4673 85.9279 39.898H81.6099L82.2049 37.076H84.6019L85.4859 32.979L82.7149 31.313L80.5389 41.564H80.4199L77.7339 39.507L80.1479 28.117ZM95.8331 28.1H103.891L105.506 30.854H101.494L99.6411 39.558L96.2241 41.768L98.5361 30.854H95.2551L95.8331 28.1ZM108.978 28.1H116.679L114.299 39.286C114.038 39.7507 113.613 39.983 113.024 39.983H106.445C105.583 39.983 105.249 39.5183 105.442 38.589L107.499 28.967C107.895 28.389 108.388 28.1 108.978 28.1ZM110.015 30.718L108.604 37.365H111.817L113.228 30.718H110.015ZM127.918 40.17L123.209 36.43L125.181 27.148L127.425 29.358L126.235 34.985L128.53 36.77L130.077 29.494L133.273 27.522L131.301 36.804L134.463 34.951L135.67 29.273L138.917 27.114L136.962 36.362L130.519 40.17H127.918ZM142.006 28.117H150.149C150.806 28.3097 151.033 28.8027 150.829 29.596L148.619 40H145.627L146.783 34.543L143.298 36.141L142.125 41.666L139.49 39.966L140.595 34.747L147.446 31.432L147.616 30.599H144.471L144.046 32.571L140.714 34.203L142.006 28.117ZM154.333 28.117H157.376L155.37 37.518H158.787L161.218 40.017H151.8L154.333 28.117ZM164.951 28.117H167.994L165.988 37.518H169.405L171.836 40.017H162.418L164.951 28.117ZM175.416 28.1H182.063L183.984 30.82H177.864L177.592 32.095H179.836L181.587 34.798H177.014L176.47 37.348H179.972L181.893 40H172.883L175.416 28.1ZM186.593 28.1H194.651L196.266 30.854H192.254L190.401 39.558L186.984 41.768L189.296 30.854H186.015L186.593 28.1Z" fill="#0D1238"/>
<path d="M182.393 61.5981L185.59 57H197.085L194.211 61.5981H182.393Z" fill="#FF0049"/>
<path d="M166 61.5981L169.197 57H180.692L177.819 61.5981H166Z" fill="#FF0049"/>
<defs>
<filter id="filter0_f_898_14902" x="0" y="0" width="232" height="76.5977" filterUnits="userSpaceOnUse" color-interpolation-filters="sRGB">
<feFlood flood-opacity="0" result="BackgroundImageFix"/>
<feBlend mode="normal" in="SourceGraphic" in2="BackgroundImageFix" result="shape"/>
<feGaussianBlur stdDeviation="7.5" result="effect1_foregroundBlur_898_14902"/>
</filter>
</defs>
</svg>
