<svg width="354" height="56" viewBox="0 0 354 56" fill="none"
    xmlns="http://www.w3.org/2000/svg">
    <g filter="url(#filter0_d_438_3224)">
        <mask id="path-1-inside-1_438_3224" fill="white">
            <path fill-rule="evenodd" clip-rule="evenodd" d="M295.847 9.72656L294.261 11.3234L285.984 11.3232L279.651 11.3232L185.386 11.3232L154 45.7168H267.87L270.22 47.7206L330.118 47.3989L346 29.9467V9.72656H295.847Z"/>
        </mask>
        <path fill-rule="evenodd" clip-rule="evenodd" d="M295.847 9.72656L294.261 11.3234L285.984 11.3232L279.651 11.3232L185.386 11.3232L154 45.7168H267.87L270.22 47.7206L330.118 47.3989L346 29.9467V9.72656H295.847Z" fill="#00E3FF" fill-opacity="0.03"/>
        <path d="M294.261 11.3234L295.113 12.1689L294.761 12.5234L294.261 12.5234L294.261 11.3234ZM295.847 9.72656L294.996 8.88099L295.348 8.52656H295.847V9.72656ZM285.984 11.3232V10.1232H285.984L285.984 11.3232ZM279.651 11.3232V12.5232V11.3232ZM185.386 11.3232L184.499 10.5143L184.856 10.1232L185.386 10.1232V11.3232ZM154 45.7168V46.9168H151.28L153.113 44.9079L154 45.7168ZM267.87 45.7168V44.5168H268.312L268.649 44.8037L267.87 45.7168ZM270.22 47.7206L270.227 48.9206L269.781 48.923L269.442 48.6337L270.22 47.7206ZM330.118 47.3989L331.005 48.2066L330.651 48.5961L330.124 48.5989L330.118 47.3989ZM346 29.9467H347.2V30.411L346.888 30.7543L346 29.9467ZM346 9.72656V8.52656H347.2V9.72656H346ZM293.41 10.4778L294.996 8.88099L296.699 10.5721L295.113 12.1689L293.41 10.4778ZM285.984 10.1232L294.261 10.1234L294.261 12.5234L285.984 12.5232L285.984 10.1232ZM279.651 10.1232L285.984 10.1232V12.5232L279.651 12.5232V10.1232ZM185.386 10.1232L279.651 10.1232V12.5232L185.386 12.5232V10.1232ZM153.113 44.9079L184.499 10.5143L186.272 12.1321L154.886 46.5257L153.113 44.9079ZM267.87 46.9168H154V44.5168H267.87V46.9168ZM269.442 48.6337L267.092 46.63L268.649 44.8037L270.999 46.8074L269.442 48.6337ZM330.124 48.5989L270.227 48.9206L270.214 46.5206L330.111 46.1989L330.124 48.5989ZM346.888 30.7543L331.005 48.2066L329.23 46.5912L345.112 29.139L346.888 30.7543ZM347.2 9.72656V29.9467H344.8V9.72656H347.2ZM295.847 8.52656H346V10.9266H295.847V8.52656Z" fill="white" mask="url(#path-1-inside-1_438_3224)"/>
    </g>
    <g filter="url(#filter1_d_438_3224)">
        <mask id="path-3-inside-2_438_3224" fill="white">
            <path fill-rule="evenodd" clip-rule="evenodd" d="M62.6829 9.72656L64.4752 11.3234L91.9085 11.3232L187.053 11.3232L155.893 45.7168H94.3028L92.7659 47.9278L23.9935 47.441L6 29.9467V9.72656H62.6829Z"/>
        </mask>
        <path fill-rule="evenodd" clip-rule="evenodd" d="M62.6829 9.72656L64.4752 11.3234L91.9085 11.3232L187.053 11.3232L155.893 45.7168H94.3028L92.7659 47.9278L23.9935 47.441L6 29.9467V9.72656H62.6829Z" fill="#00E3FF" fill-opacity="0.03"/>
        <path fill-rule="evenodd" clip-rule="evenodd" d="M62.6829 9.72656L64.4752 11.3234L91.9085 11.3232L187.053 11.3232L155.893 45.7168H94.3028L92.7659 47.9278L23.9935 47.441L6 29.9467V9.72656H62.6829Z" fill="#00FFFF"/>
        <path fill-rule="evenodd" clip-rule="evenodd" d="M62.6829 9.72656L64.4752 11.3234L91.9085 11.3232L187.053 11.3232L155.893 45.7168H94.3028L92.7659 47.9278L23.9935 47.441L6 29.9467V9.72656H62.6829Z" fill="#00FFFF"/>
        <path d="M64.4752 11.3234L63.6769 12.2194L64.0182 12.5235L64.4752 12.5234L64.4752 11.3234ZM62.6829 9.72656L63.4812 8.83059L63.1399 8.52656H62.6829V9.72656ZM91.9085 11.3232V10.1232H91.9085L91.9085 11.3232ZM187.053 11.3232L187.943 12.1289L189.76 10.1232L187.053 10.1232V11.3232ZM155.893 45.7168V46.9168H156.425L156.782 46.5225L155.893 45.7168ZM94.3028 45.7168V44.5168H93.6756L93.3175 45.0319L94.3028 45.7168ZM92.7659 47.9278L92.7574 49.1278L93.3901 49.1322L93.7512 48.6127L92.7659 47.9278ZM23.9935 47.441L23.1569 48.3014L23.5027 48.6375L23.985 48.6409L23.9935 47.441ZM6 29.9467H4.8V30.4536L5.16349 30.8071L6 29.9467ZM6 9.72656V8.52656H4.8V9.72656H6ZM65.2735 10.4275L63.4812 8.83059L61.8846 10.6225L63.6769 12.2194L65.2735 10.4275ZM91.9085 10.1232L64.4752 10.1234L64.4752 12.5234L91.9085 12.5232L91.9085 10.1232ZM187.053 10.1232L91.9085 10.1232V12.5232L187.053 12.5232V10.1232ZM156.782 46.5225L187.943 12.1289L186.164 10.5175L155.003 44.9111L156.782 46.5225ZM94.3028 46.9168H155.893V44.5168H94.3028V46.9168ZM93.7512 48.6127L95.2882 46.4017L93.3175 45.0319L91.7806 47.2428L93.7512 48.6127ZM23.985 48.6409L92.7574 49.1278L92.7744 46.7278L24.002 46.241L23.985 48.6409ZM5.16349 30.8071L23.1569 48.3014L24.83 46.5806L6.83651 29.0863L5.16349 30.8071ZM4.8 9.72656V29.9467H7.2V9.72656H4.8ZM62.6829 8.52656H6V10.9266H62.6829V8.52656Z" fill="white" fill-opacity="0.15" mask="url(#path-3-inside-2_438_3224)"/>
    </g>
    <path d="M242.941 22.8207H252.495L250.557 25.2177H245.202L244.624 27.9207H247.276L247.701 30.3177H244.114L243.179 34.7207L240.051 36.4207L242.941 22.8207ZM254.647 34.7037H251.655L254.137 22.9907L257.571 20.9167L254.647 34.7037ZM260.316 30.6577L259.466 34.6187L256.185 36.4887L259.075 22.9227L261.37 25.6767L261.03 27.3087L262.509 28.4817L264.124 27.5637L264.549 25.5577H261.829L259.466 22.8207H267.218C267.841 23.1834 268.062 23.8067 267.881 24.6907L266.929 29.1447L264.753 30.2157L266.402 31.4907L265.688 34.8737L262.73 36.5057L263.444 33.1227L260.316 30.6577ZM269.838 22.8207H276.485L278.406 25.5407H272.286L272.014 26.8157H274.258L276.009 29.5187H271.436L270.892 32.0687H274.394L276.315 34.7207H267.305L269.838 22.8207Z" fill="#00FFFF"/>
    <path d="M242.941 22.8207H252.495L250.557 25.2177H245.202L244.624 27.9207H247.276L247.701 30.3177H244.114L243.179 34.7207L240.051 36.4207L242.941 22.8207ZM254.647 34.7037H251.655L254.137 22.9907L257.571 20.9167L254.647 34.7037ZM260.316 30.6577L259.466 34.6187L256.185 36.4887L259.075 22.9227L261.37 25.6767L261.03 27.3087L262.509 28.4817L264.124 27.5637L264.549 25.5577H261.829L259.466 22.8207H267.218C267.841 23.1834 268.062 23.8067 267.881 24.6907L266.929 29.1447L264.753 30.2157L266.402 31.4907L265.688 34.8737L262.73 36.5057L263.444 33.1227L260.316 30.6577ZM269.838 22.8207H276.485L278.406 25.5407H272.286L272.014 26.8157H274.258L276.009 29.5187H271.436L270.892 32.0687H274.394L276.315 34.7207H267.305L269.838 22.8207Z" fill="white"/>
    <path d="M61.797 34.8907L57.088 31.1507L59.06 21.8687L61.304 24.0787L60.114 29.7057L62.409 31.4907L63.956 24.2147L67.152 22.2427L65.18 31.5247L68.342 29.6717L69.549 23.9937L72.796 21.8347L70.841 31.0827L64.398 34.8907H61.797ZM74.3542 22.8377H82.4972C83.1545 23.0304 83.3812 23.5234 83.1772 24.3167L80.9672 34.7207H77.9752L79.1312 29.2637L75.6462 30.8617L74.4732 36.3867L71.8382 34.6867L72.9432 29.4677L79.7942 26.1527L79.9642 25.3197H76.8192L76.3942 27.2917L73.0622 28.9237L74.3542 22.8377ZM85.3043 22.8207H93.3623L94.9773 25.5747H90.9653L89.1123 34.2787L85.6953 36.4887L88.0073 25.5747H84.7263L85.3043 22.8207ZM97.2927 22.8207H103.94L105.861 25.5407H99.7407L99.4687 26.8157H101.713L103.464 29.5187H98.8907L98.3467 32.0687H101.849L103.77 34.7207H94.7597L97.2927 22.8207ZM109.234 30.6577L108.384 34.6187L105.103 36.4887L107.993 22.9227L110.288 25.6767L109.948 27.3087L111.427 28.4817L113.042 27.5637L113.467 25.5577H110.747L108.384 22.8207H116.136C116.76 23.1834 116.981 23.8067 116.799 24.6907L115.847 29.1447L113.671 30.2157L115.32 31.4907L114.606 34.8737L111.648 36.5057L112.362 33.1227L109.234 30.6577Z" fill="#00FFFF"/>
    <path d="M61.797 34.8907L57.088 31.1507L59.06 21.8687L61.304 24.0787L60.114 29.7057L62.409 31.4907L63.956 24.2147L67.152 22.2427L65.18 31.5247L68.342 29.6717L69.549 23.9937L72.796 21.8347L70.841 31.0827L64.398 34.8907H61.797ZM74.3542 22.8377H82.4972C83.1545 23.0304 83.3812 23.5234 83.1772 24.3167L80.9672 34.7207H77.9752L79.1312 29.2637L75.6462 30.8617L74.4732 36.3867L71.8382 34.6867L72.9432 29.4677L79.7942 26.1527L79.9642 25.3197H76.8192L76.3942 27.2917L73.0622 28.9237L74.3542 22.8377ZM85.3043 22.8207H93.3623L94.9773 25.5747H90.9653L89.1123 34.2787L85.6953 36.4887L88.0073 25.5747H84.7263L85.3043 22.8207ZM97.2927 22.8207H103.94L105.861 25.5407H99.7407L99.4687 26.8157H101.713L103.464 29.5187H98.8907L98.3467 32.0687H101.849L103.77 34.7207H94.7597L97.2927 22.8207ZM109.234 30.6577L108.384 34.6187L105.103 36.4887L107.993 22.9227L110.288 25.6767L109.948 27.3087L111.427 28.4817L113.042 27.5637L113.467 25.5577H110.747L108.384 22.8207H116.136C116.76 23.1834 116.981 23.8067 116.799 24.6907L115.847 29.1447L113.671 30.2157L115.32 31.4907L114.606 34.8737L111.648 36.5057L112.362 33.1227L109.234 30.6577Z" fill="#0D1238"/>
    <g filter="url(#filter2_d_438_3224)">
        <path d="M115 8.00033L112.5 6L67.5 6.00033L69.7972 8.00033H115Z" fill="#FF2929"/>
    </g>
    <g filter="url(#filter3_d_438_3224)">
        <path d="M266 51.7269L263.5 49.7266L218.5 49.7269L220.797 51.7269H266Z" fill="#00FFFF"/>
    </g>
    <g filter="url(#filter4_d_438_3224)">
        <path d="M139.5 8.00033L137 6L122 6.00033L124.297 8.00033H139.5Z" fill="#FF2929"/>
    </g>
    <g filter="url(#filter5_d_438_3224)">
        <path d="M210.275 51.7269L207.775 49.7266L192.775 49.7269L195.073 51.7269H210.275Z" fill="#00FFFF"/>
    </g>
    <defs>
        <filter id="filter0_d_438_3224" x="146" y="1.72656" width="208" height="53.9941" filterUnits="userSpaceOnUse" color-interpolation-filters="sRGB">
            <feFlood flood-opacity="0" result="BackgroundImageFix"/>
            <feColorMatrix in="SourceAlpha" type="matrix" values="0 0 0 0 0 0 0 0 0 0 0 0 0 0 0 0 0 0 127 0" result="hardAlpha"/>
            <feOffset/>
            <feGaussianBlur stdDeviation="4"/>
            <feComposite in2="hardAlpha" operator="out"/>
            <feColorMatrix type="matrix" values="0 0 0 0 1 0 0 0 0 1 0 0 0 0 1 0 0 0 0.25 0"/>
            <feBlend mode="normal" in2="BackgroundImageFix" result="effect1_dropShadow_438_3224"/>
            <feBlend mode="normal" in="SourceGraphic" in2="effect1_dropShadow_438_3224" result="shape"/>
        </filter>
        <filter id="filter1_d_438_3224" x="0" y="3.72656" width="193.053" height="50.2012" filterUnits="userSpaceOnUse" color-interpolation-filters="sRGB">
            <feFlood flood-opacity="0" result="BackgroundImageFix"/>
            <feColorMatrix in="SourceAlpha" type="matrix" values="0 0 0 0 0 0 0 0 0 0 0 0 0 0 0 0 0 0 127 0" result="hardAlpha"/>
            <feOffset/>
            <feGaussianBlur stdDeviation="3"/>
            <feComposite in2="hardAlpha" operator="out"/>
            <feColorMatrix type="matrix" values="0 0 0 0 0 0 0 0 0 1 0 0 0 0 1 0 0 0 0.7 0"/>
            <feBlend mode="normal" in2="BackgroundImageFix" result="effect1_dropShadow_438_3224"/>
            <feBlend mode="normal" in="SourceGraphic" in2="effect1_dropShadow_438_3224" result="shape"/>
        </filter>
        <filter id="filter2_d_438_3224" x="61.5" y="0" width="59.5" height="14.0002" filterUnits="userSpaceOnUse" color-interpolation-filters="sRGB">
            <feFlood flood-opacity="0" result="BackgroundImageFix"/>
            <feColorMatrix in="SourceAlpha" type="matrix" values="0 0 0 0 0 0 0 0 0 0 0 0 0 0 0 0 0 0 127 0" result="hardAlpha"/>
            <feOffset/>
            <feGaussianBlur stdDeviation="3"/>
            <feComposite in2="hardAlpha" operator="out"/>
            <feColorMatrix type="matrix" values="0 0 0 0 1 0 0 0 0 0 0 0 0 0 0 0 0 0 0.75 0"/>
            <feBlend mode="normal" in2="BackgroundImageFix" result="effect1_dropShadow_438_3224"/>
            <feBlend mode="normal" in="SourceGraphic" in2="effect1_dropShadow_438_3224" result="shape"/>
        </filter>
        <filter id="filter3_d_438_3224" x="215.5" y="46.7266" width="53.5" height="8.00024" filterUnits="userSpaceOnUse" color-interpolation-filters="sRGB">
            <feFlood flood-opacity="0" result="BackgroundImageFix"/>
            <feColorMatrix in="SourceAlpha" type="matrix" values="0 0 0 0 0 0 0 0 0 0 0 0 0 0 0 0 0 0 127 0" result="hardAlpha"/>
            <feOffset/>
            <feGaussianBlur stdDeviation="1.5"/>
            <feComposite in2="hardAlpha" operator="out"/>
            <feColorMatrix type="matrix" values="0 0 0 0 0 0 0 0 0 0.890196 0 0 0 0 1 0 0 0 0.75 0"/>
            <feBlend mode="normal" in2="BackgroundImageFix" result="effect1_dropShadow_438_3224"/>
            <feBlend mode="normal" in="SourceGraphic" in2="effect1_dropShadow_438_3224" result="shape"/>
        </filter>
        <filter id="filter4_d_438_3224" x="116" y="0" width="29.5" height="14.0002" filterUnits="userSpaceOnUse" color-interpolation-filters="sRGB">
            <feFlood flood-opacity="0" result="BackgroundImageFix"/>
            <feColorMatrix in="SourceAlpha" type="matrix" values="0 0 0 0 0 0 0 0 0 0 0 0 0 0 0 0 0 0 127 0" result="hardAlpha"/>
            <feOffset/>
            <feGaussianBlur stdDeviation="3"/>
            <feComposite in2="hardAlpha" operator="out"/>
            <feColorMatrix type="matrix" values="0 0 0 0 1 0 0 0 0 0 0 0 0 0 0 0 0 0 0.75 0"/>
            <feBlend mode="normal" in2="BackgroundImageFix" result="effect1_dropShadow_438_3224"/>
            <feBlend mode="normal" in="SourceGraphic" in2="effect1_dropShadow_438_3224" result="shape"/>
        </filter>
        <filter id="filter5_d_438_3224" x="189.775" y="46.7266" width="23.5" height="8.00024" filterUnits="userSpaceOnUse" color-interpolation-filters="sRGB">
            <feFlood flood-opacity="0" result="BackgroundImageFix"/>
            <feColorMatrix in="SourceAlpha" type="matrix" values="0 0 0 0 0 0 0 0 0 0 0 0 0 0 0 0 0 0 127 0" result="hardAlpha"/>
            <feOffset/>
            <feGaussianBlur stdDeviation="1.5"/>
            <feComposite in2="hardAlpha" operator="out"/>
            <feColorMatrix type="matrix" values="0 0 0 0 0 0 0 0 0 0.890196 0 0 0 0 1 0 0 0 0.75 0"/>
            <feBlend mode="normal" in2="BackgroundImageFix" result="effect1_dropShadow_438_3224"/>
            <feBlend mode="normal" in="SourceGraphic" in2="effect1_dropShadow_438_3224" result="shape"/>
        </filter>
    </defs>
</svg>
