<svg width="54" height="52" viewBox="0 0 54 52" fill="none" xmlns="http://www.w3.org/2000/svg">
<g filter="url(#filter0_f_898_14902)">
<path d="M29.1552 46.0723L30.1866 44.9688L31.1761 45.9469L30.1027 47.0002H24.8284L25.6669 46.0555L29.1468 46.0723H29.1552Z" fill="#FF005C"/>
<path d="M25.5825 45.8294L24.6098 46.9162L23.6204 45.9381L24.6937 44.8848H29.9681L29.0708 45.8462L25.5825 45.8211V45.8294Z" fill="#FF005C" stroke="#FF0049"/>
<path d="M40.1064 32.2865C40.1064 32.2865 40.14 32.345 40.1735 32.3617L41.7835 33.1475C41.7835 33.1475 41.8254 33.1642 41.8422 33.1642C41.859 33.1642 41.8841 33.1643 41.9009 33.1559C41.9177 33.1475 41.9428 33.1392 41.9512 33.1224C41.968 33.1057 41.9764 33.089 41.9847 33.0723C43.536 29.2853 43.7876 25.2224 42.7143 21.4521C42.5382 20.8251 42.3201 20.2064 42.077 19.6045C42.077 19.5878 42.0602 19.5711 42.0434 19.5627C42.0267 19.546 42.0183 19.5377 41.9931 19.5377C41.968 19.5377 41.9596 19.5293 41.9344 19.5293C41.9177 19.5293 41.8925 19.5293 41.8757 19.5377C41.8422 19.5544 41.8086 19.5795 41.7919 19.6129C41.7751 19.6463 41.7751 19.6798 41.7919 19.7132C42.035 20.3068 42.2447 20.917 42.4208 21.5357C43.4606 25.1973 43.2341 29.1432 41.7667 32.8299L40.4167 32.1694C41.4565 29.4274 41.7667 26.5265 41.3223 23.7343C41.3223 23.7176 41.3139 23.7009 41.3055 23.6842C41.2971 23.6674 41.2804 23.6591 41.2636 23.6424C41.2468 23.634 41.2301 23.6256 41.2049 23.6256C41.1881 23.6256 41.163 23.6256 41.1462 23.6256L38.4377 24.4282C38.4377 24.4282 38.3707 24.4616 38.3455 24.4951C38.3287 24.5285 38.3203 24.5619 38.3287 24.5954C38.3371 24.6288 38.3623 24.6623 38.3958 24.679C38.4294 24.6957 38.4713 24.6957 38.5048 24.679L41.054 23.9266C41.4732 26.6686 41.1462 29.511 40.098 32.1945C40.0897 32.2279 40.0897 32.253 40.098 32.2865H40.1064Z" fill="#FF005C" stroke="#FF0049"/>
<path d="M6.31381 21.6782L9.70148 22.0627C9.76018 22.0711 9.82726 22.0627 9.87757 22.0293C9.92789 21.9958 9.96143 21.9457 9.9782 21.8872C9.9782 21.8537 9.9782 21.8286 9.96981 21.8036C9.96143 21.7785 9.94466 21.745 9.9195 21.7283C9.89435 21.7116 9.87757 21.6865 9.84403 21.6782C9.81888 21.6698 9.78534 21.6614 9.75179 21.6614L6.36412 21.2852C6.30542 21.2769 6.23834 21.2852 6.18803 21.3187C6.13771 21.3521 6.10417 21.4023 6.0874 21.4608C6.0874 21.4608 6.0874 21.5193 6.10417 21.5444C6.11256 21.5695 6.12933 21.5946 6.15449 21.6196C6.17126 21.6447 6.19641 21.6614 6.22995 21.6698C6.25511 21.6782 6.28865 21.6865 6.32219 21.6865L6.31381 21.6782Z" fill="#FF005C" stroke="#FF0049"/>
<path d="M6.18804 22.9151L9.59248 23.1826C9.65118 23.1826 9.71826 23.1826 9.76857 23.1408C9.81889 23.099 9.85243 23.0488 9.86081 22.9903C9.86081 22.9903 9.86081 22.9318 9.84404 22.9067C9.83566 22.8816 9.81889 22.8565 9.79373 22.8315C9.76857 22.8064 9.74342 22.7897 9.71826 22.7813C9.69311 22.7729 9.65957 22.7646 9.62602 22.7646L6.22158 22.4971C6.1545 22.4971 6.0958 22.4971 6.04549 22.5389C5.99517 22.5807 5.96163 22.6308 5.95325 22.6893C5.95325 22.6893 5.95325 22.7479 5.97002 22.7729C5.9784 22.798 5.99517 22.8231 6.02033 22.8482C6.04549 22.8733 6.07064 22.89 6.0958 22.8983C6.12095 22.9067 6.1545 22.9151 6.18804 22.9151Z" fill="#FF005C" stroke="#FF0049"/>
<path d="M6.12094 24.1612L9.53378 24.3116C9.59247 24.3116 9.65956 24.3033 9.70987 24.2698C9.76018 24.2364 9.79372 24.1779 9.79372 24.1194C9.79372 24.1194 9.79372 24.0608 9.76857 24.0358C9.76018 24.0107 9.73502 23.9856 9.71825 23.9605C9.6931 23.9438 9.66794 23.9271 9.64279 23.9104C9.60924 23.902 9.58409 23.8936 9.55055 23.8936L6.13772 23.7432C6.07902 23.7432 6.01194 23.7515 5.96162 23.7933C5.91131 23.8268 5.87777 23.8853 5.86938 23.9438H5.87777C5.87777 23.9438 5.88616 24.0023 5.90293 24.0274C5.91131 24.0525 5.93647 24.0776 5.95324 24.1026C5.97839 24.1194 6.00355 24.1361 6.02871 24.1528C6.06225 24.1612 6.0874 24.1695 6.12094 24.1695V24.1612Z" fill="#FF005C" stroke="#FF0049"/>
<path d="M6.11256 25.4063L9.52539 25.4481C9.52539 25.4481 9.58409 25.4481 9.61763 25.4397C9.65117 25.4314 9.67633 25.4146 9.70148 25.3979C9.72664 25.3812 9.74341 25.3561 9.76018 25.331C9.77695 25.306 9.78534 25.2725 9.78534 25.2474C9.78534 25.1889 9.7518 25.1304 9.70148 25.0886C9.65117 25.0468 9.59247 25.0301 9.52539 25.0301L6.11256 24.9883C6.05386 24.9883 5.98678 25.005 5.94485 25.0384C5.89454 25.0802 5.86938 25.1304 5.86938 25.1889C5.86938 25.2474 5.90293 25.306 5.95324 25.3478C6.00355 25.3896 6.06225 25.4063 6.12933 25.4063H6.11256Z" fill="#FF005C" stroke="#FF0049"/>
<path d="M6.17128 26.6525L9.57573 26.5857C9.57573 26.5857 9.63443 26.5857 9.66797 26.5689C9.69313 26.5606 9.72667 26.5439 9.74344 26.5188C9.76859 26.5021 9.78536 26.477 9.79375 26.4436C9.80214 26.4185 9.81052 26.385 9.81052 26.36C9.81052 26.3014 9.76859 26.2429 9.71828 26.2095C9.66797 26.1677 9.60927 26.151 9.54219 26.1593L6.13774 26.2262C6.13774 26.2262 6.07905 26.2262 6.0455 26.2429C6.02035 26.2513 5.98681 26.268 5.97004 26.2931C5.94488 26.3098 5.92811 26.3349 5.91972 26.3683C5.91134 26.3934 5.90295 26.4268 5.90295 26.4519C5.91134 26.5104 5.94488 26.569 5.99519 26.6024C6.0455 26.6442 6.1042 26.6609 6.17128 26.6525Z" fill="#FF005C" stroke="#FF0049"/>
<path d="M6.28026 27.8896L9.67632 27.7057C9.67632 27.7057 9.73501 27.7057 9.76856 27.6889C9.79371 27.6806 9.81887 27.6639 9.84402 27.6388C9.86918 27.6137 9.87757 27.5886 9.89434 27.5635C9.90272 27.5385 9.91111 27.505 9.91111 27.4799C9.90272 27.4214 9.86079 27.3629 9.81048 27.3295C9.76017 27.296 9.69309 27.2793 9.63439 27.2793L6.23833 27.4632C6.23833 27.4632 6.17963 27.4632 6.14609 27.4799C6.12093 27.4883 6.08739 27.505 6.07062 27.5301C6.04547 27.5552 6.0287 27.5803 6.02031 27.6053C6.01193 27.6304 6.00354 27.6639 6.00354 27.6889C6.01193 27.7474 6.04547 27.806 6.09578 27.8394C6.14609 27.8728 6.21317 27.8896 6.27187 27.8896H6.28026Z" fill="#FF005C" stroke="#FF0049"/>
<path d="M12.4263 40.3791C12.4263 40.3791 12.485 40.3707 12.5101 40.3457C12.5353 40.3289 12.552 40.3039 12.5688 40.2704C12.5772 40.237 12.5856 40.2035 12.5688 40.1701C12.5688 40.1367 12.5437 40.1116 12.5269 40.0865C9.61718 37.1522 7.53761 33.4153 6.5146 29.2939C6.50622 29.2521 6.48106 29.2187 6.43914 29.1936C6.40559 29.1685 6.35528 29.1685 6.32174 29.1769C6.30497 29.1769 6.27981 29.1936 6.26304 29.202C6.24627 29.2187 6.2295 29.2354 6.22112 29.2521C6.21273 29.2688 6.20435 29.2939 6.20435 29.319C6.20435 29.3441 6.20435 29.3608 6.20435 29.3859C7.24413 33.5658 9.35723 37.3528 12.3089 40.3289C12.3256 40.3457 12.3424 40.3624 12.3592 40.3707C12.376 40.3791 12.4011 40.3875 12.4179 40.3875L12.4263 40.3791Z" fill="#00FFFF" stroke="#00FFFF"/>
<path d="M45.0286 33.6158C46.932 29.0597 47.041 23.8515 45.3556 18.9861L46.9572 17.5732C48.0892 20.4825 48.6426 23.5589 48.5756 26.6103C48.5085 29.6616 47.8209 32.6294 46.5547 35.3296L45.037 33.6158H45.0286Z" fill="#00FFFF" stroke="#00FFFF"/>
<path d="M22.0444 46.0301C22.0864 46.0301 22.1283 46.0301 22.1618 45.9966C22.1954 45.9715 22.2205 45.9297 22.2205 45.8796C22.2205 45.8378 22.2205 45.7876 22.187 45.7542C22.1618 45.7207 22.1199 45.6957 22.078 45.6873C19.9984 45.1272 18.0111 44.241 16.1747 43.0539L16.267 40.7048C16.267 40.7048 16.267 40.6463 16.2502 40.6212C16.2418 40.5961 16.2166 40.5711 16.1999 40.5543C12.7283 37.9711 10.1205 34.2761 8.77046 30.0125C8.77046 29.9875 8.75369 29.9707 8.74531 29.954C8.72854 29.9373 8.71177 29.9206 8.69499 29.9122C8.67822 29.9039 8.65307 29.8955 8.6363 29.8955C8.61953 29.8955 8.59437 29.8955 8.5776 29.8955C8.55244 29.8955 8.53567 29.9122 8.5189 29.9289C8.50213 29.9457 8.49375 29.9624 8.47698 29.9875C8.46859 30.0042 8.46021 30.0293 8.46021 30.0543C8.46021 30.0794 8.46021 30.0961 8.46859 30.1212C9.8354 34.4266 12.4516 38.1634 15.9483 40.7884L15.8561 43.1375C15.8561 43.1375 15.8561 43.1961 15.8728 43.2211C15.8812 43.2462 15.9064 43.2713 15.9315 43.288C17.8099 44.5169 19.8559 45.4449 21.9941 46.0217C22.0109 46.0217 22.0193 46.0217 22.0361 46.0217L22.0444 46.0301Z" fill="#00FFFF" stroke="#00FFFF"/>
<path d="M28.9456 8.36067C28.9456 8.36067 28.9372 8.28543 28.912 8.26035L25.6753 5.0418C25.6753 5.0418 25.6417 5.01672 25.625 5.00836C25.6082 5.00836 25.583 5 25.5663 5C21.2897 5.2926 17.1977 6.87261 13.8436 9.53105C10.4894 12.1895 8.04091 15.8093 6.81665 19.8973C6.81665 19.9224 6.81665 19.9391 6.81665 19.9642C6.81665 19.9893 6.83342 20.006 6.84181 20.0227C6.85858 20.0394 6.87535 20.0561 6.89212 20.0645C6.90889 20.0729 6.93405 20.0812 6.9592 20.0812H9.49996C9.49996 20.0812 9.57543 20.0645 9.60058 20.0394C9.62574 20.0143 9.64251 19.9725 9.64251 19.9391C9.64251 19.9057 9.62574 19.8639 9.60058 19.8388C9.57543 19.8137 9.5335 19.797 9.49996 19.797H7.14368C9.65089 11.6963 17.0048 5.88615 25.5159 5.2926L28.7024 8.46099C28.7024 8.46099 28.7443 8.49443 28.7778 8.50279C28.803 8.50279 28.8365 8.50279 28.8617 8.50279C28.8869 8.49443 28.912 8.47771 28.9288 8.45263C28.9456 8.42755 28.9539 8.40247 28.9539 8.37739L28.9456 8.36067Z" fill="#00FFFF" stroke="#00FFFF"/>
<path d="M28.8198 8.26832C28.8198 8.26832 28.7695 8.22652 28.736 8.21816C28.2748 8.13456 27.4362 8.10948 26.9918 8.10948C24.5936 8.10112 22.2206 8.57764 20.0152 9.50558C17.8099 10.4335 15.8142 11.8045 14.1539 13.5267C14.1371 13.5434 14.1287 13.5601 14.1203 13.5768C14.1203 13.5936 14.1119 13.6103 14.1119 13.6354C14.1119 13.6604 14.1119 13.6772 14.1203 13.6939C14.1203 13.7106 14.1371 13.7273 14.1539 13.744C14.1706 13.7608 14.1874 13.7691 14.2042 13.7775C14.2209 13.7775 14.2377 13.7858 14.2629 13.7858C14.2796 13.7858 14.3048 13.7858 14.3216 13.7691C14.3383 13.7691 14.3551 13.7524 14.3635 13.7357C15.9986 12.0386 17.9524 10.6927 20.1242 9.78146C22.296 8.86187 24.6355 8.39372 26.9918 8.40208C28.0064 8.40208 28.0148 8.43552 28.694 8.5024C28.7276 8.5024 28.7695 8.5024 28.803 8.47732C28.8366 8.45224 28.8534 8.4188 28.8617 8.38536V8.36028C28.8617 8.36028 28.845 8.2934 28.8282 8.26832H28.8198Z" fill="#00FFFF" stroke="#00FFFF"/>
<path d="M28.5263 25.3807L34.1529 19.7712V5.99414L14.7073 25.3807L34.1529 44.7672V30.9902L28.5263 25.3807Z" fill="#00FFFF" stroke="#00FFFF"/>
<path d="M38.4959 7.93359C44.6339 11.6287 48.7344 18.35 48.7344 26.0244C48.7344 33.6987 44.701 40.303 38.6468 44.0148L36.3157 41.6908V31.3078" stroke="#00FFFF"/>
<path d="M37.3059 42.6532L40.1653 39.9864L38.5721 38.5234V33.0645" stroke="#00FFFF"/>
<path d="M44.1815 38.9992L42.3284 37.4359L44.0138 35.1035" stroke="#00FFFF"/>
<path d="M43.1672 11.8301L36.2913 16.8878V18.9611" stroke="#00FFFF"/>
<path d="M44.4917 13.4766L40.3997 16.5196L43.6112 17.5227L46.0262 15.7588" stroke="#00FFFF"/>
<path d="M11.2102 35.4634L15.7131 31.459L25.9768 42.3185" stroke="#00FFFF"/>
<path d="M18.4055 44.3503V37.9634L20.0574 36.166" stroke="#00FFFF"/>
<path d="M22.48 38.5898L20.761 40.3036L22.7315 42.2765" stroke="#00FFFF"/>
<path d="M12.6448 37.5871L15.6551 34.5859V40.3375L12.6448 37.5871Z" fill="#00FFFF" stroke="#00FFFF"/>
<path d="M14.3132 13.7696L17.9105 17.356L12.6864 22.7983V14.9734L10.5901 13.0674" stroke="#00FFFF"/>
<path d="M15.6125 15.0321L18.9164 11.7383" stroke="#00FFFF"/>
<path d="M16.8284 16.4198L20.1406 13.126" stroke="#00FFFF"/>
<path d="M19.1594 6.63867L21.457 9.15499" stroke="#00FFFF"/>
<path d="M17.5667 7.36523L19.8223 9.8314" stroke="#00FFFF"/>
<path d="M30.0351 10.1914V16.5867L21.8342 24.8463L34.3535 37.3359" stroke="#00FFFF"/>
<path d="M28.5261 25.3809L25.4739 28.4239" stroke="#00FFFF"/>
<path d="M30.4133 33.541L26.4973 37.6457" stroke="#0D1238" stroke-width="0.3"/>
<path d="M28.635 35.4385L34.8234 41.9257" stroke="#0D1238" stroke-width="0.3"/>
</g>
<path d="M12.4263 41.3791C12.4263 41.3791 12.485 41.3707 12.5101 41.3457C12.5353 41.3289 12.552 41.3039 12.5688 41.2704C12.5772 41.237 12.5856 41.2035 12.5688 41.1701C12.5688 41.1367 12.5437 41.1116 12.5269 41.0865C9.61718 38.1522 7.53761 34.4153 6.5146 30.2939C6.50622 30.2521 6.48106 30.2187 6.43914 30.1936C6.40559 30.1685 6.35528 30.1685 6.32174 30.1769C6.30497 30.1769 6.27981 30.1936 6.26304 30.202C6.24627 30.2187 6.2295 30.2354 6.22112 30.2521C6.21273 30.2688 6.20435 30.2939 6.20435 30.319C6.20435 30.3441 6.20435 30.3608 6.20435 30.3859C7.24413 34.5658 9.35723 38.3528 12.3089 41.3289C12.3256 41.3457 12.3424 41.3624 12.3592 41.3707C12.376 41.3791 12.4011 41.3875 12.4179 41.3875L12.4263 41.3791Z" fill="#00FFFF"/>
<path d="M45.0286 34.6158C46.932 30.0597 47.041 24.8515 45.3556 19.9861L46.9572 18.5732C48.0892 21.4825 48.6426 24.5589 48.5756 27.6103C48.5085 30.6616 47.8209 33.6294 46.5547 36.3296L45.037 34.6158H45.0286Z" fill="#00FFFF"/>
<path d="M22.0444 47.0301C22.0864 47.0301 22.1283 47.0301 22.1618 46.9966C22.1954 46.9715 22.2205 46.9297 22.2205 46.8796C22.2205 46.8378 22.2205 46.7876 22.187 46.7542C22.1618 46.7207 22.1199 46.6957 22.078 46.6873C19.9984 46.1272 18.0111 45.241 16.1747 44.0539L16.267 41.7048C16.267 41.7048 16.267 41.6463 16.2502 41.6212C16.2418 41.5961 16.2166 41.5711 16.1999 41.5543C12.7283 38.9711 10.1205 35.2761 8.77046 31.0125C8.77046 30.9875 8.75369 30.9707 8.74531 30.954C8.72854 30.9373 8.71177 30.9206 8.69499 30.9122C8.67822 30.9039 8.65307 30.8955 8.6363 30.8955C8.61953 30.8955 8.59437 30.8955 8.5776 30.8955C8.55244 30.8955 8.53567 30.9122 8.5189 30.9289C8.50213 30.9457 8.49375 30.9624 8.47698 30.9875C8.46859 31.0042 8.46021 31.0293 8.46021 31.0543C8.46021 31.0794 8.46021 31.0961 8.46859 31.1212C9.8354 35.4266 12.4516 39.1634 15.9483 41.7884L15.8561 44.1375C15.8561 44.1375 15.8561 44.1961 15.8728 44.2211C15.8812 44.2462 15.9064 44.2713 15.9315 44.288C17.8099 45.5169 19.8559 46.4449 21.9941 47.0217C22.0109 47.0217 22.0193 47.0217 22.0361 47.0217L22.0444 47.0301Z" fill="#00FFFF"/>
<path d="M29.1552 47.0723L30.1866 45.9688L31.1761 46.9469L30.1027 48.0002H24.8284L25.6669 47.0555L29.1468 47.0723H29.1552Z" fill="#FF005C"/>
<path d="M25.5825 46.8294L24.6098 47.9162L23.6204 46.9381L24.6937 45.8848H29.9681L29.0708 46.8462L25.5825 46.8211V46.8294Z" fill="#FF005C"/>
<path d="M28.9456 9.36067C28.9456 9.36067 28.9372 9.28543 28.912 9.26035L25.6753 6.0418C25.6753 6.0418 25.6417 6.01672 25.625 6.00836C25.6082 6.00836 25.583 6 25.5663 6C21.2897 6.2926 17.1977 7.87261 13.8436 10.5311C10.4894 13.1895 8.04091 16.8093 6.81665 20.8973C6.81665 20.9224 6.81665 20.9391 6.81665 20.9642C6.81665 20.9893 6.83342 21.006 6.84181 21.0227C6.85858 21.0394 6.87535 21.0561 6.89212 21.0645C6.90889 21.0729 6.93405 21.0812 6.9592 21.0812H9.49996C9.49996 21.0812 9.57543 21.0645 9.60058 21.0394C9.62574 21.0143 9.64251 20.9725 9.64251 20.9391C9.64251 20.9057 9.62574 20.8639 9.60058 20.8388C9.57543 20.8137 9.5335 20.797 9.49996 20.797H7.14368C9.65089 12.6963 17.0048 6.88615 25.5159 6.2926L28.7024 9.46099C28.7024 9.46099 28.7443 9.49443 28.7778 9.50279C28.803 9.50279 28.8365 9.50279 28.8617 9.50279C28.8869 9.49443 28.912 9.47771 28.9288 9.45263C28.9456 9.42755 28.9539 9.40247 28.9539 9.37739L28.9456 9.36067Z" fill="#00FFFF"/>
<path d="M28.8198 9.26832C28.8198 9.26832 28.7695 9.22652 28.736 9.21816C28.2748 9.13456 27.4362 9.10948 26.9918 9.10948C24.5936 9.10112 22.2206 9.57764 20.0152 10.5056C17.8099 11.4335 15.8142 12.8045 14.1539 14.5267C14.1371 14.5434 14.1287 14.5601 14.1203 14.5768C14.1203 14.5936 14.1119 14.6103 14.1119 14.6354C14.1119 14.6604 14.1119 14.6772 14.1203 14.6939C14.1203 14.7106 14.1371 14.7273 14.1539 14.744C14.1706 14.7608 14.1874 14.7691 14.2042 14.7775C14.2209 14.7775 14.2377 14.7858 14.2629 14.7858C14.2796 14.7858 14.3048 14.7858 14.3216 14.7691C14.3383 14.7691 14.3551 14.7524 14.3635 14.7357C15.9986 13.0386 17.9524 11.6927 20.1242 10.7815C22.296 9.86187 24.6355 9.39372 26.9918 9.40208C28.0064 9.40208 28.0148 9.43552 28.694 9.5024C28.7276 9.5024 28.7695 9.5024 28.803 9.47732C28.8366 9.45224 28.8534 9.4188 28.8617 9.38536V9.36028C28.8617 9.36028 28.845 9.2934 28.8282 9.26832H28.8198Z" fill="#00FFFF"/>
<path d="M40.1064 33.2865C40.1064 33.2865 40.14 33.345 40.1735 33.3617L41.7835 34.1475C41.7835 34.1475 41.8254 34.1642 41.8422 34.1642C41.859 34.1642 41.8841 34.1643 41.9009 34.1559C41.9177 34.1475 41.9428 34.1392 41.9512 34.1224C41.968 34.1057 41.9764 34.089 41.9847 34.0723C43.536 30.2853 43.7876 26.2224 42.7143 22.4521C42.5382 21.8251 42.3201 21.2064 42.077 20.6045C42.077 20.5878 42.0602 20.5711 42.0434 20.5627C42.0267 20.546 42.0183 20.5377 41.9931 20.5377C41.968 20.5377 41.9596 20.5293 41.9344 20.5293C41.9177 20.5293 41.8925 20.5293 41.8757 20.5377C41.8422 20.5544 41.8086 20.5795 41.7919 20.6129C41.7751 20.6463 41.7751 20.6798 41.7919 20.7132C42.035 21.3068 42.2447 21.917 42.4208 22.5357C43.4606 26.1973 43.2341 30.1432 41.7667 33.8299L40.4167 33.1694C41.4565 30.4274 41.7667 27.5265 41.3223 24.7343C41.3223 24.7176 41.3139 24.7009 41.3055 24.6842C41.2971 24.6674 41.2804 24.6591 41.2636 24.6424C41.2468 24.634 41.2301 24.6256 41.2049 24.6256C41.1881 24.6256 41.163 24.6256 41.1462 24.6256L38.4377 25.4282C38.4377 25.4282 38.3707 25.4616 38.3455 25.4951C38.3287 25.5285 38.3203 25.5619 38.3287 25.5954C38.3371 25.6288 38.3623 25.6623 38.3958 25.679C38.4294 25.6957 38.4713 25.6957 38.5048 25.679L41.054 24.9266C41.4732 27.6686 41.1462 30.511 40.098 33.1945C40.0897 33.2279 40.0897 33.253 40.098 33.2865H40.1064Z" fill="#FF005C"/>
<path d="M6.31381 22.6782L9.70148 23.0627C9.76018 23.0711 9.82726 23.0627 9.87757 23.0293C9.92789 22.9958 9.96143 22.9457 9.9782 22.8872C9.9782 22.8537 9.9782 22.8286 9.96981 22.8036C9.96143 22.7785 9.94466 22.745 9.9195 22.7283C9.89435 22.7116 9.87757 22.6865 9.84403 22.6782C9.81888 22.6698 9.78534 22.6614 9.75179 22.6614L6.36412 22.2852C6.30542 22.2769 6.23834 22.2852 6.18803 22.3187C6.13771 22.3521 6.10417 22.4023 6.0874 22.4608C6.0874 22.4608 6.0874 22.5193 6.10417 22.5444C6.11256 22.5695 6.12933 22.5946 6.15449 22.6196C6.17126 22.6447 6.19641 22.6614 6.22995 22.6698C6.25511 22.6782 6.28865 22.6865 6.32219 22.6865L6.31381 22.6782Z" fill="#FF005C"/>
<path d="M6.18804 23.9151L9.59248 24.1826C9.65118 24.1826 9.71826 24.1826 9.76857 24.1408C9.81889 24.099 9.85243 24.0488 9.86081 23.9903C9.86081 23.9903 9.86081 23.9318 9.84404 23.9067C9.83566 23.8816 9.81889 23.8565 9.79373 23.8315C9.76857 23.8064 9.74342 23.7897 9.71826 23.7813C9.69311 23.7729 9.65957 23.7646 9.62602 23.7646L6.22158 23.4971C6.1545 23.4971 6.0958 23.4971 6.04549 23.5389C5.99517 23.5807 5.96163 23.6308 5.95325 23.6893C5.95325 23.6893 5.95325 23.7479 5.97002 23.7729C5.9784 23.798 5.99517 23.8231 6.02033 23.8482C6.04549 23.8733 6.07064 23.89 6.0958 23.8983C6.12095 23.9067 6.1545 23.9151 6.18804 23.9151Z" fill="#FF005C"/>
<path d="M6.12094 25.1612L9.53378 25.3116C9.59247 25.3116 9.65956 25.3033 9.70987 25.2698C9.76018 25.2364 9.79372 25.1779 9.79372 25.1194C9.79372 25.1194 9.79372 25.0608 9.76857 25.0358C9.76018 25.0107 9.73502 24.9856 9.71825 24.9605C9.6931 24.9438 9.66794 24.9271 9.64279 24.9104C9.60924 24.902 9.58409 24.8936 9.55055 24.8936L6.13772 24.7432C6.07902 24.7432 6.01194 24.7515 5.96162 24.7933C5.91131 24.8268 5.87777 24.8853 5.86938 24.9438H5.87777C5.87777 24.9438 5.88616 25.0023 5.90293 25.0274C5.91131 25.0525 5.93647 25.0776 5.95324 25.1026C5.97839 25.1194 6.00355 25.1361 6.02871 25.1528C6.06225 25.1612 6.0874 25.1695 6.12094 25.1695V25.1612Z" fill="#FF005C"/>
<path d="M6.11256 26.4063L9.52539 26.4481C9.52539 26.4481 9.58409 26.4481 9.61763 26.4397C9.65117 26.4314 9.67633 26.4146 9.70148 26.3979C9.72664 26.3812 9.74341 26.3561 9.76018 26.331C9.77695 26.306 9.78534 26.2725 9.78534 26.2474C9.78534 26.1889 9.7518 26.1304 9.70148 26.0886C9.65117 26.0468 9.59247 26.0301 9.52539 26.0301L6.11256 25.9883C6.05386 25.9883 5.98678 26.005 5.94485 26.0384C5.89454 26.0802 5.86938 26.1304 5.86938 26.1889C5.86938 26.2474 5.90293 26.306 5.95324 26.3478C6.00355 26.3896 6.06225 26.4063 6.12933 26.4063H6.11256Z" fill="#FF005C"/>
<path d="M6.17128 27.6525L9.57573 27.5857C9.57573 27.5857 9.63443 27.5857 9.66797 27.5689C9.69313 27.5606 9.72667 27.5439 9.74344 27.5188C9.76859 27.5021 9.78536 27.477 9.79375 27.4436C9.80214 27.4185 9.81052 27.385 9.81052 27.36C9.81052 27.3014 9.76859 27.2429 9.71828 27.2095C9.66797 27.1677 9.60927 27.151 9.54219 27.1593L6.13774 27.2262C6.13774 27.2262 6.07905 27.2262 6.0455 27.2429C6.02035 27.2513 5.98681 27.268 5.97004 27.2931C5.94488 27.3098 5.92811 27.3349 5.91972 27.3683C5.91134 27.3934 5.90295 27.4268 5.90295 27.4519C5.91134 27.5104 5.94488 27.569 5.99519 27.6024C6.0455 27.6442 6.1042 27.6609 6.17128 27.6525Z" fill="#FF005C"/>
<path d="M6.28026 28.8896L9.67632 28.7057C9.67632 28.7057 9.73501 28.7057 9.76856 28.6889C9.79371 28.6806 9.81887 28.6639 9.84402 28.6388C9.86918 28.6137 9.87757 28.5886 9.89434 28.5635C9.90272 28.5385 9.91111 28.505 9.91111 28.4799C9.90272 28.4214 9.86079 28.3629 9.81048 28.3295C9.76017 28.296 9.69309 28.2793 9.63439 28.2793L6.23833 28.4632C6.23833 28.4632 6.17963 28.4632 6.14609 28.4799C6.12093 28.4883 6.08739 28.505 6.07062 28.5301C6.04547 28.5552 6.0287 28.5803 6.02031 28.6053C6.01193 28.6304 6.00354 28.6639 6.00354 28.6889C6.01193 28.7474 6.04547 28.806 6.09578 28.8394C6.14609 28.8728 6.21317 28.8896 6.27187 28.8896H6.28026Z" fill="#FF005C"/>
<path d="M28.5263 26.3807L34.1529 20.7712V6.99414L14.7073 26.3807L34.1529 45.7672V31.9902L28.5263 26.3807Z" fill="#00FFFF"/>
<path d="M38.4959 8.93359C44.6339 12.6287 48.7344 19.35 48.7344 27.0244C48.7344 34.6987 44.701 41.303 38.6468 45.0148L36.3157 42.6908V32.3078" stroke="#00FFFF" stroke-width="0.3"/>
<path d="M37.3059 43.6532L40.1653 40.9864L38.5721 39.5234V34.0645" stroke="#00FFFF" stroke-width="0.3"/>
<path d="M44.1815 39.9992L42.3284 38.4359L44.0138 36.1035" stroke="#00FFFF" stroke-width="0.3"/>
<path d="M43.1672 12.8301L36.2913 17.8878V19.9611" stroke="#00FFFF" stroke-width="0.3"/>
<path d="M44.4917 14.4766L40.3997 17.5196L43.6112 18.5227L46.0262 16.7588" stroke="#00FFFF" stroke-width="0.3"/>
<path d="M11.2102 36.4634L15.7131 32.459L25.9768 43.3185" stroke="#00FFFF" stroke-width="0.3"/>
<path d="M18.4055 45.3503V38.9634L20.0574 37.166" stroke="#00FFFF" stroke-width="0.3"/>
<path d="M22.48 39.5898L20.761 41.3036L22.7315 43.2765" stroke="#00FFFF" stroke-width="0.3"/>
<path d="M12.6448 38.5871L15.6551 35.5859V41.3375L12.6448 38.5871Z" fill="#00FFFF"/>
<path d="M14.3132 14.7696L17.9105 18.356L12.6864 23.7983V15.9734L10.5901 14.0674" stroke="#00FFFF" stroke-width="0.3"/>
<path d="M15.6125 16.0321L18.9164 12.7383" stroke="#00FFFF" stroke-width="0.3"/>
<path d="M16.8284 17.4198L20.1406 14.126" stroke="#00FFFF" stroke-width="0.3"/>
<path d="M19.1594 7.63867L21.457 10.155" stroke="#00FFFF" stroke-width="0.3"/>
<path d="M17.5667 8.36523L19.8223 10.8314" stroke="#00FFFF" stroke-width="0.3"/>
<path d="M30.0351 11.1914V17.5867L21.8342 25.8463L34.3535 38.3359" stroke="#0D1238" stroke-width="0.3"/>
<path d="M28.5261 26.3809L25.4739 29.4239" stroke="#0D1238" stroke-width="0.3"/>
<path d="M30.4133 34.541L26.4973 38.6457" stroke="#0D1238" stroke-width="0.3"/>
<path d="M28.635 36.4385L34.8234 42.9257" stroke="#0D1238" stroke-width="0.3"/>
<defs>
<filter id="filter0_f_898_14902" x="0.944824" y="0.5" width="52.2896" height="51.1416" filterUnits="userSpaceOnUse" color-interpolation-filters="sRGB">
<feFlood flood-opacity="0" result="BackgroundImageFix"/>
<feBlend mode="normal" in="SourceGraphic" in2="BackgroundImageFix" result="shape"/>
<feGaussianBlur stdDeviation="2" result="effect1_foregroundBlur_898_14902"/>
</filter>
</defs>
</svg>
