<svg width="44" height="42" viewBox="0 0 44 42" fill="none"
    xmlns="http://www.w3.org/2000/svg">
    <path d="M6.55688 35.3791C6.55688 35.3791 6.61558 35.3707 6.64073 35.3457C6.66589 35.3289 6.68266 35.3039 6.69943 35.2704C6.70782 35.237 6.7162 35.2035 6.69943 35.1701C6.69943 35.1367 6.67427 35.1116 6.6575 35.0865C3.74779 32.1522 1.66823 28.4153 0.645218 24.2939C0.636833 24.2521 0.611677 24.2187 0.56975 24.1936C0.536209 24.1685 0.485897 24.1685 0.452356 24.1769C0.435585 24.1769 0.410429 24.1936 0.393658 24.202C0.376888 24.2187 0.360117 24.2354 0.351732 24.2521C0.343346 24.2688 0.334961 24.2939 0.334961 24.319C0.334961 24.3441 0.334961 24.3608 0.334961 24.3859C1.37474 28.5658 3.48785 32.3528 6.43949 35.3289C6.45626 35.3457 6.47303 35.3624 6.4898 35.3707C6.50657 35.3791 6.53172 35.3875 6.54849 35.3875L6.55688 35.3791Z" fill="#00FFFF"/>
    <path d="M39.1592 28.6158C41.0627 24.0597 41.1717 18.8515 39.4862 13.9861L41.0878 12.5732C42.2198 15.4825 42.7733 18.5589 42.7062 21.6103C42.6391 24.6616 41.9515 27.6294 40.6853 30.3296L39.1676 28.6158H39.1592Z" fill="#00FFFF"/>
    <path d="M16.1751 41.0301C16.217 41.0301 16.2589 41.0301 16.2925 40.9966C16.326 40.9715 16.3512 40.9297 16.3512 40.8796C16.3512 40.8378 16.3512 40.7876 16.3176 40.7542C16.2925 40.7207 16.2505 40.6957 16.2086 40.6873C14.129 40.1272 12.1417 39.241 10.3053 38.0539L10.3976 35.7048C10.3976 35.7048 10.3976 35.6463 10.3808 35.6212C10.3724 35.5961 10.3473 35.5711 10.3305 35.5543C6.85896 32.9711 4.25112 29.2761 2.90108 25.0125C2.90108 24.9875 2.88431 24.9707 2.87592 24.954C2.85915 24.9373 2.84238 24.9206 2.82561 24.9122C2.80884 24.9039 2.78368 24.8955 2.76691 24.8955C2.75014 24.8955 2.72499 24.8955 2.70822 24.8955C2.68306 24.8955 2.66629 24.9122 2.64952 24.9289C2.63275 24.9457 2.62436 24.9624 2.60759 24.9875C2.59921 25.0042 2.59082 25.0293 2.59082 25.0543C2.59082 25.0794 2.59082 25.0961 2.59921 25.1212C3.96602 29.4266 6.58224 33.1634 10.0789 35.7884L9.98669 38.1375C9.98669 38.1375 9.98669 38.1961 10.0035 38.2211C10.0118 38.2462 10.037 38.2713 10.0622 38.288C11.9405 39.5169 13.9865 40.4449 16.1248 41.0217C16.1415 41.0217 16.1499 41.0217 16.1667 41.0217L16.1751 41.0301Z" fill="#00FFFF"/>
    <path d="M23.2858 41.0723L24.3172 39.9688L25.3067 40.9469L24.2334 42.0002H18.959L19.7975 41.0555L23.2774 41.0723H23.2858Z" fill="#FF005C"/>
    <path d="M19.7131 40.8294L18.7404 41.9162L17.751 40.9381L18.8243 39.8848H24.0987L23.2014 40.8462L19.7131 40.8211V40.8294Z" fill="#FF005C"/>
    <path d="M23.0762 3.36067C23.0762 3.36067 23.0678 3.28543 23.0426 3.26035L19.8059 0.0417994C19.8059 0.0417994 19.7723 0.0167197 19.7556 0.00835987C19.7388 0.00835987 19.7136 0 19.6969 0C15.4204 0.292596 11.3283 1.87261 7.97418 4.53105C4.62004 7.18949 2.17152 10.8093 0.947266 14.8973C0.947266 14.9224 0.947266 14.9391 0.947266 14.9642C0.947266 14.9893 0.964036 15.006 0.972422 15.0227C0.989192 15.0394 1.00596 15.0561 1.02273 15.0645C1.0395 15.0729 1.06466 15.0812 1.08982 15.0812H3.63057C3.63057 15.0812 3.70604 15.0645 3.7312 15.0394C3.75635 15.0143 3.77312 14.9725 3.77312 14.9391C3.77312 14.9057 3.75635 14.8639 3.7312 14.8388C3.70604 14.8137 3.66411 14.797 3.63057 14.797H1.27429C3.78151 6.69626 11.1355 0.886146 19.6466 0.292596L22.833 3.46099C22.833 3.46099 22.8749 3.49443 22.9085 3.50279C22.9336 3.50279 22.9672 3.50279 22.9923 3.50279C23.0175 3.49443 23.0426 3.47771 23.0594 3.45263C23.0762 3.42755 23.0846 3.40247 23.0846 3.37739L23.0762 3.36067Z" fill="#00FFFF"/>
    <path d="M22.9501 3.26881C22.9501 3.26881 22.8998 3.22701 22.8662 3.21865C22.405 3.13505 21.5665 3.10997 21.1221 3.10997C18.7239 3.10161 16.3508 3.57812 14.1455 4.50607C11.9401 5.43402 9.94441 6.80503 8.28411 8.52717C8.26734 8.54389 8.25896 8.56061 8.25057 8.57733C8.25057 8.59405 8.24219 8.61077 8.24219 8.63585C8.24219 8.66093 8.24219 8.67765 8.25057 8.69437C8.25057 8.71109 8.26734 8.72781 8.28411 8.74453C8.30089 8.76125 8.31766 8.7696 8.33443 8.77796C8.3512 8.77796 8.36797 8.78632 8.39312 8.78632C8.40989 8.78632 8.43505 8.78632 8.45182 8.7696C8.46859 8.7696 8.48536 8.75288 8.49375 8.73617C10.1289 7.03911 12.0827 5.69317 14.2545 4.78195C16.4263 3.86236 18.7658 3.39421 21.1221 3.40257C22.1367 3.40257 22.1451 3.43601 22.8243 3.50289C22.8578 3.50289 22.8998 3.50289 22.9333 3.47781C22.9668 3.45273 22.9836 3.41929 22.992 3.38585V3.36077C22.992 3.36077 22.9752 3.29389 22.9585 3.26881H22.9501Z" fill="#00FFFF"/>
    <path d="M34.237 27.2865C34.237 27.2865 34.2706 27.345 34.3041 27.3617L35.9141 28.1475C35.9141 28.1475 35.956 28.1642 35.9728 28.1642C35.9896 28.1642 36.0147 28.1643 36.0315 28.1559C36.0483 28.1475 36.0734 28.1392 36.0818 28.1224C36.0986 28.1057 36.107 28.089 36.1154 28.0723C37.6666 24.2853 37.9182 20.2224 36.8449 16.4521C36.6688 15.8251 36.4508 15.2064 36.2076 14.6045C36.2076 14.5878 36.1908 14.5711 36.174 14.5627C36.1573 14.546 36.1489 14.5377 36.1237 14.5377C36.0986 14.5377 36.0902 14.5293 36.065 14.5293C36.0483 14.5293 36.0231 14.5293 36.0063 14.5377C35.9728 14.5544 35.9393 14.5795 35.9225 14.6129C35.9057 14.6463 35.9057 14.6798 35.9225 14.7132C36.1657 15.3068 36.3753 15.917 36.5514 16.5357C37.5912 20.1973 37.3648 24.1432 35.8973 27.8299L34.5473 27.1694C35.5871 24.4274 35.8973 21.5265 35.4529 18.7343C35.4529 18.7176 35.4445 18.7009 35.4361 18.6842C35.4278 18.6674 35.411 18.6591 35.3942 18.6424C35.3774 18.634 35.3607 18.6256 35.3355 18.6256C35.3187 18.6256 35.2936 18.6256 35.2768 18.6256L32.5684 19.4282C32.5684 19.4282 32.5013 19.4616 32.4761 19.4951C32.4593 19.5285 32.451 19.5619 32.4593 19.5954C32.4677 19.6288 32.4929 19.6623 32.5264 19.679C32.56 19.6957 32.6019 19.6957 32.6354 19.679L35.1846 18.9266C35.6038 21.6686 35.2768 24.511 34.2287 27.1945C34.2203 27.2279 34.2203 27.253 34.2287 27.2865H34.237Z" fill="#FF005C"/>
    <path d="M0.444178 16.6782L3.83185 17.0627C3.89055 17.0711 3.95763 17.0627 4.00795 17.0293C4.05826 16.9958 4.0918 16.9457 4.10857 16.8872C4.10857 16.8537 4.10857 16.8286 4.10018 16.8036C4.0918 16.7785 4.07503 16.745 4.04987 16.7283C4.02472 16.7116 4.00795 16.6865 3.9744 16.6782C3.94925 16.6698 3.91571 16.6614 3.88217 16.6614L0.49449 16.2852C0.435792 16.2769 0.368709 16.2852 0.318397 16.3187C0.268085 16.3521 0.234544 16.4023 0.217773 16.4608C0.217773 16.4608 0.217773 16.5193 0.234544 16.5444C0.242929 16.5695 0.2597 16.5946 0.284856 16.6196C0.301627 16.6447 0.326783 16.6614 0.360324 16.6698C0.38548 16.6782 0.419022 16.6865 0.452563 16.6865L0.444178 16.6782Z" fill="#FF005C"/>
    <path d="M0.318774 17.9153L3.72322 18.1828C3.78192 18.1828 3.849 18.1828 3.89931 18.141C3.94962 18.0992 3.98317 18.0491 3.99155 17.9905C3.99155 17.9905 3.99155 17.932 3.97478 17.9069C3.96639 17.8819 3.94962 17.8568 3.92447 17.8317C3.89931 17.8066 3.87416 17.7899 3.849 17.7816C3.82384 17.7732 3.7903 17.7648 3.75676 17.7648L0.352315 17.4973C0.285232 17.4973 0.226535 17.4973 0.176223 17.5391C0.125911 17.5809 0.0923697 17.6311 0.0839844 17.6896C0.0839844 17.6896 0.0839844 17.7481 0.100755 17.7732C0.10914 17.7983 0.125911 17.8233 0.151067 17.8484C0.176223 17.8735 0.201379 17.8902 0.226535 17.8986C0.251691 17.9069 0.285232 17.9153 0.318774 17.9153Z" fill="#FF005C"/>
    <path d="M0.25156 19.1612L3.66439 19.3116C3.72309 19.3116 3.79017 19.3033 3.84048 19.2698C3.8908 19.2364 3.92434 19.1779 3.92434 19.1194C3.92434 19.1194 3.92434 19.0608 3.89918 19.0358C3.8908 19.0107 3.86564 18.9856 3.84887 18.9605C3.82371 18.9438 3.79856 18.9271 3.7734 18.9104C3.73986 18.902 3.7147 18.8936 3.68116 18.8936L0.268331 18.7432C0.209633 18.7432 0.142551 18.7515 0.0922387 18.7933C0.0419267 18.8268 0.00838534 18.8853 0 18.9438H0.00838534C0.00838534 18.9438 0.0167707 19.0023 0.0335413 19.0274C0.0419267 19.0525 0.0670827 19.0776 0.0838534 19.1026C0.109009 19.1194 0.134165 19.1361 0.159321 19.1528C0.192863 19.1612 0.218019 19.1695 0.25156 19.1695V19.1612Z" fill="#FF005C"/>
    <path d="M0.243175 20.4068L3.65601 20.4486C3.65601 20.4486 3.7147 20.4486 3.74825 20.4402C3.78179 20.4318 3.80694 20.4151 3.8321 20.3984C3.85725 20.3817 3.87403 20.3566 3.8908 20.3315C3.90757 20.3064 3.91595 20.273 3.91595 20.2479C3.91595 20.1894 3.88241 20.1309 3.8321 20.0891C3.78179 20.0473 3.72309 20.0306 3.65601 20.0306L0.243175 19.9888C0.184477 19.9888 0.117395 20.0055 0.075468 20.0389C0.025156 20.0807 0 20.1309 0 20.1894C0 20.2479 0.0335413 20.3064 0.0838534 20.3482C0.134165 20.39 0.192863 20.4068 0.259945 20.4068H0.243175Z" fill="#FF005C"/>
    <path d="M0.301534 21.6523L3.70598 21.5854C3.70598 21.5854 3.76468 21.5854 3.79822 21.5687C3.82337 21.5603 3.85692 21.5436 3.87369 21.5185C3.89884 21.5018 3.91561 21.4767 3.924 21.4433C3.93238 21.4182 3.94077 21.3848 3.94077 21.3597C3.94077 21.3012 3.89884 21.2427 3.84853 21.2092C3.79822 21.1674 3.73952 21.1507 3.67244 21.1591L0.267993 21.226C0.267993 21.226 0.209295 21.226 0.175754 21.2427C0.150598 21.251 0.117056 21.2678 0.100286 21.2928C0.0751298 21.3095 0.0583591 21.3346 0.0499738 21.3681C0.0415885 21.3931 0.0332031 21.4266 0.0332031 21.4517C0.0415885 21.5102 0.0751298 21.5687 0.125442 21.6021C0.175754 21.6439 0.234451 21.6607 0.301534 21.6523Z" fill="#FF005C"/>
    <path d="M0.410505 22.8896L3.80657 22.7057C3.80657 22.7057 3.86526 22.7057 3.8988 22.6889C3.92396 22.6806 3.94912 22.6639 3.97427 22.6388C3.99943 22.6137 4.00781 22.5886 4.02458 22.5635C4.03297 22.5385 4.04136 22.505 4.04136 22.4799C4.03297 22.4214 3.99104 22.3629 3.94073 22.3295C3.89042 22.296 3.82334 22.2793 3.76464 22.2793L0.368578 22.4632C0.368578 22.4632 0.309881 22.4632 0.27634 22.4799C0.251184 22.4883 0.217642 22.505 0.200872 22.5301C0.175716 22.5552 0.158945 22.5803 0.15056 22.6053C0.142174 22.6304 0.133789 22.6639 0.133789 22.6889C0.142174 22.7474 0.175716 22.806 0.226028 22.8394C0.27634 22.8728 0.343422 22.8896 0.40212 22.8896H0.410505Z" fill="#FF005C"/>
    <path d="M22.6569 20.3812L28.2835 14.7717V0.994629L8.83789 20.3812L28.2835 39.7677V25.9906L22.6569 20.3812Z" fill="#00FFFF"/>
    <path d="M32.6265 2.93408C38.7645 6.62915 42.865 13.3505 42.865 21.0248C42.865 28.6992 38.8316 35.3035 32.7774 39.0153L30.4463 36.6912V26.3083" stroke="#00FFFF" stroke-width="0.3"/>
    <path d="M31.4365 37.6527L34.2959 34.9859L32.7027 33.523V28.064" stroke="#00FFFF" stroke-width="0.3"/>
    <path d="M38.3121 33.9997L36.459 32.4364L38.1444 30.104" stroke="#00FFFF" stroke-width="0.3"/>
    <path d="M37.2979 6.83008L30.4219 11.8878V13.9611" stroke="#00FFFF" stroke-width="0.3"/>
    <path d="M38.6223 8.47705L34.5303 11.52L37.7419 12.5232L40.1568 10.7593" stroke="#00FFFF" stroke-width="0.3"/>
    <path d="M5.34082 30.4634L9.84375 26.459L20.1074 37.3185" stroke="#00FFFF" stroke-width="0.3"/>
    <path d="M12.5361 39.3498V32.9629L14.188 31.1655" stroke="#00FFFF" stroke-width="0.3"/>
    <path d="M16.6106 33.5898L14.8916 35.3036L16.8622 37.2765" stroke="#00FFFF" stroke-width="0.3"/>
    <path d="M6.77539 32.5866L9.78573 29.5854V35.337L6.77539 32.5866Z" fill="#00FFFF"/>
    <path d="M8.44379 8.76961L12.0411 12.356L6.81704 17.7983V9.97343L4.7207 8.06738" stroke="#00FFFF" stroke-width="0.3"/>
    <path d="M9.74316 10.0321L13.047 6.73828" stroke="#00FFFF" stroke-width="0.3"/>
    <path d="M10.959 11.4198L14.2712 8.12598" stroke="#00FFFF" stroke-width="0.3"/>
    <path d="M13.29 1.63867L15.5876 4.15499" stroke="#00FFFF" stroke-width="0.3"/>
    <path d="M11.6973 2.36572L13.9529 4.83189" stroke="#00FFFF" stroke-width="0.3"/>
    <path d="M24.1657 5.19141V11.5867L15.9648 19.8463L28.4842 32.3359" stroke="#0D1238" stroke-width="0.3"/>
    <path d="M22.6568 20.3813L19.6045 23.4243" stroke="#0D1238" stroke-width="0.3"/>
    <path d="M24.5439 28.5405L20.6279 32.6452" stroke="#0D1238" stroke-width="0.3"/>
    <path d="M22.7656 30.4385L28.954 36.9257" stroke="#0D1238" stroke-width="0.3"/>
</svg>
