<svg width="82" height="96" viewBox="0 0 82 96" fill="none" xmlns="http://www.w3.org/2000/svg">
<path d="M40.9979 89.9958C63.0791 89.9958 80.9958 72.0984 80.9958 49.9979C80.9958 27.8974 63.0791 10 40.9979 10C18.9167 10 1 27.8974 1 49.9979C1 72.0984 18.8974 89.9958 40.9979 89.9958Z" stroke="#00FFFF" stroke-miterlimit="10"/>
<path d="M40.9975 85.5792C60.6575 85.5792 76.5985 69.6381 76.5985 49.9781C76.5985 30.3182 60.6575 14.3965 40.9975 14.3965C21.3375 14.3965 5.39648 30.3375 5.39648 49.9975C5.39648 69.6575 21.3375 85.5985 40.9975 85.5985V85.5792Z" stroke="#00FFFF" stroke-miterlimit="10"/>
<rect x="22.624" y="45.437" width="7.03505" height="7.03505" transform="rotate(45 22.624 45.437)" fill="#00FFFF"/>
<rect x="61.1123" y="45.4722" width="7.019" height="7.019" transform="rotate(45 61.1123 45.4722)" fill="#00FFFF"/>
<rect x="41.9395" y="44.2793" width="8.67283" height="8.67283" transform="rotate(45 41.9395 44.2793)" fill="#00FFFF"/>
<path d="M41.5008 35.8003L31.4989 46.0885L26.9952 41.55L41.8593 26.214L56.7234 41.55L52.2197 46.0885L42.2178 35.8003L41.8593 35.4315L41.5008 35.8003Z" fill="#00FFFF" stroke="#00FFFF"/>
<path d="M41.5008 64.583L31.4954 54.2912L26.9987 58.7319L41.8593 74.0643L56.7199 58.7319L52.2233 54.2912L42.2178 64.583L41.8593 64.9518L41.5008 64.583Z" fill="#00FFFF" stroke="#00FFFF"/>
<path d="M58.5262 75H24.4738C20.8984 75 18 79.305 18 84.6154V85.3846C18 90.695 20.8984 95 24.4738 95H58.5262C62.1016 95 65 90.695 65 85.3846V84.6154C65 79.305 62.1016 75 58.5262 75Z" fill="#00FFFF"/>
<path d="M33.4784 86.3337H34.1384V81.8537H33.4784V80.5937H36.5484C36.8817 80.5937 37.175 80.6404 37.4284 80.7337C37.6884 80.8271 37.905 80.9537 38.0784 81.1137C38.2584 81.2737 38.3917 81.4671 38.4784 81.6937C38.5717 81.9137 38.6184 82.1537 38.6184 82.4137V82.5337C38.6184 82.9337 38.505 83.2537 38.2784 83.4937C38.0584 83.7337 37.7784 83.9004 37.4384 83.9937V84.1737C37.7784 84.2671 38.0584 84.4371 38.2784 84.6837C38.505 84.9237 38.6184 85.2437 38.6184 85.6437V85.7637C38.6184 86.0237 38.5717 86.2671 38.4784 86.4937C38.3917 86.7137 38.2584 86.9071 38.0784 87.0737C37.905 87.2337 37.6884 87.3604 37.4284 87.4537C37.175 87.5471 36.8817 87.5938 36.5484 87.5938H33.4784V86.3337ZM35.4584 86.3337H36.4184C36.6984 86.3337 36.925 86.2737 37.0984 86.1537C37.2717 86.0337 37.3584 85.8337 37.3584 85.5537V85.4937C37.3584 85.2137 37.2717 85.0137 37.0984 84.8937C36.925 84.7737 36.6984 84.7137 36.4184 84.7137H35.4584V86.3337ZM35.4584 83.4537H36.4184C36.6984 83.4537 36.925 83.3971 37.0984 83.2837C37.2717 83.1637 37.3584 82.9637 37.3584 82.6837V82.6237C37.3584 82.3437 37.2717 82.1471 37.0984 82.0337C36.925 81.9137 36.6984 81.8537 36.4184 81.8537H35.4584V83.4537ZM43.4014 82.7337C43.4014 82.4537 43.2914 82.2104 43.0714 82.0037C42.8581 81.7971 42.5547 81.6937 42.1614 81.6937C41.8281 81.6937 41.5647 81.7637 41.3714 81.9037C41.1781 82.0371 41.0814 82.2204 41.0814 82.4538C41.0814 82.5737 41.1047 82.6837 41.1514 82.7837C41.1981 82.8771 41.2781 82.9637 41.3914 83.0437C41.5114 83.1171 41.6647 83.1837 41.8514 83.2437C42.0447 83.3037 42.2881 83.3604 42.5814 83.4137C43.3147 83.5471 43.8747 83.7704 44.2614 84.0837C44.6481 84.3971 44.8414 84.8604 44.8414 85.4737V85.5937C44.8414 85.9204 44.7814 86.2171 44.6614 86.4837C44.5481 86.7437 44.3814 86.9671 44.1614 87.1537C43.9414 87.3404 43.6747 87.4837 43.3614 87.5837C43.0481 87.6838 42.6947 87.7338 42.3014 87.7338C41.8414 87.7338 41.4347 87.6704 41.0814 87.5437C40.7347 87.4104 40.4447 87.2304 40.2114 87.0037C39.9781 86.7704 39.8014 86.5004 39.6814 86.1937C39.5614 85.8804 39.5014 85.5404 39.5014 85.1737V84.8737H40.8214V85.1137C40.8214 85.5337 40.9414 85.8704 41.1814 86.1238C41.4281 86.3704 41.8081 86.4937 42.3214 86.4937C42.7214 86.4937 43.0181 86.4071 43.2114 86.2337C43.4047 86.0604 43.5014 85.8537 43.5014 85.6137C43.5014 85.5004 43.4814 85.3937 43.4414 85.2937C43.4014 85.1871 43.3314 85.0937 43.2314 85.0137C43.1314 84.9271 42.9947 84.8504 42.8214 84.7837C42.6481 84.7171 42.4281 84.6604 42.1614 84.6137C41.8081 84.5537 41.4847 84.4771 41.1914 84.3837C40.8981 84.2837 40.6414 84.1537 40.4214 83.9937C40.2081 83.8337 40.0414 83.6337 39.9214 83.3937C39.8014 83.1537 39.7414 82.8604 39.7414 82.5137V82.4538C39.7414 82.1671 39.7981 81.9037 39.9114 81.6637C40.0314 81.4171 40.1947 81.2037 40.4014 81.0237C40.6147 80.8437 40.8681 80.7037 41.1614 80.6037C41.4614 80.5037 41.7947 80.4537 42.1614 80.4537C42.5747 80.4537 42.9414 80.5137 43.2614 80.6337C43.5814 80.7471 43.8481 80.9037 44.0614 81.1037C44.2814 81.3037 44.4447 81.5337 44.5514 81.7937C44.6647 82.0537 44.7214 82.3271 44.7214 82.6137V82.9737H43.4014V82.7337ZM48.3445 86.5337C48.5978 86.5337 48.8045 86.4971 48.9645 86.4237C49.1311 86.3437 49.2578 86.2404 49.3445 86.1137C49.4378 85.9804 49.5011 85.8304 49.5345 85.6637C49.5678 85.4904 49.5845 85.3137 49.5845 85.1337V84.9538H50.9045V85.1337C50.9045 85.9671 50.6845 86.6104 50.2445 87.0637C49.8111 87.5104 49.1778 87.7338 48.3445 87.7338C47.5445 87.7338 46.9111 87.4904 46.4445 87.0037C45.9778 86.5171 45.7445 85.8071 45.7445 84.8737V83.3137C45.7445 82.8671 45.8045 82.4671 45.9245 82.1137C46.0445 81.7537 46.2178 81.4537 46.4445 81.2137C46.6711 80.9671 46.9445 80.7804 47.2645 80.6537C47.5845 80.5204 47.9445 80.4537 48.3445 80.4537C48.7578 80.4537 49.1245 80.5137 49.4445 80.6337C49.7645 80.7537 50.0311 80.9271 50.2445 81.1537C50.4645 81.3804 50.6278 81.6537 50.7345 81.9737C50.8478 82.2937 50.9045 82.6537 50.9045 83.0537V83.2337H49.5845V83.0537C49.5845 82.8871 49.5645 82.7204 49.5245 82.5537C49.4845 82.3871 49.4178 82.2371 49.3245 82.1037C49.2311 81.9704 49.1045 81.8637 48.9445 81.7837C48.7845 81.6971 48.5845 81.6537 48.3445 81.6537C48.1245 81.6537 47.9345 81.6971 47.7745 81.7837C47.6145 81.8637 47.4811 81.9771 47.3745 82.1237C47.2678 82.2637 47.1878 82.4304 47.1345 82.6237C47.0878 82.8104 47.0645 83.0071 47.0645 83.2137V84.9737C47.0645 85.2004 47.0878 85.4104 47.1345 85.6037C47.1811 85.7904 47.2545 85.9537 47.3545 86.0937C47.4545 86.2337 47.5845 86.3437 47.7445 86.4237C47.9111 86.4971 48.1111 86.5337 48.3445 86.5337Z" fill="#0D1238"/>
<path d="M54.2717 0H27.2065C22.9385 0 19.4785 4.18279 19.4785 9.34252V10.0899C19.4785 15.2497 22.9385 19.4324 27.2065 19.4324H54.2717C58.5397 19.4324 61.9996 15.2497 61.9996 10.0899V9.34252C61.9996 4.18279 58.5397 0 54.2717 0Z" fill="#00FFFF"/>
<path d="M30.0568 13.362H30.9148V7.538H30.0568V5.9H34.0478C34.4811 5.9 34.8625 5.96067 35.1918 6.082C35.5298 6.20333 35.8115 6.368 36.0368 6.576C36.2708 6.784 36.4441 7.03533 36.5568 7.33C36.6781 7.616 36.7388 7.928 36.7388 8.266V8.422C36.7388 8.942 36.5915 9.358 36.2968 9.67C36.0108 9.982 35.6468 10.1987 35.2048 10.32V10.554C35.6468 10.6753 36.0108 10.8963 36.2968 11.217C36.5915 11.529 36.7388 11.945 36.7388 12.465V12.621C36.7388 12.959 36.6781 13.2753 36.5568 13.57C36.4441 13.856 36.2708 14.1073 36.0368 14.324C35.8115 14.532 35.5298 14.6967 35.1918 14.818C34.8625 14.9393 34.4811 15 34.0478 15H30.0568V13.362ZM32.6308 13.362H33.8788C34.2428 13.362 34.5375 13.284 34.7628 13.128C34.9881 12.972 35.1008 12.712 35.1008 12.348V12.27C35.1008 11.906 34.9881 11.646 34.7628 11.49C34.5375 11.334 34.2428 11.256 33.8788 11.256H32.6308V13.362ZM32.6308 9.618H33.8788C34.2428 9.618 34.5375 9.54433 34.7628 9.397C34.9881 9.241 35.1008 8.981 35.1008 8.617V8.539C35.1008 8.175 34.9881 7.91933 34.7628 7.772C34.5375 7.616 34.2428 7.538 33.8788 7.538H32.6308V9.618ZM42.6318 14.142H42.8658V5.9H44.5818V15H41.2278L40.1618 6.758H39.9278V15H38.2118V5.9H41.5658L42.6318 14.142ZM45.9767 13.362H46.8347V7.538H45.9767V5.9H49.9677C50.4011 5.9 50.7824 5.96067 51.1117 6.082C51.4497 6.20333 51.7314 6.368 51.9567 6.576C52.1907 6.784 52.3641 7.03533 52.4767 7.33C52.5981 7.616 52.6587 7.928 52.6587 8.266V8.422C52.6587 8.942 52.5114 9.358 52.2167 9.67C51.9307 9.982 51.5667 10.1987 51.1247 10.32V10.554C51.5667 10.6753 51.9307 10.8963 52.2167 11.217C52.5114 11.529 52.6587 11.945 52.6587 12.465V12.621C52.6587 12.959 52.5981 13.2753 52.4767 13.57C52.3641 13.856 52.1907 14.1073 51.9567 14.324C51.7314 14.532 51.4497 14.6967 51.1117 14.818C50.7824 14.9393 50.4011 15 49.9677 15H45.9767V13.362ZM48.5507 13.362H49.7987C50.1627 13.362 50.4574 13.284 50.6827 13.128C50.9081 12.972 51.0207 12.712 51.0207 12.348V12.27C51.0207 11.906 50.9081 11.646 50.6827 11.49C50.4574 11.334 50.1627 11.256 49.7987 11.256H48.5507V13.362ZM48.5507 9.618H49.7987C50.1627 9.618 50.4574 9.54433 50.6827 9.397C50.9081 9.241 51.0207 8.981 51.0207 8.617V8.539C51.0207 8.175 50.9081 7.91933 50.6827 7.772C50.4574 7.616 50.1627 7.538 49.7987 7.538H48.5507V9.618Z" fill="#0D1238"/>
</svg>
