<?xml version="1.0" encoding="UTF-8" standalone="no"?>
<svg
   width="42.299999"
   height="44.899994"
   viewBox="0 0 42.299999 44.899994"
   fill="none"
   version="1.1"
   id="svg186"
   xmlns="http://www.w3.org/2000/svg"
   xmlns:svg="http://www.w3.org/2000/svg">
  <defs
     id="defs190" />
  <path
     d="M 21.15,41.8 C 32.55,41.8 41.8,32.56 41.8,21.15 41.8,9.74 32.55,0.5 21.15,0.5 9.75,0.5 0.50000003,9.74 0.50000003,21.15 0.50000003,32.56 9.74,41.8 21.15,41.8 Z"
     stroke="#00ffff"
     stroke-miterlimit="10"
     id="path148" />
  <path
     d="m 21.1495,39.52 c 10.15,0 18.38,-8.23 18.38,-18.38 0,-10.15 -8.23,-18.37 -18.38,-18.37 -10.15,0 -18.37997,8.23 -18.37997,18.38 0,10.15 8.22997,18.38 18.37997,18.38 z"
     stroke="#00ffff"
     stroke-miterlimit="10"
     id="path150" />
  <path
     d="M 34.8,34.5 H 8.5 c -2.76143,0 -5,2.239 -5,5 v 0.4 c 0,2.761 2.23857,5 5,5 h 26.3 c 2.7614,0 5,-2.239 5,-5 v -0.4 c 0,-2.761 -2.2386,-5 -5,-5 z"
     fill="#00ffff"
     id="path152" />
  <path
     d="m 15.8928,40.618 h 0.462 v -3.136 h -0.462 V 36.6 h 2.149 c 0.2333,0 0.4387,0.033 0.616,0.098 0.182,0.065 0.3337,0.154 0.455,0.266 0.126,0.112 0.2193,0.247 0.28,0.406 0.0653,0.154 0.098,0.322 0.098,0.504 v 0.084 c 0,0.28 -0.0793,0.504 -0.238,0.672 -0.154,0.168 -0.35,0.285 -0.588,0.35 v 0.126 c 0.238,0.065 0.434,0.184 0.588,0.357 0.1587,0.168 0.238,0.392 0.238,0.672 v 0.084 c 0,0.182 -0.0327,0.352 -0.098,0.511 -0.0607,0.154 -0.154,0.289 -0.28,0.406 -0.1213,0.112 -0.273,0.201 -0.455,0.266 -0.1773,0.065 -0.3827,0.098 -0.616,0.098 h -2.149 z m 1.386,0 h 0.672 c 0.196,0 0.3547,-0.042 0.476,-0.126 0.1213,-0.084 0.182,-0.224 0.182,-0.42 V 40.03 c 0,-0.196 -0.0607,-0.336 -0.182,-0.42 -0.1213,-0.084 -0.28,-0.126 -0.476,-0.126 h -0.672 z m 0,-2.016 h 0.672 c 0.196,0 0.3547,-0.04 0.476,-0.119 0.1213,-0.084 0.182,-0.224 0.182,-0.42 v -0.042 c 0,-0.196 -0.0607,-0.334 -0.182,-0.413 -0.1213,-0.084 -0.28,-0.126 -0.476,-0.126 h -0.672 z m 5.5601,-0.504 c 0,-0.196 -0.077,-0.366 -0.231,-0.511 -0.1493,-0.145 -0.3616,-0.217 -0.637,-0.217 -0.2333,0 -0.4176,0.049 -0.553,0.147 -0.1353,0.093 -0.203,0.222 -0.203,0.385 0,0.084 0.0164,0.161 0.049,0.231 0.0327,0.065 0.0887,0.126 0.168,0.182 0.084,0.051 0.1914,0.098 0.322,0.14 0.1354,0.042 0.3057,0.082 0.511,0.119 0.5134,0.093 0.9054,0.25 1.176,0.469 0.2707,0.219 0.406,0.544 0.406,0.973 V 40.1 c 0,0.229 -0.042,0.436 -0.126,0.623 -0.0793,0.182 -0.196,0.338 -0.35,0.469 -0.154,0.131 -0.3406,0.231 -0.56,0.301 -0.2193,0.07 -0.4666,0.105 -0.742,0.105 -0.322,0 -0.6066,-0.044 -0.854,-0.133 -0.2426,-0.093 -0.4456,-0.219 -0.609,-0.378 -0.1633,-0.163 -0.287,-0.352 -0.371,-0.567 -0.084,-0.219 -0.126,-0.457 -0.126,-0.714 v -0.21 h 0.924 v 0.168 c 0,0.294 0.084,0.53 0.252,0.707 0.1727,0.173 0.4387,0.259 0.798,0.259 0.28,0 0.4877,-0.061 0.623,-0.182 0.1354,-0.121 0.203,-0.266 0.203,-0.434 0,-0.079 -0.014,-0.154 -0.042,-0.224 -0.028,-0.075 -0.077,-0.14 -0.147,-0.196 -0.07,-0.061 -0.1656,-0.114 -0.287,-0.161 -0.1213,-0.047 -0.2753,-0.086 -0.462,-0.119 -0.2473,-0.042 -0.4736,-0.096 -0.679,-0.161 -0.2053,-0.07 -0.385,-0.161 -0.539,-0.273 -0.1493,-0.112 -0.266,-0.252 -0.35,-0.42 -0.084,-0.168 -0.126,-0.373 -0.126,-0.616 v -0.042 c 0,-0.201 0.0397,-0.385 0.119,-0.553 0.084,-0.173 0.1984,-0.322 0.343,-0.448 0.1494,-0.126 0.3267,-0.224 0.532,-0.294 0.21,-0.07 0.4434,-0.105 0.7,-0.105 0.2894,0 0.546,0.042 0.77,0.126 0.224,0.079 0.4107,0.189 0.56,0.329 0.154,0.14 0.2684,0.301 0.343,0.483 0.0794,0.182 0.119,0.373 0.119,0.574 v 0.252 h -0.924 z m 3.4602,2.66 c 0.1773,0 0.322,-0.026 0.434,-0.077 0.1166,-0.056 0.2053,-0.128 0.266,-0.217 0.0653,-0.093 0.1096,-0.198 0.133,-0.315 0.0233,-0.121 0.035,-0.245 0.035,-0.371 v -0.126 h 0.924 v 0.126 c 0,0.583 -0.154,1.034 -0.462,1.351 -0.3034,0.313 -0.7467,0.469 -1.33,0.469 -0.56,0 -1.0034,-0.17 -1.33,-0.511 -0.3267,-0.341 -0.49,-0.838 -0.49,-1.491 v -1.092 c 0,-0.313 0.042,-0.593 0.126,-0.84 0.084,-0.252 0.2053,-0.462 0.364,-0.63 0.1586,-0.173 0.35,-0.303 0.574,-0.392 0.224,-0.093 0.476,-0.14 0.756,-0.14 0.2893,0 0.546,0.042 0.77,0.126 0.224,0.084 0.4106,0.205 0.56,0.364 0.154,0.159 0.2683,0.35 0.343,0.574 0.0793,0.224 0.119,0.476 0.119,0.756 v 0.126 h -0.924 v -0.126 c 0,-0.117 -0.014,-0.233 -0.042,-0.35 -0.028,-0.117 -0.0747,-0.222 -0.14,-0.315 -0.0654,-0.093 -0.154,-0.168 -0.266,-0.224 -0.112,-0.061 -0.252,-0.091 -0.42,-0.091 -0.154,0 -0.287,0.03 -0.399,0.091 -0.112,0.056 -0.2054,0.135 -0.28,0.238 -0.0747,0.098 -0.1307,0.215 -0.168,0.35 -0.0327,0.131 -0.049,0.268 -0.049,0.413 v 1.232 c 0,0.159 0.0163,0.306 0.049,0.441 0.0326,0.131 0.084,0.245 0.154,0.343 0.07,0.098 0.161,0.175 0.273,0.231 0.1166,0.051 0.2566,0.077 0.42,0.077 z"
     fill="#0d1238"
     id="path154" />
  <rect
     x="21.537836"
     y="5.0423265"
     width="3.63204"
     height="3.63204"
     transform="rotate(45)"
     fill="#00ffff"
     id="rect176" />
  <rect
     x="35.600491"
     y="-8.9949055"
     width="3.62375"
     height="3.62375"
     transform="rotate(45)"
     fill="#00ffff"
     id="rect178" />
  <rect
     x="28.165979"
     y="-2.4315355"
     width="4.4775801"
     height="4.4775801"
     transform="rotate(45)"
     fill="#00ffff"
     id="rect180" />
  <path
     d="m 21.2366,13.651 -4.9921,5.135 -1.9846,-1.999 7.3352,-7.569 7.3352,7.569 -1.9846,1.999 -4.9921,-5.135 -0.3585,-0.368 z"
     fill="#00ffff"
     stroke="#00ffff"
     id="path182" />
  <path
     d="m 21.2366,28.849 -4.9957,-5.139 -1.9776,1.953 7.3318,7.564 7.3318,-7.564 -1.9776,-1.953 -4.9957,5.139 -0.3585,0.368 z"
     fill="#00ffff"
     stroke="#00ffff"
     id="path184" />
</svg>
