<svg width="67" height="51" viewBox="0 0 67 51" fill="none" xmlns="http://www.w3.org/2000/svg">
<path fill-rule="evenodd" clip-rule="evenodd" d="M0 11.7354H0.294117L9.80957 0.951172H67V34.2845L52.2941 50.9512H0V11.7354Z" fill="#00FFFF"/>
<path d="M11.76 18.9712H18.46L20.34 22.2912H13.12L12.68 24.3312H19.04C19.6267 24.8245 19.84 25.4378 19.68 26.1712L18.52 31.7112C18.4 32.2178 17.8067 32.5912 16.74 32.8312H10.54L8.28 29.6912H15.32L15.8 27.4712H10.12C9.09333 27.4712 8.66667 27.0378 8.84 26.1712L10.1 20.3112C10.2467 19.6045 10.8 19.1578 11.76 18.9712ZM23.582 18.9512H31.402L33.662 22.1512H26.462L26.142 23.6512H28.782L30.842 26.8312H25.462L24.822 29.8312H28.942L31.202 32.9512H20.602L23.582 18.9512ZM35.7511 18.9712H39.0311L38.4511 21.6912L41.7311 25.2512L43.0511 18.9712H46.3311L43.3711 32.9312H40.0511L40.7311 29.7312L37.4911 26.2912L36.0711 32.9312H32.7911L35.7511 18.9712ZM48.8936 18.9712H52.4336L59.1136 22.7312L57.3336 31.1712C57.2003 31.7712 56.6536 32.3245 55.6936 32.8312H50.6136L51.3136 29.5112H54.1336L55.1736 24.6912L51.9136 22.7312L49.3536 34.7912H49.2136L46.0536 32.3712L48.8936 18.9712Z" fill="#0D1238"/>
</svg>
