<svg width="44" height="46" viewBox="0 0 44 46" fill="none" xmlns="http://www.w3.org/2000/svg">
<path d="M22.0544 40.7724C32.1947 40.7724 40.415 32.5521 40.415 22.4118C40.415 12.2716 32.1947 4.05127 22.0544 4.05127C11.9142 4.05127 3.69385 12.2716 3.69385 22.4118C3.69385 32.5521 11.9142 40.7724 22.0544 40.7724Z" stroke="#00FFFF" stroke-miterlimit="10"/>
<path d="M5.2433 29.8065C4.2079 27.4787 3.67544 24.9587 3.6807 22.411C3.6817 18.0641 5.22382 13.8584 8.03299 10.5411C10.8422 7.22387 14.7365 5.01002 19.0238 4.29297V16.5648L5.2433 29.8065Z" fill="#00FFFF"/>
<path d="M22.0547 43.4663C33.6829 43.4663 43.1094 34.0398 43.1094 22.4116C43.1094 10.7834 33.6829 1.35693 22.0547 1.35693C10.4265 1.35693 1 10.7834 1 22.4116C1 34.0398 10.4265 43.4663 22.0547 43.4663Z" stroke="#00FFFF" stroke-miterlimit="10"/>
<path d="M10.6448 26.0484C9.92913 25.6645 9.33267 25.0914 8.92059 24.3915C8.59939 23.8601 8.38927 23.2691 8.30293 22.6542C8.21658 22.0392 8.25581 21.4132 8.41823 20.8139C8.58065 20.2145 8.8629 19.6544 9.24792 19.1672C9.63294 18.68 10.1127 18.276 10.6583 17.9795C11.3464 17.6301 12.1006 17.4302 12.8714 17.3931C13.6422 17.3559 14.4121 17.4823 15.1306 17.7639C15.7303 18.0113 16.2616 18.3994 16.6797 18.8955L15.6021 19.9058C15.2984 19.5687 14.9261 19.3006 14.5102 19.1194C14.0943 18.9381 13.6444 18.848 13.1908 18.8551C12.6131 18.8466 12.0428 18.9857 11.5339 19.2592C11.0594 19.5231 10.664 19.9091 10.3889 20.3772C10.1234 20.882 9.98471 21.4437 9.98471 22.0139C9.98471 22.5842 10.1234 23.1459 10.3889 23.6506C10.664 24.1188 11.0594 24.5048 11.5339 24.7687C12.0428 25.0422 12.6131 25.1813 13.1908 25.1728C13.6458 25.1809 14.0972 25.0898 14.5135 24.9061C14.9299 24.7223 15.3013 24.4502 15.6021 24.1086L16.6797 25.1324C16.2601 25.6235 15.7289 26.0069 15.1306 26.2505C14.4895 26.513 13.8027 26.6457 13.11 26.6411C12.2516 26.6528 11.4041 26.449 10.6448 26.0484Z" fill="#00FFFF"/>
<path d="M15.1311 17.7639C14.4127 17.4823 13.6427 17.3559 12.8719 17.3931C12.1011 17.4302 11.3469 17.6301 10.6589 17.9795C9.57888 18.6 8.7893 19.6238 8.4635 20.826C8.13769 22.0282 8.30228 23.3106 8.92113 24.3915C9.15712 24.7808 9.45256 25.1308 9.79673 25.4288L10.9417 24.3376C10.725 24.1369 10.5389 23.9054 10.3894 23.6506C10.124 23.1459 9.98525 22.5842 9.98525 22.0139C9.98525 21.4437 10.124 20.882 10.3894 20.3772C10.6646 19.9091 11.0599 19.5231 11.5344 19.2592C12.0434 18.9857 12.6137 18.8466 13.1913 18.8551C13.6388 18.8459 14.083 18.9324 14.4942 19.109C14.9055 19.2856 15.2742 19.5481 15.5756 19.8788L16.6398 18.8551C16.2287 18.3789 15.7121 18.0053 15.1311 17.7639Z" fill="#0D1238"/>
<path d="M19.751 17.6431H21.4213V25.2271H26.1226V26.6415H19.751V17.6431Z" fill="#00FFFF"/>
<path d="M30.4872 26.0484C29.7715 25.6645 29.175 25.0914 28.7629 24.3915C28.3571 23.6648 28.144 22.8463 28.144 22.0139C28.144 21.1816 28.3571 20.3631 28.7629 19.6364C29.1803 18.936 29.7812 18.363 30.5007 17.9795C31.1887 17.6301 31.9429 17.4302 32.7137 17.3931C33.4845 17.3559 34.2545 17.4823 34.9729 17.7639C35.5696 18.0166 36.0998 18.4039 36.5221 18.8955L35.4444 19.9058C35.1407 19.5687 34.7684 19.3006 34.3525 19.1194C33.9366 18.9381 33.4868 18.848 33.0331 18.8551C32.4553 18.8448 31.8845 18.984 31.3763 19.2592C30.8989 19.5192 30.5026 19.9062 30.2312 20.3772C29.9658 20.882 29.8271 21.4437 29.8271 22.0139C29.8271 22.5842 29.9658 23.1459 30.2312 23.6506C30.5026 24.1217 30.8989 24.5086 31.3763 24.7687C31.8845 25.0439 32.4553 25.1831 33.0331 25.1728C33.4882 25.1809 33.9395 25.0898 34.3559 24.9061C34.7722 24.7223 35.1437 24.4502 35.4444 24.1086L36.5221 25.1324C36.1078 25.6267 35.5812 26.0147 34.9864 26.2639C34.3409 26.5275 33.6495 26.6603 32.9523 26.6546C32.0928 26.6627 31.245 26.4543 30.4872 26.0484Z" fill="#00FFFF"/>
<path d="M22.0547 4.0376V11.9853L29.046 5.42508" stroke="#00FFFF" stroke-miterlimit="10"/>
<path d="M26.2578 40.287C28.7958 39.6854 31.1769 38.5511 33.2432 36.9593C35.3095 35.3675 37.0138 33.3546 38.243 31.0541C39.4722 28.7536 40.1983 26.218 40.3731 23.6156C40.548 21.0131 40.1675 18.4032 39.257 15.959L26.2578 29.8069V40.287Z" fill="#00FFFF"/>
<path d="M35.3504 24.1089C35.0503 24.4512 34.6789 24.7238 34.2624 24.9076C33.8459 25.0914 33.3943 25.182 32.9391 25.1731C32.3616 25.1804 31.7916 25.0414 31.2822 24.769C31.2027 24.7149 31.1263 24.6564 31.0532 24.5938L29.9756 25.7388C30.1238 25.8466 30.245 25.9544 30.3932 26.0487C31.0824 26.4029 31.8399 26.6044 32.614 26.6392C33.3881 26.6741 34.1607 26.5416 34.8789 26.2507C35.4796 26.0115 36.0118 25.6274 36.4281 25.1327L35.3504 24.1089Z" fill="#0D1238"/>
<path d="M36.4273 18.8957V18.8823L36.3335 18.9761L36.4273 18.8957Z" fill="#0D1238"/>
<path d="M20.2898 26.2236L15.6559 31.0057H5.82227" stroke="#00FFFF" stroke-miterlimit="10"/>
<path d="M16.0063 39.7484L23.3075 31.5312V40.7721" stroke="#00FFFF" stroke-miterlimit="10"/>
<path d="M29.7998 19.4749V14.6659L35.3362 9.3584" stroke="#00FFFF" stroke-miterlimit="10"/>
<path d="M36.3 35H10C7.23858 35 5 37.2386 5 40V40.4C5 43.1614 7.23858 45.4 10 45.4H36.3C39.0614 45.4 41.3 43.1614 41.3 40.4V40C41.3 37.2386 39.0614 35 36.3 35Z" fill="#00FFFF"/>
<path d="M17.3928 41.118H17.8548V37.982H17.3928V37.1H19.5418C19.7751 37.1 19.9805 37.1327 20.1578 37.198C20.3398 37.2633 20.4915 37.352 20.6128 37.464C20.7388 37.576 20.8321 37.7113 20.8928 37.87C20.9581 38.024 20.9908 38.192 20.9908 38.374V38.458C20.9908 38.738 20.9115 38.962 20.7528 39.13C20.5988 39.298 20.4028 39.4147 20.1648 39.48V39.606C20.4028 39.6713 20.5988 39.7903 20.7528 39.963C20.9115 40.131 20.9908 40.355 20.9908 40.635V40.719C20.9908 40.901 20.9581 41.0713 20.8928 41.23C20.8321 41.384 20.7388 41.5193 20.6128 41.636C20.4915 41.748 20.3398 41.8367 20.1578 41.902C19.9805 41.9673 19.7751 42 19.5418 42H17.3928V41.118ZM18.7788 41.118H19.4508C19.6468 41.118 19.8055 41.076 19.9268 40.992C20.0481 40.908 20.1088 40.768 20.1088 40.572V40.53C20.1088 40.334 20.0481 40.194 19.9268 40.11C19.8055 40.026 19.6468 39.984 19.4508 39.984H18.7788V41.118ZM18.7788 39.102H19.4508C19.6468 39.102 19.8055 39.0623 19.9268 38.983C20.0481 38.899 20.1088 38.759 20.1088 38.563V38.521C20.1088 38.325 20.0481 38.1873 19.9268 38.108C19.8055 38.024 19.6468 37.982 19.4508 37.982H18.7788V39.102ZM24.3389 38.598C24.3389 38.402 24.2619 38.2317 24.1079 38.087C23.9586 37.9423 23.7463 37.87 23.4709 37.87C23.2376 37.87 23.0533 37.919 22.9179 38.017C22.7826 38.1103 22.7149 38.2387 22.7149 38.402C22.7149 38.486 22.7313 38.563 22.7639 38.633C22.7966 38.6983 22.8526 38.759 22.9319 38.815C23.0159 38.8663 23.1233 38.913 23.2539 38.955C23.3893 38.997 23.5596 39.0367 23.7649 39.074C24.2783 39.1673 24.6703 39.3237 24.9409 39.543C25.2116 39.7623 25.3469 40.0867 25.3469 40.516V40.6C25.3469 40.8287 25.3049 41.0363 25.2209 41.223C25.1416 41.405 25.0249 41.5613 24.8709 41.692C24.7169 41.8227 24.5303 41.923 24.3109 41.993C24.0916 42.063 23.8443 42.098 23.5689 42.098C23.2469 42.098 22.9623 42.0537 22.7149 41.965C22.4723 41.8717 22.2693 41.7457 22.1059 41.587C21.9426 41.4237 21.8189 41.2347 21.7349 41.02C21.6509 40.8007 21.6089 40.5627 21.6089 40.306V40.096H22.5329V40.264C22.5329 40.558 22.6169 40.7937 22.7849 40.971C22.9576 41.1437 23.2236 41.23 23.5829 41.23C23.8629 41.23 24.0706 41.1693 24.2059 41.048C24.3413 40.9267 24.4089 40.782 24.4089 40.614C24.4089 40.5347 24.3949 40.46 24.3669 40.39C24.3389 40.3153 24.2899 40.25 24.2199 40.194C24.1499 40.1333 24.0543 40.0797 23.9329 40.033C23.8116 39.9863 23.6576 39.9467 23.4709 39.914C23.2236 39.872 22.9973 39.8183 22.7919 39.753C22.5866 39.683 22.4069 39.592 22.2529 39.48C22.1036 39.368 21.9869 39.228 21.9029 39.06C21.8189 38.892 21.7769 38.6867 21.7769 38.444V38.402C21.7769 38.2013 21.8166 38.017 21.8959 37.849C21.9799 37.6763 22.0943 37.527 22.2389 37.401C22.3883 37.275 22.5656 37.177 22.7709 37.107C22.9809 37.037 23.2143 37.002 23.4709 37.002C23.7603 37.002 24.0169 37.044 24.2409 37.128C24.4649 37.2073 24.6516 37.317 24.8009 37.457C24.9549 37.597 25.0693 37.758 25.1439 37.94C25.2233 38.122 25.2629 38.3133 25.2629 38.514V38.766H24.3389V38.598ZM27.7991 41.258C27.9764 41.258 28.1211 41.2323 28.2331 41.181C28.3497 41.125 28.4384 41.0527 28.4991 40.964C28.5644 40.8707 28.6087 40.7657 28.6321 40.649C28.6554 40.5277 28.6671 40.404 28.6671 40.278V40.152H29.5911V40.278C29.5911 40.8613 29.4371 41.3117 29.1291 41.629C28.8257 41.9417 28.3824 42.098 27.7991 42.098C27.2391 42.098 26.7957 41.9277 26.4691 41.587C26.1424 41.2463 25.9791 40.7493 25.9791 40.096V39.004C25.9791 38.6913 26.0211 38.4113 26.1051 38.164C26.1891 37.912 26.3104 37.702 26.4691 37.534C26.6277 37.3613 26.8191 37.2307 27.0431 37.142C27.2671 37.0487 27.5191 37.002 27.7991 37.002C28.0884 37.002 28.3451 37.044 28.5691 37.128C28.7931 37.212 28.9797 37.3333 29.1291 37.492C29.2831 37.6507 29.3974 37.842 29.4721 38.066C29.5514 38.29 29.5911 38.542 29.5911 38.822V38.948H28.6671V38.822C28.6671 38.7053 28.6531 38.5887 28.6251 38.472C28.5971 38.3553 28.5504 38.2503 28.4851 38.157C28.4197 38.0637 28.3311 37.989 28.2191 37.933C28.1071 37.8723 27.9671 37.842 27.7991 37.842C27.6451 37.842 27.5121 37.8723 27.4001 37.933C27.2881 37.989 27.1947 38.0683 27.1201 38.171C27.0454 38.269 26.9894 38.3857 26.9521 38.521C26.9194 38.6517 26.9031 38.7893 26.9031 38.934V40.166C26.9031 40.3247 26.9194 40.4717 26.9521 40.607C26.9847 40.7377 27.0361 40.852 27.1061 40.95C27.1761 41.048 27.2671 41.125 27.3791 41.181C27.4957 41.2323 27.6357 41.258 27.7991 41.258Z" fill="#0D1238"/>
</svg>
