<svg width="82" height="96" viewBox="0 0 82 96" fill="none" xmlns="http://www.w3.org/2000/svg">
<path d="M41.0008 83.8819C60.2654 83.8819 75.8824 68.2649 75.8824 49.0003C75.8824 29.7357 60.2654 14.1187 41.0008 14.1187C21.7362 14.1187 6.11914 29.7357 6.11914 49.0003C6.11914 68.2649 21.7362 83.8819 41.0008 83.8819Z" stroke="#00FFFF" stroke-miterlimit="10"/>
<path d="M9.06149 63.0485C7.09443 58.6263 6.08284 53.8386 6.09285 48.9986C6.09475 40.7403 9.02448 32.7501 14.3614 26.448C19.6983 20.1458 27.0967 15.9399 35.2419 14.5776V37.8918L9.06149 63.0485Z" fill="#00FFFF"/>
<path d="M41 89C63.0914 89 81 71.0914 81 49C81 26.9086 63.0914 9 41 9C18.9086 9 1 26.9086 1 49C1 71.0914 18.9086 89 41 89Z" stroke="#00FFFF" stroke-miterlimit="10"/>
<path d="M19.324 55.9092C17.9643 55.1799 16.8311 54.091 16.0483 52.7614C15.4381 51.7518 15.0389 50.629 14.8748 49.4608C14.7108 48.2925 14.7853 47.1032 15.0939 45.9646C15.4024 44.826 15.9387 43.7617 16.6701 42.8362C17.4016 41.9107 18.3131 41.143 19.3496 40.5797C20.6568 39.9159 22.0897 39.5362 23.554 39.4657C25.0184 39.3951 26.4811 39.6352 27.8461 40.1703C28.9854 40.6402 29.9949 41.3776 30.7892 42.32L28.7418 44.2393C28.1649 43.599 27.4576 43.0896 26.6675 42.7453C25.8773 42.401 25.0227 42.2298 24.1609 42.2432C23.0634 42.2271 21.9799 42.4913 21.0131 43.0109C20.1115 43.5123 19.3605 44.2457 18.8378 45.1351C18.3334 46.0939 18.0699 47.1611 18.0699 48.2445C18.0699 49.3279 18.3334 50.395 18.8378 51.3539C19.3605 52.2432 20.1115 52.9766 21.0131 53.478C21.9799 53.9976 23.0634 54.2619 24.1609 54.2457C25.0254 54.261 25.8828 54.0881 26.6738 53.739C27.4648 53.3899 28.1705 52.873 28.7418 52.224L30.7892 54.169C29.992 55.1021 28.9828 55.8304 27.8461 56.2931C26.6281 56.7918 25.3234 57.044 24.0073 57.0353C22.3766 57.0575 20.7664 56.6703 19.324 55.9092Z" fill="#00FFFF"/>
<path d="M27.8464 40.1703C26.4814 39.6352 25.0187 39.3951 23.5543 39.4657C22.09 39.5362 20.6571 39.9159 19.3499 40.5797C17.2982 41.7587 15.7981 43.7036 15.1791 45.9876C14.5602 48.2716 14.8729 50.7078 16.0486 52.7614C16.4969 53.501 17.0582 54.1659 17.712 54.732L19.8873 52.6591C19.4756 52.2777 19.1221 51.8379 18.8381 51.3539C18.3337 50.395 18.0702 49.3279 18.0702 48.2445C18.0702 47.1611 18.3337 46.0939 18.8381 45.1351C19.3608 44.2457 20.1118 43.5123 21.0134 43.0109C21.9802 42.4913 23.0637 42.2271 24.1612 42.2432C25.0112 42.2257 25.8552 42.3902 26.6365 42.7257C27.4177 43.0611 28.1182 43.5598 28.6909 44.1882L30.7127 42.2432C29.9316 41.3385 28.9502 40.6287 27.8464 40.1703Z" fill="#0D1238"/>
<path d="M36.623 39.9404H39.7964V54.3486H48.728V57.0358H36.623V39.9404Z" fill="#00FFFF"/>
<path d="M57.0209 55.9092C55.6612 55.1799 54.528 54.091 53.7451 52.7614C52.9741 51.3808 52.5693 49.8258 52.5693 48.2445C52.5693 46.6631 52.9741 45.1081 53.7451 43.7275C54.5381 42.3969 55.6797 41.3084 57.0465 40.5797C58.3536 39.9159 59.7865 39.5362 61.2509 39.4657C62.7153 39.3951 64.178 39.6352 65.543 40.1703C66.6766 40.6504 67.6838 41.3861 68.486 42.32L66.4386 44.2393C65.8617 43.599 65.1544 43.0896 64.3643 42.7453C63.5742 42.401 62.7195 42.2298 61.8577 42.2432C60.7598 42.2236 59.6755 42.4881 58.7099 43.0109C57.803 43.505 57.0502 44.2401 56.5346 45.1351C56.0303 46.0939 55.7668 47.1611 55.7668 48.2445C55.7668 49.3279 56.0303 50.395 56.5346 51.3539C57.0502 52.2488 57.803 52.9839 58.7099 53.478C59.6755 54.0008 60.7598 54.2653 61.8577 54.2458C62.7222 54.261 63.5797 54.0881 64.3707 53.739C65.1617 53.3899 65.8673 52.873 66.4386 52.224L68.486 54.169C67.699 55.1081 66.6986 55.8452 65.5685 56.3187C64.3422 56.8194 63.0287 57.0717 61.7042 57.0609C60.0712 57.0763 58.4605 56.6802 57.0209 55.9092Z" fill="#00FFFF"/>
<path d="M41 14.0928V29.1919L54.2821 16.7287" stroke="#00FFFF" stroke-miterlimit="10"/>
<path d="M48.9854 82.96C53.8071 81.8171 58.3307 79.6621 62.2563 76.638C66.1819 73.6138 69.4196 69.7897 71.755 65.4192C74.0903 61.0486 75.4697 56.2315 75.8019 51.2873C76.134 46.3431 75.4112 41.3848 73.6815 36.7412L48.9854 63.0496V82.96Z" fill="#00FFFF"/>
<path d="M66.259 52.2246C65.6888 52.8749 64.9834 53.3928 64.1921 53.742C63.4008 54.0912 62.5428 54.2634 61.678 54.2464C60.5808 54.2602 59.4979 53.9961 58.5303 53.4786C58.3792 53.3759 58.2339 53.2648 58.0952 53.1459L56.0479 55.3212C56.3294 55.526 56.5597 55.7307 56.8412 55.9098C58.1505 56.5829 59.5897 56.9655 61.0603 57.0318C62.531 57.098 63.9987 56.8463 65.3633 56.2937C66.5045 55.8392 67.5155 55.1095 68.3064 54.1696L66.259 52.2246Z" fill="#0D1238"/>
<path d="M68.3041 42.3204V42.2949L68.126 42.4731L68.3041 42.3204Z" fill="#0D1238"/>
<path d="M37.6467 56.2422L28.8432 65.3273H10.1611" stroke="#00FFFF" stroke-miterlimit="10"/>
<path d="M29.5088 81.9367L43.3795 66.3257V83.8817" stroke="#00FFFF" stroke-miterlimit="10"/>
<path d="M55.7139 43.4206V34.2843L66.2321 24.2012" stroke="#00FFFF" stroke-miterlimit="10"/>
<path d="M56.9888 75.4937H25.3721C22.0524 75.4937 19.3613 79.7465 19.3613 84.9927V85.7527C19.3613 90.9988 22.0524 95.2517 25.3721 95.2517H56.9888C60.3085 95.2517 62.9996 90.9988 62.9996 85.7527V84.9927C62.9996 79.7465 60.3085 75.4937 56.9888 75.4937Z" fill="#00FFFF"/>
<path d="M32.8766 86.3337H33.5366V81.8537H32.8766V80.5937H35.9466C36.28 80.5937 36.5733 80.6404 36.8266 80.7337C37.0866 80.8271 37.3033 80.9537 37.4766 81.1137C37.6566 81.2737 37.79 81.4671 37.8766 81.6937C37.97 81.9137 38.0166 82.1537 38.0166 82.4137V82.5337C38.0166 82.9337 37.9033 83.2537 37.6766 83.4937C37.4566 83.7337 37.1766 83.9004 36.8366 83.9937V84.1737C37.1766 84.2671 37.4566 84.4371 37.6766 84.6837C37.9033 84.9237 38.0166 85.2437 38.0166 85.6437V85.7637C38.0166 86.0237 37.97 86.2671 37.8766 86.4937C37.79 86.7137 37.6566 86.9071 37.4766 87.0737C37.3033 87.2337 37.0866 87.3604 36.8266 87.4537C36.5733 87.5471 36.28 87.5938 35.9466 87.5938H32.8766V86.3337ZM34.8566 86.3337H35.8166C36.0966 86.3337 36.3233 86.2737 36.4966 86.1537C36.67 86.0337 36.7566 85.8337 36.7566 85.5537V85.4937C36.7566 85.2137 36.67 85.0137 36.4966 84.8937C36.3233 84.7737 36.0966 84.7137 35.8166 84.7137H34.8566V86.3337ZM34.8566 83.4537H35.8166C36.0966 83.4537 36.3233 83.3971 36.4966 83.2837C36.67 83.1637 36.7566 82.9637 36.7566 82.6837V82.6237C36.7566 82.3437 36.67 82.1471 36.4966 82.0337C36.3233 81.9137 36.0966 81.8537 35.8166 81.8537H34.8566V83.4537ZM42.7997 82.7337C42.7997 82.4537 42.6897 82.2104 42.4697 82.0037C42.2564 81.7971 41.953 81.6937 41.5597 81.6937C41.2264 81.6937 40.963 81.7637 40.7697 81.9037C40.5764 82.0371 40.4797 82.2204 40.4797 82.4538C40.4797 82.5737 40.503 82.6837 40.5497 82.7837C40.5964 82.8771 40.6764 82.9637 40.7897 83.0437C40.9097 83.1171 41.063 83.1837 41.2497 83.2437C41.443 83.3037 41.6864 83.3604 41.9797 83.4137C42.713 83.5471 43.273 83.7704 43.6597 84.0837C44.0464 84.3971 44.2397 84.8604 44.2397 85.4737V85.5937C44.2397 85.9204 44.1797 86.2171 44.0597 86.4837C43.9464 86.7437 43.7797 86.9671 43.5597 87.1537C43.3397 87.3404 43.073 87.4837 42.7597 87.5837C42.4464 87.6838 42.093 87.7338 41.6997 87.7338C41.2397 87.7338 40.833 87.6704 40.4797 87.5437C40.133 87.4104 39.843 87.2304 39.6097 87.0037C39.3764 86.7704 39.1997 86.5004 39.0797 86.1937C38.9597 85.8804 38.8997 85.5404 38.8997 85.1737V84.8737H40.2197V85.1137C40.2197 85.5337 40.3397 85.8704 40.5797 86.1238C40.8264 86.3704 41.2064 86.4937 41.7197 86.4937C42.1197 86.4937 42.4164 86.4071 42.6097 86.2337C42.803 86.0604 42.8997 85.8537 42.8997 85.6137C42.8997 85.5004 42.8797 85.3937 42.8397 85.2937C42.7997 85.1871 42.7297 85.0937 42.6297 85.0137C42.5297 84.9271 42.393 84.8504 42.2197 84.7837C42.0464 84.7171 41.8264 84.6604 41.5597 84.6137C41.2064 84.5537 40.883 84.4771 40.5897 84.3837C40.2964 84.2837 40.0397 84.1537 39.8197 83.9937C39.6064 83.8337 39.4397 83.6337 39.3197 83.3937C39.1997 83.1537 39.1397 82.8604 39.1397 82.5137V82.4538C39.1397 82.1671 39.1964 81.9037 39.3097 81.6637C39.4297 81.4171 39.593 81.2037 39.7997 81.0237C40.013 80.8437 40.2664 80.7037 40.5597 80.6037C40.8597 80.5037 41.193 80.4537 41.5597 80.4537C41.973 80.4537 42.3397 80.5137 42.6597 80.6337C42.9797 80.7471 43.2464 80.9037 43.4597 81.1037C43.6797 81.3037 43.843 81.5337 43.9497 81.7937C44.063 82.0537 44.1197 82.3271 44.1197 82.6137V82.9737H42.7997V82.7337ZM47.7427 86.5337C47.9961 86.5337 48.2027 86.4971 48.3627 86.4237C48.5294 86.3437 48.6561 86.2404 48.7427 86.1137C48.8361 85.9804 48.8994 85.8304 48.9327 85.6637C48.9661 85.4904 48.9827 85.3137 48.9827 85.1337V84.9538H50.3027V85.1337C50.3027 85.9671 50.0827 86.6104 49.6427 87.0637C49.2094 87.5104 48.5761 87.7338 47.7427 87.7338C46.9427 87.7338 46.3094 87.4904 45.8427 87.0037C45.3761 86.5171 45.1427 85.8071 45.1427 84.8737V83.3137C45.1427 82.8671 45.2027 82.4671 45.3227 82.1137C45.4427 81.7537 45.6161 81.4537 45.8427 81.2137C46.0694 80.9671 46.3427 80.7804 46.6627 80.6537C46.9827 80.5204 47.3427 80.4537 47.7427 80.4537C48.1561 80.4537 48.5227 80.5137 48.8427 80.6337C49.1627 80.7537 49.4294 80.9271 49.6427 81.1537C49.8627 81.3804 50.0261 81.6537 50.1327 81.9737C50.2461 82.2937 50.3027 82.6537 50.3027 83.0537V83.2337H48.9827V83.0537C48.9827 82.8871 48.9627 82.7204 48.9227 82.5537C48.8827 82.3871 48.8161 82.2371 48.7227 82.1037C48.6294 81.9704 48.5027 81.8637 48.3427 81.7837C48.1827 81.6971 47.9827 81.6537 47.7427 81.6537C47.5227 81.6537 47.3327 81.6971 47.1727 81.7837C47.0127 81.8637 46.8794 81.9771 46.7727 82.1237C46.6661 82.2637 46.5861 82.4304 46.5327 82.6237C46.4861 82.8104 46.4627 83.0071 46.4627 83.2137V84.9737C46.4627 85.2004 46.4861 85.4104 46.5327 85.6037C46.5794 85.7904 46.6527 85.9537 46.7527 86.0937C46.8527 86.2337 46.9827 86.3437 47.1427 86.4237C47.3094 86.4971 47.5094 86.5337 47.7427 86.5337Z" fill="#0D1238"/>
<path d="M54.0621 0H27.3425C22.1828 0 18 4.18279 18 9.34252V10.0899C18 15.2497 22.1828 19.4324 27.3425 19.4324H54.0621C59.2219 19.4324 63.4047 15.2497 63.4047 10.0899V9.34252C63.4047 4.18279 59.2219 0 54.0621 0Z" fill="#00FFFF"/>
<path d="M33.4213 13.2558C33.7506 13.2558 34.0193 13.2081 34.2273 13.1128C34.4439 13.0088 34.6086 12.8745 34.7213 12.7098C34.8426 12.5365 34.9249 12.3415 34.9683 12.1248C35.0116 11.8995 35.0333 11.6698 35.0333 11.4358V11.2018H36.7493V11.4358C36.7493 12.5191 36.4633 13.3555 35.8913 13.9448C35.3279 14.5255 34.5046 14.8158 33.4213 14.8158C32.3813 14.8158 31.5579 14.4995 30.9513 13.8668C30.3446 13.2341 30.0413 12.3111 30.0413 11.0978V9.06979C30.0413 8.48912 30.1193 7.96912 30.2753 7.50979C30.4313 7.04179 30.6566 6.65179 30.9513 6.33979C31.2459 6.01912 31.6013 5.77646 32.0173 5.61179C32.4333 5.43846 32.9013 5.35179 33.4213 5.35179C33.9586 5.35179 34.4353 5.42979 34.8513 5.58579C35.2673 5.74179 35.6139 5.96712 35.8913 6.26179C36.1773 6.55646 36.3896 6.91179 36.5283 7.32779C36.6756 7.74379 36.7493 8.21179 36.7493 8.73179V8.96579H35.0333V8.73179C35.0333 8.51512 35.0073 8.29846 34.9553 8.08179C34.9033 7.86512 34.8166 7.67012 34.6953 7.49679C34.5739 7.32346 34.4093 7.18479 34.2013 7.08079C33.9933 6.96812 33.7333 6.91179 33.4213 6.91179C33.1353 6.91179 32.8883 6.96812 32.6803 7.08079C32.4723 7.18479 32.2989 7.33212 32.1603 7.52279C32.0216 7.70479 31.9176 7.92146 31.8483 8.17279C31.7876 8.41546 31.7573 8.67112 31.7573 8.93979V11.2278C31.7573 11.5225 31.7876 11.7955 31.8483 12.0468C31.9089 12.2895 32.0043 12.5018 32.1343 12.6838C32.2643 12.8658 32.4333 13.0088 32.6413 13.1128C32.8579 13.2081 33.1179 13.2558 33.4213 13.2558ZM38.4432 5.53379H40.1592V12.9958H44.2932V14.6338H38.4432V5.53379ZM49.3412 13.2558C49.6705 13.2558 49.9392 13.2081 50.1472 13.1128C50.3638 13.0088 50.5285 12.8745 50.6412 12.7098C50.7625 12.5365 50.8448 12.3415 50.8882 12.1248C50.9315 11.8995 50.9532 11.6698 50.9532 11.4358V11.2018H52.6692V11.4358C52.6692 12.5191 52.3832 13.3555 51.8112 13.9448C51.2478 14.5255 50.4245 14.8158 49.3412 14.8158C48.3012 14.8158 47.4778 14.4995 46.8712 13.8668C46.2645 13.2341 45.9612 12.3111 45.9612 11.0978V9.06979C45.9612 8.48912 46.0392 7.96912 46.1952 7.50979C46.3512 7.04179 46.5765 6.65179 46.8712 6.33979C47.1658 6.01912 47.5212 5.77646 47.9372 5.61179C48.3532 5.43846 48.8212 5.35179 49.3412 5.35179C49.8785 5.35179 50.3552 5.42979 50.7712 5.58579C51.1872 5.74179 51.5338 5.96712 51.8112 6.26179C52.0972 6.55646 52.3095 6.91179 52.4482 7.32779C52.5955 7.74379 52.6692 8.21179 52.6692 8.73179V8.96579H50.9532V8.73179C50.9532 8.51512 50.9272 8.29846 50.8752 8.08179C50.8232 7.86512 50.7365 7.67012 50.6152 7.49679C50.4938 7.32346 50.3292 7.18479 50.1212 7.08079C49.9132 6.96812 49.6532 6.91179 49.3412 6.91179C49.0552 6.91179 48.8082 6.96812 48.6002 7.08079C48.3922 7.18479 48.2188 7.33212 48.0802 7.52279C47.9415 7.70479 47.8375 7.92146 47.7682 8.17279C47.7075 8.41546 47.6772 8.67112 47.6772 8.93979V11.2278C47.6772 11.5225 47.7075 11.7955 47.7682 12.0468C47.8288 12.2895 47.9242 12.5018 48.0542 12.6838C48.1842 12.8658 48.3532 13.0088 48.5612 13.1128C48.7778 13.2081 49.0378 13.2558 49.3412 13.2558Z" fill="#0D1238"/>
</svg>
