<svg width="82" height="96" viewBox="0 0 82 96" fill="none" xmlns="http://www.w3.org/2000/svg">
<path d="M41 89.6265C63.0823 89.6265 81 71.7282 81 49.6265C81 27.5248 63.0823 9.62646 41 9.62646C18.9177 9.62646 1 27.5248 1 49.6265C1 71.7282 18.8983 89.6265 41 89.6265Z" stroke="#00FFFF" stroke-miterlimit="10"/>
<path d="M40.9984 85.2104C60.6594 85.2104 76.6013 69.2685 76.6013 49.6075C76.6013 29.9464 60.6594 14.0239 40.9984 14.0239C21.3374 14.0239 5.39551 29.9658 5.39551 49.6268C5.39551 69.2878 21.3374 85.2297 40.9984 85.2297V85.2104Z" stroke="#00FFFF" stroke-miterlimit="10"/>
<path d="M41.4238 43.2528V25.4707C46.3633 33.6644 51.2447 41.7419 56.1066 49.8387C56.1066 49.8581 56.0873 49.8775 56.0679 49.8969C51.1865 47.6693 46.3052 45.461 41.4238 43.2334V43.2528Z" fill="#00FFFF"/>
<path d="M41.4238 44.144C46.3052 46.3523 51.1672 48.5605 56.0873 50.8075C51.1672 53.7131 46.3246 56.5799 41.4238 59.4854V44.144Z" fill="#00FFFF"/>
<path d="M40.5734 43.2528C40.5734 37.3642 40.5734 31.4755 40.5734 25.4707C35.634 33.6644 30.7526 41.7419 25.8906 49.8387C25.8906 49.8581 25.91 49.8775 25.9294 49.8969C30.8107 47.6693 35.6921 45.461 40.5734 43.2334V43.2528Z" fill="#00FFFF"/>
<path d="M40.5716 44.144C35.6903 46.3523 30.8283 48.5605 25.9082 50.8075C30.8283 53.7131 35.6709 56.5799 40.5716 59.4854C40.5716 54.3523 40.5716 49.2772 40.5716 44.144Z" fill="#00FFFF"/>
<path d="M55.7598 54.333C50.9946 61.0352 46.2295 67.7374 41.445 74.4977C41.445 74.3621 41.4062 74.2652 41.4062 74.1877C41.4062 70.4686 41.4062 66.7495 41.4062 63.0304C41.4062 62.8754 41.5225 62.6623 41.6387 62.5848C46.3263 59.7955 51.014 57.0449 55.7016 54.2749C55.721 54.2749 55.7404 54.3136 55.7598 54.3136V54.333Z" fill="#00FFFF"/>
<path d="M26.4917 54.4102C31.1212 57.1414 35.7508 59.8726 40.3803 62.6232C40.4965 62.7007 40.6321 62.8944 40.6321 63.03C40.6321 66.7685 40.6321 70.4876 40.6321 74.2261C40.6321 74.2649 40.6321 74.3036 40.5934 74.4198C35.8476 67.737 31.1406 61.1123 26.4336 54.4683C26.453 54.4683 26.4723 54.4295 26.4917 54.4295V54.4102Z" fill="#00FFFF"/>
<path d="M53.3131 0H26.5935C21.4338 0 17.251 4.18279 17.251 9.34252V10.0899C17.251 15.2497 21.4338 19.4324 26.5935 19.4324H53.3131C58.4728 19.4324 62.6556 15.2497 62.6556 10.0899V9.34252C62.6556 4.18279 58.4728 0 53.3131 0Z" fill="#00FFFF"/>
<path d="M29.7342 5.53379H35.4802V7.17179H31.4502V9.25179H35.3242V10.8898H31.4502V12.9958H35.6362V14.6338H29.7342V5.53379ZM37.3302 5.53379H43.8822V7.17179H41.4642V14.6338H39.7482V7.17179H37.3302V5.53379ZM45.3812 5.53379H47.0972V9.25179H50.0352V5.53379H51.7512V14.6338H50.0352V10.8898H47.0972V14.6338H45.3812V5.53379Z" fill="#0D1238"/>
<path d="M61.8313 77H18.1687C10.8958 77 8 81.0897 8 86.1346V86.8654C8 91.9103 10.8958 96 18.1687 96H61.8313C69.1042 96 72 91.9103 72 86.8654V86.1346C72 81.0897 69.1042 77 61.8313 77Z" fill="#00FFFF"/>
<path d="M16.8278 82H21.2478V83.26H18.1478V84.86H21.1278V86.12H18.1478V87.74H21.3678V89H16.8278V82ZM22.7709 84.04H24.2409V82H25.5009V84.04H27.2909V85.24H25.5009V87.5C25.5009 87.7 25.5909 87.8 25.7709 87.8H27.1109V89H25.0109C24.7842 89 24.5975 88.9267 24.4509 88.78C24.3109 88.6333 24.2409 88.4467 24.2409 88.22V85.24H22.7709V84.04ZM30.3139 89H29.0539V82H30.3139V84.84H30.4939C30.6206 84.54 30.8072 84.31 31.0539 84.15C31.3006 83.9833 31.6039 83.9 31.9639 83.9C32.2106 83.9 32.4372 83.94 32.6439 84.02C32.8506 84.1 33.0306 84.22 33.1839 84.38C33.3372 84.54 33.4572 84.7467 33.5439 85C33.6306 85.2467 33.6739 85.54 33.6739 85.88V89H32.4139V86.18C32.4139 85.8267 32.3272 85.55 32.1539 85.35C31.9872 85.1433 31.7439 85.04 31.4239 85.04C31.0506 85.04 30.7706 85.1667 30.5839 85.42C30.4039 85.6667 30.3139 86 30.3139 86.42V89ZM36.267 86.93C36.2736 87.0767 36.307 87.2133 36.367 87.34C36.4336 87.46 36.5203 87.5667 36.627 87.66C36.7403 87.7467 36.867 87.8167 37.007 87.87C37.1536 87.9167 37.307 87.94 37.467 87.94C37.7803 87.94 38.0203 87.8867 38.187 87.78C38.3536 87.6667 38.4736 87.5333 38.547 87.38L39.627 87.98C39.567 88.1067 39.4836 88.24 39.377 88.38C39.2703 88.5133 39.1303 88.6367 38.957 88.75C38.7903 88.8633 38.5836 88.9567 38.337 89.03C38.097 89.1033 37.8136 89.14 37.487 89.14C37.1136 89.14 36.7736 89.08 36.467 88.96C36.1603 88.84 35.8936 88.6667 35.667 88.44C35.447 88.2133 35.2736 87.9367 35.147 87.61C35.027 87.2833 34.967 86.9133 34.967 86.5V86.44C34.967 86.06 35.0303 85.7133 35.157 85.4C35.2903 85.0867 35.4703 84.82 35.697 84.6C35.9236 84.38 36.187 84.21 36.487 84.09C36.7936 83.9633 37.1203 83.9 37.467 83.9C37.8936 83.9 38.2603 83.9767 38.567 84.13C38.8736 84.2767 39.127 84.4667 39.327 84.7C39.527 84.9267 39.6736 85.18 39.767 85.46C39.8603 85.7333 39.907 86 39.907 86.26V86.93H36.267ZM37.457 85.04C37.137 85.04 36.877 85.1233 36.677 85.29C36.477 85.45 36.347 85.6367 36.287 85.85H38.627C38.587 85.6167 38.4603 85.4233 38.247 85.27C38.0403 85.1167 37.777 85.04 37.457 85.04ZM41.04 84.04H43.14V84.76H43.32C43.4133 84.4867 43.57 84.2767 43.79 84.13C44.0167 83.9767 44.2867 83.9 44.6 83.9C45.0933 83.9 45.49 84.0567 45.79 84.37C46.09 84.6767 46.24 85.1467 46.24 85.78V86L44.94 86.12V85.98C44.94 85.7067 44.87 85.49 44.73 85.33C44.59 85.1633 44.38 85.08 44.1 85.08C43.82 85.08 43.6 85.1767 43.44 85.37C43.28 85.5633 43.2 85.84 43.2 86.2V87.8H44.34V89H40.92V87.8H41.94V85.24H41.04V84.04ZM47.493 87.8H49.173V85.24H47.613V84.04H50.433V87.8H51.873V89H47.493V87.8ZM50.743 82.57C50.743 82.7033 50.7164 82.83 50.663 82.95C50.6164 83.0633 50.5497 83.1633 50.463 83.25C50.3764 83.33 50.273 83.3967 50.153 83.45C50.0397 83.4967 49.9197 83.52 49.793 83.52C49.6597 83.52 49.5364 83.4967 49.423 83.45C49.3097 83.3967 49.2097 83.33 49.123 83.25C49.0364 83.1633 48.9664 83.0633 48.913 82.95C48.8664 82.83 48.843 82.7033 48.843 82.57C48.843 82.4367 48.8664 82.3133 48.913 82.2C48.9664 82.08 49.0364 81.98 49.123 81.9C49.2097 81.8133 49.3097 81.7467 49.423 81.7C49.5364 81.6467 49.6597 81.62 49.793 81.62C49.9197 81.62 50.0397 81.6467 50.153 81.7C50.273 81.7467 50.3764 81.8133 50.463 81.9C50.5497 81.98 50.6164 82.08 50.663 82.2C50.7164 82.3133 50.743 82.4367 50.743 82.57ZM56.8861 84.04H58.1461V89H56.8861V88.28H56.7061C56.4861 88.8533 56.0128 89.14 55.2861 89.14C55.0394 89.14 54.8094 89.1 54.5961 89.02C54.3828 88.94 54.1961 88.8167 54.0361 88.65C53.8761 88.4833 53.7494 88.2767 53.6561 88.03C53.5694 87.7767 53.5261 87.48 53.5261 87.14V84.04H54.7861V86.88C54.7861 87.2333 54.8694 87.51 55.0361 87.71C55.2028 87.9033 55.4528 88 55.7861 88C56.1661 88 56.4428 87.88 56.6161 87.64C56.7961 87.3933 56.8861 87.06 56.8861 86.64V84.04ZM64.6291 89H63.3691V85.52C63.3691 85.38 63.3325 85.2767 63.2591 85.21C63.1925 85.1367 63.1025 85.1 62.9891 85.1C62.8558 85.1 62.7491 85.14 62.6691 85.22C62.5958 85.3 62.5591 85.42 62.5591 85.58V89H61.2991V85.52C61.2991 85.38 61.2591 85.2767 61.1791 85.21C61.1058 85.1367 61.0158 85.1 60.9091 85.1C60.7891 85.1 60.6891 85.14 60.6091 85.22C60.5291 85.3 60.4891 85.42 60.4891 85.58V89H59.2291V84.04H60.4891V84.52H60.6691C60.7091 84.34 60.7991 84.1933 60.9391 84.08C61.0858 83.96 61.2758 83.9 61.5091 83.9C61.7291 83.9 61.9158 83.96 62.0691 84.08C62.2225 84.1933 62.3258 84.34 62.3791 84.52H62.5591C62.6125 84.34 62.7225 84.1933 62.8891 84.08C63.0625 83.96 63.2758 83.9 63.5291 83.9C63.8625 83.9 64.1291 84.0133 64.3291 84.24C64.5291 84.46 64.6291 84.7667 64.6291 85.16V89Z" fill="#0D1238"/>
</svg>
