<svg width="73" height="69" viewBox="0 0 73 69" fill="none"
    xmlns="http://www.w3.org/2000/svg">
    <path d="M42.5495 29.6826L55.5628 16.6692H72.1052L59.2924 3.85645H45.8179L37.5968 12.0775L29.6565 4.13716L23.3403 10.4533L42.5696 29.6826H42.5495Z" fill="#00FFFF"/>
    <path d="M23.3202 33.9535L34.5289 22.7648L22.2174 10.4533L28.8143 3.85645H16.3022V26.9355L23.3202 33.9535Z" fill="#00FFFF"/>
    <path d="M15.5207 27.2568V4.21777L2.80811 16.9303V33.4526L30.2383 60.8828V41.9945L15.5006 27.2568H15.5207Z" fill="#00FFFF"/>
    <path d="M49.167 57.2139V68.0817H54.3001V62.1665L49.167 57.2139Z" fill="white"/>
    <path d="M44.2939 44.9019H37.5566V49.9548H39.241L44.2939 44.9019Z" fill="white"/>
    <path d="M54.3597 49.3928V39.0664L49.1463 33.853V44.9013H45.3967L39.5618 50.7362H37.5566V56.511H49.427L55.0615 61.8647V68.1007H60.736V57.0524L54.3396 50.656V49.4129L54.3597 49.3928Z" fill="white"/>
    <path d="M72.3457 44.9019H67.1123V49.4134H72.3457V44.9019Z" fill="white"/>
    <path d="M66.33 44.9017H60.7558V33.312H49.7275L55.1615 38.7459V50.3356L61.3172 56.5114H72.3454V50.2153H66.33V44.9217V44.9017Z" fill="white"/>
    <path d="M37.5766 7.70709C37.5766 7.70709 37.4764 7.70709 37.4563 7.66699C37.4162 7.64694 37.3962 7.60683 37.3761 7.56673C37.3761 7.52663 37.356 7.48653 37.3761 7.42637C37.3761 7.38627 37.4162 7.34616 37.4363 7.30606L44.0933 0.649021C44.0933 0.649021 44.1334 0.608919 44.1735 0.588867C44.1936 0.588867 44.2337 0.588867 44.2537 0.588867H55.0213C55.0213 0.588867 55.1416 0.608918 55.1817 0.649021C55.2218 0.689123 55.2418 0.749277 55.2418 0.809431C55.2418 0.869585 55.2218 0.929739 55.1817 0.969842C55.1416 1.00994 55.0814 1.03 55.0213 1.03H44.354L37.7571 7.62688C37.7571 7.62688 37.717 7.66699 37.6769 7.68704C37.6568 7.68704 37.6167 7.68704 37.5766 7.68704V7.70709Z" fill="white"/>
    <path d="M26.3875 63.1881C26.3875 63.1881 26.3274 63.1881 26.3073 63.1881C26.2873 63.1881 26.2472 63.1681 26.2271 63.128L17.4246 54.3254C17.4246 54.3254 17.3845 54.2853 17.3645 54.2452C17.3645 54.2252 17.3645 54.1851 17.3645 54.165V50.8766L0.0601535 33.5723C0.0601535 33.5723 0 33.4721 0 33.4119V26.6747C0 26.6747 0.0200508 26.5544 0.0601535 26.5143C0.100256 26.4742 0.16041 26.4541 0.220564 26.4541C0.280718 26.4541 0.340872 26.4742 0.380974 26.5143C0.421077 26.5544 0.441129 26.6145 0.441129 26.6747V33.3117L17.7454 50.616C17.7454 50.616 17.8056 50.7162 17.8056 50.7764V54.0648L26.5279 62.7871C26.5279 62.7871 26.5881 62.8673 26.5881 62.9074C26.5881 62.9475 26.5881 63.0077 26.5881 63.0478C26.5881 63.0879 26.548 63.128 26.5079 63.148C26.4678 63.1681 26.4277 63.1881 26.3875 63.1881Z" fill="white"/>
    <path d="M72.3459 17.4517H55.8838L42.5497 30.7858L35.0705 23.3066L23.8618 34.5153L31.0001 41.6536V61.6648L37.5569 68.2216L48.5049 57.2736H36.7749V44.1199H48.3645V32.5303H61.5383V44.2603L72.3459 33.4526V17.4517Z" fill="#00FFFF"/>
</svg>
