<svg width="73" height="68" viewBox="0 0 73 68" fill="none" xmlns="http://www.w3.org/2000/svg">
<path d="M42.5495 29.0937L55.5628 16.0804H72.1052L59.2924 3.26758H45.8179L37.5968 11.4886L29.6565 3.5483L23.3403 9.86447L42.5696 29.0937H42.5495Z" fill="#00FFFF"/>
<path d="M23.3202 33.3646L34.5289 22.176L22.2174 9.86447L28.8143 3.26758H16.3022V26.3467L23.3202 33.3646Z" fill="#00FFFF"/>
<path d="M15.5207 26.6679V3.62891L2.80811 16.3415V32.8637L30.2383 60.294V41.4056L15.5006 26.6679H15.5207Z" fill="#00FFFF"/>
<path d="M49.167 56.625V67.4928H54.3001V61.5777L49.167 56.625Z" fill="white"/>
<path d="M44.2939 44.313H37.5566V49.3659H39.241L44.2939 44.313Z" fill="white"/>
<path d="M54.3597 48.8039V38.4775L49.1463 33.2642V44.3124H45.3967L39.5618 50.1474H37.5566V55.9222H49.427L55.0615 61.2759V67.5118H60.736V56.4636L54.3396 50.0672V48.824L54.3597 48.8039Z" fill="white"/>
<path d="M72.3457 44.313H67.1123V48.8245H72.3457V44.313Z" fill="white"/>
<path d="M66.33 44.3128H60.7558V32.7231H49.7275L55.1615 38.1571V49.7467L61.3172 55.9225H72.3454V49.6264H66.33V44.3329V44.3128Z" fill="white"/>
<path d="M37.5766 7.11822C37.5766 7.11822 37.4764 7.11822 37.4563 7.07812C37.4162 7.05807 37.3962 7.01797 37.3761 6.97786C37.3761 6.93776 37.356 6.89766 37.3761 6.8375C37.3761 6.7974 37.4162 6.7573 37.4363 6.7172L44.0933 0.0601535C44.0933 0.0601535 44.1334 0.0200513 44.1735 0C44.1936 0 44.2337 0 44.2537 0H55.0213C55.0213 0 55.1416 0.0200508 55.1817 0.0601535C55.2218 0.100256 55.2418 0.16041 55.2418 0.220564C55.2418 0.280718 55.2218 0.340872 55.1817 0.380974C55.1416 0.421077 55.0814 0.44113 55.0213 0.44113H44.354L37.7571 7.03802C37.7571 7.03802 37.717 7.07812 37.6769 7.09817C37.6568 7.09817 37.6167 7.09817 37.5766 7.09817V7.11822Z" fill="white"/>
<path d="M26.3875 62.5993C26.3875 62.5993 26.3274 62.5993 26.3073 62.5993C26.2873 62.5993 26.2472 62.5792 26.2271 62.5391L17.4246 53.7366C17.4246 53.7366 17.3845 53.6965 17.3645 53.6564C17.3645 53.6363 17.3645 53.5962 17.3645 53.5762V50.2878L0.0601535 32.9835C0.0601535 32.9835 0 32.8832 0 32.823V26.0858C0 26.0858 0.0200508 25.9655 0.0601535 25.9254C0.100256 25.8853 0.16041 25.8652 0.220564 25.8652C0.280718 25.8652 0.340872 25.8853 0.380974 25.9254C0.421077 25.9655 0.441129 26.0256 0.441129 26.0858V32.7228L17.7454 50.0271C17.7454 50.0271 17.8056 50.1273 17.8056 50.1875V53.4759L26.5279 62.1982C26.5279 62.1982 26.5881 62.2784 26.5881 62.3185C26.5881 62.3587 26.5881 62.4188 26.5881 62.4589C26.5881 62.499 26.548 62.5391 26.5079 62.5592C26.4678 62.5792 26.4277 62.5993 26.3875 62.5993Z" fill="white"/>
<path d="M72.3459 16.8628H55.8838L42.5497 30.1969L35.0705 22.7178L23.8618 33.9265L31.0001 41.0647V61.076L37.5569 67.6328L48.5049 56.6847H36.7749V43.5311H48.3645V31.9414H61.5383V43.6714L72.3459 32.8638V16.8628Z" fill="#00FFFF"/>
</svg>
