<svg width="88" height="85" viewBox="0 0 88 85" fill="none" xmlns="http://www.w3.org/2000/svg">
<g clip-path="url(#clip0_31170_687)">
<mask id="mask0_31170_687" style="mask-type:luminance" maskUnits="userSpaceOnUse" x="0" y="0" width="88" height="76">
<path d="M88 0H0V76H88V0Z" fill="white"/>
</mask>
<g mask="url(#mask0_31170_687)">
<path d="M35.8309 26.3499V40.4499H32.8909L25.1709 31.8899V40.4499H21.6309V26.3499H24.6009L32.2909 34.9099V26.3499H35.8309Z" fill="#00FFFF"/>
<path d="M43.5204 28.9599V32.6899H50.6904V35.3199H43.5204V40.4699H39.9404V26.3699H51.6404V28.9999H43.5304V28.9699L43.5204 28.9599Z" fill="#00FFFF"/>
<path d="M57.8204 29.0099H52.8604V26.3499H66.3403V29.0099H61.3804V40.4499H57.8004V29.0099H57.8204Z" fill="#00FFFF"/>
<path d="M65.6305 0.629883H22.3705L0.730469 37.9999L22.3705 75.3699H65.6405L87.2805 37.9999L65.6305 0.629883Z" stroke="#00FFFF" stroke-miterlimit="10"/>
<path d="M46.6904 69.8499H62.4404L80.8804 37.9999L62.4404 6.15991H51.8204" stroke="#00FFFF" stroke-miterlimit="10" stroke-linecap="square"/>
<path d="M42.2609 6.15991H25.5709L7.13086 37.9999L25.5709 69.8499H37.1209" stroke="#00FFFF" stroke-miterlimit="10" stroke-linecap="square"/>
<path d="M47.0101 0.629883V11.1099L44.3301 13.7999V19.1999" stroke="#00FFFF" stroke-miterlimit="10" stroke-linecap="square"/>
<path d="M44.3205 22.29C45.1705 22.29 45.8705 21.6 45.8705 20.75C45.8705 19.9 45.1805 19.21 44.3205 19.21C43.4605 19.21 42.7705 19.9 42.7705 20.75C42.7705 21.6 43.4605 22.29 44.3205 22.29Z" stroke="#00FFFF" stroke-miterlimit="10"/>
<path d="M42.26 6.15991V8.68991L37.54 14.2499" stroke="#00FFFF" stroke-miterlimit="10" stroke-linecap="square"/>
<path d="M35.9904 17.8798C36.8404 17.8798 37.5404 17.1898 37.5404 16.3398C37.5404 15.4898 36.8504 14.7998 35.9904 14.7998C35.1304 14.7998 34.4404 15.4898 34.4404 16.3398C34.4404 17.1898 35.1304 17.8798 35.9904 17.8798Z" stroke="#00FFFF" stroke-miterlimit="10"/>
<path d="M51.8205 17.8798C52.6705 17.8798 53.3705 17.1898 53.3705 16.3398C53.3705 15.4898 52.6805 14.7998 51.8205 14.7998C50.9605 14.7998 50.2705 15.4898 50.2705 16.3398C50.2705 17.1898 50.9605 17.8798 51.8205 17.8798Z" stroke="#00FFFF" stroke-miterlimit="10"/>
<path d="M51.8203 6.15991V14.3699" stroke="#00FFFF" stroke-miterlimit="10" stroke-linecap="square"/>
<path d="M41.9404 75.1498V64.6698L44.6204 61.9798V56.5798" stroke="#00FFFF" stroke-miterlimit="10" stroke-linecap="square"/>
<path d="M44.6203 56.58C45.4703 56.58 46.1703 55.89 46.1703 55.04C46.1703 54.19 45.4803 53.5 44.6203 53.5C43.7603 53.5 43.0703 54.19 43.0703 55.04C43.0703 55.89 43.7603 56.58 44.6203 56.58Z" stroke="#00FFFF" stroke-miterlimit="10"/>
<path d="M46.6904 69.6198V67.0998L51.4104 61.5398" stroke="#00FFFF" stroke-miterlimit="10" stroke-linecap="square"/>
<path d="M52.9602 60.9799C53.8102 60.9799 54.5102 60.2899 54.5102 59.4399C54.5102 58.5899 53.8202 57.8999 52.9602 57.8999C52.1002 57.8999 51.4102 58.5899 51.4102 59.4399C51.4102 60.2899 52.1002 60.9799 52.9602 60.9799Z" stroke="#00FFFF" stroke-miterlimit="10"/>
<path d="M37.1301 60.9799C37.9801 60.9799 38.6801 60.2899 38.6801 59.4399C38.6801 58.5899 37.9901 57.8999 37.1301 57.8999C36.2701 57.8999 35.5801 58.5899 35.5801 59.4399C35.5801 60.2899 36.2701 60.9799 37.1301 60.9799Z" stroke="#00FFFF" stroke-miterlimit="10"/>
<path d="M37.1309 69.6299V61.4299" stroke="#00FFFF" stroke-miterlimit="10" stroke-linecap="square"/>
</g>
<path d="M21.6201 43.1099H23.2401V46.2699H26.0101V43.1099H27.6301V50.8499H26.0101V47.6699H23.2401V50.8499H21.6201V43.1099Z" fill="#00FFFF"/>
<path d="M29.3896 43.1099H34.8097V44.4999H31.0096V46.2699H34.6696V47.6599H31.0096V49.4499H34.9596V50.8399H29.3896V43.0999V43.1099Z" fill="#00FFFF"/>
<path d="M42.5503 50.8499H40.9303V48.5299C40.9303 48.3499 40.8803 48.2099 40.7803 48.0999C40.6803 47.9899 40.5103 47.9299 40.2703 47.9299H38.4003V50.8499H36.7803V43.1099H40.0703C40.5103 43.1099 40.9003 43.1699 41.2403 43.2799C41.5703 43.3899 41.8603 43.5399 42.0803 43.7399C42.3103 43.9399 42.4803 44.1599 42.6003 44.4199C42.7203 44.6799 42.7803 44.9499 42.7803 45.2499V45.5199C42.7803 45.8399 42.6903 46.1299 42.5003 46.4099C42.3103 46.6899 42.0203 46.8999 41.6303 47.0499V47.2499C41.9203 47.2799 42.1403 47.3799 42.3103 47.5499C42.4803 47.7199 42.5603 47.9299 42.5603 48.1899V50.8699L42.5503 50.8499ZM38.4003 46.5399H39.9503C40.3403 46.5399 40.6403 46.4599 40.8503 46.2899C41.0503 46.1199 41.1603 45.8899 41.1603 45.5899V45.4599C41.1603 45.1999 41.0603 44.9799 40.8503 44.7899C40.6403 44.5999 40.3503 44.5099 39.9503 44.5099H38.4003V46.5399Z" fill="#00FFFF"/>
<path d="M43.9902 46.12C43.9902 45.12 44.2702 44.34 44.8302 43.79C45.3902 43.24 46.1702 42.96 47.1502 42.96C48.1302 42.96 48.9102 43.24 49.4802 43.79C50.0402 44.34 50.3202 45.12 50.3202 46.12V47.85C50.3202 48.88 50.0402 49.67 49.4802 50.21C48.9202 50.75 48.1402 51.02 47.1502 51.02C46.1602 51.02 45.3902 50.75 44.8302 50.21C44.2702 49.67 43.9902 48.89 43.9902 47.85V46.12ZM47.1602 49.68C47.4502 49.68 47.7002 49.64 47.9002 49.55C48.1002 49.47 48.2602 49.35 48.3802 49.19C48.5002 49.03 48.5902 48.85 48.6402 48.64C48.6902 48.43 48.7102 48.19 48.7102 47.93V46.03C48.7102 45.79 48.6802 45.56 48.6202 45.35C48.5602 45.14 48.4702 44.95 48.3502 44.8C48.2302 44.65 48.0702 44.52 47.8702 44.43C47.6702 44.34 47.4402 44.29 47.1602 44.29C46.8802 44.29 46.6402 44.34 46.4502 44.43C46.2502 44.52 46.0902 44.65 45.9702 44.8C45.8502 44.95 45.7602 45.14 45.7002 45.35C45.6402 45.56 45.6102 45.79 45.6102 46.03V47.93C45.6102 48.19 45.6302 48.42 45.6802 48.64C45.7302 48.85 45.8102 49.04 45.9402 49.19C46.0602 49.34 46.2202 49.46 46.4202 49.55C46.6202 49.63 46.8602 49.68 47.1602 49.68Z" fill="#00FFFF"/>
<path d="M51.9199 43.1099H57.3399V44.4999H53.5399V46.2699H57.1999V47.6599H53.5399V49.4499H57.4899V50.8399H51.9199V43.0999V43.1099Z" fill="#00FFFF"/>
<path d="M63.6501 45.48C63.6501 45.17 63.5201 44.9 63.2501 44.67C62.9801 44.44 62.6101 44.33 62.1301 44.33C61.7201 44.33 61.4001 44.41 61.1601 44.56C60.9201 44.71 60.8001 44.92 60.8001 45.17C60.8001 45.3 60.8301 45.42 60.8901 45.53C60.9501 45.64 61.0501 45.73 61.1901 45.82C61.3301 45.91 61.5201 45.98 61.7501 46.05C61.9801 46.12 62.2801 46.18 62.6401 46.24C63.5401 46.39 64.2301 46.63 64.7001 46.98C65.1701 47.33 65.4101 47.84 65.4101 48.52V48.65C65.4101 49.01 65.3401 49.34 65.2001 49.63C65.0601 49.92 64.8501 50.17 64.5801 50.38C64.3101 50.59 63.9801 50.75 63.6001 50.86C63.2101 50.97 62.7801 51.03 62.3001 51.03C61.7401 51.03 61.2401 50.96 60.8101 50.81C60.3801 50.67 60.0201 50.47 59.7401 50.21C59.4501 49.96 59.2401 49.66 59.0901 49.31C58.9401 48.97 58.8701 48.59 58.8701 48.19V47.86H60.4901V48.13C60.4901 48.59 60.6401 48.96 60.9401 49.24C61.2401 49.52 61.7001 49.65 62.3301 49.65C62.8201 49.65 63.1801 49.55 63.4201 49.36C63.6601 49.17 63.7801 48.94 63.7801 48.67C63.7801 48.54 63.7601 48.43 63.7101 48.31C63.6601 48.19 63.5801 48.09 63.4501 48C63.3301 47.91 63.1601 47.82 62.9501 47.75C62.7401 47.68 62.4701 47.61 62.1401 47.56C61.7101 47.49 61.3101 47.41 60.9501 47.3C60.5901 47.19 60.2801 47.05 60.0101 46.87C59.7401 46.69 59.5401 46.47 59.3901 46.21C59.2401 45.94 59.1701 45.62 59.1701 45.24V45.17C59.1701 44.85 59.2401 44.56 59.3801 44.29C59.5201 44.02 59.7201 43.79 59.9801 43.59C60.2401 43.39 60.5501 43.24 60.9101 43.13C61.2701 43.02 61.6801 42.96 62.1301 42.96C62.6401 42.96 63.0901 43.02 63.4801 43.15C63.8701 43.28 64.2001 43.45 64.4701 43.68C64.7401 43.91 64.9401 44.16 65.0701 44.44C65.2001 44.73 65.2701 45.03 65.2701 45.35V45.75H63.6501V45.48Z" fill="#00FFFF"/>
</g>
<path d="M64.8313 66H21.1687C13.8958 66 11 70.0897 11 75.1346V75.8654C11 80.9103 13.8958 85 21.1687 85H64.8313C72.1042 85 75 80.9103 75 75.8654V75.1346C75 70.0897 72.1042 66 64.8313 66Z" fill="#00FFFF"/>
<path d="M34.7754 77.74H35.4354V73.26H34.7754V72H37.8454C38.1788 72 38.4721 72.0467 38.7254 72.14C38.9854 72.2333 39.2021 72.36 39.3754 72.52C39.5554 72.68 39.6888 72.8733 39.7754 73.1C39.8688 73.32 39.9154 73.56 39.9154 73.82V73.94C39.9154 74.34 39.8021 74.66 39.5754 74.9C39.3554 75.14 39.0754 75.3067 38.7354 75.4V75.58C39.0754 75.6733 39.3554 75.8433 39.5754 76.09C39.8021 76.33 39.9154 76.65 39.9154 77.05V77.17C39.9154 77.43 39.8688 77.6733 39.7754 77.9C39.6888 78.12 39.5554 78.3133 39.3754 78.48C39.2021 78.64 38.9854 78.7667 38.7254 78.86C38.4721 78.9533 38.1788 79 37.8454 79H34.7754V77.74ZM36.7554 77.74H37.7154C37.9954 77.74 38.2221 77.68 38.3954 77.56C38.5688 77.44 38.6554 77.24 38.6554 76.96V76.9C38.6554 76.62 38.5688 76.42 38.3954 76.3C38.2221 76.18 37.9954 76.12 37.7154 76.12H36.7554V77.74ZM36.7554 74.86H37.7154C37.9954 74.86 38.2221 74.8033 38.3954 74.69C38.5688 74.57 38.6554 74.37 38.6554 74.09V74.03C38.6554 73.75 38.5688 73.5533 38.3954 73.44C38.2221 73.32 37.9954 73.26 37.7154 73.26H36.7554V74.86ZM44.6985 74.14C44.6985 73.86 44.5885 73.6167 44.3685 73.41C44.1551 73.2033 43.8518 73.1 43.4585 73.1C43.1251 73.1 42.8618 73.17 42.6685 73.31C42.4751 73.4433 42.3785 73.6267 42.3785 73.86C42.3785 73.98 42.4018 74.09 42.4485 74.19C42.4951 74.2833 42.5751 74.37 42.6885 74.45C42.8085 74.5233 42.9618 74.59 43.1485 74.65C43.3418 74.71 43.5851 74.7667 43.8785 74.82C44.6118 74.9533 45.1718 75.1767 45.5585 75.49C45.9451 75.8033 46.1385 76.2667 46.1385 76.88V77C46.1385 77.3267 46.0785 77.6233 45.9585 77.89C45.8451 78.15 45.6785 78.3733 45.4585 78.56C45.2385 78.7467 44.9718 78.89 44.6585 78.99C44.3451 79.09 43.9918 79.14 43.5985 79.14C43.1385 79.14 42.7318 79.0767 42.3785 78.95C42.0318 78.8167 41.7418 78.6367 41.5085 78.41C41.2751 78.1767 41.0985 77.9067 40.9785 77.6C40.8585 77.2867 40.7985 76.9467 40.7985 76.58V76.28H42.1185V76.52C42.1185 76.94 42.2385 77.2767 42.4785 77.53C42.7251 77.7767 43.1051 77.9 43.6185 77.9C44.0185 77.9 44.3151 77.8133 44.5085 77.64C44.7018 77.4667 44.7985 77.26 44.7985 77.02C44.7985 76.9067 44.7785 76.8 44.7385 76.7C44.6985 76.5933 44.6285 76.5 44.5285 76.42C44.4285 76.3333 44.2918 76.2567 44.1185 76.19C43.9451 76.1233 43.7251 76.0667 43.4585 76.02C43.1051 75.96 42.7818 75.8833 42.4885 75.79C42.1951 75.69 41.9385 75.56 41.7185 75.4C41.5051 75.24 41.3385 75.04 41.2185 74.8C41.0985 74.56 41.0385 74.2667 41.0385 73.92V73.86C41.0385 73.5733 41.0951 73.31 41.2085 73.07C41.3285 72.8233 41.4918 72.61 41.6985 72.43C41.9118 72.25 42.1651 72.11 42.4585 72.01C42.7585 71.91 43.0918 71.86 43.4585 71.86C43.8718 71.86 44.2385 71.92 44.5585 72.04C44.8785 72.1533 45.1451 72.31 45.3585 72.51C45.5785 72.71 45.7418 72.94 45.8485 73.2C45.9618 73.46 46.0185 73.7333 46.0185 74.02V74.38H44.6985V74.14ZM49.6415 77.94C49.8949 77.94 50.1015 77.9033 50.2615 77.83C50.4282 77.75 50.5549 77.6467 50.6415 77.52C50.7349 77.3867 50.7982 77.2367 50.8315 77.07C50.8649 76.8967 50.8815 76.72 50.8815 76.54V76.36H52.2015V76.54C52.2015 77.3733 51.9815 78.0167 51.5415 78.47C51.1082 78.9167 50.4749 79.14 49.6415 79.14C48.8415 79.14 48.2082 78.8967 47.7415 78.41C47.2749 77.9233 47.0415 77.2133 47.0415 76.28V74.72C47.0415 74.2733 47.1015 73.8733 47.2215 73.52C47.3415 73.16 47.5149 72.86 47.7415 72.62C47.9682 72.3733 48.2415 72.1867 48.5615 72.06C48.8815 71.9267 49.2415 71.86 49.6415 71.86C50.0549 71.86 50.4215 71.92 50.7415 72.04C51.0615 72.16 51.3282 72.3333 51.5415 72.56C51.7615 72.7867 51.9249 73.06 52.0315 73.38C52.1449 73.7 52.2015 74.06 52.2015 74.46V74.64H50.8815V74.46C50.8815 74.2933 50.8615 74.1267 50.8215 73.96C50.7815 73.7933 50.7149 73.6433 50.6215 73.51C50.5282 73.3767 50.4015 73.27 50.2415 73.19C50.0815 73.1033 49.8815 73.06 49.6415 73.06C49.4215 73.06 49.2315 73.1033 49.0715 73.19C48.9115 73.27 48.7782 73.3833 48.6715 73.53C48.5649 73.67 48.4849 73.8367 48.4315 74.03C48.3849 74.2167 48.3615 74.4133 48.3615 74.62V76.38C48.3615 76.6067 48.3849 76.8167 48.4315 77.01C48.4782 77.1967 48.5515 77.36 48.6515 77.5C48.7515 77.64 48.8815 77.75 49.0415 77.83C49.2082 77.9033 49.4082 77.94 49.6415 77.94Z" fill="#0D1238"/>
<defs>
<clipPath id="clip0_31170_687">
<rect width="88" height="76" fill="white"/>
</clipPath>
</defs>
</svg>
