<?xml version="1.0" encoding="UTF-8" standalone="no"?>
<svg
   width="79"
   height="36"
   viewBox="0 0 79 36"
   fill="none"
   version="1.1"
   id="svg10"
   xmlns="http://www.w3.org/2000/svg"
   xmlns:svg="http://www.w3.org/2000/svg">
  <defs
     id="defs14" />
  <path
     d="M 28.8463,31.3762 H 28.5608 L 28.4157,31.6221 26.9535,34.1 H 10.7839 L 0.623664,17.0695 16.3649,0.5 h 61.7223 v 21.7975 l -8.7989,9.0787 z"
     stroke="#00ffff"
     id="path4" />
  <path
     d="m 22.9221,11.117 h 7.633 c 0.6574,0 1.0484,0.3343 1.173,1.003 l -0.748,3.57 -1.921,1.258 1.445,0.969 -1.088,5.083 h -5.474 l 0.561,-2.652 h 2.55 l 0.408,-1.87 -2.924,-1.224 -1.207,5.661 -3.298,1.785 z m 2.363,2.635 -0.595,2.805 3.502,-1.547 0.272,-1.258 z m 7.4114,-2.635 h 8.143 c 0.6573,0.1927 0.884,0.6857 0.68,1.479 L 39.3095,23 h -2.992 l 1.156,-5.457 -3.485,1.598 -1.173,5.525 -2.635,-1.7 1.105,-5.219 6.851,-3.315 0.17,-0.833 h -3.145 l -0.425,1.972 -3.332,1.632 z M 42.4056,11.1 h 7.939 c 0.68,0 0.9973,0.527 0.952,1.581 l -0.714,3.298 h -3.077 l 0.459,-2.159 h -3.196 l -1.394,6.596 h 4.488 l -2.89,2.72 h -3.961 c -0.646,0 -0.9293,-0.476 -0.85,-1.428 z m 19.0421,-1.02 -1.207,5.678 -2.618,1.343 2.142,1.649 -0.901,4.182 h -3.502 l 0.748,-3.519 -2.142,-1.615 -1.02,4.862 -3.536,1.496 2.482,-11.645 3.519,-1.479 -1.139,5.406 2.89,-1.343 0.731,-3.383 z"
     fill="#00ffff"
     id="path6" />
  <path
     d="M 68.13709,34.244466 29.623418,33.844563"
     stroke="#ffffff"
     stroke-miterlimit="10"
     id="path8" />
</svg>
