<svg width="44" height="46" viewBox="0 0 44 46" fill="none" xmlns="http://www.w3.org/2000/svg">
<path d="M22.0543 42.3C33.4543 42.3 42.7043 33.06 42.7043 21.65C42.7043 10.24 33.4543 1 22.0543 1C10.6543 1 1.4043 10.24 1.4043 21.65C1.4043 33.06 10.6443 42.3 22.0543 42.3Z" stroke="#00FFFF" stroke-miterlimit="10"/>
<path d="M22.0538 40.02C32.2038 40.02 40.4338 31.79 40.4338 21.64C40.4338 11.49 32.2038 3.27002 22.0538 3.27002C11.9038 3.27002 3.67383 11.5 3.67383 21.65C3.67383 31.8 11.9038 40.03 22.0538 40.03V40.02Z" stroke="#00FFFF" stroke-miterlimit="10"/>
<path d="M14.1448 29.73V21.6C14.1448 21.42 14.2348 21.26 14.3948 21.17C14.5448 21.08 14.7348 21.08 14.8948 21.17L21.6248 24.99V21.92L11.3848 16V28.18L14.1548 29.73H14.1448Z" fill="#00FFFF"/>
<path d="M25.3147 23.4598V20.3398L22.6147 21.9198V24.9898L25.3147 23.4598Z" fill="#00FFFF"/>
<path d="M11.875 15.1398L22.115 21.0598L24.825 19.4698L14.655 13.5698L11.875 15.1398Z" fill="#00FFFF"/>
<path d="M17.8545 28.19V24.01L15.1445 22.46V29.73L17.8545 28.19Z" fill="#00FFFF"/>
<path d="M29.0649 29.74V17.6L26.3149 16.02V28.18L29.0649 29.74Z" fill="#00FFFF"/>
<path d="M32.7349 28.2V16L30.0649 17.6V29.74L32.7349 28.2Z" fill="#00FFFF"/>
<path d="M29.5549 16.7298L32.2449 15.1298L29.5149 13.5498L26.8149 15.1398L29.5549 16.7298Z" fill="#00FFFF"/>
<path d="M35.7043 35H9.4043C6.64287 35 4.4043 37.2386 4.4043 40V40.4C4.4043 43.1614 6.64287 45.4 9.4043 45.4H35.7043C38.4657 45.4 40.7043 43.1614 40.7043 40.4V40C40.7043 37.2386 38.4657 35 35.7043 35Z" fill="#00FFFF"/>
<path d="M9.33083 40.152V42H8.40683V37.1H10.3248C10.5768 37.1 10.7962 37.142 10.9828 37.226C11.1695 37.3053 11.3235 37.4127 11.4448 37.548C11.5708 37.6787 11.6642 37.8303 11.7248 38.003C11.7902 38.171 11.8228 38.3437 11.8228 38.521V38.689C11.8228 38.871 11.7902 39.0507 11.7248 39.228C11.6642 39.4007 11.5708 39.557 11.4448 39.697C11.3235 39.8323 11.1695 39.942 10.9828 40.026C10.7962 40.11 10.5768 40.152 10.3248 40.152H9.33083ZM9.33083 39.27H10.2338C10.4392 39.27 10.6002 39.214 10.7168 39.102C10.8382 38.99 10.8988 38.8453 10.8988 38.668V38.584C10.8988 38.4067 10.8382 38.262 10.7168 38.15C10.6002 38.038 10.4392 37.982 10.2338 37.982H9.33083V39.27ZM16.137 40.306C16.137 40.5953 16.088 40.852 15.99 41.076C15.892 41.2953 15.759 41.482 15.591 41.636C15.423 41.7853 15.2293 41.8997 15.01 41.979C14.7953 42.0583 14.569 42.098 14.331 42.098C14.093 42.098 13.8643 42.0583 13.645 41.979C13.4303 41.8997 13.239 41.7853 13.071 41.636C12.903 41.482 12.77 41.2953 12.672 41.076C12.574 40.852 12.525 40.5953 12.525 40.306V40.222C12.525 39.9373 12.574 39.6853 12.672 39.466C12.77 39.242 12.903 39.053 13.071 38.899C13.239 38.745 13.4303 38.6283 13.645 38.549C13.8643 38.4697 14.093 38.43 14.331 38.43C14.569 38.43 14.7953 38.4697 15.01 38.549C15.2293 38.6283 15.423 38.745 15.591 38.899C15.759 39.053 15.892 39.242 15.99 39.466C16.088 39.6853 16.137 39.9373 16.137 40.222V40.306ZM14.331 41.258C14.457 41.258 14.576 41.237 14.688 41.195C14.8 41.153 14.898 41.0923 14.982 41.013C15.066 40.9337 15.1313 40.838 15.178 40.726C15.2293 40.6093 15.255 40.4787 15.255 40.334V40.194C15.255 40.0493 15.2293 39.921 15.178 39.809C15.1313 39.6923 15.066 39.5943 14.982 39.515C14.898 39.4357 14.8 39.375 14.688 39.333C14.576 39.291 14.457 39.27 14.331 39.27C14.205 39.27 14.086 39.291 13.974 39.333C13.862 39.375 13.764 39.4357 13.68 39.515C13.596 39.5943 13.5283 39.6923 13.477 39.809C13.4303 39.921 13.407 40.0493 13.407 40.194V40.334C13.407 40.4787 13.4303 40.6093 13.477 40.726C13.5283 40.838 13.596 40.9337 13.68 41.013C13.764 41.0923 13.862 41.153 13.974 41.195C14.086 41.237 14.205 41.258 14.331 41.258ZM17.0001 41.16H18.2181V37.94H17.0421V37.1H19.1001V41.16H20.2341V42H17.0001V41.16ZM23.6592 38.528H24.5412V42.854C24.5412 43.0127 24.4899 43.1433 24.3872 43.246C24.2892 43.3487 24.1609 43.4 24.0022 43.4H21.9372V42.56H23.4702C23.5962 42.56 23.6592 42.49 23.6592 42.35V41.496H23.5332C23.3792 41.8973 23.0479 42.098 22.5392 42.098C22.3666 42.098 22.2056 42.07 22.0562 42.014C21.9069 41.958 21.7762 41.8717 21.6642 41.755C21.5522 41.6383 21.4636 41.4937 21.3982 41.321C21.3376 41.1437 21.3072 40.936 21.3072 40.698V38.528H22.1892V40.516C22.1892 40.7633 22.2476 40.957 22.3642 41.097C22.4809 41.2323 22.6559 41.3 22.8892 41.3C23.1552 41.3 23.3489 41.216 23.4702 41.048C23.5962 40.8753 23.6592 40.642 23.6592 40.348V38.528ZM28.0714 41.496H27.9454C27.908 41.5753 27.8614 41.6523 27.8054 41.727C27.754 41.797 27.684 41.86 27.5954 41.916C27.5114 41.972 27.4087 42.0163 27.2874 42.049C27.1707 42.0817 27.0284 42.098 26.8604 42.098C26.6457 42.098 26.445 42.0607 26.2584 41.986C26.0764 41.9067 25.9154 41.7923 25.7754 41.643C25.64 41.489 25.5327 41.3023 25.4534 41.083C25.3787 40.8637 25.3414 40.6117 25.3414 40.327V40.201C25.3414 39.921 25.381 39.6713 25.4604 39.452C25.5444 39.2327 25.6564 39.0483 25.7964 38.899C25.941 38.745 26.1067 38.6283 26.2934 38.549C26.4847 38.4697 26.6854 38.43 26.8954 38.43C27.1754 38.43 27.397 38.4837 27.5604 38.591C27.7237 38.6937 27.852 38.8407 27.9454 39.032H28.0714V38.528H28.9534V42.854C28.9534 43.0127 28.902 43.1433 28.7994 43.246C28.7014 43.3487 28.573 43.4 28.4144 43.4H26.0764V42.56H27.8824C28.0084 42.56 28.0714 42.49 28.0714 42.35V41.496ZM27.1474 41.258C27.4227 41.258 27.6444 41.1717 27.8124 40.999C27.985 40.8217 28.0714 40.5907 28.0714 40.306V40.222C28.0714 39.9373 27.985 39.7087 27.8124 39.536C27.6444 39.3587 27.4227 39.27 27.1474 39.27C26.872 39.27 26.648 39.3563 26.4754 39.529C26.3074 39.697 26.2234 39.928 26.2234 40.222V40.306C26.2234 40.6 26.3074 40.8333 26.4754 41.006C26.648 41.174 26.872 41.258 27.1474 41.258ZM33.2815 40.306C33.2815 40.5953 33.2325 40.852 33.1345 41.076C33.0365 41.2953 32.9035 41.482 32.7355 41.636C32.5675 41.7853 32.3738 41.8997 32.1545 41.979C31.9398 42.0583 31.7135 42.098 31.4755 42.098C31.2375 42.098 31.0088 42.0583 30.7895 41.979C30.5748 41.8997 30.3835 41.7853 30.2155 41.636C30.0475 41.482 29.9145 41.2953 29.8165 41.076C29.7185 40.852 29.6695 40.5953 29.6695 40.306V40.222C29.6695 39.9373 29.7185 39.6853 29.8165 39.466C29.9145 39.242 30.0475 39.053 30.2155 38.899C30.3835 38.745 30.5748 38.6283 30.7895 38.549C31.0088 38.4697 31.2375 38.43 31.4755 38.43C31.7135 38.43 31.9398 38.4697 32.1545 38.549C32.3738 38.6283 32.5675 38.745 32.7355 38.899C32.9035 39.053 33.0365 39.242 33.1345 39.466C33.2325 39.6853 33.2815 39.9373 33.2815 40.222V40.306ZM31.4755 41.258C31.6015 41.258 31.7205 41.237 31.8325 41.195C31.9445 41.153 32.0425 41.0923 32.1265 41.013C32.2105 40.9337 32.2758 40.838 32.3225 40.726C32.3738 40.6093 32.3995 40.4787 32.3995 40.334V40.194C32.3995 40.0493 32.3738 39.921 32.3225 39.809C32.2758 39.6923 32.2105 39.5943 32.1265 39.515C32.0425 39.4357 31.9445 39.375 31.8325 39.333C31.7205 39.291 31.6015 39.27 31.4755 39.27C31.3495 39.27 31.2305 39.291 31.1185 39.333C31.0065 39.375 30.9085 39.4357 30.8245 39.515C30.7405 39.5943 30.6728 39.6923 30.6215 39.809C30.5748 39.921 30.5515 40.0493 30.5515 40.194V40.334C30.5515 40.4787 30.5748 40.6093 30.6215 40.726C30.6728 40.838 30.7405 40.9337 30.8245 41.013C30.9085 41.0923 31.0065 41.153 31.1185 41.195C31.2305 41.237 31.3495 41.258 31.4755 41.258ZM35.0476 42H34.1656V38.528H35.0476V39.046H35.1736C35.253 38.85 35.3813 38.6983 35.5586 38.591C35.736 38.4837 35.9436 38.43 36.1816 38.43C36.3496 38.43 36.506 38.458 36.6506 38.514C36.8 38.5653 36.9306 38.647 37.0426 38.759C37.1546 38.871 37.241 39.0133 37.3016 39.186C37.367 39.3587 37.3996 39.564 37.3996 39.802V42H36.5176V40.026C36.5176 39.7787 36.457 39.585 36.3356 39.445C36.219 39.3003 36.0486 39.228 35.8246 39.228C35.5633 39.228 35.3673 39.3167 35.2366 39.494C35.1106 39.6667 35.0476 39.9 35.0476 40.194V42Z" fill="#0D1238"/>
</svg>
