<svg width="82" height="96" viewBox="0 0 82 96" fill="none" xmlns="http://www.w3.org/2000/svg">
<path d="M41 90C63.0823 90 81 72.1017 81 50C81 27.8983 63.0823 10 41 10C18.9177 10 1 27.8983 1 50C1 72.1017 18.8983 90 41 90Z" stroke="#00FFFF" stroke-miterlimit="10"/>
<path d="M40.9994 85.5834C60.6604 85.5834 76.6023 69.6415 76.6023 49.9805C76.6023 30.3195 60.6604 14.397 40.9994 14.397C21.3384 14.397 5.39648 30.3389 5.39648 49.9999C5.39648 69.6609 21.3384 85.6028 40.9994 85.6028V85.5834Z" stroke="#00FFFF" stroke-miterlimit="10"/>
<path d="M25.6783 65.6513V49.9031C25.6783 49.5545 25.8526 49.2445 26.1625 49.0702C26.4531 48.8959 26.8211 48.8959 27.1311 49.0702L40.1674 56.4697V50.523L20.332 39.0557V62.6489L25.6976 65.6513H25.6783Z" fill="#00FFFF"/>
<path d="M47.316 53.506V47.4624L42.0859 50.5229V56.4697L47.316 53.506Z" fill="#00FFFF"/>
<path d="M21.2822 37.3898L41.1176 48.8571L46.367 45.7772L26.6672 34.3486L21.2822 37.3898Z" fill="#00FFFF"/>
<path d="M32.8637 62.6681V54.5713L27.6143 51.5688V65.6512L32.8637 62.6681Z" fill="#00FFFF"/>
<path d="M54.5779 65.6705V42.1548L49.251 39.0942V62.6487L54.5779 65.6705Z" fill="#00FFFF"/>
<path d="M61.6875 62.6876V39.0557L56.5156 42.1549V65.6707L61.6875 62.6876Z" fill="#00FFFF"/>
<path d="M55.5272 40.4694L60.7379 37.3701L55.4498 34.3096L50.2197 37.3895L55.5272 40.4694Z" fill="#00FFFF"/>
<path d="M67.2156 75.4937H15.7477C10.3437 75.4937 5.96289 79.7465 5.96289 84.9927V85.7527C5.96289 90.9988 10.3437 95.2517 15.7477 95.2517H67.2156C72.6196 95.2517 77.0004 90.9988 77.0004 85.7527V84.9927C77.0004 79.7465 72.6196 75.4937 67.2156 75.4937Z" fill="#00FFFF"/>
<path d="M22.7752 84.9538V87.5938H21.4552V80.5937H24.1952C24.5552 80.5937 24.8685 80.6537 25.1352 80.7737C25.4018 80.8871 25.6218 81.0404 25.7952 81.2337C25.9752 81.4204 26.1085 81.6371 26.1952 81.8837C26.2885 82.1237 26.3352 82.3704 26.3352 82.6237V82.8637C26.3352 83.1237 26.2885 83.3804 26.1952 83.6337C26.1085 83.8804 25.9752 84.1037 25.7952 84.3037C25.6218 84.4971 25.4018 84.6537 25.1352 84.7737C24.8685 84.8937 24.5552 84.9538 24.1952 84.9538H22.7752ZM22.7752 83.6937H24.0652C24.3585 83.6937 24.5885 83.6137 24.7552 83.4537C24.9285 83.2937 25.0152 83.0871 25.0152 82.8337V82.7137C25.0152 82.4604 24.9285 82.2537 24.7552 82.0937C24.5885 81.9337 24.3585 81.8537 24.0652 81.8537H22.7752V83.6937ZM32.4982 85.1737C32.4982 85.5871 32.4282 85.9537 32.2882 86.2738C32.1482 86.5871 31.9582 86.8537 31.7182 87.0737C31.4782 87.2871 31.2015 87.4504 30.8882 87.5637C30.5815 87.6771 30.2582 87.7338 29.9182 87.7338C29.5782 87.7338 29.2515 87.6771 28.9382 87.5637C28.6315 87.4504 28.3582 87.2871 28.1182 87.0737C27.8782 86.8537 27.6882 86.5871 27.5482 86.2738C27.4082 85.9537 27.3382 85.5871 27.3382 85.1737V85.0537C27.3382 84.6471 27.4082 84.2871 27.5482 83.9737C27.6882 83.6537 27.8782 83.3837 28.1182 83.1637C28.3582 82.9437 28.6315 82.7771 28.9382 82.6637C29.2515 82.5504 29.5782 82.4937 29.9182 82.4937C30.2582 82.4937 30.5815 82.5504 30.8882 82.6637C31.2015 82.7771 31.4782 82.9437 31.7182 83.1637C31.9582 83.3837 32.1482 83.6537 32.2882 83.9737C32.4282 84.2871 32.4982 84.6471 32.4982 85.0537V85.1737ZM29.9182 86.5337C30.0982 86.5337 30.2682 86.5037 30.4282 86.4437C30.5882 86.3837 30.7282 86.2971 30.8482 86.1837C30.9682 86.0704 31.0615 85.9337 31.1282 85.7737C31.2015 85.6071 31.2382 85.4204 31.2382 85.2137V85.0137C31.2382 84.8071 31.2015 84.6237 31.1282 84.4637C31.0615 84.2971 30.9682 84.1571 30.8482 84.0437C30.7282 83.9304 30.5882 83.8437 30.4282 83.7837C30.2682 83.7237 30.0982 83.6937 29.9182 83.6937C29.7382 83.6937 29.5682 83.7237 29.4082 83.7837C29.2482 83.8437 29.1082 83.9304 28.9882 84.0437C28.8682 84.1571 28.7715 84.2971 28.6982 84.4637C28.6315 84.6237 28.5982 84.8071 28.5982 85.0137V85.2137C28.5982 85.4204 28.6315 85.6071 28.6982 85.7737C28.7715 85.9337 28.8682 86.0704 28.9882 86.1837C29.1082 86.2971 29.2482 86.3837 29.4082 86.4437C29.5682 86.5037 29.7382 86.5337 29.9182 86.5337ZM33.7312 86.3937H35.4712V81.7937H33.7912V80.5937H36.7312V86.3937H38.3512V87.5938H33.7312V86.3937ZM43.2443 82.6337H44.5043V88.8138C44.5043 89.0404 44.431 89.2271 44.2843 89.3738C44.1443 89.5204 43.961 89.5938 43.7343 89.5938H40.7843V88.3938H42.9743C43.1543 88.3938 43.2443 88.2938 43.2443 88.0938V86.8737H43.0643C42.8443 87.4471 42.371 87.7338 41.6443 87.7338C41.3976 87.7338 41.1676 87.6938 40.9543 87.6138C40.741 87.5337 40.5543 87.4104 40.3943 87.2437C40.2343 87.0771 40.1076 86.8704 40.0143 86.6237C39.9276 86.3704 39.8843 86.0737 39.8843 85.7337V82.6337H41.1443V85.4737C41.1443 85.8271 41.2276 86.1037 41.3943 86.3037C41.561 86.4971 41.811 86.5937 42.1443 86.5937C42.5243 86.5937 42.801 86.4737 42.9743 86.2337C43.1543 85.9871 43.2443 85.6537 43.2443 85.2337V82.6337ZM49.5473 86.8737H49.3673C49.314 86.9871 49.2473 87.0971 49.1673 87.2037C49.094 87.3037 48.994 87.3937 48.8673 87.4737C48.7473 87.5537 48.6007 87.6171 48.4273 87.6638C48.2607 87.7104 48.0573 87.7338 47.8173 87.7338C47.5107 87.7338 47.224 87.6804 46.9573 87.5737C46.6973 87.4604 46.4673 87.2971 46.2673 87.0837C46.074 86.8637 45.9207 86.5971 45.8073 86.2837C45.7007 85.9704 45.6473 85.6104 45.6473 85.2037V85.0238C45.6473 84.6237 45.704 84.2671 45.8173 83.9537C45.9373 83.6404 46.0973 83.3771 46.2973 83.1637C46.504 82.9437 46.7407 82.7771 47.0073 82.6637C47.2807 82.5504 47.5673 82.4937 47.8673 82.4937C48.2673 82.4937 48.584 82.5704 48.8173 82.7237C49.0507 82.8704 49.234 83.0804 49.3673 83.3537H49.5473V82.6337H50.8073V88.8138C50.8073 89.0404 50.734 89.2271 50.5873 89.3738C50.4473 89.5204 50.264 89.5938 50.0373 89.5938H46.6973V88.3938H49.2773C49.4573 88.3938 49.5473 88.2938 49.5473 88.0938V86.8737ZM48.2273 86.5337C48.6207 86.5337 48.9373 86.4104 49.1773 86.1637C49.424 85.9104 49.5473 85.5804 49.5473 85.1737V85.0537C49.5473 84.6471 49.424 84.3204 49.1773 84.0737C48.9373 83.8204 48.6207 83.6937 48.2273 83.6937C47.834 83.6937 47.514 83.8171 47.2673 84.0637C47.0273 84.3037 46.9073 84.6337 46.9073 85.0537V85.1737C46.9073 85.5937 47.0273 85.9271 47.2673 86.1737C47.514 86.4137 47.834 86.5337 48.2273 86.5337ZM56.9904 85.1737C56.9904 85.5871 56.9204 85.9537 56.7804 86.2738C56.6404 86.5871 56.4504 86.8537 56.2104 87.0737C55.9704 87.2871 55.6937 87.4504 55.3804 87.5637C55.0737 87.6771 54.7504 87.7338 54.4104 87.7338C54.0704 87.7338 53.7437 87.6771 53.4304 87.5637C53.1237 87.4504 52.8504 87.2871 52.6104 87.0737C52.3704 86.8537 52.1804 86.5871 52.0404 86.2738C51.9004 85.9537 51.8304 85.5871 51.8304 85.1737V85.0537C51.8304 84.6471 51.9004 84.2871 52.0404 83.9737C52.1804 83.6537 52.3704 83.3837 52.6104 83.1637C52.8504 82.9437 53.1237 82.7771 53.4304 82.6637C53.7437 82.5504 54.0704 82.4937 54.4104 82.4937C54.7504 82.4937 55.0737 82.5504 55.3804 82.6637C55.6937 82.7771 55.9704 82.9437 56.2104 83.1637C56.4504 83.3837 56.6404 83.6537 56.7804 83.9737C56.9204 84.2871 56.9904 84.6471 56.9904 85.0537V85.1737ZM54.4104 86.5337C54.5904 86.5337 54.7604 86.5037 54.9204 86.4437C55.0804 86.3837 55.2204 86.2971 55.3404 86.1837C55.4604 86.0704 55.5537 85.9337 55.6204 85.7737C55.6937 85.6071 55.7304 85.4204 55.7304 85.2137V85.0137C55.7304 84.8071 55.6937 84.6237 55.6204 84.4637C55.5537 84.2971 55.4604 84.1571 55.3404 84.0437C55.2204 83.9304 55.0804 83.8437 54.9204 83.7837C54.7604 83.7237 54.5904 83.6937 54.4104 83.6937C54.2304 83.6937 54.0604 83.7237 53.9004 83.7837C53.7404 83.8437 53.6004 83.9304 53.4804 84.0437C53.3604 84.1571 53.2637 84.2971 53.1904 84.4637C53.1237 84.6237 53.0904 84.8071 53.0904 85.0137V85.2137C53.0904 85.4204 53.1237 85.6071 53.1904 85.7737C53.2637 85.9337 53.3604 86.0704 53.4804 86.1837C53.6004 86.2971 53.7404 86.3837 53.9004 86.4437C54.0604 86.5037 54.2304 86.5337 54.4104 86.5337ZM59.5134 87.5938H58.2534V82.6337H59.5134V83.3737H59.6934C59.8068 83.0937 59.9901 82.8771 60.2434 82.7237C60.4968 82.5704 60.7934 82.4937 61.1334 82.4937C61.3734 82.4937 61.5968 82.5337 61.8034 82.6137C62.0168 82.6871 62.2034 82.8037 62.3634 82.9637C62.5234 83.1237 62.6468 83.3271 62.7334 83.5737C62.8268 83.8204 62.8734 84.1137 62.8734 84.4537V87.5938H61.6134V84.7737C61.6134 84.4204 61.5268 84.1437 61.3534 83.9437C61.1868 83.7371 60.9434 83.6337 60.6234 83.6337C60.2501 83.6337 59.9701 83.7604 59.7834 84.0137C59.6034 84.2604 59.5134 84.5937 59.5134 85.0137V87.5938Z" fill="#0D1238"/>
<path d="M57.0621 0H24.3425C19.1828 0 15 4.18279 15 9.34252V10.0899C15 15.2497 19.1828 19.4324 24.3425 19.4324H57.0621C62.2219 19.4324 66.4047 15.2497 66.4047 10.0899V9.34252C66.4047 4.18279 62.2219 0 57.0621 0Z" fill="#00FFFF"/>
<path d="M21.8861 5.9H24.9021L25.4221 12.738V14.064H25.7341V12.738L26.2541 5.9H29.2701V15H27.7101V8.916L27.8661 6.836H27.5541L26.8781 15H24.3041L23.6021 6.836H23.2901L23.4461 8.916V15H21.8861V5.9ZM35.0851 13.05H31.9911L31.5491 15H29.7551L31.9261 5.9H35.1501L37.3211 15H35.5271L35.0851 13.05ZM32.3551 11.412H34.7081L33.6551 6.758H33.4211L32.3551 11.412ZM38.222 5.9H44.774V7.538H42.356V15H40.64V7.538H38.222V5.9ZM46.416 5.9H52.5V7.538H50.316V13.362H52.5V15H46.416V13.362H48.6V7.538H46.416V5.9ZM57.4439 13.622C57.7733 13.622 58.0419 13.5743 58.2499 13.479C58.4666 13.375 58.6313 13.2407 58.7439 13.076C58.8653 12.9027 58.9476 12.7077 58.9909 12.491C59.0343 12.2657 59.0559 12.036 59.0559 11.802V11.568H60.7719V11.802C60.7719 12.8853 60.4859 13.7217 59.9139 14.311C59.3506 14.8917 58.5273 15.182 57.4439 15.182C56.4039 15.182 55.5806 14.8657 54.9739 14.233C54.3673 13.6003 54.0639 12.6773 54.0639 11.464V9.436C54.0639 8.85533 54.1419 8.33533 54.2979 7.876C54.4539 7.408 54.6793 7.018 54.9739 6.706C55.2686 6.38533 55.6239 6.14267 56.0399 5.978C56.4559 5.80467 56.9239 5.718 57.4439 5.718C57.9813 5.718 58.4579 5.796 58.8739 5.952C59.2899 6.108 59.6366 6.33333 59.9139 6.628C60.1999 6.92267 60.4123 7.278 60.5509 7.694C60.6983 8.11 60.7719 8.578 60.7719 9.098V9.332H59.0559V9.098C59.0559 8.88133 59.0299 8.66467 58.9779 8.448C58.9259 8.23133 58.8393 8.03633 58.7179 7.863C58.5966 7.68967 58.4319 7.551 58.2239 7.447C58.0159 7.33433 57.7559 7.278 57.4439 7.278C57.1579 7.278 56.9109 7.33433 56.7029 7.447C56.4949 7.551 56.3216 7.69833 56.1829 7.889C56.0443 8.071 55.9403 8.28767 55.8709 8.539C55.8103 8.78167 55.7799 9.03733 55.7799 9.306V11.594C55.7799 11.8887 55.8103 12.1617 55.8709 12.413C55.9316 12.6557 56.0269 12.868 56.1569 13.05C56.2869 13.232 56.4559 13.375 56.6639 13.479C56.8806 13.5743 57.1406 13.622 57.4439 13.622Z" fill="#0D1238"/>
</svg>
