<svg width="88" height="85" viewBox="0 0 88 85" fill="none"
    xmlns="http://www.w3.org/2000/svg">
    <defs>
        <clipPath id="clip0_830_18524">
            <rect width="88" height="76" fill="white"/>
        </clipPath>
    </defs>
    <g clip-path="url(#clip0_830_18524)">
        <path d="M35.8311 26.3511V40.4555H32.8952L25.1764 31.8921V40.4555H21.6406V26.3511H24.6082L32.2953 34.9145V26.3511H35.8311Z" fill="#00FFFF"/>
        <path d="M43.5187 28.964V32.6948H50.685V35.3236H43.5187V40.4711H39.9355V26.3667H51.632V28.9955H43.5187V28.964Z" fill="#00FFFF"/>
        <path d="M57.8197 29.0114H52.8633V26.3511H66.3435V29.0114H61.387V40.4555H57.8039V29.0114H57.8197Z" fill="#00FFFF"/>
        <path d="M65.6335 0.629883H22.3675L0.726562 38.0002L22.3675 75.3706H65.6335L87.2744 38.0002L65.6335 0.629883Z" stroke="#00FFFF" stroke-miterlimit="10"/>
        <path d="M46.6914 69.8454H62.4446L80.8812 38.0003L62.4446 6.15527H51.8215" stroke="#00FFFF" stroke-miterlimit="10" stroke-linecap="square"/>
        <path d="M42.2558 6.15527H25.5714L7.13477 38.0003L25.5714 69.8454H37.1258" stroke="#00FFFF" stroke-miterlimit="10" stroke-linecap="square"/>
        <path d="M47.0076 0.629883V11.1137L44.3242 13.8055V19.2049" stroke="#00FFFF" stroke-miterlimit="10" stroke-linecap="square"/>
        <path d="M44.3242 22.2904C45.1786 22.2904 45.8712 21.5997 45.8712 20.7477C45.8712 19.8958 45.1786 19.2051 44.3242 19.2051C43.4699 19.2051 42.7773 19.8958 42.7773 20.7477C42.7773 21.5997 43.4699 22.2904 44.3242 22.2904Z" stroke="#00FFFF" stroke-miterlimit="10"/>
        <path d="M42.2558 6.15527V8.68966L37.5361 14.2464" stroke="#00FFFF" stroke-miterlimit="10" stroke-linecap="square"/>
        <path d="M35.9893 17.8827C36.8436 17.8827 37.5362 17.192 37.5362 16.34C37.5362 15.488 36.8436 14.7974 35.9893 14.7974C35.135 14.7974 34.4424 15.488 34.4424 16.34C34.4424 17.192 35.135 17.8827 35.9893 17.8827Z" stroke="#00FFFF" stroke-miterlimit="10"/>
        <path d="M51.8223 17.8827C52.6766 17.8827 53.3692 17.192 53.3692 16.34C53.3692 15.488 52.6766 14.7974 51.8223 14.7974C50.968 14.7974 50.2754 15.488 50.2754 16.34C50.2754 17.192 50.968 17.8827 51.8223 17.8827Z" stroke="#00FFFF" stroke-miterlimit="10"/>
        <path d="M51.8223 6.15527V14.3723" stroke="#00FFFF" stroke-miterlimit="10" stroke-linecap="square"/>
        <path d="M41.9404 75.1502V64.6663L44.6238 61.9745V56.5752" stroke="#00FFFF" stroke-miterlimit="10" stroke-linecap="square"/>
        <path d="M44.6241 56.5751C45.4784 56.5751 46.171 55.8844 46.171 55.0324C46.171 54.1804 45.4784 53.4897 44.6241 53.4897C43.7697 53.4897 43.0771 54.1804 43.0771 55.0324C43.0771 55.8844 43.7697 56.5751 44.6241 56.5751Z" stroke="#00FFFF" stroke-miterlimit="10"/>
        <path d="M46.6914 69.6247V67.1061L51.411 61.5493" stroke="#00FFFF" stroke-miterlimit="10" stroke-linecap="square"/>
        <path d="M52.958 60.9828C53.8124 60.9828 54.5049 60.2921 54.5049 59.4401C54.5049 58.5881 53.8124 57.8975 52.958 57.8975C52.1037 57.8975 51.4111 58.5881 51.4111 59.4401C51.4111 60.2921 52.1037 60.9828 52.958 60.9828Z" stroke="#00FFFF" stroke-miterlimit="10"/>
        <path d="M37.126 60.9828C37.9803 60.9828 38.6729 60.2921 38.6729 59.4401C38.6729 58.5881 37.9803 57.8975 37.126 57.8975C36.2717 57.8975 35.5791 58.5881 35.5791 59.4401C35.5791 60.2921 36.2717 60.9828 37.126 60.9828Z" stroke="#00FFFF" stroke-miterlimit="10"/>
        <path d="M37.126 69.6252V61.4238" stroke="#00FFFF" stroke-miterlimit="10" stroke-linecap="square"/>
        <path d="M25.2871 44.8004C25.2871 44.5328 25.1766 44.2966 24.9399 44.092C24.7031 43.8874 24.3874 43.7929 23.9612 43.7929C23.5982 43.7929 23.3298 43.8559 23.1246 43.9976C22.9194 44.1235 22.8089 44.3124 22.8089 44.5328C22.8089 44.643 22.8405 44.7531 22.8878 44.8476C22.9352 44.942 23.0299 45.0208 23.1562 45.0995C23.2825 45.1782 23.4403 45.2411 23.6455 45.3041C23.8507 45.3671 24.1033 45.4143 24.419 45.4615C25.1924 45.5874 25.7922 45.8078 26.2026 46.1069C26.6131 46.406 26.8183 46.8625 26.8183 47.4607V47.5709C26.8183 47.8857 26.7551 48.1691 26.6288 48.4367C26.5026 48.7043 26.3289 48.9089 26.0922 49.0978C25.8554 49.2867 25.5713 49.4126 25.2398 49.5228C24.9083 49.6173 24.5295 49.6645 24.1191 49.6645C23.6297 49.6645 23.2035 49.6015 22.8247 49.4756C22.4459 49.3497 22.146 49.1765 21.8934 48.9561C21.6409 48.7358 21.4514 48.4681 21.3252 48.1691C21.1989 47.87 21.1357 47.5394 21.1357 47.1773V46.8783H22.5406V47.1144C22.5406 47.5237 22.6669 47.8542 22.9352 48.0903C23.1878 48.3265 23.5982 48.4524 24.1506 48.4524C24.5768 48.4524 24.8925 48.3737 25.0977 48.2005C25.3029 48.0274 25.4134 47.8385 25.4134 47.6024C25.4134 47.4922 25.3976 47.382 25.3503 47.2875C25.3029 47.1931 25.2398 47.0986 25.1293 47.0199C25.0188 46.9412 24.8767 46.8625 24.6873 46.7995C24.4979 46.7366 24.2611 46.6736 23.9928 46.6421C23.6139 46.5792 23.2667 46.5162 22.9668 46.4217C22.6669 46.3273 22.3827 46.2014 22.146 46.044C21.9092 45.8865 21.7356 45.6976 21.6093 45.4615C21.483 45.2254 21.4199 44.942 21.4199 44.6115V44.5485C21.4199 44.2652 21.483 44.0133 21.6093 43.7772C21.7356 43.5411 21.9092 43.3364 22.1302 43.1633C22.3512 42.9901 22.6195 42.8484 22.9352 42.754C23.2509 42.6595 23.5982 42.6123 23.9928 42.6123C24.4348 42.6123 24.8294 42.6753 25.1609 42.7855C25.5081 42.8957 25.7922 43.0531 26.0132 43.242C26.25 43.4309 26.4236 43.667 26.5341 43.9188C26.6446 44.1707 26.7078 44.4383 26.7078 44.7217V45.068H25.3029V44.8319L25.2871 44.8004Z" fill="#00FFFF"/>
        <path d="M31.7902 48.0587H29.2646L28.9016 49.5069H27.4336L29.2173 42.7065H31.8533L33.637 49.5069H32.169L31.806 48.0587H31.7902ZM29.5488 46.8308H31.4745L30.6063 43.3519H30.4169L29.5488 46.8308Z" fill="#00FFFF"/>
        <path d="M34.0158 42.7227H36.4782L36.9044 47.8229V48.8146H37.157V47.8229L37.5831 42.7227H40.0456V49.523H38.767V44.9737L38.8933 43.4153H38.6407L38.0882 49.5072H35.9731L35.4048 43.4153H35.1523L35.2786 44.9737V49.523H34V42.7227H34.0158Z" fill="#00FFFF"/>
        <path d="M46.233 42.7227V47.1775C46.233 47.9488 46.012 48.5628 45.5543 49.0035C45.0965 49.4443 44.4336 49.6647 43.5496 49.6647C42.6657 49.6647 41.9869 49.4443 41.545 49.0035C41.0872 48.5628 40.8662 47.9488 40.8662 47.1775V42.7227H42.2711V47.1775C42.2711 47.571 42.3658 47.8859 42.5867 48.122C42.792 48.3424 43.1076 48.4683 43.5496 48.4683C43.9916 48.4683 44.3073 48.3581 44.5125 48.122C44.7177 47.9016 44.8282 47.5868 44.8282 47.1775V42.7227H46.233Z" fill="#00FFFF"/>
        <path d="M52.5944 49.5229H51.1896V47.4922C51.1896 47.3348 51.1422 47.2089 51.0633 47.1144C50.9686 47.02 50.8265 46.9727 50.6213 46.9727H49.0113V49.5386H47.6064V42.7383H50.4635C50.8423 42.7383 51.1896 42.7855 51.4737 42.88C51.7578 42.9744 52.0104 43.1161 52.1998 43.2892C52.3892 43.4624 52.5471 43.667 52.6418 43.8874C52.7365 44.1078 52.7996 44.3597 52.7996 44.6115V44.8476C52.7996 45.131 52.7207 45.3829 52.5629 45.6347C52.405 45.8708 52.1525 46.0597 51.8052 46.1857V46.3588C52.0577 46.3903 52.2472 46.469 52.3892 46.6264C52.5313 46.7681 52.6102 46.957 52.6102 47.1931V49.5386L52.5944 49.5229ZM48.9955 45.7292H50.3372C50.6845 45.7292 50.937 45.6505 51.1107 45.5088C51.2843 45.3671 51.379 45.1625 51.379 44.8949V44.7847C51.379 44.5643 51.2843 44.3597 51.1107 44.2022C50.937 44.0448 50.6687 43.9504 50.3372 43.9504H48.9955V45.7292Z" fill="#00FFFF"/>
        <path d="M57.8507 48.0587H55.3252L54.9621 49.5069H53.4941L55.2778 42.7065H57.9139L59.6975 49.5069H58.2296L57.8665 48.0587H57.8507ZM55.6093 46.8308H57.535L56.6669 43.3519H56.4775L55.6093 46.8308Z" fill="#00FFFF"/>
        <path d="M60.6133 42.7227H65.6013V43.9505H63.8176V48.2952H65.6013V49.523H60.6133V48.2952H62.397V43.9505H60.6133V42.7227Z" fill="#00FFFF"/>
    </g>
    <path d="M64.8313 66H21.1687C13.8958 66 11 70.0897 11 75.1346V75.8654C11 80.9103 13.8958 85 21.1687 85H64.8313C72.1042 85 75 80.9103 75 75.8654V75.1346C75 70.0897 72.1042 66 64.8313 66Z" fill="#00FFFF"/>
    <path d="M24.1093 76.36V79H22.7893V72H25.5293C25.8893 72 26.2027 72.06 26.4693 72.18C26.736 72.2933 26.956 72.4467 27.1293 72.64C27.3093 72.8267 27.4427 73.0433 27.5293 73.29C27.6227 73.53 27.6693 73.7767 27.6693 74.03V74.27C27.6693 74.53 27.6227 74.7867 27.5293 75.04C27.4427 75.2867 27.3093 75.51 27.1293 75.71C26.956 75.9033 26.736 76.06 26.4693 76.18C26.2027 76.3 25.8893 76.36 25.5293 76.36H24.1093ZM24.1093 75.1H25.3993C25.6927 75.1 25.9227 75.02 26.0893 74.86C26.2627 74.7 26.3493 74.4933 26.3493 74.24V74.12C26.3493 73.8667 26.2627 73.66 26.0893 73.5C25.9227 73.34 25.6927 73.26 25.3993 73.26H24.1093V75.1ZM33.8324 76.58C33.8324 76.9933 33.7624 77.36 33.6224 77.68C33.4824 77.9933 33.2924 78.26 33.0524 78.48C32.8124 78.6933 32.5357 78.8567 32.2224 78.97C31.9157 79.0833 31.5924 79.14 31.2524 79.14C30.9124 79.14 30.5857 79.0833 30.2724 78.97C29.9657 78.8567 29.6924 78.6933 29.4524 78.48C29.2124 78.26 29.0224 77.9933 28.8824 77.68C28.7424 77.36 28.6724 76.9933 28.6724 76.58V76.46C28.6724 76.0533 28.7424 75.6933 28.8824 75.38C29.0224 75.06 29.2124 74.79 29.4524 74.57C29.6924 74.35 29.9657 74.1833 30.2724 74.07C30.5857 73.9567 30.9124 73.9 31.2524 73.9C31.5924 73.9 31.9157 73.9567 32.2224 74.07C32.5357 74.1833 32.8124 74.35 33.0524 74.57C33.2924 74.79 33.4824 75.06 33.6224 75.38C33.7624 75.6933 33.8324 76.0533 33.8324 76.46V76.58ZM31.2524 77.94C31.4324 77.94 31.6024 77.91 31.7624 77.85C31.9224 77.79 32.0624 77.7033 32.1824 77.59C32.3024 77.4767 32.3957 77.34 32.4624 77.18C32.5357 77.0133 32.5724 76.8267 32.5724 76.62V76.42C32.5724 76.2133 32.5357 76.03 32.4624 75.87C32.3957 75.7033 32.3024 75.5633 32.1824 75.45C32.0624 75.3367 31.9224 75.25 31.7624 75.19C31.6024 75.13 31.4324 75.1 31.2524 75.1C31.0724 75.1 30.9024 75.13 30.7424 75.19C30.5824 75.25 30.4424 75.3367 30.3224 75.45C30.2024 75.5633 30.1057 75.7033 30.0324 75.87C29.9657 76.03 29.9324 76.2133 29.9324 76.42V76.62C29.9324 76.8267 29.9657 77.0133 30.0324 77.18C30.1057 77.34 30.2024 77.4767 30.3224 77.59C30.4424 77.7033 30.5824 77.79 30.7424 77.85C30.9024 77.91 31.0724 77.94 31.2524 77.94ZM35.0654 77.8H36.8054V73.2H35.1254V72H38.0654V77.8H39.6854V79H35.0654V77.8ZM44.5785 74.04H45.8385V80.22C45.8385 80.4467 45.7651 80.6333 45.6185 80.78C45.4785 80.9267 45.2951 81 45.0685 81H42.1185V79.8H44.3085C44.4885 79.8 44.5785 79.7 44.5785 79.5V78.28H44.3985C44.1785 78.8533 43.7051 79.14 42.9785 79.14C42.7318 79.14 42.5018 79.1 42.2885 79.02C42.0751 78.94 41.8885 78.8167 41.7285 78.65C41.5685 78.4833 41.4418 78.2767 41.3485 78.03C41.2618 77.7767 41.2185 77.48 41.2185 77.14V74.04H42.4785V76.88C42.4785 77.2333 42.5618 77.51 42.7285 77.71C42.8951 77.9033 43.1451 78 43.4785 78C43.8585 78 44.1351 77.88 44.3085 77.64C44.4885 77.3933 44.5785 77.06 44.5785 76.64V74.04ZM50.8815 78.28H50.7015C50.6482 78.3933 50.5815 78.5033 50.5015 78.61C50.4282 78.71 50.3282 78.8 50.2015 78.88C50.0815 78.96 49.9349 79.0233 49.7615 79.07C49.5949 79.1167 49.3915 79.14 49.1515 79.14C48.8449 79.14 48.5582 79.0867 48.2915 78.98C48.0315 78.8667 47.8015 78.7033 47.6015 78.49C47.4082 78.27 47.2549 78.0033 47.1415 77.69C47.0349 77.3767 46.9815 77.0167 46.9815 76.61V76.43C46.9815 76.03 47.0382 75.6733 47.1515 75.36C47.2715 75.0467 47.4315 74.7833 47.6315 74.57C47.8382 74.35 48.0749 74.1833 48.3415 74.07C48.6149 73.9567 48.9015 73.9 49.2015 73.9C49.6015 73.9 49.9182 73.9767 50.1515 74.13C50.3849 74.2767 50.5682 74.4867 50.7015 74.76H50.8815V74.04H52.1415V80.22C52.1415 80.4467 52.0682 80.6333 51.9215 80.78C51.7815 80.9267 51.5982 81 51.3715 81H48.0315V79.8H50.6115C50.7915 79.8 50.8815 79.7 50.8815 79.5V78.28ZM49.5615 77.94C49.9549 77.94 50.2715 77.8167 50.5115 77.57C50.7582 77.3167 50.8815 76.9867 50.8815 76.58V76.46C50.8815 76.0533 50.7582 75.7267 50.5115 75.48C50.2715 75.2267 49.9549 75.1 49.5615 75.1C49.1682 75.1 48.8482 75.2233 48.6015 75.47C48.3615 75.71 48.2415 76.04 48.2415 76.46V76.58C48.2415 77 48.3615 77.3333 48.6015 77.58C48.8482 77.82 49.1682 77.94 49.5615 77.94ZM58.3246 76.58C58.3246 76.9933 58.2546 77.36 58.1146 77.68C57.9746 77.9933 57.7846 78.26 57.5446 78.48C57.3046 78.6933 57.0279 78.8567 56.7146 78.97C56.4079 79.0833 56.0846 79.14 55.7446 79.14C55.4046 79.14 55.0779 79.0833 54.7646 78.97C54.4579 78.8567 54.1846 78.6933 53.9446 78.48C53.7046 78.26 53.5146 77.9933 53.3746 77.68C53.2346 77.36 53.1646 76.9933 53.1646 76.58V76.46C53.1646 76.0533 53.2346 75.6933 53.3746 75.38C53.5146 75.06 53.7046 74.79 53.9446 74.57C54.1846 74.35 54.4579 74.1833 54.7646 74.07C55.0779 73.9567 55.4046 73.9 55.7446 73.9C56.0846 73.9 56.4079 73.9567 56.7146 74.07C57.0279 74.1833 57.3046 74.35 57.5446 74.57C57.7846 74.79 57.9746 75.06 58.1146 75.38C58.2546 75.6933 58.3246 76.0533 58.3246 76.46V76.58ZM55.7446 77.94C55.9246 77.94 56.0946 77.91 56.2546 77.85C56.4146 77.79 56.5546 77.7033 56.6746 77.59C56.7946 77.4767 56.8879 77.34 56.9546 77.18C57.0279 77.0133 57.0646 76.8267 57.0646 76.62V76.42C57.0646 76.2133 57.0279 76.03 56.9546 75.87C56.8879 75.7033 56.7946 75.5633 56.6746 75.45C56.5546 75.3367 56.4146 75.25 56.2546 75.19C56.0946 75.13 55.9246 75.1 55.7446 75.1C55.5646 75.1 55.3946 75.13 55.2346 75.19C55.0746 75.25 54.9346 75.3367 54.8146 75.45C54.6946 75.5633 54.5979 75.7033 54.5246 75.87C54.4579 76.03 54.4246 76.2133 54.4246 76.42V76.62C54.4246 76.8267 54.4579 77.0133 54.5246 77.18C54.5979 77.34 54.6946 77.4767 54.8146 77.59C54.9346 77.7033 55.0746 77.79 55.2346 77.85C55.3946 77.91 55.5646 77.94 55.7446 77.94ZM60.8476 79H59.5876V74.04H60.8476V74.78H61.0276C61.141 74.5 61.3243 74.2833 61.5776 74.13C61.831 73.9767 62.1276 73.9 62.4676 73.9C62.7076 73.9 62.931 73.94 63.1376 74.02C63.351 74.0933 63.5376 74.21 63.6976 74.37C63.8576 74.53 63.981 74.7333 64.0676 74.98C64.161 75.2267 64.2076 75.52 64.2076 75.86V79H62.9476V76.18C62.9476 75.8267 62.861 75.55 62.6876 75.35C62.521 75.1433 62.2776 75.04 61.9576 75.04C61.5843 75.04 61.3043 75.1667 61.1176 75.42C60.9376 75.6667 60.8476 76 60.8476 76.42V79Z" fill="#0D1238"/>
</svg>
