<svg width="88" height="85" viewBox="0 0 88 85" fill="none" xmlns="http://www.w3.org/2000/svg">
<g clip-path="url(#clip0_0_1)">
<path d="M35.8311 26.3511V40.4555H32.8952L25.1764 31.8921V40.4555H21.6406V26.3511H24.6082L32.2953 34.9145V26.3511H35.8311Z" fill="#00FFFF"/>
<path d="M43.5187 28.964V32.6948H50.685V35.3236H43.5187V40.4711H39.9355V26.3667H51.632V28.9955H43.5187V28.964Z" fill="#00FFFF"/>
<path d="M57.8197 29.0114H52.8633V26.3511H66.3435V29.0114H61.387V40.4555H57.8039V29.0114H57.8197Z" fill="#00FFFF"/>
<path d="M65.6335 0.629883H22.3675L0.726562 38.0002L22.3675 75.3706H65.6335L87.2744 38.0002L65.6335 0.629883Z" stroke="#00FFFF" stroke-miterlimit="10"/>
<path d="M46.6914 69.8454H62.4446L80.8812 38.0003L62.4446 6.15527H51.8215" stroke="#00FFFF" stroke-miterlimit="10" stroke-linecap="square"/>
<path d="M42.2558 6.15527H25.5714L7.13477 38.0003L25.5714 69.8454H37.1258" stroke="#00FFFF" stroke-miterlimit="10" stroke-linecap="square"/>
<path d="M47.0076 0.629883V11.1137L44.3242 13.8055V19.2049" stroke="#00FFFF" stroke-miterlimit="10" stroke-linecap="square"/>
<path d="M44.3242 22.2904C45.1786 22.2904 45.8712 21.5997 45.8712 20.7477C45.8712 19.8958 45.1786 19.2051 44.3242 19.2051C43.4699 19.2051 42.7773 19.8958 42.7773 20.7477C42.7773 21.5997 43.4699 22.2904 44.3242 22.2904Z" stroke="#00FFFF" stroke-miterlimit="10"/>
<path d="M42.2558 6.15527V8.68966L37.5361 14.2464" stroke="#00FFFF" stroke-miterlimit="10" stroke-linecap="square"/>
<path d="M35.9893 17.8827C36.8436 17.8827 37.5362 17.192 37.5362 16.34C37.5362 15.488 36.8436 14.7974 35.9893 14.7974C35.135 14.7974 34.4424 15.488 34.4424 16.34C34.4424 17.192 35.135 17.8827 35.9893 17.8827Z" stroke="#00FFFF" stroke-miterlimit="10"/>
<path d="M51.8223 17.8827C52.6766 17.8827 53.3692 17.192 53.3692 16.34C53.3692 15.488 52.6766 14.7974 51.8223 14.7974C50.968 14.7974 50.2754 15.488 50.2754 16.34C50.2754 17.192 50.968 17.8827 51.8223 17.8827Z" stroke="#00FFFF" stroke-miterlimit="10"/>
<path d="M51.8223 6.15527V14.3723" stroke="#00FFFF" stroke-miterlimit="10" stroke-linecap="square"/>
<path d="M41.9404 75.1502V64.6663L44.6238 61.9745V56.5752" stroke="#00FFFF" stroke-miterlimit="10" stroke-linecap="square"/>
<path d="M44.6241 56.5751C45.4784 56.5751 46.171 55.8844 46.171 55.0324C46.171 54.1804 45.4784 53.4897 44.6241 53.4897C43.7697 53.4897 43.0771 54.1804 43.0771 55.0324C43.0771 55.8844 43.7697 56.5751 44.6241 56.5751Z" stroke="#00FFFF" stroke-miterlimit="10"/>
<path d="M46.6914 69.6247V67.1061L51.411 61.5493" stroke="#00FFFF" stroke-miterlimit="10" stroke-linecap="square"/>
<path d="M52.958 60.9828C53.8124 60.9828 54.5049 60.2921 54.5049 59.4401C54.5049 58.5881 53.8124 57.8975 52.958 57.8975C52.1037 57.8975 51.4111 58.5881 51.4111 59.4401C51.4111 60.2921 52.1037 60.9828 52.958 60.9828Z" stroke="#00FFFF" stroke-miterlimit="10"/>
<path d="M37.126 60.9828C37.9803 60.9828 38.6729 60.2921 38.6729 59.4401C38.6729 58.5881 37.9803 57.8975 37.126 57.8975C36.2717 57.8975 35.5791 58.5881 35.5791 59.4401C35.5791 60.2921 36.2717 60.9828 37.126 60.9828Z" stroke="#00FFFF" stroke-miterlimit="10"/>
<path d="M37.126 69.6252V61.4238" stroke="#00FFFF" stroke-miterlimit="10" stroke-linecap="square"/>
<path d="M25.2871 44.8004C25.2871 44.5328 25.1766 44.2966 24.9399 44.092C24.7031 43.8874 24.3874 43.7929 23.9612 43.7929C23.5982 43.7929 23.3298 43.8559 23.1246 43.9976C22.9194 44.1235 22.8089 44.3124 22.8089 44.5328C22.8089 44.643 22.8405 44.7531 22.8878 44.8476C22.9352 44.942 23.0299 45.0208 23.1562 45.0995C23.2825 45.1782 23.4403 45.2411 23.6455 45.3041C23.8507 45.3671 24.1033 45.4143 24.419 45.4615C25.1924 45.5874 25.7922 45.8078 26.2026 46.1069C26.6131 46.406 26.8183 46.8625 26.8183 47.4607V47.5709C26.8183 47.8857 26.7551 48.1691 26.6288 48.4367C26.5026 48.7043 26.3289 48.9089 26.0922 49.0978C25.8554 49.2867 25.5713 49.4126 25.2398 49.5228C24.9083 49.6173 24.5295 49.6645 24.1191 49.6645C23.6297 49.6645 23.2035 49.6015 22.8247 49.4756C22.4459 49.3497 22.146 49.1765 21.8934 48.9561C21.6409 48.7358 21.4514 48.4681 21.3252 48.1691C21.1989 47.87 21.1357 47.5394 21.1357 47.1773V46.8783H22.5406V47.1144C22.5406 47.5237 22.6669 47.8542 22.9352 48.0903C23.1878 48.3265 23.5982 48.4524 24.1506 48.4524C24.5768 48.4524 24.8925 48.3737 25.0977 48.2005C25.3029 48.0274 25.4134 47.8385 25.4134 47.6024C25.4134 47.4922 25.3976 47.382 25.3503 47.2875C25.3029 47.1931 25.2398 47.0986 25.1293 47.0199C25.0188 46.9412 24.8767 46.8625 24.6873 46.7995C24.4979 46.7366 24.2611 46.6736 23.9928 46.6421C23.6139 46.5792 23.2667 46.5162 22.9668 46.4217C22.6669 46.3273 22.3827 46.2014 22.146 46.044C21.9092 45.8865 21.7356 45.6976 21.6093 45.4615C21.483 45.2254 21.4199 44.942 21.4199 44.6115V44.5485C21.4199 44.2652 21.483 44.0133 21.6093 43.7772C21.7356 43.5411 21.9092 43.3364 22.1302 43.1633C22.3512 42.9901 22.6195 42.8484 22.9352 42.754C23.2509 42.6595 23.5982 42.6123 23.9928 42.6123C24.4348 42.6123 24.8294 42.6753 25.1609 42.7855C25.5081 42.8957 25.7922 43.0531 26.0132 43.242C26.25 43.4309 26.4236 43.667 26.5341 43.9188C26.6446 44.1707 26.7078 44.4383 26.7078 44.7217V45.068H25.3029V44.8319L25.2871 44.8004Z" fill="#00FFFF"/>
<path d="M31.7902 48.0587H29.2646L28.9016 49.5069H27.4336L29.2173 42.7065H31.8533L33.637 49.5069H32.169L31.806 48.0587H31.7902ZM29.5488 46.8308H31.4745L30.6063 43.3519H30.4169L29.5488 46.8308Z" fill="#00FFFF"/>
<path d="M34.0158 42.7227H36.4782L36.9044 47.8229V48.8146H37.157V47.8229L37.5831 42.7227H40.0456V49.523H38.767V44.9737L38.8933 43.4153H38.6407L38.0882 49.5072H35.9731L35.4048 43.4153H35.1523L35.2786 44.9737V49.523H34V42.7227H34.0158Z" fill="#00FFFF"/>
<path d="M46.233 42.7227V47.1775C46.233 47.9488 46.012 48.5628 45.5543 49.0035C45.0965 49.4443 44.4336 49.6647 43.5496 49.6647C42.6657 49.6647 41.9869 49.4443 41.545 49.0035C41.0872 48.5628 40.8662 47.9488 40.8662 47.1775V42.7227H42.2711V47.1775C42.2711 47.571 42.3658 47.8859 42.5867 48.122C42.792 48.3424 43.1076 48.4683 43.5496 48.4683C43.9916 48.4683 44.3073 48.3581 44.5125 48.122C44.7177 47.9016 44.8282 47.5868 44.8282 47.1775V42.7227H46.233Z" fill="#00FFFF"/>
<path d="M52.5944 49.5229H51.1896V47.4922C51.1896 47.3348 51.1422 47.2089 51.0633 47.1144C50.9686 47.02 50.8265 46.9727 50.6213 46.9727H49.0113V49.5386H47.6064V42.7383H50.4635C50.8423 42.7383 51.1896 42.7855 51.4737 42.88C51.7578 42.9744 52.0104 43.1161 52.1998 43.2892C52.3892 43.4624 52.5471 43.667 52.6418 43.8874C52.7365 44.1078 52.7996 44.3597 52.7996 44.6115V44.8476C52.7996 45.131 52.7207 45.3829 52.5629 45.6347C52.405 45.8708 52.1525 46.0597 51.8052 46.1857V46.3588C52.0577 46.3903 52.2472 46.469 52.3892 46.6264C52.5313 46.7681 52.6102 46.957 52.6102 47.1931V49.5386L52.5944 49.5229ZM48.9955 45.7292H50.3372C50.6845 45.7292 50.937 45.6505 51.1107 45.5088C51.2843 45.3671 51.379 45.1625 51.379 44.8949V44.7847C51.379 44.5643 51.2843 44.3597 51.1107 44.2022C50.937 44.0448 50.6687 43.9504 50.3372 43.9504H48.9955V45.7292Z" fill="#00FFFF"/>
<path d="M57.8507 48.0587H55.3252L54.9621 49.5069H53.4941L55.2778 42.7065H57.9139L59.6975 49.5069H58.2296L57.8665 48.0587H57.8507ZM55.6093 46.8308H57.535L56.6669 43.3519H56.4775L55.6093 46.8308Z" fill="#00FFFF"/>
<path d="M60.6133 42.7227H65.6013V43.9505H63.8176V48.2952H65.6013V49.523H60.6133V48.2952H62.397V43.9505H60.6133V42.7227Z" fill="#00FFFF"/>
</g>
<path d="M58.6912 66H27.3088C22.0814 66 20 70.0897 20 75.1346V75.8654C20 80.9103 22.0814 85 27.3088 85H58.6912C63.9186 85 66 80.9103 66 75.8654V75.1346C66 70.0897 63.9186 66 58.6912 66Z" fill="#00FFFF"/>
<path d="M34.6348 77.74H35.2948V73.26H34.6348V72H37.7048C38.0381 72 38.3315 72.0467 38.5848 72.14C38.8448 72.2333 39.0615 72.36 39.2348 72.52C39.4148 72.68 39.5481 72.8733 39.6348 73.1C39.7281 73.32 39.7748 73.56 39.7748 73.82V73.94C39.7748 74.34 39.6615 74.66 39.4348 74.9C39.2148 75.14 38.9348 75.3067 38.5948 75.4V75.58C38.9348 75.6733 39.2148 75.8433 39.4348 76.09C39.6615 76.33 39.7748 76.65 39.7748 77.05V77.17C39.7748 77.43 39.7281 77.6733 39.6348 77.9C39.5481 78.12 39.4148 78.3133 39.2348 78.48C39.0615 78.64 38.8448 78.7667 38.5848 78.86C38.3315 78.9533 38.0381 79 37.7048 79H34.6348V77.74ZM36.6148 77.74H37.5748C37.8548 77.74 38.0815 77.68 38.2548 77.56C38.4281 77.44 38.5148 77.24 38.5148 76.96V76.9C38.5148 76.62 38.4281 76.42 38.2548 76.3C38.0815 76.18 37.8548 76.12 37.5748 76.12H36.6148V77.74ZM36.6148 74.86H37.5748C37.8548 74.86 38.0815 74.8033 38.2548 74.69C38.4281 74.57 38.5148 74.37 38.5148 74.09V74.03C38.5148 73.75 38.4281 73.5533 38.2548 73.44C38.0815 73.32 37.8548 73.26 37.5748 73.26H36.6148V74.86ZM44.5579 74.14C44.5579 73.86 44.4479 73.6167 44.2279 73.41C44.0145 73.2033 43.7112 73.1 43.3179 73.1C42.9845 73.1 42.7212 73.17 42.5279 73.31C42.3345 73.4433 42.2379 73.6267 42.2379 73.86C42.2379 73.98 42.2612 74.09 42.3079 74.19C42.3545 74.2833 42.4345 74.37 42.5479 74.45C42.6679 74.5233 42.8212 74.59 43.0079 74.65C43.2012 74.71 43.4445 74.7667 43.7379 74.82C44.4712 74.9533 45.0312 75.1767 45.4179 75.49C45.8045 75.8033 45.9979 76.2667 45.9979 76.88V77C45.9979 77.3267 45.9379 77.6233 45.8179 77.89C45.7045 78.15 45.5379 78.3733 45.3179 78.56C45.0979 78.7467 44.8312 78.89 44.5179 78.99C44.2045 79.09 43.8512 79.14 43.4579 79.14C42.9979 79.14 42.5912 79.0767 42.2379 78.95C41.8912 78.8167 41.6012 78.6367 41.3679 78.41C41.1345 78.1767 40.9579 77.9067 40.8379 77.6C40.7179 77.2867 40.6579 76.9467 40.6579 76.58V76.28H41.9779V76.52C41.9779 76.94 42.0979 77.2767 42.3379 77.53C42.5845 77.7767 42.9645 77.9 43.4779 77.9C43.8779 77.9 44.1745 77.8133 44.3679 77.64C44.5612 77.4667 44.6579 77.26 44.6579 77.02C44.6579 76.9067 44.6379 76.8 44.5979 76.7C44.5579 76.5933 44.4879 76.5 44.3879 76.42C44.2879 76.3333 44.1512 76.2567 43.9779 76.19C43.8045 76.1233 43.5845 76.0667 43.3179 76.02C42.9645 75.96 42.6412 75.8833 42.3479 75.79C42.0545 75.69 41.7979 75.56 41.5779 75.4C41.3645 75.24 41.1979 75.04 41.0779 74.8C40.9579 74.56 40.8979 74.2667 40.8979 73.92V73.86C40.8979 73.5733 40.9545 73.31 41.0679 73.07C41.1879 72.8233 41.3512 72.61 41.5579 72.43C41.7712 72.25 42.0245 72.11 42.3179 72.01C42.6179 71.91 42.9512 71.86 43.3179 71.86C43.7312 71.86 44.0979 71.92 44.4179 72.04C44.7379 72.1533 45.0045 72.31 45.2179 72.51C45.4379 72.71 45.6012 72.94 45.7079 73.2C45.8212 73.46 45.8779 73.7333 45.8779 74.02V74.38H44.5579V74.14ZM49.5009 77.94C49.7542 77.94 49.9609 77.9033 50.1209 77.83C50.2876 77.75 50.4142 77.6467 50.5009 77.52C50.5942 77.3867 50.6576 77.2367 50.6909 77.07C50.7242 76.8967 50.7409 76.72 50.7409 76.54V76.36H52.0609V76.54C52.0609 77.3733 51.8409 78.0167 51.4009 78.47C50.9676 78.9167 50.3342 79.14 49.5009 79.14C48.7009 79.14 48.0676 78.8967 47.6009 78.41C47.1342 77.9233 46.9009 77.2133 46.9009 76.28V74.72C46.9009 74.2733 46.9609 73.8733 47.0809 73.52C47.2009 73.16 47.3742 72.86 47.6009 72.62C47.8276 72.3733 48.1009 72.1867 48.4209 72.06C48.7409 71.9267 49.1009 71.86 49.5009 71.86C49.9142 71.86 50.2809 71.92 50.6009 72.04C50.9209 72.16 51.1876 72.3333 51.4009 72.56C51.6209 72.7867 51.7842 73.06 51.8909 73.38C52.0042 73.7 52.0609 74.06 52.0609 74.46V74.64H50.7409V74.46C50.7409 74.2933 50.7209 74.1267 50.6809 73.96C50.6409 73.7933 50.5742 73.6433 50.4809 73.51C50.3876 73.3767 50.2609 73.27 50.1009 73.19C49.9409 73.1033 49.7409 73.06 49.5009 73.06C49.2809 73.06 49.0909 73.1033 48.9309 73.19C48.7709 73.27 48.6376 73.3833 48.5309 73.53C48.4242 73.67 48.3442 73.8367 48.2909 74.03C48.2442 74.2167 48.2209 74.4133 48.2209 74.62V76.38C48.2209 76.6067 48.2442 76.8167 48.2909 77.01C48.3376 77.1967 48.4109 77.36 48.5109 77.5C48.6109 77.64 48.7409 77.75 48.9009 77.83C49.0676 77.9033 49.2676 77.94 49.5009 77.94Z" fill="#0D1238"/>
<defs>
<clipPath id="clip0_0_1">
<rect width="88" height="76" fill="white"/>
</clipPath>
</defs>
</svg>
