<svg width="343" height="97" viewBox="0 0 343 97" fill="none"
    xmlns="http://www.w3.org/2000/svg">
    <defs>
        <filter id="filter0_d_0_1" x="18.5" y="79.478" width="253.013" height="16.5439" filterUnits="userSpaceOnUse" color-interpolation-filters="sRGB">
            <feFlood flood-opacity="0" result="BackgroundImageFix"/>
            <feColorMatrix in="SourceAlpha" type="matrix" values="0 0 0 0 0 0 0 0 0 0 0 0 0 0 0 0 0 0 127 0" result="hardAlpha"/>
            <feOffset/>
            <feGaussianBlur stdDeviation="2"/>
            <feComposite in2="hardAlpha" operator="out"/>
            <feColorMatrix type="matrix" values="0 0 0 0 1 0 0 0 0 1 0 0 0 0 1 0 0 0 0.7 0"/>
            <feBlend mode="normal" in2="BackgroundImageFix" result="effect1_dropShadow_0_1"/>
            <feBlend mode="normal" in="SourceGraphic" in2="effect1_dropShadow_0_1" result="shape"/>
        </filter>
        <filter id="filter1_d_0_1" x="0.0996094" y="8.47803" width="178.414" height="33.3569" filterUnits="userSpaceOnUse" color-interpolation-filters="sRGB">
            <feFlood flood-opacity="0" result="BackgroundImageFix"/>
            <feColorMatrix in="SourceAlpha" type="matrix" values="0 0 0 0 0 0 0 0 0 0 0 0 0 0 0 0 0 0 127 0" result="hardAlpha"/>
            <feOffset/>
            <feGaussianBlur stdDeviation="2"/>
            <feComposite in2="hardAlpha" operator="out"/>
            <feColorMatrix type="matrix" values="0 0 0 0 1 0 0 0 0 1 0 0 0 0 1 0 0 0 0.7 0"/>
            <feBlend mode="normal" in2="BackgroundImageFix" result="effect1_dropShadow_0_1"/>
            <feBlend mode="normal" in="SourceGraphic" in2="effect1_dropShadow_0_1" result="shape"/>
        </filter>
    </defs>
    <path fill-rule="evenodd" clip-rule="evenodd" d="M27.8717 21L3 50.6409V82H103.28L109.992 74.0003L110 74.0067V74H326.672L343 54.5407V15H240.021L235.073 20.8965L235 20.8354V21H27.8717Z" fill="#9E9E9E"/>
    <g filter="url(#filter0_d_0_1)">
        <path d="M267.513 84H115L109 91.5H22.5" stroke="white" stroke-width="1.0437" stroke-miterlimit="10" shape-rendering="crispEdges"/>
    </g>
    <g filter="url(#filter1_d_0_1)">
        <path d="M174.513 13H25L4.5 37.5" stroke="white" stroke-width="1.0437" stroke-miterlimit="10"/>
    </g>
    <path d="M125 96L129.5 91H190.5L186 96H125Z" fill="#FF0049"/>
    <path d="M274 5L278.5 0H339.5L335 5H274Z" fill="white"/>
    <path d="M223 96L227.5 91H238.5L234 96H223Z" fill="#FF0049"/>
    <path d="M240 96L244.5 91H255.5L251 96H240Z" fill="#FF0049"/>
</svg>
