<svg width="29" height="26" viewBox="0 0 29 26" fill="none"
    xmlns="http://www.w3.org/2000/svg">
    <path d="M6.28045 4.36003C6.561 3.52809 7.08293 2.806 7.77496 2.29235C8.467 1.77869 9.29541 1.4985 10.1471 1.49003H22.8684C23.4906 1.49093 24.1044 1.6373 24.6641 1.91818C25.2239 2.19907 25.715 2.6072 26.1008 3.11207C26.4866 3.61695 26.757 4.2055 26.892 4.83374C27.027 5.46198 27.0229 6.11364 26.8801 6.74003H28.3494C28.4909 5.91292 28.4552 5.06377 28.2447 4.2525C28.0343 3.44124 27.6544 2.68763 27.1317 2.04487C26.609 1.4021 25.9563 0.885844 25.2196 0.532521C24.483 0.179199 23.6804 -0.00257486 22.8684 2.75537e-05H10.1761C9.01928 -0.00122588 7.89089 0.370947 6.94825 1.06466C6.0056 1.75838 5.29568 2.73907 4.91745 3.87003L1.05078 15.33H2.58778L6.28045 4.36003Z" fill="#00FFFF"/>
    <path d="M25.8453 9.90967L22.1526 20.9097C21.8745 21.7432 21.3532 22.4669 20.6606 22.981C19.968 23.495 19.1383 23.7741 18.2859 23.7797H5.56459C4.93937 23.7798 4.32229 23.6331 3.75992 23.3505C3.19754 23.0679 2.70458 22.6568 2.31822 22.1483C1.93187 21.6398 1.66223 21.0472 1.52966 20.4151C1.39708 19.783 1.40504 19.1281 1.55292 18.4997H0.0835867C-0.0446685 19.25 -0.0251584 20.0194 0.140947 20.7617C0.307053 21.504 0.616335 22.204 1.05025 22.8197C1.56292 23.572 2.24381 24.185 3.03489 24.6063C3.82598 25.0277 4.70381 25.245 5.59359 25.2397H18.2569C19.4138 25.2409 20.5421 24.8687 21.4848 24.175C22.4274 23.4813 23.1374 22.5006 23.5156 21.3697L27.3823 9.90967H25.8453Z" fill="#00FFFF"/>
</svg>
