<svg width="44" height="47" viewBox="0 0 44 47" fill="none" xmlns="http://www.w3.org/2000/svg">
<path d="M22.0548 41.0081C32.5224 41.0081 41.0081 32.5224 41.0081 22.0548C41.0081 11.5872 32.5224 3.10156 22.0548 3.10156C11.5872 3.10156 3.10156 11.5872 3.10156 22.0548C3.10156 32.5224 11.5872 41.0081 22.0548 41.0081Z" stroke="#00FFFF" stroke-miterlimit="10"/>
<path d="M22.0547 43.1094C33.6829 43.1094 43.1094 33.6829 43.1094 22.0547C43.1094 10.4265 33.6829 1 22.0547 1C10.4265 1 1 10.4265 1 22.0547C1 33.6829 10.4265 43.1094 22.0547 43.1094Z" stroke="#00FFFF" stroke-miterlimit="10"/>
<path d="M26.2848 17.8252H17.8252V26.2848H26.2848V17.8252Z" stroke="#00FFFF" stroke-miterlimit="10"/>
<path d="M21.8799 28.1299L16.4512 32.1711L17.0843 33.0197L21.8799 29.4635L26.7697 33.1679L27.4163 32.3193L21.8799 28.1299Z" fill="#00FFFF"/>
<path d="M22.4048 34.6902H24.6544V33.6395H22.4048V32.5349H23.469V31.4707H20.2899V32.5349H21.3541V33.6395H19.118V34.6902H21.3541V37.6807H18.2559V38.7449H25.5166V37.6807H22.4048V34.6902Z" fill="#00FFFF"/>
<path d="M19.4943 35.1667L18.7871 35.9619L20.3271 37.3316L21.0344 36.5364L19.4943 35.1667Z" fill="#00FFFF"/>
<path d="M24.1719 35.1718L22.6318 36.5415L23.3391 37.3367L24.8791 35.967L24.1719 35.1718Z" fill="#00FFFF"/>
<path d="M13.0155 26.2569L11.2374 23.7244H8.93387V26.2569H7.31738V17.5548H10.9006C11.5785 17.5405 12.2522 17.6642 12.8808 17.9185C13.4228 18.143 13.8899 18.5167 14.2278 18.9962C14.5318 19.4945 14.6861 20.0696 14.6724 20.6531C14.6737 21.2611 14.4853 21.8544 14.1336 22.3504C13.7988 22.8297 13.3303 23.1998 12.7865 23.4146L14.7667 26.2569H13.0155ZM12.4362 19.3599C11.9686 19.0325 11.4027 18.8756 10.8332 18.9154H8.93387V22.3908H10.8332C11.4043 22.4267 11.9703 22.265 12.4362 21.9328C12.6272 21.7671 12.7767 21.5589 12.8726 21.325C12.9686 21.091 13.0083 20.8378 12.9885 20.5857C12.9915 20.3554 12.9436 20.1273 12.8481 19.9177C12.7526 19.7082 12.612 19.5223 12.4362 19.3734V19.3599Z" fill="#00FFFF"/>
<path d="M23.0388 12.0192V15.104H21.4089V12.0462L17.9873 6.375H19.725L22.2171 10.6183L24.9112 6.375H26.5008L23.0388 12.0192Z" fill="#00FFFF"/>
<path d="M31.4703 25.8268C30.7668 25.4486 30.181 24.884 29.7771 24.195C29.3732 23.5059 29.1667 22.719 29.1803 21.9203C29.1698 21.1118 29.3793 20.3155 29.7865 19.6169C30.1927 18.9368 30.7743 18.3785 31.4703 18.0004C32.2143 17.6121 33.0424 17.4131 33.8816 17.4211C34.7164 17.4131 35.5403 17.6121 36.2794 18.0004C36.9857 18.381 37.5759 18.9458 37.9872 19.6348C38.3986 20.3237 38.6158 21.1112 38.6158 21.9136C38.6158 22.716 38.3986 23.5035 37.9872 24.1924C37.5759 24.8814 36.9857 25.4462 36.2794 25.8268C35.5403 26.2151 34.7164 26.4141 33.8816 26.4061C33.0424 26.4141 32.2143 26.2152 31.4703 25.8268ZM35.4442 24.5875C35.9057 24.3323 36.2879 23.9547 36.5488 23.4964C36.8162 23.0149 36.951 22.471 36.9394 21.9203C36.9543 21.3693 36.8193 20.8246 36.5488 20.3443C36.2887 19.8819 35.9066 19.4998 35.4442 19.2397C34.9657 18.9769 34.4274 18.8423 33.8816 18.849C33.3317 18.8442 32.7895 18.9786 32.3055 19.2397C31.8501 19.5044 31.4735 19.8856 31.2144 20.3443C30.9392 20.8232 30.7995 21.3681 30.8103 21.9203C30.8035 22.4722 30.9429 23.016 31.2144 23.4964C31.4738 23.9513 31.8506 24.3281 32.3055 24.5875C32.7895 24.8486 33.3317 24.983 33.8816 24.9782C34.4274 24.9849 34.9657 24.8503 35.4442 24.5875Z" fill="#00FFFF"/>
<path d="M7.62695 25.3687V15.1309L12.0319 10.726V6.375" stroke="#00FFFF" stroke-miterlimit="10"/>
<path d="M30.8105 38.7446V32.1305L33.8819 28.8706V24.9775" stroke="#00FFFF" stroke-miterlimit="10"/>
<path d="M35.3 36H9C6.23858 36 4 38.2386 4 41V41.4C4 44.1614 6.23858 46.4 9 46.4H35.3C38.0614 46.4 40.3 44.1614 40.3 41.4V41C40.3 38.2386 38.0614 36 35.3 36Z" fill="#00FFFF"/>
<path d="M16.3928 42.118H16.8548V38.982H16.3928V38.1H18.5418C18.7751 38.1 18.9805 38.1327 19.1578 38.198C19.3398 38.2633 19.4915 38.352 19.6128 38.464C19.7388 38.576 19.8321 38.7113 19.8928 38.87C19.9581 39.024 19.9908 39.192 19.9908 39.374V39.458C19.9908 39.738 19.9115 39.962 19.7528 40.13C19.5988 40.298 19.4028 40.4147 19.1648 40.48V40.606C19.4028 40.6713 19.5988 40.7903 19.7528 40.963C19.9115 41.131 19.9908 41.355 19.9908 41.635V41.719C19.9908 41.901 19.9581 42.0713 19.8928 42.23C19.8321 42.384 19.7388 42.5193 19.6128 42.636C19.4915 42.748 19.3398 42.8367 19.1578 42.902C18.9805 42.9673 18.7751 43 18.5418 43H16.3928V42.118ZM17.7788 42.118H18.4508C18.6468 42.118 18.8055 42.076 18.9268 41.992C19.0481 41.908 19.1088 41.768 19.1088 41.572V41.53C19.1088 41.334 19.0481 41.194 18.9268 41.11C18.8055 41.026 18.6468 40.984 18.4508 40.984H17.7788V42.118ZM17.7788 40.102H18.4508C18.6468 40.102 18.8055 40.0623 18.9268 39.983C19.0481 39.899 19.1088 39.759 19.1088 39.563V39.521C19.1088 39.325 19.0481 39.1873 18.9268 39.108C18.8055 39.024 18.6468 38.982 18.4508 38.982H17.7788V40.102ZM23.3389 39.598C23.3389 39.402 23.2619 39.2317 23.1079 39.087C22.9586 38.9423 22.7463 38.87 22.4709 38.87C22.2376 38.87 22.0533 38.919 21.9179 39.017C21.7826 39.1103 21.7149 39.2387 21.7149 39.402C21.7149 39.486 21.7313 39.563 21.7639 39.633C21.7966 39.6983 21.8526 39.759 21.9319 39.815C22.0159 39.8663 22.1233 39.913 22.2539 39.955C22.3893 39.997 22.5596 40.0367 22.7649 40.074C23.2783 40.1673 23.6703 40.3237 23.9409 40.543C24.2116 40.7623 24.3469 41.0867 24.3469 41.516V41.6C24.3469 41.8287 24.3049 42.0363 24.2209 42.223C24.1416 42.405 24.0249 42.5613 23.8709 42.692C23.7169 42.8227 23.5303 42.923 23.3109 42.993C23.0916 43.063 22.8443 43.098 22.5689 43.098C22.2469 43.098 21.9623 43.0537 21.7149 42.965C21.4723 42.8717 21.2693 42.7457 21.1059 42.587C20.9426 42.4237 20.8189 42.2347 20.7349 42.02C20.6509 41.8007 20.6089 41.5627 20.6089 41.306V41.096H21.5329V41.264C21.5329 41.558 21.6169 41.7937 21.7849 41.971C21.9576 42.1437 22.2236 42.23 22.5829 42.23C22.8629 42.23 23.0706 42.1693 23.2059 42.048C23.3413 41.9267 23.4089 41.782 23.4089 41.614C23.4089 41.5347 23.3949 41.46 23.3669 41.39C23.3389 41.3153 23.2899 41.25 23.2199 41.194C23.1499 41.1333 23.0543 41.0797 22.9329 41.033C22.8116 40.9863 22.6576 40.9467 22.4709 40.914C22.2236 40.872 21.9973 40.8183 21.7919 40.753C21.5866 40.683 21.4069 40.592 21.2529 40.48C21.1036 40.368 20.9869 40.228 20.9029 40.06C20.8189 39.892 20.7769 39.6867 20.7769 39.444V39.402C20.7769 39.2013 20.8166 39.017 20.8959 38.849C20.9799 38.6763 21.0943 38.527 21.2389 38.401C21.3883 38.275 21.5656 38.177 21.7709 38.107C21.9809 38.037 22.2143 38.002 22.4709 38.002C22.7603 38.002 23.0169 38.044 23.2409 38.128C23.4649 38.2073 23.6516 38.317 23.8009 38.457C23.9549 38.597 24.0693 38.758 24.1439 38.94C24.2233 39.122 24.2629 39.3133 24.2629 39.514V39.766H23.3389V39.598ZM26.7991 42.258C26.9764 42.258 27.1211 42.2323 27.2331 42.181C27.3497 42.125 27.4384 42.0527 27.4991 41.964C27.5644 41.8707 27.6087 41.7657 27.6321 41.649C27.6554 41.5277 27.6671 41.404 27.6671 41.278V41.152H28.5911V41.278C28.5911 41.8613 28.4371 42.3117 28.1291 42.629C27.8257 42.9417 27.3824 43.098 26.7991 43.098C26.2391 43.098 25.7957 42.9277 25.4691 42.587C25.1424 42.2463 24.9791 41.7493 24.9791 41.096V40.004C24.9791 39.6913 25.0211 39.4113 25.1051 39.164C25.1891 38.912 25.3104 38.702 25.4691 38.534C25.6277 38.3613 25.8191 38.2307 26.0431 38.142C26.2671 38.0487 26.5191 38.002 26.7991 38.002C27.0884 38.002 27.3451 38.044 27.5691 38.128C27.7931 38.212 27.9797 38.3333 28.1291 38.492C28.2831 38.6507 28.3974 38.842 28.4721 39.066C28.5514 39.29 28.5911 39.542 28.5911 39.822V39.948H27.6671V39.822C27.6671 39.7053 27.6531 39.5887 27.6251 39.472C27.5971 39.3553 27.5504 39.2503 27.4851 39.157C27.4197 39.0637 27.3311 38.989 27.2191 38.933C27.1071 38.8723 26.9671 38.842 26.7991 38.842C26.6451 38.842 26.5121 38.8723 26.4001 38.933C26.2881 38.989 26.1947 39.0683 26.1201 39.171C26.0454 39.269 25.9894 39.3857 25.9521 39.521C25.9194 39.6517 25.9031 39.7893 25.9031 39.934V41.166C25.9031 41.3247 25.9194 41.4717 25.9521 41.607C25.9847 41.7377 26.0361 41.852 26.1061 41.95C26.1761 42.048 26.2671 42.125 26.3791 42.181C26.4957 42.2323 26.6357 42.258 26.7991 42.258Z" fill="#0D1238"/>
</svg>
