<svg width="82" height="96" viewBox="0 0 82 96" fill="none" xmlns="http://www.w3.org/2000/svg">
<path d="M40.9999 85.008C60.8864 85.008 77.0075 68.8868 77.0075 49.0004C77.0075 29.1139 60.8864 12.9927 40.9999 12.9927C21.1134 12.9927 4.99219 29.1139 4.99219 49.0004C4.99219 68.8868 21.1134 85.008 40.9999 85.008Z" stroke="#00FFFF" stroke-miterlimit="10"/>
<path d="M41 89C63.0914 89 81 71.0914 81 49C81 26.9086 63.0914 9 41 9C18.9086 9 1 26.9086 1 49C1 71.0914 18.9086 89 41 89Z" stroke="#00FFFF" stroke-miterlimit="10"/>
<path d="M49.0365 40.9648H32.9648V57.0365H49.0365V40.9648Z" stroke="#00FFFF" stroke-miterlimit="10"/>
<path d="M40.668 60.5415L30.3545 68.219L31.5573 69.8313L40.668 63.0751L49.9578 70.1128L51.1862 68.5006L40.668 60.5415Z" fill="#00FFFF"/>
<path d="M41.6655 73.0051H45.9393V71.009H41.6655V68.9104H43.6872V66.8887H37.6476V68.9104H39.6693V71.009H35.4211V73.0051H39.6693V78.6865H33.7832V80.7083H47.5772V78.6865H41.6655V73.0051Z" fill="#00FFFF"/>
<path d="M36.1356 73.9107L34.792 75.4214L37.7178 78.0236L39.0614 76.5129L36.1356 73.9107Z" fill="#00FFFF"/>
<path d="M45.0225 73.9203L42.0967 76.5225L43.4403 78.0332L46.3661 75.431L45.0225 73.9203Z" fill="#00FFFF"/>
<path d="M23.8273 56.9837L20.4492 52.1724H16.073V56.9837H13.002V40.4513H19.8094C21.0973 40.4241 22.3772 40.6592 23.5714 41.1423C24.6011 41.5687 25.4885 42.2787 26.1306 43.1897C26.708 44.1363 27.0011 45.2289 26.9751 46.3375C26.9775 47.4926 26.6197 48.6198 25.9514 49.562C25.3154 50.4726 24.4253 51.1758 23.3922 51.5838L27.1542 56.9837H23.8273ZM22.7268 43.8806C21.8384 43.2586 20.7633 42.9605 19.6814 43.0361H16.073V49.6388H19.6814C20.7663 49.707 21.8417 49.3997 22.7268 48.7687C23.0897 48.4539 23.3737 48.0584 23.5559 47.6139C23.7381 47.1694 23.8136 46.6884 23.7761 46.2095C23.7818 45.772 23.6906 45.3386 23.5092 44.9404C23.3278 44.5423 23.0607 44.1891 22.7268 43.9062V43.8806Z" fill="#00FFFF"/>
<path d="M42.8694 29.9344V35.7949H39.7728V29.9856L33.2725 19.2114H36.5738L41.3083 27.2728L46.4267 19.2114H49.4465L42.8694 29.9344Z" fill="#00FFFF"/>
<path d="M58.8879 56.1665C57.5514 55.4479 56.4385 54.3754 55.6711 53.0663C54.9037 51.7572 54.5114 50.2621 54.5373 48.7449C54.5173 47.2087 54.9154 45.696 55.689 44.3687C56.4607 43.0768 57.5656 42.0161 58.8879 41.2977C60.3013 40.5599 61.8747 40.182 63.4689 40.1972C65.0549 40.182 66.62 40.56 68.0242 41.2977C69.3662 42.0209 70.4874 43.0938 71.2689 44.4027C72.0503 45.7116 72.463 47.2077 72.463 48.7321C72.463 50.2565 72.0503 51.7525 71.2689 53.0614C70.4874 54.3703 69.3662 55.4433 68.0242 56.1665C66.62 56.9041 65.0549 57.2822 63.4689 57.267C61.8747 57.2822 60.3013 56.9042 58.8879 56.1665ZM66.4375 53.8121C67.3142 53.3271 68.0403 52.6098 68.5361 51.7391C69.0441 50.8243 69.3002 49.7911 69.2782 48.7449C69.3065 47.698 69.05 46.6631 68.5361 45.7506C68.042 44.8721 67.316 44.1462 66.4375 43.6521C65.5285 43.1529 64.5059 42.8972 63.4689 42.91C62.4242 42.9008 61.3941 43.1561 60.4746 43.6521C59.6094 44.155 58.8939 44.8793 58.4017 45.7506C57.8789 46.6606 57.6135 47.6956 57.6339 48.7449C57.621 49.7932 57.8859 50.8263 58.4017 51.7391C58.8945 52.6033 59.6105 53.3192 60.4746 53.8121C61.3941 54.308 62.4242 54.5634 63.4689 54.5542C64.5059 54.5669 65.5285 54.3113 66.4375 53.8121Z" fill="#00FFFF"/>
<path d="M13.5898 55.2959V35.8461L21.9584 27.4776V19.2114" stroke="#00FFFF" stroke-miterlimit="10"/>
<path d="M57.6348 80.7076V68.142L63.4697 61.9488V54.5527" stroke="#00FFFF" stroke-miterlimit="10"/>
<path d="M56.9888 75.4937H25.3721C22.0524 75.4937 19.3613 79.7465 19.3613 84.9927V85.7527C19.3613 90.9988 22.0524 95.2517 25.3721 95.2517H56.9888C60.3085 95.2517 62.9996 90.9988 62.9996 85.7527V84.9927C62.9996 79.7465 60.3085 75.4937 56.9888 75.4937Z" fill="#00FFFF"/>
<path d="M32.8766 86.3337H33.5366V81.8537H32.8766V80.5937H35.9466C36.28 80.5937 36.5733 80.6404 36.8266 80.7337C37.0866 80.8271 37.3033 80.9537 37.4766 81.1137C37.6566 81.2737 37.79 81.4671 37.8766 81.6937C37.97 81.9137 38.0166 82.1537 38.0166 82.4137V82.5337C38.0166 82.9337 37.9033 83.2537 37.6766 83.4937C37.4566 83.7337 37.1766 83.9004 36.8366 83.9937V84.1737C37.1766 84.2671 37.4566 84.4371 37.6766 84.6837C37.9033 84.9237 38.0166 85.2437 38.0166 85.6437V85.7637C38.0166 86.0237 37.97 86.2671 37.8766 86.4937C37.79 86.7137 37.6566 86.9071 37.4766 87.0737C37.3033 87.2337 37.0866 87.3604 36.8266 87.4537C36.5733 87.5471 36.28 87.5938 35.9466 87.5938H32.8766V86.3337ZM34.8566 86.3337H35.8166C36.0966 86.3337 36.3233 86.2737 36.4966 86.1537C36.67 86.0337 36.7566 85.8337 36.7566 85.5537V85.4937C36.7566 85.2137 36.67 85.0137 36.4966 84.8937C36.3233 84.7737 36.0966 84.7137 35.8166 84.7137H34.8566V86.3337ZM34.8566 83.4537H35.8166C36.0966 83.4537 36.3233 83.3971 36.4966 83.2837C36.67 83.1637 36.7566 82.9637 36.7566 82.6837V82.6237C36.7566 82.3437 36.67 82.1471 36.4966 82.0337C36.3233 81.9137 36.0966 81.8537 35.8166 81.8537H34.8566V83.4537ZM42.7997 82.7337C42.7997 82.4537 42.6897 82.2104 42.4697 82.0037C42.2564 81.7971 41.953 81.6937 41.5597 81.6937C41.2264 81.6937 40.963 81.7637 40.7697 81.9037C40.5764 82.0371 40.4797 82.2204 40.4797 82.4538C40.4797 82.5737 40.503 82.6837 40.5497 82.7837C40.5964 82.8771 40.6764 82.9637 40.7897 83.0437C40.9097 83.1171 41.063 83.1837 41.2497 83.2437C41.443 83.3037 41.6864 83.3604 41.9797 83.4137C42.713 83.5471 43.273 83.7704 43.6597 84.0837C44.0464 84.3971 44.2397 84.8604 44.2397 85.4737V85.5937C44.2397 85.9204 44.1797 86.2171 44.0597 86.4837C43.9464 86.7437 43.7797 86.9671 43.5597 87.1537C43.3397 87.3404 43.073 87.4837 42.7597 87.5837C42.4464 87.6838 42.093 87.7338 41.6997 87.7338C41.2397 87.7338 40.833 87.6704 40.4797 87.5437C40.133 87.4104 39.843 87.2304 39.6097 87.0037C39.3764 86.7704 39.1997 86.5004 39.0797 86.1937C38.9597 85.8804 38.8997 85.5404 38.8997 85.1737V84.8737H40.2197V85.1137C40.2197 85.5337 40.3397 85.8704 40.5797 86.1238C40.8264 86.3704 41.2064 86.4937 41.7197 86.4937C42.1197 86.4937 42.4164 86.4071 42.6097 86.2337C42.803 86.0604 42.8997 85.8537 42.8997 85.6137C42.8997 85.5004 42.8797 85.3937 42.8397 85.2937C42.7997 85.1871 42.7297 85.0937 42.6297 85.0137C42.5297 84.9271 42.393 84.8504 42.2197 84.7837C42.0464 84.7171 41.8264 84.6604 41.5597 84.6137C41.2064 84.5537 40.883 84.4771 40.5897 84.3837C40.2964 84.2837 40.0397 84.1537 39.8197 83.9937C39.6064 83.8337 39.4397 83.6337 39.3197 83.3937C39.1997 83.1537 39.1397 82.8604 39.1397 82.5137V82.4538C39.1397 82.1671 39.1964 81.9037 39.3097 81.6637C39.4297 81.4171 39.593 81.2037 39.7997 81.0237C40.013 80.8437 40.2664 80.7037 40.5597 80.6037C40.8597 80.5037 41.193 80.4537 41.5597 80.4537C41.973 80.4537 42.3397 80.5137 42.6597 80.6337C42.9797 80.7471 43.2464 80.9037 43.4597 81.1037C43.6797 81.3037 43.843 81.5337 43.9497 81.7937C44.063 82.0537 44.1197 82.3271 44.1197 82.6137V82.9737H42.7997V82.7337ZM47.7427 86.5337C47.9961 86.5337 48.2027 86.4971 48.3627 86.4237C48.5294 86.3437 48.6561 86.2404 48.7427 86.1137C48.8361 85.9804 48.8994 85.8304 48.9327 85.6637C48.9661 85.4904 48.9827 85.3137 48.9827 85.1337V84.9538H50.3027V85.1337C50.3027 85.9671 50.0827 86.6104 49.6427 87.0637C49.2094 87.5104 48.5761 87.7338 47.7427 87.7338C46.9427 87.7338 46.3094 87.4904 45.8427 87.0037C45.3761 86.5171 45.1427 85.8071 45.1427 84.8737V83.3137C45.1427 82.8671 45.2027 82.4671 45.3227 82.1137C45.4427 81.7537 45.6161 81.4537 45.8427 81.2137C46.0694 80.9671 46.3427 80.7804 46.6627 80.6537C46.9827 80.5204 47.3427 80.4537 47.7427 80.4537C48.1561 80.4537 48.5227 80.5137 48.8427 80.6337C49.1627 80.7537 49.4294 80.9271 49.6427 81.1537C49.8627 81.3804 50.0261 81.6537 50.1327 81.9737C50.2461 82.2937 50.3027 82.6537 50.3027 83.0537V83.2337H48.9827V83.0537C48.9827 82.8871 48.9627 82.7204 48.9227 82.5537C48.8827 82.3871 48.8161 82.2371 48.7227 82.1037C48.6294 81.9704 48.5027 81.8637 48.3427 81.7837C48.1827 81.6971 47.9827 81.6537 47.7427 81.6537C47.5227 81.6537 47.3327 81.6971 47.1727 81.7837C47.0127 81.8637 46.8794 81.9771 46.7727 82.1237C46.6661 82.2637 46.5861 82.4304 46.5327 82.6237C46.4861 82.8104 46.4627 83.0071 46.4627 83.2137V84.9737C46.4627 85.2004 46.4861 85.4104 46.5327 85.6037C46.5794 85.7904 46.6527 85.9537 46.7527 86.0937C46.8527 86.2337 46.9827 86.3437 47.1427 86.4237C47.3094 86.4971 47.5094 86.5337 47.7427 86.5337Z" fill="#0D1238"/>
<path d="M54.0621 0H27.3425C22.1828 0 18 4.18279 18 9.34252V10.0899C18 15.2497 22.1828 19.4324 27.3425 19.4324H54.0621C59.2219 19.4324 63.4047 15.2497 63.4047 10.0899V9.34252C63.4047 4.18279 59.2219 0 54.0621 0Z" fill="#00FFFF"/>
<path d="M36.4763 14.6338H34.7603V11.9038C34.7603 11.6958 34.7039 11.5268 34.5913 11.3968C34.4873 11.2668 34.3096 11.2018 34.0583 11.2018H32.0823V14.6338H30.3663V5.53379H33.8503C34.3183 5.53379 34.7299 5.59879 35.0853 5.72879C35.4406 5.85879 35.7353 6.04079 35.9693 6.27479C36.2119 6.50012 36.3939 6.76446 36.5153 7.06779C36.6453 7.37112 36.7103 7.69612 36.7103 8.04279V8.35479C36.7103 8.72746 36.6106 9.07846 36.4113 9.40779C36.2119 9.72846 35.9043 9.97546 35.4883 10.1488V10.3828C35.7916 10.4175 36.0299 10.5345 36.2033 10.7338C36.3853 10.9331 36.4763 11.1845 36.4763 11.4878V14.6338ZM32.0823 9.56379H33.7203C34.1363 9.56379 34.4526 9.46846 34.6693 9.27779C34.8859 9.07846 34.9943 8.80112 34.9943 8.44579V8.28979C34.9943 7.98646 34.8859 7.72646 34.6693 7.50979C34.4526 7.28446 34.1363 7.17179 33.7203 7.17179H32.0823V9.56379ZM40.4972 11.4358H40.1072L37.4942 5.53379H39.3662L41.2382 9.87579H41.4722L43.3442 5.53379H45.2162L42.6032 11.4358H42.2132V14.6338H40.4972V11.4358ZM45.9612 9.06979C45.9612 7.89112 46.2558 6.97679 46.8452 6.32679C47.4432 5.67679 48.2665 5.35179 49.3152 5.35179C50.3638 5.35179 51.1828 5.67679 51.7722 6.32679C52.3702 6.97679 52.6692 7.89112 52.6692 9.06979V11.0978C52.6692 12.3111 52.3702 13.2341 51.7722 13.8668C51.1828 14.4995 50.3638 14.8158 49.3152 14.8158C48.2665 14.8158 47.4432 14.4995 46.8452 13.8668C46.2558 13.2341 45.9612 12.3111 45.9612 11.0978V9.06979ZM49.3152 13.2558C49.6272 13.2558 49.8872 13.2081 50.0952 13.1128C50.3032 13.0088 50.4722 12.8658 50.6022 12.6838C50.7322 12.5018 50.8232 12.2851 50.8752 12.0338C50.9272 11.7825 50.9532 11.5051 50.9532 11.2018V8.96579C50.9532 8.67979 50.9228 8.41112 50.8622 8.15979C50.8015 7.90846 50.7062 7.69179 50.5762 7.50979C50.4462 7.32779 50.2772 7.18479 50.0692 7.08079C49.8612 6.96812 49.6098 6.91179 49.3152 6.91179C49.0205 6.91179 48.7692 6.96812 48.5612 7.08079C48.3532 7.18479 48.1842 7.32779 48.0542 7.50979C47.9242 7.69179 47.8288 7.90846 47.7682 8.15979C47.7075 8.41112 47.6772 8.67979 47.6772 8.96579V11.2018C47.6772 11.5051 47.7032 11.7825 47.7552 12.0338C47.8072 12.2851 47.8982 12.5018 48.0282 12.6838C48.1582 12.8658 48.3272 13.0088 48.5352 13.1128C48.7432 13.2081 49.0032 13.2558 49.3152 13.2558Z" fill="#0D1238"/>
</svg>
