<svg width="61" height="65" viewBox="0 0 61 65" fill="none"
    xmlns="http://www.w3.org/2000/svg">
    <path d="M35.3629 43.7982L38.4501 43.7982L42.3186 47.069L50.5596 40.1013L38.2989 40.0374L38.2989 -6.14617e-07L32.6285 4.79426L35.3629 7.10616L35.3629 43.7982Z" fill="#00FFFF"/>
    <path d="M35.1802 43.9083L35.1802 7.60357L32.6286 5.60352L32.6286 54.9139L42.7148 47.0079L38.7605 43.9188L35.1802 43.9188L35.1802 43.9083Z" fill="#00FFFF"/>
    <path d="M27.0254 60.2722L24.3937 58.0869L24.3937 23.1739L18.1102 17.9312L9.09435 25.4538L21.3464 25.5168L21.3464 65.0001L27.0128 60.2722L27.0254 60.2722Z" fill="#00FFFF"/>
    <path d="M24.9651 57.491L27.0254 59.3968L27.0254 10.0864L19.1806 17.3432L24.9651 22.6941L24.9651 57.491Z" fill="#00FFFF"/>
    <path d="M41.5936 19.4822L41.5936 0.0834353C41.5936 0.0834353 41.5936 0.0625765 41.5936 0.052147C41.5936 0.052147 41.5936 0.0312882 41.6161 0.0208587C41.6161 0.0208587 41.6386 0.0104293 41.6499 -1.09536e-07C41.6499 -1.09536e-07 41.6724 -1.08406e-07 41.6837 -1.07842e-07C41.6949 -1.07277e-07 41.7062 -1.06713e-07 41.7175 -1.06148e-07C41.7287 -1.05583e-07 41.74 -1.05019e-07 41.7513 0.0208588C41.7513 0.0208588 41.7625 0.0417176 41.7738 0.052147C41.7738 0.052147 41.7738 0.0730059 41.7738 0.0834353L41.7738 19.4405L43.8124 21.3178C43.8124 21.3178 43.835 21.349 43.835 21.3803L43.835 36.8993C43.835 36.8993 43.835 36.941 43.8124 36.9619C43.8012 36.9723 43.7674 36.9828 43.7449 36.9828C43.7223 36.9828 43.6998 36.9828 43.6773 36.9619C43.6547 36.941 43.6547 36.9202 43.6547 36.8993L43.6547 21.4116L41.6274 19.5343C41.6274 19.5343 41.6048 19.4926 41.6048 19.4717L41.5936 19.4822Z" fill="white"/>
    <path d="M29.2664 59.3002L29.2664 40.0886C29.2664 40.0886 29.2664 40.0458 29.2835 40.0352L30.255 38.8164L30.255 9.33077C30.255 9.33077 30.255 9.30939 30.255 9.29869C30.255 9.288 30.255 9.27731 30.2721 9.26662L31.3885 7.86611C31.3885 7.86611 31.4226 7.84473 31.4396 7.84473C31.4567 7.84473 31.4737 7.84473 31.4908 7.86611C31.5078 7.8768 31.5078 7.90887 31.5078 7.93025C31.5078 7.95164 31.5078 7.97302 31.4908 7.9944L30.3999 9.37353L30.3999 38.8485C30.3999 38.8485 30.3999 38.8698 30.3999 38.8805C30.3999 38.8805 30.3914 38.9019 30.3829 38.9126L29.4113 40.1314L29.4113 59.3109C29.4113 59.3109 29.4113 59.3323 29.4113 59.343C29.4113 59.3537 29.4113 59.3644 29.3943 59.3751C29.3943 59.3751 29.3772 59.3964 29.3687 59.3964C29.3602 59.3964 29.3517 59.3964 29.3431 59.3964C29.3346 59.3964 29.3261 59.3964 29.3176 59.3964C29.309 59.3964 29.3005 59.3858 29.292 59.3751C29.292 59.3751 29.2835 59.3537 29.275 59.343C29.2664 59.3323 29.275 59.3216 29.275 59.3109L29.2664 59.3002Z" fill="white"/>
    <path d="M12.456 25.8651C12.456 25.8651 12.456 25.8205 12.4801 25.7982C12.5043 25.787 12.5285 25.7759 12.5527 25.7759L18.2822 25.7759C18.2822 25.7759 18.3305 25.7759 18.3547 25.7982L20.2766 27.5712C20.2766 27.5712 20.3008 27.6158 20.3008 27.6381L20.3008 41.3763C20.3008 41.3763 20.3008 41.4209 20.2766 41.4432C20.2524 41.4544 20.2283 41.4655 20.2041 41.4655C20.1799 41.4655 20.1557 41.4655 20.1316 41.4432C20.1074 41.4209 20.1074 41.3986 20.1074 41.3763L20.1074 27.6716L18.2459 25.9543L12.5527 25.9543C12.5527 25.9543 12.5043 25.9543 12.4801 25.932C12.468 25.9097 12.456 25.8874 12.456 25.8651Z" fill="white"/>
    <path d="M19.1801 53.2928L19.1801 39.3085C19.1801 39.3085 19.1801 39.2876 19.1801 39.2771C19.1801 39.2666 19.1801 39.2561 19.1967 39.2456C19.1967 39.2456 19.2133 39.2246 19.2216 39.2246C19.2299 39.2246 19.2382 39.2246 19.2465 39.2246C19.2548 39.2246 19.2631 39.2246 19.2714 39.2246C19.2797 39.2246 19.288 39.2351 19.2963 39.2456C19.2963 39.2456 19.3046 39.2666 19.3129 39.2771C19.3212 39.2876 19.3129 39.298 19.3129 39.3085L19.3129 53.2613L20.2842 54.4887C20.2842 54.4887 20.3008 54.5307 20.3008 54.5516L20.3008 64.9165C20.3008 64.9165 20.3008 64.9585 20.2842 64.9795C20.2759 64.99 20.251 65.0005 20.2344 65.0005C20.2178 65.0005 20.2012 65.0005 20.1846 64.9795C20.168 64.9585 20.168 64.9375 20.168 64.9165L20.168 54.5936L19.1967 53.3662C19.1967 53.3662 19.1801 53.3242 19.1801 53.3032L19.1801 53.2928Z" fill="white"/>
    <path d="M4.9961 34.7476C4.9961 34.7476 4.88424 34.7352 4.84695 34.6979L0.0619743 29.9005C0.0619743 29.9005 0.0246875 29.8508 0.0122592 29.8259C0.0122592 29.8011 -0.000172877 29.7638 -0.000172876 29.7389C0.434827 23.4004 2.78382 17.3353 6.73609 12.3638C10.6884 7.39243 16.0699 3.7633 22.1475 1.94873C22.1848 1.94873 22.2096 1.94873 22.2469 1.94873C22.2842 1.94873 22.309 1.97359 22.3339 1.98602C22.3588 2.01087 22.3836 2.03573 22.396 2.06059C22.4085 2.08544 22.4209 2.12273 22.4209 2.16002L22.4209 5.92586C22.4209 5.92586 22.396 6.03772 22.3588 6.075C22.3215 6.11229 22.2593 6.13715 22.2096 6.13715C22.1599 6.13715 22.0978 6.11229 22.0605 6.075C22.0232 6.03772 21.9983 5.97557 21.9983 5.92586L21.9983 2.44587C9.95508 6.162 1.31725 17.0618 0.434828 29.6768L5.14524 34.3996C5.14524 34.3996 5.19496 34.4618 5.20738 34.5115C5.20738 34.5488 5.20738 34.5985 5.20738 34.6358C5.19496 34.6731 5.1701 34.7103 5.13281 34.7352C5.09553 34.7601 5.05824 34.7725 5.02095 34.7725L4.9961 34.7476Z" fill="#FF0049"/>
    <path d="M7.50684 43.4098L7.50684 52.5075L5.23242 50.2206L5.23242 36.3628C5.65499 38.8112 6.42555 41.1851 7.50684 43.4098Z" fill="#FF0049"/>
    <path d="M7.51892 52.719C7.51892 52.719 7.45677 52.719 7.43191 52.7066C7.40706 52.7066 7.3822 52.6818 7.35734 52.6569L5.08292 50.37C5.08292 50.37 5.02078 50.2706 5.02078 50.2209L5.02078 36.3631C5.02078 36.3631 5.02078 36.301 5.02078 36.2761C5.02078 36.2512 5.04564 36.2264 5.05806 36.2015C5.07049 36.1767 5.09535 36.1642 5.12021 36.1518C5.14507 36.1394 5.16992 36.127 5.19478 36.127C5.21964 36.127 5.25692 36.127 5.28178 36.127C5.30663 36.127 5.33149 36.1518 5.35635 36.1642C5.38121 36.1767 5.39364 36.2015 5.40607 36.2264C5.41849 36.2512 5.43092 36.2761 5.43092 36.301C5.85349 38.7245 6.61163 41.0735 7.69292 43.2858C7.70534 43.3106 7.71777 43.3479 7.71777 43.3852L7.71777 52.4829C7.71777 52.4829 7.69291 52.5948 7.65563 52.632C7.61834 52.6693 7.5562 52.6942 7.50649 52.6942L7.51892 52.719ZM7.30763 43.4598C6.5122 41.8317 5.89078 40.1414 5.45578 38.3889L5.45578 50.1339L7.30763 51.9982L7.30763 43.4598Z" fill="#FF0049"/>
    <path d="M5.09608 36.5251C5.09608 36.5251 5.03393 36.4505 5.02151 36.4008C4.76051 34.8969 4.63622 33.3807 4.63622 31.8519C4.62379 28.2974 5.33222 24.7801 6.71179 21.5114C8.09135 18.2427 10.1296 15.2847 12.6899 12.8239C12.7148 12.799 12.7396 12.7866 12.7645 12.7741C12.7893 12.7741 12.8142 12.7617 12.8515 12.7617C12.8888 12.7617 12.9136 12.7617 12.9385 12.7741C12.9633 12.7741 12.9882 12.799 13.0131 12.8239C13.0379 12.8487 13.0503 12.8736 13.0628 12.8984C13.0628 12.9233 13.0752 12.9481 13.0752 12.9854C13.0752 13.0103 13.0752 13.0476 13.0503 13.0724C13.0503 13.0973 13.0255 13.1221 13.0006 13.1346C10.4776 15.5581 8.47664 18.454 7.12193 21.673C5.75479 24.892 5.05879 28.3595 5.07122 31.8519C5.07122 33.3558 5.19551 34.8472 5.45651 36.3262C5.45651 36.3759 5.4565 36.4381 5.41922 36.4878C5.38193 36.5375 5.33222 36.5624 5.2825 36.5748L5.24522 36.5748C5.24522 36.5748 5.14579 36.5499 5.1085 36.5251L5.09608 36.5251Z" fill="#FF0049"/>
    <path d="M14.0565 59.3436C14.0565 59.3436 14.0068 59.3187 13.9819 59.2939L5.08307 50.3702C5.08307 50.3702 5.02093 50.2708 5.02093 50.2211C5.02093 50.1713 5.04579 50.1092 5.08307 50.0719C5.10793 50.0471 5.12036 50.0346 5.15765 50.0222C5.1825 50.0222 5.20736 50.0098 5.24465 50.0098C5.28193 50.0098 5.29436 50.0098 5.33164 50.0222C5.3565 50.0222 5.38136 50.0471 5.40622 50.0719L14.305 58.9956C14.305 58.9956 14.3672 59.095 14.3672 59.1447C14.3672 59.1945 14.3423 59.2566 14.305 59.2939C14.2802 59.3187 14.2678 59.3312 14.2305 59.3436C14.2056 59.3436 14.1808 59.356 14.1435 59.356C14.1186 59.356 14.0938 59.356 14.0565 59.3436Z" fill="#FF0049"/>
    <path d="M3.72923 46.3557C3.72923 46.3557 3.65466 46.3557 3.61738 46.3309C3.58009 46.306 3.55524 46.2811 3.54281 46.2439C1.51696 42.3662 0.336246 38.1032 0.0752473 33.7283C0.0752473 33.7035 0.0752473 33.6662 0.0752473 33.6413C0.0752473 33.6165 0.100103 33.5916 0.112531 33.5668C0.12496 33.5419 0.149821 33.5295 0.174678 33.517C0.199535 33.517 0.224389 33.4922 0.249246 33.4922C0.274103 33.4922 0.311388 33.4922 0.336245 33.4922C0.361102 33.4922 0.385961 33.517 0.410818 33.5295C0.435675 33.5419 0.448105 33.5668 0.460533 33.5916C0.460533 33.6165 0.485391 33.6413 0.485391 33.6662C0.733961 37.9789 1.90224 42.1797 3.90324 46.0077C3.92809 46.0574 3.92809 46.1196 3.91566 46.1693C3.90323 46.219 3.86595 46.2687 3.81623 46.2936C3.79138 46.306 3.75409 46.3184 3.71681 46.3184L3.72923 46.3557Z" fill="#00FFFF"/>
    <path d="M52.3477 53.9866C52.3477 53.9866 52.3352 53.8996 52.2979 53.8624C52.2731 53.8251 52.2358 53.8002 52.1861 53.7878C52.1364 53.7754 52.0867 53.7629 52.0494 53.7878C51.9997 53.7878 51.9624 53.8251 51.9251 53.8499C47.687 58.0259 42.3054 61.0212 36.3646 62.5002C36.3024 62.5126 36.2527 62.5499 36.2154 62.612C36.1781 62.6618 36.1781 62.7239 36.1906 62.786C36.1906 62.8109 36.2154 62.8482 36.2279 62.8606C36.2527 62.8855 36.2651 62.8979 36.3024 62.9228C36.3273 62.9352 36.3646 62.9476 36.3894 62.9476C36.4267 62.9476 36.4516 62.9476 36.4889 62.9476C42.5167 61.4562 47.9728 58.4112 52.2607 54.1731C52.2855 54.1482 52.2979 54.1234 52.3228 54.0985C52.3352 54.0736 52.3477 54.0364 52.3477 54.0115L52.3477 53.9866Z" fill="#FF0049"/>
    <path d="M59.5068 20.4546C57.7917 16.5147 55.2438 12.9353 52.0124 9.95245C49.7877 7.88931 47.2772 6.14932 44.5429 4.75732L44.5429 8.06331C49.6137 11.0213 53.7027 15.3091 56.2008 20.467L59.5068 20.467L59.5068 20.4546Z" fill="#FF0049"/>
    <path d="M60.502 40.1536C60.502 40.1536 60.502 40.0293 60.4522 39.9796C60.415 39.9299 60.3528 39.905 60.2907 39.8926C60.2285 39.8926 60.1664 39.8926 60.1167 39.9423C60.067 39.9796 60.0297 40.0293 60.0297 40.0914C59.2218 43.0743 57.9417 45.9453 56.239 48.5677L52.846 48.431C52.846 48.431 52.759 48.431 52.7341 48.4558C52.6968 48.4683 52.672 48.4931 52.6471 48.5304C48.931 53.5267 43.5991 57.2677 37.4346 59.2189C37.3973 59.2189 37.3725 59.2438 37.3476 59.2562C37.3227 59.2811 37.2979 59.2935 37.2855 59.3308C37.273 59.3557 37.2606 59.3929 37.2606 59.4178C37.2606 59.4427 37.2606 59.4799 37.2606 59.5048C37.2606 59.5297 37.2855 59.5669 37.3103 59.5794C37.3352 59.6042 37.36 59.6167 37.3849 59.6291C37.4097 59.6291 37.447 59.6539 37.4843 59.6539C37.5216 59.6539 37.5465 59.6539 37.5837 59.6415C43.798 57.6778 49.1796 53.912 52.9578 48.8908L56.3508 49.0151C56.3508 49.0151 56.4378 49.0151 56.4751 48.9903C56.5124 48.9778 56.5497 48.9406 56.5621 48.9157C58.3394 46.2063 59.6692 43.2731 60.502 40.1909C60.502 40.166 60.502 40.1536 60.502 40.1287L60.502 40.1536Z" fill="#FF0049"/>
    <path d="M59.3332 27.439L57.7424 25.96L59.1592 24.5308L60.6631 26.0719L60.6631 34.8962L59.3084 33.6906L59.3332 27.439Z" fill="#FF0049"/>
    <path d="M58.9731 33.8273L60.5391 35.2193L59.1346 36.6486L57.6184 35.1075L57.6184 26.2832L59.0104 27.5633L58.9731 33.8149L58.9731 33.8273Z" fill="#FF0049"/>
    <path d="M15.8584 56.7086L10.1413 51.4513L10.1413 45.7466" stroke="#00FFFF" stroke-width="0.3"/>
</svg>
