<svg width="342" height="148" viewBox="0 0 342 148" fill="none"
    xmlns="http://www.w3.org/2000/svg">
    <defs>
        <filter id="filter0_b_0_1" x="-3.5" y="-3.5" width="348.651" height="152.868" filterUnits="userSpaceOnUse" color-interpolation-filters="sRGB">
            <feFlood flood-opacity="0" result="BackgroundImageFix"/>
            <feGaussianBlur in="BackgroundImageFix" stdDeviation="2"/>
            <feComposite in2="SourceAlpha" operator="in" result="effect1_backgroundBlur_0_1"/>
            <feBlend mode="normal" in="SourceGraphic" in2="effect1_backgroundBlur_0_1" result="shape"/>
        </filter>
        <linearGradient id="paint0_linear_0_1" x1="28.6957" y1="40.8571" x2="66.5282" y2="46.7538" gradientUnits="userSpaceOnUse">
            <stop stop-color="#64E3FF"/>
            <stop offset="1" stop-color="#5FBDFB"/>
        </linearGradient>
        <linearGradient id="paint1_linear_0_1" x1="29" y1="99.8571" x2="73.2128" y2="107.985" gradientUnits="userSpaceOnUse">
            <stop stop-color="#64E3FF"/>
            <stop offset="1" stop-color="#5FBDFB"/>
        </linearGradient>
    </defs>
    <path d="M282 144.432H162.5" stroke="white" stroke-miterlimit="10"/>
    <path d="M288 147.054L291.197 142.413L325 142.413L322.126 147.054H288Z" fill="#FF0049"/>
    <g filter="url(#filter0_b_0_1)">
        <path d="M1.00001 10.1896L1 144.868H154.762L163.566 136.109H327.871L340.652 122.679V1H216.5L208 10.1896H13.5H1.00001Z" stroke="white"/>
    </g>
    <path d="M28.144 40.9H33.968V42.538H29.86V44.618H33.89V46.256H29.86V50H28.144V40.9ZM42.799 50H41.083V47.27C41.083 47.062 41.0266 46.893 40.914 46.763C40.81 46.633 40.6323 46.568 40.381 46.568H38.405V50H36.689V40.9H40.173C40.641 40.9 41.0526 40.965 41.408 41.095C41.7633 41.225 42.058 41.407 42.292 41.641C42.5346 41.8663 42.7166 42.1307 42.838 42.434C42.968 42.7373 43.033 43.0623 43.033 43.409V43.721C43.033 44.0937 42.9333 44.4447 42.734 44.774C42.5346 45.0947 42.227 45.3417 41.811 45.515V45.749C42.1143 45.7837 42.3526 45.9007 42.526 46.1C42.708 46.2993 42.799 46.5507 42.799 46.854V50ZM38.405 44.93H40.043C40.459 44.93 40.7753 44.8347 40.992 44.644C41.2086 44.4447 41.317 44.1673 41.317 43.812V43.656C41.317 43.3527 41.2086 43.0927 40.992 42.876C40.7753 42.6507 40.459 42.538 40.043 42.538H38.405V44.93ZM45.1039 44.436C45.1039 43.2573 45.3986 42.343 45.9879 41.693C46.5859 41.043 47.4093 40.718 48.4579 40.718C49.5066 40.718 50.3256 41.043 50.9149 41.693C51.5129 42.343 51.8119 43.2573 51.8119 44.436V46.464C51.8119 47.6773 51.5129 48.6003 50.9149 49.233C50.3256 49.8657 49.5066 50.182 48.4579 50.182C47.4093 50.182 46.5859 49.8657 45.9879 49.233C45.3986 48.6003 45.1039 47.6773 45.1039 46.464V44.436ZM48.4579 48.622C48.7699 48.622 49.0299 48.5743 49.2379 48.479C49.4459 48.375 49.6149 48.232 49.7449 48.05C49.8749 47.868 49.9659 47.6513 50.0179 47.4C50.0699 47.1487 50.0959 46.8713 50.0959 46.568V44.332C50.0959 44.046 50.0656 43.7773 50.0049 43.526C49.9443 43.2747 49.8489 43.058 49.7189 42.876C49.5889 42.694 49.4199 42.551 49.2119 42.447C49.0039 42.3343 48.7526 42.278 48.4579 42.278C48.1633 42.278 47.9119 42.3343 47.7039 42.447C47.4959 42.551 47.3269 42.694 47.1969 42.876C47.0669 43.058 46.9716 43.2747 46.9109 43.526C46.8503 43.7773 46.8199 44.046 46.8199 44.332V46.568C46.8199 46.8713 46.8459 47.1487 46.8979 47.4C46.9499 47.6513 47.0409 47.868 47.1709 48.05C47.3009 48.232 47.4699 48.375 47.6779 48.479C47.8859 48.5743 48.1459 48.622 48.4579 48.622ZM53.5059 40.9H56.5219L57.0419 47.738V49.064H57.3539V47.738L57.8739 40.9H60.8899V50H59.3299V43.916L59.4859 41.836H59.1739L58.4979 50H55.9239L55.2219 41.836H54.9099L55.0659 43.916V50H53.5059V40.9Z" fill="url(#paint0_linear_0_1)"/>
    <path d="M28.144 40.9H33.968V42.538H29.86V44.618H33.89V46.256H29.86V50H28.144V40.9ZM42.799 50H41.083V47.27C41.083 47.062 41.0266 46.893 40.914 46.763C40.81 46.633 40.6323 46.568 40.381 46.568H38.405V50H36.689V40.9H40.173C40.641 40.9 41.0526 40.965 41.408 41.095C41.7633 41.225 42.058 41.407 42.292 41.641C42.5346 41.8663 42.7166 42.1307 42.838 42.434C42.968 42.7373 43.033 43.0623 43.033 43.409V43.721C43.033 44.0937 42.9333 44.4447 42.734 44.774C42.5346 45.0947 42.227 45.3417 41.811 45.515V45.749C42.1143 45.7837 42.3526 45.9007 42.526 46.1C42.708 46.2993 42.799 46.5507 42.799 46.854V50ZM38.405 44.93H40.043C40.459 44.93 40.7753 44.8347 40.992 44.644C41.2086 44.4447 41.317 44.1673 41.317 43.812V43.656C41.317 43.3527 41.2086 43.0927 40.992 42.876C40.7753 42.6507 40.459 42.538 40.043 42.538H38.405V44.93ZM45.1039 44.436C45.1039 43.2573 45.3986 42.343 45.9879 41.693C46.5859 41.043 47.4093 40.718 48.4579 40.718C49.5066 40.718 50.3256 41.043 50.9149 41.693C51.5129 42.343 51.8119 43.2573 51.8119 44.436V46.464C51.8119 47.6773 51.5129 48.6003 50.9149 49.233C50.3256 49.8657 49.5066 50.182 48.4579 50.182C47.4093 50.182 46.5859 49.8657 45.9879 49.233C45.3986 48.6003 45.1039 47.6773 45.1039 46.464V44.436ZM48.4579 48.622C48.7699 48.622 49.0299 48.5743 49.2379 48.479C49.4459 48.375 49.6149 48.232 49.7449 48.05C49.8749 47.868 49.9659 47.6513 50.0179 47.4C50.0699 47.1487 50.0959 46.8713 50.0959 46.568V44.332C50.0959 44.046 50.0656 43.7773 50.0049 43.526C49.9443 43.2747 49.8489 43.058 49.7189 42.876C49.5889 42.694 49.4199 42.551 49.2119 42.447C49.0039 42.3343 48.7526 42.278 48.4579 42.278C48.1633 42.278 47.9119 42.3343 47.7039 42.447C47.4959 42.551 47.3269 42.694 47.1969 42.876C47.0669 43.058 46.9716 43.2747 46.9109 43.526C46.8503 43.7773 46.8199 44.046 46.8199 44.332V46.568C46.8199 46.8713 46.8459 47.1487 46.8979 47.4C46.9499 47.6513 47.0409 47.868 47.1709 48.05C47.3009 48.232 47.4699 48.375 47.6779 48.479C47.8859 48.5743 48.1459 48.622 48.4579 48.622ZM53.5059 40.9H56.5219L57.0419 47.738V49.064H57.3539V47.738L57.8739 40.9H60.8899V50H59.3299V43.916L59.4859 41.836H59.1739L58.4979 50H55.9239L55.2219 41.836H54.9099L55.0659 43.916V50H53.5059V40.9Z" fill="white"/>
    <path d="M27.702 99.9H34.254V101.538H31.836V109H30.12V101.538H27.702V99.9ZM36.364 103.436C36.364 102.257 36.6586 101.343 37.248 100.693C37.846 100.043 38.6693 99.718 39.718 99.718C40.7666 99.718 41.5856 100.043 42.175 100.693C42.773 101.343 43.072 102.257 43.072 103.436V105.464C43.072 106.677 42.773 107.6 42.175 108.233C41.5856 108.866 40.7666 109.182 39.718 109.182C38.6693 109.182 37.846 108.866 37.248 108.233C36.6586 107.6 36.364 106.677 36.364 105.464V103.436ZM39.718 107.622C40.03 107.622 40.29 107.574 40.498 107.479C40.706 107.375 40.875 107.232 41.005 107.05C41.135 106.868 41.226 106.651 41.278 106.4C41.33 106.149 41.356 105.871 41.356 105.568V103.332C41.356 103.046 41.3256 102.777 41.265 102.526C41.2043 102.275 41.109 102.058 40.979 101.876C40.849 101.694 40.68 101.551 40.472 101.447C40.264 101.334 40.0126 101.278 39.718 101.278C39.4233 101.278 39.172 101.334 38.964 101.447C38.756 101.551 38.587 101.694 38.457 101.876C38.327 102.058 38.2316 102.275 38.171 102.526C38.1103 102.777 38.08 103.046 38.08 103.332V105.568C38.08 105.871 38.106 106.149 38.158 106.4C38.21 106.651 38.301 106.868 38.431 107.05C38.561 107.232 38.73 107.375 38.938 107.479C39.146 107.574 39.406 107.622 39.718 107.622Z" fill="url(#paint1_linear_0_1)"/>
    <path d="M27.702 99.9H34.254V101.538H31.836V109H30.12V101.538H27.702V99.9ZM36.364 103.436C36.364 102.257 36.6586 101.343 37.248 100.693C37.846 100.043 38.6693 99.718 39.718 99.718C40.7666 99.718 41.5856 100.043 42.175 100.693C42.773 101.343 43.072 102.257 43.072 103.436V105.464C43.072 106.677 42.773 107.6 42.175 108.233C41.5856 108.866 40.7666 109.182 39.718 109.182C38.6693 109.182 37.846 108.866 37.248 108.233C36.6586 107.6 36.364 106.677 36.364 105.464V103.436ZM39.718 107.622C40.03 107.622 40.29 107.574 40.498 107.479C40.706 107.375 40.875 107.232 41.005 107.05C41.135 106.868 41.226 106.651 41.278 106.4C41.33 106.149 41.356 105.871 41.356 105.568V103.332C41.356 103.046 41.3256 102.777 41.265 102.526C41.2043 102.275 41.109 102.058 40.979 101.876C40.849 101.694 40.68 101.551 40.472 101.447C40.264 101.334 40.0126 101.278 39.718 101.278C39.4233 101.278 39.172 101.334 38.964 101.447C38.756 101.551 38.587 101.694 38.457 101.876C38.327 102.058 38.2316 102.275 38.171 102.526C38.1103 102.777 38.08 103.046 38.08 103.332V105.568C38.08 105.871 38.106 106.149 38.158 106.4C38.21 106.651 38.301 106.868 38.431 107.05C38.561 107.232 38.73 107.375 38.938 107.479C39.146 107.574 39.406 107.622 39.718 107.622Z" fill="white"/>
    <path d="M27 75H221.5" stroke="white" stroke-opacity="0.3"/>
</svg>
