<svg width="67" height="50" viewBox="0 0 67 50" fill="none"
    xmlns="http://www.w3.org/2000/svg">
    <path fill-rule="evenodd" clip-rule="evenodd" d="M0 10.7842H0.294117L9.80957 0H67V33.3333L52.2941 50H0V10.7842Z" fill="#00FFFF"/>
    <path d="M11.76 18.02H18.46L20.34 21.34H13.12L12.68 23.38H19.04C19.6267 23.8733 19.84 24.4867 19.68 25.22L18.52 30.76C18.4 31.2667 17.8067 31.64 16.74 31.88H10.54L8.28 28.74H15.32L15.8 26.52H10.12C9.09333 26.52 8.66667 26.0867 8.84 25.22L10.1 19.36C10.2467 18.6533 10.8 18.2067 11.76 18.02ZM23.582 18H31.402L33.662 21.2H26.462L26.142 22.7H28.782L30.842 25.88H25.462L24.822 28.88H28.942L31.202 32H20.602L23.582 18ZM35.7511 18.02H39.0311L38.4511 20.74L41.7311 24.3L43.0511 18.02H46.3311L43.3711 31.98H40.0511L40.7311 28.78L37.4911 25.34L36.0711 31.98H32.7911L35.7511 18.02ZM48.8936 18.02H52.4336L59.1136 21.78L57.3336 30.22C57.2003 30.82 56.6536 31.3733 55.6936 31.88H50.6136L51.3136 28.56H54.1336L55.1736 23.74L51.9136 21.78L49.3536 33.84H49.2136L46.0536 31.42L48.8936 18.02Z" fill="#0D1238"/>
</svg>
