<svg width="82" height="96" viewBox="0 0 82 96" fill="none" xmlns="http://www.w3.org/2000/svg">
<path d="M40.9979 89.9958C63.0791 89.9958 80.9958 72.0984 80.9958 49.9979C80.9958 27.8974 63.0791 10 40.9979 10C18.9167 10 1 27.8974 1 49.9979C1 72.0984 18.8974 89.9958 40.9979 89.9958Z" stroke="#00FFFF" stroke-miterlimit="10"/>
<path d="M40.9975 85.5792C60.6575 85.5792 76.5985 69.6381 76.5985 49.9781C76.5985 30.3182 60.6575 14.3965 40.9975 14.3965C21.3375 14.3965 5.39648 30.3375 5.39648 49.9975C5.39648 69.6575 21.3375 85.5985 40.9975 85.5985V85.5792Z" stroke="#00FFFF" stroke-miterlimit="10"/>
<rect x="22.624" y="45.4375" width="7.03505" height="7.03505" transform="rotate(45 22.624 45.4375)" fill="#00FFFF"/>
<rect x="41.9268" y="26.0361" width="7.019" height="22.5246" transform="rotate(45 41.9268 26.0361)" fill="#00FFFF"/>
<rect x="50.9277" y="35" width="7.019" height="34.1293" transform="rotate(45 50.9277 35)" fill="#00FFFF"/>
<rect x="59.1328" y="44" width="7.019" height="34.1293" transform="rotate(45 59.1328 44)" fill="#00FFFF"/>
<path d="M66.2156 75H14.7477C9.34368 75 4.96289 79.2529 4.96289 84.4991V85.259C4.96289 90.5052 9.34368 94.7581 14.7477 94.7581H66.2156C71.6196 94.7581 76.0004 90.5052 76.0004 85.259V84.4991C76.0004 79.2529 71.6196 75 66.2156 75Z" fill="#00FFFF"/>
<path d="M21.7752 84.4596V87.0996H20.4552V80.0996H23.1952C23.5552 80.0996 23.8685 80.1596 24.1352 80.2796C24.4018 80.3929 24.6218 80.5463 24.7952 80.7396C24.9752 80.9263 25.1085 81.1429 25.1952 81.3896C25.2885 81.6296 25.3352 81.8763 25.3352 82.1296V82.3696C25.3352 82.6296 25.2885 82.8863 25.1952 83.1396C25.1085 83.3863 24.9752 83.6096 24.7952 83.8096C24.6218 84.0029 24.4018 84.1596 24.1352 84.2796C23.8685 84.3996 23.5552 84.4596 23.1952 84.4596H21.7752ZM21.7752 83.1996H23.0652C23.3585 83.1996 23.5885 83.1196 23.7552 82.9596C23.9285 82.7996 24.0152 82.5929 24.0152 82.3396V82.2196C24.0152 81.9663 23.9285 81.7596 23.7552 81.5996C23.5885 81.4396 23.3585 81.3596 23.0652 81.3596H21.7752V83.1996ZM31.4982 84.6796C31.4982 85.0929 31.4282 85.4596 31.2882 85.7796C31.1482 86.0929 30.9582 86.3596 30.7182 86.5796C30.4782 86.7929 30.2015 86.9563 29.8882 87.0696C29.5815 87.1829 29.2582 87.2396 28.9182 87.2396C28.5782 87.2396 28.2515 87.1829 27.9382 87.0696C27.6315 86.9563 27.3582 86.7929 27.1182 86.5796C26.8782 86.3596 26.6882 86.0929 26.5482 85.7796C26.4082 85.4596 26.3382 85.0929 26.3382 84.6796V84.5596C26.3382 84.1529 26.4082 83.7929 26.5482 83.4796C26.6882 83.1596 26.8782 82.8896 27.1182 82.6696C27.3582 82.4496 27.6315 82.2829 27.9382 82.1696C28.2515 82.0563 28.5782 81.9996 28.9182 81.9996C29.2582 81.9996 29.5815 82.0563 29.8882 82.1696C30.2015 82.2829 30.4782 82.4496 30.7182 82.6696C30.9582 82.8896 31.1482 83.1596 31.2882 83.4796C31.4282 83.7929 31.4982 84.1529 31.4982 84.5596V84.6796ZM28.9182 86.0396C29.0982 86.0396 29.2682 86.0096 29.4282 85.9496C29.5882 85.8896 29.7282 85.8029 29.8482 85.6896C29.9682 85.5763 30.0615 85.4396 30.1282 85.2796C30.2015 85.1129 30.2382 84.9263 30.2382 84.7196V84.5196C30.2382 84.3129 30.2015 84.1296 30.1282 83.9696C30.0615 83.8029 29.9682 83.6629 29.8482 83.5496C29.7282 83.4363 29.5882 83.3496 29.4282 83.2896C29.2682 83.2296 29.0982 83.1996 28.9182 83.1996C28.7382 83.1996 28.5682 83.2296 28.4082 83.2896C28.2482 83.3496 28.1082 83.4363 27.9882 83.5496C27.8682 83.6629 27.7715 83.8029 27.6982 83.9696C27.6315 84.1296 27.5982 84.3129 27.5982 84.5196V84.7196C27.5982 84.9263 27.6315 85.1129 27.6982 85.2796C27.7715 85.4396 27.8682 85.5763 27.9882 85.6896C28.1082 85.8029 28.2482 85.8896 28.4082 85.9496C28.5682 86.0096 28.7382 86.0396 28.9182 86.0396ZM32.7312 85.8996H34.4712V81.2996H32.7912V80.0996H35.7312V85.8996H37.3512V87.0996H32.7312V85.8996ZM42.2443 82.1396H43.5043V88.3196C43.5043 88.5463 43.431 88.7329 43.2843 88.8796C43.1443 89.0263 42.961 89.0996 42.7343 89.0996H39.7843V87.8996H41.9743C42.1543 87.8996 42.2443 87.7996 42.2443 87.5996V86.3796H42.0643C41.8443 86.9529 41.371 87.2396 40.6443 87.2396C40.3976 87.2396 40.1676 87.1996 39.9543 87.1196C39.741 87.0396 39.5543 86.9163 39.3943 86.7496C39.2343 86.5829 39.1076 86.3763 39.0143 86.1296C38.9276 85.8763 38.8843 85.5796 38.8843 85.2396V82.1396H40.1443V84.9796C40.1443 85.3329 40.2276 85.6096 40.3943 85.8096C40.561 86.0029 40.811 86.0996 41.1443 86.0996C41.5243 86.0996 41.801 85.9796 41.9743 85.7396C42.1543 85.4929 42.2443 85.1596 42.2443 84.7396V82.1396ZM48.5473 86.3796H48.3673C48.314 86.4929 48.2473 86.6029 48.1673 86.7096C48.094 86.8096 47.994 86.8996 47.8673 86.9796C47.7473 87.0596 47.6007 87.1229 47.4273 87.1696C47.2607 87.2163 47.0573 87.2396 46.8173 87.2396C46.5107 87.2396 46.224 87.1863 45.9573 87.0796C45.6973 86.9663 45.4673 86.8029 45.2673 86.5896C45.074 86.3696 44.9207 86.1029 44.8073 85.7896C44.7007 85.4763 44.6473 85.1163 44.6473 84.7096V84.5296C44.6473 84.1296 44.704 83.7729 44.8173 83.4596C44.9373 83.1463 45.0973 82.8829 45.2973 82.6696C45.504 82.4496 45.7407 82.2829 46.0073 82.1696C46.2807 82.0563 46.5673 81.9996 46.8673 81.9996C47.2673 81.9996 47.584 82.0763 47.8173 82.2296C48.0507 82.3763 48.234 82.5863 48.3673 82.8596H48.5473V82.1396H49.8073V88.3196C49.8073 88.5463 49.734 88.7329 49.5873 88.8796C49.4473 89.0263 49.264 89.0996 49.0373 89.0996H45.6973V87.8996H48.2773C48.4573 87.8996 48.5473 87.7996 48.5473 87.5996V86.3796ZM47.2273 86.0396C47.6207 86.0396 47.9373 85.9163 48.1773 85.6696C48.424 85.4163 48.5473 85.0863 48.5473 84.6796V84.5596C48.5473 84.1529 48.424 83.8263 48.1773 83.5796C47.9373 83.3263 47.6207 83.1996 47.2273 83.1996C46.834 83.1996 46.514 83.3229 46.2673 83.5696C46.0273 83.8096 45.9073 84.1396 45.9073 84.5596V84.6796C45.9073 85.0996 46.0273 85.4329 46.2673 85.6796C46.514 85.9196 46.834 86.0396 47.2273 86.0396ZM55.9904 84.6796C55.9904 85.0929 55.9204 85.4596 55.7804 85.7796C55.6404 86.0929 55.4504 86.3596 55.2104 86.5796C54.9704 86.7929 54.6937 86.9563 54.3804 87.0696C54.0737 87.1829 53.7504 87.2396 53.4104 87.2396C53.0704 87.2396 52.7437 87.1829 52.4304 87.0696C52.1237 86.9563 51.8504 86.7929 51.6104 86.5796C51.3704 86.3596 51.1804 86.0929 51.0404 85.7796C50.9004 85.4596 50.8304 85.0929 50.8304 84.6796V84.5596C50.8304 84.1529 50.9004 83.7929 51.0404 83.4796C51.1804 83.1596 51.3704 82.8896 51.6104 82.6696C51.8504 82.4496 52.1237 82.2829 52.4304 82.1696C52.7437 82.0563 53.0704 81.9996 53.4104 81.9996C53.7504 81.9996 54.0737 82.0563 54.3804 82.1696C54.6937 82.2829 54.9704 82.4496 55.2104 82.6696C55.4504 82.8896 55.6404 83.1596 55.7804 83.4796C55.9204 83.7929 55.9904 84.1529 55.9904 84.5596V84.6796ZM53.4104 86.0396C53.5904 86.0396 53.7604 86.0096 53.9204 85.9496C54.0804 85.8896 54.2204 85.8029 54.3404 85.6896C54.4604 85.5763 54.5537 85.4396 54.6204 85.2796C54.6937 85.1129 54.7304 84.9263 54.7304 84.7196V84.5196C54.7304 84.3129 54.6937 84.1296 54.6204 83.9696C54.5537 83.8029 54.4604 83.6629 54.3404 83.5496C54.2204 83.4363 54.0804 83.3496 53.9204 83.2896C53.7604 83.2296 53.5904 83.1996 53.4104 83.1996C53.2304 83.1996 53.0604 83.2296 52.9004 83.2896C52.7404 83.3496 52.6004 83.4363 52.4804 83.5496C52.3604 83.6629 52.2637 83.8029 52.1904 83.9696C52.1237 84.1296 52.0904 84.3129 52.0904 84.5196V84.7196C52.0904 84.9263 52.1237 85.1129 52.1904 85.2796C52.2637 85.4396 52.3604 85.5763 52.4804 85.6896C52.6004 85.8029 52.7404 85.8896 52.9004 85.9496C53.0604 86.0096 53.2304 86.0396 53.4104 86.0396ZM58.5134 87.0996H57.2534V82.1396H58.5134V82.8796H58.6934C58.8068 82.5996 58.9901 82.3829 59.2434 82.2296C59.4968 82.0763 59.7934 81.9996 60.1334 81.9996C60.3734 81.9996 60.5968 82.0396 60.8034 82.1196C61.0168 82.1929 61.2034 82.3096 61.3634 82.4696C61.5234 82.6296 61.6468 82.8329 61.7334 83.0796C61.8268 83.3263 61.8734 83.6196 61.8734 83.9596V87.0996H60.6134V84.2796C60.6134 83.9263 60.5268 83.6496 60.3534 83.4496C60.1868 83.2429 59.9434 83.1396 59.6234 83.1396C59.2501 83.1396 58.9701 83.2663 58.7834 83.5196C58.6034 83.7663 58.5134 84.0996 58.5134 84.5196V87.0996Z" fill="#0D1238"/>
</svg>
