<svg width="82" height="96" viewBox="0 0 82 96" fill="none" xmlns="http://www.w3.org/2000/svg">
<path d="M40.9979 89.9958C63.0791 89.9958 80.9958 72.0984 80.9958 49.9979C80.9958 27.8974 63.0791 10 40.9979 10C18.9167 10 1 27.8974 1 49.9979C1 72.0984 18.8974 89.9958 40.9979 89.9958Z" stroke="#00FFFF" stroke-miterlimit="10"/>
<path d="M40.9975 85.5792C60.6575 85.5792 76.5985 69.6381 76.5985 49.9781C76.5985 30.3182 60.6575 14.3965 40.9975 14.3965C21.3375 14.3965 5.39648 30.3375 5.39648 49.9975C5.39648 69.6575 21.3375 85.5985 40.9975 85.5985V85.5792Z" stroke="#00FFFF" stroke-miterlimit="10"/>
<rect x="22.624" y="45.4375" width="7.03505" height="7.03505" transform="rotate(45 22.624 45.4375)" fill="#00FFFF"/>
<rect x="41.9268" y="26.0361" width="7.019" height="22.5246" transform="rotate(45 41.9268 26.0361)" fill="#00FFFF"/>
<rect x="50.9277" y="35" width="7.019" height="34.1293" transform="rotate(45 50.9277 35)" fill="#00FFFF"/>
<rect x="59.1328" y="44" width="7.019" height="34.1293" transform="rotate(45 59.1328 44)" fill="#00FFFF"/>
<path d="M58.5262 75H24.4738C20.8984 75 18 79.305 18 84.6154V85.3846C18 90.695 20.8984 95 24.4738 95H58.5262C62.1016 95 65 90.695 65 85.3846V84.6154C65 79.305 62.1016 75 58.5262 75Z" fill="#00FFFF"/>
<path d="M33.4784 86.3337H34.1384V81.8537H33.4784V80.5937H36.5484C36.8817 80.5937 37.175 80.6404 37.4284 80.7337C37.6884 80.8271 37.905 80.9537 38.0784 81.1137C38.2584 81.2737 38.3917 81.4671 38.4784 81.6937C38.5717 81.9137 38.6184 82.1537 38.6184 82.4137V82.5337C38.6184 82.9337 38.505 83.2537 38.2784 83.4937C38.0584 83.7337 37.7784 83.9004 37.4384 83.9937V84.1737C37.7784 84.2671 38.0584 84.4371 38.2784 84.6837C38.505 84.9237 38.6184 85.2437 38.6184 85.6437V85.7637C38.6184 86.0237 38.5717 86.2671 38.4784 86.4937C38.3917 86.7137 38.2584 86.9071 38.0784 87.0737C37.905 87.2337 37.6884 87.3604 37.4284 87.4537C37.175 87.5471 36.8817 87.5938 36.5484 87.5938H33.4784V86.3337ZM35.4584 86.3337H36.4184C36.6984 86.3337 36.925 86.2737 37.0984 86.1537C37.2717 86.0337 37.3584 85.8337 37.3584 85.5537V85.4937C37.3584 85.2137 37.2717 85.0137 37.0984 84.8937C36.925 84.7737 36.6984 84.7137 36.4184 84.7137H35.4584V86.3337ZM35.4584 83.4537H36.4184C36.6984 83.4537 36.925 83.3971 37.0984 83.2837C37.2717 83.1637 37.3584 82.9637 37.3584 82.6837V82.6237C37.3584 82.3437 37.2717 82.1471 37.0984 82.0337C36.925 81.9137 36.6984 81.8537 36.4184 81.8537H35.4584V83.4537ZM43.4014 82.7337C43.4014 82.4537 43.2914 82.2104 43.0714 82.0037C42.8581 81.7971 42.5547 81.6937 42.1614 81.6937C41.8281 81.6937 41.5647 81.7637 41.3714 81.9037C41.1781 82.0371 41.0814 82.2204 41.0814 82.4538C41.0814 82.5737 41.1047 82.6837 41.1514 82.7837C41.1981 82.8771 41.2781 82.9637 41.3914 83.0437C41.5114 83.1171 41.6647 83.1837 41.8514 83.2437C42.0447 83.3037 42.2881 83.3604 42.5814 83.4137C43.3147 83.5471 43.8747 83.7704 44.2614 84.0837C44.6481 84.3971 44.8414 84.8604 44.8414 85.4737V85.5937C44.8414 85.9204 44.7814 86.2171 44.6614 86.4837C44.5481 86.7437 44.3814 86.9671 44.1614 87.1537C43.9414 87.3404 43.6747 87.4837 43.3614 87.5837C43.0481 87.6838 42.6947 87.7338 42.3014 87.7338C41.8414 87.7338 41.4347 87.6704 41.0814 87.5437C40.7347 87.4104 40.4447 87.2304 40.2114 87.0037C39.9781 86.7704 39.8014 86.5004 39.6814 86.1937C39.5614 85.8804 39.5014 85.5404 39.5014 85.1737V84.8737H40.8214V85.1137C40.8214 85.5337 40.9414 85.8704 41.1814 86.1238C41.4281 86.3704 41.8081 86.4937 42.3214 86.4937C42.7214 86.4937 43.0181 86.4071 43.2114 86.2337C43.4047 86.0604 43.5014 85.8537 43.5014 85.6137C43.5014 85.5004 43.4814 85.3937 43.4414 85.2937C43.4014 85.1871 43.3314 85.0937 43.2314 85.0137C43.1314 84.9271 42.9947 84.8504 42.8214 84.7837C42.6481 84.7171 42.4281 84.6604 42.1614 84.6137C41.8081 84.5537 41.4847 84.4771 41.1914 84.3837C40.8981 84.2837 40.6414 84.1537 40.4214 83.9937C40.2081 83.8337 40.0414 83.6337 39.9214 83.3937C39.8014 83.1537 39.7414 82.8604 39.7414 82.5137V82.4538C39.7414 82.1671 39.7981 81.9037 39.9114 81.6637C40.0314 81.4171 40.1947 81.2037 40.4014 81.0237C40.6147 80.8437 40.8681 80.7037 41.1614 80.6037C41.4614 80.5037 41.7947 80.4537 42.1614 80.4537C42.5747 80.4537 42.9414 80.5137 43.2614 80.6337C43.5814 80.7471 43.8481 80.9037 44.0614 81.1037C44.2814 81.3037 44.4447 81.5337 44.5514 81.7937C44.6647 82.0537 44.7214 82.3271 44.7214 82.6137V82.9737H43.4014V82.7337ZM48.3445 86.5337C48.5978 86.5337 48.8045 86.4971 48.9645 86.4237C49.1311 86.3437 49.2578 86.2404 49.3445 86.1137C49.4378 85.9804 49.5011 85.8304 49.5345 85.6637C49.5678 85.4904 49.5845 85.3137 49.5845 85.1337V84.9538H50.9045V85.1337C50.9045 85.9671 50.6845 86.6104 50.2445 87.0637C49.8111 87.5104 49.1778 87.7338 48.3445 87.7338C47.5445 87.7338 46.9111 87.4904 46.4445 87.0037C45.9778 86.5171 45.7445 85.8071 45.7445 84.8737V83.3137C45.7445 82.8671 45.8045 82.4671 45.9245 82.1137C46.0445 81.7537 46.2178 81.4537 46.4445 81.2137C46.6711 80.9671 46.9445 80.7804 47.2645 80.6537C47.5845 80.5204 47.9445 80.4537 48.3445 80.4537C48.7578 80.4537 49.1245 80.5137 49.4445 80.6337C49.7645 80.7537 50.0311 80.9271 50.2445 81.1537C50.4645 81.3804 50.6278 81.6537 50.7345 81.9737C50.8478 82.2937 50.9045 82.6537 50.9045 83.0537V83.2337H49.5845V83.0537C49.5845 82.8871 49.5645 82.7204 49.5245 82.5537C49.4845 82.3871 49.4178 82.2371 49.3245 82.1037C49.2311 81.9704 49.1045 81.8637 48.9445 81.7837C48.7845 81.6971 48.5845 81.6537 48.3445 81.6537C48.1245 81.6537 47.9345 81.6971 47.7745 81.7837C47.6145 81.8637 47.4811 81.9771 47.3745 82.1237C47.2678 82.2637 47.1878 82.4304 47.1345 82.6237C47.0878 82.8104 47.0645 83.0071 47.0645 83.2137V84.9737C47.0645 85.2004 47.0878 85.4104 47.1345 85.6037C47.1811 85.7904 47.2545 85.9537 47.3545 86.0937C47.4545 86.2337 47.5845 86.3437 47.7445 86.4237C47.9111 86.4971 48.1111 86.5337 48.3445 86.5337Z" fill="#0D1238"/>
<path d="M54.2717 0H27.2065C22.9385 0 19.4785 4.18279 19.4785 9.34252V10.0899C19.4785 15.2497 22.9385 19.4324 27.2065 19.4324H54.2717C58.5397 19.4324 61.9996 15.2497 61.9996 10.0899V9.34252C61.9996 4.18279 58.5397 0 54.2717 0Z" fill="#00FFFF"/>
<path d="M26.0768 13.362H26.9348V7.538H26.0768V5.9H30.0678C30.5012 5.9 30.8825 5.96067 31.2118 6.082C31.5498 6.20333 31.8315 6.368 32.0568 6.576C32.2908 6.784 32.4642 7.03533 32.5768 7.33C32.6982 7.616 32.7588 7.928 32.7588 8.266V8.422C32.7588 8.942 32.6115 9.358 32.3168 9.67C32.0308 9.982 31.6668 10.1987 31.2248 10.32V10.554C31.6668 10.6753 32.0308 10.8963 32.3168 11.217C32.6115 11.529 32.7588 11.945 32.7588 12.465V12.621C32.7588 12.959 32.6982 13.2753 32.5768 13.57C32.4642 13.856 32.2908 14.1073 32.0568 14.324C31.8315 14.532 31.5498 14.6967 31.2118 14.818C30.8825 14.9393 30.5012 15 30.0678 15H26.0768V13.362ZM28.6508 13.362H29.8988C30.2628 13.362 30.5575 13.284 30.7828 13.128C31.0082 12.972 31.1208 12.712 31.1208 12.348V12.27C31.1208 11.906 31.0082 11.646 30.7828 11.49C30.5575 11.334 30.2628 11.256 29.8988 11.256H28.6508V13.362ZM28.6508 9.618H29.8988C30.2628 9.618 30.5575 9.54433 30.7828 9.397C31.0082 9.241 31.1208 8.981 31.1208 8.617V8.539C31.1208 8.175 31.0082 7.91933 30.7828 7.772C30.5575 7.616 30.2628 7.538 29.8988 7.538H28.6508V9.618ZM40.6928 5.9V11.854C40.6928 12.894 40.4155 13.7087 39.8608 14.298C39.3148 14.8873 38.5001 15.182 37.4168 15.182C36.3335 15.182 35.5145 14.8873 34.9598 14.298C34.4138 13.7087 34.1408 12.894 34.1408 11.854V5.9H35.8568V11.854C35.8568 12.3913 35.9825 12.8117 36.2338 13.115C36.4851 13.4183 36.8795 13.57 37.4168 13.57C37.9541 13.57 38.3485 13.4183 38.5998 13.115C38.8511 12.8117 38.9768 12.3913 38.9768 11.854V5.9H40.6928ZM46.9368 8.682C46.9368 8.318 46.7938 8.00167 46.5078 7.733C46.2304 7.46433 45.8361 7.33 45.3248 7.33C44.8914 7.33 44.5491 7.421 44.2978 7.603C44.0464 7.77633 43.9208 8.01467 43.9208 8.318C43.9208 8.474 43.9511 8.617 44.0118 8.747C44.0724 8.86833 44.1764 8.981 44.3238 9.085C44.4798 9.18033 44.6791 9.267 44.9218 9.345C45.1731 9.423 45.4894 9.49667 45.8708 9.566C46.8241 9.73933 47.5521 10.0297 48.0548 10.437C48.5574 10.8443 48.8088 11.4467 48.8088 12.244V12.4C48.8088 12.8247 48.7308 13.2103 48.5748 13.557C48.4274 13.895 48.2108 14.1853 47.9248 14.428C47.6388 14.6707 47.2921 14.857 46.8848 14.987C46.4774 15.117 46.0181 15.182 45.5068 15.182C44.9088 15.182 44.3801 15.0997 43.9208 14.935C43.4701 14.7617 43.0931 14.5277 42.7898 14.233C42.4864 13.9297 42.2568 13.5787 42.1008 13.18C41.9448 12.7727 41.8668 12.3307 41.8668 11.854V11.464H43.5828V11.776C43.5828 12.322 43.7388 12.7597 44.0508 13.089C44.3714 13.4097 44.8654 13.57 45.5328 13.57C46.0528 13.57 46.4384 13.4573 46.6898 13.232C46.9411 13.0067 47.0668 12.738 47.0668 12.426C47.0668 12.2787 47.0408 12.14 46.9888 12.01C46.9368 11.8713 46.8458 11.75 46.7158 11.646C46.5858 11.5333 46.4081 11.4337 46.1828 11.347C45.9574 11.2603 45.6714 11.1867 45.3248 11.126C44.8654 11.048 44.4451 10.9483 44.0638 10.827C43.6824 10.697 43.3488 10.528 43.0628 10.32C42.7854 10.112 42.5688 9.852 42.4128 9.54C42.2568 9.228 42.1788 8.84667 42.1788 8.396V8.318C42.1788 7.94533 42.2524 7.603 42.3998 7.291C42.5558 6.97033 42.7681 6.693 43.0368 6.459C43.3141 6.225 43.6434 6.043 44.0248 5.913C44.4148 5.783 44.8481 5.718 45.3248 5.718C45.8621 5.718 46.3388 5.796 46.7548 5.952C47.1708 6.09933 47.5174 6.303 47.7948 6.563C48.0808 6.823 48.2931 7.122 48.4318 7.46C48.5791 7.798 48.6528 8.15333 48.6528 8.526V8.994H46.9368V8.682ZM49.9567 5.9H53.2587C54.3854 5.9 55.2217 6.16433 55.7677 6.693C56.3137 7.213 56.5867 8.02333 56.5867 9.124V11.776C56.5867 12.8767 56.3137 13.6913 55.7677 14.22C55.2217 14.74 54.3854 15 53.2587 15H49.9567V13.349H50.8147V7.538H49.9567V5.9ZM53.2587 13.362C53.8567 13.362 54.2727 13.2233 54.5067 12.946C54.7494 12.66 54.8707 12.218 54.8707 11.62V9.124C54.8707 8.604 54.7494 8.20967 54.5067 7.941C54.2727 7.67233 53.8567 7.538 53.2587 7.538H52.5307V13.362H53.2587Z" fill="#0D1238"/>
</svg>
