<svg width="43" height="44" viewBox="0 0 43 44" fill="none" xmlns="http://www.w3.org/2000/svg">
<path d="M21.7384 42.4768C33.1872 42.4768 42.4768 33.1972 42.4768 21.7384C42.4768 10.2796 33.1872 1 21.7384 1C10.2896 1 1 10.2796 1 21.7384C1 33.1972 10.2796 42.4768 21.7384 42.4768Z" stroke="#00FFFF" stroke-miterlimit="10"/>
<path d="M21.7375 40.1871C31.9309 40.1871 40.1962 31.9219 40.1962 21.7284C40.1962 11.535 31.9309 3.27979 21.7375 3.27979C11.544 3.27979 3.27881 11.545 3.27881 21.7385C3.27881 31.9319 11.544 40.1972 21.7375 40.1972V40.1871Z" stroke="#00FFFF" stroke-miterlimit="10"/>
<rect x="12.2119" y="19.3735" width="3.64758" height="3.64758" transform="rotate(45 12.2119 19.3735)" fill="#00FFFF"/>
<rect x="22.2202" y="9.31445" width="3.63926" height="11.6787" transform="rotate(45 22.2202 9.31445)" fill="#00FFFF"/>
<rect x="26.8877" y="13.9624" width="3.63926" height="17.6956" transform="rotate(45 26.8877 13.9624)" fill="#00FFFF"/>
<rect x="31.1421" y="18.6289" width="3.63926" height="17.6956" transform="rotate(45 31.1421 18.6289)" fill="#00FFFF"/>
<path d="M35.3 33H9C6.23858 33 4 35.2386 4 38V38.4C4 41.1614 6.23858 43.4 9 43.4H35.3C38.0614 43.4 40.3 41.1614 40.3 38.4V38C40.3 35.2386 38.0614 33 35.3 33Z" fill="#00FFFF"/>
<path d="M16.3928 39.118H16.8548V35.982H16.3928V35.1H18.5418C18.7751 35.1 18.9805 35.1327 19.1578 35.198C19.3398 35.2633 19.4915 35.352 19.6128 35.464C19.7388 35.576 19.8321 35.7113 19.8928 35.87C19.9581 36.024 19.9908 36.192 19.9908 36.374V36.458C19.9908 36.738 19.9115 36.962 19.7528 37.13C19.5988 37.298 19.4028 37.4147 19.1648 37.48V37.606C19.4028 37.6713 19.5988 37.7903 19.7528 37.963C19.9115 38.131 19.9908 38.355 19.9908 38.635V38.719C19.9908 38.901 19.9581 39.0713 19.8928 39.23C19.8321 39.384 19.7388 39.5193 19.6128 39.636C19.4915 39.748 19.3398 39.8367 19.1578 39.902C18.9805 39.9673 18.7751 40 18.5418 40H16.3928V39.118ZM17.7788 39.118H18.4508C18.6468 39.118 18.8055 39.076 18.9268 38.992C19.0481 38.908 19.1088 38.768 19.1088 38.572V38.53C19.1088 38.334 19.0481 38.194 18.9268 38.11C18.8055 38.026 18.6468 37.984 18.4508 37.984H17.7788V39.118ZM17.7788 37.102H18.4508C18.6468 37.102 18.8055 37.0623 18.9268 36.983C19.0481 36.899 19.1088 36.759 19.1088 36.563V36.521C19.1088 36.325 19.0481 36.1873 18.9268 36.108C18.8055 36.024 18.6468 35.982 18.4508 35.982H17.7788V37.102ZM23.3389 36.598C23.3389 36.402 23.2619 36.2317 23.1079 36.087C22.9586 35.9423 22.7463 35.87 22.4709 35.87C22.2376 35.87 22.0533 35.919 21.9179 36.017C21.7826 36.1103 21.7149 36.2387 21.7149 36.402C21.7149 36.486 21.7313 36.563 21.7639 36.633C21.7966 36.6983 21.8526 36.759 21.9319 36.815C22.0159 36.8663 22.1233 36.913 22.2539 36.955C22.3893 36.997 22.5596 37.0367 22.7649 37.074C23.2783 37.1673 23.6703 37.3237 23.9409 37.543C24.2116 37.7623 24.3469 38.0867 24.3469 38.516V38.6C24.3469 38.8287 24.3049 39.0363 24.2209 39.223C24.1416 39.405 24.0249 39.5613 23.8709 39.692C23.7169 39.8227 23.5303 39.923 23.3109 39.993C23.0916 40.063 22.8443 40.098 22.5689 40.098C22.2469 40.098 21.9623 40.0537 21.7149 39.965C21.4723 39.8717 21.2693 39.7457 21.1059 39.587C20.9426 39.4237 20.8189 39.2347 20.7349 39.02C20.6509 38.8007 20.6089 38.5627 20.6089 38.306V38.096H21.5329V38.264C21.5329 38.558 21.6169 38.7937 21.7849 38.971C21.9576 39.1437 22.2236 39.23 22.5829 39.23C22.8629 39.23 23.0706 39.1693 23.2059 39.048C23.3413 38.9267 23.4089 38.782 23.4089 38.614C23.4089 38.5347 23.3949 38.46 23.3669 38.39C23.3389 38.3153 23.2899 38.25 23.2199 38.194C23.1499 38.1333 23.0543 38.0797 22.9329 38.033C22.8116 37.9863 22.6576 37.9467 22.4709 37.914C22.2236 37.872 21.9973 37.8183 21.7919 37.753C21.5866 37.683 21.4069 37.592 21.2529 37.48C21.1036 37.368 20.9869 37.228 20.9029 37.06C20.8189 36.892 20.7769 36.6867 20.7769 36.444V36.402C20.7769 36.2013 20.8166 36.017 20.8959 35.849C20.9799 35.6763 21.0943 35.527 21.2389 35.401C21.3883 35.275 21.5656 35.177 21.7709 35.107C21.9809 35.037 22.2143 35.002 22.4709 35.002C22.7603 35.002 23.0169 35.044 23.2409 35.128C23.4649 35.2073 23.6516 35.317 23.8009 35.457C23.9549 35.597 24.0693 35.758 24.1439 35.94C24.2233 36.122 24.2629 36.3133 24.2629 36.514V36.766H23.3389V36.598ZM26.7991 39.258C26.9764 39.258 27.1211 39.2323 27.2331 39.181C27.3497 39.125 27.4384 39.0527 27.4991 38.964C27.5644 38.8707 27.6087 38.7657 27.6321 38.649C27.6554 38.5277 27.6671 38.404 27.6671 38.278V38.152H28.5911V38.278C28.5911 38.8613 28.4371 39.3117 28.1291 39.629C27.8257 39.9417 27.3824 40.098 26.7991 40.098C26.2391 40.098 25.7957 39.9277 25.4691 39.587C25.1424 39.2463 24.9791 38.7493 24.9791 38.096V37.004C24.9791 36.6913 25.0211 36.4113 25.1051 36.164C25.1891 35.912 25.3104 35.702 25.4691 35.534C25.6277 35.3613 25.8191 35.2307 26.0431 35.142C26.2671 35.0487 26.5191 35.002 26.7991 35.002C27.0884 35.002 27.3451 35.044 27.5691 35.128C27.7931 35.212 27.9797 35.3333 28.1291 35.492C28.2831 35.6507 28.3974 35.842 28.4721 36.066C28.5514 36.29 28.5911 36.542 28.5911 36.822V36.948H27.6671V36.822C27.6671 36.7053 27.6531 36.5887 27.6251 36.472C27.5971 36.3553 27.5504 36.2503 27.4851 36.157C27.4197 36.0637 27.3311 35.989 27.2191 35.933C27.1071 35.8723 26.9671 35.842 26.7991 35.842C26.6451 35.842 26.5121 35.8723 26.4001 35.933C26.2881 35.989 26.1947 36.0683 26.1201 36.171C26.0454 36.269 25.9894 36.3857 25.9521 36.521C25.9194 36.6517 25.9031 36.7893 25.9031 36.934V38.166C25.9031 38.3247 25.9194 38.4717 25.9521 38.607C25.9847 38.7377 26.0361 38.852 26.1061 38.95C26.1761 39.048 26.2671 39.125 26.3791 39.181C26.4957 39.2323 26.6357 39.258 26.7991 39.258Z" fill="#0D1238"/>
</svg>
