<?xml version="1.0" encoding="UTF-8" standalone="no"?>
<svg
   width="1559.752"
   height="1187.5164"
   viewBox="0 0 1559.752 1187.5164"
   fill="none"
   version="1.1"
   id="svg10"
   xmlns="http://www.w3.org/2000/svg"
   xmlns:svg="http://www.w3.org/2000/svg">
  <defs
     id="defs14" />
  <path
     d="m 294.79737,29.269798 0.5995,0.718387 h 0.93585 899.00928 0.7599 l 0.5679,-0.504115 17.4533,-15.489361 h 316.7697 l 26.8598,26.81826 V 1160.6989 l -24.8562,24.8179 h -402.8 l -11.4302,-11.4113 -0.5839,-0.5838 h -0.8279 -672.75319 -0.82787 l -0.5879,0.5838 -11.42619,11.4113 H 28.815739 L 1.9994349,1160.655 V 42.855736 L 28.815778,17.993077 H 285.38566 Z"
     fill="#00ffff"
     fill-opacity="0.08"
     stroke="#00ffff"
     id="path2"
     style="stroke-width:3.99887" />
  <path
     d="M 753.46818,0 741.17813,13.13178 519.91724,13.129581 531.21145,0 Z"
     fill="#ff0049"
     id="path4"
     style="stroke-width:3.99887" />
  <path
     d="m 873.92506,0 -12.29004,13.13178 -73.7523,-0.0022 L 799.17693,0 Z"
     fill="#ff0049"
     id="path6"
     style="stroke-width:3.99887" />
  <path
     d="m 1173.8734,0 -12.294,13.13178 -185.73451,-0.0022 L 987.13909,0 Z"
     fill="#00ffff"
     id="path8"
     style="stroke-width:3.99887" />
</svg>
