<svg width="43" height="44" viewBox="0 0 43 44" fill="none"
    xmlns="http://www.w3.org/2000/svg">
    <path d="M21.5656 33.7369C20.7692 32.9201 19.9729 32.1033 19.1663 31.2866C17.6247 29.7348 16.0729 28.1829 14.5312 26.6311C14.4904 26.5902 14.4496 26.5392 14.4189 26.5188C15.3072 25.6408 16.1852 24.7628 17.0632 23.895C18.5436 25.3753 20.0648 26.8863 21.5758 28.3973C23.1378 26.8455 24.659 25.3243 26.1598 23.8235C27.0786 24.7423 27.9464 25.6203 28.9061 26.5902C28.8245 26.6413 28.6611 26.7128 28.559 26.8251C26.3436 29.0405 24.1281 31.2662 21.9127 33.4918C21.8412 33.5633 21.7799 33.6552 21.7085 33.7471H21.5656V33.7369Z" fill="#00FFFF" stroke="#00FFFF" stroke-width="0.5" stroke-miterlimit="10"/>
    <path d="M21.719 10.1123C21.8007 10.2144 21.862 10.3267 21.9539 10.4186C24.1693 12.6545 26.395 14.8801 28.6206 17.116C28.7023 17.1977 28.784 17.2895 28.8759 17.3916C27.9876 18.2594 27.1096 19.1272 26.2418 19.9746C24.7512 18.484 23.23 16.973 21.7088 15.4518C20.1366 17.0241 18.6154 18.5351 17.1146 20.0359C16.1957 19.1272 15.3177 18.2594 14.3887 17.3304C15.3484 16.3911 16.3387 15.4314 17.3188 14.4615C18.6664 13.1139 20.0141 11.7662 21.3617 10.4084C21.4434 10.3267 21.5046 10.2144 21.5761 10.1225C21.6272 10.1225 21.6782 10.1225 21.719 10.1225V10.1123Z" fill="#00FFFF" stroke="#00FFFF" stroke-width="0.5" stroke-miterlimit="10"/>
    <path d="M33.4594 21.9962C33.2654 22.1596 33.0714 22.3229 32.8877 22.4965C32.1832 23.1805 31.489 23.8748 30.8049 24.5486C29.9269 23.6706 29.0489 22.7926 28.1709 21.9248C29.0489 21.057 29.9269 20.1892 30.8458 19.2805C31.6932 20.1381 32.5712 21.0263 33.4492 21.9146V21.986L33.4594 21.9962Z" fill="#00FFFF" stroke="#00FFFF" stroke-width="0.5" stroke-miterlimit="10"/>
    <path d="M9.83496 21.9246C10.713 21.0466 11.5808 20.1584 12.4384 19.3008C13.3266 20.1992 14.2046 21.067 15.0724 21.9348C14.225 22.7618 13.3368 23.6296 12.4384 24.5076C11.7237 23.7929 10.9478 23.0272 10.1719 22.2615C10.0698 22.1594 9.94726 22.088 9.83496 21.9961C9.83496 21.9757 9.83496 21.945 9.83496 21.9246Z" fill="#00FFFF" stroke="#00FFFF" stroke-width="0.5" stroke-miterlimit="10"/>
    <path d="M19.0239 21.9144C19.8917 21.0466 20.7697 20.1686 21.6375 19.3008C22.5053 20.1686 23.3935 21.0466 24.2613 21.9144C23.3833 22.772 22.4849 23.65 21.5967 24.5178C20.7799 23.6908 19.8917 22.8026 19.0137 21.9144H19.0239Z" fill="#00FFFF" stroke="#00FFFF" stroke-width="0.5" stroke-miterlimit="10"/>
    <path d="M21.6476 42.514C33.051 42.514 42.2953 33.2698 42.2953 21.8664C42.2953 10.463 33.051 1.21875 21.6476 1.21875C10.2443 1.21875 1 10.463 1 21.8664C1 33.2698 10.2443 42.514 21.6476 42.514Z" stroke="#00FFFF" stroke-miterlimit="10"/>
    <path d="M21.6475 40.2415C31.7957 40.2415 40.0225 32.0147 40.0225 21.8665C40.0225 11.7182 31.7957 3.49146 21.6475 3.49146C11.4992 3.49146 3.27246 11.7182 3.27246 21.8665C3.27246 32.0147 11.4992 40.2415 21.6475 40.2415Z" stroke="#00FFFF" stroke-miterlimit="10"/>
</svg>
