<svg width="390" height="187" viewBox="0 0 390 187" fill="none"
    xmlns="http://www.w3.org/2000/svg">
    <defs>
        <filter id="filter0_d_532_3163" x="-4" y="61" width="398" height="145" filterUnits="userSpaceOnUse" color-interpolation-filters="sRGB">
            <feFlood flood-opacity="0" result="BackgroundImageFix"/>
            <feColorMatrix in="SourceAlpha" type="matrix" values="0 0 0 0 0 0 0 0 0 0 0 0 0 0 0 0 0 0 127 0" result="hardAlpha"/>
            <feOffset dy="-4"/>
            <feGaussianBlur stdDeviation="2"/>
            <feComposite in2="hardAlpha" operator="out"/>
            <feColorMatrix type="matrix" values="0 0 0 0 0 0 0 0 0 0 0 0 0 0 0 0 0 0 0.16 0"/>
            <feBlend mode="normal" in2="BackgroundImageFix" result="effect1_dropShadow_532_3163"/>
            <feBlend mode="normal" in="SourceGraphic" in2="effect1_dropShadow_532_3163" result="shape"/>
        </filter>
        <linearGradient id="paint0_linear_532_3163" x1="195.5" y1="0" x2="195.5" y2="187" gradientUnits="userSpaceOnUse">
            <stop stop-color="#0D1238" stop-opacity="0"/>
            <stop offset="0.442708" stop-color="#0D1238"/>
        </linearGradient>
        <linearGradient id="paint1_linear_532_3163" x1="195" y1="69" x2="195" y2="227" gradientUnits="userSpaceOnUse">
            <stop stop-color="#00E3FF"/>
            <stop offset="1" stop-color="#FF0000"/>
        </linearGradient>
        <linearGradient id="paint2_linear_532_3163" x1="0" y1="69" x2="390" y2="69" gradientUnits="userSpaceOnUse">
            <stop stop-color="#00E3FF" stop-opacity="0"/>
            <stop offset="0.427083" stop-color="#00E3FF"/>
            <stop offset="0.578205" stop-color="#FF0000"/>
            <stop offset="1" stop-color="#FF0000" stop-opacity="0"/>
        </linearGradient>
    </defs>
    <rect width="391" height="187" fill="url(#paint0_linear_532_3163)"/>
    <g filter="url(#filter0_d_532_3163)">
        <mask id="path-2-inside-1_532_3163" fill="white">
            <path fill-rule="evenodd" clip-rule="evenodd" d="M174.751 202.886C171.271 201.784 167.679 201 164.03 201H28C12.5361 201 0 188.464 0 173V111C0 95.536 12.536 83 28 83H144.431C150.639 83 156.571 80.7593 161.969 77.6946C171.717 72.1602 182.99 69 195 69C207.011 69 218.283 72.1603 228.031 77.6946C233.429 80.7593 239.362 83 245.569 83H362C377.464 83 390 95.536 390 111V173C390 188.464 377.464 201 362 201H225.971C222.321 201 218.729 201.784 215.249 202.886C208.861 204.909 202.058 206 195 206C187.942 206 181.139 204.909 174.751 202.886Z"/>
        </mask>
        <path fill-rule="evenodd" clip-rule="evenodd" d="M174.751 202.886C171.271 201.784 167.679 201 164.03 201H28C12.5361 201 0 188.464 0 173V111C0 95.536 12.536 83 28 83H144.431C150.639 83 156.571 80.7593 161.969 77.6946C171.717 72.1602 182.99 69 195 69C207.011 69 218.283 72.1603 228.031 77.6946C233.429 80.7593 239.362 83 245.569 83H362C377.464 83 390 95.536 390 111V173C390 188.464 377.464 201 362 201H225.971C222.321 201 218.729 201.784 215.249 202.886C208.861 204.909 202.058 206 195 206C187.942 206 181.139 204.909 174.751 202.886Z" fill="url(#paint1_linear_532_3163)" fill-opacity="0.1" shape-rendering="crispEdges"/>
        <path d="M215.249 202.886L215.702 204.316L215.249 202.886ZM161.969 77.6946L162.71 78.999L161.969 77.6946ZM228.031 77.6946L227.29 78.999L228.031 77.6946ZM174.751 202.886L174.298 204.316L174.751 202.886ZM164.03 199.5H28V202.5H164.03V199.5ZM1.5 173V111H-1.5V173H1.5ZM28 84.5H144.431V81.5H28V84.5ZM162.71 78.999C172.238 73.5895 183.256 70.5 195 70.5V67.5C182.723 67.5 171.196 70.731 161.229 76.3901L162.71 78.999ZM195 70.5C206.744 70.5 217.762 73.5895 227.29 78.999L228.772 76.3901C218.804 70.731 207.277 67.5 195 67.5V70.5ZM245.569 84.5H362V81.5H245.569V84.5ZM388.5 111V173H391.5V111H388.5ZM362 199.5H225.971V202.5H362V199.5ZM214.797 201.456C208.553 203.433 201.902 204.5 195 204.5V207.5C202.213 207.5 209.169 206.385 215.702 204.316L214.797 201.456ZM195 204.5C188.098 204.5 181.447 203.433 175.204 201.456L174.298 204.316C180.831 206.385 187.787 207.5 195 207.5V204.5ZM225.971 199.5C222.111 199.5 218.356 200.328 214.797 201.456L215.702 204.316C219.101 203.239 222.531 202.5 225.971 202.5V199.5ZM388.5 173C388.5 187.636 376.636 199.5 362 199.5V202.5C378.292 202.5 391.5 189.292 391.5 173H388.5ZM362 84.5C376.636 84.5 388.5 96.3645 388.5 111H391.5C391.5 94.7076 378.292 81.5 362 81.5V84.5ZM144.431 84.5C150.997 84.5 157.191 82.1325 162.71 78.999L161.229 76.3901C155.952 79.3861 150.281 81.5 144.431 81.5V84.5ZM1.5 111C1.5 96.3645 13.3645 84.5 28 84.5V81.5C11.7076 81.5 -1.5 94.7076 -1.5 111H1.5ZM28 199.5C13.3645 199.5 1.5 187.636 1.5 173H-1.5C-1.5 189.292 11.7076 202.5 28 202.5V199.5ZM227.29 78.999C232.81 82.1325 239.003 84.5 245.569 84.5V81.5C239.72 81.5 234.049 79.3861 228.772 76.3901L227.29 78.999ZM164.03 202.5C167.469 202.5 170.899 203.239 174.298 204.316L175.204 201.456C171.644 200.328 167.889 199.5 164.03 199.5V202.5Z" fill="url(#paint2_linear_532_3163)" mask="url(#path-2-inside-1_532_3163)"/>
    </g>
    <rect x="128" y="171.907" width="134" height="5" rx="2.5" fill="white" fill-opacity="0.12"/>

</svg>
