<svg width="169" height="45" viewBox="0 0 169 45" fill="none" xmlns="http://www.w3.org/2000/svg">
<path d="M149.5 43.5996L48 43.5996" stroke="white" stroke-miterlimit="10"/>
<path d="M0 43.6V28.112L26.1451 0H169V20.5248L150.199 39.4476H45.5L43.0498 43.6H0Z" fill="#00FFFF"/>
<path d="M26.3318 13.117H33.9648C34.6221 13.117 35.0131 13.4513 35.1378 14.12L34.3898 17.69L32.4688 18.948L33.9138 19.917L32.8258 25H27.3518L27.9128 22.348H30.4628L30.8708 20.478L27.9468 19.254L26.7398 24.915L23.4418 26.7L26.3318 13.117ZM28.6948 15.752L28.0998 18.557L31.6018 17.01L31.8738 15.752H28.6948ZM41.6481 13.389L39.8121 22.076H42.8211L44.6911 13.253L47.4791 14.936L45.5411 24.031C45.1331 24.6883 44.6911 25.017 44.2151 25.017H36.1741L39.0301 11.57L41.6481 13.389ZM51.0682 13.1H54.0772L53.4142 16.16L55.6242 17.537L54.9102 20.869L50.0312 17.962L51.0682 13.1ZM57.0692 13.1H60.1972L57.6812 24.898H49.6742L52.1562 22.127H55.1482L57.0692 13.1ZM71.3861 13.117H77.0811L78.6791 15.939H72.5421L72.1681 17.673H77.5741C78.0728 18.0923 78.2541 18.6137 78.1181 19.237L77.1321 23.946C77.0301 24.3767 76.5258 24.694 75.6191 24.898H70.3491L68.4281 22.229H74.4121L74.8201 20.342H69.9921C69.1195 20.342 68.7568 19.9737 68.9041 19.237L69.9751 14.256C70.0998 13.6553 70.5701 13.2757 71.3861 13.117ZM82.6589 13.117H90.8019C91.4592 13.3097 91.6859 13.8027 91.4819 14.596L89.2719 25H86.2799L87.4359 19.543L83.9509 21.141L82.7779 26.666L80.1429 24.966L81.2479 19.747L88.0989 16.432L88.2689 15.599H85.1239L84.6989 17.571L81.3669 19.203L82.6589 13.117ZM95.105 13.1H106.954C107.691 13.2927 107.974 13.7857 107.804 14.579L106.104 22.586L102.313 24.643L104.251 15.565H102.84L101.361 22.45L97.383 24.779L99.355 15.565H97.944L96.057 24.371L92.249 26.564L95.105 13.1ZM114.423 13.389L112.587 22.076H115.596L117.466 13.253L120.254 14.936L118.316 24.031C117.908 24.6883 117.466 25.017 116.99 25.017H108.949L111.805 11.57L114.423 13.389ZM125.101 20.937L124.251 24.898L120.97 26.768L123.86 13.202L126.155 15.956L125.815 17.588L127.294 18.761L128.909 17.843L129.334 15.837H126.614L124.251 13.1H132.003C132.626 13.4627 132.847 14.086 132.666 14.97L131.714 19.424L129.538 20.495L131.187 21.77L130.473 25.153L127.515 26.785L128.229 23.402L125.101 20.937ZM136.272 13.117H144.415C145.072 13.3097 145.299 13.8027 145.095 14.596L142.885 25H139.893L141.049 19.543L137.564 21.141L136.391 26.666L133.756 24.966L134.861 19.747L141.712 16.432L141.882 15.599H138.737L138.312 17.571L134.98 19.203L136.272 13.117ZM149.16 24.983H146.168L148.65 13.27L152.084 11.196L149.16 24.983Z" fill="#0D1238"/>
</svg>
