<svg width="44" height="44" viewBox="0 0 44 44" fill="none"
    xmlns="http://www.w3.org/2000/svg">
    <path d="M22.0549 40.5246C32.1951 40.5246 40.4154 32.3043 40.4154 22.164C40.4154 12.0238 32.1951 3.80347 22.0549 3.80347C11.9146 3.80347 3.69434 12.0238 3.69434 22.164C3.69434 32.3043 11.9146 40.5246 22.0549 40.5246Z" stroke="#00FFFF" stroke-miterlimit="10"/>
    <path d="M5.2433 29.5591C4.2079 27.2314 3.67544 24.7114 3.6807 22.1637C3.6817 17.8168 5.22382 13.611 8.03299 10.2938C10.8422 6.97656 14.7365 4.7627 19.0238 4.04565V16.3175L5.2433 29.5591Z" fill="#00FFFF"/>
    <path d="M22.0547 43.2188C33.6829 43.2188 43.1094 33.7922 43.1094 22.1641C43.1094 10.5359 33.6829 1.10938 22.0547 1.10938C10.4265 1.10938 1 10.5359 1 22.1641C1 33.7922 10.4265 43.2188 22.0547 43.2188Z" stroke="#00FFFF" stroke-miterlimit="10"/>
    <path d="M10.6453 25.8011C9.92962 25.4172 9.33316 24.8441 8.92108 24.1442C8.59988 23.6128 8.38976 23.0218 8.30342 22.4068C8.21707 21.7919 8.25629 21.1659 8.41872 20.5666C8.58114 19.9672 8.86339 19.4071 9.24841 18.9199C9.63342 18.4327 10.1132 18.0287 10.6588 17.7322C11.3469 17.3827 12.1011 17.1829 12.8719 17.1457C13.6427 17.1086 14.4126 17.235 15.1311 17.5166C15.7308 17.764 16.2621 18.1521 16.6802 18.6482L15.6025 19.6585C15.2989 19.3214 14.9266 19.0533 14.5107 18.872C14.0948 18.6908 13.6449 18.6007 13.1913 18.6077C12.6136 18.5993 12.0433 18.7384 11.5344 19.0119C11.0598 19.2758 10.6645 19.6618 10.3894 20.1299C10.1239 20.6346 9.9852 21.1964 9.9852 21.7666C9.9852 22.3369 10.1239 22.8986 10.3894 23.4033C10.6645 23.8714 11.0598 24.2575 11.5344 24.5214C12.0433 24.7949 12.6136 24.934 13.1913 24.9255C13.6463 24.9335 14.0977 24.8425 14.514 24.6588C14.9304 24.475 15.3018 24.2029 15.6025 23.8613L16.6802 24.8851C16.2606 25.3762 15.7294 25.7596 15.1311 26.0032C14.49 26.2657 13.8032 26.3984 13.1105 26.3938C12.2521 26.4055 11.4045 26.2017 10.6453 25.8011Z" fill="#00FFFF"/>
    <path d="M15.1311 17.5166C14.4127 17.235 13.6427 17.1086 12.8719 17.1457C12.1011 17.1829 11.3469 17.3827 10.6589 17.7322C9.57888 18.3527 8.7893 19.3765 8.4635 20.5787C8.13769 21.7809 8.30228 23.0632 8.92113 24.1442C9.15712 24.5335 9.45256 24.8835 9.79673 25.1814L10.9417 24.0903C10.725 23.8896 10.5389 23.6581 10.3894 23.4033C10.124 22.8986 9.98525 22.3369 9.98525 21.7666C9.98525 21.1964 10.124 20.6346 10.3894 20.1299C10.6646 19.6618 11.0599 19.2758 11.5344 19.0119C12.0434 18.7384 12.6137 18.5993 13.1913 18.6077C13.6388 18.5985 14.083 18.6851 14.4942 18.8617C14.9055 19.0383 15.2742 19.3007 15.5756 19.6315L16.6398 18.6077C16.2287 18.1316 15.7121 17.7579 15.1311 17.5166Z" fill="#0D1238"/>
    <path d="M19.751 17.3958H21.4213V24.9797H26.1226V26.3942H19.751V17.3958Z" fill="#00FFFF"/>
    <path d="M30.4877 25.8011C29.772 25.4172 29.1755 24.8441 28.7634 24.1442C28.3576 23.4175 28.1445 22.599 28.1445 21.7666C28.1445 20.9343 28.3576 20.1158 28.7634 19.389C29.1808 18.6887 29.7817 18.1157 30.5011 17.7322C31.1892 17.3827 31.9434 17.1829 32.7142 17.1457C33.485 17.1086 34.255 17.235 34.9734 17.5166C35.5701 17.7693 36.1003 18.1566 36.5225 18.6482L35.4449 19.6585C35.1412 19.3214 34.7689 19.0533 34.353 18.872C33.9371 18.6908 33.4873 18.6007 33.0336 18.6077C32.4557 18.5974 31.885 18.7367 31.3767 19.0119C30.8994 19.2719 30.5031 19.6589 30.2317 20.1299C29.9663 20.6346 29.8275 21.1964 29.8275 21.7666C29.8275 22.3369 29.9663 22.8986 30.2317 23.4033C30.5031 23.8744 30.8994 24.2613 31.3767 24.5214C31.885 24.7966 32.4557 24.9358 33.0336 24.9255C33.4887 24.9335 33.94 24.8425 34.3564 24.6588C34.7727 24.475 35.1442 24.2029 35.4449 23.8613L36.5225 24.8851C36.1083 25.3794 35.5817 25.7674 34.9869 26.0166C34.3414 26.2802 33.65 26.413 32.9528 26.4073C32.0932 26.4154 31.2455 26.2069 30.4877 25.8011Z" fill="#00FFFF"/>
    <path d="M22.0547 3.79004V11.7377L29.046 5.17752" stroke="#00FFFF" stroke-miterlimit="10"/>
    <path d="M26.2578 40.0397C28.7958 39.4381 31.1769 38.3038 33.2432 36.712C35.3095 35.1202 37.0138 33.1073 38.243 30.8068C39.4722 28.5063 40.1983 25.9707 40.3731 23.3683C40.548 20.7658 40.1675 18.1559 39.257 15.7117L26.2578 29.5595V40.0397Z" fill="#00FFFF"/>
    <path d="M35.3504 23.8613C35.0503 24.2036 34.6789 24.4762 34.2624 24.66C33.8459 24.8439 33.3943 24.9345 32.9391 24.9255C32.3616 24.9328 31.7916 24.7938 31.2822 24.5214C31.2027 24.4673 31.1263 24.4089 31.0532 24.3463L29.9756 25.4913C30.1238 25.599 30.245 25.7068 30.3932 25.8011C31.0824 26.1554 31.8399 26.3568 32.614 26.3917C33.3881 26.4265 34.1607 26.294 34.8789 26.0032C35.4796 25.7639 36.0118 25.3798 36.4281 24.8851L35.3504 23.8613Z" fill="#0D1238"/>
    <path d="M36.4268 18.6482V18.6348L36.333 18.7285L36.4268 18.6482Z" fill="#0D1238"/>
    <path d="M20.2898 25.9761L15.6559 30.7582H5.82227" stroke="#00FFFF" stroke-miterlimit="10"/>
    <path d="M16.0059 39.5008L23.307 31.2837V40.5246" stroke="#00FFFF" stroke-miterlimit="10"/>
    <path d="M29.7998 19.2273V14.4183L35.3362 9.11084" stroke="#00FFFF" stroke-miterlimit="10"/>
</svg>
