<svg width="369" height="175" viewBox="0 0 369 175" fill="none"
    xmlns="http://www.w3.org/2000/svg">
    <defs>
        <filter id="filter0_d_323_922" x="1.96729" y="0" width="173.076" height="153.719" filterUnits="userSpaceOnUse" color-interpolation-filters="sRGB">
            <feFlood flood-opacity="0" result="BackgroundImageFix"/>
            <feColorMatrix in="SourceAlpha" type="matrix" values="0 0 0 0 0 0 0 0 0 0 0 0 0 0 0 0 0 0 127 0" result="hardAlpha"/>
            <feOffset dy="2"/>
            <feGaussianBlur stdDeviation="5"/>
            <feComposite in2="hardAlpha" operator="out"/>
            <feColorMatrix type="matrix" values="0 0 0 0 1 0 0 0 0 1 0 0 0 0 1 0 0 0 0.25 0"/>
            <feBlend mode="normal" in2="BackgroundImageFix" result="effect1_dropShadow_323_922"/>
            <feBlend mode="normal" in="SourceGraphic" in2="effect1_dropShadow_323_922" result="shape"/>
        </filter>
        <filter id="filter1_d_323_922" x="60.3276" y="153.72" width="54.4185" height="20.5601" filterUnits="userSpaceOnUse" color-interpolation-filters="sRGB">
            <feFlood flood-opacity="0" result="BackgroundImageFix"/>
            <feColorMatrix in="SourceAlpha" type="matrix" values="0 0 0 0 0 0 0 0 0 0 0 0 0 0 0 0 0 0 127 0" result="hardAlpha"/>
            <feOffset/>
            <feGaussianBlur stdDeviation="1.5"/>
            <feComposite in2="hardAlpha" operator="out"/>
            <feColorMatrix type="matrix" values="0 0 0 0 1 0 0 0 0 1 0 0 0 0 1 0 0 0 0.25 0"/>
            <feBlend mode="normal" in2="BackgroundImageFix" result="effect1_dropShadow_323_922"/>
            <feBlend mode="normal" in="SourceGraphic" in2="effect1_dropShadow_323_922" result="shape"/>
        </filter>
        <filter id="filter2_d_323_922" x="18.1934" y="14.6697" width="141.338" height="125.093" filterUnits="userSpaceOnUse" color-interpolation-filters="sRGB">
            <feFlood flood-opacity="0" result="BackgroundImageFix"/>
            <feColorMatrix in="SourceAlpha" type="matrix" values="0 0 0 0 0 0 0 0 0 0 0 0 0 0 0 0 0 0 127 0" result="hardAlpha"/>
            <feOffset dy="2"/>
            <feGaussianBlur stdDeviation="5"/>
            <feComposite in2="hardAlpha" operator="out"/>
            <feColorMatrix type="matrix" values="0 0 0 0 1 0 0 0 0 1 0 0 0 0 1 0 0 0 0.25 0"/>
            <feBlend mode="normal" in2="BackgroundImageFix" result="effect1_dropShadow_323_922"/>
            <feBlend mode="normal" in="SourceGraphic" in2="effect1_dropShadow_323_922" result="shape"/>
        </filter>
        <filter id="filter3_d_323_922" x="0.493652" y="11.5015" width="45.0352" height="73.7993" filterUnits="userSpaceOnUse" color-interpolation-filters="sRGB">
            <feFlood flood-opacity="0" result="BackgroundImageFix"/>
            <feColorMatrix in="SourceAlpha" type="matrix" values="0 0 0 0 0 0 0 0 0 0 0 0 0 0 0 0 0 0 127 0" result="hardAlpha"/>
            <feOffset/>
            <feGaussianBlur stdDeviation="3"/>
            <feComposite in2="hardAlpha" operator="out"/>
            <feColorMatrix type="matrix" values="0 0 0 0 1 0 0 0 0 0 0 0 0 0 0 0 0 0 0.75 0"/>
            <feBlend mode="normal" in2="BackgroundImageFix" result="effect1_dropShadow_323_922"/>
            <feBlend mode="normal" in="SourceGraphic" in2="effect1_dropShadow_323_922" result="shape"/>
        </filter>
        <filter id="filter4_d_323_922" x="118.702" y="84.0591" width="51.54" height="69.4727" filterUnits="userSpaceOnUse" color-interpolation-filters="sRGB">
            <feFlood flood-opacity="0" result="BackgroundImageFix"/>
            <feColorMatrix in="SourceAlpha" type="matrix" values="0 0 0 0 0 0 0 0 0 0 0 0 0 0 0 0 0 0 127 0" result="hardAlpha"/>
            <feOffset/>
            <feGaussianBlur stdDeviation="3"/>
            <feComposite in2="hardAlpha" operator="out"/>
            <feColorMatrix type="matrix" values="0 0 0 0 1 0 0 0 0 0 0 0 0 0 0 0 0 0 0.75 0"/>
            <feBlend mode="normal" in2="BackgroundImageFix" result="effect1_dropShadow_323_922"/>
            <feBlend mode="normal" in="SourceGraphic" in2="effect1_dropShadow_323_922" result="shape"/>
        </filter>
        <filter id="filter5_d_323_922" x="195.924" y="0" width="173.076" height="153.719" filterUnits="userSpaceOnUse" color-interpolation-filters="sRGB">
            <feFlood flood-opacity="0" result="BackgroundImageFix"/>
            <feColorMatrix in="SourceAlpha" type="matrix" values="0 0 0 0 0 0 0 0 0 0 0 0 0 0 0 0 0 0 127 0" result="hardAlpha"/>
            <feOffset dy="2"/>
            <feGaussianBlur stdDeviation="5"/>
            <feComposite in2="hardAlpha" operator="out"/>
            <feColorMatrix type="matrix" values="0 0 0 0 1 0 0 0 0 1 0 0 0 0 1 0 0 0 0.25 0"/>
            <feBlend mode="normal" in2="BackgroundImageFix" result="effect1_dropShadow_323_922"/>
            <feBlend mode="normal" in="SourceGraphic" in2="effect1_dropShadow_323_922" result="shape"/>
        </filter>
        <filter id="filter6_d_323_922" x="248.589" y="153.76" width="66.7642" height="20.5601" filterUnits="userSpaceOnUse" color-interpolation-filters="sRGB">
            <feFlood flood-opacity="0" result="BackgroundImageFix"/>
            <feColorMatrix in="SourceAlpha" type="matrix" values="0 0 0 0 0 0 0 0 0 0 0 0 0 0 0 0 0 0 127 0" result="hardAlpha"/>
            <feOffset/>
            <feGaussianBlur stdDeviation="1.5"/>
            <feComposite in2="hardAlpha" operator="out"/>
            <feColorMatrix type="matrix" values="0 0 0 0 1 0 0 0 0 1 0 0 0 0 1 0 0 0 0.25 0"/>
            <feBlend mode="normal" in2="BackgroundImageFix" result="effect1_dropShadow_323_922"/>
            <feBlend mode="normal" in="SourceGraphic" in2="effect1_dropShadow_323_922" result="shape"/>
        </filter>
        <filter id="filter7_d_323_922" x="212.148" y="14.6697" width="141.338" height="125.093" filterUnits="userSpaceOnUse" color-interpolation-filters="sRGB">
            <feFlood flood-opacity="0" result="BackgroundImageFix"/>
            <feColorMatrix in="SourceAlpha" type="matrix" values="0 0 0 0 0 0 0 0 0 0 0 0 0 0 0 0 0 0 127 0" result="hardAlpha"/>
            <feOffset dy="2"/>
            <feGaussianBlur stdDeviation="5"/>
            <feComposite in2="hardAlpha" operator="out"/>
            <feColorMatrix type="matrix" values="0 0 0 0 1 0 0 0 0 1 0 0 0 0 1 0 0 0 0.25 0"/>
            <feBlend mode="normal" in2="BackgroundImageFix" result="effect1_dropShadow_323_922"/>
            <feBlend mode="normal" in="SourceGraphic" in2="effect1_dropShadow_323_922" result="shape"/>
        </filter>
        <filter id="filter8_d_323_922" x="195.451" y="10.5034" width="45.0352" height="73.7993" filterUnits="userSpaceOnUse" color-interpolation-filters="sRGB">
            <feFlood flood-opacity="0" result="BackgroundImageFix"/>
            <feColorMatrix in="SourceAlpha" type="matrix" values="0 0 0 0 0 0 0 0 0 0 0 0 0 0 0 0 0 0 127 0" result="hardAlpha"/>
            <feOffset/>
            <feGaussianBlur stdDeviation="3"/>
            <feComposite in2="hardAlpha" operator="out"/>
            <feColorMatrix type="matrix" values="0 0 0 0 1 0 0 0 0 0 0 0 0 0 0 0 0 0 0.75 0"/>
            <feBlend mode="normal" in2="BackgroundImageFix" result="effect1_dropShadow_323_922"/>
            <feBlend mode="normal" in="SourceGraphic" in2="effect1_dropShadow_323_922" result="shape"/>
        </filter>
        <filter id="filter9_d_323_922" x="312.659" y="84.0591" width="51.54" height="69.4727" filterUnits="userSpaceOnUse" color-interpolation-filters="sRGB">
            <feFlood flood-opacity="0" result="BackgroundImageFix"/>
            <feColorMatrix in="SourceAlpha" type="matrix" values="0 0 0 0 0 0 0 0 0 0 0 0 0 0 0 0 0 0 127 0" result="hardAlpha"/>
            <feOffset/>
            <feGaussianBlur stdDeviation="3"/>
            <feComposite in2="hardAlpha" operator="out"/>
            <feColorMatrix type="matrix" values="0 0 0 0 1 0 0 0 0 0 0 0 0 0 0 0 0 0 0.75 0"/>
            <feBlend mode="normal" in2="BackgroundImageFix" result="effect1_dropShadow_323_922"/>
            <feBlend mode="normal" in="SourceGraphic" in2="effect1_dropShadow_323_922" result="shape"/>
        </filter>
        <linearGradient id="paint0_linear_323_922" x1="53.2609" y1="157" x2="124.517" y2="172.256" gradientUnits="userSpaceOnUse">
            <stop stop-color="#64E3FF"/>
            <stop offset="1" stop-color="#5FBDFB"/>
        </linearGradient>
        <linearGradient id="paint1_linear_323_922" x1="149.651" y1="52.442" x2="76.8229" y2="-4.51483" gradientUnits="userSpaceOnUse">
            <stop stop-color="#00E3FF"/>
        </linearGradient>
        <linearGradient id="paint2_linear_323_922" x1="124.849" y1="21.4381" x2="49.3174" y2="129.605" gradientUnits="userSpaceOnUse">
            <stop offset="0.244792" stop-color="#00E3FF"/>
            <stop offset="1" stop-color="#FF0000"/>
        </linearGradient>
        <linearGradient id="paint3_linear_323_922" x1="251.204" y1="157.032" x2="315.406" y2="169.333" gradientUnits="userSpaceOnUse">
            <stop stop-color="#64E3FF"/>
            <stop offset="1" stop-color="#5FBDFB"/>
        </linearGradient>
        <linearGradient id="paint4_linear_323_922" x1="343.606" y1="52.442" x2="270.778" y2="-4.51483" gradientUnits="userSpaceOnUse">
            <stop stop-color="#00E3FF"/>
        </linearGradient>
        <linearGradient id="paint5_linear_323_922" x1="318.804" y1="21.4381" x2="243.273" y2="129.605" gradientUnits="userSpaceOnUse">
            <stop offset="0.244792" stop-color="#00E3FF"/>
            <stop offset="1" stop-color="#FF0000"/>
        </linearGradient>
    </defs>
    <path d="M180.199 88.264C180.199 89.272 180.547 90.148 181.243 90.892C181.963 91.612 182.887 91.972 184.015 91.972C185.143 91.972 186.055 91.612 186.751 90.892C187.447 90.148 187.795 89.272 187.795 88.264C187.795 87.232 187.447 86.356 186.751 85.636C186.055 84.892 185.143 84.52 184.015 84.52C182.887 84.52 181.963 84.892 181.243 85.636C180.547 86.356 180.199 87.232 180.199 88.264ZM180.199 74.872C180.199 75.88 180.547 76.756 181.243 77.5C181.963 78.22 182.887 78.58 184.015 78.58C185.143 78.58 186.055 78.22 186.751 77.5C187.447 76.756 187.795 75.88 187.795 74.872C187.795 73.84 187.447 72.964 186.751 72.244C186.055 71.5 185.143 71.128 184.015 71.128C182.887 71.128 181.963 71.5 181.243 72.244C180.547 72.964 180.199 73.84 180.199 74.872Z" fill="white"/>
    <g filter="url(#filter0_d_323_922)">
        <mask id="path-2-inside-1_323_922" fill="white">
            <path fill-rule="evenodd" clip-rule="evenodd" d="M52.6299 8.61178L64.3329 8.51037V10.3119C64.3329 10.8642 64.7806 11.3119 65.3329 11.3119H111.322C111.875 11.3119 112.322 10.8642 112.322 10.3119V8.09457L123.21 8.00023C125.346 7.98172 127.331 9.10014 128.422 10.9368L164.202 71.1853C165.304 73.0415 165.324 75.3468 164.255 77.2219L129.539 138.081C128.481 139.936 126.516 141.089 124.38 141.108L113.322 141.203V140.067C113.322 139.515 112.875 139.067 112.322 139.067H66.3329C65.7806 139.067 65.3329 139.515 65.3329 140.067V141.619L53.7998 141.719C51.6639 141.738 49.6791 140.619 48.5883 138.783L12.8085 78.5341C11.7062 76.6778 11.6859 74.3726 12.7555 72.4975L47.4708 11.6382C48.5291 9.78293 50.494 8.63028 52.6299 8.61178Z"/>
        </mask>
        <path fill-rule="evenodd" clip-rule="evenodd" d="M52.6299 8.61178L64.3329 8.51037V10.3119C64.3329 10.8642 64.7806 11.3119 65.3329 11.3119H111.322C111.875 11.3119 112.322 10.8642 112.322 10.3119V8.09457L123.21 8.00023C125.346 7.98172 127.331 9.10014 128.422 10.9368L164.202 71.1853C165.304 73.0415 165.324 75.3468 164.255 77.2219L129.539 138.081C128.481 139.936 126.516 141.089 124.38 141.108L113.322 141.203V140.067C113.322 139.515 112.875 139.067 112.322 139.067H66.3329C65.7806 139.067 65.3329 139.515 65.3329 140.067V141.619L53.7998 141.719C51.6639 141.738 49.6791 140.619 48.5883 138.783L12.8085 78.5341C11.7062 76.6778 11.6859 74.3726 12.7555 72.4975L47.4708 11.6382C48.5291 9.78293 50.494 8.63028 52.6299 8.61178Z" fill="#02192B" fill-opacity="0.15" shape-rendering="crispEdges"/>
        <path d="M64.3329 8.51037H65.7329V7.09819L64.3208 7.11043L64.3329 8.51037ZM52.6299 8.61178L52.642 10.0117L52.6299 8.61178ZM112.322 8.09457L112.31 6.69462L110.922 6.70664V8.09457H112.322ZM123.21 8.00023L123.222 9.40017L123.21 8.00023ZM128.422 10.9368L129.625 10.2219V10.2219L128.422 10.9368ZM164.202 71.1853L165.405 70.4704V70.4704L164.202 71.1853ZM164.255 77.2219L163.038 76.5282L164.255 77.2219ZM129.539 138.081L128.323 137.387L129.539 138.081ZM124.38 141.108L124.368 139.708H124.368L124.38 141.108ZM113.322 141.203H111.922V142.616L113.334 142.603L113.322 141.203ZM65.3329 141.619L65.345 143.019L66.7329 143.007V141.619H65.3329ZM53.7998 141.719L53.7877 140.319L53.7998 141.719ZM48.5883 138.783L47.3846 139.497L48.5883 138.783ZM12.8085 78.5341L11.6048 79.2489H11.6048L12.8085 78.5341ZM12.7555 72.4975L13.9715 73.1912H13.9715L12.7555 72.4975ZM47.4708 11.6382L46.2547 10.9445V10.9445L47.4708 11.6382ZM64.3208 7.11043L52.6178 7.21183L52.642 10.0117L64.345 9.91032L64.3208 7.11043ZM65.7329 10.3119V8.51037H62.9329V10.3119H65.7329ZM65.3329 9.91189C65.5538 9.91189 65.7329 10.091 65.7329 10.3119H62.9329C62.9329 11.6374 64.0074 12.7119 65.3329 12.7119V9.91189ZM111.322 9.91189H65.3329V12.7119H111.322V9.91189ZM110.922 10.3119C110.922 10.091 111.101 9.91189 111.322 9.91189V12.7119C112.648 12.7119 113.722 11.6374 113.722 10.3119H110.922ZM110.922 8.09457V10.3119H113.722V8.09457H110.922ZM123.198 6.60028L112.31 6.69462L112.334 9.49451L123.222 9.40017L123.198 6.60028ZM129.625 10.2219C128.28 7.95681 125.832 6.57745 123.198 6.60028L123.222 9.40017C124.86 9.38598 126.382 10.2435 127.218 11.6516L129.625 10.2219ZM165.405 70.4704L129.625 10.2219L127.218 11.6516L162.998 71.9002L165.405 70.4704ZM165.471 77.9155C166.79 75.6029 166.765 72.7597 165.405 70.4704L162.998 71.9002C163.843 73.3234 163.858 75.0907 163.038 76.5282L165.471 77.9155ZM130.755 138.775L165.471 77.9155L163.038 76.5282L128.323 137.387L130.755 138.775ZM124.392 142.508C127.027 142.485 129.45 141.063 130.755 138.775L128.323 137.387C127.512 138.81 126.006 139.693 124.368 139.708L124.392 142.508ZM113.334 142.603L124.392 142.508L124.368 139.708L113.31 139.803L113.334 142.603ZM111.922 140.067V141.203H114.722V140.067H111.922ZM112.322 140.467C112.101 140.467 111.922 140.288 111.922 140.067H114.722C114.722 138.741 113.648 137.667 112.322 137.667V140.467ZM66.3329 140.467H112.322V137.667H66.3329V140.467ZM66.7329 140.067C66.7329 140.288 66.5538 140.467 66.3329 140.467V137.667C65.0074 137.667 63.9329 138.741 63.9329 140.067H66.7329ZM66.7329 141.619V140.067H63.9329V141.619H66.7329ZM53.812 143.119L65.345 143.019L65.3208 140.219L53.7877 140.319L53.812 143.119ZM47.3846 139.497C48.7298 141.763 51.1777 143.142 53.812 143.119L53.7877 140.319C52.1502 140.333 50.6284 139.476 49.7921 138.068L47.3846 139.497ZM11.6048 79.2489L47.3846 139.497L49.7921 138.068L14.0123 77.8192L11.6048 79.2489ZM11.5394 71.8038C10.2202 74.1165 10.2453 76.9596 11.6048 79.2489L14.0123 77.8192C13.1671 76.396 13.1516 74.6286 13.9715 73.1912L11.5394 71.8038ZM46.2547 10.9445L11.5394 71.8038L13.9715 73.1912L48.6869 12.3319L46.2547 10.9445ZM52.6178 7.21183C49.9834 7.23465 47.56 8.65627 46.2547 10.9445L48.6869 12.3319C49.4982 10.9096 51.0045 10.0259 52.642 10.0117L52.6178 7.21183Z" fill="white" mask="url(#path-2-inside-1_323_922)"/>
    </g>
    <g filter="url(#filter1_d_323_922)">
        <path d="M63.3278 157H68.4078C70.1411 157 71.4278 157.407 72.2678 158.22C73.1078 159.02 73.5278 160.267 73.5278 161.96V166.04C73.5278 167.733 73.1078 168.987 72.2678 169.8C71.4278 170.6 70.1411 171 68.4078 171H63.3278V168.46H64.6478V159.52H63.3278V157ZM68.4078 168.48C69.3278 168.48 69.9678 168.267 70.3278 167.84C70.7011 167.4 70.8878 166.72 70.8878 165.8V161.96C70.8878 161.16 70.7011 160.553 70.3278 160.14C69.9678 159.727 69.3278 159.52 68.4078 159.52H67.2878V168.48H68.4078ZM83.5539 168H78.7939L78.1139 171H75.3539L78.6939 157H83.6539L86.9939 171H84.2339L83.5539 168ZM79.3539 165.48H82.9739L81.3539 158.32H80.9939L79.3539 165.48ZM92.5 166.08H91.9L87.88 157H90.76L93.64 163.68H94L96.88 157H99.76L95.74 166.08H95.14V171H92.5V166.08ZM108.866 161.28C108.866 160.72 108.646 160.233 108.206 159.82C107.779 159.407 107.173 159.2 106.386 159.2C105.719 159.2 105.193 159.34 104.806 159.62C104.419 159.887 104.226 160.253 104.226 160.72C104.226 160.96 104.273 161.18 104.366 161.38C104.459 161.567 104.619 161.74 104.846 161.9C105.086 162.047 105.393 162.18 105.766 162.3C106.153 162.42 106.639 162.533 107.226 162.64C108.693 162.907 109.813 163.353 110.586 163.98C111.359 164.607 111.746 165.533 111.746 166.76V167C111.746 167.653 111.626 168.247 111.386 168.78C111.159 169.3 110.826 169.747 110.386 170.12C109.946 170.493 109.413 170.78 108.786 170.98C108.159 171.18 107.453 171.28 106.666 171.28C105.746 171.28 104.933 171.153 104.226 170.9C103.533 170.633 102.953 170.273 102.486 169.82C102.019 169.353 101.666 168.813 101.426 168.2C101.186 167.573 101.066 166.893 101.066 166.16V165.56H103.706V166.04C103.706 166.88 103.946 167.553 104.426 168.06C104.919 168.553 105.679 168.8 106.706 168.8C107.506 168.8 108.099 168.627 108.486 168.28C108.873 167.933 109.066 167.52 109.066 167.04C109.066 166.813 109.026 166.6 108.946 166.4C108.866 166.187 108.726 166 108.526 165.84C108.326 165.667 108.053 165.513 107.706 165.38C107.359 165.247 106.919 165.133 106.386 165.04C105.679 164.92 105.033 164.767 104.446 164.58C103.859 164.38 103.346 164.12 102.906 163.8C102.479 163.48 102.146 163.08 101.906 162.6C101.666 162.12 101.546 161.533 101.546 160.84V160.72C101.546 160.147 101.659 159.62 101.886 159.14C102.126 158.647 102.453 158.22 102.866 157.86C103.293 157.5 103.799 157.22 104.386 157.02C104.986 156.82 105.653 156.72 106.386 156.72C107.213 156.72 107.946 156.84 108.586 157.08C109.226 157.307 109.759 157.62 110.186 158.02C110.626 158.42 110.953 158.88 111.166 159.4C111.393 159.92 111.506 160.467 111.506 161.04V161.76H108.866V161.28Z" fill="#24A0FF"/>
        <path d="M63.3278 157H68.4078C70.1411 157 71.4278 157.407 72.2678 158.22C73.1078 159.02 73.5278 160.267 73.5278 161.96V166.04C73.5278 167.733 73.1078 168.987 72.2678 169.8C71.4278 170.6 70.1411 171 68.4078 171H63.3278V168.46H64.6478V159.52H63.3278V157ZM68.4078 168.48C69.3278 168.48 69.9678 168.267 70.3278 167.84C70.7011 167.4 70.8878 166.72 70.8878 165.8V161.96C70.8878 161.16 70.7011 160.553 70.3278 160.14C69.9678 159.727 69.3278 159.52 68.4078 159.52H67.2878V168.48H68.4078ZM83.5539 168H78.7939L78.1139 171H75.3539L78.6939 157H83.6539L86.9939 171H84.2339L83.5539 168ZM79.3539 165.48H82.9739L81.3539 158.32H80.9939L79.3539 165.48ZM92.5 166.08H91.9L87.88 157H90.76L93.64 163.68H94L96.88 157H99.76L95.74 166.08H95.14V171H92.5V166.08ZM108.866 161.28C108.866 160.72 108.646 160.233 108.206 159.82C107.779 159.407 107.173 159.2 106.386 159.2C105.719 159.2 105.193 159.34 104.806 159.62C104.419 159.887 104.226 160.253 104.226 160.72C104.226 160.96 104.273 161.18 104.366 161.38C104.459 161.567 104.619 161.74 104.846 161.9C105.086 162.047 105.393 162.18 105.766 162.3C106.153 162.42 106.639 162.533 107.226 162.64C108.693 162.907 109.813 163.353 110.586 163.98C111.359 164.607 111.746 165.533 111.746 166.76V167C111.746 167.653 111.626 168.247 111.386 168.78C111.159 169.3 110.826 169.747 110.386 170.12C109.946 170.493 109.413 170.78 108.786 170.98C108.159 171.18 107.453 171.28 106.666 171.28C105.746 171.28 104.933 171.153 104.226 170.9C103.533 170.633 102.953 170.273 102.486 169.82C102.019 169.353 101.666 168.813 101.426 168.2C101.186 167.573 101.066 166.893 101.066 166.16V165.56H103.706V166.04C103.706 166.88 103.946 167.553 104.426 168.06C104.919 168.553 105.679 168.8 106.706 168.8C107.506 168.8 108.099 168.627 108.486 168.28C108.873 167.933 109.066 167.52 109.066 167.04C109.066 166.813 109.026 166.6 108.946 166.4C108.866 166.187 108.726 166 108.526 165.84C108.326 165.667 108.053 165.513 107.706 165.38C107.359 165.247 106.919 165.133 106.386 165.04C105.679 164.92 105.033 164.767 104.446 164.58C103.859 164.38 103.346 164.12 102.906 163.8C102.479 163.48 102.146 163.08 101.906 162.6C101.666 162.12 101.546 161.533 101.546 160.84V160.72C101.546 160.147 101.659 159.62 101.886 159.14C102.126 158.647 102.453 158.22 102.866 157.86C103.293 157.5 103.799 157.22 104.386 157.02C104.986 156.82 105.653 156.72 106.386 156.72C107.213 156.72 107.946 156.84 108.586 157.08C109.226 157.307 109.759 157.62 110.186 158.02C110.626 158.42 110.953 158.88 111.166 159.4C111.393 159.92 111.506 160.467 111.506 161.04V161.76H108.866V161.28Z" fill="url(#paint0_linear_323_922)"/>
        <path d="M63.3278 157H68.4078C70.1411 157 71.4278 157.407 72.2678 158.22C73.1078 159.02 73.5278 160.267 73.5278 161.96V166.04C73.5278 167.733 73.1078 168.987 72.2678 169.8C71.4278 170.6 70.1411 171 68.4078 171H63.3278V168.46H64.6478V159.52H63.3278V157ZM68.4078 168.48C69.3278 168.48 69.9678 168.267 70.3278 167.84C70.7011 167.4 70.8878 166.72 70.8878 165.8V161.96C70.8878 161.16 70.7011 160.553 70.3278 160.14C69.9678 159.727 69.3278 159.52 68.4078 159.52H67.2878V168.48H68.4078ZM83.5539 168H78.7939L78.1139 171H75.3539L78.6939 157H83.6539L86.9939 171H84.2339L83.5539 168ZM79.3539 165.48H82.9739L81.3539 158.32H80.9939L79.3539 165.48ZM92.5 166.08H91.9L87.88 157H90.76L93.64 163.68H94L96.88 157H99.76L95.74 166.08H95.14V171H92.5V166.08ZM108.866 161.28C108.866 160.72 108.646 160.233 108.206 159.82C107.779 159.407 107.173 159.2 106.386 159.2C105.719 159.2 105.193 159.34 104.806 159.62C104.419 159.887 104.226 160.253 104.226 160.72C104.226 160.96 104.273 161.18 104.366 161.38C104.459 161.567 104.619 161.74 104.846 161.9C105.086 162.047 105.393 162.18 105.766 162.3C106.153 162.42 106.639 162.533 107.226 162.64C108.693 162.907 109.813 163.353 110.586 163.98C111.359 164.607 111.746 165.533 111.746 166.76V167C111.746 167.653 111.626 168.247 111.386 168.78C111.159 169.3 110.826 169.747 110.386 170.12C109.946 170.493 109.413 170.78 108.786 170.98C108.159 171.18 107.453 171.28 106.666 171.28C105.746 171.28 104.933 171.153 104.226 170.9C103.533 170.633 102.953 170.273 102.486 169.82C102.019 169.353 101.666 168.813 101.426 168.2C101.186 167.573 101.066 166.893 101.066 166.16V165.56H103.706V166.04C103.706 166.88 103.946 167.553 104.426 168.06C104.919 168.553 105.679 168.8 106.706 168.8C107.506 168.8 108.099 168.627 108.486 168.28C108.873 167.933 109.066 167.52 109.066 167.04C109.066 166.813 109.026 166.6 108.946 166.4C108.866 166.187 108.726 166 108.526 165.84C108.326 165.667 108.053 165.513 107.706 165.38C107.359 165.247 106.919 165.133 106.386 165.04C105.679 164.92 105.033 164.767 104.446 164.58C103.859 164.38 103.346 164.12 102.906 163.8C102.479 163.48 102.146 163.08 101.906 162.6C101.666 162.12 101.546 161.533 101.546 160.84V160.72C101.546 160.147 101.659 159.62 101.886 159.14C102.126 158.647 102.453 158.22 102.866 157.86C103.293 157.5 103.799 157.22 104.386 157.02C104.986 156.82 105.653 156.72 106.386 156.72C107.213 156.72 107.946 156.84 108.586 157.08C109.226 157.307 109.759 157.62 110.186 158.02C110.626 158.42 110.953 158.88 111.166 159.4C111.393 159.92 111.506 160.467 111.506 161.04V161.76H108.866V161.28Z" fill="#00FFFF"/>
    </g>
    <g filter="url(#filter2_d_323_922)">
        <path d="M149.25 73.6856C149.619 74.305 149.626 75.0748 149.268 75.7005L120.384 126.247C120.032 126.864 119.377 127.248 118.666 127.254L59.9792 127.762C59.2678 127.768 58.6066 127.396 58.2428 126.785L28.4745 76.7463C28.106 76.1269 28.0992 75.3571 28.4567 74.7314L57.3403 24.1853C57.6932 23.5676 58.3478 23.184 59.0592 23.1778L117.746 22.6697C118.457 22.6636 119.118 23.0358 119.482 23.6473L149.25 73.6856Z" fill="url(#paint1_linear_323_922)" fill-opacity="0.08" shape-rendering="crispEdges"/>
        <path d="M148.735 73.9923C148.993 74.4259 148.997 74.9647 148.747 75.4027L119.864 125.949C119.616 126.381 119.158 126.65 118.66 126.654L59.9739 127.162C59.4759 127.166 59.0131 126.906 58.7584 126.478L28.9901 76.4396C28.7322 76.006 28.7274 75.4672 28.9777 75.0292L57.8612 24.483C58.1083 24.0506 58.5665 23.7821 59.0645 23.7778L117.751 23.2697C118.249 23.2654 118.712 23.526 118.966 23.954L148.735 73.9923L149.25 73.6858L148.735 73.9923Z" stroke="url(#paint2_linear_323_922)" stroke-width="1.2" shape-rendering="crispEdges"/>
        <path d="M148.735 73.9923C148.993 74.4259 148.997 74.9647 148.747 75.4027L119.864 125.949C119.616 126.381 119.158 126.65 118.66 126.654L59.9739 127.162C59.4759 127.166 59.0131 126.906 58.7584 126.478L28.9901 76.4396C28.7322 76.006 28.7274 75.4672 28.9777 75.0292L57.8612 24.483C58.1083 24.0506 58.5665 23.7821 59.0645 23.7778L117.751 23.2697C118.249 23.2654 118.712 23.526 118.966 23.954L148.735 73.9923L149.25 73.6858L148.735 73.9923Z" stroke="#00FFFF" stroke-width="1.2" shape-rendering="crispEdges"/>
    </g>
    <rect width="3.99743" height="31.9523" transform="matrix(0.867041 -0.498237 0.501765 0.865004 141.315 32.272)" fill="white"/>
    <rect width="3.99743" height="31.9523" transform="matrix(0.867041 -0.498237 0.501765 0.865004 15.3428 89.1626)" fill="white"/>
    <g filter="url(#filter3_d_323_922)">
        <path d="M9.3301 79.0625L7.25846 74.2783C7.00725 73.6982 7.04601 73.0333 7.36296 72.4856L39.009 17.8009" stroke="#FF0049" stroke-width="1.2" stroke-miterlimit="10"/>
    </g>
    <g filter="url(#filter4_d_323_922)">
        <path d="M125.303 146.932L130.491 146.33C131.121 146.257 131.678 145.891 131.995 145.343L163.641 90.6586" stroke="#FF0049" stroke-width="1.2" stroke-miterlimit="10" stroke-linecap="round"/>
    </g>
    <g filter="url(#filter5_d_323_922)">
        <mask id="path-11-inside-2_323_922" fill="white">
            <path fill-rule="evenodd" clip-rule="evenodd" d="M246.587 8.61178L258.29 8.51037V10.3119C258.29 10.8642 258.738 11.3119 259.29 11.3119H305.279C305.832 11.3119 306.279 10.8642 306.279 10.3119V8.09457L317.167 8.00023C319.303 7.98172 321.288 9.10014 322.379 10.9368L358.159 71.1853C359.261 73.0415 359.281 75.3468 358.212 77.2219L323.496 138.081C322.438 139.936 320.473 141.089 318.337 141.108L307.279 141.203V140.067C307.279 139.515 306.832 139.067 306.279 139.067H260.29C259.738 139.067 259.29 139.515 259.29 140.067V141.619L247.757 141.719C245.621 141.738 243.636 140.619 242.545 138.783L206.766 78.5341C205.663 76.6778 205.643 74.3726 206.712 72.4975L241.428 11.6382C242.486 9.78293 244.451 8.63028 246.587 8.61178Z"/>
        </mask>
        <path fill-rule="evenodd" clip-rule="evenodd" d="M246.587 8.61178L258.29 8.51037V10.3119C258.29 10.8642 258.738 11.3119 259.29 11.3119H305.279C305.832 11.3119 306.279 10.8642 306.279 10.3119V8.09457L317.167 8.00023C319.303 7.98172 321.288 9.10014 322.379 10.9368L358.159 71.1853C359.261 73.0415 359.281 75.3468 358.212 77.2219L323.496 138.081C322.438 139.936 320.473 141.089 318.337 141.108L307.279 141.203V140.067C307.279 139.515 306.832 139.067 306.279 139.067H260.29C259.738 139.067 259.29 139.515 259.29 140.067V141.619L247.757 141.719C245.621 141.738 243.636 140.619 242.545 138.783L206.766 78.5341C205.663 76.6778 205.643 74.3726 206.712 72.4975L241.428 11.6382C242.486 9.78293 244.451 8.63028 246.587 8.61178Z" fill="#02192B" fill-opacity="0.15" shape-rendering="crispEdges"/>
        <path d="M258.29 8.51037H259.69V7.09819L258.278 7.11043L258.29 8.51037ZM246.587 8.61178L246.599 10.0117L246.587 8.61178ZM306.279 8.09457L306.267 6.69462L304.879 6.70664V8.09457H306.279ZM317.167 8.00023L317.179 9.40017L317.167 8.00023ZM322.379 10.9368L323.582 10.2219V10.2219L322.379 10.9368ZM358.159 71.1853L359.362 70.4704V70.4704L358.159 71.1853ZM358.212 77.2219L356.996 76.5282L358.212 77.2219ZM323.496 138.081L322.28 137.387L323.496 138.081ZM318.337 141.108L318.325 139.708H318.325L318.337 141.108ZM307.279 141.203H305.879V142.616L307.291 142.603L307.279 141.203ZM259.29 141.619L259.302 143.019L260.69 143.007V141.619H259.29ZM247.757 141.719L247.745 140.319L247.757 141.719ZM242.545 138.783L241.342 139.497L242.545 138.783ZM206.766 78.5341L205.562 79.2489H205.562L206.766 78.5341ZM206.712 72.4975L207.929 73.1912H207.929L206.712 72.4975ZM241.428 11.6382L240.212 10.9445V10.9445L241.428 11.6382ZM258.278 7.11043L246.575 7.21183L246.599 10.0117L258.302 9.91032L258.278 7.11043ZM259.69 10.3119V8.51037H256.89V10.3119H259.69ZM259.29 9.91189C259.511 9.91189 259.69 10.091 259.69 10.3119H256.89C256.89 11.6374 257.964 12.7119 259.29 12.7119V9.91189ZM305.279 9.91189H259.29V12.7119H305.279V9.91189ZM304.879 10.3119C304.879 10.091 305.058 9.91189 305.279 9.91189V12.7119C306.605 12.7119 307.679 11.6374 307.679 10.3119H304.879ZM304.879 8.09457V10.3119H307.679V8.09457H304.879ZM317.155 6.60028L306.267 6.69462L306.291 9.49451L317.179 9.40017L317.155 6.60028ZM323.582 10.2219C322.237 7.95681 319.789 6.57745 317.155 6.60028L317.179 9.40017C318.817 9.38598 320.339 10.2435 321.175 11.6516L323.582 10.2219ZM359.362 70.4704L323.582 10.2219L321.175 11.6516L356.955 71.9002L359.362 70.4704ZM359.428 77.9155C360.747 75.6029 360.722 72.7597 359.362 70.4704L356.955 71.9002C357.8 73.3234 357.815 75.0907 356.996 76.5282L359.428 77.9155ZM324.712 138.775L359.428 77.9155L356.996 76.5282L322.28 137.387L324.712 138.775ZM318.349 142.508C320.984 142.485 323.407 141.063 324.712 138.775L322.28 137.387C321.469 138.81 319.963 139.693 318.325 139.708L318.349 142.508ZM307.291 142.603L318.349 142.508L318.325 139.708L307.267 139.803L307.291 142.603ZM305.879 140.067V141.203H308.679V140.067H305.879ZM306.279 140.467C306.058 140.467 305.879 140.288 305.879 140.067H308.679C308.679 138.741 307.605 137.667 306.279 137.667V140.467ZM260.29 140.467H306.279V137.667H260.29V140.467ZM260.69 140.067C260.69 140.288 260.511 140.467 260.29 140.467V137.667C258.964 137.667 257.89 138.741 257.89 140.067H260.69ZM260.69 141.619V140.067H257.89V141.619H260.69ZM247.769 143.119L259.302 143.019L259.278 140.219L247.745 140.319L247.769 143.119ZM241.342 139.497C242.687 141.763 245.135 143.142 247.769 143.119L247.745 140.319C246.107 140.333 244.585 139.476 243.749 138.068L241.342 139.497ZM205.562 79.2489L241.342 139.497L243.749 138.068L207.969 77.8192L205.562 79.2489ZM205.496 71.8038C204.177 74.1165 204.202 76.9596 205.562 79.2489L207.969 77.8192C207.124 76.396 207.109 74.6286 207.929 73.1912L205.496 71.8038ZM240.212 10.9445L205.496 71.8038L207.929 73.1912L242.644 12.3319L240.212 10.9445ZM246.575 7.21183C243.94 7.23465 241.517 8.65627 240.212 10.9445L242.644 12.3319C243.455 10.9096 244.962 10.0259 246.599 10.0117L246.575 7.21183Z" fill="white" mask="url(#path-11-inside-2_323_922)"/>
    </g>
    <g filter="url(#filter6_d_323_922)">
        <path d="M251.589 157.04H254.229V162.76H258.749V157.04H261.389V171.04H258.749V165.28H254.229V171.04H251.589V157.04ZM263.975 162.48C263.975 160.667 264.429 159.26 265.335 158.26C266.255 157.26 267.522 156.76 269.135 156.76C270.749 156.76 272.009 157.26 272.915 158.26C273.835 159.26 274.295 160.667 274.295 162.48V165.6C274.295 167.467 273.835 168.887 272.915 169.86C272.009 170.833 270.749 171.32 269.135 171.32C267.522 171.32 266.255 170.833 265.335 169.86C264.429 168.887 263.975 167.467 263.975 165.6V162.48ZM269.135 168.92C269.615 168.92 270.015 168.847 270.335 168.7C270.655 168.54 270.915 168.32 271.115 168.04C271.315 167.76 271.455 167.427 271.535 167.04C271.615 166.653 271.655 166.227 271.655 165.76V162.32C271.655 161.88 271.609 161.467 271.515 161.08C271.422 160.693 271.275 160.36 271.075 160.08C270.875 159.8 270.615 159.58 270.295 159.42C269.975 159.247 269.589 159.16 269.135 159.16C268.682 159.16 268.295 159.247 267.975 159.42C267.655 159.58 267.395 159.8 267.195 160.08C266.995 160.36 266.849 160.693 266.755 161.08C266.662 161.467 266.615 161.88 266.615 162.32V165.76C266.615 166.227 266.655 166.653 266.735 167.04C266.815 167.427 266.955 167.76 267.155 168.04C267.355 168.32 267.615 168.54 267.935 168.7C268.255 168.847 268.655 168.92 269.135 168.92ZM286.822 157.04V166.2C286.822 167.8 286.395 169.053 285.542 169.96C284.702 170.867 283.448 171.32 281.782 171.32C280.115 171.32 278.855 170.867 278.002 169.96C277.162 169.053 276.742 167.8 276.742 166.2V157.04H279.382V166.2C279.382 167.027 279.575 167.673 279.962 168.14C280.348 168.607 280.955 168.84 281.782 168.84C282.608 168.84 283.215 168.607 283.602 168.14C283.988 167.673 284.182 167.027 284.182 166.2V157.04H286.822ZM299.168 171.04H296.528V166.84C296.528 166.52 296.441 166.26 296.268 166.06C296.108 165.86 295.834 165.76 295.448 165.76H292.408V171.04H289.768V157.04H295.128C295.848 157.04 296.481 157.14 297.028 157.34C297.574 157.54 298.028 157.82 298.388 158.18C298.761 158.527 299.041 158.933 299.228 159.4C299.428 159.867 299.528 160.367 299.528 160.9V161.38C299.528 161.953 299.374 162.493 299.068 163C298.761 163.493 298.288 163.873 297.648 164.14V164.5C298.114 164.553 298.481 164.733 298.748 165.04C299.028 165.347 299.168 165.733 299.168 166.2V171.04ZM292.408 163.24H294.928C295.568 163.24 296.054 163.093 296.388 162.8C296.721 162.493 296.888 162.067 296.888 161.52V161.28C296.888 160.813 296.721 160.413 296.388 160.08C296.054 159.733 295.568 159.56 294.928 159.56H292.408V163.24ZM309.474 161.32C309.474 160.76 309.254 160.273 308.814 159.86C308.387 159.447 307.78 159.24 306.994 159.24C306.327 159.24 305.8 159.38 305.414 159.66C305.027 159.927 304.834 160.293 304.834 160.76C304.834 161 304.88 161.22 304.974 161.42C305.067 161.607 305.227 161.78 305.454 161.94C305.694 162.087 306 162.22 306.374 162.34C306.76 162.46 307.247 162.573 307.834 162.68C309.3 162.947 310.42 163.393 311.194 164.02C311.967 164.647 312.354 165.573 312.354 166.8V167.04C312.354 167.693 312.234 168.287 311.994 168.82C311.767 169.34 311.434 169.787 310.994 170.16C310.554 170.533 310.02 170.82 309.394 171.02C308.767 171.22 308.06 171.32 307.274 171.32C306.354 171.32 305.54 171.193 304.834 170.94C304.14 170.673 303.56 170.313 303.094 169.86C302.627 169.393 302.274 168.853 302.034 168.24C301.794 167.613 301.674 166.933 301.674 166.2V165.6H304.314V166.08C304.314 166.92 304.554 167.593 305.034 168.1C305.527 168.593 306.287 168.84 307.314 168.84C308.114 168.84 308.707 168.667 309.094 168.32C309.48 167.973 309.674 167.56 309.674 167.08C309.674 166.853 309.634 166.64 309.554 166.44C309.474 166.227 309.334 166.04 309.134 165.88C308.934 165.707 308.66 165.553 308.314 165.42C307.967 165.287 307.527 165.173 306.994 165.08C306.287 164.96 305.64 164.807 305.054 164.62C304.467 164.42 303.954 164.16 303.514 163.84C303.087 163.52 302.754 163.12 302.514 162.64C302.274 162.16 302.154 161.573 302.154 160.88V160.76C302.154 160.187 302.267 159.66 302.494 159.18C302.734 158.687 303.06 158.26 303.474 157.9C303.9 157.54 304.407 157.26 304.994 157.06C305.594 156.86 306.26 156.76 306.994 156.76C307.82 156.76 308.554 156.88 309.194 157.12C309.834 157.347 310.367 157.66 310.794 158.06C311.234 158.46 311.56 158.92 311.774 159.44C312 159.96 312.114 160.507 312.114 161.08V161.8H309.474V161.32Z" fill="#24A0FF"/>
        <path d="M251.589 157.04H254.229V162.76H258.749V157.04H261.389V171.04H258.749V165.28H254.229V171.04H251.589V157.04ZM263.975 162.48C263.975 160.667 264.429 159.26 265.335 158.26C266.255 157.26 267.522 156.76 269.135 156.76C270.749 156.76 272.009 157.26 272.915 158.26C273.835 159.26 274.295 160.667 274.295 162.48V165.6C274.295 167.467 273.835 168.887 272.915 169.86C272.009 170.833 270.749 171.32 269.135 171.32C267.522 171.32 266.255 170.833 265.335 169.86C264.429 168.887 263.975 167.467 263.975 165.6V162.48ZM269.135 168.92C269.615 168.92 270.015 168.847 270.335 168.7C270.655 168.54 270.915 168.32 271.115 168.04C271.315 167.76 271.455 167.427 271.535 167.04C271.615 166.653 271.655 166.227 271.655 165.76V162.32C271.655 161.88 271.609 161.467 271.515 161.08C271.422 160.693 271.275 160.36 271.075 160.08C270.875 159.8 270.615 159.58 270.295 159.42C269.975 159.247 269.589 159.16 269.135 159.16C268.682 159.16 268.295 159.247 267.975 159.42C267.655 159.58 267.395 159.8 267.195 160.08C266.995 160.36 266.849 160.693 266.755 161.08C266.662 161.467 266.615 161.88 266.615 162.32V165.76C266.615 166.227 266.655 166.653 266.735 167.04C266.815 167.427 266.955 167.76 267.155 168.04C267.355 168.32 267.615 168.54 267.935 168.7C268.255 168.847 268.655 168.92 269.135 168.92ZM286.822 157.04V166.2C286.822 167.8 286.395 169.053 285.542 169.96C284.702 170.867 283.448 171.32 281.782 171.32C280.115 171.32 278.855 170.867 278.002 169.96C277.162 169.053 276.742 167.8 276.742 166.2V157.04H279.382V166.2C279.382 167.027 279.575 167.673 279.962 168.14C280.348 168.607 280.955 168.84 281.782 168.84C282.608 168.84 283.215 168.607 283.602 168.14C283.988 167.673 284.182 167.027 284.182 166.2V157.04H286.822ZM299.168 171.04H296.528V166.84C296.528 166.52 296.441 166.26 296.268 166.06C296.108 165.86 295.834 165.76 295.448 165.76H292.408V171.04H289.768V157.04H295.128C295.848 157.04 296.481 157.14 297.028 157.34C297.574 157.54 298.028 157.82 298.388 158.18C298.761 158.527 299.041 158.933 299.228 159.4C299.428 159.867 299.528 160.367 299.528 160.9V161.38C299.528 161.953 299.374 162.493 299.068 163C298.761 163.493 298.288 163.873 297.648 164.14V164.5C298.114 164.553 298.481 164.733 298.748 165.04C299.028 165.347 299.168 165.733 299.168 166.2V171.04ZM292.408 163.24H294.928C295.568 163.24 296.054 163.093 296.388 162.8C296.721 162.493 296.888 162.067 296.888 161.52V161.28C296.888 160.813 296.721 160.413 296.388 160.08C296.054 159.733 295.568 159.56 294.928 159.56H292.408V163.24ZM309.474 161.32C309.474 160.76 309.254 160.273 308.814 159.86C308.387 159.447 307.78 159.24 306.994 159.24C306.327 159.24 305.8 159.38 305.414 159.66C305.027 159.927 304.834 160.293 304.834 160.76C304.834 161 304.88 161.22 304.974 161.42C305.067 161.607 305.227 161.78 305.454 161.94C305.694 162.087 306 162.22 306.374 162.34C306.76 162.46 307.247 162.573 307.834 162.68C309.3 162.947 310.42 163.393 311.194 164.02C311.967 164.647 312.354 165.573 312.354 166.8V167.04C312.354 167.693 312.234 168.287 311.994 168.82C311.767 169.34 311.434 169.787 310.994 170.16C310.554 170.533 310.02 170.82 309.394 171.02C308.767 171.22 308.06 171.32 307.274 171.32C306.354 171.32 305.54 171.193 304.834 170.94C304.14 170.673 303.56 170.313 303.094 169.86C302.627 169.393 302.274 168.853 302.034 168.24C301.794 167.613 301.674 166.933 301.674 166.2V165.6H304.314V166.08C304.314 166.92 304.554 167.593 305.034 168.1C305.527 168.593 306.287 168.84 307.314 168.84C308.114 168.84 308.707 168.667 309.094 168.32C309.48 167.973 309.674 167.56 309.674 167.08C309.674 166.853 309.634 166.64 309.554 166.44C309.474 166.227 309.334 166.04 309.134 165.88C308.934 165.707 308.66 165.553 308.314 165.42C307.967 165.287 307.527 165.173 306.994 165.08C306.287 164.96 305.64 164.807 305.054 164.62C304.467 164.42 303.954 164.16 303.514 163.84C303.087 163.52 302.754 163.12 302.514 162.64C302.274 162.16 302.154 161.573 302.154 160.88V160.76C302.154 160.187 302.267 159.66 302.494 159.18C302.734 158.687 303.06 158.26 303.474 157.9C303.9 157.54 304.407 157.26 304.994 157.06C305.594 156.86 306.26 156.76 306.994 156.76C307.82 156.76 308.554 156.88 309.194 157.12C309.834 157.347 310.367 157.66 310.794 158.06C311.234 158.46 311.56 158.92 311.774 159.44C312 159.96 312.114 160.507 312.114 161.08V161.8H309.474V161.32Z" fill="url(#paint3_linear_323_922)"/>
        <path d="M251.589 157.04H254.229V162.76H258.749V157.04H261.389V171.04H258.749V165.28H254.229V171.04H251.589V157.04ZM263.975 162.48C263.975 160.667 264.429 159.26 265.335 158.26C266.255 157.26 267.522 156.76 269.135 156.76C270.749 156.76 272.009 157.26 272.915 158.26C273.835 159.26 274.295 160.667 274.295 162.48V165.6C274.295 167.467 273.835 168.887 272.915 169.86C272.009 170.833 270.749 171.32 269.135 171.32C267.522 171.32 266.255 170.833 265.335 169.86C264.429 168.887 263.975 167.467 263.975 165.6V162.48ZM269.135 168.92C269.615 168.92 270.015 168.847 270.335 168.7C270.655 168.54 270.915 168.32 271.115 168.04C271.315 167.76 271.455 167.427 271.535 167.04C271.615 166.653 271.655 166.227 271.655 165.76V162.32C271.655 161.88 271.609 161.467 271.515 161.08C271.422 160.693 271.275 160.36 271.075 160.08C270.875 159.8 270.615 159.58 270.295 159.42C269.975 159.247 269.589 159.16 269.135 159.16C268.682 159.16 268.295 159.247 267.975 159.42C267.655 159.58 267.395 159.8 267.195 160.08C266.995 160.36 266.849 160.693 266.755 161.08C266.662 161.467 266.615 161.88 266.615 162.32V165.76C266.615 166.227 266.655 166.653 266.735 167.04C266.815 167.427 266.955 167.76 267.155 168.04C267.355 168.32 267.615 168.54 267.935 168.7C268.255 168.847 268.655 168.92 269.135 168.92ZM286.822 157.04V166.2C286.822 167.8 286.395 169.053 285.542 169.96C284.702 170.867 283.448 171.32 281.782 171.32C280.115 171.32 278.855 170.867 278.002 169.96C277.162 169.053 276.742 167.8 276.742 166.2V157.04H279.382V166.2C279.382 167.027 279.575 167.673 279.962 168.14C280.348 168.607 280.955 168.84 281.782 168.84C282.608 168.84 283.215 168.607 283.602 168.14C283.988 167.673 284.182 167.027 284.182 166.2V157.04H286.822ZM299.168 171.04H296.528V166.84C296.528 166.52 296.441 166.26 296.268 166.06C296.108 165.86 295.834 165.76 295.448 165.76H292.408V171.04H289.768V157.04H295.128C295.848 157.04 296.481 157.14 297.028 157.34C297.574 157.54 298.028 157.82 298.388 158.18C298.761 158.527 299.041 158.933 299.228 159.4C299.428 159.867 299.528 160.367 299.528 160.9V161.38C299.528 161.953 299.374 162.493 299.068 163C298.761 163.493 298.288 163.873 297.648 164.14V164.5C298.114 164.553 298.481 164.733 298.748 165.04C299.028 165.347 299.168 165.733 299.168 166.2V171.04ZM292.408 163.24H294.928C295.568 163.24 296.054 163.093 296.388 162.8C296.721 162.493 296.888 162.067 296.888 161.52V161.28C296.888 160.813 296.721 160.413 296.388 160.08C296.054 159.733 295.568 159.56 294.928 159.56H292.408V163.24ZM309.474 161.32C309.474 160.76 309.254 160.273 308.814 159.86C308.387 159.447 307.78 159.24 306.994 159.24C306.327 159.24 305.8 159.38 305.414 159.66C305.027 159.927 304.834 160.293 304.834 160.76C304.834 161 304.88 161.22 304.974 161.42C305.067 161.607 305.227 161.78 305.454 161.94C305.694 162.087 306 162.22 306.374 162.34C306.76 162.46 307.247 162.573 307.834 162.68C309.3 162.947 310.42 163.393 311.194 164.02C311.967 164.647 312.354 165.573 312.354 166.8V167.04C312.354 167.693 312.234 168.287 311.994 168.82C311.767 169.34 311.434 169.787 310.994 170.16C310.554 170.533 310.02 170.82 309.394 171.02C308.767 171.22 308.06 171.32 307.274 171.32C306.354 171.32 305.54 171.193 304.834 170.94C304.14 170.673 303.56 170.313 303.094 169.86C302.627 169.393 302.274 168.853 302.034 168.24C301.794 167.613 301.674 166.933 301.674 166.2V165.6H304.314V166.08C304.314 166.92 304.554 167.593 305.034 168.1C305.527 168.593 306.287 168.84 307.314 168.84C308.114 168.84 308.707 168.667 309.094 168.32C309.48 167.973 309.674 167.56 309.674 167.08C309.674 166.853 309.634 166.64 309.554 166.44C309.474 166.227 309.334 166.04 309.134 165.88C308.934 165.707 308.66 165.553 308.314 165.42C307.967 165.287 307.527 165.173 306.994 165.08C306.287 164.96 305.64 164.807 305.054 164.62C304.467 164.42 303.954 164.16 303.514 163.84C303.087 163.52 302.754 163.12 302.514 162.64C302.274 162.16 302.154 161.573 302.154 160.88V160.76C302.154 160.187 302.267 159.66 302.494 159.18C302.734 158.687 303.06 158.26 303.474 157.9C303.9 157.54 304.407 157.26 304.994 157.06C305.594 156.86 306.26 156.76 306.994 156.76C307.82 156.76 308.554 156.88 309.194 157.12C309.834 157.347 310.367 157.66 310.794 158.06C311.234 158.46 311.56 158.92 311.774 159.44C312 159.96 312.114 160.507 312.114 161.08V161.8H309.474V161.32Z" fill="#00FFFF"/>
    </g>
    <g filter="url(#filter7_d_323_922)">
        <path d="M343.205 73.6856C343.574 74.305 343.581 75.0748 343.223 75.7005L314.34 126.247C313.987 126.864 313.332 127.248 312.621 127.254L253.934 127.762C253.223 127.768 252.562 127.396 252.198 126.785L222.43 76.7463C222.061 76.1269 222.054 75.3571 222.412 74.7314L251.295 24.1853C251.648 23.5676 252.303 23.184 253.014 23.1778L311.701 22.6697C312.412 22.6636 313.073 23.0358 313.437 23.6473L343.205 73.6856Z" fill="url(#paint4_linear_323_922)" fill-opacity="0.08" shape-rendering="crispEdges"/>
        <path d="M342.69 73.9923C342.948 74.4259 342.952 74.9647 342.702 75.4027L313.819 125.949C313.572 126.381 313.113 126.65 312.615 126.654L253.929 127.162C253.431 127.166 252.968 126.906 252.714 126.478L222.945 76.4396C222.687 76.006 222.683 75.4672 222.933 75.0292L251.816 24.483C252.063 24.0506 252.522 23.7821 253.02 23.7778L311.706 23.2697C312.204 23.2654 312.667 23.526 312.921 23.954L342.69 73.9923L343.205 73.6858L342.69 73.9923Z" stroke="url(#paint5_linear_323_922)" stroke-width="1.2" shape-rendering="crispEdges"/>
        <path d="M342.69 73.9923C342.948 74.4259 342.952 74.9647 342.702 75.4027L313.819 125.949C313.572 126.381 313.113 126.65 312.615 126.654L253.929 127.162C253.431 127.166 252.968 126.906 252.714 126.478L222.945 76.4396C222.687 76.006 222.683 75.4672 222.933 75.0292L251.816 24.483C252.063 24.0506 252.522 23.7821 253.02 23.7778L311.706 23.2697C312.204 23.2654 312.667 23.526 312.921 23.954L342.69 73.9923L343.205 73.6858L342.69 73.9923Z" stroke="#00FFFF" stroke-width="1.2" shape-rendering="crispEdges"/>
    </g>
    <rect width="3.99743" height="31.9523" transform="matrix(0.867041 -0.498237 0.501765 0.865004 335.272 32.272)" fill="white"/>
    <rect width="3.99743" height="31.9523" transform="matrix(0.867041 -0.498237 0.501765 0.865004 209.3 89.1624)" fill="white"/>
    <g filter="url(#filter8_d_323_922)">
        <path d="M204.287 78.0644L202.215 73.2803C201.964 72.7002 202.003 72.0353 202.32 71.4876L233.966 16.8029" stroke="#FF0049" stroke-width="1.2" stroke-miterlimit="10"/>
    </g>
    <g filter="url(#filter9_d_323_922)">
        <path d="M319.26 146.932L324.448 146.33C325.078 146.257 325.635 145.891 325.952 145.343L357.598 90.6586" stroke="#FF0049" stroke-width="1.2" stroke-miterlimit="10" stroke-linecap="round"/>
    </g>
</svg>
