<svg width="43" height="34" viewBox="0 0 43 34" fill="none" xmlns="http://www.w3.org/2000/svg">
<g filter="url(#filter0_f_898_14902)">
<g filter="url(#filter1_d_898_14902)">
<path d="M4.10855 7.34969H4.00195V6.45854L7.76975 4H14.7326V4.10745H7.80172L4.10855 6.51728V7.34969Z" fill="white"/>
<path d="M38.839 5.68702L36.1812 4.10745H25.9814V4H36.2103L36.2224 4.00716L38.893 5.59461L38.839 5.68702Z" fill="white"/>
<path d="M13.6015 14.5201L13.5261 14.4434L14.9019 13.0572H26.5571L28.1617 11.4404H34.9454V11.5479H28.2057L26.6018 13.1647H14.946L13.6015 14.5201Z" fill="white"/>
<path d="M8.09682 21.574L4 19.1112V16.8525H4.1066V19.0503L8.15153 21.4816L8.09682 21.574Z" fill="white"/>
<path d="M19.6732 24.2418L19.5979 24.1658L21.5024 22.246H34.8538L38.8881 19.4479V16.8525H38.9947V19.5045L34.8872 22.3534H21.5465L19.6732 24.2418Z" fill="white"/>
<path d="M19.3375 29.9998H6.73438L8.1258 28.5979L8.20113 28.6739L6.99162 29.8924H19.2927L20.6515 28.5234L20.7268 28.5994L19.3375 29.9998Z" fill="white"/>
</g>
<path d="M12.5804 7.2398L10.3369 4.97754H8.07709V4.98041L6.04112 6.16526L4.00586 7.3494L6.04112 8.53425L8.07709 9.71911V9.72126H33.137L30.6753 7.2398H12.5804Z" fill="#00FFFF"/>
<path d="M36.964 6.16526L34.9281 4.98041V4.97754H10.7373L12.6972 6.95325H30.7922L33.5381 9.72126H34.9281V9.71911L36.964 8.53425L38.9993 7.3494L36.964 6.16526Z" fill="#00FFFF"/>
<path d="M31.1898 16.685V14.4814H8.07709V14.4836L6.04112 15.6685L4.00586 16.8526L6.04112 18.0374L8.07709 19.2223V19.2244H10.1792L12.6991 16.685H31.1898Z" fill="#00FFFF"/>
<path d="M36.9643 15.6685L34.9284 14.4836V14.4814H31.4733V16.9715H12.8162L10.5806 19.2244H34.9284V19.2223L36.9643 18.0374L38.9996 16.8526L36.9643 15.6685Z" fill="#00FFFF"/>
<path d="M14.0223 26.4995V23.9844H8.07709V23.9865L6.04112 25.1714L4.00586 26.3562L6.04112 27.5404L8.07709 28.7252V28.7281H32.5251L30.3143 26.4995H14.0223Z" fill="#00FFFF"/>
<path d="M36.9648 25.1714L34.9288 23.9865V23.9844H14.3062V26.213H30.4319L32.9262 28.7281H34.9288V28.7252L36.9648 27.5404L39 26.3562L36.9648 25.1714Z" fill="#00FFFF"/>
</g>
<g filter="url(#filter2_d_898_14902)">
<path d="M4.10855 7.34969H4.00195V6.45854L7.76975 4H14.7326V4.10745H7.80172L4.10855 6.51728V7.34969Z" fill="white"/>
<path d="M38.839 5.68702L36.1812 4.10745H25.9814V4H36.2103L36.2224 4.00716L38.893 5.59461L38.839 5.68702Z" fill="white"/>
<path d="M13.6015 14.5201L13.5261 14.4434L14.9019 13.0572H26.5571L28.1617 11.4404H34.9454V11.5479H28.2057L26.6018 13.1647H14.946L13.6015 14.5201Z" fill="white"/>
<path d="M8.09682 21.574L4 19.1112V16.8525H4.1066V19.0503L8.15153 21.4816L8.09682 21.574Z" fill="white"/>
<path d="M19.6732 24.2418L19.5979 24.1658L21.5024 22.246H34.8538L38.8881 19.4479V16.8525H38.9947V19.5045L34.8872 22.3534H21.5465L19.6732 24.2418Z" fill="white"/>
<path d="M19.3375 29.9998H6.73438L8.1258 28.5979L8.20113 28.6739L6.99162 29.8924H19.2927L20.6515 28.5234L20.7268 28.5994L19.3375 29.9998Z" fill="white"/>
</g>
<path d="M12.5804 7.2398L10.3369 4.97754H8.07709V4.98041L6.04112 6.16526L4.00586 7.3494L6.04112 8.53425L8.07709 9.71911V9.72126H33.137L30.6753 7.2398H12.5804Z" fill="#00FFFF"/>
<path d="M36.964 6.16526L34.9281 4.98041V4.97754H10.7373L12.6972 6.95325H30.7922L33.5381 9.72126H34.9281V9.71911L36.964 8.53425L38.9993 7.3494L36.964 6.16526Z" fill="#00FFFF"/>
<path d="M31.1898 16.685V14.4814H8.07709V14.4836L6.04112 15.6685L4.00586 16.8526L6.04112 18.0374L8.07709 19.2223V19.2244H10.1792L12.6991 16.685H31.1898Z" fill="#00FFFF"/>
<path d="M36.9643 15.6685L34.9284 14.4836V14.4814H31.4733V16.9715H12.8162L10.5806 19.2244H34.9284V19.2223L36.9643 18.0374L38.9996 16.8526L36.9643 15.6685Z" fill="#00FFFF"/>
<path d="M14.0223 26.4995V23.9844H8.07709V23.9865L6.04112 25.1714L4.00586 26.3562L6.04112 27.5404L8.07709 28.7252V28.7281H32.5251L30.3143 26.4995H14.0223Z" fill="#00FFFF"/>
<path d="M36.9648 25.1714L34.9288 23.9865V23.9844H14.3062V26.213H30.4319L32.9262 28.7281H34.9288V28.7252L36.9648 27.5404L39 26.3562L36.9648 25.1714Z" fill="#00FFFF"/>
<defs>
<filter id="filter0_f_898_14902" x="0" y="0" width="43" height="34" filterUnits="userSpaceOnUse" color-interpolation-filters="sRGB">
<feFlood flood-opacity="0" result="BackgroundImageFix"/>
<feBlend mode="normal" in="SourceGraphic" in2="BackgroundImageFix" result="shape"/>
<feGaussianBlur stdDeviation="2" result="effect1_foregroundBlur_898_14902"/>
</filter>
<filter id="filter1_d_898_14902" x="0" y="0" width="42.9946" height="34" filterUnits="userSpaceOnUse" color-interpolation-filters="sRGB">
<feFlood flood-opacity="0" result="BackgroundImageFix"/>
<feColorMatrix in="SourceAlpha" type="matrix" values="0 0 0 0 0 0 0 0 0 0 0 0 0 0 0 0 0 0 127 0" result="hardAlpha"/>
<feOffset/>
<feGaussianBlur stdDeviation="2"/>
<feComposite in2="hardAlpha" operator="out"/>
<feColorMatrix type="matrix" values="0 0 0 0 1 0 0 0 0 1 0 0 0 0 1 0 0 0 0.7 0"/>
<feBlend mode="normal" in2="BackgroundImageFix" result="effect1_dropShadow_898_14902"/>
<feBlend mode="normal" in="SourceGraphic" in2="effect1_dropShadow_898_14902" result="shape"/>
</filter>
<filter id="filter2_d_898_14902" x="0" y="0" width="42.9946" height="34" filterUnits="userSpaceOnUse" color-interpolation-filters="sRGB">
<feFlood flood-opacity="0" result="BackgroundImageFix"/>
<feColorMatrix in="SourceAlpha" type="matrix" values="0 0 0 0 0 0 0 0 0 0 0 0 0 0 0 0 0 0 127 0" result="hardAlpha"/>
<feOffset/>
<feGaussianBlur stdDeviation="2"/>
<feComposite in2="hardAlpha" operator="out"/>
<feColorMatrix type="matrix" values="0 0 0 0 1 0 0 0 0 1 0 0 0 0 1 0 0 0 0.7 0"/>
<feBlend mode="normal" in2="BackgroundImageFix" result="effect1_dropShadow_898_14902"/>
<feBlend mode="normal" in="SourceGraphic" in2="effect1_dropShadow_898_14902" result="shape"/>
</filter>
</defs>
</svg>
