<svg width="60" height="62" viewBox="0 0 60 62" fill="none"
    xmlns="http://www.w3.org/2000/svg">
    <defs>
        <filter id="filter0_d_532_3238" x="0.505371" y="10.4785" width="58.8408" height="25.042" filterUnits="userSpaceOnUse" color-interpolation-filters="sRGB">
            <feFlood flood-opacity="0" result="BackgroundImageFix"/>
            <feColorMatrix in="SourceAlpha" type="matrix" values="0 0 0 0 0 0 0 0 0 0 0 0 0 0 0 0 0 0 127 0" result="hardAlpha"/>
            <feOffset/>
            <feGaussianBlur stdDeviation="1.5"/>
            <feComposite in2="hardAlpha" operator="out"/>
            <feColorMatrix type="matrix" values="0 0 0 0 1 0 0 0 0 1 0 0 0 0 1 0 0 0 0.65 0"/>
            <feBlend mode="normal" in2="BackgroundImageFix" result="effect1_dropShadow_532_3238"/>
            <feBlend mode="normal" in="SourceGraphic" in2="effect1_dropShadow_532_3238" result="shape"/>
        </filter>
        <filter id="filter1_d_532_3238" x="0" y="0" width="59.9995" height="57.1934" filterUnits="userSpaceOnUse" color-interpolation-filters="sRGB">
            <feFlood flood-opacity="0" result="BackgroundImageFix"/>
            <feColorMatrix in="SourceAlpha" type="matrix" values="0 0 0 0 0 0 0 0 0 0 0 0 0 0 0 0 0 0 127 0" result="hardAlpha"/>
            <feOffset/>
            <feGaussianBlur stdDeviation="1.5"/>
            <feComposite in2="hardAlpha" operator="out"/>
            <feColorMatrix type="matrix" values="0 0 0 0 1 0 0 0 0 0 0 0 0 0 0 0 0 0 0.65 0"/>
            <feBlend mode="normal" in2="BackgroundImageFix" result="effect1_dropShadow_532_3238"/>
            <feBlend mode="normal" in="SourceGraphic" in2="effect1_dropShadow_532_3238" result="shape"/>
        </filter>
        <filter id="filter2_d_532_3238" x="1.67432" y="4.21387" width="56.5464" height="57.7861" filterUnits="userSpaceOnUse" color-interpolation-filters="sRGB">
            <feFlood flood-opacity="0" result="BackgroundImageFix"/>
            <feColorMatrix in="SourceAlpha" type="matrix" values="0 0 0 0 0 0 0 0 0 0 0 0 0 0 0 0 0 0 127 0" result="hardAlpha"/>
            <feOffset/>
            <feGaussianBlur stdDeviation="1.5"/>
            <feComposite in2="hardAlpha" operator="out"/>
            <feColorMatrix type="matrix" values="0 0 0 0 0 0 0 0 0 0.890196 0 0 0 0 1 0 0 0 0.65 0"/>
            <feBlend mode="normal" in2="BackgroundImageFix" result="effect1_dropShadow_532_3238"/>
            <feBlend mode="normal" in="SourceGraphic" in2="effect1_dropShadow_532_3238" result="shape"/>
        </filter>
    </defs>
    <g filter="url(#filter0_d_532_3238)">
        <path d="M49.7992 16.818C49.7673 16.8184 49.7359 16.8099 49.708 16.7935C49.68 16.7771 49.6565 16.7532 49.6398 16.7242L48.0759 14.0795H37.2578L35.6901 16.7242C35.6635 16.7693 35.6211 16.8013 35.5724 16.8131C35.5237 16.8249 35.4725 16.8156 35.4303 16.7872C35.388 16.7587 35.358 16.7136 35.347 16.6616C35.3359 16.6096 35.3446 16.5551 35.3713 16.51L36.9942 13.7715C37.0112 13.7428 37.0348 13.7192 37.0626 13.7029C37.0905 13.6865 37.1218 13.6778 37.1536 13.6777H48.1751C48.2069 13.6775 48.2384 13.6859 48.2663 13.7024C48.2942 13.7188 48.3177 13.7426 48.3345 13.7715L49.9586 16.51C49.977 16.5402 49.9873 16.5751 49.9886 16.6111C49.9898 16.6471 49.9819 16.6827 49.9657 16.7143C49.9495 16.7459 49.9256 16.7722 49.8965 16.7904C49.8674 16.8087 49.8342 16.8182 49.8005 16.818H49.7992Z" fill="white"/>
        <path d="M50.881 32.5198C50.8516 32.5198 50.8225 32.5125 50.7962 32.4986C50.7698 32.4846 50.7469 32.4644 50.7291 32.4394C50.7143 32.4182 50.7036 32.3941 50.6976 32.3685C50.6915 32.3429 50.6903 32.3163 50.6939 32.2902C50.6975 32.2641 50.7059 32.239 50.7186 32.2163C50.7313 32.1937 50.7481 32.1739 50.768 32.1582L55.9078 28.0538L51.4935 20.3633L49.2882 22.3573V31.5074C49.2882 31.5607 49.2683 31.6118 49.233 31.6494C49.1977 31.6871 49.1498 31.7083 49.0999 31.7083C49.05 31.7083 49.0021 31.6871 48.9668 31.6494C48.9315 31.6118 48.9116 31.5607 48.9116 31.5074V22.2675C48.9114 22.2384 48.9173 22.2096 48.9288 22.1832C48.9403 22.1568 48.9572 22.1335 48.9781 22.1149L51.4182 19.9094C51.439 19.8908 51.4632 19.8772 51.4894 19.8696C51.5155 19.8619 51.5429 19.8603 51.5697 19.8648C51.5964 19.8694 51.622 19.8801 51.6445 19.8961C51.6671 19.9121 51.6862 19.933 51.7006 19.9576L56.3183 28.0043C56.3431 28.0472 56.3519 28.0985 56.3431 28.1481C56.3343 28.1976 56.3084 28.2419 56.2706 28.2721L50.9989 32.4849C50.9647 32.5109 50.9229 32.5233 50.881 32.5198Z" fill="white"/>
        <path d="M42.6793 24.297H42.653C42.6293 24.2969 42.6059 24.2919 42.584 24.2823L36.8667 21.8424C36.8457 21.8342 36.8265 21.8214 36.8103 21.8049L31.6641 16.8315C31.6453 16.8133 31.6301 16.7912 31.6196 16.7666C31.609 16.742 31.6032 16.7153 31.6026 16.6882C31.6018 16.6612 31.6062 16.6344 31.6155 16.6093C31.6248 16.5842 31.6388 16.5614 31.6566 16.5422L34.433 13.5386C34.4593 13.5106 34.4929 13.4915 34.5294 13.4837C34.5659 13.476 34.6037 13.48 34.6381 13.4951C34.6725 13.5103 34.7018 13.5361 34.7225 13.5691C34.7432 13.6021 34.7543 13.6409 34.7543 13.6806V15.8231L42.6718 21.4233L50.5868 15.8231V13.6806C50.5866 13.6406 50.5975 13.6014 50.6183 13.5682C50.639 13.5349 50.6686 13.5089 50.7033 13.4937C50.7379 13.4784 50.776 13.4746 50.8128 13.4826C50.8495 13.4906 50.8831 13.5101 50.9094 13.5386L53.6845 16.5422C53.7025 16.5613 53.7167 16.5841 53.7262 16.6092C53.7357 16.6343 53.7403 16.6611 53.7397 16.6882C53.7389 16.7154 53.7329 16.7421 53.7221 16.7667C53.7113 16.7913 53.696 16.8134 53.677 16.8315L48.5309 21.8049C48.5142 21.8208 48.4951 21.8335 48.4744 21.8424L42.7572 24.2823C42.7324 24.2928 42.706 24.2978 42.6793 24.297ZM37.0312 21.4849L42.6605 23.8859L48.2936 21.4849L53.2741 16.6761L50.9633 14.168V15.9316C50.9634 15.9647 50.9557 15.9974 50.941 16.0266C50.9263 16.0558 50.9051 16.0807 50.8792 16.099L42.7873 21.8223C42.7564 21.8442 42.7202 21.8558 42.6831 21.8558H42.6568C42.6197 21.8555 42.5836 21.8438 42.5526 21.8223L34.4619 16.099C34.4358 16.0807 34.4144 16.0559 34.3996 16.0267C34.3847 15.9975 34.3768 15.9648 34.3765 15.9316V14.168L32.062 16.6735L37.0312 21.4849Z" fill="white"/>
        <path d="M46.6596 30.9621C46.6263 30.9625 46.5935 30.9533 46.5646 30.9357C46.5358 30.918 46.5118 30.8924 46.4953 30.8615C46.4788 30.8307 46.4703 30.7957 46.4708 30.7602C46.4712 30.7247 46.4804 30.6899 46.4976 30.6595L47.9888 27.9679V23.7604L44.9639 26.3489C44.9369 26.3716 44.9047 26.3861 44.8707 26.3908C44.8366 26.3956 44.802 26.3903 44.7706 26.3757L42.6669 25.4062L40.562 26.3757C40.5308 26.3904 40.4964 26.3956 40.4625 26.3909C40.4287 26.3862 40.3967 26.3716 40.37 26.3489L37.3438 23.7604V26.6957C37.3438 26.749 37.324 26.8001 37.2887 26.8378C37.2534 26.8754 37.2055 26.8966 37.1556 26.8966C37.1056 26.8966 37.0577 26.8754 37.0224 26.8378C36.9871 26.8001 36.9673 26.749 36.9673 26.6957V23.3426C36.9673 23.3047 36.9773 23.2676 36.9962 23.2355C37.0151 23.2034 37.0421 23.1777 37.0742 23.1613C37.1062 23.145 37.1419 23.1386 37.1772 23.1429C37.2125 23.1473 37.2459 23.1622 37.2735 23.1859L40.5169 25.9606L42.5791 25.0098C42.6025 24.9991 42.6277 24.9936 42.6531 24.9937H42.6807C42.7066 24.9936 42.7322 24.9991 42.756 25.0098L44.817 25.9606L48.0603 23.1859C48.088 23.1622 48.1214 23.1473 48.1567 23.1429C48.192 23.1386 48.2277 23.145 48.2597 23.1613C48.2917 23.1777 48.3188 23.2034 48.3377 23.2355C48.3566 23.2676 48.3666 23.3047 48.3666 23.3426V28.0228C48.3668 28.0587 48.3576 28.0939 48.3402 28.1246L46.8227 30.8644C46.8059 30.8944 46.782 30.9193 46.7533 30.9364C46.7247 30.9536 46.6924 30.9624 46.6596 30.9621Z" fill="white"/>
        <path d="M36.2324 26.5245C36.1824 26.5245 36.1345 26.5034 36.0992 26.4657C36.0639 26.428 36.0441 26.377 36.0441 26.3237V22.3586L33.8375 20.3646L31.5293 24.382C31.5164 24.4045 31.4994 24.4241 31.4794 24.4396C31.4593 24.4551 31.4366 24.4662 31.4126 24.4724C31.3885 24.4785 31.3635 24.4796 31.3391 24.4754C31.3147 24.4713 31.2912 24.4621 31.2701 24.4483C31.249 24.4345 31.2307 24.4164 31.2161 24.395C31.2016 24.3736 31.1911 24.3494 31.1854 24.3237C31.1796 24.298 31.1786 24.2714 31.1825 24.2453C31.1864 24.2192 31.195 24.1942 31.208 24.1717L33.6304 19.9495C33.6449 19.9249 33.6641 19.9039 33.6869 19.888C33.7096 19.8721 33.7353 19.8615 33.7622 19.8571C33.7888 19.8525 33.8161 19.854 33.8421 19.8616C33.8681 19.8693 33.8922 19.8828 33.9128 19.9013L36.3541 22.1068C36.3748 22.1257 36.3915 22.1491 36.403 22.1754C36.4144 22.2018 36.4205 22.2304 36.4206 22.2595V26.3183C36.4213 26.3451 36.4169 26.3718 36.4078 26.3968C36.3986 26.4218 36.3848 26.4446 36.3673 26.4638C36.3497 26.4831 36.3288 26.4983 36.3056 26.5088C36.2824 26.5192 36.2575 26.5246 36.2324 26.5245Z" fill="white"/>
        <path d="M24.3188 16.8179C24.2871 16.8181 24.2559 16.8096 24.2282 16.7932C24.2005 16.7768 24.1773 16.753 24.1607 16.7242L22.598 14.0795H11.7773L10.2096 16.7242C10.1973 16.7484 10.1805 16.7696 10.1602 16.7865C10.1399 16.8034 10.1166 16.8157 10.0916 16.8227C10.0667 16.8296 10.0407 16.831 10.0152 16.8267C9.98975 16.8225 9.96538 16.8127 9.9436 16.798C9.92182 16.7833 9.9031 16.764 9.8886 16.7413C9.87409 16.7186 9.86412 16.6929 9.85929 16.6659C9.85446 16.6389 9.85488 16.6111 9.86052 16.5843C9.86616 16.5575 9.87691 16.5322 9.89209 16.51L11.515 13.7715C11.5319 13.7427 11.5554 13.7189 11.5833 13.7025C11.6112 13.6861 11.6425 13.6776 11.6744 13.6777H22.6959C22.7277 13.6778 22.759 13.6865 22.7868 13.7029C22.8147 13.7192 22.8382 13.7428 22.8553 13.7715L24.4807 16.51C24.4991 16.5403 24.5095 16.5753 24.5107 16.6114C24.5118 16.6475 24.5038 16.6833 24.4875 16.7149C24.4711 16.7465 24.447 16.7728 24.4178 16.7909C24.3885 16.8091 24.3552 16.8184 24.3213 16.8179H24.3188Z" fill="white"/>
        <path d="M8.97084 32.5202C8.93042 32.5206 8.89106 32.5065 8.85913 32.4801L3.58121 28.2672C3.54339 28.237 3.51753 28.1927 3.5087 28.1432C3.49988 28.0936 3.50873 28.0423 3.53352 27.9994L8.15122 19.9527C8.16556 19.9281 8.18466 19.9072 8.20725 19.8912C8.22983 19.8752 8.25537 19.8645 8.28213 19.86C8.3089 19.8554 8.33628 19.857 8.36241 19.8647C8.38855 19.8724 8.41283 19.8859 8.43363 19.9045L10.8749 22.11C10.8956 22.1289 10.9123 22.1522 10.9238 22.1786C10.9352 22.2049 10.9413 22.2336 10.9414 22.2627V31.5025C10.9414 31.5558 10.9216 31.6069 10.8863 31.6445C10.851 31.6822 10.8031 31.7034 10.7532 31.7034C10.7032 31.7034 10.6553 31.6822 10.62 31.6445C10.5847 31.6069 10.5649 31.5558 10.5649 31.5025V22.3577L8.35832 20.3638L3.94521 28.0543L9.0838 32.1587C9.10368 32.1744 9.12045 32.1942 9.13316 32.2168C9.14588 32.2395 9.15428 32.2646 9.1579 32.2907C9.16151 32.3168 9.16026 32.3434 9.15423 32.369C9.14819 32.3946 9.13748 32.4187 9.12271 32.4399C9.10491 32.4649 9.08194 32.4851 9.0556 32.499C9.02925 32.513 9.00024 32.5202 8.97084 32.5202Z" fill="white"/>
        <path d="M17.2002 24.297H17.1739C17.1498 24.2968 17.1259 24.2918 17.1036 24.2823L11.3863 21.8424C11.3656 21.8335 11.3465 21.8208 11.3299 21.8049L6.18374 16.8315C6.16491 16.8133 6.14974 16.7912 6.13917 16.7666C6.12859 16.742 6.12284 16.7153 6.12224 16.6882C6.12114 16.6612 6.12538 16.6342 6.13468 16.6091C6.14398 16.584 6.15813 16.5612 6.17621 16.5422L8.95135 13.5386C8.97761 13.5101 9.01125 13.4906 9.04797 13.4826C9.08468 13.4746 9.1228 13.4784 9.15744 13.4937C9.19208 13.5089 9.22167 13.5349 9.24243 13.5682C9.26318 13.6014 9.27414 13.6406 9.27393 13.6806V15.8231L17.1902 21.4233L25.1077 15.8231V13.6806C25.1074 13.6406 25.1184 13.6014 25.1392 13.5682C25.1599 13.5349 25.1895 13.5089 25.2241 13.4937C25.2588 13.4784 25.2969 13.4746 25.3336 13.4826C25.3703 13.4906 25.404 13.5101 25.4302 13.5386L28.2054 16.5422C28.2232 16.5614 28.2372 16.5842 28.2465 16.6093C28.2558 16.6344 28.2601 16.6612 28.2593 16.6882C28.2587 16.7153 28.253 16.742 28.2424 16.7666C28.2318 16.7912 28.2167 16.8133 28.1978 16.8315L23.0517 21.8049C23.0355 21.8214 23.0163 21.8342 22.9952 21.8424L17.2793 24.2823C17.2542 24.293 17.2272 24.298 17.2002 24.297ZM11.552 21.4849L17.1801 23.8859L22.8132 21.4849L27.7937 16.6761L25.4842 14.168V15.9316C25.4842 15.9647 25.4765 15.9974 25.4619 16.0266C25.4472 16.0558 25.426 16.0807 25.4001 16.099L17.3081 21.8223C17.2771 21.8438 17.241 21.8555 17.204 21.8558H17.1776C17.1406 21.8556 17.1044 21.844 17.0734 21.8223L8.98147 16.099C8.9556 16.0807 8.93439 16.0558 8.91971 16.0266C8.90504 15.9974 8.89737 15.9647 8.89738 15.9316V14.168L6.58162 16.6735L11.552 21.4849Z" fill="white"/>
        <path d="M13.1931 30.9621C13.1604 30.9622 13.1284 30.9532 13.1 30.9361C13.0716 30.919 13.0479 30.8942 13.0311 30.8644L11.5137 28.1246C11.4962 28.0939 11.4871 28.0587 11.4873 28.0228V23.3426C11.4873 23.3047 11.4973 23.2676 11.5162 23.2355C11.5351 23.2034 11.5622 23.1777 11.5942 23.1613C11.6262 23.145 11.6619 23.1386 11.6972 23.1429C11.7325 23.1473 11.7659 23.1622 11.7936 23.1859L15.0369 25.9606L17.0978 25.0098C17.1217 24.9991 17.1473 24.9936 17.1731 24.9937H17.202C17.2275 24.9936 17.2527 24.9991 17.2761 25.0098L19.3383 25.9606L22.5816 23.1859C22.6093 23.1622 22.6427 23.1473 22.678 23.1429C22.7132 23.1386 22.749 23.145 22.781 23.1613C22.813 23.1777 22.84 23.2034 22.8589 23.2355C22.8779 23.2676 22.8879 23.3047 22.8878 23.3426V26.6971C22.8878 26.7504 22.868 26.8014 22.8327 26.8391C22.7974 26.8768 22.7495 26.8979 22.6996 26.8979C22.6496 26.8979 22.6018 26.8768 22.5665 26.8391C22.5311 26.8014 22.5113 26.7504 22.5113 26.6971V23.7604L19.4851 26.3489C19.4585 26.3716 19.4265 26.3862 19.3926 26.3909C19.3588 26.3956 19.3243 26.3904 19.2931 26.3757L17.1882 25.4062L15.0846 26.3757C15.0533 26.3904 15.0189 26.3956 14.9851 26.3909C14.9512 26.3862 14.9192 26.3716 14.8925 26.3489L11.8639 23.7604V27.9666L13.355 30.6582C13.3803 30.704 13.3877 30.7588 13.3755 30.8104C13.3633 30.8621 13.3324 30.9065 13.2897 30.934C13.2603 30.9522 13.227 30.9619 13.1931 30.9621Z" fill="white"/>
        <path d="M23.6194 26.5233C23.5695 26.5233 23.5216 26.5022 23.4863 26.4645C23.451 26.4268 23.4312 26.3757 23.4312 26.3225V22.2636C23.4313 22.2346 23.4373 22.2059 23.4488 22.1796C23.4603 22.1532 23.477 22.1298 23.4977 22.111L25.9389 19.9055C25.9597 19.8869 25.984 19.8733 26.0102 19.8657C26.0363 19.858 26.0637 19.8564 26.0904 19.8609C26.1172 19.8655 26.1427 19.8761 26.1653 19.8921C26.1879 19.9081 26.207 19.9291 26.2214 19.9537L28.6438 24.1759C28.6567 24.1984 28.6654 24.2234 28.6693 24.2495C28.6732 24.2756 28.6722 24.3022 28.6664 24.3279C28.6606 24.3536 28.6502 24.3778 28.6356 24.3991C28.6211 24.4205 28.6028 24.4386 28.5817 24.4524C28.5606 24.4662 28.5371 24.4755 28.5127 24.4796C28.4882 24.4837 28.4633 24.4827 28.4392 24.4765C28.4151 24.4704 28.3924 24.4592 28.3724 24.4437C28.3524 24.4282 28.3354 24.4086 28.3225 24.3861L26.0143 20.3688L23.8077 22.3627V26.3278C23.8064 26.3802 23.786 26.4299 23.7508 26.4664C23.7156 26.5029 23.6685 26.5234 23.6194 26.5233Z" fill="white"/>
    </g>
    <g filter="url(#filter1_d_532_3238)">
        <path d="M47.0164 10.4227C46.9699 10.4227 46.9251 10.4041 46.8908 10.3705C42.8979 6.52248 37.8713 4.11254 32.5231 3.48212C32.4984 3.47913 32.4745 3.47098 32.4527 3.45812C32.4309 3.44526 32.4117 3.42796 32.3962 3.40719C32.3807 3.38643 32.3692 3.3626 32.3623 3.33709C32.3555 3.31158 32.3534 3.28487 32.3562 3.25849C32.359 3.23211 32.3666 3.20658 32.3787 3.18335C32.3907 3.16013 32.407 3.13966 32.4264 3.12312C32.4459 3.10658 32.4682 3.0943 32.4921 3.08697C32.516 3.07963 32.5411 3.0774 32.5658 3.08039C37.9921 3.71964 43.0921 6.16476 47.1431 10.0692C47.1716 10.0963 47.1918 10.132 47.2008 10.1716C47.2098 10.2112 47.2074 10.2527 47.1938 10.2908C47.1802 10.3289 47.156 10.3616 47.1246 10.3847C47.0931 10.4078 47.0558 10.4201 47.0176 10.42L47.0164 10.4227Z" fill="#FF0049"/>
        <path d="M14.7152 11.6783C14.6694 11.6793 14.6248 11.6627 14.5897 11.6314L12.7622 9.99099C12.7411 9.97226 12.7241 9.94882 12.7125 9.92232C12.7009 9.89583 12.6948 9.86692 12.6948 9.83766C12.6948 9.8084 12.7009 9.77949 12.7125 9.753C12.7241 9.7265 12.7411 9.70306 12.7622 9.68433C16.9095 5.8907 22.0714 3.58693 27.5152 3.09993C28.4218 3.01866 29.3318 2.98693 30.2414 3.00485C30.2661 3.00502 30.2906 3.01045 30.3133 3.02083C30.336 3.0312 30.3566 3.04631 30.3738 3.06526C30.3909 3.08422 30.4044 3.10664 30.4134 3.13122C30.4223 3.1558 30.4266 3.18204 30.4259 3.2084C30.4253 3.26121 30.4051 3.31161 30.3699 3.3487C30.3347 3.3858 30.2871 3.40659 30.2376 3.40659C29.3417 3.39016 28.4456 3.42323 27.5529 3.50568C22.2646 3.97714 17.2439 6.18845 13.1839 9.83431L14.7215 11.2136C17.7707 8.56227 21.3884 6.75872 25.2509 5.96429C25.2768 5.95864 25.3035 5.95894 25.3293 5.96518C25.355 5.97141 25.3792 5.98343 25.4003 6.00044C25.4212 6.01762 25.4386 6.0392 25.4513 6.06386C25.464 6.08851 25.4719 6.1157 25.4743 6.14373L25.7819 9.94814C25.7862 10.0014 25.7705 10.0543 25.7383 10.0953C25.706 10.1362 25.6598 10.1618 25.6099 10.1664C25.56 10.171 25.5104 10.1543 25.472 10.1199C25.4336 10.0855 25.4096 10.0362 25.4053 9.98295L25.1078 6.40351C21.3311 7.21823 17.8011 9.01436 14.8307 11.6327C14.798 11.6613 14.7574 11.6773 14.7152 11.6783Z" fill="#FF0049"/>
        <path d="M40.033 6.84281C40.007 6.84285 39.9813 6.83691 39.9576 6.8254C39.0195 6.38485 38.0551 6.01087 37.0708 5.70591L36.2662 6.71426C36.243 6.74365 36.2122 6.76522 36.1777 6.77639C36.1432 6.78756 36.1064 6.78784 36.0717 6.77719C34.7487 6.37507 33.395 6.09858 32.0263 5.95096C32.0016 5.94833 31.9776 5.94052 31.9557 5.92799C31.9338 5.91546 31.9145 5.89845 31.8987 5.87793C31.883 5.85741 31.8712 5.83379 31.864 5.80841C31.8568 5.78303 31.8544 5.75639 31.8569 5.73001C31.8594 5.70363 31.8667 5.67803 31.8784 5.65467C31.8902 5.63131 31.9061 5.61065 31.9254 5.59386C31.9446 5.57707 31.9667 5.56449 31.9905 5.55683C32.0143 5.54918 32.0393 5.54659 32.064 5.54923C33.4152 5.69463 34.7523 5.96344 36.0604 6.3527L36.8662 5.34435C36.8894 5.31482 36.9201 5.29314 36.9547 5.28197C36.9892 5.27079 37.0261 5.27059 37.0608 5.28141C38.1009 5.59787 39.1195 5.98981 40.1095 6.45447C40.1497 6.4727 40.1826 6.50526 40.2028 6.54656C40.2229 6.58787 40.229 6.63536 40.22 6.68091C40.2109 6.72646 40.1873 6.76725 40.1532 6.79629C40.1191 6.82533 40.0766 6.84083 40.033 6.84013V6.84281Z" fill="#FF0049"/>
        <path d="M29.9023 52.8086H31.4135L32.0574 54.1932H29.9023V52.8086Z" fill="#FF0049"/>
        <path d="M36.1021 41.2895L38.1806 39.4951V41.9055L36.1021 44.1927V41.2895Z" fill="#FF0049"/>
        <path d="M35.0811 51.048L37.8863 46.6504H37.2349L35.0811 49.9928V51.048Z" fill="#FF0049"/>
        <path d="M35.6433 45.2783V41.6426L33.3125 43.6834L29.9474 41.8756V41.8528L29.9261 41.8649L29.9048 41.8528V41.8756L26.5397 43.6834L24.2089 41.6426V45.2783L21.6685 42.5679V46.1929H22.8232L25.1766 49.8741V51.6337L26.9338 54.1914H27.461L28.2969 52.4505H31.5528L32.3887 54.1914H32.9159L34.6731 51.6337V49.8741L37.0328 46.1929H38.1875V42.5679L35.6433 45.2783ZM29.9048 46.2946V46.3214L29.9261 46.308L29.9474 46.3214V46.2946L31.9055 45.0198L31.4875 46.1701L29.9261 47.2347L28.3647 46.1701L27.9467 45.0198L29.9048 46.2946ZM32.9058 50.6267L31.9933 51.0605H27.8589L26.9464 50.6267L26.187 46.991L27.3166 48.3395H32.5293L33.6589 46.991L32.9058 50.6267Z" fill="#FF0049"/>
        <path d="M29.9451 52.8086H28.4339L27.79 54.1932H29.9451V52.8086Z" fill="#FF0049"/>
        <path d="M23.747 41.2895L21.6685 39.4951V41.9055L23.747 44.1927V41.2895Z" fill="#FF0049"/>
        <path d="M24.7679 51.048L21.9614 46.6504H22.6128L24.7679 49.9928V51.048Z" fill="#FF0049"/>
        <path d="M4.21044 34.1019C4.18539 34.102 4.16059 34.0966 4.13764 34.0858C4.11125 34.0736 4.08774 34.0552 4.06885 34.0321C4.04996 34.0089 4.03616 33.9815 4.02845 33.9519L3.0055 29.7418C2.99638 29.7023 2.99864 29.6607 3.01201 29.6226C3.02537 29.5845 3.0492 29.5515 3.08039 29.5281C3.11158 29.5047 3.14867 29.4918 3.18681 29.4912C3.22496 29.4906 3.26238 29.5024 3.29418 29.5248L6.92157 32.1548C6.94812 32.174 6.96965 32.2 6.98415 32.2304C6.99864 32.2609 7.00562 32.2948 7.00441 32.3289C7.00311 32.3632 6.99367 32.3965 6.97698 32.4258C6.9603 32.4551 6.93691 32.4793 6.90902 32.4963L4.30333 34.0725C4.27533 34.0908 4.24329 34.101 4.21044 34.1019ZM3.49626 30.1556L4.33094 33.5957L6.4647 32.3048L3.49626 30.1556Z" fill="#FF0049"/>
        <path d="M56.156 33.8192C56.1342 33.8191 56.1125 33.815 56.092 33.8071L53.1888 32.6809C53.1573 32.6689 53.1293 32.648 53.108 32.6204C53.0866 32.5929 53.0725 32.5597 53.0673 32.5244C53.062 32.4891 53.0657 32.4529 53.0781 32.4197C53.0904 32.3864 53.1109 32.3573 53.1374 32.3354L56.6995 29.3439C56.7389 29.3129 56.7881 29.2995 56.8366 29.3065C56.8851 29.3136 56.9292 29.3405 56.9594 29.3816C56.9896 29.4227 57.0036 29.4748 56.9984 29.5268C56.9933 29.5787 56.9693 29.6265 56.9317 29.6599L53.6357 32.4278L56.22 33.4295C56.267 33.4479 56.3053 33.4854 56.3265 33.5339C56.3476 33.5823 56.35 33.6377 56.333 33.6879C56.3198 33.7266 56.2957 33.76 56.264 33.7835C56.2323 33.807 56.1946 33.8194 56.156 33.8192Z" fill="#FF0049"/>
    </g>
    <g filter="url(#filter2_d_532_3238)">
        <path d="M41.2342 7.40637L40.4535 9.22488C40.4405 9.25922 40.4158 9.28697 40.3843 9.30241C40.3527 9.31785 40.3169 9.31982 40.284 9.3079C40.269 9.29974 40.2556 9.2884 40.2447 9.27459C40.2338 9.26077 40.2257 9.24475 40.2208 9.22749C40.2158 9.21023 40.2142 9.19209 40.2161 9.17415C40.2179 9.15621 40.2231 9.13885 40.2313 9.12311L41.012 7.3046C41.0249 7.27026 41.0497 7.24251 41.0812 7.22706C41.1128 7.21162 41.1486 7.20965 41.1815 7.22157C41.1965 7.22974 41.2099 7.24107 41.2208 7.25489C41.2317 7.26871 41.2398 7.28473 41.2447 7.30199C41.2496 7.31925 41.2513 7.33739 41.2494 7.35533C41.2476 7.37326 41.2424 7.39062 41.2342 7.40637Z" fill="#00FFFF"/>
        <path d="M41.8859 7.72979L41.0437 9.51884C41.0296 9.55259 41.004 9.57931 40.972 9.5935C40.94 9.60769 40.9041 9.60829 40.8718 9.59517C40.8567 9.58644 40.8435 9.57451 40.8329 9.56012C40.8223 9.54573 40.8146 9.52917 40.8103 9.51148C40.8059 9.49379 40.805 9.47534 40.8076 9.45726C40.8102 9.43918 40.8162 9.42185 40.8253 9.40636L41.6713 7.61731C41.6849 7.58343 41.7103 7.55653 41.7422 7.54228C41.774 7.52804 41.8098 7.52757 41.842 7.54098C41.8569 7.54994 41.8698 7.56203 41.8802 7.57653C41.8905 7.59103 41.8979 7.60762 41.9021 7.6253C41.9062 7.64297 41.9069 7.66135 41.9041 7.67932C41.9013 7.69728 41.8951 7.71446 41.8859 7.72979Z" fill="#00FFFF"/>
        <path d="M42.5188 8.08288L41.6214 9.84113C41.6148 9.85808 41.605 9.87339 41.5926 9.88612C41.5802 9.89885 41.5655 9.90872 41.5493 9.91513C41.5332 9.92153 41.516 9.92433 41.4988 9.92335C41.4816 9.92237 41.4648 9.91763 41.4494 9.90942C41.4345 9.90014 41.4216 9.88767 41.4114 9.87281C41.4012 9.85794 41.394 9.84099 41.3902 9.82302C41.3865 9.80505 41.3862 9.78644 41.3895 9.76836C41.3928 9.75028 41.3995 9.73311 41.4093 9.71793L42.3055 7.95968C42.32 7.92612 42.3463 7.89999 42.3787 7.88696C42.4111 7.87393 42.447 7.87504 42.4787 7.89005C42.4938 7.89932 42.5069 7.91185 42.5172 7.92682C42.5275 7.94179 42.5348 7.95889 42.5385 7.97703C42.5423 7.99517 42.5425 8.01394 42.5391 8.03217C42.5357 8.05039 42.5288 8.06766 42.5188 8.08288Z" fill="#00FFFF"/>
        <path d="M43.1371 8.46583L42.1857 10.1879C42.1786 10.2046 42.1682 10.2196 42.1554 10.2319C42.1425 10.2442 42.1274 10.2535 42.1111 10.2593C42.0947 10.265 42.0774 10.2672 42.0602 10.2655C42.0431 10.2638 42.0264 10.2584 42.0113 10.2495C41.9965 10.2397 41.9838 10.2267 41.974 10.2114C41.9642 10.196 41.9575 10.1787 41.9543 10.1604C41.9511 10.1421 41.9515 10.1234 41.9555 10.1053C41.9594 10.0872 41.9669 10.0702 41.9774 10.0554L42.9263 8.33192C42.9336 8.31531 42.944 8.30048 42.9569 8.28835C42.9698 8.27622 42.9849 8.26704 43.0012 8.26139C43.0176 8.25574 43.0349 8.25374 43.052 8.25551C43.0691 8.25727 43.0857 8.26277 43.1007 8.27166C43.1293 8.29259 43.1491 8.32459 43.1559 8.36086C43.1627 8.39712 43.156 8.43479 43.1371 8.46583Z" fill="#00FFFF"/>
        <path d="M43.7412 8.87977L42.7371 10.5657C42.7293 10.5819 42.7184 10.5963 42.7051 10.6078C42.6919 10.6194 42.6766 10.628 42.6601 10.633C42.6436 10.638 42.6264 10.6394 42.6094 10.637C42.5925 10.6347 42.5761 10.6286 42.5614 10.6193C42.5341 10.5967 42.516 10.5637 42.5111 10.5272C42.5062 10.4907 42.5148 10.4536 42.535 10.4238L43.5392 8.73648C43.547 8.72026 43.5579 8.70592 43.5712 8.69436C43.5844 8.68279 43.5997 8.67423 43.6162 8.66922C43.6326 8.6642 43.6499 8.66283 43.6669 8.66518C43.6838 8.66754 43.7002 8.67357 43.7149 8.68292C43.7423 8.70571 43.7604 8.73896 43.7653 8.77567C43.7702 8.81238 43.7616 8.84969 43.7412 8.87977Z" fill="#00FFFF"/>
        <path d="M44.3274 9.32064L43.2681 10.9677C43.2596 10.9835 43.2482 10.9972 43.2345 11.0081C43.2209 11.019 43.2053 11.0268 43.1888 11.0311C43.1722 11.0353 43.155 11.0359 43.1382 11.0329C43.1214 11.0298 43.1054 11.0232 43.0911 11.0133C43.0645 10.9893 43.0477 10.9552 43.0441 10.9182C43.0406 10.8813 43.0507 10.8443 43.0723 10.8151L44.1316 9.16798C44.14 9.15232 44.1513 9.13863 44.1648 9.12773C44.1783 9.11684 44.1937 9.10896 44.2101 9.10458C44.2265 9.10021 44.2436 9.09941 44.2603 9.10225C44.277 9.1051 44.293 9.11151 44.3074 9.12111C44.3337 9.14551 44.3504 9.17965 44.3542 9.21667C44.3579 9.25368 44.3483 9.29083 44.3274 9.32064Z" fill="#00FFFF"/>
        <path d="M47.8026 51.0786C47.7653 51.0778 47.729 51.0652 47.6984 51.0423C47.6678 51.0194 47.6443 50.9873 47.6308 50.9502C47.6173 50.913 47.6146 50.8723 47.6228 50.8334C47.6311 50.7946 47.65 50.7592 47.6771 50.7318C51.1442 47.2214 53.6279 42.7514 54.8503 37.8214C54.8636 37.7701 54.8952 37.7264 54.9385 37.6998C54.9817 37.6733 55.033 37.666 55.0813 37.6795C55.1051 37.6862 55.1275 37.6978 55.1472 37.7138C55.1668 37.7298 55.1833 37.7497 55.1956 37.7725C55.208 37.7953 55.216 37.8204 55.2192 37.8465C55.2224 37.8726 55.2208 37.8991 55.2143 37.9246C53.9725 42.9233 51.4519 47.455 47.9344 51.013C47.9177 51.0328 47.8975 51.0489 47.8748 51.0602C47.8522 51.0714 47.8276 51.0777 47.8026 51.0786Z" fill="#00FFFF"/>
        <path d="M20.125 53.7363C14.8161 51.1557 10.5842 46.5792 8.23741 40.8809H5.68945C6.98135 44.3862 8.92679 47.5752 11.4079 50.2547C13.889 52.9342 16.8542 55.0485 20.1237 56.4694L20.125 53.7363Z" fill="#00FFFF"/>
        <path d="M36.3291 57.8432C36.2792 57.8497 36.2289 57.8349 36.1892 57.8018C36.1495 57.7688 36.1238 57.7203 36.1176 57.6671C36.1115 57.6138 36.1254 57.5601 36.1564 57.5178C36.1873 57.4754 36.2328 57.448 36.2827 57.4414C38.7621 56.772 41.1338 55.7108 43.3191 54.2932L43.2099 51.481C43.2089 51.4473 43.2158 51.4138 43.23 51.3836C43.2443 51.3534 43.2654 51.3275 43.2915 51.3083C47.4329 48.2213 50.5384 43.8 52.1528 38.6925C52.1595 38.6661 52.1712 38.6414 52.1871 38.6199C52.2031 38.5985 52.223 38.5808 52.2456 38.5678C52.2682 38.5549 52.2931 38.547 52.3187 38.5447C52.3442 38.5423 52.37 38.5456 52.3943 38.5543C52.4187 38.563 52.4411 38.5769 52.4602 38.5952C52.4793 38.6135 52.4948 38.6357 52.5055 38.6606C52.5163 38.6854 52.5222 38.7124 52.5228 38.7397C52.5235 38.7671 52.5189 38.7944 52.5093 38.8198C50.8808 43.9734 47.7575 48.4406 43.5914 51.5748L43.6994 54.3869C43.7006 54.4225 43.6929 54.4578 43.6773 54.4893C43.6617 54.5208 43.6385 54.5474 43.6103 54.5663C41.3674 56.0402 38.9282 57.1427 36.3756 57.8365C36.3604 57.8407 36.3448 57.8429 36.3291 57.8432Z" fill="#00FFFF"/>
        <path d="M29.9408 24.7674V24.75L29.9195 24.7594L29.8981 24.75V24.7674L29.312 25.0031L24.9189 34.2644L24.9528 39.1213C25.6984 39.1588 26.4665 39.1923 27.2636 39.2191V37.0618L29.2869 32.3307V39.2659L29.8981 39.2767H29.9408L30.5521 39.2659V32.3307L32.5766 37.0564V39.2137C33.3736 39.1869 34.1418 39.1535 34.8874 39.116L34.9212 34.259L30.5282 24.9977L29.9408 24.7674Z" fill="#00FFFF"/>
        <path d="M48.7011 32.3193L43.555 34.9842L35.2936 34.4311L35.271 39.1019C40.3355 38.8247 44.2077 38.2877 47.1284 37.6892L46.7782 36.5469L50.024 35.1757L51.8239 36.4478C54.2778 35.6135 55.1702 34.9212 55.1702 34.9212L48.7011 32.3193Z" fill="#00FFFF"/>
        <path d="M48.1707 32.1074L31.0015 25.1963L35.2288 34.025L43.4814 34.5768L48.1707 32.1074Z" fill="#00FFFF"/>
        <path d="M47.2388 36.7813L47.4898 37.6102C49.0449 37.2794 50.3189 36.9326 51.3481 36.6018L49.9675 35.627L47.2388 36.7813Z" fill="#00FFFF"/>
        <path d="M30.9272 39.2655C31.359 39.2561 31.7807 39.2441 32.1987 39.232V37.1524L30.9272 34.1836V39.2655Z" fill="#00FFFF"/>
        <path d="M16.282 34.9842L11.1358 32.3193L4.67432 34.9212C4.67432 34.9212 5.56547 35.6135 8.01929 36.4478L9.81918 35.1757L13.065 36.5469L12.7186 37.6878C15.6393 38.2864 19.5115 38.8234 24.576 39.1006L24.5434 34.4298L16.282 34.9842Z" fill="#00FFFF"/>
        <path d="M11.6685 32.1074L16.3577 34.5768L24.6103 34.025L28.8377 25.1963L11.6685 32.1074Z" fill="#00FFFF"/>
        <path d="M8.49023 36.6018C9.51946 36.9326 10.7934 37.2794 12.3486 37.6102L12.5996 36.7813L9.86588 35.627L8.49023 36.6018Z" fill="#00FFFF"/>
        <path d="M27.6377 39.232C28.0557 39.2441 28.4786 39.2561 28.9092 39.2655V34.1836L27.6377 37.1524V39.232Z" fill="#00FFFF"/>
        <path d="M27.8467 57.8924L26.6192 56.5693L25.4355 57.7397L26.7108 58.9998H33.0041L32 57.8736L27.8467 57.8924Z" fill="#00FFFF"/>
        <path d="M32.1107 57.5959L33.2692 58.8975L33.2704 58.8989L34.4528 57.7298L33.1775 56.4697H26.8867L27.9536 57.624L32.1107 57.5959Z" fill="#00FFFF"/>
    </g>
</svg>
