<svg width="60" height="62" viewBox="0 0 60 62" fill="none"
    xmlns="http://www.w3.org/2000/svg">
    <defs>
        <filter id="filter0_d_532_3284" x="0" y="10.1758" width="53.4653" height="51.8242" filterUnits="userSpaceOnUse" color-interpolation-filters="sRGB">
            <feFlood flood-opacity="0" result="BackgroundImageFix"/>
            <feColorMatrix in="SourceAlpha" type="matrix" values="0 0 0 0 0 0 0 0 0 0 0 0 0 0 0 0 0 0 127 0" result="hardAlpha"/>
            <feOffset/>
            <feGaussianBlur stdDeviation="1.5"/>
            <feComposite in2="hardAlpha" operator="out"/>
            <feColorMatrix type="matrix" values="0 0 0 0 1 0 0 0 0 1 0 0 0 0 1 0 0 0 0.65 0"/>
            <feBlend mode="normal" in2="BackgroundImageFix" result="effect1_dropShadow_532_3284"/>
            <feBlend mode="normal" in="SourceGraphic" in2="effect1_dropShadow_532_3284" result="shape"/>
        </filter>
        <filter id="filter1_d_532_3284" x="1.25928" y="2.68945" width="54.437" height="44.2432" filterUnits="userSpaceOnUse" color-interpolation-filters="sRGB">
            <feFlood flood-opacity="0" result="BackgroundImageFix"/>
            <feColorMatrix in="SourceAlpha" type="matrix" values="0 0 0 0 0 0 0 0 0 0 0 0 0 0 0 0 0 0 127 0" result="hardAlpha"/>
            <feOffset/>
            <feGaussianBlur stdDeviation="1.5"/>
            <feComposite in2="hardAlpha" operator="out"/>
            <feColorMatrix type="matrix" values="0 0 0 0 1 0 0 0 0 0 0 0 0 0 0 0 0 0 0.65 0"/>
            <feBlend mode="normal" in2="BackgroundImageFix" result="effect1_dropShadow_532_3284"/>
            <feBlend mode="normal" in="SourceGraphic" in2="effect1_dropShadow_532_3284" result="shape"/>
        </filter>
        <filter id="filter2_d_532_3284" x="8.00391" y="0" width="51.9956" height="60.7734" filterUnits="userSpaceOnUse" color-interpolation-filters="sRGB">
            <feFlood flood-opacity="0" result="BackgroundImageFix"/>
            <feColorMatrix in="SourceAlpha" type="matrix" values="0 0 0 0 0 0 0 0 0 0 0 0 0 0 0 0 0 0 127 0" result="hardAlpha"/>
            <feOffset/>
            <feGaussianBlur stdDeviation="1.5"/>
            <feComposite in2="hardAlpha" operator="out"/>
            <feColorMatrix type="matrix" values="0 0 0 0 0 0 0 0 0 0.890196 0 0 0 0 1 0 0 0 0.65 0"/>
            <feBlend mode="normal" in2="BackgroundImageFix" result="effect1_dropShadow_532_3284"/>
            <feBlend mode="normal" in="SourceGraphic" in2="effect1_dropShadow_532_3284" result="shape"/>
        </filter>
    </defs>
    <path d="M16.6436 30.2798L21.7204 31.783L24.2749 26.756L21.7127 25.1162L19.2573 25.2409" fill="#00FFFF"/>
    <path d="M12.3584 32.8309L15.6957 31.751L16.4245 30.2598L14.2099 30.7997C13.3099 31.7908 12.7344 32.425 12.3584 32.8309Z" fill="#FF0049"/>
    <path d="M22.7855 29.6877L24.0228 27.273L22.8846 26.3775L19.094 25.5059L18.9473 25.7911L21.6383 26.5354L22.7855 29.6877Z" fill="#FF0049"/>
    <path d="M47.429 45.0208V13.376L47.4136 13.3919C48.4624 14.4815 49.4187 15.6618 50.272 16.9196V38.9564C49.6218 41.1116 48.6646 43.1554 47.4316 45.0208" fill="white"/>
    <g filter="url(#filter0_d_532_3284)">
        <path d="M29.0525 58.9999C14.6872 58.9999 3.00002 46.9573 3.00002 32.1552C2.99639 29.0705 3.5104 26.0085 4.51934 23.1043C4.52637 23.0779 4.5386 23.0533 4.55527 23.0321C4.57193 23.0108 4.59269 22.9932 4.61622 22.9806C4.63975 22.9679 4.66556 22.9604 4.69205 22.9585C4.71853 22.9566 4.74511 22.9603 4.77013 22.9694C4.79515 22.9786 4.81807 22.993 4.83746 23.0116C4.85685 23.0303 4.8723 23.0529 4.88284 23.078C4.89338 23.1031 4.89878 23.1302 4.89871 23.1575C4.89864 23.1849 4.8931 23.2119 4.88243 23.237C3.88873 26.0987 3.38257 29.1158 3.38629 32.1552C3.38629 46.7371 14.9009 58.6019 29.0525 58.6019C32.7375 58.6118 36.3807 57.797 39.7302 56.2138C39.7768 56.1918 39.83 56.1898 39.878 56.2082C39.9261 56.2266 39.9651 56.264 39.9864 56.312C40.0078 56.36 40.0097 56.4148 39.9918 56.4643C39.974 56.5138 39.9377 56.554 39.8911 56.576C36.491 58.1824 32.793 59.0094 29.0525 58.9999Z" fill="white"/>
        <path d="M34.6425 54.5133C34.5913 54.52 34.5396 54.5054 34.4988 54.4728C34.4579 54.4402 34.4314 54.3923 34.4249 54.3395C34.4184 54.2867 34.4325 54.2334 34.4642 54.1914C34.4958 54.1493 34.5423 54.122 34.5936 54.1153C39.7642 52.7304 44.2701 49.4562 47.2721 44.9026C47.3009 44.859 47.3452 44.829 47.3954 44.819C47.4456 44.8091 47.4976 44.82 47.5399 44.8495C47.582 44.8796 47.611 44.9255 47.6206 44.9773C47.6303 45.0292 47.6198 45.0828 47.5915 45.1268C44.5365 49.7603 39.9515 53.0919 34.6901 54.5014C34.6748 54.5073 34.6588 54.5113 34.6425 54.5133Z" fill="white"/>
        <path d="M47.4303 45.218C47.3973 45.2181 47.3649 45.2095 47.3363 45.1928C47.3061 45.1756 47.281 45.1505 47.2636 45.1199C47.2461 45.0893 47.237 45.0544 47.2371 45.019V13.4684C47.227 13.4436 47.2217 13.417 47.2217 13.3901C47.2217 13.3373 47.2421 13.2868 47.2783 13.2495L47.2938 13.2336C47.321 13.2058 47.3556 13.187 47.3931 13.1795C47.4307 13.1719 47.4696 13.176 47.5049 13.1911C47.5309 13.2024 47.5542 13.2194 47.5731 13.241C47.592 13.2625 47.6061 13.2881 47.6144 13.3158C48.6467 14.3955 49.5891 15.5627 50.4316 16.8051C50.456 16.8411 50.4678 16.8846 50.465 16.9285V38.9519C50.4651 38.9716 50.4625 38.9913 50.4573 39.0103C49.8008 41.1839 48.8349 43.245 47.5912 45.1264C47.5735 45.154 47.5497 45.1767 47.5217 45.1926C47.4936 45.2085 47.4623 45.2172 47.4303 45.218ZM47.6234 13.8969V44.3569C48.6725 42.6667 49.4979 40.8395 50.0775 38.9241V16.9802C49.3357 15.8905 48.5153 14.8598 47.6234 13.8969Z" fill="white"/>
        <path d="M42.1814 44.4357C42.1302 44.4357 42.0811 44.4147 42.0448 44.3774C42.0086 44.3401 41.9883 44.2895 41.9883 44.2367V34.09C41.9883 34.0372 42.0087 33.9866 42.0449 33.9494L47.275 28.5602C47.3116 28.5251 47.36 28.506 47.4101 28.5069C47.4601 28.5078 47.5078 28.5287 47.5432 28.5651C47.5786 28.6016 47.5989 28.6508 47.5998 28.7023C47.6006 28.7539 47.5821 28.8038 47.548 28.8415L42.3745 34.1722V44.2367C42.3745 44.2895 42.3542 44.3401 42.318 44.3774C42.2818 44.4147 42.2326 44.4357 42.1814 44.4357Z" fill="white"/>
    </g>
    <g filter="url(#filter1_d_532_3284)">
        <path d="M8.01103 39.7103C7.97096 39.7105 7.93184 39.6978 7.89908 39.674C7.86632 39.6502 7.84155 39.6166 7.82819 39.5776C6.48642 35.4898 6.28181 31.0967 7.23751 26.8952C8.19321 22.6938 10.2711 18.8519 13.2359 15.8042L10.7896 13.2835C10.7619 13.245 10.7485 13.1976 10.752 13.1498C10.7556 13.102 10.7757 13.0572 10.8087 13.0234C10.8417 12.9897 10.8855 12.9694 10.9319 12.9663C10.9782 12.9631 11.0242 12.9773 11.0613 13.0062L13.6364 15.6596C13.6545 15.6782 13.6688 15.7004 13.6785 15.7248C13.6882 15.7491 13.6932 15.7752 13.693 15.8016C13.6919 15.8544 13.6712 15.9047 13.6351 15.9422C10.6741 18.936 8.59273 22.7298 7.63022 26.8877C6.66772 31.0456 6.86308 35.399 8.19386 39.4476C8.20213 39.4724 8.20556 39.4985 8.20395 39.5246C8.20233 39.5507 8.1957 39.5763 8.18444 39.5997C8.17318 39.6232 8.15752 39.6441 8.13836 39.6612C8.1192 39.6784 8.09693 39.6915 8.07283 39.6997C8.05287 39.7064 8.03203 39.71 8.01103 39.7103Z" fill="#FF0049"/>
        <path d="M17.6267 8.24338C13.1456 10.5236 9.3983 14.0878 6.83439 18.5082H4.25928C7.21286 12.8265 11.9151 8.31736 17.6267 5.68945V8.24338Z" fill="#FF0049"/>
        <path d="M14.0661 30.5471L16.5845 29.9342L18.2339 26.5537L11.3506 29.1501L13.054 30.4012L10.0386 33.5853L11.8231 33.0095C12.3227 32.4709 13.3218 31.3737 14.0377 30.5843L14.0661 30.5471Z" fill="#FF0049"/>
        <path d="M18.8156 26.041L16.9873 29.5926L18.3998 29.9641L19.2637 28.3535L20.9221 27.9462L19.8534 30.3475L21.15 30.6885L21.8839 31.4447L22.6152 30.0159L21.4332 26.7654L18.8156 26.041Z" fill="#FF0049"/>
        <path d="M52.5034 43.9324C52.4523 43.9324 52.4032 43.9114 52.367 43.8741C52.3309 43.8368 52.3105 43.7862 52.3105 43.7334V21.1912C52.3105 21.1384 52.3309 21.0878 52.367 21.0505C52.4032 21.0132 52.4523 20.9922 52.5034 20.9922C52.5546 20.9922 52.6036 21.0132 52.6398 21.0505C52.676 21.0878 52.6963 21.1384 52.6963 21.1912V43.736C52.6956 43.7884 52.675 43.8383 52.6389 43.8751C52.6028 43.9118 52.5541 43.9324 52.5034 43.9324Z" fill="#FF0049"/>
    </g>
    <g filter="url(#filter2_d_532_3284)">
        <path d="M26.2157 57.41L27.0075 53.1446C27.0187 53.0656 27.0589 52.9941 27.1197 52.9448C27.1805 52.8954 27.2574 52.8719 27.3345 52.8792C27.3717 52.8884 27.4066 52.9051 27.4374 52.9283C27.4681 52.9516 27.494 52.981 27.5136 53.0147C27.5332 53.0485 27.546 53.0859 27.5513 53.1249C27.5566 53.1638 27.5542 53.2034 27.5444 53.2414L26.7526 57.5068C26.7414 57.5858 26.7012 57.6573 26.6404 57.7066C26.5795 57.756 26.5026 57.7794 26.4255 57.7722C26.3884 57.763 26.3535 57.7463 26.3227 57.7231C26.292 57.6998 26.266 57.6704 26.2465 57.6367C26.2269 57.6029 26.2141 57.5655 26.2088 57.5265C26.2035 57.4876 26.2059 57.448 26.2157 57.41Z" fill="#00FFFF"/>
        <path d="M24.637 57.0878L25.5705 52.8516C25.5829 52.7722 25.6251 52.701 25.6879 52.6534C25.7508 52.6057 25.8293 52.5854 25.9066 52.5969C25.9432 52.6078 25.9774 52.6262 26.0072 52.6508C26.037 52.6754 26.0617 52.7059 26.08 52.7404C26.0983 52.7749 26.1098 52.8129 26.1139 52.852C26.1179 52.8911 26.1144 52.9306 26.1036 52.9684L25.1701 57.2006C25.1595 57.2806 25.1189 57.3531 25.0571 57.4027C24.9952 57.4523 24.917 57.475 24.8392 57.4659C24.8014 57.4554 24.7661 57.4372 24.7353 57.4123C24.7046 57.3874 24.679 57.3564 24.6601 57.3211C24.6413 57.2858 24.6295 57.247 24.6255 57.2069C24.6216 57.1668 24.6255 57.1263 24.637 57.0878Z" fill="#00FFFF"/>
        <path d="M23.0702 56.6923L24.1441 52.4906C24.159 52.4118 24.2035 52.3423 24.2679 52.2971C24.3322 52.252 24.4112 52.2347 24.4878 52.2491C24.5609 52.2754 24.6209 52.3301 24.6551 52.4016C24.6893 52.4731 24.6949 52.5555 24.6707 52.6312L23.5969 56.8342C23.5819 56.9126 23.5375 56.9818 23.4734 57.0267C23.4093 57.0717 23.3306 57.0888 23.2544 57.0744C23.1809 57.0487 23.1203 56.994 23.0858 56.9225C23.0513 56.8509 23.0457 56.7681 23.0702 56.6923Z" fill="#00FFFF"/>
        <path d="M21.5344 56.2265L22.7472 52.0659C22.7647 51.9885 22.8112 51.9213 22.8766 51.8791C22.942 51.8368 23.0209 51.8229 23.0962 51.8404C23.1685 51.8698 23.2269 51.9272 23.2586 52.0003C23.2904 52.0735 23.2931 52.1566 23.2661 52.2318L22.0533 56.3923C22.0358 56.4701 21.9891 56.5375 21.9234 56.5798C21.8578 56.622 21.7785 56.6358 21.703 56.6179C21.6311 56.588 21.5733 56.5304 21.5418 56.4574C21.5103 56.3843 21.5077 56.3015 21.5344 56.2265Z" fill="#00FFFF"/>
        <path d="M20.0069 55.6899L21.3563 51.5771C21.3659 51.5391 21.3829 51.5035 21.4061 51.4723C21.4292 51.4412 21.4582 51.4151 21.4913 51.3955C21.5244 51.376 21.5609 51.3635 21.5987 51.3587C21.6366 51.3539 21.6749 51.3569 21.7116 51.3675C21.7825 51.4001 21.8384 51.4599 21.8675 51.5341C21.8965 51.6083 21.8965 51.6913 21.8674 51.7655L20.5168 55.8783C20.5072 55.9164 20.4904 55.9521 20.4673 55.9834C20.4441 56.0146 20.4151 56.0408 20.382 56.0604C20.3489 56.0799 20.3123 56.0924 20.2744 56.0971C20.2365 56.1019 20.1981 56.0987 20.1614 56.0879C20.0907 56.055 20.0351 55.9952 20.0063 55.921C19.9775 55.8468 19.9777 55.764 20.0069 55.6899Z" fill="#00FFFF"/>
        <path d="M18.5106 55.0765L19.9951 51.0154C20.006 50.9778 20.024 50.9428 20.0482 50.9125C20.0724 50.8822 20.1023 50.8573 20.136 50.8391C20.1697 50.8209 20.2067 50.8099 20.2446 50.8066C20.2826 50.8034 20.3208 50.8081 20.3569 50.8204C20.4272 50.8565 20.4813 50.9191 20.5079 50.9952C20.5345 51.0713 20.5316 51.155 20.4998 51.229L19.0153 55.2901C19.0045 55.3277 18.9864 55.3627 18.9622 55.393C18.938 55.4233 18.9082 55.4482 18.8744 55.4664C18.8407 55.4846 18.8037 55.4956 18.7658 55.4988C18.7278 55.5021 18.6897 55.4974 18.6535 55.4851C18.5835 55.4488 18.5296 55.3862 18.503 55.3101C18.4764 55.2341 18.4791 55.1505 18.5106 55.0765Z" fill="#00FFFF"/>
        <path d="M47.4033 52.0162C47.375 52.0165 47.347 52.0101 47.3214 51.9977C47.2957 51.9854 47.2731 51.9672 47.2552 51.9446C47.2226 51.9037 47.207 51.8512 47.2118 51.7985C47.2166 51.7458 47.2415 51.6972 47.281 51.6633C47.9067 51.1326 48.5157 50.5582 49.0939 49.9638C57.7025 41.0934 59.0699 27.0833 52.3437 16.65C52.3153 16.606 52.3051 16.5522 52.3152 16.5005C52.3254 16.4487 52.3551 16.4033 52.3977 16.3741C52.4404 16.3448 52.4926 16.3343 52.5428 16.3448C52.5931 16.3552 52.6372 16.3858 52.6655 16.4298C55.985 21.5935 57.47 27.7809 56.8688 33.9436C56.2676 40.1064 53.6173 45.8654 49.3668 50.2451C48.781 50.8487 48.1617 51.4298 47.5269 51.9698C47.4922 51.9997 47.4485 52.0161 47.4033 52.0162Z" fill="#00FFFF"/>
        <path d="M37.1648 10.8402C33.1314 9.21801 28.7274 8.83911 24.4888 9.74964V7.33104C28.7237 6.55738 33.0787 6.87644 37.1648 8.25974V10.8402Z" fill="#00FFFF"/>
        <path d="M42.6084 6.98545C42.5756 6.9854 42.5434 6.97721 42.5144 6.96157C38.3892 4.62325 33.7573 3.39743 29.0491 3.39801C28.9979 3.39801 28.9487 3.37705 28.9125 3.33973C28.8763 3.3024 28.856 3.25179 28.856 3.19901C28.856 3.14623 28.8763 3.09561 28.9125 3.05829C28.9487 3.02097 28.9979 3 29.0491 3C33.8212 3.00039 38.5158 4.24306 42.6972 6.61264C42.7345 6.63404 42.7638 6.66755 42.7806 6.70792C42.7974 6.7483 42.8008 6.79328 42.7902 6.83584C42.7796 6.87841 42.7557 6.91617 42.7221 6.94323C42.6885 6.97029 42.6471 6.98514 42.6045 6.98545H42.6084Z" fill="#00FFFF"/>
        <path d="M13.6465 42.2059L12.9126 42.9436L13.3568 43.7966H15.6628L15.7864 43.656L13.9954 41.9326L13.6465 42.2059Z" fill="#00FFFF"/>
        <path d="M27.9468 41.0654L33.5477 41.5841C33.5477 41.5841 34.0627 40.0942 34.9756 37.8282L29.1004 36.2812L27.9468 41.0654Z" fill="#00FFFF"/>
        <path d="M39.0173 28.8366C40.7992 25.3274 42.8928 21.793 45.1126 19.2471C45.1126 19.2471 42.6855 20.0617 39.9623 19.8414L36.9688 25.1708L39.0173 28.8366Z" fill="#00FFFF"/>
        <path d="M32.4387 17.7461C30.34 17.77 28.7563 18.627 28.1769 19.4934L26.4155 23.1644L30.2898 22.8526L32.4387 17.7461Z" fill="#00FFFF"/>
        <path d="M16.5231 32.6006L15.569 32.4229L11.9175 39.6946H13.1033L16.5231 32.6006Z" fill="#00FFFF"/>
        <path d="M21.1512 30.6896L16.9885 29.5938L15.7627 32.0336L17.125 32.2896L13.3537 40.1119H11.7069L11.0039 41.5116L14.1739 41.5607L16.0666 43.3637L21.8851 31.4458L21.1512 30.6896Z" fill="#00FFFF"/>
        <path d="M28.0304 15.6768H27.3995L24.1574 22.3634L22.0793 22.6659L25.4231 15.6768H24.0145L19.3909 24.9784L19.0947 25.5727L22.8853 26.3767L24.0235 27.2722L28.9523 17.2184L28.0304 15.6768Z" fill="#00FFFF"/>
        <path d="M23.8903 21.9813L26.947 15.6768H25.8757L22.7817 22.1418L23.8903 21.9813Z" fill="#00FFFF"/>
        <path d="M19.4429 28.597L18.6704 30.0378L19.5872 30.2793L20.446 28.3516L19.4429 28.597Z" fill="#FF0049"/>
        <path d="M30.5427 28.2245C29.8294 27.9592 28.9024 28.47 28.4723 29.3456C28.0423 30.2212 28.2676 31.1274 28.9693 31.3888C29.6711 31.6501 30.5994 31.1619 31.0384 30.2902C31.4775 29.4186 31.2599 28.4846 30.5427 28.2245ZM29.7509 29.8166H29.7341V29.81L29.7509 29.8166Z" fill="#00FFFF"/>
        <path d="M39.5233 19.7944C38.4365 19.6774 37.3824 19.3425 36.4203 18.8086C35.3341 18.1763 34.1192 17.815 32.8731 17.7539L30.5555 23.2478L26.2113 23.5981L16.44 43.3661L15.9906 44.0481H13.1451L12.5181 42.915L13.3318 41.9346L11.0039 41.8882L13.0743 45.6812L16.3395 45.9718C16.3395 45.9718 19.1799 39.9127 27.5413 41.0139L28.8057 35.768L35.1315 37.4331C36.0431 35.1776 37.3036 32.2509 38.7971 29.2698L36.5066 25.1636L39.5233 19.7944ZM30.3134 32.1753L27.007 35.3156L27.3816 31.0821L25.2314 28.1553L29.1675 27.4363L32.6053 24.0585L32.1585 28.5202L34.3654 31.5119L30.3134 32.1753Z" fill="#00FFFF"/>
        <path d="M35.8313 8.03992C35.8155 8.04181 35.7995 8.04181 35.7836 8.03992C35.7341 8.0265 35.6917 7.99346 35.6657 7.948C35.6396 7.90253 35.632 7.84832 35.6446 7.79713L36.5214 4.24287C36.534 4.19167 36.5659 4.14774 36.61 4.12075C36.654 4.09375 36.7067 4.0859 36.7564 4.09892C36.8061 4.11194 36.8487 4.14476 36.8749 4.19017C36.9011 4.23558 36.9087 4.28985 36.8961 4.34104L36.0193 7.89531C36.0077 7.93733 35.983 7.97426 35.949 8.00039C35.9151 8.02653 35.8737 8.04042 35.8313 8.03992Z" fill="#00FFFF"/>
    </g>
</svg>
