<svg width="60" height="62" viewBox="0 0 60 62" fill="none"
    xmlns="http://www.w3.org/2000/svg">
    <defs>
        <filter id="filter0_d_532_3179" x="27.7041" y="0" width="18.4434" height="11.3062" filterUnits="userSpaceOnUse" color-interpolation-filters="sRGB">
            <feFlood flood-opacity="0" result="BackgroundImageFix"/>
            <feColorMatrix in="SourceAlpha" type="matrix" values="0 0 0 0 0 0 0 0 0 0 0 0 0 0 0 0 0 0 127 0" result="hardAlpha"/>
            <feOffset/>
            <feGaussianBlur stdDeviation="1.5"/>
            <feComposite in2="hardAlpha" operator="out"/>
            <feColorMatrix type="matrix" values="0 0 0 0 1 0 0 0 0 1 0 0 0 0 1 0 0 0 0.65 0"/>
            <feBlend mode="normal" in2="BackgroundImageFix" result="effect1_dropShadow_532_3179"/>
            <feBlend mode="normal" in="SourceGraphic" in2="effect1_dropShadow_532_3179" result="shape"/>
        </filter>
        <filter id="filter1_d_532_3179" x="12.543" y="1.00488" width="21.3535" height="10.1948" filterUnits="userSpaceOnUse" color-interpolation-filters="sRGB">
            <feFlood flood-opacity="0" result="BackgroundImageFix"/>
            <feColorMatrix in="SourceAlpha" type="matrix" values="0 0 0 0 0 0 0 0 0 0 0 0 0 0 0 0 0 0 127 0" result="hardAlpha"/>
            <feOffset/>
            <feGaussianBlur stdDeviation="1.5"/>
            <feComposite in2="hardAlpha" operator="out"/>
            <feColorMatrix type="matrix" values="0 0 0 0 1 0 0 0 0 1 0 0 0 0 1 0 0 0 0.65 0"/>
            <feBlend mode="normal" in2="BackgroundImageFix" result="effect1_dropShadow_532_3179"/>
            <feBlend mode="normal" in="SourceGraphic" in2="effect1_dropShadow_532_3179" result="shape"/>
        </filter>
        <filter id="filter2_d_532_3179" x="13.0371" y="53.7402" width="19.7773" height="7.78467" filterUnits="userSpaceOnUse" color-interpolation-filters="sRGB">
            <feFlood flood-opacity="0" result="BackgroundImageFix"/>
            <feColorMatrix in="SourceAlpha" type="matrix" values="0 0 0 0 0 0 0 0 0 0 0 0 0 0 0 0 0 0 127 0" result="hardAlpha"/>
            <feOffset/>
            <feGaussianBlur stdDeviation="1.5"/>
            <feComposite in2="hardAlpha" operator="out"/>
            <feColorMatrix type="matrix" values="0 0 0 0 1 0 0 0 0 1 0 0 0 0 1 0 0 0 0.65 0"/>
            <feBlend mode="normal" in2="BackgroundImageFix" result="effect1_dropShadow_532_3179"/>
            <feBlend mode="normal" in="SourceGraphic" in2="effect1_dropShadow_532_3179" result="shape"/>
        </filter>
        <filter id="filter3_d_532_3179" x="5.56836" y="5.94336" width="47.9795" height="51.5171" filterUnits="userSpaceOnUse" color-interpolation-filters="sRGB">
            <feFlood flood-opacity="0" result="BackgroundImageFix"/>
            <feColorMatrix in="SourceAlpha" type="matrix" values="0 0 0 0 0 0 0 0 0 0 0 0 0 0 0 0 0 0 127 0" result="hardAlpha"/>
            <feOffset/>
            <feGaussianBlur stdDeviation="1.5"/>
            <feComposite in2="hardAlpha" operator="out"/>
            <feColorMatrix type="matrix" values="0 0 0 0 0 0 0 0 0 0.890196 0 0 0 0 1 0 0 0 0.65 0"/>
            <feBlend mode="normal" in2="BackgroundImageFix" result="effect1_dropShadow_532_3179"/>
            <feBlend mode="normal" in="SourceGraphic" in2="effect1_dropShadow_532_3179" result="shape"/>
        </filter>
        <filter id="filter4_d_532_3179" x="27.8232" y="52.7656" width="17.9609" height="9.23438" filterUnits="userSpaceOnUse" color-interpolation-filters="sRGB">
            <feFlood flood-opacity="0" result="BackgroundImageFix"/>
            <feColorMatrix in="SourceAlpha" type="matrix" values="0 0 0 0 0 0 0 0 0 0 0 0 0 0 0 0 0 0 127 0" result="hardAlpha"/>
            <feOffset/>
            <feGaussianBlur stdDeviation="1.5"/>
            <feComposite in2="hardAlpha" operator="out"/>
            <feColorMatrix type="matrix" values="0 0 0 0 1 0 0 0 0 1 0 0 0 0 1 0 0 0 0.6 0"/>
            <feBlend mode="normal" in2="BackgroundImageFix" result="effect1_dropShadow_532_3179"/>
            <feBlend mode="normal" in="SourceGraphic" in2="effect1_dropShadow_532_3179" result="shape"/>
        </filter>
        <filter id="filter5_d_532_3179" x="0" y="4.82031" width="59.9995" height="50.8691" filterUnits="userSpaceOnUse" color-interpolation-filters="sRGB">
            <feFlood flood-opacity="0" result="BackgroundImageFix"/>
            <feColorMatrix in="SourceAlpha" type="matrix" values="0 0 0 0 0 0 0 0 0 0 0 0 0 0 0 0 0 0 127 0" result="hardAlpha"/>
            <feOffset/>
            <feGaussianBlur stdDeviation="1.5"/>
            <feComposite in2="hardAlpha" operator="out"/>
            <feColorMatrix type="matrix" values="0 0 0 0 1 0 0 0 0 0 0 0 0 0 0 0 0 0 0.65 0"/>
            <feBlend mode="normal" in2="BackgroundImageFix" result="effect1_dropShadow_532_3179"/>
            <feBlend mode="normal" in="SourceGraphic" in2="effect1_dropShadow_532_3179" result="shape"/>
        </filter>
    </defs>
    <g filter="url(#filter0_d_532_3179)">
        <path d="M41.8628 8.30617C38.5468 6.32811 34.7227 5.25878 30.8441 5.08904H30.7041V3C33.1341 3.09125 35.5387 3.53089 37.8455 4.30565C39.6891 4.9376 41.4652 5.75378 43.1474 6.742L41.8628 8.30617Z" fill="white"/>
    </g>
    <g filter="url(#filter1_d_532_3179)">
        <path d="M15.7389 8.1994C15.696 8.19974 15.6541 8.18574 15.6199 8.15959C15.5857 8.13344 15.561 8.09662 15.5498 8.05486C15.5385 8.0131 15.5413 7.96877 15.5577 7.92878C15.5741 7.88879 15.6032 7.8554 15.6404 7.83382C17.3934 6.7958 19.2544 5.95513 21.1899 5.32697C24.2668 4.35295 27.4854 3.91147 30.7088 4.02131C30.7604 4.02322 30.8091 4.04568 30.8442 4.08375C30.8793 4.12183 30.898 4.1724 30.8961 4.22434C30.8942 4.27628 30.8719 4.32534 30.8341 4.36073C30.7963 4.39611 30.7461 4.41491 30.6945 4.41301C27.5175 4.30525 24.3454 4.74099 21.3131 5.70169C19.4064 6.32051 17.5732 7.14893 15.8465 8.17198C15.8141 8.19145 15.7767 8.20098 15.7389 8.1994Z" fill="white"/>
    </g>
    <g filter="url(#filter2_d_532_3179)">
        <path d="M20.5431 58.5251C18.986 58.0822 17.4766 57.4844 16.0371 56.7402H29.8144V58.4598L20.5431 58.5251Z" fill="white"/>
    </g>
    <g filter="url(#filter3_d_532_3179)">
        <path d="M38.9443 35.3838L42.2486 32.0557L44.5989 36.6189L40.9536 38.5056L39.319 44.2008L38.9443 35.3838Z" fill="#00FFFF"/>
        <path d="M44.7564 37.1611L46.7994 41.4619L39.9419 44.3318L41.4638 38.8768L44.7564 37.1611Z" fill="#00FFFF"/>
        <path d="M39.3862 45.6584V49.0727L48.5486 44.6805L47.1525 42.2441L39.3862 45.6584Z" fill="#00FFFF"/>
        <path d="M39.3862 50.2064L48.8895 45.6602L49.5364 46.3978L42.6905 51.0982V54.4602L39.3862 51.956V50.2064Z" fill="#00FFFF"/>
        <path d="M43.2354 51.2794L49.7753 46.8428L50.5479 47.5739L43.3715 54.345L43.2354 51.2794Z" fill="#00FFFF"/>
        <path d="M29.8379 38.2774H30.8464L36.7965 35.5042L45.4987 27.2355L45.8915 24.7718L43.2003 22.0612L45.1422 8.94336L40.0321 16.6741L41.1223 25.5721L34.6498 31.5416H34.2415L38.2264 25.8633L34.8209 24.1137L35.4159 26.9783L29.8807 34.9559L29.8379 38.2774Z" fill="#00FFFF"/>
        <path d="M45.6732 9.06934L47.9716 13.3584L46.0478 24.1483L43.918 21.8504L45.6732 9.06934Z" fill="#00FFFF"/>
        <path d="M20.1746 35.3838L16.8702 32.0557L14.52 36.6189L18.1653 38.5056L19.7999 44.2008L20.1746 35.3838Z" fill="#00FFFF"/>
        <path d="M14.3584 37.1611L12.3154 41.4619L19.1729 44.3318L17.6524 38.8768L14.3584 37.1611Z" fill="#00FFFF"/>
        <path d="M19.7345 45.6584V49.0727L10.5708 44.6805L11.9669 42.2441L19.7345 45.6584Z" fill="#00FFFF"/>
        <path d="M19.731 50.2064L10.2265 45.6602L9.57959 46.3978L16.4267 51.0982V54.4602L19.731 51.956V50.2064Z" fill="#00FFFF"/>
        <path d="M15.8809 51.2794L9.34096 46.8428L8.56836 47.5739L15.7448 54.345L15.8809 51.2794Z" fill="#00FFFF"/>
        <path d="M29.2774 38.2774H28.2701L22.3201 35.5042L13.6166 27.2355L13.2251 24.7718L15.915 22.0612L13.9744 8.94336L19.0832 16.6741L17.9929 25.5721L24.4655 31.5416H24.8751L20.8889 25.8633L24.2956 24.1137L23.6993 26.9783L29.2346 34.9559L29.2774 38.2774Z" fill="#00FFFF"/>
        <path d="M13.4444 9.06934L11.146 13.3584L13.0697 24.1483L15.1996 21.8504L13.4444 9.06934Z" fill="#00FFFF"/>
        <path d="M29.5604 34.4932L24.252 26.9218L24.8197 24.4632L26.9288 28.0433V19.1309L29.5604 16.4805L32.1919 19.1309V28.0433L34.301 24.4632L34.8675 26.9218L29.5604 34.4932Z" fill="#00FFFF"/>
    </g>
    <g filter="url(#filter4_d_532_3179)">
        <path d="M34.9482 59C34.9257 59.0005 34.9034 58.9969 34.8821 58.9896L30.953 57.5677C30.9043 57.5504 30.8645 57.5143 30.8423 57.4674C30.82 57.4205 30.8172 57.3667 30.8344 57.3177C30.8515 57.2687 30.8874 57.2286 30.9339 57.2062C30.9805 57.1837 31.034 57.1809 31.0826 57.1982L34.9599 58.6018C37.5993 58.0587 40.1403 57.1106 42.4941 55.7907C42.5391 55.7653 42.5923 55.7589 42.6421 55.7729C42.6918 55.787 42.7339 55.8204 42.7592 55.8658C42.7844 55.9111 42.7908 55.9648 42.7768 56.0148C42.7628 56.0649 42.7297 56.1073 42.6846 56.1328C40.2797 57.4811 37.6824 58.4469 34.9845 58.9961C34.9727 58.9991 34.9604 59.0004 34.9482 59Z" fill="white"/>
    </g>
    <g filter="url(#filter5_d_532_3179)">
        <path d="M26.3877 8.89225V10.3415L28.8909 7.82031H27.452L26.3877 8.89225Z" fill="#FF0049"/>
        <path d="M26.3877 7.82031V8.89225L27.452 7.82031H26.3877Z" fill="#FF0049"/>
        <path d="M26.3877 11.7882V13.2348L31.7635 7.82031H30.3272L26.3877 11.7882Z" fill="#FF0049"/>
        <path d="M26.9219 14.1457H28.3595L32.6697 9.80572V8.35645L26.9219 14.1457Z" fill="#FF0049"/>
        <path d="M29.7988 14.1463H31.2351L32.6715 12.6996V11.2529L29.7988 14.1463Z" fill="#FF0049"/>
        <path d="M6.23496 22.0654C6.2091 22.0654 6.18352 22.06 6.15978 22.0497C6.13545 22.04 6.11333 22.0255 6.09475 22.0069C6.07618 21.9884 6.06154 21.9662 6.05172 21.9418C6.0419 21.9174 6.03711 21.8912 6.03764 21.8649C6.03816 21.8385 6.04399 21.8126 6.05477 21.7886C6.7978 20.0026 7.7407 18.3077 8.86519 16.737L7.72054 15.1924C7.69499 15.1584 7.68116 15.1169 7.68116 15.0743C7.68116 15.0316 7.69499 14.9901 7.72054 14.9561C8.44275 14.0082 9.22475 13.1081 10.0617 12.2612C10.0984 12.2265 10.1471 12.2074 10.1974 12.208C10.2478 12.2087 10.296 12.229 10.3318 12.2647C10.3676 12.3004 10.3882 12.3488 10.3894 12.3995C10.3905 12.4503 10.372 12.4995 10.3378 12.5367C9.54744 13.3366 8.80671 14.1847 8.1198 15.0762L9.26575 16.6117C9.2903 16.6456 9.30353 16.6865 9.30353 16.7285C9.30353 16.7705 9.2903 16.8114 9.26575 16.8454C8.12085 18.4247 7.16369 20.1337 6.41385 21.9374C6.40044 21.9745 6.37615 22.0066 6.3442 22.0295C6.31224 22.0523 6.27415 22.0649 6.23496 22.0654Z" fill="#FF0049"/>
        <path d="M52.2671 16.7602V20.6158C51.6228 19.2968 50.8664 18.0365 50.0063 16.849V13.748C50.8248 14.701 51.58 15.7072 52.2671 16.7602Z" fill="#FF0049"/>
        <path d="M52.4607 21.4616L52.0913 20.707C51.4523 19.3981 50.7019 18.1474 49.8486 16.9689L49.811 16.918V13.2217L50.152 13.6212C50.9763 14.5815 51.7367 15.5956 52.4283 16.6568L52.4607 16.7065V21.4616ZM50.1999 16.79C50.8925 17.7514 51.5179 18.7601 52.0718 19.8087V16.8227C51.4951 15.941 50.8701 15.0924 50.1999 14.2806V16.79Z" fill="#FF0049"/>
        <path d="M56.7879 32.5083C56.7624 32.5076 56.7373 32.5019 56.714 32.4914C56.6908 32.4809 56.6698 32.4659 56.6523 32.4472C56.6348 32.4285 56.6212 32.4065 56.6122 32.3825C56.6032 32.3585 56.599 32.3329 56.5999 32.3073C56.6464 30.8455 56.5627 29.3826 56.3497 27.9359C55.964 25.3462 55.2059 22.8268 54.0993 20.4572C53.5232 19.216 52.859 18.0182 52.1121 16.8731C52.0963 16.8518 52.085 16.8274 52.0789 16.8015C52.0729 16.7755 52.0721 16.7486 52.0767 16.7224C52.0813 16.6962 52.0911 16.6712 52.1056 16.6489C52.1201 16.6267 52.139 16.6076 52.1611 16.5929C52.1831 16.5783 52.2079 16.5683 52.234 16.5636C52.26 16.5589 52.2867 16.5596 52.3124 16.5657C52.3382 16.5718 52.3624 16.583 52.3837 16.5989C52.405 16.6147 52.4228 16.6347 52.4361 16.6577C53.1919 17.8168 53.8634 19.0294 54.4454 20.2861C55.5681 22.6906 56.3371 25.2469 56.7282 27.8746C56.9467 29.3435 57.0335 30.8292 56.9875 32.3138C56.9873 32.3398 56.982 32.3656 56.9718 32.3896C56.9617 32.4135 56.9469 32.4352 56.9283 32.4533C56.9097 32.4714 56.8877 32.4856 56.8636 32.4951C56.8395 32.5045 56.8137 32.509 56.7879 32.5083Z" fill="#FF0049"/>
        <path d="M51.7679 47.9303C51.7274 47.9304 51.688 47.9176 51.6551 47.8938C51.6343 47.8789 51.6165 47.8601 51.6029 47.8383C51.5893 47.8165 51.5801 47.7922 51.5759 47.7669C51.5717 47.7415 51.5725 47.7155 51.5783 47.6904C51.5841 47.6654 51.5948 47.6417 51.6098 47.6209C53.1443 45.4596 54.3442 43.0762 55.1682 40.5521L53.7526 38.9448C53.7303 38.9199 53.7147 38.8897 53.7075 38.857C53.7002 38.8242 53.7015 38.7902 53.7111 38.7581C54.3774 36.5268 54.6613 34.4599 54.6613 31.8499C54.672 27.9856 53.794 24.1714 52.0959 20.7062C52.0814 20.6762 52.0747 20.643 52.0765 20.6097C52.0782 20.5765 52.0883 20.5442 52.1057 20.5159C52.1232 20.4876 52.1475 20.4642 52.1764 20.4479C52.2053 20.4317 52.2378 20.423 52.2709 20.4229C52.3096 20.4229 52.3475 20.4346 52.3796 20.4565C52.4117 20.4783 52.4366 20.5094 52.4511 20.5456C54.1695 24.0618 55.0569 27.9308 55.0437 31.8499C55.0437 34.4612 54.7637 36.5359 54.1091 38.7699L55.5376 40.3758C55.5599 40.4015 55.5753 40.4325 55.5823 40.4659C55.5894 40.4992 55.5878 40.5339 55.5778 40.5664C54.7399 43.1677 53.5095 45.6237 51.93 47.8481C51.9117 47.8741 51.8874 47.8952 51.8591 47.9095C51.8309 47.9239 51.7996 47.931 51.7679 47.9303Z" fill="#FF0049"/>
        <path d="M33.0281 52.6895H29.5592C29.5076 52.6895 29.4581 52.6689 29.4217 52.6322C29.3852 52.5954 29.3647 52.5456 29.3647 52.4937C29.3647 52.4417 29.3852 52.3919 29.4217 52.3552C29.4581 52.3185 29.5076 52.2978 29.5592 52.2978H32.914L37.3967 44.2837L37.2554 38.0062L36.0071 41.0183C35.9935 41.051 35.9714 41.0793 35.9431 41.1002C35.9148 41.1212 35.8813 41.1339 35.8463 41.1371L32.507 41.4466C32.4788 41.449 32.4504 41.4453 32.4237 41.4356C32.3971 41.4259 32.3729 41.4105 32.3527 41.3904L30.8192 39.8458H29.5553C29.5037 39.8458 29.4543 39.8252 29.4178 39.7885C29.3813 39.7518 29.3608 39.7019 29.3608 39.65C29.3608 39.5981 29.3813 39.5482 29.4178 39.5115C29.4543 39.4748 29.5037 39.4541 29.5553 39.4541H30.9035C30.9549 39.4546 31.0042 39.4752 31.0409 39.5116L32.5666 41.0457L35.6998 40.7585L37.2554 36.9982C37.2727 36.9571 37.3035 36.9232 37.3425 36.9021C37.3816 36.881 37.4267 36.874 37.4702 36.8823C37.5138 36.8905 37.5533 36.9135 37.5821 36.9474C37.6109 36.9813 37.6274 37.0241 37.6287 37.0687L37.7882 44.3242C37.7888 44.3595 37.7799 44.3943 37.7623 44.4248L33.1979 52.5851C33.1819 52.6166 33.1576 52.643 33.1276 52.6614C33.0977 52.6798 33.0632 52.6896 33.0281 52.6895Z" fill="#FF0049"/>
        <path d="M37.0392 45.4981C36.9879 45.4984 36.9385 45.4782 36.9018 45.442L34.8705 43.3947C34.8343 43.3579 34.8138 43.3082 34.8135 43.2563V41.0171C34.8135 40.9652 34.834 40.9154 34.8704 40.8787C34.9069 40.8419 34.9564 40.8213 35.0079 40.8213C35.0595 40.8213 35.109 40.8419 35.1454 40.8787C35.1819 40.9154 35.2024 40.9652 35.2024 41.0171V43.1767L37.1767 45.1639C37.2038 45.1913 37.2223 45.2262 37.2298 45.2641C37.2373 45.3021 37.2334 45.3414 37.2187 45.3772C37.204 45.413 37.1791 45.4435 37.1472 45.4651C37.1152 45.4866 37.0777 45.4981 37.0392 45.4981Z" fill="#FF0049"/>
        <path d="M36.0537 47.1925C36.0281 47.1925 36.0029 47.1875 35.9793 47.1776C35.9557 47.1678 35.9343 47.1533 35.9163 47.135L33.907 45.1126C33.8704 45.0759 33.8497 45.026 33.8496 44.974C33.8495 44.922 33.8699 44.872 33.9063 44.8351C33.9428 44.7983 33.9923 44.7775 34.0439 44.7773C34.0956 44.7772 34.1452 44.7978 34.1818 44.8345L36.1911 46.8582C36.2183 46.8856 36.2367 46.9205 36.2442 46.9585C36.2517 46.9964 36.2479 47.0358 36.2332 47.0716C36.2185 47.1073 36.1936 47.1379 36.1616 47.1594C36.1297 47.1809 36.0921 47.1925 36.0537 47.1925Z" fill="#FF0049"/>
        <path d="M29.5591 52.6896H26.0902C26.0555 52.6897 26.0214 52.6804 25.9916 52.6628C25.9617 52.6451 25.9371 52.6196 25.9203 52.589L21.356 44.4287C21.339 44.398 21.3301 44.3634 21.3301 44.3282L21.4895 37.0727C21.4902 37.0275 21.5064 36.984 21.5353 36.9494C21.5643 36.9149 21.6041 36.8915 21.6482 36.8832C21.6923 36.8749 21.7379 36.8822 21.7773 36.9039C21.8166 36.9256 21.8473 36.9603 21.8642 37.0022L23.4197 40.7585L26.5503 41.0458L28.0761 39.509C28.1125 39.4723 28.162 39.4516 28.2135 39.4516H29.5591C29.6107 39.4516 29.6601 39.4722 29.6966 39.5089C29.7331 39.5457 29.7535 39.5955 29.7535 39.6474C29.7535 39.6994 29.7331 39.7492 29.6966 39.7859C29.6601 39.8226 29.6107 39.8433 29.5591 39.8433H28.2939L26.7552 41.3905C26.7351 41.4106 26.7108 41.426 26.6842 41.4357C26.6575 41.4454 26.6291 41.4491 26.6009 41.4466L23.2681 41.1372C23.2329 41.1342 23.1991 41.1215 23.1706 41.1006C23.142 41.0796 23.1197 41.0512 23.106 41.0184L21.859 38.0062L21.7203 44.2838L26.2029 52.2979H29.5591C29.6107 52.2979 29.6601 52.3185 29.6966 52.3552C29.7331 52.392 29.7535 52.4418 29.7535 52.4937C29.7535 52.5457 29.7331 52.5955 29.6966 52.6322C29.6601 52.6689 29.6107 52.6896 29.5591 52.6896Z" fill="#FF0049"/>
        <path d="M22.0796 45.4981C22.0282 45.4984 21.9788 45.4782 21.9422 45.442C21.906 45.4049 21.8857 45.3549 21.8857 45.3029C21.8857 45.2509 21.906 45.201 21.9422 45.1639L23.9165 43.1767V41.0171C23.9165 40.9652 23.937 40.9154 23.9734 40.8787C24.0099 40.8419 24.0594 40.8213 24.1109 40.8213C24.1625 40.8213 24.212 40.8419 24.2484 40.8787C24.2849 40.9154 24.3054 40.9652 24.3054 41.0171V43.2642C24.3051 43.316 24.2846 43.3657 24.2483 43.4026L22.2196 45.442C22.2012 45.4604 22.1794 45.4748 22.1553 45.4845C22.1312 45.4941 22.1055 45.4988 22.0796 45.4981Z" fill="#FF0049"/>
        <path d="M29.5589 50.5053H29.5446L25.9629 50.2572C25.9197 50.254 25.8788 50.2365 25.8465 50.2074C25.8141 50.1784 25.7922 50.1395 25.784 50.0966L24.8766 45.0046C24.8699 44.9637 24.8762 44.9217 24.8946 44.8846C24.913 44.8475 24.9425 44.8172 24.979 44.7979C25.0154 44.7787 25.057 44.7715 25.0977 44.7775C25.1384 44.7834 25.1763 44.8021 25.2059 44.8309L27.1646 46.8037H31.9428L33.9055 44.8322C33.9349 44.8028 33.9729 44.7836 34.014 44.7775C34.055 44.7714 34.097 44.7787 34.1336 44.7983C34.1704 44.8173 34.2002 44.8477 34.2184 44.8852C34.2366 44.9226 34.2423 44.9649 34.2347 45.0059L33.3273 50.0979C33.3194 50.1409 33.2975 50.1799 33.2651 50.209C33.2327 50.2381 33.1917 50.2555 33.1484 50.2585L29.5667 50.5066L29.5589 50.5053ZM26.1405 49.8759L29.5589 50.1123L32.9773 49.8759L33.7447 45.5529L32.1671 47.1419C32.1492 47.1603 32.1278 47.1748 32.1042 47.1847C32.0806 47.1946 32.0552 47.1996 32.0297 47.1994H27.0881C27.0626 47.1994 27.0373 47.1944 27.0137 47.1845C26.9901 47.1746 26.9687 47.1602 26.9507 47.1419L25.3744 45.5529L26.1405 49.8759Z" fill="#FF0049"/>
        <path d="M29.5636 42.2407C29.5292 42.2407 29.4953 42.2315 29.4655 42.2141C29.4357 42.1967 29.411 42.1716 29.3938 42.1415L28.0483 39.7456C28.0228 39.7004 28.0162 39.6469 28.03 39.5968C28.0437 39.5468 28.0766 39.5042 28.1215 39.4786C28.1664 39.453 28.2195 39.4464 28.2692 39.4602C28.3189 39.474 28.3611 39.5072 28.3866 39.5524L29.5636 41.648L30.7394 39.5524C30.7648 39.5072 30.8071 39.474 30.8568 39.4602C30.9065 39.4464 30.9596 39.453 31.0045 39.4786C31.0494 39.5042 31.0823 39.5468 31.096 39.5968C31.1098 39.6469 31.1032 39.7004 31.0777 39.7456L29.7322 42.1415C29.7155 42.1717 29.691 42.1969 29.6614 42.2143C29.6317 42.2318 29.598 42.2409 29.5636 42.2407Z" fill="#FF0049"/>
        <path d="M23.0668 47.1922C23.0153 47.1917 22.9661 47.1711 22.9294 47.1347C22.8933 47.0978 22.873 47.0481 22.873 46.9963C22.873 46.9445 22.8933 46.8948 22.9294 46.8579L24.9426 44.8315C24.9607 44.8134 24.9822 44.799 25.0059 44.7892C25.0295 44.7794 25.0549 44.7744 25.0804 44.7744C25.106 44.7745 25.1313 44.7796 25.1549 44.7895C25.1785 44.7994 25.2 44.8139 25.218 44.8322C25.2361 44.8505 25.2504 44.8721 25.2601 44.896C25.2698 44.9198 25.2748 44.9453 25.2748 44.9711C25.2747 44.9968 25.2696 45.0223 25.2598 45.0461C25.2499 45.0699 25.2355 45.0915 25.2174 45.1097L23.2055 47.1347C23.1685 47.1714 23.1187 47.192 23.0668 47.1922Z" fill="#FF0049"/>
        <path d="M29.5584 46.2516L27.19 44.7853L26.5522 43.4131H27.5815L29.5584 44.7853L31.534 43.4131H32.5646L31.9255 44.7853L29.5584 46.2516Z" fill="#FF0049"/>
        <path d="M4.65151 19.877L3 21.8106V40.0937L4.65151 42.0273L6.30431 40.0937V21.8106L4.65151 19.877Z" fill="#FF0049"/>
        <path d="M5.9473 46.3981C5.91316 46.3982 5.8796 46.3892 5.85008 46.372C5.80733 46.3458 5.77612 46.3042 5.76287 46.2557C5.74961 46.2071 5.7553 46.1553 5.77878 46.1108L10.9537 37.0235V28.5498L6.45934 34.7438C6.44561 34.7672 6.4272 34.7874 6.40529 34.8032C6.38338 34.819 6.35844 34.8301 6.33207 34.8357C6.30569 34.8413 6.27845 34.8413 6.25207 34.8357C6.22569 34.8301 6.20075 34.8191 6.17883 34.8033C6.15692 34.7875 6.1385 34.7672 6.12476 34.7439C6.11102 34.7205 6.10225 34.6946 6.099 34.6676C6.09576 34.6406 6.09812 34.6133 6.10592 34.5873C6.11373 34.5613 6.12681 34.5373 6.14434 34.5167L10.99 27.8369C11.0142 27.8036 11.0483 27.7788 11.0874 27.7662C11.1265 27.7536 11.1685 27.7537 11.2075 27.7666C11.2465 27.7795 11.2804 27.8045 11.3044 27.838C11.3285 27.8715 11.3414 27.9118 11.3413 27.9531V37.0757C11.3413 37.1101 11.3324 37.1439 11.3153 37.1737L6.11453 46.3002C6.09756 46.3298 6.0732 46.3544 6.04386 46.3716C6.01452 46.3887 5.98123 46.3979 5.9473 46.3981Z" fill="#FF0049"/>
        <path d="M54.0567 29.8039L51.853 30.001C51.8097 30.0047 51.7667 29.9909 51.7335 29.9628C51.7002 29.9347 51.6793 29.8944 51.6754 29.8509C51.6718 29.8073 51.6854 29.764 51.7133 29.7305C51.7413 29.697 51.7812 29.676 51.8245 29.672L54.0282 29.4762C54.0711 29.4725 54.1137 29.4861 54.1468 29.514C54.1798 29.5419 54.2005 29.5818 54.2045 29.625C54.2064 29.6465 54.2042 29.6682 54.1978 29.6889C54.1915 29.7095 54.1811 29.7287 54.1674 29.7453C54.1537 29.7619 54.1368 29.7756 54.1178 29.7857C54.0988 29.7957 54.0781 29.8019 54.0567 29.8039Z" fill="#FF0049"/>
        <path d="M54.1182 30.7769L51.9145 30.8866C51.8931 30.8878 51.8717 30.8847 51.8515 30.8776C51.8312 30.8704 51.8126 30.8593 51.7967 30.8448C51.7808 30.8304 51.7679 30.8129 51.7587 30.7934C51.7496 30.7739 51.7444 30.7527 51.7434 30.7312C51.7412 30.6877 51.7563 30.6452 51.7852 30.6129C51.8141 30.5806 51.8545 30.5612 51.8976 30.5588L54.1014 30.4505C54.1228 30.4492 54.1443 30.4523 54.1646 30.4594C54.1849 30.4666 54.2036 30.4777 54.2196 30.4921C54.2356 30.5065 54.2486 30.524 54.2579 30.5435C54.2672 30.563 54.2726 30.5842 54.2738 30.6058C54.2755 30.6493 54.2602 30.6916 54.231 30.7237C54.2019 30.7557 54.1613 30.7748 54.1182 30.7769Z" fill="#FF0049"/>
        <path d="M54.1369 31.7529L51.9332 31.7751C51.9118 31.7752 51.8905 31.7711 51.8706 31.763C51.8507 31.7549 51.8326 31.7429 51.8173 31.7278C51.802 31.7126 51.7899 31.6946 51.7815 31.6747C51.7731 31.6548 51.7687 31.6335 51.7686 31.6118C51.7682 31.5902 51.7721 31.5688 51.78 31.5487C51.7879 31.5286 51.7996 31.5103 51.8146 31.4948C51.8295 31.4792 51.8473 31.4668 51.867 31.4582C51.8867 31.4497 51.9079 31.4451 51.9293 31.4447L54.1331 31.4238C54.1762 31.4235 54.2176 31.4403 54.2485 31.4706C54.2793 31.501 54.297 31.5423 54.2977 31.5857C54.298 31.6073 54.2941 31.6288 54.2862 31.6489C54.2784 31.669 54.2666 31.6873 54.2517 31.7028C54.2368 31.7184 54.2189 31.7308 54.1993 31.7393C54.1796 31.7479 54.1584 31.7525 54.1369 31.7529Z" fill="#FF0049"/>
        <path d="M54.1188 32.7228L51.915 32.6576C51.8718 32.6559 51.831 32.6371 51.8014 32.6053C51.7718 32.5736 51.7558 32.5314 51.7569 32.4878C51.7574 32.4661 51.7622 32.4447 51.7709 32.4248C51.7797 32.405 51.7922 32.3871 51.8079 32.3722C51.8236 32.3572 51.842 32.3456 51.8622 32.3379C51.8824 32.3301 51.9038 32.3265 51.9254 32.3272L54.1291 32.3925C54.1724 32.3942 54.2132 32.413 54.2428 32.4447C54.2724 32.4765 54.2884 32.5187 54.2873 32.5622C54.2868 32.584 54.282 32.6054 54.2733 32.6252C54.2645 32.6451 54.2519 32.663 54.2363 32.6779C54.2206 32.6928 54.2021 32.7045 54.182 32.7122C54.1618 32.7199 54.1403 32.7235 54.1188 32.7228Z" fill="#FF0049"/>
        <path d="M54.0677 33.6986L51.8639 33.5459C51.8208 33.5428 51.7806 33.5227 51.7522 33.4899C51.7238 33.4571 51.7094 33.4143 51.7123 33.3709C51.7153 33.3275 51.7352 33.287 51.7678 33.2584C51.8003 33.2297 51.8428 33.2153 51.886 33.2181L54.0897 33.3709C54.1112 33.3724 54.1321 33.3781 54.1514 33.3878C54.1707 33.3975 54.1878 33.4109 54.2019 33.4273C54.216 33.4437 54.2268 33.4627 54.2335 33.4833C54.2403 33.5038 54.243 33.5255 54.2414 33.5472C54.2381 33.5904 54.218 33.6305 54.1854 33.6588C54.1529 33.6872 54.1106 33.7015 54.0677 33.6986Z" fill="#FF0049"/>
        <path d="M53.9803 34.6652L51.7857 34.4249C51.7427 34.4203 51.7034 34.3988 51.6762 34.365C51.649 34.3312 51.6361 34.288 51.6405 34.2447C51.6454 34.2014 51.667 34.1617 51.7008 34.1344C51.7345 34.107 51.7776 34.0941 51.8207 34.0985L54.0153 34.3387C54.0584 34.3437 54.0977 34.3655 54.1249 34.3995C54.1521 34.4334 54.1649 34.4768 54.1605 34.5202C54.1553 34.5633 54.1335 34.6027 54.0998 34.6298C54.0661 34.6569 54.0232 34.6696 53.9803 34.6652Z" fill="#FF0049"/>
        <path d="M53.85 35.6315L51.6657 35.2998C51.6444 35.2968 51.624 35.2895 51.6056 35.2785C51.5871 35.2674 51.571 35.2528 51.5582 35.2354C51.5454 35.218 51.5362 35.1983 51.5311 35.1773C51.5259 35.1563 51.525 35.1345 51.5283 35.1131C51.5313 35.0917 51.5385 35.071 51.5495 35.0524C51.5604 35.0337 51.5749 35.0175 51.5922 35.0045C51.6094 34.9915 51.629 34.9821 51.6498 34.9767C51.6707 34.9714 51.6924 34.9703 51.7137 34.9734L53.8967 35.2998C53.9393 35.3066 53.9776 35.33 54.0033 35.3649C54.029 35.3998 54.04 35.4435 54.0341 35.4865C54.0315 35.5083 54.0247 35.5293 54.014 35.5483C54.0034 35.5674 53.9891 35.5841 53.972 35.5976C53.9549 35.6111 53.9353 35.621 53.9144 35.6268C53.8934 35.6326 53.8715 35.6342 53.85 35.6315Z" fill="#FF0049"/>
        <path d="M53.6823 36.5917L51.5175 36.1791C51.4752 36.1705 51.438 36.1456 51.4138 36.1098C51.3895 36.0739 51.3802 36.0299 51.3879 35.9871C51.3917 35.9659 51.3998 35.9457 51.4115 35.9276C51.4232 35.9095 51.4383 35.8939 51.4561 35.8818C51.4738 35.8696 51.4937 35.8612 51.5147 35.8568C51.5357 35.8525 51.5574 35.8524 51.5784 35.8566L53.7459 36.2692C53.7883 36.2774 53.8257 36.3022 53.85 36.3382C53.8743 36.3741 53.8835 36.4183 53.8755 36.4611C53.867 36.5042 53.8419 36.5421 53.8057 36.5666C53.7695 36.5911 53.7251 36.6001 53.6823 36.5917Z" fill="#FF0049"/>
        <path d="M53.4766 37.5425L51.326 37.0451C51.3051 37.0403 51.2853 37.0314 51.2678 37.0189C51.2504 37.0064 51.2355 36.9905 51.2242 36.9721C51.2128 36.9538 51.2052 36.9334 51.2018 36.912C51.1984 36.8907 51.1992 36.8689 51.2042 36.8479C51.2089 36.8268 51.2177 36.8069 51.2301 36.7892C51.2425 36.7715 51.2583 36.7565 51.2765 36.745C51.2947 36.7335 51.3149 36.7257 51.3361 36.7221C51.3573 36.7184 51.3789 36.719 51.3999 36.7239L53.5505 37.2213C53.5926 37.2313 53.629 37.2576 53.6518 37.2945C53.6747 37.3315 53.6821 37.3761 53.6723 37.4185C53.6676 37.4396 53.6588 37.4595 53.6464 37.4772C53.6339 37.4949 53.6182 37.5099 53.6 37.5214C53.5818 37.5329 53.5616 37.5407 53.5404 37.5443C53.5192 37.548 53.4975 37.5473 53.4766 37.5425Z" fill="#FF0049"/>
        <path d="M53.2371 38.4858L51.1072 37.9113C51.0654 37.8997 51.0298 37.8719 51.0082 37.834C50.9866 37.7961 50.9807 37.7512 50.9918 37.709C50.9974 37.688 51.007 37.6684 51.0201 37.6512C51.0333 37.634 51.0496 37.6196 51.0683 37.6088C51.087 37.598 51.1076 37.591 51.1289 37.5882C51.1503 37.5855 51.172 37.587 51.1928 37.5928L53.3213 38.1725C53.3421 38.1781 53.3616 38.1878 53.3787 38.201C53.3958 38.2142 53.4101 38.2307 53.4208 38.2495C53.4315 38.2683 53.4384 38.289 53.4412 38.3106C53.4439 38.3321 53.4424 38.3539 53.4367 38.3748C53.4243 38.4159 53.3966 38.4505 53.3593 38.4712C53.322 38.492 53.2781 38.4972 53.2371 38.4858Z" fill="#FF0049"/>
    </g>
</svg>
