<svg width="60" height="62" viewBox="0 0 60 62" fill="none"
    xmlns="http://www.w3.org/2000/svg">
    <defs>
        <filter id="filter0_d_532_3370" x="8.16846" y="2.55664" width="49.7471" height="47.853" filterUnits="userSpaceOnUse" color-interpolation-filters="sRGB">
            <feFlood flood-opacity="0" result="BackgroundImageFix"/>
            <feColorMatrix in="SourceAlpha" type="matrix" values="0 0 0 0 0 0 0 0 0 0 0 0 0 0 0 0 0 0 127 0" result="hardAlpha"/>
            <feOffset/>
            <feGaussianBlur stdDeviation="1.5"/>
            <feComposite in2="hardAlpha" operator="out"/>
            <feColorMatrix type="matrix" values="0 0 0 0 0 0 0 0 0 0.890196 0 0 0 0 1 0 0 0 0.65 0"/>
            <feBlend mode="normal" in2="BackgroundImageFix" result="effect1_dropShadow_532_3370"/>
            <feBlend mode="normal" in="SourceGraphic" in2="effect1_dropShadow_532_3370" result="shape"/>
        </filter>
        <filter id="filter1_d_532_3370" x="6.42578" y="2.22754" width="50.7417" height="58.3604" filterUnits="userSpaceOnUse" color-interpolation-filters="sRGB">
            <feFlood flood-opacity="0" result="BackgroundImageFix"/>
            <feColorMatrix in="SourceAlpha" type="matrix" values="0 0 0 0 0 0 0 0 0 0 0 0 0 0 0 0 0 0 127 0" result="hardAlpha"/>
            <feOffset/>
            <feGaussianBlur stdDeviation="1.5"/>
            <feComposite in2="hardAlpha" operator="out"/>
            <feColorMatrix type="matrix" values="0 0 0 0 1 0 0 0 0 0 0 0 0 0 0 0 0 0 0.65 0"/>
            <feBlend mode="normal" in2="BackgroundImageFix" result="effect1_dropShadow_532_3370"/>
            <feBlend mode="normal" in="SourceGraphic" in2="effect1_dropShadow_532_3370" result="shape"/>
        </filter>
        <filter id="filter2_d_532_3370" x="0" y="0" width="60.0005" height="62.0005" filterUnits="userSpaceOnUse" color-interpolation-filters="sRGB">
            <feFlood flood-opacity="0" result="BackgroundImageFix"/>
            <feColorMatrix in="SourceAlpha" type="matrix" values="0 0 0 0 0 0 0 0 0 0 0 0 0 0 0 0 0 0 127 0" result="hardAlpha"/>
            <feOffset/>
            <feGaussianBlur stdDeviation="1.5"/>
            <feComposite in2="hardAlpha" operator="out"/>
            <feColorMatrix type="matrix" values="0 0 0 0 1 0 0 0 0 1 0 0 0 0 1 0 0 0 0.65 0"/>
            <feBlend mode="normal" in2="BackgroundImageFix" result="effect1_dropShadow_532_3370"/>
            <feBlend mode="normal" in="SourceGraphic" in2="effect1_dropShadow_532_3370" result="shape"/>
        </filter>
    </defs>
    <g filter="url(#filter0_d_532_3370)">
        <path d="M54.7214 23.8486C54.6798 23.8484 54.6394 23.8342 54.6062 23.8081L48.4364 19.079C48.412 19.06 48.3922 19.0353 48.3785 19.007C48.3648 18.9786 48.3576 18.9473 48.3574 18.9155V11.1058C48.3575 11.0659 48.3688 11.0269 48.3899 10.9937C48.4111 10.9605 48.4412 10.9345 48.4765 10.9191C48.5117 10.9037 48.5505 10.8994 48.5881 10.9069C48.6256 10.9144 48.6602 10.9333 48.6875 10.9613C50.1265 12.4366 51.4026 14.0754 52.4922 15.8471C52.506 15.8695 52.5154 15.8946 52.5199 15.9208C52.5243 15.947 52.5238 15.9739 52.5184 16C52.5129 16.026 52.5026 16.0507 52.488 16.0725C52.4734 16.0944 52.4548 16.113 52.4333 16.1274C52.4118 16.1418 52.3878 16.1516 52.3626 16.1563C52.3375 16.161 52.3117 16.1605 52.2868 16.1547C52.2618 16.149 52.2382 16.1383 52.2173 16.123C52.1963 16.1078 52.1784 16.0884 52.1647 16.0659C51.1754 14.4568 50.0297 12.9586 48.7458 11.595V18.8088L54.8366 23.4825C54.8778 23.5143 54.9053 23.5618 54.9131 23.6147C54.9209 23.6677 54.9083 23.7216 54.878 23.7649C54.86 23.7906 54.8364 23.8115 54.8092 23.826C54.782 23.8406 54.7519 23.8483 54.7214 23.8486Z" fill="#00FFFF"/>
        <path d="M43.1277 45.9043H28.6689V47.4095H43.1277V45.9043Z" fill="#00FFFF"/>
        <path d="M37.3522 42.8894H40.6598L40.0009 42.2016L40.0319 40.791H35.3418L37.3522 42.8894Z" fill="#00FFFF"/>
        <path d="M27.3881 41.9047V42.2979L22.5181 45.3651H43.0262L41.1737 43.4315H37.1348L34.0874 40.2523H40.041L40.085 38.2363H32.033L27.3881 41.9047Z" fill="#00FFFF"/>
        <path d="M21.9723 30.2257H11.9331L19.0673 33.8549V37.5679L21.9037 38.2259L23.9659 39.7068V29.3799L21.9723 30.2257Z" fill="#00FFFF"/>
        <path d="M28.15 45.9043H22.1265V47.4095H28.15V45.9043Z" fill="#00FFFF"/>
        <path d="M48.8887 29.042H45.9385V30.9498H48.8887V29.042Z" fill="#00FFFF"/>
        <path d="M11.1685 30.4395V31.9122L15.8793 36.8291L18.5461 37.4479V34.193L11.1685 30.4395Z" fill="#00FFFF"/>
        <path d="M45.4203 29.042H28.8877L33.3435 33.6927H43.2015L44.7731 35.3343L48.8884 32.8766V31.4889H45.4203V29.042Z" fill="#00FFFF"/>
        <path d="M33.1303 34.2332L28.1554 29.042H24.7598L24.4814 29.1595V40.0796L24.6692 40.2134H27.3903V41.2254L31.8616 37.6948H40.8199L44.3074 35.6113L42.987 34.2332H33.1303Z" fill="#00FFFF"/>
        <path d="M38.12 21.2531C38.0849 21.2376 38.0478 21.2276 38.0099 21.2233C37.5696 21.1659 37.1226 21.2196 36.7063 21.3801C36.6592 21.4062 36.6048 21.4146 36.5525 21.4038C36.5001 21.3929 36.4529 21.3636 36.4189 21.3206L36.2895 21.1936C35.366 20.2514 34.437 19.3097 33.5023 18.3683C33.4517 18.3239 33.4102 18.269 33.3806 18.2072C33.351 18.1454 33.3338 18.0779 33.3301 18.0089C33.3211 17.8495 33.3107 17.6887 33.3004 17.5293C32.591 18.3778 32.1262 19.5898 30.7592 19.2331C29.853 19.098 28.8174 19.3682 27.9112 19.098C27.3765 18.875 27.1966 18.2873 27.3688 17.7036C26.2347 15.8597 25.0999 14.0158 23.9641 12.1719C23.933 12.1084 23.0579 10.7073 23.023 10.6451C22.4715 9.75064 21.9205 8.85573 21.3698 7.96036C21.3427 7.91712 21.3181 7.87388 21.2935 7.82524L27.7157 14.3297C27.8007 14.1537 27.9261 14.0024 28.0808 13.8892L21.6508 7.3753C21.709 7.40908 21.7802 7.44556 21.8411 7.48745L28.7785 11.8841C28.8277 11.9152 29.6006 12.403 29.9436 12.6124C30.0951 12.5584 30.2025 12.3908 30.3126 12.2489C30.0329 12.0679 29.0297 11.4382 28.9753 11.4031C26.8177 10.0348 24.6601 8.66611 22.5026 7.29694C21.6223 6.73891 20.7446 6.17547 19.8669 5.61474L19.4785 5.55664C19.4966 5.69176 19.5148 5.81606 19.5316 5.94578C19.5575 5.98091 19.586 6.01468 19.608 6.05117C20.5892 7.64283 21.5701 9.2345 22.5505 10.8262C22.5932 10.8951 23.4476 12.303 23.4981 12.3651L27.4089 18.7156C27.6859 19.1655 27.8879 19.2898 28.3474 19.3236C29.4944 19.4087 30.644 19.5006 31.7896 19.5844C31.9066 19.5944 32.0153 19.6516 32.0926 19.7438C32.9996 20.668 33.9097 21.59 34.8228 22.5097L35.0338 22.7204C35.0735 22.7501 35.1017 22.7938 35.1131 22.8435C35.1245 22.8931 35.1184 22.9454 35.0959 22.9907C34.9461 23.3786 34.8896 23.7989 34.9315 24.2148C35.061 25.82 36.6079 26.9874 38.1782 26.6672C38.2917 26.6448 38.4036 26.615 38.5135 26.578C39.0593 26.4155 39.5405 26.0742 39.8862 25.6044C40.2319 25.1346 40.4237 24.5612 40.4333 23.9689C40.4333 22.5934 39.4275 21.4557 38.12 21.2531ZM32.455 19.4182C32.6855 19.1899 32.912 18.9683 33.1528 18.7291C33.2162 18.8034 33.3133 18.9183 33.3949 19.0169L32.7204 19.6925L32.455 19.4182ZM33.2667 20.187L33.914 19.5439L34.2467 19.8871L33.5748 20.5437L33.2667 20.187ZM34.4629 21.3233C34.4253 21.3409 34.3334 21.3017 34.2829 21.2666C34.2161 21.2195 34.1525 21.1675 34.0926 21.1112L34.7969 20.4275L35.2707 20.9301C35.0143 21.0585 34.7451 21.1977 34.4655 21.3233H34.4629ZM35.1904 22.1624L34.8758 21.8543L35.7911 21.4004L35.9205 21.5422L36.0111 21.6436L35.347 22.307L35.1904 22.1624ZM38.6313 25.9956C38.3377 26.131 38.0202 26.201 37.6992 26.201C36.4668 26.201 35.4636 25.1958 35.4636 23.9594C35.4732 23.4084 35.674 22.8798 36.0287 22.4715C36.3834 22.0633 36.8679 21.8032 37.3924 21.7395C37.5452 21.7287 37.6992 21.7287 37.852 21.7246C38.2383 21.7498 38.612 21.8772 38.9381 22.0948C38.9718 22.1232 39.0067 22.1489 39.0417 22.1746C39.3983 22.4481 39.664 22.8312 39.8017 23.2702C39.9393 23.7092 39.942 24.1822 39.8093 24.6229C39.7134 24.9236 39.5593 25.2006 39.3567 25.4367C39.1541 25.6729 38.9072 25.8631 38.6313 25.9956Z" fill="#00FFFF"/>
        <path d="M39.2324 23.9525C39.2429 23.6248 39.1596 23.3013 38.9929 23.0234C38.8263 22.7455 38.584 22.5258 38.2971 22.3924C38.0101 22.2591 37.6916 22.2181 37.3822 22.2748C37.0728 22.3316 36.7867 22.4834 36.5605 22.7108C36.3342 22.9382 36.1782 23.231 36.1123 23.5515C36.0464 23.8721 36.0736 24.2059 36.1905 24.5101C36.3075 24.8144 36.5087 25.0754 36.7686 25.2596C37.0284 25.4438 37.335 25.5429 37.6491 25.5441C38.5074 25.5509 39.2466 24.8077 39.2324 23.9525ZM36.576 23.9619C36.5842 23.6699 36.7008 23.3926 36.9012 23.1885C37.1016 22.9845 37.37 22.8697 37.65 22.8683C37.9299 22.8669 38.1994 22.979 38.4016 23.181C38.6039 23.383 38.723 23.6591 38.734 23.9511C38.7275 24.2456 38.6102 24.5256 38.4074 24.7304C38.2046 24.9352 37.9326 25.0485 37.6504 25.0455C37.3707 25.0488 37.1011 24.9369 36.9 24.734C36.6988 24.5312 36.5824 24.2538 36.576 23.9619Z" fill="#00FFFF"/>
    </g>
    <g filter="url(#filter1_d_532_3370)">
        <path d="M9.42578 21.6514L9.45814 22.1108L11.6977 24.4469L12.1379 24.4821L12.1055 24.0213L9.86593 21.6851L9.42578 21.6514Z" fill="#FF0049"/>
        <path d="M12.3828 24.4821L12.4165 24.0213L14.6547 21.6851L15.0962 21.6514L15.0625 22.1108L12.8243 24.4469L12.3828 24.4821Z" fill="#FF0049"/>
        <path d="M9.42578 27.5895L9.45814 27.1301L11.6977 24.7939L12.1379 24.7588L12.1055 25.2182L9.86593 27.5557L9.42578 27.5895Z" fill="#FF0049"/>
        <path d="M12.3828 24.7588L12.4165 25.2182L14.6547 27.5557L15.0962 27.5895L15.0625 27.1301L12.8243 24.7939L12.3828 24.7588Z" fill="#FF0049"/>
        <path d="M30.0359 57.2773L30.2609 53.2157C30.2608 53.1401 30.2888 53.0675 30.339 53.013C30.3891 52.9586 30.4575 52.9266 30.5298 52.9238C30.565 52.9269 30.5993 52.9376 30.6305 52.9551C30.6616 52.9725 30.689 52.9965 30.7109 53.0255C30.7329 53.0545 30.7489 53.0879 30.758 53.1237C30.7671 53.1594 30.769 53.1967 30.7638 53.2332L30.5337 57.2962C30.5337 57.3717 30.5057 57.4444 30.4556 57.4988C30.4054 57.5533 30.337 57.5852 30.2648 57.588C30.2302 57.5834 30.1969 57.5716 30.1666 57.5535C30.1364 57.5353 30.1099 57.5111 30.0887 57.4823C30.0674 57.4534 30.0518 57.4204 30.0428 57.3853C30.0337 57.3501 30.0314 57.3134 30.0359 57.2773Z" fill="#FF0049"/>
        <path d="M28.5507 57.1756L28.9144 53.1221C28.9171 53.0471 28.9477 52.9761 28.9996 52.9241C29.0516 52.8722 29.1208 52.8434 29.1928 52.8438C29.2277 52.8492 29.2613 52.8618 29.2916 52.8809C29.3218 52.9 29.3481 52.9252 29.3689 52.955C29.3898 52.9848 29.4047 53.0186 29.4129 53.0545C29.4211 53.0904 29.4224 53.1276 29.4167 53.164L29.053 57.2175C29.0503 57.2926 29.0198 57.3638 28.9679 57.4159C28.916 57.4681 28.8467 57.4972 28.7746 57.4972C28.7397 57.4914 28.7062 57.4785 28.676 57.4592C28.6459 57.44 28.6196 57.4147 28.5988 57.3848C28.578 57.3549 28.5631 57.3211 28.5548 57.2852C28.5465 57.2493 28.5451 57.212 28.5507 57.1756Z" fill="#FF0049"/>
        <path d="M27.0685 57.0058L27.5656 52.9658C27.5696 52.8905 27.6019 52.82 27.6555 52.7694C27.709 52.7188 27.7795 52.6923 27.8517 52.6956C27.8867 52.7027 27.9199 52.717 27.9496 52.7375C27.9793 52.7581 28.0048 52.7846 28.0246 52.8155C28.0445 52.8463 28.0583 52.881 28.0653 52.9175C28.0722 52.954 28.0722 52.9915 28.0653 53.028L27.5682 57.0706C27.5642 57.1459 27.5319 57.2165 27.4783 57.2671C27.4248 57.3177 27.3542 57.3442 27.2821 57.3409C27.2469 57.3336 27.2135 57.3192 27.1837 57.2984C27.1539 57.2776 27.1284 57.2508 27.1085 57.2197C27.0887 57.1886 27.0749 57.1536 27.068 57.1169C27.0612 57.0802 27.0613 57.0424 27.0685 57.0058Z" fill="#FF0049"/>
        <path d="M25.6007 56.7656L26.2325 52.7473C26.2357 52.7105 26.2459 52.6747 26.2625 52.642C26.279 52.6094 26.3016 52.5805 26.3289 52.557C26.3563 52.5335 26.3878 52.5159 26.4216 52.5052C26.4555 52.4945 26.4911 52.4909 26.5263 52.4946C26.5962 52.5126 26.6565 52.5584 26.6943 52.6224C26.7321 52.6863 26.7443 52.7632 26.7283 52.8364L26.0991 56.8548C26.0919 56.9288 26.057 56.9969 26.002 57.0442C25.947 57.0915 25.8763 57.1142 25.8053 57.1075C25.7351 57.0898 25.6743 57.0441 25.6361 56.9801C25.5979 56.9162 25.5852 56.8392 25.6007 56.7656Z" fill="#FF0049"/>
        <path d="M24.1406 56.4545L24.9005 52.4618C24.9051 52.4252 24.9166 52.39 24.9344 52.3581C24.9522 52.3262 24.9758 52.2983 25.004 52.2761C25.0322 52.2538 25.0644 52.2376 25.0986 52.2285C25.1328 52.2193 25.1685 52.2173 25.2034 52.2226C25.2723 52.2443 25.3305 52.293 25.3658 52.3585C25.401 52.424 25.4106 52.5012 25.3924 52.5739L24.6325 56.5666C24.6279 56.6032 24.6164 56.6385 24.5986 56.6703C24.5809 56.7022 24.5572 56.7301 24.529 56.7524C24.5008 56.7746 24.4687 56.7908 24.4344 56.8C24.4002 56.8091 24.3646 56.8111 24.3296 56.8058C24.2605 56.7844 24.2021 56.7357 24.1668 56.6701C24.1315 56.6046 24.1221 56.5272 24.1406 56.4545Z" fill="#FF0049"/>
        <path d="M22.7 56.0784L23.5893 52.1181C23.5944 52.0816 23.6066 52.0465 23.6252 52.0151C23.6437 51.9837 23.6683 51.9566 23.6973 51.9354C23.7262 51.9143 23.7591 51.8996 23.7937 51.8922C23.8284 51.8848 23.8641 51.8849 23.8987 51.8925C23.9673 51.9175 24.024 51.969 24.0572 52.0364C24.0905 52.1037 24.0977 52.1818 24.0774 52.2546L23.1867 56.2135C23.1816 56.25 23.1694 56.2851 23.1509 56.3165C23.1323 56.3479 23.1078 56.375 23.0788 56.3962C23.0498 56.4173 23.017 56.432 22.9823 56.4394C22.9477 56.4468 22.9119 56.4467 22.8773 56.4391C22.8087 56.4147 22.7519 56.3635 22.7188 56.2962C22.6857 56.2289 22.679 56.1508 22.7 56.0784Z" fill="#FF0049"/>
        <path d="M49.3014 41.4517C49.266 41.4515 49.2313 41.4412 49.2011 41.4219C49.1709 41.4025 49.1464 41.375 49.1301 41.3421C49.1138 41.3093 49.1065 41.2724 49.1088 41.2355C49.1112 41.1987 49.1232 41.1631 49.1435 41.1329L53.7792 34.2082V30.3168L52.4303 28.9116C52.3939 28.8736 52.3734 28.8221 52.3734 28.7684V25.3013C52.3734 25.2476 52.3938 25.196 52.4302 25.158C52.4667 25.12 52.5161 25.0986 52.5676 25.0986C52.6191 25.0986 52.6685 25.12 52.7049 25.158C52.7413 25.196 52.7617 25.2476 52.7617 25.3013V28.6792L54.1107 30.0871C54.1471 30.1251 54.1676 30.1766 54.1676 30.2303V34.2663C54.168 34.3079 54.1558 34.3485 54.1327 34.3825L49.4619 41.3599C49.4442 41.3874 49.4203 41.4102 49.3924 41.4262C49.3645 41.4421 49.3333 41.4509 49.3014 41.4517Z" fill="#FF0049"/>
        <path d="M28.6256 19.6971C29.7337 19.6228 30.8418 19.5404 31.9487 19.4674C32.2956 19.4458 32.5584 19.2702 32.7681 18.9026C33.1901 18.1663 33.6212 17.4339 34.0484 16.6989L34.0963 16.6165C34.1377 16.5557 34.9145 15.2113 34.952 15.1478C36.2629 12.8958 37.5739 10.6412 38.8848 8.38385C39.4195 7.46641 39.9593 6.55033 40.4965 5.63289C40.5159 5.49777 40.5341 5.36266 40.5522 5.22754L40.1794 5.28429C40.1457 5.30996 40.1133 5.33969 40.0784 5.36401L35.5035 8.4352C35.4387 8.47843 34.0898 9.3702 34.029 9.42289L27.9446 13.5048C27.5135 13.7939 27.3931 14.0047 27.3608 14.4857C27.2805 15.6828 27.1925 16.8813 27.1122 18.0784C27.1019 18.2002 27.0467 18.3131 26.9582 18.3932C26.0736 19.3418 25.1907 20.2921 24.3095 21.2442L24.1076 21.4644C24.0795 21.5064 24.0376 21.5362 23.9899 21.5481C23.9422 21.5601 23.892 21.5534 23.8487 21.5293C23.4795 21.374 23.0796 21.3151 22.6836 21.3577C21.1457 21.4928 20.0272 23.1074 20.3327 24.7478C20.3554 24.8654 20.3839 24.9818 20.4181 25.0964C20.573 25.6696 20.9011 26.1753 21.3537 26.5381C21.8062 26.9009 22.359 27.1013 22.9296 27.1096C24.2396 27.1096 25.3296 26.0611 25.5251 24.6951C25.5399 24.659 25.5491 24.6207 25.5523 24.5816C25.6085 24.1221 25.5574 23.6553 25.4034 23.2209C25.3784 23.1718 25.3704 23.115 25.3807 23.0604C25.3911 23.0057 25.4193 22.9565 25.4604 22.921L25.5821 22.7859C26.4883 21.8184 27.3906 20.8479 28.289 19.8741C28.3309 19.8226 28.3823 19.7804 28.4401 19.75C28.4979 19.7196 28.561 19.7016 28.6256 19.6971ZM28.8223 19.0945C28.5427 19.1202 28.4158 18.9797 28.2954 18.8135L31.3066 15.5707L31.9978 18.8567C30.9415 18.9324 29.8851 18.9972 28.8223 19.0945ZM25.6546 20.4943L26.3018 21.2293L25.8216 21.7239C25.6986 21.4536 25.5627 21.1726 25.4436 20.8821C25.428 20.8416 25.4656 20.747 25.4979 20.6929C25.5455 20.6229 25.5979 20.5565 25.6546 20.4943ZM26.197 19.9538L26.54 19.6269L27.155 20.3187L26.8261 20.6645L26.197 19.9538ZM38.7036 7.69881L34.4911 14.9397C34.4536 15.0045 33.7325 16.249 33.7041 16.3152C33.6559 16.3801 33.6126 16.4487 33.5746 16.5205C33.219 17.1313 32.8639 17.742 32.5092 18.3527L31.8153 15.0356L38.8059 7.5056C38.7774 7.5664 38.7424 7.63666 38.7036 7.70422V7.69881ZM27.9317 19.5147L27.6572 19.7674L27.01 19.0634L27.2689 18.7851L27.9317 19.5147ZM34.2154 9.92147C34.2762 9.8904 35.6187 8.97566 35.6782 8.93918L38.2531 7.21239L38.3825 7.13268L31.4567 14.5816L28.3563 13.8533C30.3111 12.5454 32.2654 11.2325 34.2193 9.91472L34.2154 9.92147ZM27.9174 14.4168L30.9441 15.1275L27.9045 18.396C27.8191 18.2608 27.6456 18.2014 27.6663 17.9325C27.7673 16.7556 27.8449 15.5896 27.9213 14.4154L27.9174 14.4168ZM25.0448 23.9371C25.0565 24.0965 25.0565 24.2573 25.0604 24.4167C25.0364 24.8201 24.9138 25.2104 24.7044 25.5503C24.6785 25.5855 24.6539 25.622 24.628 25.6584C24.3662 26.031 23.9991 26.3086 23.5784 26.4523C23.1577 26.596 22.7045 26.5986 22.2823 26.4597C21.9942 26.3598 21.7288 26.1991 21.5028 25.9876C21.2767 25.776 21.0948 25.5182 20.9683 25.2301C20.8378 24.924 20.7707 24.5924 20.7716 24.2573C20.7716 22.971 21.7347 21.9238 22.9192 21.9238C24.0066 21.9225 24.905 22.8007 25.0487 23.9357L25.0448 23.9371ZM25.2351 22.4008L25.1381 22.494L24.5063 21.8049L24.6474 21.6468L24.9426 21.3185C25.0876 21.6347 25.2287 21.9454 25.3775 22.2724L25.2416 22.4075L25.2351 22.4008Z" fill="#FF0049"/>
        <path d="M22.933 25.8577C23.2469 25.8685 23.5567 25.7812 23.8229 25.6071C24.089 25.433 24.2993 25.18 24.4268 24.8805C24.5544 24.581 24.5934 24.2485 24.5389 23.9257C24.4844 23.6029 24.3389 23.3044 24.1209 23.0684C23.9029 22.8324 23.6225 22.6697 23.3154 22.601C23.0083 22.5323 22.6885 22.5609 22.3971 22.6829C22.1056 22.805 21.8557 23.0151 21.6793 23.2863C21.5028 23.5575 21.408 23.8774 21.4068 24.2052C21.4016 25.101 22.1136 25.8726 22.933 25.8577ZM22.9227 23.0851C23.2025 23.0935 23.4683 23.2151 23.6639 23.4241C23.8595 23.6331 23.9697 23.9132 23.9712 24.2054C23.9727 24.4976 23.8654 24.779 23.672 24.9902C23.4785 25.2014 23.2141 25.3259 22.9343 25.3375C22.6545 25.3291 22.3887 25.2075 22.1931 24.9985C21.9975 24.7895 21.8873 24.5094 21.8858 24.2172C21.8843 23.925 21.9916 23.6436 22.185 23.4324C22.3785 23.2212 22.6429 23.0967 22.9227 23.0851Z" fill="#FF0049"/>
    </g>
    <g filter="url(#filter2_d_532_3370)">
        <path d="M34.6048 7.27549C34.5906 7.27747 34.5762 7.27747 34.5621 7.27549C32.8313 6.85528 31.6221 6.77826 29.8655 6.77826C29.3243 6.77826 28.778 6.79853 28.2408 6.83771C28.1893 6.84115 28.1386 6.82318 28.0997 6.78772C28.0623 6.75287 28.0387 6.70467 28.0337 6.6526L27.8473 3.41928C26.3895 3.53423 24.9433 3.77465 23.5235 4.13809C23.4984 4.14566 23.4721 4.14787 23.4461 4.14457C23.4202 4.14128 23.3951 4.13255 23.3725 4.11892C23.3499 4.10528 23.3301 4.08702 23.3144 4.06522C23.2987 4.04342 23.2874 4.01854 23.2811 3.99206C23.2748 3.96559 23.2737 3.93806 23.2779 3.91113C23.282 3.8842 23.2914 3.85843 23.3053 3.83535C23.3192 3.81227 23.3375 3.79236 23.3589 3.77682C23.3804 3.76128 23.4047 3.75043 23.4303 3.74491C24.9356 3.35885 26.4702 3.10975 28.0168 3.00042C28.0684 2.99698 28.1191 3.01495 28.1579 3.05041C28.1956 3.08509 28.2192 3.13338 28.224 3.18552L28.4104 6.4202C28.892 6.38913 29.3813 6.37291 29.8655 6.37291C31.6247 6.37291 32.8429 6.44993 34.5698 6.86203L38.5829 4.20295C38.6045 4.18867 38.6286 4.17896 38.6538 4.17439C38.6789 4.16981 38.7047 4.17046 38.7297 4.1763C38.7546 4.18213 38.7782 4.19304 38.7991 4.20839C38.82 4.22374 38.8378 4.24324 38.8515 4.26578C38.8652 4.28831 38.8745 4.31344 38.8789 4.33973C38.8833 4.36601 38.8827 4.39294 38.8771 4.41897C38.8715 4.44501 38.861 4.46964 38.8463 4.49146C38.8316 4.51328 38.8129 4.53186 38.7913 4.54614L34.7148 7.24847C34.6814 7.26844 34.6432 7.27783 34.6048 7.27549Z" fill="white"/>
        <path d="M12.8134 9.49289C12.7729 9.49431 12.7329 9.48241 12.6991 9.45886C12.6653 9.43532 12.6395 9.40132 12.6252 9.36165C12.6109 9.32198 12.6089 9.27863 12.6195 9.2377C12.63 9.19678 12.6526 9.16033 12.684 9.13348C13.9678 8.02875 15.3467 7.05039 16.8032 6.21093C16.8438 6.18739 16.8911 6.1799 16.9365 6.18982C16.9819 6.19975 17.0224 6.22643 17.0505 6.26497L18.6195 8.3971C18.6509 8.43975 18.6648 8.49367 18.6581 8.54701C18.6514 8.60035 18.6247 8.64873 18.5839 8.68152C18.543 8.71431 18.4914 8.72882 18.4403 8.72185C18.3892 8.71488 18.3428 8.68701 18.3114 8.64437L16.8447 6.65005C15.4632 7.45868 14.1535 8.39423 12.9313 9.4456C12.8982 9.47471 12.8567 9.49137 12.8134 9.49289Z" fill="white"/>
        <path d="M6.26608 20.6604L3.96826 20.6509C5.8043 15.3685 9.12504 10.7874 13.4961 7.50684L15.1415 9.22416C11.2831 12.1218 8.23317 16.0392 6.30492 20.5739L6.26608 20.6604Z" fill="white"/>
        <path d="M12.2651 47.2564H8.0993C8.06825 47.2563 8.03767 47.2484 8.01018 47.2333C7.98268 47.2183 7.95907 47.1965 7.94136 47.1699C4.71397 42.4357 2.9862 36.7663 3.00008 30.956C2.99981 29.2562 3.14669 27.5599 3.43894 25.8878C3.44803 25.834 3.47722 25.7862 3.52007 25.755C3.56292 25.7237 3.61592 25.7114 3.66742 25.7209C3.71892 25.7304 3.7647 25.7609 3.79468 25.8056C3.82466 25.8503 3.8364 25.9056 3.8273 25.9594C3.53968 27.6089 3.39497 29.2821 3.39492 30.9587C3.37986 36.6479 5.05907 42.2015 8.20027 46.851H12.2651C12.3166 46.851 12.366 46.8724 12.4024 46.9104C12.4389 46.9484 12.4593 47 12.4593 47.0537C12.4593 47.1075 12.4389 47.159 12.4024 47.197C12.366 47.235 12.3166 47.2564 12.2651 47.2564Z" fill="white"/>
        <path d="M45.9858 49.6129L56.8043 33.2773V38.2347L49.4669 49.6129H45.9858Z" fill="white"/>
        <path d="M49.4689 49.8164H45.9879C45.9525 49.8163 45.9179 49.8061 45.8877 49.7869C45.8576 49.7678 45.833 49.7404 45.8166 49.7077C45.8002 49.6751 45.7927 49.6384 45.7948 49.6016C45.7969 49.5648 45.8086 49.5293 45.8286 49.4989L56.6458 33.158C56.6692 33.1221 56.7031 33.095 56.7423 33.0807C56.7816 33.0664 56.8242 33.0656 56.8639 33.0784C56.9036 33.0913 56.9383 33.1171 56.9629 33.1521C56.9875 33.1871 57.0007 33.2294 57.0005 33.2728V38.2302C57.0005 38.2707 56.9888 38.3103 56.9669 38.3437L49.6307 49.7219C49.6133 49.7503 49.5894 49.7738 49.5611 49.7903C49.5329 49.8068 49.5012 49.8158 49.4689 49.8164ZM46.362 49.4111H49.3666L56.6161 38.1735V33.9281L46.362 49.4111Z" fill="white"/>
        <path d="M29.8684 59.0004C26.4721 59.0063 23.1058 58.3368 19.9496 57.0277C19.918 57.0144 19.8902 56.9927 19.8691 56.9647C19.848 56.9367 19.8342 56.9035 19.8292 56.8682L19.2985 52.9499C15.3903 50.9048 12.1043 47.765 9.80828 43.8819C7.51221 39.9988 6.29657 35.5255 6.29736 30.9624C6.29736 30.9087 6.31782 30.8571 6.35424 30.8191C6.39066 30.7811 6.44005 30.7598 6.49155 30.7598C6.54305 30.7598 6.59244 30.7811 6.62885 30.8191C6.66527 30.8571 6.68573 30.9087 6.68573 30.9624C6.67142 35.4704 7.87023 39.8919 10.1457 43.7235C12.4211 47.5552 15.6817 50.6429 19.5561 52.6351C19.5845 52.6494 19.609 52.6709 19.6275 52.6975C19.646 52.7241 19.658 52.7551 19.6622 52.7877L20.1917 56.6939C24.5921 58.4906 29.3726 59.0273 34.0385 58.2483C38.7043 57.4694 43.0859 55.4032 46.7299 52.2635L45.8069 49.6841C45.7976 49.6591 45.7931 49.6324 45.7938 49.6056C45.7944 49.5788 45.8002 49.5524 45.8107 49.5279C45.8212 49.5034 45.8363 49.4814 45.8551 49.463C45.8738 49.4446 45.8959 49.4304 45.9199 49.421C45.944 49.4116 45.9696 49.4073 45.9953 49.4083C46.021 49.4093 46.0462 49.4157 46.0696 49.4269C46.0929 49.4382 46.1138 49.4542 46.1312 49.474C46.1485 49.4938 46.1619 49.517 46.1706 49.5423L47.1428 52.2567C47.1557 52.2954 47.1572 52.3372 47.147 52.3767C47.1369 52.4162 47.1156 52.4516 47.0859 52.4783C42.2547 56.6881 36.162 58.9961 29.8684 59.0004Z" fill="white"/>
        <path d="M56.8038 33.4817C56.7524 33.4817 56.703 33.4603 56.6667 33.4223C56.6303 33.3843 56.6099 33.3328 56.6099 33.279V25.3072C56.6099 25.2534 56.6303 25.2019 56.6667 25.1639C56.703 25.1258 56.7524 25.1045 56.8038 25.1045C56.8552 25.1045 56.9045 25.1258 56.9409 25.1639C56.9773 25.2019 56.9977 25.2534 56.9977 25.3072V33.279C56.9977 33.3328 56.9773 33.3843 56.9409 33.4223C56.9045 33.4603 56.8552 33.4817 56.8038 33.4817Z" fill="white"/>
        <path d="M39.4893 11.929C39.4552 11.9291 39.4217 11.9198 39.3922 11.902C39.3701 11.8885 39.3507 11.8707 39.3351 11.8494C39.3196 11.8281 39.3083 11.8039 39.3018 11.778C39.2953 11.7521 39.2937 11.7251 39.2973 11.6987C39.3008 11.6722 39.3093 11.6467 39.3223 11.6236L42.2752 6.35409C42.3002 6.30856 42.3413 6.27503 42.3896 6.26064C42.438 6.24625 42.4898 6.25215 42.5341 6.27707C43.9711 7.07826 45.3351 8.01443 46.6093 9.07398C46.6497 9.10748 46.6756 9.15634 46.6814 9.20981C46.6873 9.26327 46.6725 9.31696 46.6404 9.35907C46.6083 9.40118 46.5615 9.42825 46.5103 9.43433C46.459 9.44041 46.4076 9.42501 46.3673 9.3915C45.1604 8.38775 43.8718 7.49618 42.516 6.72701L39.6576 11.8358C39.6397 11.8652 39.6148 11.8892 39.5853 11.9056C39.5558 11.9219 39.5227 11.93 39.4893 11.929Z" fill="white"/>
    </g>

</svg>
