<svg width="80" height="80" viewBox="0 0 80 80" fill="none"
    xmlns="http://www.w3.org/2000/svg">
    <defs>
        <filter id="filter0_d_532_3322" x="15.1738" y="10.6494" width="64.8252" height="64.6289" filterUnits="userSpaceOnUse" color-interpolation-filters="sRGB">
            <feFlood flood-opacity="0" result="BackgroundImageFix"/>
            <feColorMatrix in="SourceAlpha" type="matrix" values="0 0 0 0 0 0 0 0 0 0 0 0 0 0 0 0 0 0 127 0" result="hardAlpha"/>
            <feOffset/>
            <feGaussianBlur stdDeviation="2"/>
            <feComposite in2="hardAlpha" operator="out"/>
            <feColorMatrix type="matrix" values="0 0 0 0 0 0 0 0 0 0.890196 0 0 0 0 1 0 0 0 0.7 0"/>
            <feBlend mode="normal" in2="BackgroundImageFix" result="effect1_dropShadow_532_3322"/>
            <feBlend mode="normal" in="SourceGraphic" in2="effect1_dropShadow_532_3322" result="shape"/>
        </filter>
        <filter id="filter1_d_532_3322" x="2.5" y="0" width="73.4619" height="79.3228" filterUnits="userSpaceOnUse" color-interpolation-filters="sRGB">
            <feFlood flood-opacity="0" result="BackgroundImageFix"/>
            <feColorMatrix in="SourceAlpha" type="matrix" values="0 0 0 0 0 0 0 0 0 0 0 0 0 0 0 0 0 0 127 0" result="hardAlpha"/>
            <feOffset/>
            <feGaussianBlur stdDeviation="2"/>
            <feComposite in2="hardAlpha" operator="out"/>
            <feColorMatrix type="matrix" values="0 0 0 0 1 0 0 0 0 1 0 0 0 0 1 0 0 0 0.7 0"/>
            <feBlend mode="normal" in2="BackgroundImageFix" result="effect1_dropShadow_532_3322"/>
            <feBlend mode="normal" in="SourceGraphic" in2="effect1_dropShadow_532_3322" result="shape"/>
        </filter>
        <filter id="filter2_d_532_3322" x="0" y="10.3569" width="65.4556" height="69.6421" filterUnits="userSpaceOnUse" color-interpolation-filters="sRGB">
            <feFlood flood-opacity="0" result="BackgroundImageFix"/>
            <feColorMatrix in="SourceAlpha" type="matrix" values="0 0 0 0 0 0 0 0 0 0 0 0 0 0 0 0 0 0 127 0" result="hardAlpha"/>
            <feOffset/>
            <feGaussianBlur stdDeviation="2"/>
            <feComposite in2="hardAlpha" operator="out"/>
            <feColorMatrix type="matrix" values="0 0 0 0 1 0 0 0 0 0 0 0 0 0 0 0 0 0 0.7 0"/>
            <feBlend mode="normal" in2="BackgroundImageFix" result="effect1_dropShadow_532_3322"/>
            <feBlend mode="normal" in="SourceGraphic" in2="effect1_dropShadow_532_3322" result="shape"/>
        </filter>
    </defs>
    <path d="M30.3373 46.3103L30.34 46.3076H30.3359L30.3373 46.3103Z" fill="#FF0049"/>
    <g filter="url(#filter0_d_532_3322)">
        <path d="M50.2883 46.5997H47.3855L19.1738 17.6255V14.6494L50.2866 46.6014" fill="#00FFFF"/>
        <path d="M19.1738 20.9237L49.5376 52.061L52.5731 48.9436L50.9046 47.2317H47.0675L19.1738 18.584V20.9237Z" fill="#00FFFF"/>
        <path d="M48.9538 56.0179H48.9308L47.359 55.8496C47.3188 55.8449 47.2807 55.8287 47.2491 55.8028C47.2175 55.7769 47.1936 55.7424 47.1803 55.7031C47.1667 55.664 47.1643 55.6216 47.1733 55.5811C47.1823 55.5405 47.2024 55.5035 47.2311 55.4742L55.1691 47.3221C55.2078 47.2831 55.2592 47.2603 55.3134 47.2581L57.1164 47.1925C57.1595 47.1911 57.2021 47.203 57.2386 47.2267C57.2751 47.2504 57.3039 47.2848 57.3212 47.3255C57.3382 47.3659 57.343 47.4107 57.3348 47.4539C57.3266 47.4972 57.3059 47.5369 57.2753 47.5679L49.1029 55.9607C49.0624 55.999 49.0089 56.0195 48.9538 56.0179ZM47.8507 55.4523L48.8751 55.5668L56.5902 47.6436L55.4134 47.6857L47.8507 55.4523Z" fill="#00FFFF"/>
        <path d="M74.0935 52.224C74.0691 52.2232 74.0449 52.2192 74.0214 52.2122C73.9589 52.1924 73.9066 52.148 73.8759 52.0887C73.8452 52.0294 73.8386 51.96 73.8575 51.8957C76.6439 42.7522 75.8752 32.7703 71.7677 24.5088C71.7418 24.4497 71.7391 24.3826 71.7601 24.3214C71.781 24.2603 71.8241 24.2098 71.8804 24.1803C71.9366 24.1509 72.0017 24.1448 72.0622 24.1634C72.1227 24.1819 72.1739 24.2236 72.2053 24.2799C76.3718 32.6559 77.1438 42.7774 74.3361 52.0539C74.3186 52.1052 74.2857 52.1493 74.242 52.1799C74.1984 52.2105 74.1463 52.2259 74.0935 52.224Z" fill="#00FFFF"/>
        <path d="M59.8355 71.2781C59.7834 71.278 59.7327 71.261 59.6907 71.2294C59.6487 71.1979 59.6176 71.1535 59.6017 71.1026C59.5859 71.0517 59.5862 70.9969 59.6025 70.9462C59.6189 70.8955 59.6505 70.8514 59.6929 70.8203C60.7941 70.0167 61.8488 69.1478 62.8513 68.2179L54.1544 59.7241C54.1283 59.7021 54.1069 59.6748 54.0915 59.6439C54.0761 59.613 54.067 59.5792 54.0649 59.5446C54.0628 59.51 54.0677 59.4752 54.0792 59.4426C54.0908 59.41 54.1087 59.3802 54.132 59.355C54.1553 59.3298 54.1833 59.3099 54.2145 59.2963C54.2456 59.2828 54.2791 59.276 54.3129 59.2764C54.3467 59.2767 54.38 59.2842 54.4108 59.2984C54.4417 59.3126 54.4693 59.3332 54.4921 59.3588L63.3808 68.0395C63.4052 68.0633 63.4246 68.092 63.4376 68.1239C63.4506 68.1558 63.4569 68.1901 63.4562 68.2247C63.456 68.2592 63.449 68.2933 63.4354 68.3248C63.4219 68.3564 63.4022 68.3848 63.3775 68.4082C62.3016 69.4208 61.1658 70.3642 59.9764 71.2327C59.9349 71.2619 59.8858 71.2778 59.8355 71.2781Z" fill="#00FFFF"/>
    </g>
    <g filter="url(#filter1_d_532_3322)">
        <path d="M28.7048 54.2643L27.6738 55.3231V53.2056L28.7048 54.2643Z" fill="white"/>
        <path d="M26.5363 56.4901L25.4004 57.6583V51.378L25.6463 51.1255L26.5363 52.0395V56.4901Z" fill="white"/>
        <path d="M24.2625 58.8267L23.125 59.9932V53.7146L24.2625 52.5464V58.8267Z" fill="white"/>
        <path d="M21.9871 61.1626L20.8496 62.3291V56.0505L21.9871 54.8823V61.1626Z" fill="white"/>
        <path d="M19.7137 63.4981L18.5762 64.6663V58.386L19.7137 57.2178V63.4981Z" fill="white"/>
        <path d="M17.4402 65.8323L16.3027 67.0022V60.7219L17.4402 59.5537V65.8323Z" fill="white"/>
        <path d="M15.1652 66.789L14.0293 65.6225V63.0571L15.1652 61.8906V66.789Z" fill="white"/>
        <path d="M51.9219 54.5542L52.9529 55.613V53.4971L51.9219 54.5542Z" fill="white"/>
        <path d="M54.0879 56.7813L55.2254 57.9478V51.6692L54.9795 51.415L54.0879 52.3291V56.7813Z" fill="white"/>
        <path d="M56.3633 59.1167L57.4992 60.2849V54.0046L56.3633 52.8364V59.1167Z" fill="white"/>
        <path d="M58.6406 61.4522L59.7765 62.6204V56.3401L58.6406 55.1719V61.4522Z" fill="white"/>
        <path d="M60.9121 63.7891L62.0496 64.9556V58.6753L60.9121 57.5088V63.7891Z" fill="white"/>
        <path d="M63.1895 66.1241L64.327 67.2923V61.0136L63.1895 59.8438V66.1241Z" fill="white"/>
        <path d="M65.4648 67.0802L66.6007 65.912V63.3484L65.4648 62.1802V67.0802Z" fill="white"/>
        <path d="M26.5335 75.3227C26.502 75.3233 26.4707 75.3169 26.4417 75.3042C23.2181 73.9409 20.2265 72.059 17.5793 69.7292C17.5531 69.7069 17.5319 69.6791 17.5169 69.6478C17.5019 69.6165 17.4936 69.5823 17.4924 69.5474C17.491 69.5124 17.4965 69.4775 17.5086 69.4448C17.5207 69.4121 17.5392 69.3823 17.5629 69.3572L22.6719 64.1121C22.7179 64.0647 22.7804 64.0381 22.8456 64.038H26.2877C26.3529 64.038 26.4154 64.0646 26.4615 64.112C26.5076 64.1593 26.5335 64.2235 26.5335 64.2905C26.5335 64.3575 26.5076 64.4217 26.4615 64.469C26.4154 64.5164 26.3529 64.543 26.2877 64.543H22.9472L18.1005 69.5204C20.6159 71.6998 23.441 73.4714 26.4778 74.774L40.5525 60.6664C40.5748 60.6403 40.6022 60.6192 40.6329 60.6044C40.6635 60.5897 40.6968 60.5816 40.7307 60.5807C40.7645 60.5797 40.7982 60.586 40.8296 60.5991C40.861 60.6122 40.8894 60.6318 40.9131 60.6566C40.9367 60.6815 40.9551 60.7112 40.9671 60.7437C40.9791 60.7762 40.9844 60.8109 40.9827 60.8457C40.981 60.8804 40.9724 60.9144 40.9573 60.9456C40.9422 60.9767 40.921 61.0043 40.895 61.0266L26.7056 75.252C26.6592 75.2974 26.5976 75.3227 26.5335 75.3227Z" fill="white"/>
        <path d="M10.8534 62.1708H10.8272C10.7916 62.1673 10.7571 62.1558 10.7263 62.1372C10.6954 62.1186 10.6689 62.0933 10.6485 62.0631C9.84554 60.8803 9.10841 59.6518 8.44071 58.3834C8.41897 58.3413 8.40914 58.2937 8.41232 58.2461C8.41551 58.1985 8.43159 58.1528 8.45874 58.1141L10.065 55.84C9.26253 54.2566 8.59247 52.6061 8.06209 50.9063C5.99194 44.3129 5.97883 37.1724 8.02603 30.7978C8.03763 30.758 8.05869 30.7218 8.0873 30.6924C8.11591 30.6631 8.15118 30.6414 8.18994 30.6295L10.365 29.9932C11.5779 26.4432 13.6677 22.8949 16.7475 19.1496V12.9214C16.7475 12.8545 16.7734 12.7902 16.8195 12.7429C16.8656 12.6955 16.9282 12.6689 16.9934 12.6689C17.0586 12.6689 17.1211 12.6955 17.1672 12.7429C17.2133 12.7902 17.2392 12.8545 17.2392 12.9214V19.2489C17.2407 19.3103 17.2203 19.3701 17.1819 19.4172C14.0676 23.1827 11.9811 26.7411 10.7895 30.2929C10.7778 30.3326 10.7567 30.3687 10.7281 30.3981C10.6995 30.4275 10.6643 30.4491 10.6256 30.4612L8.45546 31.079C6.48858 37.3189 6.50825 44.2977 8.5325 50.7464C9.07002 52.4686 9.75339 54.1392 10.5748 55.739C10.5962 55.7806 10.6059 55.8276 10.6027 55.8746C10.5995 55.9216 10.5836 55.9667 10.5568 56.0049L8.95046 58.2774C9.54225 59.3916 10.1889 60.4743 10.8878 61.521L15.6952 56.584C15.7418 56.5394 15.8035 56.5151 15.8672 56.5163C15.9309 56.5174 15.9916 56.5439 16.0367 56.5902C16.0817 56.6364 16.1075 56.6988 16.1087 56.7643C16.1098 56.8297 16.0861 56.893 16.0427 56.9408L11.0272 62.0917C10.9817 62.1406 10.9192 62.169 10.8534 62.1708Z" fill="white"/>
        <path d="M35.2539 16.1866V18.4876L39.1549 14.4814H36.9143L35.2539 16.1866Z" fill="white"/>
        <path d="M35.2539 14.4814V16.1866L36.9143 14.4814H35.2539Z" fill="white"/>
        <path d="M35.2539 20.7887V23.088L43.6345 14.4814H41.3955L35.2539 20.7887Z" fill="white"/>
        <path d="M36.0859 24.5374H38.3265L45.0467 17.6377V15.335L36.0859 24.5374Z" fill="white"/>
        <path d="M40.5645 24.5374H42.8034L45.044 22.2381V19.937L40.5645 24.5374Z" fill="white"/>
        <path d="M70.1437 60.8248C70.1107 60.8247 70.078 60.8177 70.0476 60.8045C70.0172 60.7912 69.9897 60.7717 69.9667 60.7473L66.4214 56.9297C66.3784 56.8809 66.3557 56.8168 66.358 56.751C66.3604 56.6852 66.3876 56.623 66.434 56.5776C66.4804 56.5321 66.5422 56.5071 66.6063 56.5078C66.6704 56.5085 66.7317 56.5348 66.7771 56.5812L70.1044 60.1649C70.5715 59.4041 71.0141 58.6197 71.4255 57.8269L68.5604 53.9553C68.5337 53.9196 68.5169 53.8771 68.5117 53.8324C68.5065 53.7877 68.5131 53.7423 68.5309 53.7011C70.7156 48.6096 71.5658 43.0198 70.9971 37.4866C70.4283 31.9534 68.4605 26.6691 65.2888 22.1582C65.2606 22.1185 65.2444 22.0711 65.2424 22.022C65.2404 21.9728 65.2525 21.9242 65.2774 21.8821L67.6835 17.7278C67.7038 17.6929 67.732 17.6636 67.7656 17.6422C67.7993 17.6208 67.8375 17.608 67.8769 17.6049C67.9166 17.6025 67.9564 17.6098 67.9928 17.6262C68.0293 17.6426 68.0615 17.6676 68.0867 17.6992C68.8243 18.6368 69.5225 19.6215 70.1651 20.6264C70.2009 20.6824 70.2136 20.7508 70.2004 20.8165C70.1872 20.8821 70.1491 20.9397 70.0946 20.9765C70.04 21.0134 69.9734 21.0264 69.9095 21.0129C69.8456 20.9993 69.7895 20.9602 69.7536 20.9042C69.1849 20.0137 68.5702 19.1401 67.9244 18.3001L65.7822 22.0033C68.9494 26.5584 70.9141 31.8781 71.4848 37.4445C72.0556 43.0109 71.213 48.6342 69.039 53.7668L71.9123 57.6518C71.9403 57.69 71.9572 57.7356 71.961 57.7833C71.9648 57.831 71.9553 57.8788 71.9336 57.9211C71.4419 58.8705 70.9141 59.8081 70.3519 60.7103C70.3317 60.7424 70.3047 60.7694 70.2729 60.7892C70.2411 60.8091 70.2054 60.8212 70.1683 60.8248H70.1437Z" fill="white"/>
        <path d="M25.9286 6.92439L24.1797 10.2472L25.9286 12.2267C30.3233 9.92591 35.1853 8.72419 40.1181 8.71951C45.051 8.71483 49.9151 9.90733 54.314 12.1998L56.0661 10.4862L54.3074 7.15837C45.4253 3.11177 34.8976 2.86769 25.9286 6.92439Z" fill="white"/>
        <path d="M29.0649 15.3568C29.0219 15.3566 28.9807 15.3391 28.9501 15.308L25.7458 12.0155C25.7304 11.9999 25.7182 11.9812 25.7099 11.9607C25.7015 11.9402 25.6973 11.9182 25.6973 11.896C25.6973 11.8738 25.7015 11.8518 25.7099 11.8313C25.7182 11.8108 25.7304 11.7921 25.7458 11.7765C25.7765 11.7451 25.818 11.7275 25.8613 11.7275C25.9046 11.7275 25.9461 11.7451 25.9769 11.7765L29.1878 15.0707C29.2183 15.1022 29.2355 15.1449 29.2355 15.1893C29.2355 15.2338 29.2183 15.2765 29.1878 15.308C29.1717 15.3244 29.1525 15.3373 29.1313 15.3457C29.1102 15.3541 29.0875 15.3579 29.0649 15.3568Z" fill="white"/>
        <path d="M51.1582 15.3824C51.1366 15.3825 51.1152 15.3782 51.0953 15.3699C51.0753 15.3615 51.0571 15.3491 51.0418 15.3335C51.0113 15.302 50.9941 15.2593 50.9941 15.2149C50.9941 15.1704 51.0113 15.1277 51.0418 15.0962L54.1987 11.8525C54.2139 11.8367 54.232 11.8242 54.252 11.8157C54.272 11.8071 54.2934 11.8027 54.315 11.8027C54.3367 11.8027 54.3581 11.8071 54.3781 11.8157C54.398 11.8242 54.4162 11.8367 54.4314 11.8525C54.4619 11.8841 54.4791 11.9267 54.4791 11.9712C54.4791 12.0157 54.4619 12.0583 54.4314 12.0899L51.2729 15.3335C51.2424 15.3646 51.2012 15.3822 51.1582 15.3824Z" fill="white"/>
        <path d="M43.8598 57.2773L40.0801 61.159L53.4073 74.844L53.509 74.9686C55.3693 74.1404 58.4622 72.2753 58.4622 72.2753L43.8598 57.2773Z" fill="white"/>
    </g>
    <g filter="url(#filter2_d_532_3322)">
        <path d="M38.1716 38.2642L30.3418 46.3052H33.2397L39.5976 39.7757C39.1583 39.2354 38.5273 38.8887 38.1716 38.2642Z" fill="#FF0049"/>
        <path d="M61.4501 14.3569L38.8965 37.5188C39.3882 38.0238 40.1536 38.2881 40.3864 38.9648L61.4501 17.333V14.3569Z" fill="#FF0049"/>
        <path d="M39.7947 40.5317L33.5564 46.9383H29.7177L28.0508 48.6519L31.0863 51.7693L41.0388 41.5636C40.6028 41.2438 40.0914 40.9559 39.7947 40.5317Z" fill="#FF0049"/>
        <path d="M40.7949 39.5042C41.2096 39.7937 41.5063 40.2768 41.9505 40.6286L61.4554 20.6296V18.2915L40.7949 39.5042Z" fill="#FF0049"/>
        <path d="M31.5351 55.8993C31.4699 55.8993 31.4074 55.8726 31.3613 55.8253L23.1889 47.4325C23.1556 47.399 23.1322 47.3565 23.1216 47.3099C23.111 47.2633 23.1136 47.2146 23.1292 47.1694C23.1447 47.1243 23.1724 47.0847 23.2092 47.0552C23.2459 47.0258 23.2901 47.0077 23.3364 47.0032L25.4181 46.7844C25.4543 46.78 25.4911 46.7843 25.5255 46.7968C25.5599 46.8094 25.591 46.8299 25.6164 46.8568L33.556 55.0089C33.5868 55.0408 33.6087 55.0805 33.6197 55.124C33.6306 55.1674 33.6301 55.2131 33.6183 55.2563C33.6072 55.2987 33.5854 55.3373 33.5552 55.3683C33.525 55.3993 33.4875 55.4216 33.4462 55.4331L31.599 55.8926C31.5779 55.8968 31.5565 55.899 31.5351 55.8993ZM23.9019 47.451L31.6055 55.3624L32.8939 55.0426L25.3541 47.2995L23.9019 47.451Z" fill="#FF0049"/>
        <path d="M4.85708 47.4463C4.80048 47.446 4.74569 47.4258 4.70185 47.389C4.658 47.3523 4.62775 47.3012 4.61613 47.2443C3.09508 39.7032 4.42108 31.0242 8.25323 23.4326C8.26778 23.4034 8.28783 23.3774 8.31222 23.3561C8.3366 23.3348 8.36484 23.3187 8.39531 23.3087C8.42578 23.2987 8.45787 23.295 8.48975 23.2978C8.52162 23.3005 8.55265 23.3098 8.58104 23.3249C8.63795 23.3558 8.68081 23.4083 8.70042 23.4712C8.72003 23.5342 8.71483 23.6025 8.68594 23.6616C4.90461 31.1522 3.59663 39.7099 5.09474 47.1382C5.10145 47.1706 5.10184 47.2041 5.0959 47.2366C5.08996 47.2692 5.0778 47.3002 5.06013 47.3279C5.04245 47.3556 5.01961 47.3794 4.99291 47.398C4.96622 47.4166 4.93621 47.4296 4.90461 47.4362C4.88928 47.4417 4.87329 47.4451 4.85708 47.4463Z" fill="#FF0049"/>
        <path d="M35.4319 71.1671C35.3995 71.1676 35.3674 71.1612 35.3376 71.1485C35.3077 71.1358 35.2807 71.1169 35.2581 71.0931C35.2351 71.0697 35.2169 71.0419 35.2044 71.0113C35.192 70.9807 35.1855 70.9478 35.1855 70.9146C35.1855 70.8814 35.192 70.8486 35.2044 70.8179C35.2169 70.7873 35.2351 70.7595 35.2581 70.7362L39.9262 65.9422C39.9723 65.8949 40.0348 65.8682 40.0999 65.8682C40.1651 65.8686 40.2274 65.8952 40.2737 65.9422L41.8849 67.5969C41.9305 67.6445 41.9561 67.7085 41.9561 67.7753C41.9561 67.8421 41.9305 67.9062 41.8849 67.9537C41.8622 67.9774 41.8351 67.9961 41.8053 68.0089C41.7755 68.0217 41.7435 68.0283 41.7112 68.0283C41.6788 68.0283 41.6468 68.0217 41.617 68.0089C41.5872 67.9961 41.5601 67.9774 41.5374 67.9537L40.0999 66.4792L35.6056 71.0931C35.583 71.1167 35.5559 71.1355 35.5261 71.1482C35.4962 71.1609 35.4642 71.1674 35.4319 71.1671Z" fill="#FF0049"/>
        <path d="M41.3582 75.9992C37.6571 75.9992 34.1463 75.9874 30.7632 75.9622C30.7453 75.9648 30.7271 75.9648 30.7091 75.9622H30.637C30.6138 75.9468 30.5932 75.9274 30.5764 75.9049C30.5643 75.8884 30.5543 75.8703 30.5469 75.851V75.8359C30.5346 75.7922 30.5339 75.7459 30.5448 75.7018C30.5558 75.6577 30.578 75.6174 30.6091 75.5851L32.7006 73.4389C32.7233 73.4153 32.7504 73.3965 32.7802 73.3837C32.81 73.371 32.842 73.3644 32.8743 73.3644C32.9067 73.3644 32.9387 73.371 32.9685 73.3837C32.9983 73.3965 33.0254 73.4153 33.0481 73.4389C33.0937 73.4865 33.1193 73.5506 33.1193 73.6173C33.1193 73.6841 33.0937 73.7482 33.0481 73.7958L31.3729 75.5161C36.7917 75.5531 42.5317 75.5582 48.8798 75.5329C46.8244 73.4271 44.7232 71.2692 42.6268 69.1095C42.5738 69.0651 42.5401 69.0009 42.5332 68.9309C42.5262 68.861 42.5467 68.7911 42.5899 68.7367C42.6332 68.6822 42.6957 68.6476 42.7638 68.6405C42.8319 68.6334 42.8999 68.6544 42.953 68.6988C45.1903 71.0049 47.4358 73.311 49.624 75.5497C49.6588 75.5849 49.6826 75.6298 49.6925 75.6789C49.7023 75.728 49.6977 75.779 49.6793 75.8254C49.6608 75.8717 49.6293 75.9114 49.5888 75.9394C49.5484 75.9674 49.5007 75.9823 49.4519 75.9823C46.6458 75.9941 43.9544 75.9992 41.3582 75.9992Z" fill="#FF0049"/>
        <path d="M34.674 75.9092C34.641 75.9089 34.6084 75.9019 34.578 75.8886C34.5476 75.8753 34.5201 75.856 34.497 75.8318C34.4514 75.7842 34.4258 75.7201 34.4258 75.6533C34.4258 75.5866 34.4514 75.5225 34.497 75.4749L37.0474 72.95L35.2444 71.0984C35.1988 71.0508 35.1732 70.9867 35.1732 70.92C35.1732 70.8532 35.1988 70.7891 35.2444 70.7415C35.2671 70.7179 35.2942 70.6992 35.324 70.6864C35.3538 70.6736 35.3858 70.667 35.4182 70.667C35.4505 70.667 35.4825 70.6736 35.5123 70.6864C35.5421 70.6992 35.5692 70.7179 35.5919 70.7415L37.5735 72.7766C37.5968 72.8001 37.6153 72.8282 37.628 72.8591C37.6406 72.89 37.6471 72.9232 37.6471 72.9567C37.6471 72.9903 37.6406 73.0235 37.628 73.0544C37.6153 73.0853 37.5968 73.1133 37.5735 73.1368L34.8429 75.8301C34.799 75.8784 34.7383 75.9069 34.674 75.9092Z" fill="#FF0049"/>
        <path d="M43.9817 74.1429C43.9167 74.1423 43.8544 74.1158 43.808 74.0689L40.7692 70.9464C40.7231 70.8991 40.6973 70.8349 40.6973 70.768C40.6973 70.7011 40.7231 70.6369 40.7692 70.5896L42.6115 68.6975C42.634 68.6727 42.6611 68.6528 42.6913 68.639C42.7214 68.6252 42.754 68.6178 42.787 68.6172C42.82 68.6166 42.8528 68.6229 42.8834 68.6356C42.914 68.6483 42.9419 68.6672 42.9652 68.6911C42.9886 68.7151 43.007 68.7437 43.0193 68.7751C43.0317 68.8066 43.0378 68.8402 43.0372 68.8741C43.0366 68.908 43.0294 68.9415 43.0159 68.9724C43.0025 69.0034 42.9831 69.0313 42.959 69.0544L41.2904 70.768L44.1571 73.712C44.2028 73.7596 44.2284 73.8237 44.2284 73.8905C44.2284 73.9572 44.2028 74.0213 44.1571 74.0689C44.1104 74.1162 44.0474 74.1428 43.9817 74.1429Z" fill="#FF0049"/>
    </g>

</svg>
