<svg width="45" height="52" viewBox="0 0 45 52" fill="none"
    xmlns="http://www.w3.org/2000/svg">
    <defs>
        <clipPath id="clip0_622_148">
            <rect width="42.2" height="36.84" fill="white" transform="translate(1.40039)"/>
        </clipPath>
    </defs>
    <g clip-path="url(#clip0_622_148)">
        <path d="M8.31082 36.4599C4.18082 32.6399 1.59082 27.1699 1.59082 21.0999C1.59082 9.54994 10.9508 0.189941 22.5008 0.189941C34.0508 0.189941 43.4108 9.54994 43.4108 21.0999C43.4108 27.0999 40.8808 32.5199 36.8308 36.3299" stroke="#00FFFF" stroke-width="0.38"/>
        <path d="M4.4707 10.49L7.2807 12.27C7.2807 12.27 10.3307 6.49998 16.3107 4.97998L17.9407 7.36998" stroke="#00FFFF" stroke-width="0.38"/>
        <path d="M27.3703 0.76001L26.7803 3.48001C26.7803 3.48001 37.0303 6.19001 39.6203 16.09L42.5003 14.95" stroke="#FF005C" stroke-width="0.38"/>
        <path d="M31.8008 13.34L33.9808 11.64C31.9908 8.79998 28.5908 7.18998 28.5908 7.18998L30.0008 4.72998" stroke="#FF005C" stroke-width="0.38"/>
        <path d="M1.91992 18.26H5.29992" stroke="#FF005C" stroke-width="0.38"/>
        <path d="M1.66992 19.8H5.29992" stroke="#FF005C" stroke-width="0.38"/>
        <path d="M1.66992 21.3301H5.29992" stroke="#FF005C" stroke-width="0.38"/>
        <path d="M1.66992 22.8601H5.29992" stroke="#FF005C" stroke-width="0.38"/>
        <path d="M1.83984 24.3999H5.29984" stroke="#FF005C" stroke-width="0.38"/>
        <path d="M22.7708 5.37012C22.9708 5.43012 23.1908 5.47012 23.3808 5.56012C24.1808 5.95012 24.6107 6.60012 24.6207 7.50012C24.6308 8.84012 24.6207 10.1901 24.6207 11.5301V11.7401C24.7007 11.7401 24.7508 11.7401 24.8108 11.7401C25.4508 11.7401 26.0808 11.7401 26.7208 11.7401C27.2908 11.7401 27.7408 12.0001 28.0008 12.5101C28.2708 13.0301 28.2208 13.5401 27.8708 14.0101C26.4708 15.8901 25.0608 17.7701 23.6408 19.6501C23.0508 20.4401 21.9508 20.4401 21.3508 19.6501C19.9408 17.7801 18.5308 15.9001 17.1208 14.0101C16.7708 13.5401 16.7208 13.0301 16.9908 12.5101C17.2508 12.0001 17.6908 11.7401 18.2708 11.7401C18.9108 11.7401 19.5408 11.7401 20.1808 11.7401C20.2408 11.7401 20.3008 11.7401 20.3707 11.7401C20.3707 11.6601 20.3707 11.6101 20.3707 11.5501C20.3707 10.2401 20.3907 8.93012 20.3707 7.62012C20.3507 6.36012 21.2708 5.51012 22.1908 5.40012C22.2008 5.40012 22.2208 5.38012 22.2308 5.38012C22.4108 5.38012 22.5808 5.38012 22.7608 5.38012L22.7708 5.37012Z" fill="#00FFFF"/>
        <path d="M37.3706 25.2C37.3706 27.3 37.3706 26.92 37.3706 29.02C37.3706 29.41 37.2106 29.66 36.8606 29.83C32.2606 32.11 27.6606 34.39 23.0706 36.69C22.6806 36.89 22.3406 36.89 21.9506 36.69C17.3606 34.4 12.7606 32.11 8.16063 29.83C7.80063 29.65 7.64062 29.4 7.64062 28.99C7.64062 24.87 7.64062 23.22 7.64062 19.1C7.64062 18.46 7.87063 18.13 8.47063 17.9C10.4406 17.16 12.4206 16.42 14.3906 15.67C14.9606 15.46 15.5706 15.72 15.7806 16.28C15.9906 16.84 15.7106 17.44 15.1406 17.66C14.1206 18.04 13.1006 18.42 12.0906 18.8C12.0106 18.83 11.9206 18.87 11.8606 18.93C11.6706 19.11 11.7506 19.4 12.0206 19.51C12.5706 19.73 13.1306 19.95 13.6806 20.17C16.5406 21.32 19.4106 22.46 22.2706 23.61C22.4306 23.67 22.5706 23.67 22.7306 23.61C26.1106 22.25 29.4906 20.9 32.8706 19.55C32.9806 19.5 33.1106 19.41 33.1606 19.31C33.2706 19.12 33.1506 18.92 32.9206 18.83C32.2006 18.55 31.4806 18.27 30.7606 18C30.4806 17.89 30.1906 17.79 29.9106 17.67C29.4206 17.47 29.1606 17.01 29.2406 16.5C29.3106 16.03 29.7106 15.66 30.2106 15.63C30.3606 15.62 30.5306 15.65 30.6806 15.7C32.6606 16.46 34.6506 17.22 36.6306 17.99C36.7806 18.05 36.9206 18.13 37.0506 18.22C37.2706 18.38 37.3706 18.59 37.3706 18.87C37.3706 20.9801 37.3706 23.08 37.3706 25.19V25.2Z" fill="#00FFFF"/>
        <path d="M43.3708 22.4199H41.0908V30.6999" stroke="#00FFFF" stroke-width="0.38"/>
        <path d="M7.15039 20.74L9.24039 24.92L22.3104 30.46L28.7604 27.64L33.4904 32.37" stroke="#0D1238" stroke-width="0.94"/>
        <path d="M37.8006 24.0499L33.3806 26L30.5806 23.2L22.6406 26.59V23.2" stroke="#0D1238" stroke-width="0.94"/>
        <path d="M10.6309 31.6999V28.3999L15.5609 30.7999V34.1599" stroke="#0D1238" stroke-width="0.94"/>
    </g>
    <path d="M8.0994 49H6.9114V47.11C6.9114 46.966 6.8724 46.849 6.7944 46.759C6.7224 46.669 6.5994 46.624 6.4254 46.624H5.0574V49H3.8694V42.7H6.2814C6.6054 42.7 6.8904 42.745 7.1364 42.835C7.3824 42.925 7.5864 43.051 7.7484 43.213C7.9164 43.369 8.0424 43.552 8.1264 43.762C8.2164 43.972 8.2614 44.197 8.2614 44.437V44.653C8.2614 44.911 8.1924 45.154 8.0544 45.382C7.9164 45.604 7.7034 45.775 7.4154 45.895V46.057C7.6254 46.081 7.7904 46.162 7.9104 46.3C8.0364 46.438 8.0994 46.612 8.0994 46.822V49ZM5.0574 45.49H6.1914C6.4794 45.49 6.6984 45.424 6.8484 45.292C6.9984 45.154 7.0734 44.962 7.0734 44.716V44.608C7.0734 44.398 6.9984 44.218 6.8484 44.068C6.6984 43.912 6.4794 43.834 6.1914 43.834H5.0574V45.49ZM9.46114 42.7H13.4391V43.834H10.6491V45.274H13.3311V46.408H10.6491V47.866H13.5471V49H9.46114V42.7ZM17.0059 48.046C17.2339 48.046 17.4199 48.013 17.5639 47.947C17.7139 47.875 17.8279 47.782 17.9059 47.668C17.9899 47.548 18.0469 47.413 18.0769 47.263C18.1069 47.107 18.1219 46.948 18.1219 46.786V46.624H19.3099V46.786C19.3099 47.536 19.1119 48.115 18.7159 48.523C18.3259 48.925 17.7559 49.126 17.0059 49.126C16.2859 49.126 15.7159 48.907 15.2959 48.469C14.8759 48.031 14.6659 47.392 14.6659 46.552V45.148C14.6659 44.746 14.7199 44.386 14.8279 44.068C14.9359 43.744 15.0919 43.474 15.2959 43.258C15.4999 43.036 15.7459 42.868 16.0339 42.754C16.3219 42.634 16.6459 42.574 17.0059 42.574C17.3779 42.574 17.7079 42.628 17.9959 42.736C18.2839 42.844 18.5239 43 18.7159 43.204C18.9139 43.408 19.0609 43.654 19.1569 43.942C19.2589 44.23 19.3099 44.554 19.3099 44.914V45.076H18.1219V44.914C18.1219 44.764 18.1039 44.614 18.0679 44.464C18.0319 44.314 17.9719 44.179 17.8879 44.059C17.8039 43.939 17.6899 43.843 17.5459 43.771C17.4019 43.693 17.2219 43.654 17.0059 43.654C16.8079 43.654 16.6369 43.693 16.4929 43.771C16.3489 43.843 16.2289 43.945 16.1329 44.077C16.0369 44.203 15.9649 44.353 15.9169 44.527C15.8749 44.695 15.8539 44.872 15.8539 45.058V46.642C15.8539 46.846 15.8749 47.035 15.9169 47.209C15.9589 47.377 16.0249 47.524 16.1149 47.65C16.2049 47.776 16.3219 47.875 16.4659 47.947C16.6159 48.013 16.7959 48.046 17.0059 48.046ZM20.4826 42.7H24.4606V43.834H21.6706V45.274H24.3526V46.408H21.6706V47.866H24.5686V49H20.4826V42.7ZM25.9034 42.7H30.1154V43.834H28.6034V47.866H30.1154V49H25.9034V47.866H27.4154V43.834H25.9034V42.7ZM30.9821 42.7H32.2061L33.4391 48.406H33.6011L34.8341 42.7H36.0581L34.6361 49H32.4041L30.9821 42.7ZM37.0149 42.7H40.9929V43.834H38.2029V45.274H40.8849V46.408H38.2029V47.866H41.1009V49H37.0149V42.7Z" fill="#00FFFF"/>
</svg>
