<svg width="21" height="27" viewBox="0 0 21 27" fill="none"
    xmlns="http://www.w3.org/2000/svg">
    <path d="M7.0606 4.0303L10.8485 1M7.0606 4.0303L10.8485 7.06061M7.0606 4.0303H10.4697C11.7537 4.0303 12.978 4.28585 14.0946 4.74886C15.252 5.22882 16.2936 5.93169 17.1658 6.80394C18.038 7.67614 18.7409 8.7177 19.2208 9.87506C19.6838 10.9916 19.9394 12.216 19.9394 13.5C19.9394 14.784 19.6838 16.0084 19.2208 17.1249M13.8788 22.9697L10.0909 26M13.8788 22.9697L10.0909 19.9394M13.8788 22.9697H10.4697C9.18571 22.9697 7.96141 22.7142 6.84488 22.2512C5.68747 21.7712 4.64587 21.0683 3.77363 20.1961C2.90136 19.3238 2.19846 18.2822 1.71851 17.1247C1.25553 16.0082 1 14.784 1 13.5C1 12.216 1.25553 10.9917 1.71852 9.87523" stroke="#00FFFF" stroke-width="1.5" stroke-linecap="round" stroke-linejoin="round"/>
</svg>
