<svg width="44" height="44" viewBox="0 0 44 44" fill="none"
    xmlns="http://www.w3.org/2000/svg">
    <path d="M22.0548 41.0081C32.5224 41.0081 41.0081 32.5224 41.0081 22.0548C41.0081 11.5872 32.5224 3.10156 22.0548 3.10156C11.5872 3.10156 3.10156 11.5872 3.10156 22.0548C3.10156 32.5224 11.5872 41.0081 22.0548 41.0081Z" stroke="#00FFFF" stroke-miterlimit="10"/>
    <path d="M22.0547 43.1094C33.6829 43.1094 43.1094 33.6829 43.1094 22.0547C43.1094 10.4265 33.6829 1 22.0547 1C10.4265 1 1 10.4265 1 22.0547C1 33.6829 10.4265 43.1094 22.0547 43.1094Z" stroke="#00FFFF" stroke-miterlimit="10"/>
    <path d="M26.2848 17.825H17.8252V26.2845H26.2848V17.825Z" stroke="#00FFFF" stroke-miterlimit="10"/>
    <path d="M21.8799 28.1299L16.4512 32.1711L17.0843 33.0197L21.8799 29.4635L26.7697 33.1679L27.4163 32.3193L21.8799 28.1299Z" fill="#00FFFF"/>
    <path d="M22.4048 34.6904H24.6544V33.6397H22.4048V32.5351H23.469V31.4709H20.2899V32.5351H21.3541V33.6397H19.118V34.6904H21.3541V37.6809H18.2559V38.7451H25.5166V37.6809H22.4048V34.6904Z" fill="#00FFFF"/>
    <path d="M19.4943 35.167L18.7871 35.9622L20.3271 37.3319L21.0344 36.5367L19.4943 35.167Z" fill="#00FFFF"/>
    <path d="M24.1719 35.1718L22.6318 36.5415L23.3391 37.3367L24.8791 35.967L24.1719 35.1718Z" fill="#00FFFF"/>
    <path d="M13.0155 26.2571L11.2374 23.7247H8.93387V26.2571H7.31738V17.5551H10.9006C11.5785 17.5407 12.2522 17.6645 12.8808 17.9188C13.4228 18.1432 13.8899 18.5169 14.2278 18.9964C14.5318 19.4947 14.6861 20.0698 14.6724 20.6533C14.6737 21.2614 14.4853 21.8547 14.1336 22.3506C13.7988 22.8299 13.3303 23.2001 12.7865 23.4148L14.7667 26.2571H13.0155ZM12.4362 19.3601C11.9686 19.0327 11.4027 18.8758 10.8332 18.9156H8.93387V22.3911H10.8332C11.4043 22.4269 11.9703 22.2652 12.4362 21.933C12.6272 21.7674 12.7767 21.5592 12.8726 21.3252C12.9686 21.0913 13.0083 20.8381 12.9885 20.586C12.9915 20.3557 12.9436 20.1276 12.8481 19.918C12.7526 19.7084 12.612 19.5225 12.4362 19.3736V19.3601Z" fill="#00FFFF"/>
    <path d="M23.0388 12.019V15.1038H21.4089V12.0459L17.9873 6.37476H19.725L22.2171 10.618L24.9112 6.37476H26.5008L23.0388 12.019Z" fill="#00FFFF"/>
    <path d="M31.4703 25.8266C30.7668 25.4484 30.181 24.8838 29.7771 24.1947C29.3732 23.5057 29.1667 22.7187 29.1803 21.9201C29.1698 21.1115 29.3793 20.3153 29.7865 19.6166C30.1927 18.9366 30.7743 18.3783 31.4703 18.0001C32.2143 17.6118 33.0424 17.4129 33.8816 17.4209C34.7164 17.4129 35.5403 17.6119 36.2794 18.0001C36.9857 18.3808 37.5759 18.9456 37.9872 19.6345C38.3986 20.3235 38.6158 21.1109 38.6158 21.9134C38.6158 22.7158 38.3986 23.5032 37.9872 24.1922C37.5759 24.8812 36.9857 25.4459 36.2794 25.8266C35.5403 26.2149 34.7164 26.4139 33.8816 26.4058C33.0424 26.4139 32.2143 26.2149 31.4703 25.8266ZM35.4442 24.5873C35.9057 24.332 36.2879 23.9545 36.5488 23.4962C36.8162 23.0146 36.951 22.4708 36.9394 21.9201C36.9543 21.3691 36.8193 20.8243 36.5488 20.344C36.2887 19.8816 35.9066 19.4995 35.4442 19.2394C34.9657 18.9767 34.4274 18.8421 33.8816 18.8488C33.3317 18.844 32.7895 18.9784 32.3055 19.2394C31.8501 19.5041 31.4735 19.8854 31.2144 20.344C30.9392 20.823 30.7995 21.3678 30.8103 21.9201C30.8035 22.4719 30.9429 23.0157 31.2144 23.4962C31.4738 23.951 31.8506 24.3279 32.3055 24.5873C32.7895 24.8484 33.3317 24.9827 33.8816 24.9779C34.4274 24.9846 34.9657 24.8501 35.4442 24.5873Z" fill="#00FFFF"/>
    <path d="M7.62695 25.3684V15.1307L12.0319 10.7258V6.37476" stroke="#00FFFF" stroke-miterlimit="10"/>
    <path d="M30.8105 38.7448V32.1307L33.8819 28.8708V24.9778" stroke="#00FFFF" stroke-miterlimit="10"/>
</svg>
