<svg width="45" height="52" viewBox="0 0 45 52" fill="none"
    xmlns="http://www.w3.org/2000/svg">
    <defs>
        <clipPath id="clip0_622_189">
            <rect width="42.2" height="36.56" fill="white" transform="translate(1.40039)"/>
        </clipPath>
    </defs>
    <g clip-path="url(#clip0_622_189)">
        <path d="M2.95996 28.54L6.07996 27.37C6.07996 27.37 3.30996 21.46 5.69996 15.77L8.58996 15.91" stroke="#FF005C" stroke-width="0.38"/>
        <path d="M12.54 2.69995L13.93 5.10995C13.93 5.10995 23.34 0.229951 31.91 5.80995L33.55 3.51995" stroke="#00FFFF" stroke-width="0.38"/>
        <path d="M36.8009 15.24L39.3609 14.19C38.2209 10.92 35.3809 8.43996 35.3809 8.43996L37.4109 6.45996" stroke="#FF005C" stroke-width="0.38"/>
        <path d="M43.1302 24.6199H39.7402" stroke="#00FFFF" stroke-width="0.38"/>
        <path d="M43.3702 23.0901H39.7402" stroke="#00FFFF" stroke-width="0.38"/>
        <path d="M43.3702 21.55H39.7402" stroke="#00FFFF" stroke-width="0.38"/>
        <path d="M43.3702 20.02H39.7402" stroke="#00FFFF" stroke-width="0.38"/>
        <path d="M43.2002 18.49H39.7402" stroke="#00FFFF" stroke-width="0.38"/>
        <path d="M37.37 19.96C37.23 19.4 36.96 19.01 36.41 18.82C35.5 18.5 34.58 18.19 33.68 17.86C33.58 17.83 33.49 17.73 33.44 17.64C33.09 17.1 33.2 16.66 33.62 16.16C34.23 15.44 34.72 14.62 35.08 13.74C35.26 13.32 35.15 12.92 34.99 12.54C34.59 11.59 33.92 10.83 33.11 10.21C32.11 9.45 31.84 9.40999 30.7 9.89999C29.97 10.22 29.25 10.58 28.53 10.93C28.4 11 28.29 11.02 28.15 10.93C27.81 10.75 27.45 10.6 27.11 10.41C27.01 10.36 26.93 10.23 26.9 10.12C26.83 9.86 26.8 9.58 26.73 9.31C26.53 8.54 26.32 7.78 26.1 7.02C26.03 6.79 25.88 6.61 25.66 6.51C24.16 5.81 22.64 5.68 21.06 6.22C20.73 6.33 20.51 6.53 20.4 6.86C20.06 7.83 19.72 8.8 19.39 9.77C19.34 9.91 19.27 10 19.12 10.04C18.81 10.13 18.5 10.24 18.19 10.36C18.04 10.42 17.94 10.39 17.81 10.31C16.99 9.79 16.16 9.27 15.33 8.77C14.95 8.54 14.55 8.50999 14.12 8.69C12.83 9.22 11.85 10.09 11.1 11.26C10.83 11.68 10.78 12.13 10.94 12.59C11.04 12.87 11.13 13.14 11.26 13.41C11.55 14.04 11.86 14.67 12.17 15.3C12.25 15.45 12.26 15.58 12.18 15.73C12 16.11 11.81 16.49 11.65 16.88C11.57 17.06 11.46 17.13 11.27 17.16C10.28 17.3 9.32997 17.57 8.39997 17.92C8.17997 18 8.03997 18.14 7.93997 18.35C7.31997 19.71 7.16997 21.1 7.54997 22.56C7.70997 23.18 8.03997 23.55 8.64997 23.73C9.46996 23.98 10.29 24.27 11.1 24.57C11.21 24.61 11.31 24.73 11.36 24.84C11.49 25.12 11.56 25.43 11.69 25.71C11.77 25.88 11.75 26 11.65 26.15C11.17 26.86 10.69 27.58 10.24 28.31C9.95997 28.75 9.93997 29.2 10.15 29.71C10.66 30.93 11.47 31.86 12.58 32.54C13.39 33.04 13.43 33.06 14.31 32.69C15.14 32.34 15.95 31.93 16.78 31.55C16.89 31.5 17.05 31.5 17.16 31.55C17.56 31.72 17.93 31.93 18.33 32.1C18.49 32.17 18.55 32.28 18.59 32.44C18.79 33.28 19 34.11 19.21 34.95C19.35 35.5 19.65 35.83 20.26 36.02C21.52 36.42 22.75 36.48 24.03 36.19C24.53 36.08 24.87 35.82 25.05 35.34C25.33 34.57 25.65 33.81 25.86 33.02C26.02 32.42 26.31 32.05 26.91 31.93C27.06 31.9 27.15 31.9 27.28 31.99C27.98 32.47 28.71 32.92 29.41 33.4C30.01 33.81 30.61 33.75 31.22 33.45C32.22 32.96 32.99 32.21 33.66 31.34C34.14 30.72 34.22 30.11 33.87 29.42C33.49 28.66 33.13 27.88 32.75 27.12C32.67 26.95 32.66 26.83 32.75 26.67C32.93 26.32 33.1 25.96 33.26 25.6C33.33 25.45 33.42 25.36 33.6 25.33C33.95 25.27 34.3 25.2 34.63 25.1C35.35 24.88 36.06 24.65 36.77 24.41C36.85 24.38 36.95 24.3 36.98 24.22C37.51 22.84 37.74 21.44 37.37 19.97V19.96ZM20.61 27.13C17.28 26.09 15.42 22.54 16.47 19.22C17.52 15.9 21.06 14.04 24.39 15.08C27.72 16.12 29.57 19.67 28.53 22.99C27.49 26.31 23.94 28.17 20.61 27.13Z" fill="#00FFFF"/>
        <path d="M19.8603 29.5901C15.1503 28.1101 12.5203 23.1001 14.0003 18.3901C15.4803 13.6801 20.4903 11.0601 25.2003 12.5401C29.9103 14.0201 32.5303 19.0301 31.0603 23.7401C29.5903 28.4501 24.5703 31.0701 19.8603 29.5901Z" stroke="#0D1238" stroke-width="1.33"/>
        <path d="M20.9502 9.53005L21.6802 7.51005C21.6802 7.51005 23.3102 7.05005 24.5302 7.47005" stroke="#0D1238" stroke-width="1.12" stroke-linecap="round" stroke-linejoin="round"/>
        <path d="M29.7705 11.78L31.7805 11.01C31.7805 11.01 33.1905 11.94 33.6705 13.15" stroke="#0D1238" stroke-width="1.12" stroke-linecap="round" stroke-linejoin="round"/>
        <path d="M33.9707 19.5L36.0507 20.28C36.0507 20.28 36.3807 21.94 35.8607 23.12" stroke="#0D1238" stroke-width="1.12" stroke-linecap="round" stroke-linejoin="round"/>
        <path d="M13.2 14.1299L12.21 12.1399C12.21 12.1399 13.1 10.6999 14.29 10.1899" stroke="#0D1238" stroke-width="1.12" stroke-linecap="round" stroke-linejoin="round"/>
        <path d="M20.6706 34.7201L20.3506 32.3401C20.3506 32.3401 22.4306 32.9301 24.5406 32.3901" stroke="#0D1238" stroke-width="1.12" stroke-linecap="round" stroke-linejoin="round"/>
        <path d="M30.2405 32.4101L28.4805 30.7701C28.4805 30.7701 29.9605 30.1201 31.1905 28.8101" stroke="#0D1238" stroke-width="1.12" stroke-linecap="round" stroke-linejoin="round"/>
        <path d="M8.91016 19.1899L11.2902 18.8999C11.2902 18.8999 10.6702 20.9699 11.1902 23.0899" stroke="#0D1238" stroke-width="1.12" stroke-linecap="round" stroke-linejoin="round"/>
        <path d="M11.3701 29.17L12.8801 27.3C12.8801 27.3 13.8901 29.2101 15.7301 30.3701" stroke="#0D1238" stroke-width="1.12" stroke-linecap="round" stroke-linejoin="round"/>
        <path d="M4.77051 10.01L7.45051 11.71C7.45051 11.71 8.77051 9.25999 10.4305 7.73999" stroke="#FF005C" stroke-width="0.38"/>
        <path d="M40.5605 31.65L37.5905 30.29L35.8105 32.61" stroke="#FF005C" stroke-width="0.38"/>
        <path d="M4.59039 19.5601H1.65039" stroke="#FF005C" stroke-width="0.38"/>
        <path d="M4.64078 20.98H1.55078" stroke="#FF005C" stroke-width="0.38"/>
        <path d="M4.64078 22.3701H1.55078" stroke="#FF005C" stroke-width="0.38"/>
        <path d="M8.27082 36.4199C4.16082 32.6099 1.59082 27.1499 1.59082 21.0999C1.59082 9.54994 10.9508 0.189941 22.5008 0.189941C34.0508 0.189941 43.4108 9.54994 43.4108 21.0999C43.4108 27.1199 40.8708 32.5399 36.8008 36.3499" stroke="#00FFFF" stroke-width="0.38"/>
    </g>
    <path d="M4.29103 44.626C4.29103 44.374 4.19203 44.155 3.99403 43.969C3.80203 43.783 3.52903 43.69 3.17503 43.69C2.87503 43.69 2.63803 43.753 2.46403 43.879C2.29003 43.999 2.20303 44.164 2.20303 44.374C2.20303 44.482 2.22403 44.581 2.26603 44.671C2.30803 44.755 2.38003 44.833 2.48203 44.905C2.59003 44.971 2.72803 45.031 2.89603 45.085C3.07003 45.139 3.28903 45.19 3.55303 45.238C4.21303 45.358 4.71703 45.559 5.06503 45.841C5.41303 46.123 5.58703 46.54 5.58703 47.092V47.2C5.58703 47.494 5.53303 47.761 5.42503 48.001C5.32303 48.235 5.17303 48.436 4.97503 48.604C4.77703 48.772 4.53703 48.901 4.25503 48.991C3.97303 49.081 3.65503 49.126 3.30103 49.126C2.88703 49.126 2.52103 49.069 2.20303 48.955C1.89103 48.835 1.63003 48.673 1.42003 48.469C1.21003 48.259 1.05103 48.016 0.943031 47.74C0.835031 47.458 0.781031 47.152 0.781031 46.822V46.552H1.96903V46.768C1.96903 47.146 2.07703 47.449 2.29303 47.677C2.51503 47.899 2.85703 48.01 3.31903 48.01C3.67903 48.01 3.94603 47.932 4.12003 47.776C4.29403 47.62 4.38103 47.434 4.38103 47.218C4.38103 47.116 4.36303 47.02 4.32703 46.93C4.29103 46.834 4.22803 46.75 4.13803 46.678C4.04803 46.6 3.92503 46.531 3.76903 46.471C3.61303 46.411 3.41503 46.36 3.17503 46.318C2.85703 46.264 2.56603 46.195 2.30203 46.111C2.03803 46.021 1.80703 45.904 1.60903 45.76C1.41703 45.616 1.26703 45.436 1.15903 45.22C1.05103 45.004 0.997031 44.74 0.997031 44.428V44.374C0.997031 44.116 1.04803 43.879 1.15003 43.663C1.25803 43.441 1.40503 43.249 1.59103 43.087C1.78303 42.925 2.01103 42.799 2.27503 42.709C2.54503 42.619 2.84503 42.574 3.17503 42.574C3.54703 42.574 3.87703 42.628 4.16503 42.736C4.45303 42.838 4.69303 42.979 4.88503 43.159C5.08303 43.339 5.23003 43.546 5.32603 43.78C5.42803 44.014 5.47903 44.26 5.47903 44.518V44.842H4.29103V44.626ZM6.70577 42.7H10.6838V43.834H7.89377V45.274H10.5758V46.408H7.89377V47.866H10.7918V49H6.70577V42.7ZM11.9645 42.7H16.5005V43.834H14.8265V49H13.6385V43.834H11.9645V42.7ZM17.4753 42.7H22.0113V43.834H20.3373V49H19.1493V43.834H17.4753V42.7ZM23.148 42.7H27.36V43.834H25.848V47.866H27.36V49H23.148V47.866H24.66V43.834H23.148V42.7ZM31.6197 48.406H31.7817V42.7H32.9697V49H30.6477L29.9097 43.294H29.7477V49H28.5597V42.7H30.8817L31.6197 48.406ZM35.8615 45.814H38.5615V49H37.4815V48.298H37.3195C37.2475 48.532 37.1095 48.73 36.9055 48.892C36.7015 49.048 36.3955 49.126 35.9875 49.126C35.6995 49.126 35.4295 49.072 35.1775 48.964C34.9255 48.856 34.7065 48.697 34.5205 48.487C34.3345 48.271 34.1875 48.007 34.0795 47.695C33.9715 47.377 33.9175 47.008 33.9175 46.588V45.112C33.9175 44.704 33.9745 44.344 34.0885 44.032C34.2085 43.714 34.3705 43.447 34.5745 43.231C34.7845 43.015 35.0335 42.853 35.3215 42.745C35.6095 42.631 35.9275 42.574 36.2755 42.574C36.6355 42.574 36.9565 42.634 37.2385 42.754C37.5205 42.868 37.7605 43.03 37.9585 43.24C38.1565 43.444 38.3065 43.687 38.4085 43.969C38.5105 44.245 38.5615 44.542 38.5615 44.86V44.968H37.3735V44.86C37.3735 44.482 37.2745 44.197 37.0765 44.005C36.8845 43.807 36.6115 43.708 36.2575 43.708C35.9215 43.708 35.6455 43.822 35.4295 44.05C35.2135 44.272 35.1055 44.656 35.1055 45.202V46.534C35.1055 47.506 35.5015 47.992 36.2935 47.992C36.6475 47.992 36.9145 47.899 37.0945 47.713C37.2805 47.521 37.3735 47.266 37.3735 46.948H35.8615V45.814ZM42.8662 44.626C42.8662 44.374 42.7672 44.155 42.5692 43.969C42.3772 43.783 42.1042 43.69 41.7502 43.69C41.4502 43.69 41.2132 43.753 41.0392 43.879C40.8652 43.999 40.7782 44.164 40.7782 44.374C40.7782 44.482 40.7992 44.581 40.8412 44.671C40.8832 44.755 40.9552 44.833 41.0572 44.905C41.1652 44.971 41.3032 45.031 41.4712 45.085C41.6452 45.139 41.8642 45.19 42.1282 45.238C42.7882 45.358 43.2922 45.559 43.6402 45.841C43.9882 46.123 44.1622 46.54 44.1622 47.092V47.2C44.1622 47.494 44.1082 47.761 44.0002 48.001C43.8982 48.235 43.7482 48.436 43.5502 48.604C43.3522 48.772 43.1122 48.901 42.8302 48.991C42.5482 49.081 42.2302 49.126 41.8762 49.126C41.4622 49.126 41.0962 49.069 40.7782 48.955C40.4662 48.835 40.2052 48.673 39.9952 48.469C39.7852 48.259 39.6262 48.016 39.5182 47.74C39.4102 47.458 39.3562 47.152 39.3562 46.822V46.552H40.5442V46.768C40.5442 47.146 40.6522 47.449 40.8682 47.677C41.0902 47.899 41.4322 48.01 41.8942 48.01C42.2542 48.01 42.5212 47.932 42.6952 47.776C42.8692 47.62 42.9562 47.434 42.9562 47.218C42.9562 47.116 42.9382 47.02 42.9022 46.93C42.8662 46.834 42.8032 46.75 42.7132 46.678C42.6232 46.6 42.5002 46.531 42.3442 46.471C42.1882 46.411 41.9902 46.36 41.7502 46.318C41.4322 46.264 41.1412 46.195 40.8772 46.111C40.6132 46.021 40.3822 45.904 40.1842 45.76C39.9922 45.616 39.8422 45.436 39.7342 45.22C39.6262 45.004 39.5722 44.74 39.5722 44.428V44.374C39.5722 44.116 39.6232 43.879 39.7252 43.663C39.8332 43.441 39.9802 43.249 40.1662 43.087C40.3582 42.925 40.5862 42.799 40.8502 42.709C41.1202 42.619 41.4202 42.574 41.7502 42.574C42.1222 42.574 42.4522 42.628 42.7402 42.736C43.0282 42.838 43.2682 42.979 43.4602 43.159C43.6582 43.339 43.8052 43.546 43.9012 43.78C44.0032 44.014 44.0542 44.26 44.0542 44.518V44.842H42.8662V44.626Z" fill="#00FFFF"/>
</svg>
