<svg width="214" height="48" viewBox="0 0 214 48" fill="none" xmlns="http://www.w3.org/2000/svg">
<path d="M176 48L214 2.70455H74.0391L71.3463 0H7.05134L0 5.40909V48H176Z" fill="#00FFFF"/>
<path d="M68.8312 30.17L64.1222 26.43L66.0942 17.148L68.3382 19.358L67.1482 24.985L69.4432 26.77L70.9902 19.494L74.1862 17.522L72.2142 26.804L75.3762 24.951L76.5832 19.273L79.8302 17.114L77.8752 26.362L71.4322 30.17H68.8312ZM81.3884 18.117H89.5314C90.1887 18.3097 90.4154 18.8027 90.2114 19.596L88.0014 30H85.0094L86.1654 24.543L82.6804 26.141L81.5074 31.666L78.8724 29.966L79.9774 24.747L86.8284 21.432L86.9984 20.599H83.8534L83.4284 22.571L80.0964 24.203L81.3884 18.117ZM92.3385 18.1H100.397L102.012 20.854H97.9995L96.1465 29.558L92.7295 31.768L95.0415 20.854H91.7605L92.3385 18.1ZM104.327 18.1H110.974L112.895 20.82H106.775L106.503 22.095H108.747L110.498 24.798H105.925L105.381 27.348H108.883L110.804 30H101.794L104.327 18.1ZM116.269 25.937L115.419 29.898L112.138 31.768L115.028 18.202L117.323 20.956L116.983 22.588L118.462 23.761L120.077 22.843L120.502 20.837H117.782L115.419 18.1H123.171C123.794 18.4627 124.015 19.086 123.834 19.97L122.882 24.424L120.706 25.495L122.355 26.77L121.641 30.153L118.683 31.785L119.397 28.402L116.269 25.937Z" fill="#00FFFF"/>
<path d="M68.8312 30.17L64.1222 26.43L66.0942 17.148L68.3382 19.358L67.1482 24.985L69.4432 26.77L70.9902 19.494L74.1862 17.522L72.2142 26.804L75.3762 24.951L76.5832 19.273L79.8302 17.114L77.8752 26.362L71.4322 30.17H68.8312ZM81.3884 18.117H89.5314C90.1887 18.3097 90.4154 18.8027 90.2114 19.596L88.0014 30H85.0094L86.1654 24.543L82.6804 26.141L81.5074 31.666L78.8724 29.966L79.9774 24.747L86.8284 21.432L86.9984 20.599H83.8534L83.4284 22.571L80.0964 24.203L81.3884 18.117ZM92.3385 18.1H100.397L102.012 20.854H97.9995L96.1465 29.558L92.7295 31.768L95.0415 20.854H91.7605L92.3385 18.1ZM104.327 18.1H110.974L112.895 20.82H106.775L106.503 22.095H108.747L110.498 24.798H105.925L105.381 27.348H108.883L110.804 30H101.794L104.327 18.1ZM116.269 25.937L115.419 29.898L112.138 31.768L115.028 18.202L117.323 20.956L116.983 22.588L118.462 23.761L120.077 22.843L120.502 20.837H117.782L115.419 18.1H123.171C123.794 18.4627 124.015 19.086 123.834 19.97L122.882 24.424L120.706 25.495L122.355 26.77L121.641 30.153L118.683 31.785L119.397 28.402L116.269 25.937Z" fill="#0D1238"/>
</svg>
