<svg width="215" height="51" viewBox="0 0 215 51" fill="none" xmlns="http://www.w3.org/2000/svg">
<path d="M39.5 4L0.5 50L215 50.5V6.5L208.5 0H128.5L124.5 4H39.5Z" fill="#FF0049"/>
<path d="M98.1268 20.1H107.681L105.743 22.497H100.388L99.8098 25.2H102.462L102.887 27.597H99.2998L98.3648 32L95.2368 33.7L98.1268 20.1ZM109.833 31.983H106.841L109.323 20.27L112.757 18.196L109.833 31.983ZM115.501 27.937L114.651 31.898L111.37 33.768L114.26 20.202L116.555 22.956L116.215 24.588L117.694 25.761L119.309 24.843L119.734 22.837H117.014L114.651 20.1H122.403C123.027 20.4627 123.248 21.086 123.066 21.97L122.114 26.424L119.938 27.495L121.587 28.77L120.873 32.153L117.915 33.785L118.629 30.402L115.501 27.937ZM125.023 20.1H131.67L133.591 22.82H127.471L127.199 24.095H129.443L131.194 26.798H126.621L126.077 29.348H129.579L131.5 32H122.49L125.023 20.1Z" fill="#00FFFF"/>
<path d="M98.1268 20.1H107.681L105.743 22.497H100.388L99.8098 25.2H102.462L102.887 27.597H99.2998L98.3648 32L95.2368 33.7L98.1268 20.1ZM109.833 31.983H106.841L109.323 20.27L112.757 18.196L109.833 31.983ZM115.501 27.937L114.651 31.898L111.37 33.768L114.26 20.202L116.555 22.956L116.215 24.588L117.694 25.761L119.309 24.843L119.734 22.837H117.014L114.651 20.1H122.403C123.027 20.4627 123.248 21.086 123.066 21.97L122.114 26.424L119.938 27.495L121.587 28.77L120.873 32.153L117.915 33.785L118.629 30.402L115.501 27.937ZM125.023 20.1H131.67L133.591 22.82H127.471L127.199 24.095H129.443L131.194 26.798H126.621L126.077 29.348H129.579L131.5 32H122.49L125.023 20.1Z" fill="#0D1238"/>
</svg>
