<svg width="45" height="52" viewBox="0 0 45 52" fill="none" xmlns="http://www.w3.org/2000/svg">
<g clip-path="url(#clip0_1460_22231)">
<path d="M24.4915 3.24805L24.1055 5.95024C24.1055 5.95024 29.6417 6.24212 33.6903 10.7991L32.2497 12.428" stroke="#00FFFF" stroke-width="0.4"/>
<path d="M33.5398 3.52116L31.9016 5.80908C23.3242 0.235216 13.9277 5.12176 13.9277 5.12176L16.5075 9.95182" stroke="#FF005C" stroke-width="0.4"/>
<path d="M12.8638 14.1416L10.8207 12.2773C8.35389 14.7065 7.32762 18.3314 7.32762 18.3314L4.66309 17.3428" stroke="#00FFFF" stroke-width="0.4"/>
<path d="M5.30273 9.26458L7.79779 11.223C7.79779 11.223 9.35132 8.91621 11.1496 7.56982" stroke="#00FFFF" stroke-width="0.4"/>
<path d="M40.5543 31.645L37.5791 30.2798L35.7996 32.6054L32.5137 30.4681" stroke="#00FFFF" stroke-width="0.4"/>
<path d="M1.65918 19.5554H4.59676V10.0083" stroke="#FF005C" stroke-width="0.4"/>
<path d="M4.64389 20.9775H1.55566" stroke="#FF005C" stroke-width="0.4"/>
<path d="M8.2692 36.4186C4.16413 32.596 1.59375 27.1445 1.59375 21.0999C1.59375 9.54729 10.9526 0.188477 22.5052 0.188477C34.0577 0.188477 43.4166 9.54729 43.4166 21.0999C43.4166 27.1163 40.8744 32.5301 36.8164 36.3527" stroke="#00FFFF" stroke-width="0.4"/>
<path d="M22.1844 35.5334C22.0055 35.5145 21.8266 35.4957 21.6477 35.4863C19.8777 35.3451 18.2017 34.8649 16.6294 34.0646C14.7275 33.0948 13.1457 31.739 11.8746 30.0254C11.837 29.9783 11.7993 29.9218 11.7522 29.8653C10.9237 30.628 10.1046 31.3812 9.2666 32.1533V23.7266H18.4277C17.0342 25.007 15.6596 26.2781 14.2755 27.5398C16.0833 30.4114 19.6611 32.511 23.7662 32.1062C28.3326 31.6543 31.9763 28.1894 32.739 23.7266H36.1473C36.1002 23.9996 36.072 24.2632 36.0155 24.5269C35.3847 27.7469 33.8029 30.4114 31.2702 32.4922C29.4813 33.961 27.4476 34.9025 25.1691 35.3074C24.6136 35.4015 24.0486 35.4392 23.4931 35.5051C23.4461 35.5051 23.399 35.5239 23.3613 35.5239H22.175L22.1844 35.5334Z" fill="#00FFFF"/>
<path d="M33.8503 14.3299C34.6506 13.5296 35.4415 12.7293 36.2512 11.929V20.3463H27.881C29.0579 19.1694 30.2442 17.9925 31.4211 16.8156C29.7546 13.9816 26.318 11.656 22.0811 11.9384C19.7461 12.0985 17.703 12.9647 15.9706 14.5371C14.2382 16.1 13.1837 18.049 12.7694 20.3557H9.37988C9.71883 16.7685 12.148 11.9667 17.3358 9.67876C19.2565 8.83138 21.2714 8.46418 23.371 8.55834C25.4612 8.65249 27.429 9.19858 29.265 10.2154C31.101 11.2323 32.6169 12.6069 33.8503 14.3393V14.3299Z" fill="#00FFFF"/>
<path d="M30.2822 18.2188C28.8134 15.7143 26.0171 13.3793 22.2792 13.6241C20.2173 13.7654 18.4095 14.528 16.8748 15.9215C15.3495 17.3055 14.4174 19.7347 14.0502 21.7684H9.38965" stroke="#00FFFF" stroke-width="0.35"/>
<path d="M15.2178 25.9299C16.6866 28.4344 19.4829 30.7694 23.2208 30.5246C25.2827 30.3834 27.0905 29.6207 28.6252 28.2273C30.1505 26.8432 31.0826 24.4141 31.4498 22.3804H36.1103" stroke="#00FFFF" stroke-width="0.35"/>
<path d="M38.7559 7.86182V23.7549L42.8892 25.7509" stroke="#FF005C" stroke-width="0.4"/>
<path d="M6.42338 34.2999V23.9431L4.64389 22.3613H1.55566" stroke="#FF005C" stroke-width="0.4"/>
<path d="M2.35645 26.7773H4.15477V31.1084" stroke="#FF005C" stroke-width="0.33"/>
<path d="M41.015 11.6372V18.8588L38.6895 21.1843" stroke="#FF005C" stroke-width="0.4"/>
</g>
<path d="M8.0994 49H6.9114V47.11C6.9114 46.966 6.8724 46.849 6.7944 46.759C6.7224 46.669 6.5994 46.624 6.4254 46.624H5.0574V49H3.8694V42.7H6.2814C6.6054 42.7 6.8904 42.745 7.1364 42.835C7.3824 42.925 7.5864 43.051 7.7484 43.213C7.9164 43.369 8.0424 43.552 8.1264 43.762C8.2164 43.972 8.2614 44.197 8.2614 44.437V44.653C8.2614 44.911 8.1924 45.154 8.0544 45.382C7.9164 45.604 7.7034 45.775 7.4154 45.895V46.057C7.6254 46.081 7.7904 46.162 7.9104 46.3C8.0364 46.438 8.0994 46.612 8.0994 46.822V49ZM5.0574 45.49H6.1914C6.4794 45.49 6.6984 45.424 6.8484 45.292C6.9984 45.154 7.0734 44.962 7.0734 44.716V44.608C7.0734 44.398 6.9984 44.218 6.8484 44.068C6.6984 43.912 6.4794 43.834 6.1914 43.834H5.0574V45.49ZM9.46114 42.7H13.4391V43.834H10.6491V45.274H13.3311V46.408H10.6491V47.866H13.5471V49H9.46114V42.7ZM15.0259 42.7H19.0579V43.834H16.2139V45.274H19.0039V46.408H16.2139V49H15.0259V42.7ZM24.6316 49H23.4436V47.11C23.4436 46.966 23.4046 46.849 23.3266 46.759C23.2546 46.669 23.1316 46.624 22.9576 46.624H21.5896V49H20.4016V42.7H22.8136C23.1376 42.7 23.4226 42.745 23.6686 42.835C23.9146 42.925 24.1186 43.051 24.2806 43.213C24.4486 43.369 24.5746 43.552 24.6586 43.762C24.7486 43.972 24.7936 44.197 24.7936 44.437V44.653C24.7936 44.911 24.7246 45.154 24.5866 45.382C24.4486 45.604 24.2356 45.775 23.9476 45.895V46.057C24.1576 46.081 24.3226 46.162 24.4426 46.3C24.5686 46.438 24.6316 46.612 24.6316 46.822V49ZM21.5896 45.49H22.7236C23.0116 45.49 23.2306 45.424 23.3806 45.292C23.5306 45.154 23.6056 44.962 23.6056 44.716V44.608C23.6056 44.398 23.5306 44.218 23.3806 44.068C23.2306 43.912 23.0116 43.834 22.7236 43.834H21.5896V45.49ZM25.9934 42.7H29.9714V43.834H27.1814V45.274H29.8634V46.408H27.1814V47.866H30.0794V49H25.9934V42.7ZM34.6001 44.626C34.6001 44.374 34.5011 44.155 34.3031 43.969C34.1111 43.783 33.8381 43.69 33.4841 43.69C33.1841 43.69 32.9471 43.753 32.7731 43.879C32.5991 43.999 32.5121 44.164 32.5121 44.374C32.5121 44.482 32.5331 44.581 32.5751 44.671C32.6171 44.755 32.6891 44.833 32.7911 44.905C32.8991 44.971 33.0371 45.031 33.2051 45.085C33.3791 45.139 33.5981 45.19 33.8621 45.238C34.5221 45.358 35.0261 45.559 35.3741 45.841C35.7221 46.123 35.8961 46.54 35.8961 47.092V47.2C35.8961 47.494 35.8421 47.761 35.7341 48.001C35.6321 48.235 35.4821 48.436 35.2841 48.604C35.0861 48.772 34.8461 48.901 34.5641 48.991C34.2821 49.081 33.9641 49.126 33.6101 49.126C33.1961 49.126 32.8301 49.069 32.5121 48.955C32.2001 48.835 31.9391 48.673 31.7291 48.469C31.5191 48.259 31.3601 48.016 31.2521 47.74C31.1441 47.458 31.0901 47.152 31.0901 46.822V46.552H32.2781V46.768C32.2781 47.146 32.3861 47.449 32.6021 47.677C32.8241 47.899 33.1661 48.01 33.6281 48.01C33.9881 48.01 34.2551 47.932 34.4291 47.776C34.6031 47.62 34.6901 47.434 34.6901 47.218C34.6901 47.116 34.6721 47.02 34.6361 46.93C34.6001 46.834 34.5371 46.75 34.4471 46.678C34.3571 46.6 34.2341 46.531 34.0781 46.471C33.9221 46.411 33.7241 46.36 33.4841 46.318C33.1661 46.264 32.8751 46.195 32.6111 46.111C32.3471 46.021 32.1161 45.904 31.9181 45.76C31.7261 45.616 31.5761 45.436 31.4681 45.22C31.3601 45.004 31.3061 44.74 31.3061 44.428V44.374C31.3061 44.116 31.3571 43.879 31.4591 43.663C31.5671 43.441 31.7141 43.249 31.9001 43.087C32.0921 42.925 32.3201 42.799 32.5841 42.709C32.8541 42.619 33.1541 42.574 33.4841 42.574C33.8561 42.574 34.1861 42.628 34.4741 42.736C34.7621 42.838 35.0021 42.979 35.1941 43.159C35.3921 43.339 35.5391 43.546 35.6351 43.78C35.7371 44.014 35.7881 44.26 35.7881 44.518V44.842H34.6001V44.626ZM36.8259 42.7H38.0139V45.274H40.0479V42.7H41.2359V49H40.0479V46.408H38.0139V49H36.8259V42.7Z" fill="#00FFFF"/>
<defs>
<clipPath id="clip0_1460_22231">
<rect width="42.19" height="36.5502" fill="white" transform="translate(1.40527)"/>
</clipPath>
</defs>
</svg>
