<svg width="58" height="56" viewBox="0 0 58 56" fill="none"
    xmlns="http://www.w3.org/2000/svg">
    <defs>
        <filter id="filter0_d_532_531" x="12.4512" y="0" width="31.6235" height="56" filterUnits="userSpaceOnUse" color-interpolation-filters="sRGB">
            <feFlood flood-opacity="0" result="BackgroundImageFix"/>
            <feColorMatrix in="SourceAlpha" type="matrix" values="0 0 0 0 0 0 0 0 0 0 0 0 0 0 0 0 0 0 127 0" result="hardAlpha"/>
            <feOffset/>
            <feGaussianBlur stdDeviation="2"/>
            <feComposite in2="hardAlpha" operator="out"/>
            <feColorMatrix type="matrix" values="0 0 0 0 1 0 0 0 0 1 0 0 0 0 1 0 0 0 0.7 0"/>
            <feBlend mode="normal" in2="BackgroundImageFix" result="effect1_dropShadow_532_531"/>
            <feBlend mode="normal" in="SourceGraphic" in2="effect1_dropShadow_532_531" result="shape"/>
        </filter>
        <filter id="filter1_d_532_531" x="0" y="5.62598" width="58" height="48.5198" filterUnits="userSpaceOnUse" color-interpolation-filters="sRGB">
            <feFlood flood-opacity="0" result="BackgroundImageFix"/>
            <feColorMatrix in="SourceAlpha" type="matrix" values="0 0 0 0 0 0 0 0 0 0 0 0 0 0 0 0 0 0 127 0" result="hardAlpha"/>
            <feOffset/>
            <feGaussianBlur stdDeviation="2"/>
            <feComposite in2="hardAlpha" operator="out"/>
            <feColorMatrix type="matrix" values="0 0 0 0 1 0 0 0 0 0 0 0 0 0 0 0 0 0 0.75 0"/>
            <feBlend mode="normal" in2="BackgroundImageFix" result="effect1_dropShadow_532_531"/>
            <feBlend mode="normal" in="SourceGraphic" in2="effect1_dropShadow_532_531" result="shape"/>
        </filter>
        <filter id="filter2_d_532_531" x="12.5156" y="3.03125" width="43.4751" height="50.2053" filterUnits="userSpaceOnUse" color-interpolation-filters="sRGB">
            <feFlood flood-opacity="0" result="BackgroundImageFix"/>
            <feColorMatrix in="SourceAlpha" type="matrix" values="0 0 0 0 0 0 0 0 0 0 0 0 0 0 0 0 0 0 127 0" result="hardAlpha"/>
            <feOffset/>
            <feGaussianBlur stdDeviation="1"/>
            <feComposite in2="hardAlpha" operator="out"/>
            <feColorMatrix type="matrix" values="0 0 0 0 0 0 0 0 0 0.890196 0 0 0 0 1 0 0 0 0.7 0"/>
            <feBlend mode="normal" in2="BackgroundImageFix" result="effect1_dropShadow_532_531"/>
            <feBlend mode="normal" in="SourceGraphic" in2="effect1_dropShadow_532_531" result="shape"/>
        </filter>
    </defs>
    <g filter="url(#filter0_d_532_531)">
        <path d="M17.9678 50.9898L19.898 52H38.1445L40.0748 50.9898L38.1445 49.9785H19.898L17.9678 50.9898Z" fill="white"/>
        <path d="M17.648 8.12673L18.9015 10.8315C18.9137 10.8579 18.9207 10.8863 18.922 10.9154C18.9232 10.9444 18.9187 10.9734 18.9088 11.0007C18.8988 11.028 18.8836 11.053 18.864 11.0744C18.8443 11.0958 18.8207 11.113 18.7943 11.1252C18.7681 11.1375 18.7397 11.1445 18.7107 11.1458C18.6818 11.147 18.6529 11.1425 18.6257 11.1325C18.5984 11.1226 18.5735 11.1073 18.5522 11.0876C18.5309 11.0679 18.5136 11.0442 18.5015 11.0178L17.2492 8.31185C17.2369 8.28552 17.23 8.25702 17.2287 8.22799C17.2275 8.19896 17.2319 8.16997 17.2419 8.14268C17.2519 8.11539 17.2671 8.09034 17.2867 8.06897C17.3064 8.0476 17.33 8.03034 17.3563 8.01817C17.3826 8.00607 17.411 7.99929 17.4398 7.9982C17.4687 7.99711 17.4975 8.00174 17.5246 8.01183C17.5517 8.02191 17.5765 8.03724 17.5977 8.05696C17.6189 8.07667 17.636 8.10038 17.648 8.12673Z" fill="white"/>
        <path d="M18.8441 7.61034L19.9835 10.362C20.0064 10.4153 20.0073 10.4756 19.9859 10.5296C19.9645 10.5836 19.9227 10.6269 19.8696 10.65C19.8162 10.6729 19.756 10.6738 19.7019 10.6524C19.6479 10.631 19.6046 10.589 19.5813 10.5357L18.4418 7.78517C18.4192 7.73163 18.4185 7.67131 18.4398 7.61723C18.4611 7.56316 18.5028 7.51964 18.5558 7.49607C18.6092 7.47339 18.6693 7.47266 18.7232 7.49404C18.7772 7.51541 18.8205 7.55718 18.8441 7.61034Z" fill="white"/>
        <path d="M20.06 7.14008L21.0924 9.93516C21.1024 9.96232 21.107 9.99119 21.1059 10.0201C21.1048 10.0491 21.098 10.0775 21.0859 10.1038C21.0739 10.1301 21.0568 10.1538 21.0356 10.1735C21.0144 10.1932 20.9896 10.2085 20.9625 10.2185C20.9354 10.2286 20.9066 10.2332 20.8777 10.2321C20.8489 10.231 20.8205 10.2242 20.7943 10.2121C20.768 10.2 20.7444 10.1829 20.7248 10.1616C20.7052 10.1404 20.6899 10.1154 20.6799 10.0883L19.6475 7.29435C19.6272 7.23933 19.6295 7.1785 19.6539 7.12517C19.6782 7.07184 19.7226 7.03036 19.7774 7.00981C19.8045 6.99976 19.8333 6.99515 19.8621 6.99625C19.891 6.99736 19.9194 7.00416 19.9456 7.01625C19.9719 7.02835 19.9955 7.04551 20.0151 7.06676C20.0347 7.088 20.05 7.11292 20.06 7.14008Z" fill="white"/>
        <path d="M21.2875 6.72308L22.2093 9.55472C22.2184 9.58233 22.2219 9.61146 22.2197 9.64044C22.2175 9.66943 22.2096 9.69769 22.1965 9.7236C22.1833 9.74951 22.1652 9.77256 22.1432 9.79143C22.1211 9.8103 22.0956 9.82461 22.068 9.83355C22.0124 9.85158 21.9519 9.8468 21.8998 9.82025C21.8477 9.79369 21.8082 9.74753 21.79 9.69185L20.8682 6.8602C20.8502 6.80444 20.8549 6.7438 20.8814 6.69155C20.9079 6.6393 20.9539 6.59969 21.0094 6.58138C21.0651 6.56514 21.1248 6.57075 21.1764 6.59707C21.2281 6.62339 21.2678 6.66845 21.2875 6.72308Z" fill="white"/>
        <path d="M22.5407 6.3458L23.352 9.21287C23.3678 9.26939 23.3606 9.32988 23.3319 9.38107C23.3033 9.43227 23.2556 9.47 23.1993 9.48597C23.1714 9.4938 23.1424 9.49604 23.1137 9.49258C23.085 9.48912 23.0572 9.48001 23.032 9.46579C23.0068 9.45157 22.9847 9.43251 22.9669 9.4097C22.949 9.38689 22.9359 9.36077 22.9281 9.33285L22.1179 6.46692C22.1099 6.43901 22.1075 6.40979 22.1108 6.38094C22.1141 6.35209 22.123 6.32418 22.1371 6.2988C22.1512 6.27343 22.1701 6.25109 22.1929 6.23307C22.2156 6.21506 22.2416 6.20172 22.2695 6.19382C22.3255 6.17797 22.3856 6.18508 22.4364 6.21357C22.4872 6.24206 22.5247 6.28962 22.5407 6.3458Z" fill="white"/>
        <path d="M23.7993 6.02711L24.4967 8.92389C24.5036 8.95203 24.505 8.98127 24.5006 9.00993C24.4962 9.03859 24.4862 9.0661 24.4711 9.09085C24.4561 9.11561 24.4363 9.13713 24.4129 9.15418C24.3895 9.17122 24.363 9.18344 24.3349 9.19014C24.3068 9.19711 24.2776 9.19844 24.2491 9.19405C24.2205 9.18965 24.1931 9.17962 24.1684 9.16453C24.1437 9.14944 24.1222 9.1296 24.1052 9.10614C24.0882 9.08269 24.0761 9.05608 24.0694 9.02787L23.3709 6.1311C23.3641 6.10288 23.3629 6.0736 23.3674 6.04494C23.372 6.01627 23.3821 5.98878 23.3972 5.96405C23.4124 5.93931 23.4322 5.91782 23.4557 5.9008C23.4791 5.88377 23.5057 5.87155 23.5338 5.86484C23.5619 5.85787 23.591 5.85654 23.6196 5.86093C23.6482 5.86533 23.6756 5.87536 23.7003 5.89045C23.725 5.90554 23.7465 5.92538 23.7635 5.94884C23.7804 5.9723 23.7926 5.9989 23.7993 6.02711Z" fill="white"/>
        <path d="M25.0732 5.75105L25.6566 8.67297C25.668 8.73024 25.6563 8.78971 25.624 8.83834C25.5918 8.88697 25.5416 8.92078 25.4845 8.93236C25.4274 8.94381 25.3681 8.93207 25.3196 8.89972C25.2711 8.86738 25.2374 8.81706 25.2259 8.75981L24.6425 5.83789C24.631 5.78062 24.6427 5.72115 24.675 5.67252C24.7073 5.62389 24.7574 5.59007 24.8145 5.5785C24.8716 5.56705 24.9309 5.57879 24.9794 5.61114C25.0279 5.64348 25.0616 5.6938 25.0732 5.75105Z" fill="white"/>
        <path d="M26.3576 5.52802L26.8271 8.47051C26.8359 8.52837 26.8216 8.58739 26.7872 8.6347C26.7529 8.68201 26.7012 8.71377 26.6436 8.72305C26.586 8.73227 26.5272 8.71819 26.48 8.68391C26.4327 8.64963 26.401 8.59794 26.3918 8.54022L25.9246 5.59773C25.9201 5.56906 25.9212 5.53978 25.928 5.51155C25.9347 5.48333 25.947 5.45672 25.964 5.43326C25.9811 5.4098 26.0026 5.38994 26.0273 5.37483C26.052 5.35972 26.0795 5.34964 26.1081 5.34519C26.1653 5.33663 26.2235 5.35102 26.2702 5.38524C26.317 5.41946 26.3483 5.47076 26.3576 5.52802Z" fill="white"/>
        <path d="M27.6475 5.35602L28.0019 8.31222C28.0054 8.34104 28.0032 8.37027 27.9954 8.39823C27.9876 8.4262 27.9744 8.45234 27.9565 8.47517C27.9386 8.49799 27.9164 8.51705 27.8911 8.53125C27.8659 8.54545 27.8381 8.5545 27.8093 8.5579C27.7806 8.56141 27.7514 8.5592 27.7236 8.55138C27.6957 8.54357 27.6696 8.53031 27.6468 8.51236C27.6241 8.49442 27.6051 8.47215 27.5909 8.44682C27.5768 8.4215 27.5677 8.39362 27.5643 8.36478L27.2111 5.40744C27.204 5.34941 27.2202 5.29093 27.2561 5.24486C27.292 5.19879 27.3447 5.1689 27.4025 5.16176C27.4314 5.15825 27.4606 5.16051 27.4885 5.1684C27.5165 5.17628 27.5426 5.18964 27.5654 5.2077C27.5882 5.22576 27.6071 5.24817 27.6212 5.27362C27.6353 5.29908 27.6443 5.32708 27.6475 5.35602Z" fill="white"/>
        <path d="M28.9423 5.23414L29.1815 8.2052C29.1839 8.23409 29.1805 8.26316 29.1716 8.29075C29.1628 8.31833 29.1486 8.34389 29.1298 8.36597C29.1111 8.38804 29.0882 8.4062 29.0625 8.4194C29.0367 8.43259 29.0087 8.44057 28.9799 8.44288C28.951 8.44538 28.922 8.44212 28.8944 8.43328C28.8668 8.42444 28.8413 8.4102 28.8192 8.39139C28.7972 8.37258 28.7791 8.34956 28.766 8.32368C28.7529 8.2978 28.745 8.26957 28.7428 8.24062L28.5036 5.26957C28.4992 5.21111 28.518 5.15327 28.556 5.10873C28.594 5.06418 28.6481 5.03655 28.7064 5.03188C28.7644 5.02747 28.8218 5.04627 28.866 5.08417C28.9102 5.12208 28.9376 5.176 28.9423 5.23414Z" fill="white"/>
        <path d="M16.6223 7.6624C16.5846 7.66244 16.548 7.65001 16.5181 7.62703C16.4882 7.60405 16.4667 7.57182 16.457 7.53534C16.4472 7.49886 16.4498 7.46017 16.4642 7.42529C16.4787 7.3904 16.5042 7.36128 16.5368 7.34244C20.3045 5.16872 24.5718 4.01675 28.9184 4C28.9637 4 29.0072 4.01806 29.0392 4.0502C29.0713 4.08235 29.0893 4.12595 29.0893 4.17141C29.0893 4.21687 29.0713 4.26046 29.0392 4.29261C29.0072 4.32475 28.9637 4.34281 28.9184 4.34281C24.6313 4.35875 20.4223 5.495 16.7066 7.63954C16.6808 7.65394 16.6518 7.66179 16.6223 7.6624Z" fill="white"/>
    </g>
    <g filter="url(#filter1_d_532_531)">
        <path d="M51.0587 40.8122C51.0309 40.8124 51.0035 40.8057 50.9789 40.7927C50.9395 40.7716 50.91 40.7358 50.8966 40.6931C50.8832 40.6504 50.8869 40.6041 50.9071 40.5642C52.5154 37.4875 53.453 34.103 53.6578 30.6351C53.6592 30.6126 53.6649 30.5906 53.6747 30.5703C53.6846 30.55 53.6983 30.5318 53.7151 30.5169C53.7319 30.5019 53.7515 30.4904 53.7728 30.4831C53.794 30.4757 53.8165 30.4726 53.839 30.4739C53.8614 30.4753 53.8834 30.4811 53.9036 30.4909C53.9238 30.5008 53.9419 30.5146 53.9568 30.5314C53.9718 30.5483 53.9832 30.568 53.9906 30.5893C53.9979 30.6106 54.001 30.6332 53.9996 30.6557C53.7913 34.1718 52.8404 37.6033 51.2102 40.723C51.1954 40.7503 51.1734 40.7729 51.1467 40.7886C51.12 40.8043 51.0896 40.8125 51.0587 40.8122Z" fill="#FF0049"/>
        <path d="M15.4393 50.1458C15.406 50.146 15.3734 50.136 15.3458 50.1172C12.0517 47.96 9.31094 45.0543 7.34589 41.6357C5.38085 38.2172 4.24688 34.3822 4.03599 30.4418C3.8251 26.5014 4.54323 22.5666 6.13211 18.9567C7.72099 15.3468 10.1359 12.1634 13.1808 9.66489C13.2149 9.63684 13.2585 9.62308 13.3024 9.62649C13.3464 9.62989 13.3873 9.65021 13.4167 9.68318L15.3014 11.8171C15.3316 11.8511 15.3471 11.8957 15.3446 11.9411C15.342 11.9866 15.3216 12.0291 15.2877 12.0594C15.2539 12.0897 15.2094 12.1053 15.1641 12.1028C15.1188 12.1002 15.0764 12.0797 15.0461 12.0457L13.2743 10.0398C10.3068 12.5075 7.95675 15.638 6.41224 19.1805C4.86774 22.723 4.17173 26.579 4.37996 30.4398C4.58819 34.3006 5.69488 38.0589 7.61139 41.4135C9.52789 44.7682 12.201 47.6261 15.4165 49.7583L16.9605 48.2027C16.9761 48.1858 16.995 48.1723 17.016 48.163C17.0369 48.1536 17.0596 48.1486 17.0825 48.1482C17.1055 48.1477 17.1282 48.152 17.1495 48.1606C17.1708 48.1692 17.1901 48.1821 17.2064 48.1983C17.2226 48.2146 17.2354 48.234 17.244 48.2554C17.2526 48.2767 17.2568 48.2996 17.2564 48.3226C17.256 48.3456 17.251 48.3683 17.2416 48.3893C17.2323 48.4104 17.2188 48.4293 17.202 48.445L15.5532 50.1C15.5222 50.129 15.4816 50.1453 15.4393 50.1458Z" fill="#FF0049"/>
        <path d="M9.22416 44.3437C9.1969 44.3438 9.16999 44.3375 9.14554 44.3254C9.10599 44.3044 9.07614 44.2688 9.06231 44.2262C9.04849 44.1835 9.05177 44.1371 9.07148 44.0968L11.0211 40.2907C9.13297 37.2232 8.05187 33.7252 7.87908 30.1243C7.70629 26.5234 8.44747 22.9374 10.0332 19.7022L7.3691 16.7522C7.3517 16.736 7.33786 16.7163 7.32846 16.6945C7.31905 16.6726 7.31428 16.6491 7.31446 16.6253C7.31463 16.6014 7.31975 16.5779 7.32948 16.5562C7.33921 16.5345 7.35334 16.5151 7.37097 16.4991C7.3886 16.4832 7.40935 16.4711 7.43189 16.4637C7.45443 16.4562 7.47826 16.4536 7.50188 16.4559C7.5255 16.4582 7.54839 16.4654 7.56908 16.477C7.58977 16.4887 7.60781 16.5046 7.62206 16.5236L10.3648 19.5605C10.3881 19.586 10.4031 19.6181 10.4078 19.6524C10.4125 19.6867 10.4066 19.7216 10.391 19.7525C8.7975 22.9586 8.05005 26.521 8.22001 30.0994C8.38997 33.6778 9.47168 37.1527 11.3618 40.1924C11.3776 40.2177 11.3867 40.2467 11.3881 40.2765C11.3895 40.3063 11.3832 40.336 11.3698 40.3627L9.37572 44.2488C9.36184 44.2773 9.34029 44.3013 9.31349 44.318C9.2867 44.3348 9.25575 44.3437 9.22416 44.3437Z" fill="#FF0049"/>
        <path d="M34.1323 23.9232C34.1552 23.2337 34.0397 22.5467 33.7924 21.9029C33.5452 21.2592 33.1714 20.6719 32.6932 20.176C32.2151 19.6801 31.6424 19.2858 31.0092 19.0165C30.376 18.7472 29.6953 18.6084 29.0075 18.6084C28.3198 18.6084 27.639 18.7472 27.0058 19.0165C26.3727 19.2858 25.8 19.6801 25.3218 20.176C24.8437 20.6719 24.4699 21.2592 24.2226 21.9029C23.9754 22.5467 23.8598 23.2337 23.8827 23.9232" fill="#FF0049"/>
        <path d="M36.4193 23.9236C36.4193 21.9521 35.6386 20.0614 34.2488 18.6674C32.859 17.2734 30.9741 16.4902 29.0087 16.4902C27.0433 16.4902 25.1584 17.2734 23.7687 18.6674C22.3789 20.0614 21.5981 21.9521 21.5981 23.9236M23.5421 23.9236C23.5184 23.1886 23.6423 22.4563 23.9064 21.7703C24.1705 21.0843 24.5693 20.4586 25.0793 19.9303C25.5893 19.4019 26.1999 18.9819 26.8749 18.695C27.55 18.4081 28.2756 18.2602 29.0087 18.2602C29.7419 18.2602 30.4675 18.4081 31.1425 18.695C31.8175 18.9819 32.4282 19.4019 32.9381 19.9303C33.4481 20.4586 33.847 21.0843 34.1111 21.7703C34.3751 22.4563 34.499 23.1886 34.4754 23.9236" fill="#FF0049"/>
        <path d="M39.4741 13.6215L41.3884 15.5401C41.3813 14.661 41.1244 13.8022 40.6478 13.0643C40.1712 12.3265 39.4947 11.7402 38.6975 11.3744C37.9004 11.0085 37.0158 10.8782 36.1474 10.9987C35.2791 11.1193 34.463 11.4856 33.7949 12.0549L35.3571 13.6215H39.4741Z" fill="#FF0049"/>
        <path d="M38.3169 19.941C39.1451 19.646 39.8724 19.1204 40.4135 18.4258H38.3169V19.941Z" fill="#FF0049"/>
        <path d="M39.3351 13.9661H35.2182L33.5443 12.2871C32.9576 12.8663 32.5364 13.5925 32.3244 14.3903C32.1124 15.1881 32.1173 16.0284 32.3387 16.8236C33.8597 17.4932 35.1135 18.654 35.9007 20.1211C36.5892 20.2563 37.2995 20.2313 37.9769 20.0479V18.0832H40.6581C41.059 17.4594 41.3037 16.7477 41.3714 16.0086L39.3351 13.9661Z" fill="#FF0049"/>
        <path d="M17.7588 13.2139C17.1148 13.2484 16.4937 13.465 15.9672 13.8386C15.4407 14.2122 15.0303 14.7276 14.7834 15.3252C14.5365 15.9228 14.4632 16.5783 14.5719 17.216C14.6806 17.8536 14.9669 18.4474 15.3978 18.9288L17.7588 16.5617V13.2139Z" fill="#FF0049"/>
        <path d="M18.1004 13.2139V16.7045L15.6392 19.1722C16.0446 19.5433 16.5333 19.811 17.0637 19.9527C17.5941 20.0943 18.1507 20.1058 18.6865 19.9861C19.2222 19.8664 19.7214 19.619 20.1417 19.2649C20.562 18.9108 20.8912 18.4604 21.1013 17.9517C21.3114 17.4431 21.3963 16.8912 21.3488 16.3426C21.3014 15.7941 21.1229 15.2651 20.8286 14.8004C20.5342 14.3357 20.1326 13.9489 19.6578 13.6727C19.1829 13.3966 18.6487 13.2392 18.1004 13.2139Z" fill="#FF0049"/>
        <path opacity="0.52" d="M37.3247 35.5726L38.4209 36.6719H40.3352V34.0322H37.36L37.3247 35.5726Z" fill="#FF0049"/>
        <path d="M38.2779 37.0162L36.9789 35.7132L37.0233 33.6901H40.6753V36.7568L44.8458 39.7399V33.321L43.6038 32.1494H35.5488V38.1718L37.323 39.9514H44.5518L40.4497 37.0162H38.2779Z" fill="#FF0049"/>
        <path d="M37.3242 35.5716L38.4204 36.6709H40.3347V34.0312H37.3595L37.3242 35.5716Z" fill="#FF0049"/>
    </g>
    <g filter="url(#filter2_d_532_531)">
        <path d="M49.9737 31.4356C49.94 31.4356 49.9069 31.4255 49.8789 31.4067C49.8508 31.3878 49.8289 31.3611 49.816 31.3298C49.803 31.2985 49.7997 31.264 49.8062 31.2308C49.8128 31.1975 49.8291 31.167 49.853 31.143L53.644 27.3403C52.9284 17.193 45.9776 8.42634 36.292 5.43402V8.22974C36.292 8.27521 36.274 8.31882 36.242 8.35098C36.2099 8.38313 36.1664 8.40119 36.1211 8.40119C36.0758 8.40119 36.0323 8.38313 36.0003 8.35098C35.9682 8.31882 35.9502 8.27521 35.9502 8.22974V5.20314C35.9501 5.17634 35.9562 5.1499 35.9681 5.12589C35.98 5.10189 35.9972 5.08098 36.0186 5.06484C36.0398 5.04898 36.0645 5.03834 36.0907 5.03378C36.1168 5.02921 36.1436 5.03085 36.169 5.03855C41.0565 6.50146 45.382 9.42668 48.5669 13.4228C51.7517 17.419 53.644 22.2955 53.9904 27.3998C53.9923 27.4242 53.9887 27.4488 53.9801 27.4717C53.9714 27.4946 53.9578 27.5153 53.9403 27.5324L50.0945 31.3911C50.0614 31.4208 50.0182 31.4368 49.9737 31.4356Z" fill="#00FFFF"/>
        <path d="M49.7823 32.7334V43.8843L47.9478 45.7245V38.4026C48.8256 36.6102 49.4433 34.7012 49.7823 32.7334Z" fill="#00FFFF"/>
        <path d="M47.9453 45.8964C47.9001 45.8961 47.8568 45.8779 47.8248 45.8458C47.7928 45.8137 47.7747 45.7703 47.7744 45.7249V38.403C47.7744 38.3765 47.7802 38.3504 47.7915 38.3264C48.6633 36.5491 49.2773 34.6558 49.6147 32.7041C49.6166 32.6816 49.623 32.6597 49.6333 32.6396C49.6437 32.6196 49.658 32.6018 49.6752 32.5872C49.6925 32.5727 49.7124 32.5617 49.7339 32.5549C49.7553 32.5481 49.778 32.5456 49.8004 32.5475C49.8228 32.5495 49.8447 32.5558 49.8647 32.5663C49.8847 32.5767 49.9024 32.5909 49.9169 32.6082C49.9314 32.6255 49.9424 32.6455 49.9492 32.6671C49.956 32.6886 49.9585 32.7113 49.9565 32.7338V43.8847C49.9565 43.9302 49.9384 43.9738 49.9064 44.0059L48.0718 45.8461C48.0553 45.8627 48.0356 45.8758 48.0138 45.8845C47.992 45.8931 47.9687 45.8972 47.9453 45.8964ZM48.1163 38.443V45.3112L49.609 43.8139V34.3591C49.2529 35.7683 48.7527 37.1369 48.1163 38.443Z" fill="#00FFFF"/>
        <path d="M49.7835 32.9043H49.7539C49.7092 32.8962 49.6696 32.8708 49.6436 32.8336C49.6175 32.7963 49.6072 32.7503 49.6148 32.7055C49.8191 31.5155 49.922 30.3103 49.9225 29.1028C49.9322 26.2894 49.3716 23.5034 48.2747 20.9141C47.1777 18.3248 45.5673 15.9863 43.5414 14.0406C43.5245 14.0252 43.5108 14.0065 43.5012 13.9857C43.4916 13.9649 43.4862 13.9424 43.4854 13.9194C43.4847 13.8965 43.4885 13.8736 43.4967 13.8522C43.5049 13.8308 43.5173 13.8112 43.5332 13.7947C43.549 13.7782 43.568 13.765 43.5891 13.756C43.6101 13.747 43.6327 13.7423 43.6556 13.7422C43.6785 13.7421 43.7011 13.7466 43.7222 13.7555C43.7433 13.7643 43.7625 13.7773 43.7784 13.7937C45.8372 15.7715 47.4735 18.1484 48.5881 20.7802C49.7027 23.4119 50.2722 26.2434 50.2621 29.1028C50.2616 30.3286 50.1571 31.5522 49.9499 32.7603C49.9432 32.8 49.923 32.8361 49.8926 32.8624C49.8622 32.8887 49.8236 32.9036 49.7835 32.9043Z" fill="#00FFFF"/>
        <path d="M18.6565 24.2881H14.5156V33.0044L18.6565 28.8509V24.2881Z" fill="#00FFFF"/>
        <path d="M23.257 46.7363L22.3203 47.6756H28.9338L27.9972 46.7363H23.257Z" fill="#00FFFF"/>
        <path d="M35.494 29.8167H43.6059V28.3301H34.0127L35.494 29.8167Z" fill="#00FFFF"/>
        <path d="M30.7242 24.2881H23.9068L23.811 30.0647L30.7242 36.9991V24.2881Z" fill="#00FFFF"/>
        <path d="M28.1882 43.6911L23.048 38.5352H14.5156V43.2271L18.9493 47.6744H21.8345L23.113 46.392H28.1358L29.4143 47.6744H43.3284L39.3574 43.6911H28.1882Z" fill="#00FFFF"/>
        <path d="M37.1832 40.2921L37.083 40.1915L35.3088 38.4119L35.2085 38.3113V38.1696V32.1472V31.8043H35.5504H43.6053V30.1584H35.3521L33.1871 27.9856H43.4344L39.7471 24.2881H31.0654V37.8267L23.4662 30.2041L23.5642 24.2881H18.9983V28.9926L14.5156 33.4891V38.1924H23.1905L28.3306 43.3484H39.4986L43.6053 47.4677V40.2921H37.3245H37.1832Z" fill="#00FFFF"/>
        <path d="M42.6176 51.2366C42.5951 51.2367 42.5729 51.2323 42.5521 51.2237C42.5314 51.2151 42.5126 51.2024 42.4968 51.1863C42.4651 51.154 42.4473 51.1105 42.4473 51.0652C42.4473 51.0198 42.4651 50.9763 42.4968 50.944L49.6584 43.7615C49.6742 43.7455 49.693 43.7328 49.7137 43.7241C49.7345 43.7154 49.7567 43.7109 49.7792 43.7109C49.8017 43.7109 49.8239 43.7154 49.8446 43.7241C49.8654 43.7328 49.8842 43.7455 49.9 43.7615C49.9317 43.7938 49.9495 43.8374 49.9495 43.8827C49.9495 43.928 49.9317 43.9716 49.9 44.0039L42.7384 51.1863C42.7227 51.2025 42.7039 51.2153 42.6831 51.224C42.6624 51.2326 42.6401 51.2369 42.6176 51.2366Z" fill="#00FFFF"/>
    </g>
</svg>
