<svg width="60" height="60" viewBox="0 0 60 60" fill="none" xmlns="http://www.w3.org/2000/svg">
<g filter="url(#filter0_f_898_14902)">
<path d="M18.9675 50.9898L20.8978 52H39.1442L41.0745 50.9898L39.1442 49.9785H20.8978L18.9675 50.9898Z" fill="white"/>
<path d="M18.6478 8.12673L19.9012 10.8315C19.9135 10.8579 19.9205 10.8863 19.9217 10.9154C19.923 10.9444 19.9185 10.9734 19.9085 11.0007C19.8986 11.028 19.8833 11.053 19.8637 11.0744C19.8441 11.0958 19.8204 11.113 19.7941 11.1252C19.7679 11.1375 19.7394 11.1445 19.7105 11.1458C19.6815 11.147 19.6526 11.1425 19.6254 11.1325C19.5982 11.1226 19.5732 11.1073 19.5519 11.0876C19.5306 11.0679 19.5134 11.0442 19.5013 11.0178L18.249 8.31185C18.2367 8.28552 18.2297 8.25702 18.2285 8.22799C18.2272 8.19896 18.2317 8.16997 18.2417 8.14268C18.2516 8.11539 18.2668 8.09034 18.2865 8.06897C18.3061 8.0476 18.3298 8.03034 18.3561 8.01817C18.3823 8.00607 18.4107 7.99929 18.4396 7.9982C18.4685 7.99711 18.4973 8.00174 18.5244 8.01183C18.5515 8.02191 18.5763 8.03724 18.5975 8.05696C18.6187 8.07667 18.6358 8.10038 18.6478 8.12673Z" fill="white"/>
<path d="M19.8438 7.61034L20.9833 10.362C21.0062 10.4153 21.007 10.4756 20.9857 10.5296C20.9643 10.5836 20.9225 10.6269 20.8693 10.65C20.816 10.6729 20.7557 10.6738 20.7017 10.6524C20.6477 10.631 20.6043 10.589 20.581 10.5357L19.4416 7.78517C19.419 7.73163 19.4182 7.67131 19.4395 7.61723C19.4609 7.56316 19.5025 7.51964 19.5555 7.49607C19.6089 7.47339 19.6691 7.47266 19.723 7.49404C19.7769 7.51541 19.8203 7.55718 19.8438 7.61034Z" fill="white"/>
<path d="M21.06 7.14008L22.0924 9.93516C22.1024 9.96232 22.107 9.99119 22.1059 10.0201C22.1048 10.0491 22.098 10.0775 22.0859 10.1038C22.0739 10.1301 22.0568 10.1538 22.0356 10.1735C22.0144 10.1932 21.9896 10.2085 21.9625 10.2185C21.9354 10.2286 21.9066 10.2332 21.8777 10.2321C21.8489 10.231 21.8205 10.2242 21.7943 10.2121C21.768 10.2 21.7444 10.1829 21.7248 10.1616C21.7052 10.1404 21.6899 10.1154 21.6799 10.0883L20.6475 7.29435C20.6272 7.23933 20.6295 7.1785 20.6539 7.12517C20.6782 7.07184 20.7226 7.03036 20.7774 7.00981C20.8045 6.99976 20.8333 6.99515 20.8621 6.99625C20.891 6.99736 20.9194 7.00416 20.9456 7.01625C20.9719 7.02835 20.9955 7.04551 21.0151 7.06676C21.0347 7.088 21.05 7.11292 21.06 7.14008Z" fill="white"/>
<path d="M22.2875 6.72308L23.2093 9.55472C23.2184 9.58233 23.2219 9.61146 23.2197 9.64044C23.2175 9.66943 23.2096 9.69769 23.1965 9.7236C23.1833 9.74951 23.1652 9.77256 23.1432 9.79143C23.1211 9.8103 23.0956 9.82461 23.068 9.83355C23.0124 9.85158 22.9519 9.8468 22.8998 9.82025C22.8477 9.79369 22.8082 9.74753 22.79 9.69185L21.8682 6.8602C21.8502 6.80444 21.8549 6.7438 21.8814 6.69155C21.9079 6.6393 21.9539 6.59969 22.0094 6.58138C22.0651 6.56514 22.1248 6.57075 22.1764 6.59707C22.2281 6.62339 22.2678 6.66845 22.2875 6.72308Z" fill="white"/>
<path d="M23.5402 6.3458L24.3515 9.21287C24.3673 9.26939 24.3601 9.32988 24.3314 9.38107C24.3028 9.43227 24.2551 9.47 24.1988 9.48597C24.171 9.4938 24.1419 9.49604 24.1132 9.49258C24.0845 9.48912 24.0567 9.48001 24.0315 9.46579C24.0064 9.45157 23.9842 9.43251 23.9664 9.4097C23.9485 9.38689 23.9354 9.36077 23.9276 9.33285L23.1174 6.46692C23.1094 6.43901 23.107 6.40979 23.1103 6.38094C23.1136 6.35209 23.1226 6.32418 23.1366 6.2988C23.1507 6.27343 23.1697 6.25109 23.1924 6.23307C23.2151 6.21506 23.2411 6.20172 23.269 6.19382C23.325 6.17797 23.3851 6.18508 23.4359 6.21357C23.4868 6.24206 23.5243 6.28962 23.5402 6.3458Z" fill="white"/>
<path d="M24.7991 6.02711L25.4964 8.92389C25.5034 8.95203 25.5047 8.98127 25.5003 9.00993C25.4959 9.03859 25.4859 9.0661 25.4709 9.09085C25.4558 9.11561 25.4361 9.13713 25.4127 9.15418C25.3893 9.17122 25.3628 9.18344 25.3346 9.19014C25.3066 9.19711 25.2774 9.19844 25.2488 9.19405C25.2202 9.18965 25.1928 9.17962 25.1681 9.16453C25.1434 9.14944 25.122 9.1296 25.105 9.10614C25.088 9.08269 25.0758 9.05608 25.0691 9.02787L24.3706 6.1311C24.3638 6.10288 24.3627 6.0736 24.3672 6.04494C24.3717 6.01627 24.3819 5.98878 24.397 5.96405C24.4121 5.93931 24.432 5.91782 24.4554 5.9008C24.4789 5.88377 24.5054 5.87155 24.5336 5.86484C24.5616 5.85787 24.5908 5.85654 24.6194 5.86093C24.648 5.86533 24.6754 5.87536 24.7001 5.89045C24.7248 5.90554 24.7462 5.92538 24.7632 5.94884C24.7802 5.9723 24.7924 5.9989 24.7991 6.02711Z" fill="white"/>
<path d="M26.0732 5.75105L26.6566 8.67297C26.668 8.73024 26.6563 8.78971 26.624 8.83834C26.5918 8.88697 26.5416 8.92078 26.4845 8.93236C26.4274 8.94381 26.3681 8.93207 26.3196 8.89972C26.2711 8.86738 26.2374 8.81706 26.2259 8.75981L25.6425 5.83789C25.631 5.78062 25.6427 5.72115 25.675 5.67252C25.7073 5.62389 25.7574 5.59007 25.8145 5.5785C25.8716 5.56705 25.9309 5.57879 25.9794 5.61114C26.0279 5.64348 26.0616 5.6938 26.0732 5.75105Z" fill="white"/>
<path d="M27.3574 5.52802L27.8268 8.47051C27.8357 8.52837 27.8214 8.58739 27.787 8.6347C27.7526 8.68201 27.701 8.71377 27.6434 8.72305C27.5858 8.73227 27.5269 8.71819 27.4797 8.68391C27.4325 8.64963 27.4008 8.59794 27.3915 8.54022L26.9244 5.59773C26.9198 5.56906 26.921 5.53978 26.9277 5.51155C26.9345 5.48333 26.9468 5.45672 26.9638 5.43326C26.9808 5.4098 27.0023 5.38994 27.027 5.37483C27.0518 5.35972 27.0792 5.34964 27.1078 5.34519C27.165 5.33663 27.2233 5.35102 27.27 5.38524C27.3167 5.41946 27.3481 5.47076 27.3574 5.52802Z" fill="white"/>
<path d="M28.647 5.35602L29.0014 8.31222C29.0049 8.34104 29.0027 8.37027 28.9949 8.39823C28.9871 8.4262 28.9739 8.45234 28.956 8.47517C28.9381 8.49799 28.9159 8.51705 28.8906 8.53125C28.8654 8.54545 28.8376 8.5545 28.8088 8.5579C28.7801 8.56141 28.751 8.5592 28.7231 8.55138C28.6952 8.54357 28.6691 8.53031 28.6464 8.51236C28.6236 8.49442 28.6046 8.47215 28.5904 8.44682C28.5763 8.4215 28.5672 8.39362 28.5639 8.36478L28.2106 5.40744C28.2035 5.34941 28.2197 5.29093 28.2556 5.24486C28.2915 5.19879 28.3442 5.1689 28.402 5.16176C28.4309 5.15825 28.4601 5.16051 28.4881 5.1684C28.516 5.17628 28.5421 5.18964 28.5649 5.2077C28.5877 5.22576 28.6067 5.24817 28.6208 5.27362C28.6349 5.29908 28.6438 5.32708 28.647 5.35602Z" fill="white"/>
<path d="M29.9418 5.23414L30.1811 8.2052C30.1834 8.23409 30.18 8.26316 30.1712 8.29075C30.1623 8.31833 30.1481 8.34389 30.1293 8.36597C30.1106 8.38804 30.0877 8.4062 30.062 8.4194C30.0363 8.43259 30.0082 8.44057 29.9794 8.44288C29.9505 8.44538 29.9215 8.44212 29.8939 8.43328C29.8663 8.42444 29.8408 8.4102 29.8187 8.39139C29.7967 8.37258 29.7786 8.34956 29.7655 8.32368C29.7524 8.2978 29.7445 8.26957 29.7424 8.24062L29.5031 5.26957C29.4987 5.21111 29.5175 5.15327 29.5555 5.10873C29.5936 5.06418 29.6476 5.03655 29.7059 5.03188C29.7639 5.02747 29.8213 5.04627 29.8655 5.08417C29.9097 5.12208 29.9371 5.176 29.9418 5.23414Z" fill="white"/>
<path d="M17.622 7.6624C17.5844 7.66244 17.5478 7.65001 17.5179 7.62703C17.488 7.60405 17.4665 7.57182 17.4567 7.53534C17.447 7.49886 17.4495 7.46017 17.464 7.42529C17.4784 7.3904 17.5039 7.36128 17.5366 7.34244C21.3042 5.16872 25.5715 4.01675 29.9181 4C29.9635 4 30.0069 4.01806 30.039 4.0502C30.071 4.08235 30.0891 4.12595 30.0891 4.17141C30.0891 4.21687 30.071 4.26046 30.039 4.29261C30.0069 4.32475 29.9635 4.34281 29.9181 4.34281C25.631 4.35875 21.4221 5.495 17.7064 7.63954C17.6805 7.65394 17.6516 7.66179 17.622 7.6624Z" fill="white"/>
<mask id="path-13-outside-1_898_14902" maskUnits="userSpaceOnUse" x="50.8887" y="29.4736" width="5" height="12" fill="black">
<rect fill="white" x="50.8887" y="29.4736" width="5" height="12"/>
<path d="M52.0587 40.8122C52.0309 40.8124 52.0035 40.8057 51.9789 40.7927C51.9395 40.7716 51.91 40.7358 51.8966 40.6931C51.8832 40.6504 51.8869 40.6041 51.9071 40.5642C53.5154 37.4875 54.453 34.103 54.6578 30.6351C54.6592 30.6126 54.6649 30.5906 54.6747 30.5703C54.6846 30.55 54.6983 30.5318 54.7151 30.5169C54.7319 30.5019 54.7515 30.4904 54.7728 30.4831C54.794 30.4757 54.8165 30.4726 54.839 30.4739C54.8614 30.4753 54.8834 30.4811 54.9036 30.4909C54.9238 30.5008 54.9419 30.5146 54.9568 30.5314C54.9718 30.5483 54.9832 30.568 54.9906 30.5893C54.9979 30.6106 55.001 30.6332 54.9996 30.6557C54.7913 34.1718 53.8404 37.6033 52.2102 40.723C52.1954 40.7503 52.1734 40.7729 52.1467 40.7886C52.12 40.8043 52.0896 40.8125 52.0587 40.8122Z"/>
</mask>
<path d="M52.0587 40.8122C52.0309 40.8124 52.0035 40.8057 51.9789 40.7927C51.9395 40.7716 51.91 40.7358 51.8966 40.6931C51.8832 40.6504 51.8869 40.6041 51.9071 40.5642C53.5154 37.4875 54.453 34.103 54.6578 30.6351C54.6592 30.6126 54.6649 30.5906 54.6747 30.5703C54.6846 30.55 54.6983 30.5318 54.7151 30.5169C54.7319 30.5019 54.7515 30.4904 54.7728 30.4831C54.794 30.4757 54.8165 30.4726 54.839 30.4739C54.8614 30.4753 54.8834 30.4811 54.9036 30.4909C54.9238 30.5008 54.9419 30.5146 54.9568 30.5314C54.9718 30.5483 54.9832 30.568 54.9906 30.5893C54.9979 30.6106 55.001 30.6332 54.9996 30.6557C54.7913 34.1718 53.8404 37.6033 52.2102 40.723C52.1954 40.7503 52.1734 40.7729 52.1467 40.7886C52.12 40.8043 52.0896 40.8125 52.0587 40.8122Z" fill="#FF0049"/>
<path d="M51.9789 40.7927L51.7423 41.2332L51.7456 41.235L51.9789 40.7927ZM51.9071 40.5642L51.464 40.3325L51.4608 40.3388L51.9071 40.5642ZM54.6578 30.6351L54.1587 30.6052L54.1587 30.6056L54.6578 30.6351ZM54.9996 30.6557L54.5005 30.6258L54.5005 30.6261L54.9996 30.6557ZM52.2102 40.723L52.6492 40.9625L52.6534 40.9546L52.2102 40.723ZM52.0549 40.3122C52.1097 40.3118 52.1637 40.325 52.2122 40.3505L51.7456 41.235C51.8432 41.2865 51.9521 41.313 52.0625 41.3122L52.0549 40.3122ZM52.2155 40.3523C52.2914 40.3931 52.348 40.4618 52.3736 40.5433L51.4195 40.8429C51.472 41.0099 51.5876 41.1501 51.7423 41.2332L52.2155 40.3523ZM52.3736 40.5433C52.3992 40.6248 52.392 40.7131 52.3535 40.7895L51.4608 40.3388C51.3819 40.4951 51.3671 40.676 51.4195 40.8429L52.3736 40.5433ZM52.3502 40.7958C53.9913 37.6564 54.948 34.203 55.1569 30.6646L54.1587 30.6056C53.9581 34.003 53.0395 37.3186 51.464 40.3325L52.3502 40.7958ZM55.1569 30.665C55.1544 30.7078 55.1434 30.7497 55.1247 30.7884L54.2248 30.3522C54.1864 30.4314 54.164 30.5174 54.1587 30.6052L55.1569 30.665ZM55.1247 30.7884C55.1059 30.8271 55.0797 30.8618 55.0474 30.8905L54.3828 30.1433C54.3169 30.2019 54.2633 30.2729 54.2248 30.3522L55.1247 30.7884ZM55.0474 30.8905C55.0152 30.9192 54.9775 30.9413 54.9366 30.9555L54.609 30.0106C54.5256 30.0396 54.4487 30.0847 54.3828 30.1433L55.0474 30.8905ZM54.9366 30.9555C54.8956 30.9697 54.8523 30.9756 54.8089 30.973L54.869 29.9748C54.7808 29.9695 54.6925 29.9817 54.609 30.0106L54.9366 30.9555ZM54.8089 30.973C54.7657 30.9704 54.7233 30.9593 54.6844 30.9403L55.1228 30.0415C55.0435 30.0028 54.9572 29.9802 54.869 29.9748L54.8089 30.973ZM54.6844 30.9403C54.6455 30.9213 54.6108 30.8949 54.5822 30.8626L55.3314 30.2003C55.273 30.1342 55.2022 30.0802 55.1228 30.0415L54.6844 30.9403ZM54.5822 30.8626C54.5537 30.8303 54.5318 30.7928 54.5178 30.7522L55.4633 30.4264C55.4346 30.3432 55.3898 30.2663 55.3314 30.2003L54.5822 30.8626ZM54.5178 30.7522C54.5038 30.7115 54.498 30.6686 54.5005 30.6258L55.4988 30.6855C55.504 30.5977 55.492 30.5097 55.4633 30.4264L54.5178 30.7522ZM54.5005 30.6261C54.2963 34.0717 53.3646 37.4344 51.7671 40.4915L52.6534 40.9546C54.3163 37.7722 55.2862 34.2718 55.4988 30.6853L54.5005 30.6261ZM51.7713 40.4836C51.7997 40.4315 51.8418 40.3879 51.8932 40.3577L52.4002 41.2196C52.5051 41.1579 52.591 41.069 52.6492 40.9624L51.7713 40.4836ZM51.8932 40.3577C51.9447 40.3274 52.0035 40.3116 52.0634 40.3122L52.054 41.3122C52.1757 41.3133 52.2954 41.2813 52.4002 41.2196L51.8932 40.3577Z" fill="#FF005C" mask="url(#path-13-outside-1_898_14902)"/>
<mask id="path-15-outside-2_898_14902" maskUnits="userSpaceOnUse" x="4" y="8.62598" width="15" height="43" fill="black">
<rect fill="white" x="4" y="8.62598" width="15" height="43"/>
<path d="M16.4393 50.1458C16.406 50.146 16.3734 50.136 16.3458 50.1172C13.0517 47.96 10.3109 45.0543 8.34589 41.6357C6.38085 38.2172 5.24688 34.3822 5.03599 30.4418C4.8251 26.5014 5.54323 22.5666 7.13211 18.9567C8.72099 15.3468 11.1359 12.1634 14.1808 9.66489C14.2149 9.63684 14.2585 9.62308 14.3024 9.62649C14.3464 9.62989 14.3873 9.65021 14.4167 9.68318L16.3014 11.8171C16.3316 11.8511 16.3471 11.8957 16.3446 11.9411C16.342 11.9866 16.3216 12.0291 16.2877 12.0594C16.2539 12.0897 16.2094 12.1053 16.1641 12.1028C16.1188 12.1002 16.0764 12.0797 16.0461 12.0457L14.2743 10.0398C11.3068 12.5075 8.95675 15.638 7.41224 19.1805C5.86774 22.723 5.17173 26.579 5.37996 30.4398C5.58819 34.3006 6.69488 38.0589 8.61139 41.4135C10.5279 44.7682 13.201 47.6261 16.4165 49.7583L17.9605 48.2027C17.9761 48.1858 17.995 48.1723 18.016 48.163C18.0369 48.1536 18.0596 48.1486 18.0825 48.1482C18.1055 48.1477 18.1282 48.152 18.1495 48.1606C18.1708 48.1692 18.1901 48.1821 18.2064 48.1983C18.2226 48.2146 18.2354 48.234 18.244 48.2554C18.2526 48.2767 18.2568 48.2996 18.2564 48.3226C18.256 48.3456 18.251 48.3683 18.2416 48.3893C18.2323 48.4104 18.2188 48.4293 18.202 48.445L16.5532 50.1C16.5222 50.129 16.4816 50.1453 16.4393 50.1458Z"/>
</mask>
<path d="M16.4393 50.1458C16.406 50.146 16.3734 50.136 16.3458 50.1172C13.0517 47.96 10.3109 45.0543 8.34589 41.6357C6.38085 38.2172 5.24688 34.3822 5.03599 30.4418C4.8251 26.5014 5.54323 22.5666 7.13211 18.9567C8.72099 15.3468 11.1359 12.1634 14.1808 9.66489C14.2149 9.63684 14.2585 9.62308 14.3024 9.62649C14.3464 9.62989 14.3873 9.65021 14.4167 9.68318L16.3014 11.8171C16.3316 11.8511 16.3471 11.8957 16.3446 11.9411C16.342 11.9866 16.3216 12.0291 16.2877 12.0594C16.2539 12.0897 16.2094 12.1053 16.1641 12.1028C16.1188 12.1002 16.0764 12.0797 16.0461 12.0457L14.2743 10.0398C11.3068 12.5075 8.95675 15.638 7.41224 19.1805C5.86774 22.723 5.17173 26.579 5.37996 30.4398C5.58819 34.3006 6.69488 38.0589 8.61139 41.4135C10.5279 44.7682 13.201 47.6261 16.4165 49.7583L17.9605 48.2027C17.9761 48.1858 17.995 48.1723 18.016 48.163C18.0369 48.1536 18.0596 48.1486 18.0825 48.1482C18.1055 48.1477 18.1282 48.152 18.1495 48.1606C18.1708 48.1692 18.1901 48.1821 18.2064 48.1983C18.2226 48.2146 18.2354 48.234 18.244 48.2554C18.2526 48.2767 18.2568 48.2996 18.2564 48.3226C18.256 48.3456 18.251 48.3683 18.2416 48.3893C18.2323 48.4104 18.2188 48.4293 18.202 48.445L16.5532 50.1C16.5222 50.129 16.4816 50.1453 16.4393 50.1458Z" fill="#FF0049"/>
<path d="M16.4393 50.1458L16.4424 50.6457L16.4446 50.6457L16.4393 50.1458ZM16.3458 50.1172L16.628 49.7043L16.6198 49.6989L16.3458 50.1172ZM14.1808 9.66489L14.498 10.0514L14.4986 10.0509L14.1808 9.66489ZM14.4167 9.68318L14.7915 9.35219L14.79 9.35057L14.4167 9.68318ZM16.3014 11.8171L15.9266 12.1481L15.9279 12.1496L16.3014 11.8171ZM16.0461 12.0457L15.6714 12.3767L15.6727 12.3782L16.0461 12.0457ZM14.2743 10.0398L14.649 9.70877L14.3277 9.34504L13.9546 9.65535L14.2743 10.0398ZM16.4165 49.7583L16.1402 50.175L16.4822 50.4018L16.7714 50.1105L16.4165 49.7583ZM17.9605 48.2027L18.3153 48.5549L18.3212 48.549L18.3268 48.543L17.9605 48.2027ZM18.202 48.445L17.8606 48.0797L17.8541 48.0858L17.8478 48.0921L18.202 48.445ZM16.5532 50.1L16.8947 50.4653L16.9012 50.4592L16.9074 50.4529L16.5532 50.1ZM16.4361 49.6458C16.5047 49.6453 16.5716 49.6658 16.628 49.7044L16.0637 50.53C16.1751 50.6062 16.3073 50.6466 16.4424 50.6457L16.4361 49.6458ZM16.6198 49.6989C13.3915 47.5848 10.7053 44.7371 8.77938 41.3866L7.91241 41.8849C9.91655 45.3715 12.7119 48.3352 16.0719 50.5355L16.6198 49.6989ZM8.77938 41.3866C6.85344 38.0361 5.74198 34.2772 5.53528 30.415L4.5367 30.4685C4.75178 34.4871 5.90826 38.3984 7.91241 41.8849L8.77938 41.3866ZM5.53528 30.415C5.32857 26.5529 6.03245 22.6963 7.58974 19.1581L6.67448 18.7553C5.05401 22.4369 4.32163 26.4499 4.5367 30.4685L5.53528 30.415ZM7.58974 19.1581C9.14703 15.62 11.5138 12.5001 14.498 10.0514L13.8637 9.27836C10.7579 11.8268 8.29495 15.0736 6.67448 18.7553L7.58974 19.1581ZM14.4986 10.0509C14.433 10.1049 14.3489 10.1316 14.2638 10.125L14.3411 9.12798C14.1681 9.11457 13.9968 9.16876 13.8631 9.27885L14.4986 10.0509ZM14.2638 10.125C14.1787 10.1184 14.0998 10.0791 14.0434 10.0158L14.79 9.35057C14.6749 9.22133 14.5141 9.1414 14.3411 9.12798L14.2638 10.125ZM14.0419 10.0142L15.9266 12.1481L16.6762 11.4861L14.7915 9.35219L14.0419 10.0142ZM15.9279 12.1496C15.87 12.0845 15.8405 11.9994 15.8454 11.9129L16.8438 11.9693C16.8538 11.7919 16.7932 11.6176 16.6749 11.4847L15.9279 12.1496ZM15.8454 11.9129C15.8503 11.8265 15.8892 11.7451 15.9541 11.687L16.6213 12.4319C16.7539 12.3131 16.8338 12.1466 16.8438 11.9693L15.8454 11.9129ZM15.9541 11.687C16.0192 11.6287 16.1049 11.5986 16.1924 11.6036L16.1358 12.602C16.3139 12.6121 16.4886 12.5507 16.6213 12.4319L15.9541 11.687ZM16.1924 11.6036C16.28 11.6085 16.3617 11.6482 16.4196 11.7133L15.6727 12.3782C15.7911 12.5112 15.9576 12.5918 16.1358 12.602L16.1924 11.6036ZM16.4209 11.7147L14.649 9.70877L13.8995 10.3708L15.6714 12.3767L16.4209 11.7147ZM13.9546 9.65535C10.9271 12.173 8.52955 15.3667 6.95391 18.9806L7.87057 19.3803C9.38395 15.9092 11.6866 12.842 14.594 10.4242L13.9546 9.65535ZM6.95391 18.9806C5.37827 22.5945 4.66826 26.5282 4.88068 30.4668L5.87923 30.4129C5.67519 26.6298 6.3572 22.8514 7.87057 19.3803L6.95391 18.9806ZM4.88068 30.4668C5.09311 34.4053 6.22207 38.2392 8.17724 41.6616L9.04553 41.1655C7.16769 37.8785 6.08327 34.196 5.87923 30.4129L4.88068 30.4668ZM8.17724 41.6616C10.1324 45.0839 12.8595 47.9996 16.1402 50.175L16.6928 49.3416C13.5424 47.2526 10.9234 44.4525 9.04553 41.1655L8.17724 41.6616ZM16.7714 50.1105L18.3153 48.5549L17.6056 47.8505L16.0616 49.4061L16.7714 50.1105ZM18.3268 48.543C18.2967 48.5753 18.2604 48.6014 18.22 48.6194L17.8119 47.7065C17.7296 47.7433 17.6555 47.7963 17.5941 47.8624L18.3268 48.543ZM18.22 48.6194C18.1795 48.6375 18.1358 48.6473 18.0914 48.6481L18.0737 47.6482C17.9833 47.6498 17.8943 47.6697 17.8119 47.7065L18.22 48.6194ZM18.0914 48.6481C18.0469 48.6489 18.0029 48.6407 17.9618 48.624L18.3373 47.6972C18.2536 47.6633 18.164 47.6466 18.0737 47.6482L18.0914 48.6481ZM17.9618 48.624C17.9207 48.6074 17.8835 48.5827 17.8523 48.5513L18.5605 47.8453C18.4968 47.7814 18.4209 47.7311 18.3373 47.6972L17.9618 48.624ZM17.8523 48.5513C17.8211 48.5201 17.7966 48.4829 17.7802 48.4421L18.7078 48.0686C18.6742 47.9851 18.6241 47.9092 18.5605 47.8453L17.8523 48.5513ZM17.7802 48.4421C17.7638 48.4013 17.7557 48.3577 17.7565 48.3138L18.7563 48.3314C18.7579 48.2415 18.7414 48.1521 18.7078 48.0686L17.7802 48.4421ZM17.7565 48.3138C17.7573 48.2699 17.7668 48.2266 17.7847 48.1864L18.6986 48.5923C18.7351 48.5101 18.7548 48.4213 18.7563 48.3314L17.7565 48.3138ZM17.7847 48.1864C17.8025 48.1462 17.8283 48.1099 17.8606 48.0797L18.5435 48.8103C18.6093 48.7487 18.6621 48.6746 18.6986 48.5923L17.7847 48.1864ZM17.8478 48.0921L16.199 49.7471L16.9074 50.4529L18.5563 48.7979L17.8478 48.0921ZM16.2117 49.7348C16.2719 49.6786 16.3511 49.6467 16.4339 49.6458L16.4446 50.6457C16.6121 50.6439 16.7726 50.5794 16.8947 50.4653L16.2117 49.7348Z" fill="#FF005C" mask="url(#path-15-outside-2_898_14902)"/>
<mask id="path-17-outside-3_898_14902" maskUnits="userSpaceOnUse" x="7.31445" y="15.4551" width="6" height="30" fill="black">
<rect fill="white" x="7.31445" y="15.4551" width="6" height="30"/>
<path d="M10.2242 44.3437C10.1969 44.3438 10.17 44.3375 10.1455 44.3254C10.106 44.3044 10.0761 44.2688 10.0623 44.2262C10.0485 44.1835 10.0518 44.1371 10.0715 44.0968L12.0211 40.2907C10.133 37.2232 9.05187 33.7252 8.87908 30.1243C8.70629 26.5234 9.44747 22.9374 11.0332 19.7022L8.3691 16.7522C8.3517 16.736 8.33786 16.7163 8.32846 16.6945C8.31905 16.6726 8.31428 16.6491 8.31446 16.6253C8.31463 16.6014 8.31975 16.5779 8.32948 16.5562C8.33921 16.5345 8.35334 16.5151 8.37097 16.4991C8.3886 16.4832 8.40935 16.4711 8.43189 16.4637C8.45443 16.4562 8.47826 16.4536 8.50188 16.4559C8.5255 16.4582 8.54839 16.4654 8.56908 16.477C8.58977 16.4887 8.60781 16.5046 8.62206 16.5236L11.3648 19.5605C11.3881 19.586 11.4031 19.6181 11.4078 19.6524C11.4125 19.6867 11.4066 19.7216 11.391 19.7525C9.7975 22.9586 9.05005 26.521 9.22001 30.0994C9.38997 33.6778 10.4717 37.1527 12.3618 40.1924C12.3776 40.2177 12.3867 40.2467 12.3881 40.2765C12.3895 40.3063 12.3832 40.336 12.3698 40.3627L10.3757 44.2488C10.3618 44.2773 10.3403 44.3013 10.3135 44.318C10.2867 44.3348 10.2557 44.3437 10.2242 44.3437Z"/>
</mask>
<path d="M10.2242 44.3437C10.1969 44.3438 10.17 44.3375 10.1455 44.3254C10.106 44.3044 10.0761 44.2688 10.0623 44.2262C10.0485 44.1835 10.0518 44.1371 10.0715 44.0968L12.0211 40.2907C10.133 37.2232 9.05187 33.7252 8.87908 30.1243C8.70629 26.5234 9.44747 22.9374 11.0332 19.7022L8.3691 16.7522C8.3517 16.736 8.33786 16.7163 8.32846 16.6945C8.31905 16.6726 8.31428 16.6491 8.31446 16.6253C8.31463 16.6014 8.31975 16.5779 8.32948 16.5562C8.33921 16.5345 8.35334 16.5151 8.37097 16.4991C8.3886 16.4832 8.40935 16.4711 8.43189 16.4637C8.45443 16.4562 8.47826 16.4536 8.50188 16.4559C8.5255 16.4582 8.54839 16.4654 8.56908 16.477C8.58977 16.4887 8.60781 16.5046 8.62206 16.5236L11.3648 19.5605C11.3881 19.586 11.4031 19.6181 11.4078 19.6524C11.4125 19.6867 11.4066 19.7216 11.391 19.7525C9.7975 22.9586 9.05005 26.521 9.22001 30.0994C9.38997 33.6778 10.4717 37.1527 12.3618 40.1924C12.3776 40.2177 12.3867 40.2467 12.3881 40.2765C12.3895 40.3063 12.3832 40.336 12.3698 40.3627L10.3757 44.2488C10.3618 44.2773 10.3403 44.3013 10.3135 44.318C10.2867 44.3348 10.2557 44.3437 10.2242 44.3437Z" fill="#FF0049"/>
<path d="M10.1455 44.3254L9.91122 44.7673L9.92375 44.7735L10.1455 44.3254ZM10.0715 44.0968L9.62638 43.8688L9.62231 43.8771L10.0715 44.0968ZM12.0211 40.2907L12.4661 40.5186L12.5944 40.2682L12.4469 40.0286L12.0211 40.2907ZM11.0332 19.7022L11.4822 19.9223L11.6311 19.6183L11.4043 19.3671L11.0332 19.7022ZM8.3691 16.7522L8.74018 16.4171L8.72566 16.401L8.70981 16.3862L8.3691 16.7522ZM8.62206 16.5236L8.22177 16.8232L8.23556 16.8416L8.25099 16.8587L8.62206 16.5236ZM11.3648 19.5605L10.9937 19.8956L10.9955 19.8976L11.3648 19.5605ZM11.391 19.7525L10.9447 19.5269L10.9432 19.53L11.391 19.7525ZM12.3618 40.1924L11.9372 40.4564L11.9378 40.4573L12.3618 40.1924ZM12.3698 40.3627L12.8147 40.591L12.8168 40.5868L12.3698 40.3627ZM10.3757 44.2488L9.93077 44.0205L9.92625 44.0298L10.3757 44.2488ZM10.3135 44.318L10.5788 44.7418L10.3135 44.318ZM10.2228 43.8437C10.273 43.8435 10.3224 43.8551 10.3673 43.8773L9.92375 44.7735C10.0175 44.8199 10.1208 44.844 10.2255 44.8437L10.2228 43.8437ZM10.3798 43.8837C10.4553 43.9237 10.5118 43.9914 10.538 44.072L9.58666 44.3803C9.64044 44.5463 9.75671 44.6852 9.91132 44.7671L10.3798 43.8837ZM10.538 44.072C10.5641 44.1526 10.5579 44.2403 10.5206 44.3165L9.62231 43.8771C9.54564 44.0339 9.53289 44.2143 9.58666 44.3803L10.538 44.072ZM10.5165 44.3248L12.4661 40.5186L11.5761 40.0627L9.62646 43.8688L10.5165 44.3248ZM12.4469 40.0286C10.6031 37.0331 9.54725 33.617 9.37851 30.1003L8.37966 30.1483C8.55649 33.8334 9.66288 37.4133 11.5953 40.5528L12.4469 40.0286ZM9.37851 30.1003C9.20976 26.5837 9.93361 23.0816 11.4822 19.9223L10.5842 19.4822C8.96134 22.7932 8.20283 26.4631 8.37966 30.1483L9.37851 30.1003ZM11.4043 19.3671L8.74018 16.4171L7.99802 17.0873L10.6621 20.0373L11.4043 19.3671ZM8.70981 16.3862C8.74324 16.4174 8.76974 16.455 8.78771 16.4968L7.8692 16.8922C7.90599 16.9776 7.96017 17.0546 8.02839 17.1181L8.70981 16.3862ZM8.78771 16.4968C8.80569 16.5386 8.81478 16.5836 8.81444 16.629L7.81447 16.6215C7.81378 16.7146 7.83241 16.8067 7.8692 16.8922L8.78771 16.4968ZM8.81444 16.629C8.81411 16.6744 8.80435 16.7192 8.78576 16.7607L7.8732 16.3518C7.83515 16.4367 7.81516 16.5285 7.81447 16.6215L8.81444 16.629ZM8.78576 16.7607C8.76716 16.8022 8.74011 16.8395 8.7062 16.8701L8.03574 16.1282C7.96657 16.1907 7.91125 16.2668 7.8732 16.3518L8.78576 16.7607ZM8.7062 16.8701C8.6723 16.9007 8.63233 16.924 8.58879 16.9384L8.27498 15.9889C8.18637 16.0182 8.1049 16.0657 8.03574 16.1282L8.7062 16.8701ZM8.58879 16.9384C8.54524 16.9528 8.49914 16.958 8.45344 16.9535L8.55033 15.9582C8.45739 15.9492 8.36361 15.9597 8.27498 15.9889L8.58879 16.9384ZM8.45344 16.9535C8.40772 16.9491 8.36352 16.9351 8.32365 16.9127L8.81451 16.0414C8.73325 15.9956 8.64329 15.9673 8.55033 15.9582L8.45344 16.9535ZM8.32365 16.9127C8.28378 16.8902 8.2491 16.8597 8.22177 16.8232L9.02235 16.224C8.96653 16.1494 8.89576 16.0872 8.81451 16.0414L8.32365 16.9127ZM8.25099 16.8587L10.9937 19.8956L11.7359 19.2254L8.99313 16.1885L8.25099 16.8587ZM10.9955 19.8976C10.9503 19.848 10.9214 19.7861 10.9124 19.72L11.9032 19.5848C11.8848 19.4501 11.8259 19.324 11.7341 19.2234L10.9955 19.8976ZM10.9124 19.72C10.9033 19.6539 10.9146 19.5866 10.9448 19.5269L11.8372 19.9781C11.8986 19.8566 11.9216 19.7195 11.9032 19.5848L10.9124 19.72ZM10.9432 19.53C9.31179 22.8125 8.54657 26.4596 8.72057 30.1231L9.71945 30.0757C9.55353 26.5824 10.2832 23.1048 11.8387 19.975L10.9432 19.53ZM8.72057 30.1231C8.89458 33.7866 10.002 37.3443 11.9372 40.4564L12.7864 39.9284C10.9414 36.9612 9.88537 33.569 9.71945 30.0757L8.72057 30.1231ZM11.9378 40.4573C11.9081 40.4098 11.8912 40.3556 11.8886 40.2999L12.8875 40.2531C12.8821 40.1377 12.8472 40.0256 12.7859 39.9275L11.9378 40.4573ZM11.8886 40.2999C11.886 40.2441 11.8978 40.1886 11.9228 40.1386L12.8168 40.5868C12.8686 40.4834 12.8929 40.3685 12.8875 40.2531L11.8886 40.2999ZM11.9249 40.1344L9.93086 44.0206L10.8206 44.4771L12.8147 40.591L11.9249 40.1344ZM9.92625 44.0298C9.95333 43.9742 9.99553 43.9272 10.0482 43.8942L10.5788 44.7418C10.685 44.6753 10.7704 44.5804 10.8252 44.4679L9.92625 44.0298ZM10.0482 43.8942C10.1009 43.8612 10.1619 43.8437 10.2243 43.8437L10.224 44.8437C10.3496 44.8437 10.4725 44.8084 10.5788 44.7418L10.0482 43.8942Z" fill="#FF005C" mask="url(#path-17-outside-3_898_14902)"/>
<path d="M35.1323 23.9232C35.1552 23.2337 35.0397 22.5467 34.7924 21.9029C34.5452 21.2592 34.1714 20.6719 33.6932 20.176C33.2151 19.6801 32.6424 19.2858 32.0092 19.0165C31.376 18.7472 30.6953 18.6084 30.0075 18.6084C29.3198 18.6084 28.639 18.7472 28.0058 19.0165C27.3727 19.2858 26.8 19.6801 26.3218 20.176C25.8437 20.6719 25.4699 21.2592 25.2226 21.9029C24.9754 22.5467 24.8598 23.2337 24.8827 23.9232" fill="#FF0049"/>
<path d="M37.4191 23.9236C37.4191 21.9521 36.6383 20.0614 35.2486 18.6674C33.8588 17.2734 31.9739 16.4902 30.0085 16.4902C28.0431 16.4902 26.1582 17.2734 24.7684 18.6674C23.3787 20.0614 22.5979 21.9521 22.5979 23.9236M24.5418 23.9236C24.5182 23.1886 24.6421 22.4563 24.9062 21.7703C25.1702 21.0843 25.5691 20.4586 26.0791 19.9303C26.589 19.4019 27.1997 18.9819 27.8747 18.695C28.5497 18.4081 29.2754 18.2602 30.0085 18.2602C30.7416 18.2602 31.4672 18.4081 32.1423 18.695C32.8173 18.9819 33.4279 19.4019 33.9379 19.9303C34.4479 20.4586 34.8467 21.0843 35.1108 21.7703C35.3749 22.4563 35.4988 23.1886 35.4751 23.9236" fill="#FF0049"/>
<path d="M40.4741 13.6215L42.3884 15.5401C42.3813 14.661 42.1244 13.8022 41.6478 13.0643C41.1712 12.3265 40.4947 11.7402 39.6975 11.3744C38.9004 11.0085 38.0158 10.8782 37.1474 10.9987C36.2791 11.1193 35.463 11.4856 34.7949 12.0549L36.3571 13.6215H40.4741Z" fill="#FF0049"/>
<path d="M39.3171 19.941C40.1454 19.646 40.8727 19.1204 41.4138 18.4258H39.3171V19.941Z" fill="#FF0049"/>
<path d="M40.3349 13.9661H36.2179L34.5441 12.2871C33.9574 12.8663 33.5362 13.5925 33.3241 14.3903C33.1121 15.1881 33.1171 16.0284 33.3385 16.8236C34.8594 17.4932 36.1133 18.654 36.9005 20.1211C37.589 20.2563 38.2993 20.2313 38.9766 20.0479V18.0832H41.6578C42.0587 17.4594 42.3034 16.7477 42.3711 16.0086L40.3349 13.9661Z" fill="#FF0049"/>
<path d="M18.7588 13.2139C18.1148 13.2484 17.4937 13.465 16.9672 13.8386C16.4407 14.2122 16.0303 14.7276 15.7834 15.3252C15.5365 15.9228 15.4632 16.5783 15.5719 17.216C15.6806 17.8536 15.9669 18.4474 16.3978 18.9288L18.7588 16.5617V13.2139Z" fill="#FF0049"/>
<path d="M19.1002 13.2139V16.7045L16.6389 19.1722C17.0444 19.5433 17.533 19.811 18.0634 19.9527C18.5938 20.0943 19.1505 20.1058 19.6862 19.9861C20.222 19.8664 20.7211 19.619 21.1415 19.2649C21.5618 18.9108 21.8909 18.4604 22.101 17.9517C22.3111 17.4431 22.3961 16.8912 22.3486 16.3426C22.3011 15.7941 22.1227 15.2651 21.8283 14.8004C21.534 14.3357 21.1324 13.9489 20.6575 13.6727C20.1827 13.3966 19.6485 13.2392 19.1002 13.2139Z" fill="#FF0049"/>
<path opacity="0.52" d="M38.3245 35.5726L39.4206 36.6719H41.335V34.0322H38.3598L38.3245 35.5726Z" fill="#FF0049"/>
<path d="M39.2779 37.0162L37.9789 35.7132L38.0233 33.6901H41.6753V36.7568L45.8458 39.7399V33.321L44.6038 32.1494H36.5488V38.1718L38.323 39.9514H45.5518L41.4497 37.0162H39.2779Z" fill="#FF0049"/>
<path d="M38.3242 35.5716L39.4204 36.6709H41.3347V34.0312H38.3595L38.3242 35.5716Z" fill="#FF0049"/>
<path d="M19.6565 24.2881H15.5156V33.0044L19.6565 28.8509V24.2881Z" fill="#00FFFF"/>
<path d="M24.2567 46.7363L23.3201 47.6756H29.9336L28.9969 46.7363H24.2567Z" fill="#00FFFF"/>
<path d="M36.4943 29.8167H44.6062V28.3301H35.0129L36.4943 29.8167Z" fill="#00FFFF"/>
<path d="M31.724 24.2881H24.9065L24.8108 30.0647L31.724 36.9991V24.2881Z" fill="#00FFFF"/>
<path d="M29.1882 43.6911L24.048 38.5352H15.5156V43.2271L19.9493 47.6744H22.8345L24.113 46.392H29.1358L30.4143 47.6744H44.3284L40.3574 43.6911H29.1882Z" fill="#00FFFF"/>
<g filter="url(#filter1_d_898_14902)">
<path d="M38.1832 40.2921L38.083 40.1915L36.3088 38.4119L36.2085 38.3113V38.1696V32.1472V31.8043H36.5504H44.6053V30.1584H36.3521L34.1871 27.9856H44.4344L40.7471 24.2881H32.0654V37.8267L24.4662 30.2041L24.5642 24.2881H19.9983V28.9926L15.5156 33.4891V38.1924H24.1905L29.3306 43.3484H40.4986L44.6053 47.4677V40.2921H38.3245H38.1832Z" fill="#00FFFF"/>
<path d="M38.1832 40.2921L38.083 40.1915L36.3088 38.4119L36.2085 38.3113V38.1696V32.1472V31.8043H36.5504H44.6053V30.1584H36.3521L34.1871 27.9856H44.4344L40.7471 24.2881H32.0654V37.8267L24.4662 30.2041L24.5642 24.2881H19.9983V28.9926L15.5156 33.4891V38.1924H24.1905L29.3306 43.3484H40.4986L44.6053 47.4677V40.2921H38.3245H38.1832Z" stroke="#00FFFF"/>
</g>
<path d="M50.7256 30.9354L50.7257 30.9353L54.4362 27.2134C53.6928 17.3301 46.9736 8.788 37.5918 5.74417V8.19849C37.5918 8.31002 37.5477 8.41713 37.4688 8.49623L37.2918 8.31973L37.4688 8.49623C37.3899 8.57536 37.2828 8.61994 37.1709 8.61994C37.059 8.61994 36.9519 8.57536 36.873 8.49623L37.0501 8.31973L36.873 8.49623C36.7942 8.41713 36.75 8.31002 36.75 8.19849V5.17221V5.17189H37L50.7256 30.9354ZM50.7256 30.9354C50.6669 30.9944 50.627 31.0694 50.6108 31.151C50.5947 31.2325 50.6029 31.317 50.6347 31.3939C50.6664 31.4708 50.7202 31.5366 50.7894 31.583C50.8577 31.6289 50.938 31.6537 51.0203 31.6544M50.7256 30.9354L51.3117 31.546M51.3117 31.546L51.3114 31.5457C51.2316 31.6175 51.1276 31.6563 51.0203 31.6544M51.3117 31.546L51.3214 31.5363L55.166 27.6787C55.209 27.6364 55.2424 27.5853 55.2637 27.5289L55.0299 27.4404M51.3117 31.546L55.0299 27.4404M51.0203 31.6544C51.0192 31.6543 51.0182 31.6543 51.0171 31.6543L51.0235 31.4044L51.0233 31.6544C51.0223 31.6544 51.0213 31.6544 51.0203 31.6544ZM55.0299 27.4404L55.2637 27.5288C55.2851 27.4723 55.2939 27.4118 55.2896 27.3516C54.9397 22.1966 53.0287 17.2717 49.8122 13.2358C46.5957 9.19992 42.2271 6.2455 37.2908 4.76791L55.0299 27.4404Z" fill="#00FFFF" stroke="#00FFFF" stroke-width="0.5"/>
<path d="M51.0323 32.7334L50.5359 32.691C50.201 34.6353 49.5906 36.5216 48.7232 38.2926L48.6978 38.3446V38.4026V45.7245V46.3294L49.1248 45.901L50.9594 44.0608L51.0323 43.9876V43.8843V32.7334Z" fill="#00FFFF" stroke="#00FFFF" stroke-width="0.5"/>
<path d="M48.9902 46.1151C48.8802 46.1134 48.7754 46.0689 48.6978 45.9911C48.6194 45.9124 48.5752 45.8062 48.5745 45.6953L48.5745 45.6937L48.5745 38.3719V38.3717H48.8245L48.9902 46.1151ZM48.9902 46.1151C49.0469 46.1166 49.1034 46.1065 49.1562 46.0855C49.1562 46.0855 49.1562 46.0855 49.1562 46.0855L49.0639 45.8532L48.9902 46.1151ZM49.2997 45.9906L51.1334 44.1512L49.2997 45.9906ZM51.2566 32.711C51.2594 32.6602 51.253 32.6093 51.2377 32.5607C51.221 32.5079 51.1941 32.4589 51.1586 32.4164C51.123 32.374 51.0794 32.3389 51.0303 32.3133L50.9149 32.5347L51.0303 32.3133C50.9811 32.2877 50.9274 32.272 50.8721 32.2672C50.8169 32.2624 50.7612 32.2686 50.7083 32.2853C50.6555 32.3021 50.6065 32.3291 50.5641 32.3648L50.7157 32.5447L50.5641 32.3648C50.5218 32.4005 50.4869 32.4442 50.4614 32.4934C50.4379 32.5387 50.4229 32.5878 50.417 32.6384L51.2566 32.711ZM49.4163 38.4692C49.7964 37.6839 50.1278 36.8764 50.409 36.0514V43.6793L49.4163 44.675V38.4692Z" fill="#00FFFF" stroke="#00FFFF" stroke-width="0.5"/>
<path d="M50.8338 33.1231V33.1231H50.8042H50.7817L50.7596 33.1191C50.6499 33.0992 50.5527 33.0367 50.489 32.9456C50.4253 32.8544 50.4 32.7418 50.4187 32.6323L50.4187 32.6319C50.6206 31.4559 50.7223 30.2648 50.7228 29.0714L50.7228 29.0707C50.7324 26.2911 50.1785 23.5386 49.0948 20.9804C48.0113 18.423 46.421 16.1133 44.4204 14.1915C44.3802 14.1541 44.3476 14.1092 44.3245 14.0593C44.3009 14.0082 44.2878 13.9528 44.2859 13.8966C44.284 13.8403 44.2934 13.7842 44.3135 13.7316C44.3336 13.6791 44.3641 13.631 44.4031 13.5903C44.4421 13.5497 44.4889 13.5172 44.5408 13.495C44.5927 13.4727 44.6485 13.4612 44.7049 13.4609C44.7613 13.4607 44.8172 13.4719 44.8693 13.4937C44.9197 13.5149 44.9656 13.5457 45.0042 13.5844C47.0863 15.5852 48.7413 17.9895 49.8686 20.6514C50.9963 23.3142 51.5726 26.1791 51.5624 29.0721C51.5624 29.0722 51.5624 29.0723 51.5624 29.0724L51.3124 29.0715C51.3119 30.2974 51.2074 31.521 51.0001 32.7291L50.8338 33.1231ZM50.8338 33.1231L50.8386 33.123C50.9373 33.1211 51.032 33.0847 51.1065 33.0202C51.1807 32.956 51.2301 32.8679 51.2465 32.7713L50.8338 33.1231Z" fill="#00FFFF" stroke="#00FFFF" stroke-width="0.5"/>
<path d="M43.456 51.4545C43.5069 51.4757 43.5614 51.4866 43.6165 51.4866C43.6723 51.4871 43.7277 51.4762 43.7792 51.4548C43.8308 51.4333 43.8774 51.4017 43.9164 51.3618L51.077 44.1804L51.077 44.1804L51.0783 44.1791C51.156 44.1 51.1995 43.9935 51.1995 43.8827C51.1995 43.7719 51.156 43.6655 51.0783 43.5863L51.0781 43.5861C51.0391 43.5465 50.9926 43.515 50.9413 43.4935C50.8899 43.472 50.8348 43.4609 50.7792 43.4609C50.7236 43.4609 50.6685 43.472 50.6171 43.4935L50.7137 43.7241L50.6171 43.4935C50.5661 43.5149 50.5198 43.5461 50.481 43.5854C50.4807 43.5857 50.4805 43.5859 50.4803 43.5861L43.3198 50.7675L43.3198 50.7675L43.3185 50.7688C43.2407 50.8479 43.1973 50.9544 43.1973 51.0652C43.1973 51.176 43.2407 51.2825 43.3185 51.3616L43.3186 51.3617C43.3578 51.4015 43.4045 51.433 43.456 51.4545Z" fill="#00FFFF" stroke="#00FFFF" stroke-width="0.5"/>
<path d="M50.7788 43.8838L43.6172 51.0663" stroke="#00FFFF" stroke-width="0.5"/>
</g>
<g filter="url(#filter2_d_898_14902)">
<path d="M18.9675 50.9898L20.8978 52H39.1442L41.0745 50.9898L39.1442 49.9785H20.8978L18.9675 50.9898Z" fill="white"/>
<path d="M18.6478 8.12673L19.9012 10.8315C19.9135 10.8579 19.9205 10.8863 19.9217 10.9154C19.923 10.9444 19.9185 10.9734 19.9085 11.0007C19.8986 11.028 19.8833 11.053 19.8637 11.0744C19.8441 11.0958 19.8204 11.113 19.7941 11.1252C19.7679 11.1375 19.7394 11.1445 19.7105 11.1458C19.6815 11.147 19.6526 11.1425 19.6254 11.1325C19.5982 11.1226 19.5732 11.1073 19.5519 11.0876C19.5306 11.0679 19.5134 11.0442 19.5013 11.0178L18.249 8.31185C18.2367 8.28552 18.2297 8.25702 18.2285 8.22799C18.2272 8.19896 18.2317 8.16997 18.2417 8.14268C18.2516 8.11539 18.2668 8.09034 18.2865 8.06897C18.3061 8.0476 18.3298 8.03034 18.3561 8.01817C18.3823 8.00607 18.4107 7.99929 18.4396 7.9982C18.4685 7.99711 18.4973 8.00174 18.5244 8.01183C18.5515 8.02191 18.5763 8.03724 18.5975 8.05696C18.6187 8.07667 18.6358 8.10038 18.6478 8.12673Z" fill="white"/>
<path d="M19.8438 7.61034L20.9833 10.362C21.0062 10.4153 21.007 10.4756 20.9857 10.5296C20.9643 10.5836 20.9225 10.6269 20.8693 10.65C20.816 10.6729 20.7557 10.6738 20.7017 10.6524C20.6477 10.631 20.6043 10.589 20.581 10.5357L19.4416 7.78517C19.419 7.73163 19.4182 7.67131 19.4395 7.61723C19.4609 7.56316 19.5025 7.51964 19.5555 7.49607C19.6089 7.47339 19.6691 7.47266 19.723 7.49404C19.7769 7.51541 19.8203 7.55718 19.8438 7.61034Z" fill="white"/>
<path d="M21.06 7.14008L22.0924 9.93516C22.1024 9.96232 22.107 9.99119 22.1059 10.0201C22.1048 10.0491 22.098 10.0775 22.0859 10.1038C22.0739 10.1301 22.0568 10.1538 22.0356 10.1735C22.0144 10.1932 21.9896 10.2085 21.9625 10.2185C21.9354 10.2286 21.9066 10.2332 21.8777 10.2321C21.8489 10.231 21.8205 10.2242 21.7943 10.2121C21.768 10.2 21.7444 10.1829 21.7248 10.1616C21.7052 10.1404 21.6899 10.1154 21.6799 10.0883L20.6475 7.29435C20.6272 7.23933 20.6295 7.1785 20.6539 7.12517C20.6782 7.07184 20.7226 7.03036 20.7774 7.00981C20.8045 6.99976 20.8333 6.99515 20.8621 6.99625C20.891 6.99736 20.9194 7.00416 20.9456 7.01625C20.9719 7.02835 20.9955 7.04551 21.0151 7.06676C21.0347 7.088 21.05 7.11292 21.06 7.14008Z" fill="white"/>
<path d="M22.2875 6.72308L23.2093 9.55472C23.2184 9.58233 23.2219 9.61146 23.2197 9.64044C23.2175 9.66943 23.2096 9.69769 23.1965 9.7236C23.1833 9.74951 23.1652 9.77256 23.1432 9.79143C23.1211 9.8103 23.0956 9.82461 23.068 9.83355C23.0124 9.85158 22.9519 9.8468 22.8998 9.82025C22.8477 9.79369 22.8082 9.74753 22.79 9.69185L21.8682 6.8602C21.8502 6.80444 21.8549 6.7438 21.8814 6.69155C21.9079 6.6393 21.9539 6.59969 22.0094 6.58138C22.0651 6.56514 22.1248 6.57075 22.1764 6.59707C22.2281 6.62339 22.2678 6.66845 22.2875 6.72308Z" fill="white"/>
<path d="M23.5402 6.3458L24.3515 9.21287C24.3673 9.26939 24.3601 9.32988 24.3314 9.38107C24.3028 9.43227 24.2551 9.47 24.1988 9.48597C24.171 9.4938 24.1419 9.49604 24.1132 9.49258C24.0845 9.48912 24.0567 9.48001 24.0315 9.46579C24.0064 9.45157 23.9842 9.43251 23.9664 9.4097C23.9485 9.38689 23.9354 9.36077 23.9276 9.33285L23.1174 6.46692C23.1094 6.43901 23.107 6.40979 23.1103 6.38094C23.1136 6.35209 23.1226 6.32418 23.1366 6.2988C23.1507 6.27343 23.1697 6.25109 23.1924 6.23307C23.2151 6.21506 23.2411 6.20172 23.269 6.19382C23.325 6.17797 23.3851 6.18508 23.4359 6.21357C23.4868 6.24206 23.5243 6.28962 23.5402 6.3458Z" fill="white"/>
<path d="M24.7991 6.02711L25.4964 8.92389C25.5034 8.95203 25.5047 8.98127 25.5003 9.00993C25.4959 9.03859 25.4859 9.0661 25.4709 9.09085C25.4558 9.11561 25.4361 9.13713 25.4127 9.15418C25.3893 9.17122 25.3628 9.18344 25.3346 9.19014C25.3066 9.19711 25.2774 9.19844 25.2488 9.19405C25.2202 9.18965 25.1928 9.17962 25.1681 9.16453C25.1434 9.14944 25.122 9.1296 25.105 9.10614C25.088 9.08269 25.0758 9.05608 25.0691 9.02787L24.3706 6.1311C24.3638 6.10288 24.3627 6.0736 24.3672 6.04494C24.3717 6.01627 24.3819 5.98878 24.397 5.96405C24.4121 5.93931 24.432 5.91782 24.4554 5.9008C24.4789 5.88377 24.5054 5.87155 24.5336 5.86484C24.5616 5.85787 24.5908 5.85654 24.6194 5.86093C24.648 5.86533 24.6754 5.87536 24.7001 5.89045C24.7248 5.90554 24.7462 5.92538 24.7632 5.94884C24.7802 5.9723 24.7924 5.9989 24.7991 6.02711Z" fill="white"/>
<path d="M26.0732 5.75105L26.6566 8.67297C26.668 8.73024 26.6563 8.78971 26.624 8.83834C26.5918 8.88697 26.5416 8.92078 26.4845 8.93236C26.4274 8.94381 26.3681 8.93207 26.3196 8.89972C26.2711 8.86738 26.2374 8.81706 26.2259 8.75981L25.6425 5.83789C25.631 5.78062 25.6427 5.72115 25.675 5.67252C25.7073 5.62389 25.7574 5.59007 25.8145 5.5785C25.8716 5.56705 25.9309 5.57879 25.9794 5.61114C26.0279 5.64348 26.0616 5.6938 26.0732 5.75105Z" fill="white"/>
<path d="M27.3574 5.52802L27.8268 8.47051C27.8357 8.52837 27.8214 8.58739 27.787 8.6347C27.7526 8.68201 27.701 8.71377 27.6434 8.72305C27.5858 8.73227 27.5269 8.71819 27.4797 8.68391C27.4325 8.64963 27.4008 8.59794 27.3915 8.54022L26.9244 5.59773C26.9198 5.56906 26.921 5.53978 26.9277 5.51155C26.9345 5.48333 26.9468 5.45672 26.9638 5.43326C26.9808 5.4098 27.0023 5.38994 27.027 5.37483C27.0518 5.35972 27.0792 5.34964 27.1078 5.34519C27.165 5.33663 27.2233 5.35102 27.27 5.38524C27.3167 5.41946 27.3481 5.47076 27.3574 5.52802Z" fill="white"/>
<path d="M28.647 5.35602L29.0014 8.31222C29.0049 8.34104 29.0027 8.37027 28.9949 8.39823C28.9871 8.4262 28.9739 8.45234 28.956 8.47517C28.9381 8.49799 28.9159 8.51705 28.8906 8.53125C28.8654 8.54545 28.8376 8.5545 28.8088 8.5579C28.7801 8.56141 28.751 8.5592 28.7231 8.55138C28.6952 8.54357 28.6691 8.53031 28.6464 8.51236C28.6236 8.49442 28.6046 8.47215 28.5904 8.44682C28.5763 8.4215 28.5672 8.39362 28.5639 8.36478L28.2106 5.40744C28.2035 5.34941 28.2197 5.29093 28.2556 5.24486C28.2915 5.19879 28.3442 5.1689 28.402 5.16176C28.4309 5.15825 28.4601 5.16051 28.4881 5.1684C28.516 5.17628 28.5421 5.18964 28.5649 5.2077C28.5877 5.22576 28.6067 5.24817 28.6208 5.27362C28.6349 5.29908 28.6438 5.32708 28.647 5.35602Z" fill="white"/>
<path d="M29.9418 5.23414L30.1811 8.2052C30.1834 8.23409 30.18 8.26316 30.1712 8.29075C30.1623 8.31833 30.1481 8.34389 30.1293 8.36597C30.1106 8.38804 30.0877 8.4062 30.062 8.4194C30.0363 8.43259 30.0082 8.44057 29.9794 8.44288C29.9505 8.44538 29.9215 8.44212 29.8939 8.43328C29.8663 8.42444 29.8408 8.4102 29.8187 8.39139C29.7967 8.37258 29.7786 8.34956 29.7655 8.32368C29.7524 8.2978 29.7445 8.26957 29.7424 8.24062L29.5031 5.26957C29.4987 5.21111 29.5175 5.15327 29.5555 5.10873C29.5936 5.06418 29.6476 5.03655 29.7059 5.03188C29.7639 5.02747 29.8213 5.04627 29.8655 5.08417C29.9097 5.12208 29.9371 5.176 29.9418 5.23414Z" fill="white"/>
<path d="M17.622 7.6624C17.5844 7.66244 17.5478 7.65001 17.5179 7.62703C17.488 7.60405 17.4665 7.57182 17.4567 7.53534C17.447 7.49886 17.4495 7.46017 17.464 7.42529C17.4784 7.3904 17.5039 7.36128 17.5366 7.34244C21.3042 5.16872 25.5715 4.01675 29.9181 4C29.9635 4 30.0069 4.01806 30.039 4.0502C30.071 4.08235 30.0891 4.12595 30.0891 4.17141C30.0891 4.21687 30.071 4.26046 30.039 4.29261C30.0069 4.32475 29.9635 4.34281 29.9181 4.34281C25.631 4.35875 21.4221 5.495 17.7064 7.63954C17.6805 7.65394 17.6516 7.66179 17.622 7.6624Z" fill="white"/>
<path d="M52.0587 40.8122C52.0309 40.8124 52.0035 40.8057 51.9789 40.7927C51.9395 40.7716 51.91 40.7358 51.8966 40.6931C51.8832 40.6504 51.8869 40.6041 51.9071 40.5642C53.5154 37.4875 54.453 34.103 54.6578 30.6351C54.6592 30.6126 54.6649 30.5906 54.6747 30.5703C54.6846 30.55 54.6983 30.5318 54.7151 30.5169C54.7319 30.5019 54.7515 30.4904 54.7728 30.4831C54.794 30.4757 54.8165 30.4726 54.839 30.4739C54.8614 30.4753 54.8834 30.4811 54.9036 30.4909C54.9238 30.5008 54.9419 30.5146 54.9568 30.5314C54.9718 30.5483 54.9832 30.568 54.9906 30.5893C54.9979 30.6106 55.001 30.6332 54.9996 30.6557C54.7913 34.1718 53.8404 37.6033 52.2102 40.723C52.1954 40.7503 52.1734 40.7729 52.1467 40.7886C52.12 40.8043 52.0896 40.8125 52.0587 40.8122Z" fill="#FF0049"/>
<path d="M16.4393 50.1458C16.406 50.146 16.3734 50.136 16.3458 50.1172C13.0517 47.96 10.3109 45.0543 8.34589 41.6357C6.38085 38.2172 5.24688 34.3822 5.03599 30.4418C4.8251 26.5014 5.54323 22.5666 7.13211 18.9567C8.72099 15.3468 11.1359 12.1634 14.1808 9.66489C14.2149 9.63684 14.2585 9.62308 14.3024 9.62649C14.3464 9.62989 14.3873 9.65021 14.4167 9.68318L16.3014 11.8171C16.3316 11.8511 16.3471 11.8957 16.3446 11.9411C16.342 11.9866 16.3216 12.0291 16.2877 12.0594C16.2539 12.0897 16.2094 12.1053 16.1641 12.1028C16.1188 12.1002 16.0764 12.0797 16.0461 12.0457L14.2743 10.0398C11.3068 12.5075 8.95675 15.638 7.41224 19.1805C5.86774 22.723 5.17173 26.579 5.37996 30.4398C5.58819 34.3006 6.69488 38.0589 8.61139 41.4135C10.5279 44.7682 13.201 47.6261 16.4165 49.7583L17.9605 48.2027C17.9761 48.1858 17.995 48.1723 18.016 48.163C18.0369 48.1536 18.0596 48.1486 18.0825 48.1482C18.1055 48.1477 18.1282 48.152 18.1495 48.1606C18.1708 48.1692 18.1901 48.1821 18.2064 48.1983C18.2226 48.2146 18.2354 48.234 18.244 48.2554C18.2526 48.2767 18.2568 48.2996 18.2564 48.3226C18.256 48.3456 18.251 48.3683 18.2416 48.3893C18.2323 48.4104 18.2188 48.4293 18.202 48.445L16.5532 50.1C16.5222 50.129 16.4816 50.1453 16.4393 50.1458Z" fill="#FF0049"/>
<path d="M10.2239 44.3437C10.1967 44.3438 10.1697 44.3375 10.1453 44.3254C10.1057 44.3044 10.0759 44.2688 10.0621 44.2262C10.0482 44.1835 10.0515 44.1371 10.0712 44.0968L12.0209 40.2907C10.1327 37.2232 9.05162 33.7252 8.87884 30.1243C8.70605 26.5234 9.44723 22.9374 11.0329 19.7022L8.36885 16.7522C8.35146 16.736 8.33762 16.7163 8.32821 16.6945C8.3188 16.6726 8.31404 16.6491 8.31421 16.6253C8.31439 16.6014 8.31951 16.5779 8.32924 16.5562C8.33897 16.5345 8.3531 16.5151 8.37073 16.4991C8.38836 16.4832 8.4091 16.4711 8.43164 16.4637C8.45418 16.4562 8.47802 16.4536 8.50164 16.4559C8.52526 16.4582 8.54814 16.4654 8.56883 16.477C8.58953 16.4887 8.60757 16.5046 8.62182 16.5236L11.3645 19.5605C11.3878 19.586 11.4028 19.6181 11.4075 19.6524C11.4122 19.6867 11.4064 19.7216 11.3907 19.7525C9.79726 22.9586 9.0498 26.521 9.21977 30.0994C9.38973 33.6778 10.4714 37.1527 12.3616 40.1924C12.3774 40.2177 12.3864 40.2467 12.3878 40.2765C12.3892 40.3063 12.3829 40.336 12.3696 40.3627L10.3755 44.2488C10.3616 44.2773 10.34 44.3013 10.3132 44.318C10.2865 44.3348 10.2555 44.3437 10.2239 44.3437Z" fill="#FF0049"/>
<path d="M35.1323 23.9232C35.1552 23.2337 35.0397 22.5467 34.7924 21.9029C34.5452 21.2592 34.1714 20.6719 33.6932 20.176C33.2151 19.6801 32.6424 19.2858 32.0092 19.0165C31.376 18.7472 30.6953 18.6084 30.0075 18.6084C29.3198 18.6084 28.639 18.7472 28.0058 19.0165C27.3727 19.2858 26.8 19.6801 26.3218 20.176C25.8437 20.6719 25.4699 21.2592 25.2226 21.9029C24.9754 22.5467 24.8598 23.2337 24.8827 23.9232" fill="#FF0049"/>
<path d="M37.4191 23.9236C37.4191 21.9521 36.6383 20.0614 35.2486 18.6674C33.8588 17.2734 31.9739 16.4902 30.0085 16.4902C28.0431 16.4902 26.1582 17.2734 24.7684 18.6674C23.3787 20.0614 22.5979 21.9521 22.5979 23.9236M24.5418 23.9236C24.5182 23.1886 24.6421 22.4563 24.9062 21.7703C25.1702 21.0843 25.5691 20.4586 26.0791 19.9303C26.589 19.4019 27.1997 18.9819 27.8747 18.695C28.5497 18.4081 29.2754 18.2602 30.0085 18.2602C30.7416 18.2602 31.4672 18.4081 32.1423 18.695C32.8173 18.9819 33.4279 19.4019 33.9379 19.9303C34.4479 20.4586 34.8467 21.0843 35.1108 21.7703C35.3749 22.4563 35.4988 23.1886 35.4751 23.9236" fill="#FF0049"/>
<path d="M40.4741 13.6215L42.3884 15.5401C42.3813 14.661 42.1244 13.8022 41.6478 13.0643C41.1712 12.3265 40.4947 11.7402 39.6975 11.3744C38.9004 11.0085 38.0158 10.8782 37.1474 10.9987C36.2791 11.1193 35.463 11.4856 34.7949 12.0549L36.3571 13.6215H40.4741Z" fill="#FF0049"/>
<path d="M39.3171 19.941C40.1454 19.646 40.8727 19.1204 41.4138 18.4258H39.3171V19.941Z" fill="#FF0049"/>
<path d="M40.3349 13.9661H36.2179L34.5441 12.2871C33.9574 12.8663 33.5362 13.5925 33.3241 14.3903C33.1121 15.1881 33.1171 16.0284 33.3385 16.8236C34.8594 17.4932 36.1133 18.654 36.9005 20.1211C37.589 20.2563 38.2993 20.2313 38.9766 20.0479V18.0832H41.6578C42.0587 17.4594 42.3034 16.7477 42.3711 16.0086L40.3349 13.9661Z" fill="#FF0049"/>
<path d="M18.7588 13.2139C18.1148 13.2484 17.4937 13.465 16.9672 13.8386C16.4407 14.2122 16.0303 14.7276 15.7834 15.3252C15.5365 15.9228 15.4632 16.5783 15.5719 17.216C15.6806 17.8536 15.9669 18.4474 16.3978 18.9288L18.7588 16.5617V13.2139Z" fill="#FF0049"/>
<path d="M19.1002 13.2139V16.7045L16.6389 19.1722C17.0444 19.5433 17.533 19.811 18.0634 19.9527C18.5938 20.0943 19.1505 20.1058 19.6862 19.9861C20.222 19.8664 20.7211 19.619 21.1415 19.2649C21.5618 18.9108 21.8909 18.4604 22.101 17.9517C22.3111 17.4431 22.3961 16.8912 22.3486 16.3426C22.3011 15.7941 22.1227 15.2651 21.8283 14.8004C21.534 14.3357 21.1324 13.9489 20.6575 13.6727C20.1827 13.3966 19.6485 13.2392 19.1002 13.2139Z" fill="#FF0049"/>
<path opacity="0.52" d="M38.3245 35.5726L39.4206 36.6719H41.335V34.0322H38.3598L38.3245 35.5726Z" fill="#FF0049"/>
<path d="M39.2779 37.0162L37.9789 35.7132L38.0233 33.6901H41.6753V36.7568L45.8458 39.7399V33.321L44.6038 32.1494H36.5488V38.1718L38.323 39.9514H45.5518L41.4497 37.0162H39.2779Z" fill="#FF0049"/>
<path d="M38.3242 35.5716L39.4204 36.6709H41.3347V34.0312H38.3595L38.3242 35.5716Z" fill="#FF0049"/>
<path d="M50.9735 31.4356C50.9397 31.4356 50.9067 31.4255 50.8786 31.4067C50.8505 31.3878 50.8286 31.3611 50.8157 31.3298C50.8028 31.2985 50.7994 31.264 50.806 31.2308C50.8126 31.1975 50.8288 31.167 50.8527 31.143L54.6437 27.3403C53.9282 17.193 46.9773 8.42634 37.2918 5.43402V8.22974C37.2918 8.27521 37.2738 8.31882 37.2417 8.35098C37.2097 8.38313 37.1662 8.40119 37.1209 8.40119C37.0755 8.40119 37.0321 8.38313 37 8.35098C36.968 8.31882 36.95 8.27521 36.95 8.22974V5.20314C36.9499 5.17634 36.956 5.1499 36.9679 5.12589C36.9797 5.10189 36.997 5.08098 37.0183 5.06484C37.0396 5.04898 37.0643 5.03834 37.0904 5.03378C37.1165 5.02921 37.1434 5.03085 37.1687 5.03855C42.0562 6.50146 46.3818 9.42668 49.5666 13.4228C52.7515 17.419 54.6437 22.2955 54.9901 27.3998C54.992 27.4242 54.9885 27.4488 54.9798 27.4717C54.9712 27.4946 54.9576 27.5153 54.94 27.5324L51.0943 31.3911C51.0612 31.4208 51.0179 31.4368 50.9735 31.4356Z" fill="#00FFFF"/>
<path d="M50.7823 32.7334V43.8843L48.9478 45.7245V38.4026C49.8256 36.6102 50.4433 34.7012 50.7823 32.7334Z" fill="#00FFFF"/>
<path d="M48.9453 45.8964C48.9001 45.8961 48.8568 45.8779 48.8248 45.8458C48.7928 45.8137 48.7747 45.7703 48.7744 45.7249V38.403C48.7744 38.3765 48.7802 38.3504 48.7915 38.3264C49.6633 36.5491 50.2773 34.6558 50.6147 32.7041C50.6166 32.6816 50.623 32.6597 50.6333 32.6396C50.6437 32.6196 50.658 32.6018 50.6752 32.5872C50.6925 32.5727 50.7124 32.5617 50.7339 32.5549C50.7553 32.5481 50.778 32.5456 50.8004 32.5475C50.8228 32.5495 50.8447 32.5558 50.8647 32.5663C50.8847 32.5767 50.9024 32.5909 50.9169 32.6082C50.9314 32.6255 50.9424 32.6455 50.9492 32.6671C50.956 32.6886 50.9585 32.7113 50.9565 32.7338V43.8847C50.9565 43.9302 50.9384 43.9738 50.9064 44.0059L49.0718 45.8461C49.0553 45.8627 49.0356 45.8758 49.0138 45.8845C48.992 45.8931 48.9687 45.8972 48.9453 45.8964ZM49.1163 38.443V45.3112L50.609 43.8139V34.3591C50.2529 35.7683 49.7527 37.1369 49.1163 38.443Z" fill="#00FFFF"/>
<path d="M50.7837 32.9043H50.7541C50.7095 32.8962 50.6699 32.8708 50.6438 32.8336C50.6178 32.7963 50.6075 32.7503 50.6151 32.7055C50.8193 31.5155 50.9223 30.3103 50.9227 29.1028C50.9325 26.2894 50.3718 23.5034 49.2749 20.9141C48.1779 18.3248 46.5676 15.9863 44.5417 14.0406C44.5247 14.0252 44.511 14.0065 44.5014 13.9857C44.4918 13.9649 44.4865 13.9424 44.4857 13.9194C44.4849 13.8965 44.4887 13.8736 44.4969 13.8522C44.5051 13.8308 44.5175 13.8112 44.5334 13.7947C44.5493 13.7782 44.5683 13.765 44.5893 13.756C44.6103 13.747 44.633 13.7423 44.6558 13.7422C44.6787 13.7421 44.7014 13.7466 44.7225 13.7555C44.7436 13.7643 44.7627 13.7773 44.7787 13.7937C46.8374 15.7715 48.4738 18.1484 49.5884 20.7802C50.7029 23.4119 51.2725 26.2434 51.2623 29.1028C51.2618 30.3286 51.1574 31.5522 50.9501 32.7603C50.9435 32.8 50.9232 32.8361 50.8928 32.8624C50.8624 32.8887 50.8238 32.9036 50.7837 32.9043Z" fill="#00FFFF"/>
<path d="M19.6565 24.2881H15.5156V33.0044L19.6565 28.8509V24.2881Z" fill="#00FFFF"/>
<path d="M24.2567 46.7363L23.3201 47.6756H29.9336L28.9969 46.7363H24.2567Z" fill="#00FFFF"/>
<path d="M36.4943 29.8167H44.6062V28.3301H35.0129L36.4943 29.8167Z" fill="#00FFFF"/>
<path d="M31.724 24.2881H24.9065L24.8108 30.0647L31.724 36.9991V24.2881Z" fill="#00FFFF"/>
<path d="M29.1882 43.6911L24.048 38.5352H15.5156V43.2271L19.9493 47.6744H22.8345L24.113 46.392H29.1358L30.4143 47.6744H44.3284L40.3574 43.6911H29.1882Z" fill="#00FFFF"/>
<path d="M38.1832 40.2921L38.083 40.1915L36.3088 38.4119L36.2085 38.3113V38.1696V32.1472V31.8043H36.5504H44.6053V30.1584H36.3521L34.1871 27.9856H44.4344L40.7471 24.2881H32.0654V37.8267L24.4662 30.2041L24.5642 24.2881H19.9983V28.9926L15.5156 33.4891V38.1924H24.1905L29.3306 43.3484H40.4986L44.6053 47.4677V40.2921H38.3245H38.1832Z" fill="#00FFFF"/>
<path d="M43.6176 51.2366C43.5951 51.2367 43.5729 51.2323 43.5521 51.2237C43.5314 51.2151 43.5126 51.2024 43.4968 51.1863C43.4651 51.154 43.4473 51.1105 43.4473 51.0652C43.4473 51.0198 43.4651 50.9763 43.4968 50.944L50.6584 43.7615C50.6742 43.7455 50.693 43.7328 50.7137 43.7241C50.7345 43.7154 50.7567 43.7109 50.7792 43.7109C50.8017 43.7109 50.8239 43.7154 50.8446 43.7241C50.8654 43.7328 50.8842 43.7455 50.9 43.7615C50.9317 43.7938 50.9495 43.8374 50.9495 43.8827C50.9495 43.928 50.9317 43.9716 50.9 44.0039L43.7384 51.1863C43.7227 51.2025 43.7039 51.2153 43.6831 51.224C43.6624 51.2326 43.6401 51.2369 43.6176 51.2366Z" fill="#00FFFF"/>
</g>
<defs>
<filter id="filter0_f_898_14902" x="0.5" y="0" width="59.0408" height="56" filterUnits="userSpaceOnUse" color-interpolation-filters="sRGB">
<feFlood flood-opacity="0" result="BackgroundImageFix"/>
<feBlend mode="normal" in="SourceGraphic" in2="BackgroundImageFix" result="shape"/>
<feGaussianBlur stdDeviation="2" result="effect1_foregroundBlur_898_14902"/>
</filter>
<filter id="filter1_d_898_14902" x="11.0156" y="23.7881" width="38.6235" height="32.8896" filterUnits="userSpaceOnUse" color-interpolation-filters="sRGB">
<feFlood flood-opacity="0" result="BackgroundImageFix"/>
<feColorMatrix in="SourceAlpha" type="matrix" values="0 0 0 0 0 0 0 0 0 0 0 0 0 0 0 0 0 0 127 0" result="hardAlpha"/>
<feOffset dy="4"/>
<feGaussianBlur stdDeviation="2"/>
<feComposite in2="hardAlpha" operator="out"/>
<feColorMatrix type="matrix" values="0 0 0 0 0 0 0 0 0 0 0 0 0 0 0 0 0 0 0.25 0"/>
<feBlend mode="normal" in2="BackgroundImageFix" result="effect1_dropShadow_898_14902"/>
<feBlend mode="normal" in="SourceGraphic" in2="effect1_dropShadow_898_14902" result="shape"/>
</filter>
<filter id="filter2_d_898_14902" x="1" y="4" width="58" height="56" filterUnits="userSpaceOnUse" color-interpolation-filters="sRGB">
<feFlood flood-opacity="0" result="BackgroundImageFix"/>
<feColorMatrix in="SourceAlpha" type="matrix" values="0 0 0 0 0 0 0 0 0 0 0 0 0 0 0 0 0 0 127 0" result="hardAlpha"/>
<feOffset dy="4"/>
<feGaussianBlur stdDeviation="2"/>
<feComposite in2="hardAlpha" operator="out"/>
<feColorMatrix type="matrix" values="0 0 0 0 0 0 0 0 0 0 0 0 0 0 0 0 0 0 0.25 0"/>
<feBlend mode="normal" in2="BackgroundImageFix" result="effect1_dropShadow_898_14902"/>
<feBlend mode="normal" in="SourceGraphic" in2="effect1_dropShadow_898_14902" result="shape"/>
</filter>
</defs>
</svg>
